G04 #@! TF.GenerationSoftware,KiCad,Pcbnew,5.0.2+dfsg1-1*
G04 #@! TF.CreationDate,2019-02-11T17:55:52+01:00*
G04 #@! TF.ProjectId,yaacwk,79616163-776b-42e6-9b69-6361645f7063,1.2*
G04 #@! TF.SameCoordinates,Original*
G04 #@! TF.FileFunction,Legend,Top*
G04 #@! TF.FilePolarity,Positive*
%FSLAX46Y46*%
G04 Gerber Fmt 4.6, Leading zero omitted, Abs format (unit mm)*
G04 Created by KiCad (PCBNEW 5.0.2+dfsg1-1) date lun 11 feb 2019 17:55:52 CET*
%MOMM*%
%LPD*%
G01*
G04 APERTURE LIST*
%ADD10C,0.125000*%
%ADD11C,0.200000*%
%ADD12C,0.300000*%
%ADD13C,0.250000*%
%ADD14C,0.120000*%
%ADD15C,0.150000*%
%ADD16C,0.381000*%
%ADD17C,0.010000*%
%ADD18C,0.100000*%
%ADD19C,0.304800*%
G04 APERTURE END LIST*
D10*
X122285714Y-104297619D02*
X122285714Y-103916666D01*
X122476190Y-104107142D02*
X122095238Y-104107142D01*
X121976190Y-103726190D02*
X121976190Y-103416666D01*
X122166666Y-103583333D01*
X122166666Y-103511904D01*
X122190476Y-103464285D01*
X122214285Y-103440476D01*
X122261904Y-103416666D01*
X122380952Y-103416666D01*
X122428571Y-103440476D01*
X122452380Y-103464285D01*
X122476190Y-103511904D01*
X122476190Y-103654761D01*
X122452380Y-103702380D01*
X122428571Y-103726190D01*
X121976190Y-103273809D02*
X122476190Y-103107142D01*
X121976190Y-102940476D01*
X121976190Y-102821428D02*
X121976190Y-102511904D01*
X122166666Y-102678571D01*
X122166666Y-102607142D01*
X122190476Y-102559523D01*
X122214285Y-102535714D01*
X122261904Y-102511904D01*
X122380952Y-102511904D01*
X122428571Y-102535714D01*
X122452380Y-102559523D01*
X122476190Y-102607142D01*
X122476190Y-102749999D01*
X122452380Y-102797619D01*
X122428571Y-102821428D01*
X122285714Y-101154761D02*
X122285714Y-100773809D01*
X122476190Y-100964285D02*
X122095238Y-100964285D01*
X121976190Y-100297619D02*
X121976190Y-100535714D01*
X122214285Y-100559523D01*
X122190476Y-100535714D01*
X122166666Y-100488095D01*
X122166666Y-100369047D01*
X122190476Y-100321428D01*
X122214285Y-100297619D01*
X122261904Y-100273809D01*
X122380952Y-100273809D01*
X122428571Y-100297619D01*
X122452380Y-100321428D01*
X122476190Y-100369047D01*
X122476190Y-100488095D01*
X122452380Y-100535714D01*
X122428571Y-100559523D01*
X121976190Y-100130952D02*
X122476190Y-99964285D01*
X121976190Y-99797619D01*
X122476190Y-98488095D02*
X121976190Y-98488095D01*
X121976190Y-98297619D01*
X122000000Y-98249999D01*
X122023809Y-98226190D01*
X122071428Y-98202380D01*
X122142857Y-98202380D01*
X122190476Y-98226190D01*
X122214285Y-98249999D01*
X122238095Y-98297619D01*
X122238095Y-98488095D01*
X122214285Y-97821428D02*
X122238095Y-97749999D01*
X122261904Y-97726190D01*
X122309523Y-97702380D01*
X122380952Y-97702380D01*
X122428571Y-97726190D01*
X122452380Y-97749999D01*
X122476190Y-97797619D01*
X122476190Y-97988095D01*
X121976190Y-97988095D01*
X121976190Y-97821428D01*
X122000000Y-97773809D01*
X122023809Y-97749999D01*
X122071428Y-97726190D01*
X122119047Y-97726190D01*
X122166666Y-97749999D01*
X122190476Y-97773809D01*
X122214285Y-97821428D01*
X122214285Y-97988095D01*
X122476190Y-97226190D02*
X122476190Y-97511904D01*
X122476190Y-97369047D02*
X121976190Y-97369047D01*
X122047619Y-97416666D01*
X122095238Y-97464285D01*
X122119047Y-97511904D01*
X122476190Y-95869047D02*
X121976190Y-95869047D01*
X121976190Y-95678571D01*
X122000000Y-95630952D01*
X122023809Y-95607142D01*
X122071428Y-95583333D01*
X122142857Y-95583333D01*
X122190476Y-95607142D01*
X122214285Y-95630952D01*
X122238095Y-95678571D01*
X122238095Y-95869047D01*
X122214285Y-95202380D02*
X122238095Y-95130952D01*
X122261904Y-95107142D01*
X122309523Y-95083333D01*
X122380952Y-95083333D01*
X122428571Y-95107142D01*
X122452380Y-95130952D01*
X122476190Y-95178571D01*
X122476190Y-95369047D01*
X121976190Y-95369047D01*
X121976190Y-95202380D01*
X122000000Y-95154761D01*
X122023809Y-95130952D01*
X122071428Y-95107142D01*
X122119047Y-95107142D01*
X122166666Y-95130952D01*
X122190476Y-95154761D01*
X122214285Y-95202380D01*
X122214285Y-95369047D01*
X121976190Y-94773809D02*
X121976190Y-94726190D01*
X122000000Y-94678571D01*
X122023809Y-94654761D01*
X122071428Y-94630952D01*
X122166666Y-94607142D01*
X122285714Y-94607142D01*
X122380952Y-94630952D01*
X122428571Y-94654761D01*
X122452380Y-94678571D01*
X122476190Y-94726190D01*
X122476190Y-94773809D01*
X122452380Y-94821428D01*
X122428571Y-94845238D01*
X122380952Y-94869047D01*
X122285714Y-94892857D01*
X122166666Y-94892857D01*
X122071428Y-94869047D01*
X122023809Y-94845238D01*
X122000000Y-94821428D01*
X121976190Y-94773809D01*
X122476190Y-93630952D02*
X121976190Y-93630952D01*
X122333333Y-93464285D01*
X121976190Y-93297619D01*
X122476190Y-93297619D01*
X121976190Y-92964285D02*
X121976190Y-92869047D01*
X122000000Y-92821428D01*
X122047619Y-92773809D01*
X122142857Y-92750000D01*
X122309523Y-92750000D01*
X122404761Y-92773809D01*
X122452380Y-92821428D01*
X122476190Y-92869047D01*
X122476190Y-92964285D01*
X122452380Y-93011904D01*
X122404761Y-93059523D01*
X122309523Y-93083333D01*
X122142857Y-93083333D01*
X122047619Y-93059523D01*
X122000000Y-93011904D01*
X121976190Y-92964285D01*
X122452380Y-92559523D02*
X122476190Y-92488095D01*
X122476190Y-92369047D01*
X122452380Y-92321428D01*
X122428571Y-92297619D01*
X122380952Y-92273809D01*
X122333333Y-92273809D01*
X122285714Y-92297619D01*
X122261904Y-92321428D01*
X122238095Y-92369047D01*
X122214285Y-92464285D01*
X122190476Y-92511904D01*
X122166666Y-92535714D01*
X122119047Y-92559523D01*
X122071428Y-92559523D01*
X122023809Y-92535714D01*
X122000000Y-92511904D01*
X121976190Y-92464285D01*
X121976190Y-92345238D01*
X122000000Y-92273809D01*
X122476190Y-92059523D02*
X121976190Y-92059523D01*
X122476190Y-90678571D02*
X121976190Y-90678571D01*
X122333333Y-90511904D01*
X121976190Y-90345238D01*
X122476190Y-90345238D01*
X122476190Y-90107142D02*
X121976190Y-90107142D01*
X122452380Y-89892857D02*
X122476190Y-89821428D01*
X122476190Y-89702380D01*
X122452380Y-89654761D01*
X122428571Y-89630952D01*
X122380952Y-89607142D01*
X122333333Y-89607142D01*
X122285714Y-89630952D01*
X122261904Y-89654761D01*
X122238095Y-89702380D01*
X122214285Y-89797619D01*
X122190476Y-89845238D01*
X122166666Y-89869047D01*
X122119047Y-89892857D01*
X122071428Y-89892857D01*
X122023809Y-89869047D01*
X122000000Y-89845238D01*
X121976190Y-89797619D01*
X121976190Y-89678571D01*
X122000000Y-89607142D01*
X121976190Y-89297619D02*
X121976190Y-89202380D01*
X122000000Y-89154761D01*
X122047619Y-89107142D01*
X122142857Y-89083333D01*
X122309523Y-89083333D01*
X122404761Y-89107142D01*
X122452380Y-89154761D01*
X122476190Y-89202380D01*
X122476190Y-89297619D01*
X122452380Y-89345238D01*
X122404761Y-89392857D01*
X122309523Y-89416666D01*
X122142857Y-89416666D01*
X122047619Y-89392857D01*
X122000000Y-89345238D01*
X121976190Y-89297619D01*
X122452380Y-88130952D02*
X122476190Y-88059523D01*
X122476190Y-87940476D01*
X122452380Y-87892857D01*
X122428571Y-87869047D01*
X122380952Y-87845238D01*
X122333333Y-87845238D01*
X122285714Y-87869047D01*
X122261904Y-87892857D01*
X122238095Y-87940476D01*
X122214285Y-88035714D01*
X122190476Y-88083333D01*
X122166666Y-88107142D01*
X122119047Y-88130952D01*
X122071428Y-88130952D01*
X122023809Y-88107142D01*
X122000000Y-88083333D01*
X121976190Y-88035714D01*
X121976190Y-87916666D01*
X122000000Y-87845238D01*
X122428571Y-87345238D02*
X122452380Y-87369047D01*
X122476190Y-87440476D01*
X122476190Y-87488095D01*
X122452380Y-87559523D01*
X122404761Y-87607142D01*
X122357142Y-87630952D01*
X122261904Y-87654761D01*
X122190476Y-87654761D01*
X122095238Y-87630952D01*
X122047619Y-87607142D01*
X122000000Y-87559523D01*
X121976190Y-87488095D01*
X121976190Y-87440476D01*
X122000000Y-87369047D01*
X122023809Y-87345238D01*
X122476190Y-87130952D02*
X121976190Y-87130952D01*
X122476190Y-86845238D02*
X122190476Y-87059523D01*
X121976190Y-86845238D02*
X122261904Y-87130952D01*
X122000000Y-85226190D02*
X121976190Y-85273809D01*
X121976190Y-85345238D01*
X122000000Y-85416666D01*
X122047619Y-85464285D01*
X122095238Y-85488095D01*
X122190476Y-85511904D01*
X122261904Y-85511904D01*
X122357142Y-85488095D01*
X122404761Y-85464285D01*
X122452380Y-85416666D01*
X122476190Y-85345238D01*
X122476190Y-85297619D01*
X122452380Y-85226190D01*
X122428571Y-85202380D01*
X122261904Y-85202380D01*
X122261904Y-85297619D01*
X122476190Y-84988095D02*
X121976190Y-84988095D01*
X122476190Y-84702380D01*
X121976190Y-84702380D01*
X122476190Y-84464285D02*
X121976190Y-84464285D01*
X121976190Y-84345238D01*
X122000000Y-84273809D01*
X122047619Y-84226190D01*
X122095238Y-84202380D01*
X122190476Y-84178571D01*
X122261904Y-84178571D01*
X122357142Y-84202380D01*
X122404761Y-84226190D01*
X122452380Y-84273809D01*
X122476190Y-84345238D01*
X122476190Y-84464285D01*
D11*
X166638095Y-115161904D02*
X166371428Y-114780952D01*
X166180952Y-115161904D02*
X166180952Y-114361904D01*
X166485714Y-114361904D01*
X166561904Y-114400000D01*
X166600000Y-114438095D01*
X166638095Y-114514285D01*
X166638095Y-114628571D01*
X166600000Y-114704761D01*
X166561904Y-114742857D01*
X166485714Y-114780952D01*
X166180952Y-114780952D01*
X166980952Y-114742857D02*
X167247619Y-114742857D01*
X167361904Y-115161904D02*
X166980952Y-115161904D01*
X166980952Y-114361904D01*
X167361904Y-114361904D01*
X167666666Y-115123809D02*
X167780952Y-115161904D01*
X167971428Y-115161904D01*
X168047619Y-115123809D01*
X168085714Y-115085714D01*
X168123809Y-115009523D01*
X168123809Y-114933333D01*
X168085714Y-114857142D01*
X168047619Y-114819047D01*
X167971428Y-114780952D01*
X167819047Y-114742857D01*
X167742857Y-114704761D01*
X167704761Y-114666666D01*
X167666666Y-114590476D01*
X167666666Y-114514285D01*
X167704761Y-114438095D01*
X167742857Y-114400000D01*
X167819047Y-114361904D01*
X168009523Y-114361904D01*
X168123809Y-114400000D01*
X168466666Y-114742857D02*
X168733333Y-114742857D01*
X168847619Y-115161904D02*
X168466666Y-115161904D01*
X168466666Y-114361904D01*
X168847619Y-114361904D01*
X169076190Y-114361904D02*
X169533333Y-114361904D01*
X169304761Y-115161904D02*
X169304761Y-114361904D01*
D10*
X173478571Y-78335714D02*
X173859523Y-78335714D01*
X173669047Y-78526190D02*
X173669047Y-78145238D01*
X174335714Y-78026190D02*
X174097619Y-78026190D01*
X174073809Y-78264285D01*
X174097619Y-78240476D01*
X174145238Y-78216666D01*
X174264285Y-78216666D01*
X174311904Y-78240476D01*
X174335714Y-78264285D01*
X174359523Y-78311904D01*
X174359523Y-78430952D01*
X174335714Y-78478571D01*
X174311904Y-78502380D01*
X174264285Y-78526190D01*
X174145238Y-78526190D01*
X174097619Y-78502380D01*
X174073809Y-78478571D01*
X174502380Y-78026190D02*
X174669047Y-78526190D01*
X174835714Y-78026190D01*
X174883333Y-78573809D02*
X175264285Y-78573809D01*
X175383333Y-78526190D02*
X175383333Y-78026190D01*
X175621428Y-78526190D02*
X175621428Y-78026190D01*
X175907142Y-78526190D01*
X175907142Y-78026190D01*
X177288095Y-78335714D02*
X177669047Y-78335714D01*
X179716666Y-78526190D02*
X179550000Y-78288095D01*
X179430952Y-78526190D02*
X179430952Y-78026190D01*
X179621428Y-78026190D01*
X179669047Y-78050000D01*
X179692857Y-78073809D01*
X179716666Y-78121428D01*
X179716666Y-78192857D01*
X179692857Y-78240476D01*
X179669047Y-78264285D01*
X179621428Y-78288095D01*
X179430952Y-78288095D01*
X179883333Y-78026190D02*
X180216666Y-78526190D01*
X180216666Y-78026190D02*
X179883333Y-78526190D01*
X180502380Y-78026190D02*
X180550000Y-78026190D01*
X180597619Y-78050000D01*
X180621428Y-78073809D01*
X180645238Y-78121428D01*
X180669047Y-78216666D01*
X180669047Y-78335714D01*
X180645238Y-78430952D01*
X180621428Y-78478571D01*
X180597619Y-78502380D01*
X180550000Y-78526190D01*
X180502380Y-78526190D01*
X180454761Y-78502380D01*
X180430952Y-78478571D01*
X180407142Y-78430952D01*
X180383333Y-78335714D01*
X180383333Y-78216666D01*
X180407142Y-78121428D01*
X180430952Y-78073809D01*
X180454761Y-78050000D01*
X180502380Y-78026190D01*
X181954761Y-78026190D02*
X182240476Y-78026190D01*
X182097619Y-78526190D02*
X182097619Y-78026190D01*
X182359523Y-78026190D02*
X182692857Y-78526190D01*
X182692857Y-78026190D02*
X182359523Y-78526190D01*
X182978571Y-78026190D02*
X183026190Y-78026190D01*
X183073809Y-78050000D01*
X183097619Y-78073809D01*
X183121428Y-78121428D01*
X183145238Y-78216666D01*
X183145238Y-78335714D01*
X183121428Y-78430952D01*
X183097619Y-78478571D01*
X183073809Y-78502380D01*
X183026190Y-78526190D01*
X182978571Y-78526190D01*
X182930952Y-78502380D01*
X182907142Y-78478571D01*
X182883333Y-78430952D01*
X182859523Y-78335714D01*
X182859523Y-78216666D01*
X182883333Y-78121428D01*
X182907142Y-78073809D01*
X182930952Y-78050000D01*
X182978571Y-78026190D01*
X167202380Y-83376190D02*
X167035714Y-83138095D01*
X166916666Y-83376190D02*
X166916666Y-82876190D01*
X167107142Y-82876190D01*
X167154761Y-82900000D01*
X167178571Y-82923809D01*
X167202380Y-82971428D01*
X167202380Y-83042857D01*
X167178571Y-83090476D01*
X167154761Y-83114285D01*
X167107142Y-83138095D01*
X166916666Y-83138095D01*
X167369047Y-82876190D02*
X167702380Y-83376190D01*
X167702380Y-82876190D02*
X167369047Y-83376190D01*
X168154761Y-83376190D02*
X167869047Y-83376190D01*
X168011904Y-83376190D02*
X168011904Y-82876190D01*
X167964285Y-82947619D01*
X167916666Y-82995238D01*
X167869047Y-83019047D01*
X169440476Y-82876190D02*
X169726190Y-82876190D01*
X169583333Y-83376190D02*
X169583333Y-82876190D01*
X169845238Y-82876190D02*
X170178571Y-83376190D01*
X170178571Y-82876190D02*
X169845238Y-83376190D01*
X170630952Y-83376190D02*
X170345238Y-83376190D01*
X170488095Y-83376190D02*
X170488095Y-82876190D01*
X170440476Y-82947619D01*
X170392857Y-82995238D01*
X170345238Y-83019047D01*
X171988095Y-83376190D02*
X171988095Y-82876190D01*
X172178571Y-82876190D01*
X172226190Y-82900000D01*
X172250000Y-82923809D01*
X172273809Y-82971428D01*
X172273809Y-83042857D01*
X172250000Y-83090476D01*
X172226190Y-83114285D01*
X172178571Y-83138095D01*
X171988095Y-83138095D01*
X172773809Y-83328571D02*
X172750000Y-83352380D01*
X172678571Y-83376190D01*
X172630952Y-83376190D01*
X172559523Y-83352380D01*
X172511904Y-83304761D01*
X172488095Y-83257142D01*
X172464285Y-83161904D01*
X172464285Y-83090476D01*
X172488095Y-82995238D01*
X172511904Y-82947619D01*
X172559523Y-82900000D01*
X172630952Y-82876190D01*
X172678571Y-82876190D01*
X172750000Y-82900000D01*
X172773809Y-82923809D01*
X172940476Y-82876190D02*
X173250000Y-82876190D01*
X173083333Y-83066666D01*
X173154761Y-83066666D01*
X173202380Y-83090476D01*
X173226190Y-83114285D01*
X173250000Y-83161904D01*
X173250000Y-83280952D01*
X173226190Y-83328571D01*
X173202380Y-83352380D01*
X173154761Y-83376190D01*
X173011904Y-83376190D01*
X172964285Y-83352380D01*
X172940476Y-83328571D01*
X174607142Y-83376190D02*
X174607142Y-82876190D01*
X174797619Y-82876190D01*
X174845238Y-82900000D01*
X174869047Y-82923809D01*
X174892857Y-82971428D01*
X174892857Y-83042857D01*
X174869047Y-83090476D01*
X174845238Y-83114285D01*
X174797619Y-83138095D01*
X174607142Y-83138095D01*
X175392857Y-83328571D02*
X175369047Y-83352380D01*
X175297619Y-83376190D01*
X175250000Y-83376190D01*
X175178571Y-83352380D01*
X175130952Y-83304761D01*
X175107142Y-83257142D01*
X175083333Y-83161904D01*
X175083333Y-83090476D01*
X175107142Y-82995238D01*
X175130952Y-82947619D01*
X175178571Y-82900000D01*
X175250000Y-82876190D01*
X175297619Y-82876190D01*
X175369047Y-82900000D01*
X175392857Y-82923809D01*
X175583333Y-82923809D02*
X175607142Y-82900000D01*
X175654761Y-82876190D01*
X175773809Y-82876190D01*
X175821428Y-82900000D01*
X175845238Y-82923809D01*
X175869047Y-82971428D01*
X175869047Y-83019047D01*
X175845238Y-83090476D01*
X175559523Y-83376190D01*
X175869047Y-83376190D01*
X177226190Y-83376190D02*
X177226190Y-82876190D01*
X177416666Y-82876190D01*
X177464285Y-82900000D01*
X177488095Y-82923809D01*
X177511904Y-82971428D01*
X177511904Y-83042857D01*
X177488095Y-83090476D01*
X177464285Y-83114285D01*
X177416666Y-83138095D01*
X177226190Y-83138095D01*
X178011904Y-83328571D02*
X177988095Y-83352380D01*
X177916666Y-83376190D01*
X177869047Y-83376190D01*
X177797619Y-83352380D01*
X177750000Y-83304761D01*
X177726190Y-83257142D01*
X177702380Y-83161904D01*
X177702380Y-83090476D01*
X177726190Y-82995238D01*
X177750000Y-82947619D01*
X177797619Y-82900000D01*
X177869047Y-82876190D01*
X177916666Y-82876190D01*
X177988095Y-82900000D01*
X178011904Y-82923809D01*
X178488095Y-83376190D02*
X178202380Y-83376190D01*
X178345238Y-83376190D02*
X178345238Y-82876190D01*
X178297619Y-82947619D01*
X178250000Y-82995238D01*
X178202380Y-83019047D01*
X179845238Y-83376190D02*
X179845238Y-82876190D01*
X180035714Y-82876190D01*
X180083333Y-82900000D01*
X180107142Y-82923809D01*
X180130952Y-82971428D01*
X180130952Y-83042857D01*
X180107142Y-83090476D01*
X180083333Y-83114285D01*
X180035714Y-83138095D01*
X179845238Y-83138095D01*
X180630952Y-83328571D02*
X180607142Y-83352380D01*
X180535714Y-83376190D01*
X180488095Y-83376190D01*
X180416666Y-83352380D01*
X180369047Y-83304761D01*
X180345238Y-83257142D01*
X180321428Y-83161904D01*
X180321428Y-83090476D01*
X180345238Y-82995238D01*
X180369047Y-82947619D01*
X180416666Y-82900000D01*
X180488095Y-82876190D01*
X180535714Y-82876190D01*
X180607142Y-82900000D01*
X180630952Y-82923809D01*
X180940476Y-82876190D02*
X180988095Y-82876190D01*
X181035714Y-82900000D01*
X181059523Y-82923809D01*
X181083333Y-82971428D01*
X181107142Y-83066666D01*
X181107142Y-83185714D01*
X181083333Y-83280952D01*
X181059523Y-83328571D01*
X181035714Y-83352380D01*
X180988095Y-83376190D01*
X180940476Y-83376190D01*
X180892857Y-83352380D01*
X180869047Y-83328571D01*
X180845238Y-83280952D01*
X180821428Y-83185714D01*
X180821428Y-83066666D01*
X180845238Y-82971428D01*
X180869047Y-82923809D01*
X180892857Y-82900000D01*
X180940476Y-82876190D01*
X129635714Y-103976190D02*
X129635714Y-103595238D01*
X129826190Y-103785714D02*
X129445238Y-103785714D01*
X129326190Y-103404761D02*
X129326190Y-103095238D01*
X129516666Y-103261904D01*
X129516666Y-103190476D01*
X129540476Y-103142857D01*
X129564285Y-103119047D01*
X129611904Y-103095238D01*
X129730952Y-103095238D01*
X129778571Y-103119047D01*
X129802380Y-103142857D01*
X129826190Y-103190476D01*
X129826190Y-103333333D01*
X129802380Y-103380952D01*
X129778571Y-103404761D01*
X129326190Y-102952380D02*
X129826190Y-102785714D01*
X129326190Y-102619047D01*
X129326190Y-102500000D02*
X129326190Y-102190476D01*
X129516666Y-102357142D01*
X129516666Y-102285714D01*
X129540476Y-102238095D01*
X129564285Y-102214285D01*
X129611904Y-102190476D01*
X129730952Y-102190476D01*
X129778571Y-102214285D01*
X129802380Y-102238095D01*
X129826190Y-102285714D01*
X129826190Y-102428571D01*
X129802380Y-102476190D01*
X129778571Y-102500000D01*
X129635714Y-100833333D02*
X129635714Y-100452380D01*
X129826190Y-100642857D02*
X129445238Y-100642857D01*
X129326190Y-99976190D02*
X129326190Y-100214285D01*
X129564285Y-100238095D01*
X129540476Y-100214285D01*
X129516666Y-100166666D01*
X129516666Y-100047619D01*
X129540476Y-100000000D01*
X129564285Y-99976190D01*
X129611904Y-99952380D01*
X129730952Y-99952380D01*
X129778571Y-99976190D01*
X129802380Y-100000000D01*
X129826190Y-100047619D01*
X129826190Y-100166666D01*
X129802380Y-100214285D01*
X129778571Y-100238095D01*
X129326190Y-99809523D02*
X129826190Y-99642857D01*
X129326190Y-99476190D01*
X129826190Y-98166666D02*
X129326190Y-98166666D01*
X129326190Y-97976190D01*
X129350000Y-97928571D01*
X129373809Y-97904761D01*
X129421428Y-97880952D01*
X129492857Y-97880952D01*
X129540476Y-97904761D01*
X129564285Y-97928571D01*
X129588095Y-97976190D01*
X129588095Y-98166666D01*
X129564285Y-97500000D02*
X129588095Y-97428571D01*
X129611904Y-97404761D01*
X129659523Y-97380952D01*
X129730952Y-97380952D01*
X129778571Y-97404761D01*
X129802380Y-97428571D01*
X129826190Y-97476190D01*
X129826190Y-97666666D01*
X129326190Y-97666666D01*
X129326190Y-97500000D01*
X129350000Y-97452380D01*
X129373809Y-97428571D01*
X129421428Y-97404761D01*
X129469047Y-97404761D01*
X129516666Y-97428571D01*
X129540476Y-97452380D01*
X129564285Y-97500000D01*
X129564285Y-97666666D01*
X129326190Y-97214285D02*
X129326190Y-96904761D01*
X129516666Y-97071428D01*
X129516666Y-97000000D01*
X129540476Y-96952380D01*
X129564285Y-96928571D01*
X129611904Y-96904761D01*
X129730952Y-96904761D01*
X129778571Y-96928571D01*
X129802380Y-96952380D01*
X129826190Y-97000000D01*
X129826190Y-97142857D01*
X129802380Y-97190476D01*
X129778571Y-97214285D01*
X129802380Y-95571428D02*
X129826190Y-95500000D01*
X129826190Y-95380952D01*
X129802380Y-95333333D01*
X129778571Y-95309523D01*
X129730952Y-95285714D01*
X129683333Y-95285714D01*
X129635714Y-95309523D01*
X129611904Y-95333333D01*
X129588095Y-95380952D01*
X129564285Y-95476190D01*
X129540476Y-95523809D01*
X129516666Y-95547619D01*
X129469047Y-95571428D01*
X129421428Y-95571428D01*
X129373809Y-95547619D01*
X129350000Y-95523809D01*
X129326190Y-95476190D01*
X129326190Y-95357142D01*
X129350000Y-95285714D01*
X129802380Y-95095238D02*
X129826190Y-95023809D01*
X129826190Y-94904761D01*
X129802380Y-94857142D01*
X129778571Y-94833333D01*
X129730952Y-94809523D01*
X129683333Y-94809523D01*
X129635714Y-94833333D01*
X129611904Y-94857142D01*
X129588095Y-94904761D01*
X129564285Y-95000000D01*
X129540476Y-95047619D01*
X129516666Y-95071428D01*
X129469047Y-95095238D01*
X129421428Y-95095238D01*
X129373809Y-95071428D01*
X129350000Y-95047619D01*
X129326190Y-95000000D01*
X129326190Y-94880952D01*
X129350000Y-94809523D01*
X129826190Y-93452380D02*
X129326190Y-93452380D01*
X129683333Y-93285714D01*
X129326190Y-93119047D01*
X129826190Y-93119047D01*
X129326190Y-92785714D02*
X129326190Y-92690476D01*
X129350000Y-92642857D01*
X129397619Y-92595238D01*
X129492857Y-92571428D01*
X129659523Y-92571428D01*
X129754761Y-92595238D01*
X129802380Y-92642857D01*
X129826190Y-92690476D01*
X129826190Y-92785714D01*
X129802380Y-92833333D01*
X129754761Y-92880952D01*
X129659523Y-92904761D01*
X129492857Y-92904761D01*
X129397619Y-92880952D01*
X129350000Y-92833333D01*
X129326190Y-92785714D01*
X129802380Y-92380952D02*
X129826190Y-92309523D01*
X129826190Y-92190476D01*
X129802380Y-92142857D01*
X129778571Y-92119047D01*
X129730952Y-92095238D01*
X129683333Y-92095238D01*
X129635714Y-92119047D01*
X129611904Y-92142857D01*
X129588095Y-92190476D01*
X129564285Y-92285714D01*
X129540476Y-92333333D01*
X129516666Y-92357142D01*
X129469047Y-92380952D01*
X129421428Y-92380952D01*
X129373809Y-92357142D01*
X129350000Y-92333333D01*
X129326190Y-92285714D01*
X129326190Y-92166666D01*
X129350000Y-92095238D01*
X129826190Y-91880952D02*
X129326190Y-91880952D01*
X129826190Y-90500000D02*
X129326190Y-90500000D01*
X129683333Y-90333333D01*
X129326190Y-90166666D01*
X129826190Y-90166666D01*
X129826190Y-89928571D02*
X129326190Y-89928571D01*
X129802380Y-89714285D02*
X129826190Y-89642857D01*
X129826190Y-89523809D01*
X129802380Y-89476190D01*
X129778571Y-89452380D01*
X129730952Y-89428571D01*
X129683333Y-89428571D01*
X129635714Y-89452380D01*
X129611904Y-89476190D01*
X129588095Y-89523809D01*
X129564285Y-89619047D01*
X129540476Y-89666666D01*
X129516666Y-89690476D01*
X129469047Y-89714285D01*
X129421428Y-89714285D01*
X129373809Y-89690476D01*
X129350000Y-89666666D01*
X129326190Y-89619047D01*
X129326190Y-89500000D01*
X129350000Y-89428571D01*
X129326190Y-89119047D02*
X129326190Y-89023809D01*
X129350000Y-88976190D01*
X129397619Y-88928571D01*
X129492857Y-88904761D01*
X129659523Y-88904761D01*
X129754761Y-88928571D01*
X129802380Y-88976190D01*
X129826190Y-89023809D01*
X129826190Y-89119047D01*
X129802380Y-89166666D01*
X129754761Y-89214285D01*
X129659523Y-89238095D01*
X129492857Y-89238095D01*
X129397619Y-89214285D01*
X129350000Y-89166666D01*
X129326190Y-89119047D01*
X129802380Y-87952380D02*
X129826190Y-87880952D01*
X129826190Y-87761904D01*
X129802380Y-87714285D01*
X129778571Y-87690476D01*
X129730952Y-87666666D01*
X129683333Y-87666666D01*
X129635714Y-87690476D01*
X129611904Y-87714285D01*
X129588095Y-87761904D01*
X129564285Y-87857142D01*
X129540476Y-87904761D01*
X129516666Y-87928571D01*
X129469047Y-87952380D01*
X129421428Y-87952380D01*
X129373809Y-87928571D01*
X129350000Y-87904761D01*
X129326190Y-87857142D01*
X129326190Y-87738095D01*
X129350000Y-87666666D01*
X129778571Y-87166666D02*
X129802380Y-87190476D01*
X129826190Y-87261904D01*
X129826190Y-87309523D01*
X129802380Y-87380952D01*
X129754761Y-87428571D01*
X129707142Y-87452380D01*
X129611904Y-87476190D01*
X129540476Y-87476190D01*
X129445238Y-87452380D01*
X129397619Y-87428571D01*
X129350000Y-87380952D01*
X129326190Y-87309523D01*
X129326190Y-87261904D01*
X129350000Y-87190476D01*
X129373809Y-87166666D01*
X129826190Y-86952380D02*
X129326190Y-86952380D01*
X129826190Y-86666666D02*
X129540476Y-86880952D01*
X129326190Y-86666666D02*
X129611904Y-86952380D01*
X129350000Y-85047619D02*
X129326190Y-85095238D01*
X129326190Y-85166666D01*
X129350000Y-85238095D01*
X129397619Y-85285714D01*
X129445238Y-85309523D01*
X129540476Y-85333333D01*
X129611904Y-85333333D01*
X129707142Y-85309523D01*
X129754761Y-85285714D01*
X129802380Y-85238095D01*
X129826190Y-85166666D01*
X129826190Y-85119047D01*
X129802380Y-85047619D01*
X129778571Y-85023809D01*
X129611904Y-85023809D01*
X129611904Y-85119047D01*
X129826190Y-84809523D02*
X129326190Y-84809523D01*
X129826190Y-84523809D01*
X129326190Y-84523809D01*
X129826190Y-84285714D02*
X129326190Y-84285714D01*
X129326190Y-84166666D01*
X129350000Y-84095238D01*
X129397619Y-84047619D01*
X129445238Y-84023809D01*
X129540476Y-84000000D01*
X129611904Y-84000000D01*
X129707142Y-84023809D01*
X129754761Y-84047619D01*
X129802380Y-84095238D01*
X129826190Y-84166666D01*
X129826190Y-84285714D01*
X114738095Y-70226190D02*
X114904761Y-70726190D01*
X115071428Y-70226190D01*
X115214285Y-70702380D02*
X115285714Y-70726190D01*
X115404761Y-70726190D01*
X115452380Y-70702380D01*
X115476190Y-70678571D01*
X115500000Y-70630952D01*
X115500000Y-70583333D01*
X115476190Y-70535714D01*
X115452380Y-70511904D01*
X115404761Y-70488095D01*
X115309523Y-70464285D01*
X115261904Y-70440476D01*
X115238095Y-70416666D01*
X115214285Y-70369047D01*
X115214285Y-70321428D01*
X115238095Y-70273809D01*
X115261904Y-70250000D01*
X115309523Y-70226190D01*
X115428571Y-70226190D01*
X115500000Y-70250000D01*
X115690476Y-70702380D02*
X115761904Y-70726190D01*
X115880952Y-70726190D01*
X115928571Y-70702380D01*
X115952380Y-70678571D01*
X115976190Y-70630952D01*
X115976190Y-70583333D01*
X115952380Y-70535714D01*
X115928571Y-70511904D01*
X115880952Y-70488095D01*
X115785714Y-70464285D01*
X115738095Y-70440476D01*
X115714285Y-70416666D01*
X115690476Y-70369047D01*
X115690476Y-70321428D01*
X115714285Y-70273809D01*
X115738095Y-70250000D01*
X115785714Y-70226190D01*
X115904761Y-70226190D01*
X115976190Y-70250000D01*
X117261904Y-70226190D02*
X117428571Y-70726190D01*
X117595238Y-70226190D01*
X117761904Y-70726190D02*
X117761904Y-70226190D01*
X117880952Y-70226190D01*
X117952380Y-70250000D01*
X118000000Y-70297619D01*
X118023809Y-70345238D01*
X118047619Y-70440476D01*
X118047619Y-70511904D01*
X118023809Y-70607142D01*
X118000000Y-70654761D01*
X117952380Y-70702380D01*
X117880952Y-70726190D01*
X117761904Y-70726190D01*
X118261904Y-70726190D02*
X118261904Y-70226190D01*
X118380952Y-70226190D01*
X118452380Y-70250000D01*
X118500000Y-70297619D01*
X118523809Y-70345238D01*
X118547619Y-70440476D01*
X118547619Y-70511904D01*
X118523809Y-70607142D01*
X118500000Y-70654761D01*
X118452380Y-70702380D01*
X118380952Y-70726190D01*
X118261904Y-70726190D01*
X120214285Y-70226190D02*
X120380952Y-70726190D01*
X120547619Y-70226190D01*
X120809523Y-70226190D02*
X120857142Y-70226190D01*
X120904761Y-70250000D01*
X120928571Y-70273809D01*
X120952380Y-70321428D01*
X120976190Y-70416666D01*
X120976190Y-70535714D01*
X120952380Y-70630952D01*
X120928571Y-70678571D01*
X120904761Y-70702380D01*
X120857142Y-70726190D01*
X120809523Y-70726190D01*
X120761904Y-70702380D01*
X120738095Y-70678571D01*
X120714285Y-70630952D01*
X120690476Y-70535714D01*
X120690476Y-70416666D01*
X120714285Y-70321428D01*
X120738095Y-70273809D01*
X120761904Y-70250000D01*
X120809523Y-70226190D01*
X123000000Y-70726190D02*
X122833333Y-70488095D01*
X122714285Y-70726190D02*
X122714285Y-70226190D01*
X122904761Y-70226190D01*
X122952380Y-70250000D01*
X122976190Y-70273809D01*
X123000000Y-70321428D01*
X123000000Y-70392857D01*
X122976190Y-70440476D01*
X122952380Y-70464285D01*
X122904761Y-70488095D01*
X122714285Y-70488095D01*
X123190476Y-70702380D02*
X123261904Y-70726190D01*
X123380952Y-70726190D01*
X123428571Y-70702380D01*
X123452380Y-70678571D01*
X123476190Y-70630952D01*
X123476190Y-70583333D01*
X123452380Y-70535714D01*
X123428571Y-70511904D01*
X123380952Y-70488095D01*
X123285714Y-70464285D01*
X123238095Y-70440476D01*
X123214285Y-70416666D01*
X123190476Y-70369047D01*
X123190476Y-70321428D01*
X123214285Y-70273809D01*
X123238095Y-70250000D01*
X123285714Y-70226190D01*
X123404761Y-70226190D01*
X123476190Y-70250000D01*
X125500000Y-70726190D02*
X125333333Y-70488095D01*
X125214285Y-70726190D02*
X125214285Y-70226190D01*
X125404761Y-70226190D01*
X125452380Y-70250000D01*
X125476190Y-70273809D01*
X125500000Y-70321428D01*
X125500000Y-70392857D01*
X125476190Y-70440476D01*
X125452380Y-70464285D01*
X125404761Y-70488095D01*
X125214285Y-70488095D01*
X126071428Y-70202380D02*
X125642857Y-70845238D01*
X126190476Y-70226190D02*
X126309523Y-70726190D01*
X126404761Y-70369047D01*
X126500000Y-70726190D01*
X126619047Y-70226190D01*
X127952380Y-70464285D02*
X128119047Y-70464285D01*
X128190476Y-70726190D02*
X127952380Y-70726190D01*
X127952380Y-70226190D01*
X128190476Y-70226190D01*
X140595238Y-70726190D02*
X140595238Y-70226190D01*
X140714285Y-70226190D01*
X140785714Y-70250000D01*
X140833333Y-70297619D01*
X140857142Y-70345238D01*
X140880952Y-70440476D01*
X140880952Y-70511904D01*
X140857142Y-70607142D01*
X140833333Y-70654761D01*
X140785714Y-70702380D01*
X140714285Y-70726190D01*
X140595238Y-70726190D01*
X141309523Y-70392857D02*
X141309523Y-70726190D01*
X141190476Y-70202380D02*
X141071428Y-70559523D01*
X141380952Y-70559523D01*
X143095238Y-70726190D02*
X143095238Y-70226190D01*
X143214285Y-70226190D01*
X143285714Y-70250000D01*
X143333333Y-70297619D01*
X143357142Y-70345238D01*
X143380952Y-70440476D01*
X143380952Y-70511904D01*
X143357142Y-70607142D01*
X143333333Y-70654761D01*
X143285714Y-70702380D01*
X143214285Y-70726190D01*
X143095238Y-70726190D01*
X143833333Y-70226190D02*
X143595238Y-70226190D01*
X143571428Y-70464285D01*
X143595238Y-70440476D01*
X143642857Y-70416666D01*
X143761904Y-70416666D01*
X143809523Y-70440476D01*
X143833333Y-70464285D01*
X143857142Y-70511904D01*
X143857142Y-70630952D01*
X143833333Y-70678571D01*
X143809523Y-70702380D01*
X143761904Y-70726190D01*
X143642857Y-70726190D01*
X143595238Y-70702380D01*
X143571428Y-70678571D01*
X145595238Y-70726190D02*
X145595238Y-70226190D01*
X145714285Y-70226190D01*
X145785714Y-70250000D01*
X145833333Y-70297619D01*
X145857142Y-70345238D01*
X145880952Y-70440476D01*
X145880952Y-70511904D01*
X145857142Y-70607142D01*
X145833333Y-70654761D01*
X145785714Y-70702380D01*
X145714285Y-70726190D01*
X145595238Y-70726190D01*
X146309523Y-70226190D02*
X146214285Y-70226190D01*
X146166666Y-70250000D01*
X146142857Y-70273809D01*
X146095238Y-70345238D01*
X146071428Y-70440476D01*
X146071428Y-70630952D01*
X146095238Y-70678571D01*
X146119047Y-70702380D01*
X146166666Y-70726190D01*
X146261904Y-70726190D01*
X146309523Y-70702380D01*
X146333333Y-70678571D01*
X146357142Y-70630952D01*
X146357142Y-70511904D01*
X146333333Y-70464285D01*
X146309523Y-70440476D01*
X146261904Y-70416666D01*
X146166666Y-70416666D01*
X146119047Y-70440476D01*
X146095238Y-70464285D01*
X146071428Y-70511904D01*
X148095238Y-70726190D02*
X148095238Y-70226190D01*
X148214285Y-70226190D01*
X148285714Y-70250000D01*
X148333333Y-70297619D01*
X148357142Y-70345238D01*
X148380952Y-70440476D01*
X148380952Y-70511904D01*
X148357142Y-70607142D01*
X148333333Y-70654761D01*
X148285714Y-70702380D01*
X148214285Y-70726190D01*
X148095238Y-70726190D01*
X148547619Y-70226190D02*
X148880952Y-70226190D01*
X148666666Y-70726190D01*
X150452380Y-70726190D02*
X150214285Y-70726190D01*
X150214285Y-70226190D01*
X150619047Y-70464285D02*
X150785714Y-70464285D01*
X150857142Y-70726190D02*
X150619047Y-70726190D01*
X150619047Y-70226190D01*
X150857142Y-70226190D01*
X151071428Y-70726190D02*
X151071428Y-70226190D01*
X151190476Y-70226190D01*
X151261904Y-70250000D01*
X151309523Y-70297619D01*
X151333333Y-70345238D01*
X151357142Y-70440476D01*
X151357142Y-70511904D01*
X151333333Y-70607142D01*
X151309523Y-70654761D01*
X151261904Y-70702380D01*
X151190476Y-70726190D01*
X151071428Y-70726190D01*
X151571428Y-70535714D02*
X151952380Y-70535714D01*
X151761904Y-70726190D02*
X151761904Y-70345238D01*
X153190476Y-70726190D02*
X152952380Y-70726190D01*
X152952380Y-70226190D01*
X153357142Y-70464285D02*
X153523809Y-70464285D01*
X153595238Y-70726190D02*
X153357142Y-70726190D01*
X153357142Y-70226190D01*
X153595238Y-70226190D01*
X153809523Y-70726190D02*
X153809523Y-70226190D01*
X153928571Y-70226190D01*
X154000000Y-70250000D01*
X154047619Y-70297619D01*
X154071428Y-70345238D01*
X154095238Y-70440476D01*
X154095238Y-70511904D01*
X154071428Y-70607142D01*
X154047619Y-70654761D01*
X154000000Y-70702380D01*
X153928571Y-70726190D01*
X153809523Y-70726190D01*
X154309523Y-70535714D02*
X154690476Y-70535714D01*
D12*
X199478571Y-75607142D02*
X200621428Y-75607142D01*
D11*
X203250000Y-75607142D02*
X203859523Y-75607142D01*
X203554761Y-75911904D02*
X203554761Y-75302380D01*
X204278571Y-75911904D02*
X204430952Y-75911904D01*
X204507142Y-75873809D01*
X204545238Y-75835714D01*
X204621428Y-75721428D01*
X204659523Y-75569047D01*
X204659523Y-75264285D01*
X204621428Y-75188095D01*
X204583333Y-75150000D01*
X204507142Y-75111904D01*
X204354761Y-75111904D01*
X204278571Y-75150000D01*
X204240476Y-75188095D01*
X204202380Y-75264285D01*
X204202380Y-75454761D01*
X204240476Y-75530952D01*
X204278571Y-75569047D01*
X204354761Y-75607142D01*
X204507142Y-75607142D01*
X204583333Y-75569047D01*
X204621428Y-75530952D01*
X204659523Y-75454761D01*
X205002380Y-75607142D02*
X205611904Y-75607142D01*
X206411904Y-75911904D02*
X205954761Y-75911904D01*
X206183333Y-75911904D02*
X206183333Y-75111904D01*
X206107142Y-75226190D01*
X206030952Y-75302380D01*
X205954761Y-75340476D01*
X206716666Y-75188095D02*
X206754761Y-75150000D01*
X206830952Y-75111904D01*
X207021428Y-75111904D01*
X207097619Y-75150000D01*
X207135714Y-75188095D01*
X207173809Y-75264285D01*
X207173809Y-75340476D01*
X207135714Y-75454761D01*
X206678571Y-75911904D01*
X207173809Y-75911904D01*
X207402380Y-75111904D02*
X207669047Y-75911904D01*
X207935714Y-75111904D01*
X208011904Y-75988095D02*
X208621428Y-75988095D01*
X208811904Y-75911904D02*
X208811904Y-75111904D01*
X209192857Y-75911904D02*
X209192857Y-75111904D01*
X209650000Y-75911904D01*
X209650000Y-75111904D01*
D12*
X205178571Y-69807142D02*
X206321428Y-69807142D01*
X205750000Y-70378571D02*
X205750000Y-69235714D01*
D13*
X189428571Y-75049071D02*
X189761904Y-75049071D01*
X189904761Y-75572880D02*
X189428571Y-75572880D01*
X189428571Y-74572880D01*
X189904761Y-74572880D01*
X190238095Y-74572880D02*
X190904761Y-75572880D01*
X190904761Y-74572880D02*
X190238095Y-75572880D01*
X191142857Y-74572880D02*
X191714285Y-74572880D01*
X191428571Y-75572880D02*
X191428571Y-74572880D01*
X189238095Y-71270880D02*
X189238095Y-72080404D01*
X189285714Y-72175642D01*
X189333333Y-72223261D01*
X189428571Y-72270880D01*
X189619047Y-72270880D01*
X189714285Y-72223261D01*
X189761904Y-72175642D01*
X189809523Y-72080404D01*
X189809523Y-71270880D01*
X190238095Y-72223261D02*
X190380952Y-72270880D01*
X190619047Y-72270880D01*
X190714285Y-72223261D01*
X190761904Y-72175642D01*
X190809523Y-72080404D01*
X190809523Y-71985166D01*
X190761904Y-71889928D01*
X190714285Y-71842309D01*
X190619047Y-71794690D01*
X190428571Y-71747071D01*
X190333333Y-71699452D01*
X190285714Y-71651833D01*
X190238095Y-71556595D01*
X190238095Y-71461357D01*
X190285714Y-71366119D01*
X190333333Y-71318500D01*
X190428571Y-71270880D01*
X190666666Y-71270880D01*
X190809523Y-71318500D01*
X191571428Y-71747071D02*
X191714285Y-71794690D01*
X191761904Y-71842309D01*
X191809523Y-71937547D01*
X191809523Y-72080404D01*
X191761904Y-72175642D01*
X191714285Y-72223261D01*
X191619047Y-72270880D01*
X191238095Y-72270880D01*
X191238095Y-71270880D01*
X191571428Y-71270880D01*
X191666666Y-71318500D01*
X191714285Y-71366119D01*
X191761904Y-71461357D01*
X191761904Y-71556595D01*
X191714285Y-71651833D01*
X191666666Y-71699452D01*
X191571428Y-71747071D01*
X191238095Y-71747071D01*
X192595452Y-76501428D02*
X192119261Y-76501428D01*
X192119261Y-73644285D01*
X192595452Y-73644285D01*
X192595452Y-73199428D02*
X192119261Y-73199428D01*
X192119261Y-70342285D01*
X192595452Y-70342285D01*
X197111880Y-76072619D02*
X196111880Y-76072619D01*
X196111880Y-75691666D01*
X196159500Y-75596428D01*
X196207119Y-75548809D01*
X196302357Y-75501190D01*
X196445214Y-75501190D01*
X196540452Y-75548809D01*
X196588071Y-75596428D01*
X196635690Y-75691666D01*
X196635690Y-76072619D01*
X196111880Y-75167857D02*
X197111880Y-74929761D01*
X196397595Y-74739285D01*
X197111880Y-74548809D01*
X196111880Y-74310714D01*
X197111880Y-73358333D02*
X196635690Y-73691666D01*
X197111880Y-73929761D02*
X196111880Y-73929761D01*
X196111880Y-73548809D01*
X196159500Y-73453571D01*
X196207119Y-73405952D01*
X196302357Y-73358333D01*
X196445214Y-73358333D01*
X196540452Y-73405952D01*
X196588071Y-73453571D01*
X196635690Y-73548809D01*
X196635690Y-73929761D01*
X197207119Y-73167857D02*
X197207119Y-72405952D01*
X197064261Y-72215476D02*
X197111880Y-72072619D01*
X197111880Y-71834523D01*
X197064261Y-71739285D01*
X197016642Y-71691666D01*
X196921404Y-71644047D01*
X196826166Y-71644047D01*
X196730928Y-71691666D01*
X196683309Y-71739285D01*
X196635690Y-71834523D01*
X196588071Y-72025000D01*
X196540452Y-72120238D01*
X196492833Y-72167857D01*
X196397595Y-72215476D01*
X196302357Y-72215476D01*
X196207119Y-72167857D01*
X196159500Y-72120238D01*
X196111880Y-72025000D01*
X196111880Y-71786904D01*
X196159500Y-71644047D01*
X196588071Y-71215476D02*
X196588071Y-70882142D01*
X197111880Y-70739285D02*
X197111880Y-71215476D01*
X196111880Y-71215476D01*
X196111880Y-70739285D01*
X197111880Y-69834523D02*
X197111880Y-70310714D01*
X196111880Y-70310714D01*
X108954761Y-118376190D02*
X108954761Y-118852380D01*
X108621428Y-117852380D02*
X108954761Y-118376190D01*
X109288095Y-117852380D01*
X109573809Y-118566666D02*
X110050000Y-118566666D01*
X109478571Y-118852380D02*
X109811904Y-117852380D01*
X110145238Y-118852380D01*
X110430952Y-118566666D02*
X110907142Y-118566666D01*
X110335714Y-118852380D02*
X110669047Y-117852380D01*
X111002380Y-118852380D01*
X111907142Y-118757142D02*
X111859523Y-118804761D01*
X111716666Y-118852380D01*
X111621428Y-118852380D01*
X111478571Y-118804761D01*
X111383333Y-118709523D01*
X111335714Y-118614285D01*
X111288095Y-118423809D01*
X111288095Y-118280952D01*
X111335714Y-118090476D01*
X111383333Y-117995238D01*
X111478571Y-117900000D01*
X111621428Y-117852380D01*
X111716666Y-117852380D01*
X111859523Y-117900000D01*
X111907142Y-117947619D01*
X112240476Y-117852380D02*
X112478571Y-118852380D01*
X112669047Y-118138095D01*
X112859523Y-118852380D01*
X113097619Y-117852380D01*
X113478571Y-118852380D02*
X113478571Y-117852380D01*
X114050000Y-118852380D02*
X113621428Y-118280952D01*
X114050000Y-117852380D02*
X113478571Y-118423809D01*
X115097619Y-117852380D02*
X115430952Y-118852380D01*
X115764285Y-117852380D01*
X116621428Y-118852380D02*
X116050000Y-118852380D01*
X116335714Y-118852380D02*
X116335714Y-117852380D01*
X116240476Y-117995238D01*
X116145238Y-118090476D01*
X116050000Y-118138095D01*
X117050000Y-118757142D02*
X117097619Y-118804761D01*
X117050000Y-118852380D01*
X117002380Y-118804761D01*
X117050000Y-118757142D01*
X117050000Y-118852380D01*
X117478571Y-117947619D02*
X117526190Y-117900000D01*
X117621428Y-117852380D01*
X117859523Y-117852380D01*
X117954761Y-117900000D01*
X118002380Y-117947619D01*
X118050000Y-118042857D01*
X118050000Y-118138095D01*
X118002380Y-118280952D01*
X117430952Y-118852380D01*
X118050000Y-118852380D01*
X119240476Y-118471428D02*
X120002380Y-118471428D01*
X121240476Y-118852380D02*
X121240476Y-117852380D01*
X121621428Y-117852380D02*
X122288095Y-117852380D01*
X121621428Y-118852380D01*
X122288095Y-118852380D01*
X123192857Y-118852380D02*
X122621428Y-118852380D01*
X122907142Y-118852380D02*
X122907142Y-117852380D01*
X122811904Y-117995238D01*
X122716666Y-118090476D01*
X122621428Y-118138095D01*
X124145238Y-117900000D02*
X124050000Y-117852380D01*
X123907142Y-117852380D01*
X123764285Y-117900000D01*
X123669047Y-117995238D01*
X123621428Y-118090476D01*
X123573809Y-118280952D01*
X123573809Y-118423809D01*
X123621428Y-118614285D01*
X123669047Y-118709523D01*
X123764285Y-118804761D01*
X123907142Y-118852380D01*
X124002380Y-118852380D01*
X124145238Y-118804761D01*
X124192857Y-118757142D01*
X124192857Y-118423809D01*
X124002380Y-118423809D01*
X125097619Y-118852380D02*
X124621428Y-118852380D01*
X124621428Y-117852380D01*
X125954761Y-117900000D02*
X125859523Y-117852380D01*
X125716666Y-117852380D01*
X125573809Y-117900000D01*
X125478571Y-117995238D01*
X125430952Y-118090476D01*
X125383333Y-118280952D01*
X125383333Y-118423809D01*
X125430952Y-118614285D01*
X125478571Y-118709523D01*
X125573809Y-118804761D01*
X125716666Y-118852380D01*
X125811904Y-118852380D01*
X125954761Y-118804761D01*
X126002380Y-118757142D01*
X126002380Y-118423809D01*
X125811904Y-118423809D01*
X127192857Y-118471428D02*
X127954761Y-118471428D01*
X129192857Y-118852380D02*
X129192857Y-117852380D01*
X130192857Y-118852380D02*
X129621428Y-118852380D01*
X129907142Y-118852380D02*
X129907142Y-117852380D01*
X129811904Y-117995238D01*
X129716666Y-118090476D01*
X129621428Y-118138095D01*
X131192857Y-118757142D02*
X131145238Y-118804761D01*
X131002380Y-118852380D01*
X130907142Y-118852380D01*
X130764285Y-118804761D01*
X130669047Y-118709523D01*
X130621428Y-118614285D01*
X130573809Y-118423809D01*
X130573809Y-118280952D01*
X130621428Y-118090476D01*
X130669047Y-117995238D01*
X130764285Y-117900000D01*
X130907142Y-117852380D01*
X131002380Y-117852380D01*
X131145238Y-117900000D01*
X131192857Y-117947619D01*
X132192857Y-118852380D02*
X131859523Y-118376190D01*
X131621428Y-118852380D02*
X131621428Y-117852380D01*
X132002380Y-117852380D01*
X132097619Y-117900000D01*
X132145238Y-117947619D01*
X132192857Y-118042857D01*
X132192857Y-118185714D01*
X132145238Y-118280952D01*
X132097619Y-118328571D01*
X132002380Y-118376190D01*
X131621428Y-118376190D01*
X132573809Y-118566666D02*
X133050000Y-118566666D01*
X132478571Y-118852380D02*
X132811904Y-117852380D01*
X133145238Y-118852380D01*
X169288095Y-118852380D02*
X169288095Y-117852380D01*
X169716666Y-118852380D02*
X169716666Y-118328571D01*
X169669047Y-118233333D01*
X169573809Y-118185714D01*
X169430952Y-118185714D01*
X169335714Y-118233333D01*
X169288095Y-118280952D01*
X170050000Y-118185714D02*
X170430952Y-118185714D01*
X170192857Y-117852380D02*
X170192857Y-118709523D01*
X170240476Y-118804761D01*
X170335714Y-118852380D01*
X170430952Y-118852380D01*
X170621428Y-118185714D02*
X171002380Y-118185714D01*
X170764285Y-117852380D02*
X170764285Y-118709523D01*
X170811904Y-118804761D01*
X170907142Y-118852380D01*
X171002380Y-118852380D01*
X171335714Y-118185714D02*
X171335714Y-119185714D01*
X171335714Y-118233333D02*
X171430952Y-118185714D01*
X171621428Y-118185714D01*
X171716666Y-118233333D01*
X171764285Y-118280952D01*
X171811904Y-118376190D01*
X171811904Y-118661904D01*
X171764285Y-118757142D01*
X171716666Y-118804761D01*
X171621428Y-118852380D01*
X171430952Y-118852380D01*
X171335714Y-118804761D01*
X172240476Y-118757142D02*
X172288095Y-118804761D01*
X172240476Y-118852380D01*
X172192857Y-118804761D01*
X172240476Y-118757142D01*
X172240476Y-118852380D01*
X172240476Y-118233333D02*
X172288095Y-118280952D01*
X172240476Y-118328571D01*
X172192857Y-118280952D01*
X172240476Y-118233333D01*
X172240476Y-118328571D01*
X173430952Y-117804761D02*
X172573809Y-119090476D01*
X174478571Y-117804761D02*
X173621428Y-119090476D01*
X174811904Y-118852380D02*
X174811904Y-118185714D01*
X174811904Y-117852380D02*
X174764285Y-117900000D01*
X174811904Y-117947619D01*
X174859523Y-117900000D01*
X174811904Y-117852380D01*
X174811904Y-117947619D01*
X175811904Y-118852380D02*
X175240476Y-118852380D01*
X175526190Y-118852380D02*
X175526190Y-117852380D01*
X175430952Y-117995238D01*
X175335714Y-118090476D01*
X175240476Y-118138095D01*
X176669047Y-118804761D02*
X176573809Y-118852380D01*
X176383333Y-118852380D01*
X176288095Y-118804761D01*
X176240476Y-118757142D01*
X176192857Y-118661904D01*
X176192857Y-118376190D01*
X176240476Y-118280952D01*
X176288095Y-118233333D01*
X176383333Y-118185714D01*
X176573809Y-118185714D01*
X176669047Y-118233333D01*
X177097619Y-118852380D02*
X177097619Y-118185714D01*
X177097619Y-118376190D02*
X177145238Y-118280952D01*
X177192857Y-118233333D01*
X177288095Y-118185714D01*
X177383333Y-118185714D01*
X178145238Y-118852380D02*
X178145238Y-118328571D01*
X178097619Y-118233333D01*
X178002380Y-118185714D01*
X177811904Y-118185714D01*
X177716666Y-118233333D01*
X178145238Y-118804761D02*
X178050000Y-118852380D01*
X177811904Y-118852380D01*
X177716666Y-118804761D01*
X177669047Y-118709523D01*
X177669047Y-118614285D01*
X177716666Y-118519047D01*
X177811904Y-118471428D01*
X178050000Y-118471428D01*
X178145238Y-118423809D01*
X178621428Y-118757142D02*
X178669047Y-118804761D01*
X178621428Y-118852380D01*
X178573809Y-118804761D01*
X178621428Y-118757142D01*
X178621428Y-118852380D01*
X179097619Y-118852380D02*
X179097619Y-117852380D01*
X179097619Y-118233333D02*
X179192857Y-118185714D01*
X179383333Y-118185714D01*
X179478571Y-118233333D01*
X179526190Y-118280952D01*
X179573809Y-118376190D01*
X179573809Y-118661904D01*
X179526190Y-118757142D01*
X179478571Y-118804761D01*
X179383333Y-118852380D01*
X179192857Y-118852380D01*
X179097619Y-118804761D01*
X180002380Y-118852380D02*
X180002380Y-118185714D01*
X180002380Y-118376190D02*
X180050000Y-118280952D01*
X180097619Y-118233333D01*
X180192857Y-118185714D01*
X180288095Y-118185714D01*
X180621428Y-118852380D02*
X180621428Y-118185714D01*
X180621428Y-117852380D02*
X180573809Y-117900000D01*
X180621428Y-117947619D01*
X180669047Y-117900000D01*
X180621428Y-117852380D01*
X180621428Y-117947619D01*
X181526190Y-118852380D02*
X181526190Y-118328571D01*
X181478571Y-118233333D01*
X181383333Y-118185714D01*
X181192857Y-118185714D01*
X181097619Y-118233333D01*
X181526190Y-118804761D02*
X181430952Y-118852380D01*
X181192857Y-118852380D01*
X181097619Y-118804761D01*
X181050000Y-118709523D01*
X181050000Y-118614285D01*
X181097619Y-118519047D01*
X181192857Y-118471428D01*
X181430952Y-118471428D01*
X181526190Y-118423809D01*
X181859523Y-118185714D02*
X182240476Y-118185714D01*
X182002380Y-117852380D02*
X182002380Y-118709523D01*
X182050000Y-118804761D01*
X182145238Y-118852380D01*
X182240476Y-118852380D01*
X183002380Y-118852380D02*
X183002380Y-118328571D01*
X182954761Y-118233333D01*
X182859523Y-118185714D01*
X182669047Y-118185714D01*
X182573809Y-118233333D01*
X183002380Y-118804761D02*
X182907142Y-118852380D01*
X182669047Y-118852380D01*
X182573809Y-118804761D01*
X182526190Y-118709523D01*
X182526190Y-118614285D01*
X182573809Y-118519047D01*
X182669047Y-118471428D01*
X182907142Y-118471428D01*
X183002380Y-118423809D01*
X183478571Y-118757142D02*
X183526190Y-118804761D01*
X183478571Y-118852380D01*
X183430952Y-118804761D01*
X183478571Y-118757142D01*
X183478571Y-118852380D01*
X184097619Y-118852380D02*
X184002380Y-118804761D01*
X183954761Y-118757142D01*
X183907142Y-118661904D01*
X183907142Y-118376190D01*
X183954761Y-118280952D01*
X184002380Y-118233333D01*
X184097619Y-118185714D01*
X184240476Y-118185714D01*
X184335714Y-118233333D01*
X184383333Y-118280952D01*
X184430952Y-118376190D01*
X184430952Y-118661904D01*
X184383333Y-118757142D01*
X184335714Y-118804761D01*
X184240476Y-118852380D01*
X184097619Y-118852380D01*
X184859523Y-118852380D02*
X184859523Y-118185714D01*
X184859523Y-118376190D02*
X184907142Y-118280952D01*
X184954761Y-118233333D01*
X185050000Y-118185714D01*
X185145238Y-118185714D01*
X185907142Y-118185714D02*
X185907142Y-118995238D01*
X185859523Y-119090476D01*
X185811904Y-119138095D01*
X185716666Y-119185714D01*
X185573809Y-119185714D01*
X185478571Y-119138095D01*
X185907142Y-118804761D02*
X185811904Y-118852380D01*
X185621428Y-118852380D01*
X185526190Y-118804761D01*
X185478571Y-118757142D01*
X185430952Y-118661904D01*
X185430952Y-118376190D01*
X185478571Y-118280952D01*
X185526190Y-118233333D01*
X185621428Y-118185714D01*
X185811904Y-118185714D01*
X185907142Y-118233333D01*
X187097619Y-117804761D02*
X186240476Y-119090476D01*
X187335714Y-118185714D02*
X187573809Y-118852380D01*
X187811904Y-118185714D02*
X187573809Y-118852380D01*
X187478571Y-119090476D01*
X187430952Y-119138095D01*
X187335714Y-119185714D01*
X188621428Y-118852380D02*
X188621428Y-118328571D01*
X188573809Y-118233333D01*
X188478571Y-118185714D01*
X188288095Y-118185714D01*
X188192857Y-118233333D01*
X188621428Y-118804761D02*
X188526190Y-118852380D01*
X188288095Y-118852380D01*
X188192857Y-118804761D01*
X188145238Y-118709523D01*
X188145238Y-118614285D01*
X188192857Y-118519047D01*
X188288095Y-118471428D01*
X188526190Y-118471428D01*
X188621428Y-118423809D01*
X189526190Y-118852380D02*
X189526190Y-118328571D01*
X189478571Y-118233333D01*
X189383333Y-118185714D01*
X189192857Y-118185714D01*
X189097619Y-118233333D01*
X189526190Y-118804761D02*
X189430952Y-118852380D01*
X189192857Y-118852380D01*
X189097619Y-118804761D01*
X189050000Y-118709523D01*
X189050000Y-118614285D01*
X189097619Y-118519047D01*
X189192857Y-118471428D01*
X189430952Y-118471428D01*
X189526190Y-118423809D01*
X190430952Y-118804761D02*
X190335714Y-118852380D01*
X190145238Y-118852380D01*
X190050000Y-118804761D01*
X190002380Y-118757142D01*
X189954761Y-118661904D01*
X189954761Y-118376190D01*
X190002380Y-118280952D01*
X190050000Y-118233333D01*
X190145238Y-118185714D01*
X190335714Y-118185714D01*
X190430952Y-118233333D01*
X190764285Y-118185714D02*
X190954761Y-118852380D01*
X191145238Y-118376190D01*
X191335714Y-118852380D01*
X191526190Y-118185714D01*
X191907142Y-118852380D02*
X191907142Y-117852380D01*
X192002380Y-118471428D02*
X192288095Y-118852380D01*
X192288095Y-118185714D02*
X191907142Y-118566666D01*
X198621428Y-118757142D02*
X198573809Y-118804761D01*
X198430952Y-118852380D01*
X198335714Y-118852380D01*
X198192857Y-118804761D01*
X198097619Y-118709523D01*
X198050000Y-118614285D01*
X198002380Y-118423809D01*
X198002380Y-118280952D01*
X198050000Y-118090476D01*
X198097619Y-117995238D01*
X198192857Y-117900000D01*
X198335714Y-117852380D01*
X198430952Y-117852380D01*
X198573809Y-117900000D01*
X198621428Y-117947619D01*
X199621428Y-118757142D02*
X199573809Y-118804761D01*
X199430952Y-118852380D01*
X199335714Y-118852380D01*
X199192857Y-118804761D01*
X199097619Y-118709523D01*
X199050000Y-118614285D01*
X199002380Y-118423809D01*
X199002380Y-118280952D01*
X199050000Y-118090476D01*
X199097619Y-117995238D01*
X199192857Y-117900000D01*
X199335714Y-117852380D01*
X199430952Y-117852380D01*
X199573809Y-117900000D01*
X199621428Y-117947619D01*
X200050000Y-118471428D02*
X200811904Y-118471428D01*
X201621428Y-118328571D02*
X201764285Y-118376190D01*
X201811904Y-118423809D01*
X201859523Y-118519047D01*
X201859523Y-118661904D01*
X201811904Y-118757142D01*
X201764285Y-118804761D01*
X201669047Y-118852380D01*
X201288095Y-118852380D01*
X201288095Y-117852380D01*
X201621428Y-117852380D01*
X201716666Y-117900000D01*
X201764285Y-117947619D01*
X201811904Y-118042857D01*
X201811904Y-118138095D01*
X201764285Y-118233333D01*
X201716666Y-118280952D01*
X201621428Y-118328571D01*
X201288095Y-118328571D01*
X202478571Y-118376190D02*
X202478571Y-118852380D01*
X202145238Y-117852380D02*
X202478571Y-118376190D01*
X202811904Y-117852380D01*
X203145238Y-118471428D02*
X203907142Y-118471428D01*
X204335714Y-118804761D02*
X204478571Y-118852380D01*
X204716666Y-118852380D01*
X204811904Y-118804761D01*
X204859523Y-118757142D01*
X204907142Y-118661904D01*
X204907142Y-118566666D01*
X204859523Y-118471428D01*
X204811904Y-118423809D01*
X204716666Y-118376190D01*
X204526190Y-118328571D01*
X204430952Y-118280952D01*
X204383333Y-118233333D01*
X204335714Y-118138095D01*
X204335714Y-118042857D01*
X204383333Y-117947619D01*
X204430952Y-117900000D01*
X204526190Y-117852380D01*
X204764285Y-117852380D01*
X204907142Y-117900000D01*
X205288095Y-118566666D02*
X205764285Y-118566666D01*
X205192857Y-118852380D02*
X205526190Y-117852380D01*
X205859523Y-118852380D01*
X206192857Y-118471428D02*
X206954761Y-118471428D01*
X207859523Y-118185714D02*
X207859523Y-118852380D01*
X207621428Y-117804761D02*
X207383333Y-118519047D01*
X208002380Y-118519047D01*
X208383333Y-118757142D02*
X208430952Y-118804761D01*
X208383333Y-118852380D01*
X208335714Y-118804761D01*
X208383333Y-118757142D01*
X208383333Y-118852380D01*
X209050000Y-117852380D02*
X209145238Y-117852380D01*
X209240476Y-117900000D01*
X209288095Y-117947619D01*
X209335714Y-118042857D01*
X209383333Y-118233333D01*
X209383333Y-118471428D01*
X209335714Y-118661904D01*
X209288095Y-118757142D01*
X209240476Y-118804761D01*
X209145238Y-118852380D01*
X209050000Y-118852380D01*
X208954761Y-118804761D01*
X208907142Y-118757142D01*
X208859523Y-118661904D01*
X208811904Y-118471428D01*
X208811904Y-118233333D01*
X208859523Y-118042857D01*
X208907142Y-117947619D01*
X208954761Y-117900000D01*
X209050000Y-117852380D01*
D14*
G04 #@! TO.C,J12*
X142710000Y-124390000D02*
X142710000Y-123000000D01*
X144100000Y-124390000D02*
X142710000Y-124390000D01*
X145370000Y-121610000D02*
X145370000Y-124390000D01*
X165810000Y-121610000D02*
X145370000Y-121610000D01*
X165810000Y-124390000D02*
X165810000Y-121610000D01*
X145370000Y-124390000D02*
X165810000Y-124390000D01*
G04 #@! TO.C,PS2CONN1*
X155700000Y-68900000D02*
X155700000Y-55900000D01*
X171900000Y-68900000D02*
X171900000Y-55900000D01*
X171900000Y-68900000D02*
X155700000Y-68900000D01*
X171900000Y-55900000D02*
X155700000Y-55900000D01*
D15*
G04 #@! TO.C,HOLE1*
X197358000Y-62992000D02*
G75*
G03X197358000Y-62992000I-2286000J0D01*
G01*
G04 #@! TO.C,BZ1*
X149000760Y-63000000D02*
G75*
G03X149000760Y-63000000I-1000760J0D01*
G01*
X154200140Y-63000000D02*
G75*
G03X154200140Y-63000000I-6200140J0D01*
G01*
D14*
G04 #@! TO.C,D1*
X203557665Y-82828608D02*
G75*
G03X206790000Y-82985516I1672335J1078608D01*
G01*
X203557665Y-80671392D02*
G75*
G02X206790000Y-80514484I1672335J-1078608D01*
G01*
X204188870Y-82829837D02*
G75*
G03X206270961Y-82830000I1041130J1079837D01*
G01*
X204188870Y-80670163D02*
G75*
G02X206270961Y-80670000I1041130J-1079837D01*
G01*
X206790000Y-82986000D02*
X206790000Y-82830000D01*
X206790000Y-80670000D02*
X206790000Y-80514000D01*
G04 #@! TO.C,D2*
X203557665Y-103078608D02*
G75*
G03X206790000Y-103235516I1672335J1078608D01*
G01*
X203557665Y-100921392D02*
G75*
G02X206790000Y-100764484I1672335J-1078608D01*
G01*
X204188870Y-103079837D02*
G75*
G03X206270961Y-103080000I1041130J1079837D01*
G01*
X204188870Y-100920163D02*
G75*
G02X206270961Y-100920000I1041130J-1079837D01*
G01*
X206790000Y-103236000D02*
X206790000Y-103080000D01*
X206790000Y-100920000D02*
X206790000Y-100764000D01*
G04 #@! TO.C,D3*
X203557665Y-92828608D02*
G75*
G03X206790000Y-92985516I1672335J1078608D01*
G01*
X203557665Y-90671392D02*
G75*
G02X206790000Y-90514484I1672335J-1078608D01*
G01*
X204188870Y-92829837D02*
G75*
G03X206270961Y-92830000I1041130J1079837D01*
G01*
X204188870Y-90670163D02*
G75*
G02X206270961Y-90670000I1041130J-1079837D01*
G01*
X206790000Y-92986000D02*
X206790000Y-92830000D01*
X206790000Y-90670000D02*
X206790000Y-90514000D01*
G04 #@! TO.C,IC1*
X133260000Y-92380000D02*
G75*
G02X133260000Y-94380000I0J-1000000D01*
G01*
X133260000Y-94380000D02*
X133260000Y-99960000D01*
X133260000Y-99960000D02*
X184300000Y-99960000D01*
X184300000Y-99960000D02*
X184300000Y-86800000D01*
X184300000Y-86800000D02*
X133260000Y-86800000D01*
X133260000Y-86800000D02*
X133260000Y-92380000D01*
G04 #@! TO.C,IC2*
X198890000Y-100060000D02*
G75*
G02X198890000Y-98060000I0J1000000D01*
G01*
X198890000Y-98060000D02*
X198890000Y-96290000D01*
X198890000Y-96290000D02*
X188490000Y-96290000D01*
X188490000Y-96290000D02*
X188490000Y-101830000D01*
X188490000Y-101830000D02*
X198890000Y-101830000D01*
X198890000Y-101830000D02*
X198890000Y-100060000D01*
G04 #@! TO.C,L1*
X167230000Y-77210000D02*
X167230000Y-73790000D01*
X167230000Y-73790000D02*
X160110000Y-73790000D01*
X160110000Y-73790000D02*
X160110000Y-77210000D01*
X160110000Y-77210000D02*
X167230000Y-77210000D01*
X167770000Y-75500000D02*
X167230000Y-75500000D01*
X159570000Y-75500000D02*
X160110000Y-75500000D01*
G04 #@! TO.C,L2*
X155020000Y-79040000D02*
X155020000Y-82460000D01*
X155020000Y-82460000D02*
X162140000Y-82460000D01*
X162140000Y-82460000D02*
X162140000Y-79040000D01*
X162140000Y-79040000D02*
X155020000Y-79040000D01*
X154480000Y-80750000D02*
X155020000Y-80750000D01*
X162680000Y-80750000D02*
X162140000Y-80750000D01*
G04 #@! TO.C,R1*
X114200000Y-111620000D02*
X114200000Y-111290000D01*
X114200000Y-111290000D02*
X120620000Y-111290000D01*
X120620000Y-111290000D02*
X120620000Y-111620000D01*
X114200000Y-113580000D02*
X114200000Y-113910000D01*
X114200000Y-113910000D02*
X120620000Y-113910000D01*
X120620000Y-113910000D02*
X120620000Y-113580000D01*
G04 #@! TO.C,R2*
X114200000Y-106420000D02*
X114200000Y-106090000D01*
X114200000Y-106090000D02*
X120620000Y-106090000D01*
X120620000Y-106090000D02*
X120620000Y-106420000D01*
X114200000Y-108380000D02*
X114200000Y-108710000D01*
X114200000Y-108710000D02*
X120620000Y-108710000D01*
X120620000Y-108710000D02*
X120620000Y-108380000D01*
G04 #@! TO.C,R3*
X126200000Y-111620000D02*
X126200000Y-111290000D01*
X126200000Y-111290000D02*
X132620000Y-111290000D01*
X132620000Y-111290000D02*
X132620000Y-111620000D01*
X126200000Y-113580000D02*
X126200000Y-113910000D01*
X126200000Y-113910000D02*
X132620000Y-113910000D01*
X132620000Y-113910000D02*
X132620000Y-113580000D01*
G04 #@! TO.C,R4*
X126200000Y-106420000D02*
X126200000Y-106090000D01*
X126200000Y-106090000D02*
X132620000Y-106090000D01*
X132620000Y-106090000D02*
X132620000Y-106420000D01*
X126200000Y-108380000D02*
X126200000Y-108710000D01*
X126200000Y-108710000D02*
X132620000Y-108710000D01*
X132620000Y-108710000D02*
X132620000Y-108380000D01*
G04 #@! TO.C,R5*
X138800000Y-111620000D02*
X138800000Y-111290000D01*
X138800000Y-111290000D02*
X145220000Y-111290000D01*
X145220000Y-111290000D02*
X145220000Y-111620000D01*
X138800000Y-113580000D02*
X138800000Y-113910000D01*
X138800000Y-113910000D02*
X145220000Y-113910000D01*
X145220000Y-113910000D02*
X145220000Y-113580000D01*
G04 #@! TO.C,R6*
X196400000Y-81980000D02*
X196400000Y-82310000D01*
X196400000Y-82310000D02*
X189980000Y-82310000D01*
X189980000Y-82310000D02*
X189980000Y-81980000D01*
X196400000Y-80020000D02*
X196400000Y-79690000D01*
X196400000Y-79690000D02*
X189980000Y-79690000D01*
X189980000Y-79690000D02*
X189980000Y-80020000D01*
G04 #@! TO.C,R7*
X193800000Y-113580000D02*
X193800000Y-113910000D01*
X193800000Y-113910000D02*
X187380000Y-113910000D01*
X187380000Y-113910000D02*
X187380000Y-113580000D01*
X193800000Y-111620000D02*
X193800000Y-111290000D01*
X193800000Y-111290000D02*
X187380000Y-111290000D01*
X187380000Y-111290000D02*
X187380000Y-111620000D01*
G04 #@! TO.C,R8*
X196400000Y-86730000D02*
X196400000Y-87060000D01*
X196400000Y-87060000D02*
X189980000Y-87060000D01*
X189980000Y-87060000D02*
X189980000Y-86730000D01*
X196400000Y-84770000D02*
X196400000Y-84440000D01*
X196400000Y-84440000D02*
X189980000Y-84440000D01*
X189980000Y-84440000D02*
X189980000Y-84770000D01*
G04 #@! TO.C,R9*
X193600000Y-108580000D02*
X193600000Y-108910000D01*
X193600000Y-108910000D02*
X187180000Y-108910000D01*
X187180000Y-108910000D02*
X187180000Y-108580000D01*
X193600000Y-106620000D02*
X193600000Y-106290000D01*
X193600000Y-106290000D02*
X187180000Y-106290000D01*
X187180000Y-106290000D02*
X187180000Y-106620000D01*
G04 #@! TO.C,R10*
X190100000Y-90020000D02*
X190100000Y-89690000D01*
X190100000Y-89690000D02*
X196520000Y-89690000D01*
X196520000Y-89690000D02*
X196520000Y-90020000D01*
X190100000Y-91980000D02*
X190100000Y-92310000D01*
X190100000Y-92310000D02*
X196520000Y-92310000D01*
X196520000Y-92310000D02*
X196520000Y-91980000D01*
G04 #@! TO.C,R11*
X175000000Y-106620000D02*
X175000000Y-106290000D01*
X175000000Y-106290000D02*
X181420000Y-106290000D01*
X181420000Y-106290000D02*
X181420000Y-106620000D01*
X175000000Y-108580000D02*
X175000000Y-108910000D01*
X175000000Y-108910000D02*
X181420000Y-108910000D01*
X181420000Y-108910000D02*
X181420000Y-108580000D01*
G04 #@! TO.C,R12*
X129100000Y-79270000D02*
X129100000Y-78940000D01*
X129100000Y-78940000D02*
X135520000Y-78940000D01*
X135520000Y-78940000D02*
X135520000Y-79270000D01*
X129100000Y-81230000D02*
X129100000Y-81560000D01*
X129100000Y-81560000D02*
X135520000Y-81560000D01*
X135520000Y-81560000D02*
X135520000Y-81230000D01*
G04 #@! TO.C,R13*
X141600000Y-79270000D02*
X141600000Y-78940000D01*
X141600000Y-78940000D02*
X148020000Y-78940000D01*
X148020000Y-78940000D02*
X148020000Y-79270000D01*
X141600000Y-81230000D02*
X141600000Y-81560000D01*
X141600000Y-81560000D02*
X148020000Y-81560000D01*
X148020000Y-81560000D02*
X148020000Y-81230000D01*
G04 #@! TO.C,Y1*
X163885000Y-103875000D02*
G75*
G02X163885000Y-108925000I0J-2525000D01*
G01*
X157635000Y-103875000D02*
G75*
G03X157635000Y-108925000I0J-2525000D01*
G01*
X163885000Y-108925000D02*
X157635000Y-108925000D01*
X163885000Y-103875000D02*
X157635000Y-103875000D01*
G04 #@! TO.C,J3*
X205270000Y-98390000D02*
X207930000Y-98390000D01*
X207930000Y-98390000D02*
X207930000Y-95610000D01*
X207930000Y-95610000D02*
X205270000Y-95610000D01*
X205270000Y-95610000D02*
X205270000Y-98390000D01*
X204000000Y-98390000D02*
X202610000Y-98390000D01*
X202610000Y-98390000D02*
X202610000Y-97000000D01*
G04 #@! TO.C,J4*
X205270000Y-108390000D02*
X207930000Y-108390000D01*
X207930000Y-108390000D02*
X207930000Y-105610000D01*
X207930000Y-105610000D02*
X205270000Y-105610000D01*
X205270000Y-105610000D02*
X205270000Y-108390000D01*
X204000000Y-108390000D02*
X202610000Y-108390000D01*
X202610000Y-108390000D02*
X202610000Y-107000000D01*
G04 #@! TO.C,J5*
X202770000Y-87890000D02*
X207970000Y-87890000D01*
X207970000Y-87890000D02*
X207970000Y-85110000D01*
X207970000Y-85110000D02*
X202770000Y-85110000D01*
X202770000Y-85110000D02*
X202770000Y-87890000D01*
X201500000Y-87890000D02*
X200110000Y-87890000D01*
X200110000Y-87890000D02*
X200110000Y-86500000D01*
G04 #@! TO.C,D5*
X182850000Y-71160000D02*
X182850000Y-68340000D01*
X182850000Y-68340000D02*
X177530000Y-68340000D01*
X177530000Y-68340000D02*
X177530000Y-71160000D01*
X177530000Y-71160000D02*
X182850000Y-71160000D01*
X182920000Y-69750000D02*
X182850000Y-69750000D01*
X177460000Y-69750000D02*
X177530000Y-69750000D01*
X182010000Y-71160000D02*
X182010000Y-68340000D01*
G04 #@! TO.C,D6*
X180150000Y-63090000D02*
X180150000Y-65910000D01*
X180150000Y-65910000D02*
X185470000Y-65910000D01*
X185470000Y-65910000D02*
X185470000Y-63090000D01*
X185470000Y-63090000D02*
X180150000Y-63090000D01*
X180080000Y-64500000D02*
X180150000Y-64500000D01*
X185540000Y-64500000D02*
X185470000Y-64500000D01*
X180990000Y-63090000D02*
X180990000Y-65910000D01*
G04 #@! TO.C,J6*
X176270000Y-77390000D02*
X189090000Y-77390000D01*
X189090000Y-77390000D02*
X189090000Y-74610000D01*
X189090000Y-74610000D02*
X176270000Y-74610000D01*
X176270000Y-74610000D02*
X176270000Y-77390000D01*
X175000000Y-77390000D02*
X173610000Y-77390000D01*
X173610000Y-77390000D02*
X173610000Y-76000000D01*
G04 #@! TO.C,SW6*
X167730000Y-111210000D02*
X165070000Y-111210000D01*
X165070000Y-111210000D02*
X165070000Y-113990000D01*
X165070000Y-113990000D02*
X167730000Y-113990000D01*
X167730000Y-113990000D02*
X167730000Y-111210000D01*
X169000000Y-111210000D02*
X170390000Y-111210000D01*
X170390000Y-111210000D02*
X170390000Y-112600000D01*
D16*
G04 #@! TO.C,U1*
X102349000Y-71924000D02*
X105778000Y-71924000D01*
X102349000Y-81576000D02*
X105778000Y-81576000D01*
X101206000Y-71416000D02*
X101206000Y-82084000D01*
X102222000Y-74972000D02*
X100952000Y-74972000D01*
X102222000Y-78528000D02*
X100952000Y-78528000D01*
X102349000Y-82084000D02*
X102349000Y-71416000D01*
X105778000Y-71416000D02*
X105778000Y-82084000D01*
X100952000Y-82084000D02*
X105778000Y-82084000D01*
X100952000Y-71416000D02*
X105778000Y-71416000D01*
X100952000Y-71416000D02*
X100952000Y-82084000D01*
D14*
G04 #@! TO.C,J2*
X105104000Y-66530000D02*
X105104000Y-55930000D01*
X105104000Y-67930000D02*
X105104000Y-68030000D01*
X111304000Y-66830000D02*
X111304000Y-68030000D01*
X111304000Y-62830000D02*
X111304000Y-65430000D01*
X111304000Y-59830000D02*
X111304000Y-61430000D01*
X111304000Y-55930000D02*
X111304000Y-58430000D01*
X105104000Y-68030000D02*
X111304000Y-68030000D01*
X111304000Y-55930000D02*
X110704000Y-55930000D01*
X105704000Y-55930000D02*
X105104000Y-55930000D01*
X110704000Y-53930000D02*
X105704000Y-53930000D01*
X110704000Y-55930000D02*
X110704000Y-53930000D01*
X105704000Y-55930000D02*
X105704000Y-53930000D01*
G04 #@! TO.C,LCDPot2*
X113539000Y-93939000D02*
X118460000Y-93939000D01*
X113539000Y-103860000D02*
X118460000Y-103860000D01*
X118460000Y-93939000D02*
X118460000Y-97535000D01*
X118460000Y-100265000D02*
X118460000Y-103860000D01*
X113539000Y-102765000D02*
X113539000Y-103860000D01*
X113539000Y-93939000D02*
X113539000Y-95035000D01*
X113539000Y-97765000D02*
X113539000Y-100035000D01*
X114785000Y-97340000D02*
X118460000Y-97340000D01*
X114785000Y-100461000D02*
X118460000Y-100461000D01*
X113539000Y-97765000D02*
X113539000Y-100035000D01*
X118460000Y-97340000D02*
X118460000Y-97535000D01*
X118460000Y-100265000D02*
X118460000Y-100461000D01*
G04 #@! TO.C,DS1*
X116770000Y-74390000D02*
X154990000Y-74390000D01*
X154990000Y-74390000D02*
X154990000Y-71610000D01*
X154990000Y-71610000D02*
X116770000Y-71610000D01*
X116770000Y-71610000D02*
X116770000Y-74390000D01*
X115500000Y-74390000D02*
X114110000Y-74390000D01*
X114110000Y-74390000D02*
X114110000Y-73000000D01*
G04 #@! TO.C,J7*
X179180000Y-79510000D02*
X166360000Y-79510000D01*
X166360000Y-79510000D02*
X166360000Y-82290000D01*
X166360000Y-82290000D02*
X179180000Y-82290000D01*
X179180000Y-82290000D02*
X179180000Y-79510000D01*
X180450000Y-79510000D02*
X181840000Y-79510000D01*
X181840000Y-79510000D02*
X181840000Y-80900000D01*
G04 #@! TO.C,J9*
X195700000Y-74549000D02*
X195700000Y-69349000D01*
X195700000Y-69349000D02*
X192920000Y-69349000D01*
X192920000Y-69349000D02*
X192920000Y-74549000D01*
X192920000Y-74549000D02*
X195700000Y-74549000D01*
X195700000Y-75819000D02*
X195700000Y-77209000D01*
X195700000Y-77209000D02*
X194310000Y-77209000D01*
D16*
G04 #@! TO.C,U2*
X102349000Y-84674000D02*
X105778000Y-84674000D01*
X102349000Y-94326000D02*
X105778000Y-94326000D01*
X101206000Y-84166000D02*
X101206000Y-94834000D01*
X102222000Y-87722000D02*
X100952000Y-87722000D01*
X102222000Y-91278000D02*
X100952000Y-91278000D01*
X102349000Y-94834000D02*
X102349000Y-84166000D01*
X105778000Y-84166000D02*
X105778000Y-94834000D01*
X100952000Y-94834000D02*
X105778000Y-94834000D01*
X100952000Y-84166000D02*
X105778000Y-84166000D01*
X100952000Y-84166000D02*
X100952000Y-94834000D01*
D14*
G04 #@! TO.C,J1*
X204771000Y-68044000D02*
X213571000Y-68044000D01*
X213571000Y-68044000D02*
X213571000Y-77244000D01*
X198871000Y-70744000D02*
X198871000Y-68044000D01*
X198871000Y-68044000D02*
X200771000Y-68044000D01*
X213571000Y-77244000D02*
X198871000Y-77244000D01*
X198871000Y-77244000D02*
X198871000Y-74644000D01*
G04 #@! TO.C,C14*
X130590000Y-62600000D02*
G75*
G03X130590000Y-62600000I-4090000J0D01*
G01*
X122450000Y-62600000D02*
X130550000Y-62600000D01*
X122450000Y-62560000D02*
X130550000Y-62560000D01*
X122450000Y-62520000D02*
X130550000Y-62520000D01*
X122451000Y-62480000D02*
X130549000Y-62480000D01*
X122453000Y-62440000D02*
X130547000Y-62440000D01*
X122454000Y-62400000D02*
X130546000Y-62400000D01*
X122457000Y-62360000D02*
X130543000Y-62360000D01*
X122459000Y-62320000D02*
X130541000Y-62320000D01*
X122462000Y-62280000D02*
X130538000Y-62280000D01*
X122465000Y-62240000D02*
X130535000Y-62240000D01*
X122469000Y-62200000D02*
X130531000Y-62200000D01*
X122473000Y-62160000D02*
X130527000Y-62160000D01*
X122478000Y-62120000D02*
X130522000Y-62120000D01*
X122483000Y-62080000D02*
X130517000Y-62080000D01*
X122488000Y-62040000D02*
X130512000Y-62040000D01*
X122494000Y-62000000D02*
X130506000Y-62000000D01*
X122500000Y-61960000D02*
X130500000Y-61960000D01*
X122506000Y-61920000D02*
X130494000Y-61920000D01*
X122513000Y-61879000D02*
X130487000Y-61879000D01*
X122521000Y-61839000D02*
X130479000Y-61839000D01*
X122529000Y-61799000D02*
X130471000Y-61799000D01*
X122537000Y-61759000D02*
X130463000Y-61759000D01*
X122545000Y-61719000D02*
X130455000Y-61719000D01*
X122554000Y-61679000D02*
X125520000Y-61679000D01*
X127480000Y-61679000D02*
X130446000Y-61679000D01*
X122564000Y-61639000D02*
X125520000Y-61639000D01*
X127480000Y-61639000D02*
X130436000Y-61639000D01*
X122574000Y-61599000D02*
X125520000Y-61599000D01*
X127480000Y-61599000D02*
X130426000Y-61599000D01*
X122584000Y-61559000D02*
X125520000Y-61559000D01*
X127480000Y-61559000D02*
X130416000Y-61559000D01*
X122595000Y-61519000D02*
X125520000Y-61519000D01*
X127480000Y-61519000D02*
X130405000Y-61519000D01*
X122606000Y-61479000D02*
X125520000Y-61479000D01*
X127480000Y-61479000D02*
X130394000Y-61479000D01*
X122617000Y-61439000D02*
X125520000Y-61439000D01*
X127480000Y-61439000D02*
X130383000Y-61439000D01*
X122630000Y-61399000D02*
X125520000Y-61399000D01*
X127480000Y-61399000D02*
X130370000Y-61399000D01*
X122642000Y-61359000D02*
X125520000Y-61359000D01*
X127480000Y-61359000D02*
X130358000Y-61359000D01*
X122655000Y-61319000D02*
X125520000Y-61319000D01*
X127480000Y-61319000D02*
X130345000Y-61319000D01*
X122668000Y-61279000D02*
X125520000Y-61279000D01*
X127480000Y-61279000D02*
X130332000Y-61279000D01*
X122682000Y-61239000D02*
X125520000Y-61239000D01*
X127480000Y-61239000D02*
X130318000Y-61239000D01*
X122697000Y-61199000D02*
X125520000Y-61199000D01*
X127480000Y-61199000D02*
X130303000Y-61199000D01*
X122711000Y-61159000D02*
X125520000Y-61159000D01*
X127480000Y-61159000D02*
X130289000Y-61159000D01*
X122727000Y-61119000D02*
X125520000Y-61119000D01*
X127480000Y-61119000D02*
X130273000Y-61119000D01*
X122742000Y-61079000D02*
X125520000Y-61079000D01*
X127480000Y-61079000D02*
X130258000Y-61079000D01*
X122759000Y-61039000D02*
X125520000Y-61039000D01*
X127480000Y-61039000D02*
X130241000Y-61039000D01*
X122775000Y-60999000D02*
X125520000Y-60999000D01*
X127480000Y-60999000D02*
X130225000Y-60999000D01*
X122793000Y-60959000D02*
X125520000Y-60959000D01*
X127480000Y-60959000D02*
X130207000Y-60959000D01*
X122810000Y-60919000D02*
X125520000Y-60919000D01*
X127480000Y-60919000D02*
X130190000Y-60919000D01*
X122829000Y-60879000D02*
X125520000Y-60879000D01*
X127480000Y-60879000D02*
X130171000Y-60879000D01*
X122848000Y-60839000D02*
X125520000Y-60839000D01*
X127480000Y-60839000D02*
X130152000Y-60839000D01*
X122867000Y-60799000D02*
X125520000Y-60799000D01*
X127480000Y-60799000D02*
X130133000Y-60799000D01*
X122887000Y-60759000D02*
X125520000Y-60759000D01*
X127480000Y-60759000D02*
X130113000Y-60759000D01*
X122907000Y-60719000D02*
X125520000Y-60719000D01*
X127480000Y-60719000D02*
X130093000Y-60719000D01*
X122928000Y-60679000D02*
X125520000Y-60679000D01*
X127480000Y-60679000D02*
X130072000Y-60679000D01*
X122950000Y-60639000D02*
X125520000Y-60639000D01*
X127480000Y-60639000D02*
X130050000Y-60639000D01*
X122972000Y-60599000D02*
X125520000Y-60599000D01*
X127480000Y-60599000D02*
X130028000Y-60599000D01*
X122995000Y-60559000D02*
X125520000Y-60559000D01*
X127480000Y-60559000D02*
X130005000Y-60559000D01*
X123018000Y-60519000D02*
X125520000Y-60519000D01*
X127480000Y-60519000D02*
X129982000Y-60519000D01*
X123042000Y-60479000D02*
X125520000Y-60479000D01*
X127480000Y-60479000D02*
X129958000Y-60479000D01*
X123066000Y-60439000D02*
X125520000Y-60439000D01*
X127480000Y-60439000D02*
X129934000Y-60439000D01*
X123092000Y-60399000D02*
X125520000Y-60399000D01*
X127480000Y-60399000D02*
X129908000Y-60399000D01*
X123117000Y-60359000D02*
X125520000Y-60359000D01*
X127480000Y-60359000D02*
X129883000Y-60359000D01*
X123144000Y-60319000D02*
X125520000Y-60319000D01*
X127480000Y-60319000D02*
X129856000Y-60319000D01*
X123171000Y-60279000D02*
X125520000Y-60279000D01*
X127480000Y-60279000D02*
X129829000Y-60279000D01*
X123199000Y-60239000D02*
X125520000Y-60239000D01*
X127480000Y-60239000D02*
X129801000Y-60239000D01*
X123228000Y-60199000D02*
X125520000Y-60199000D01*
X127480000Y-60199000D02*
X129772000Y-60199000D01*
X123257000Y-60159000D02*
X125520000Y-60159000D01*
X127480000Y-60159000D02*
X129743000Y-60159000D01*
X123287000Y-60119000D02*
X125520000Y-60119000D01*
X127480000Y-60119000D02*
X129713000Y-60119000D01*
X123318000Y-60079000D02*
X125520000Y-60079000D01*
X127480000Y-60079000D02*
X129682000Y-60079000D01*
X123350000Y-60039000D02*
X125520000Y-60039000D01*
X127480000Y-60039000D02*
X129650000Y-60039000D01*
X123382000Y-59999000D02*
X125520000Y-59999000D01*
X127480000Y-59999000D02*
X129618000Y-59999000D01*
X123416000Y-59959000D02*
X125520000Y-59959000D01*
X127480000Y-59959000D02*
X129584000Y-59959000D01*
X123450000Y-59919000D02*
X125520000Y-59919000D01*
X127480000Y-59919000D02*
X129550000Y-59919000D01*
X123485000Y-59879000D02*
X125520000Y-59879000D01*
X127480000Y-59879000D02*
X129515000Y-59879000D01*
X123521000Y-59839000D02*
X125520000Y-59839000D01*
X127480000Y-59839000D02*
X129479000Y-59839000D01*
X123558000Y-59799000D02*
X125520000Y-59799000D01*
X127480000Y-59799000D02*
X129442000Y-59799000D01*
X123596000Y-59759000D02*
X125520000Y-59759000D01*
X127480000Y-59759000D02*
X129404000Y-59759000D01*
X123635000Y-59719000D02*
X129365000Y-59719000D01*
X123676000Y-59679000D02*
X129324000Y-59679000D01*
X123717000Y-59639000D02*
X129283000Y-59639000D01*
X123760000Y-59599000D02*
X129240000Y-59599000D01*
X123803000Y-59559000D02*
X129197000Y-59559000D01*
X123848000Y-59519000D02*
X129152000Y-59519000D01*
X123895000Y-59479000D02*
X129105000Y-59479000D01*
X123943000Y-59439000D02*
X129057000Y-59439000D01*
X123992000Y-59399000D02*
X129008000Y-59399000D01*
X124043000Y-59359000D02*
X128957000Y-59359000D01*
X124096000Y-59319000D02*
X128904000Y-59319000D01*
X124151000Y-59279000D02*
X128849000Y-59279000D01*
X124207000Y-59239000D02*
X128793000Y-59239000D01*
X124266000Y-59199000D02*
X128734000Y-59199000D01*
X124327000Y-59159000D02*
X128673000Y-59159000D01*
X124391000Y-59119000D02*
X128609000Y-59119000D01*
X124457000Y-59079000D02*
X128543000Y-59079000D01*
X124526000Y-59039000D02*
X128474000Y-59039000D01*
X124598000Y-58999000D02*
X128402000Y-58999000D01*
X124674000Y-58959000D02*
X128326000Y-58959000D01*
X124755000Y-58919000D02*
X128245000Y-58919000D01*
X124840000Y-58879000D02*
X128160000Y-58879000D01*
X124930000Y-58839000D02*
X128070000Y-58839000D01*
X125027000Y-58799000D02*
X127973000Y-58799000D01*
X125131000Y-58759000D02*
X127869000Y-58759000D01*
X125246000Y-58719000D02*
X127754000Y-58719000D01*
X125373000Y-58679000D02*
X127627000Y-58679000D01*
X125517000Y-58639000D02*
X127483000Y-58639000D01*
X125686000Y-58599000D02*
X127314000Y-58599000D01*
X125902000Y-58559000D02*
X127098000Y-58559000D01*
X126254000Y-58519000D02*
X126746000Y-58519000D01*
X126500000Y-66700000D02*
X126500000Y-65500000D01*
X125850000Y-66100000D02*
X127150000Y-66100000D01*
G04 #@! TO.C,C16*
X140590000Y-62600000D02*
G75*
G03X140590000Y-62600000I-4090000J0D01*
G01*
X132450000Y-62600000D02*
X140550000Y-62600000D01*
X132450000Y-62560000D02*
X140550000Y-62560000D01*
X132450000Y-62520000D02*
X140550000Y-62520000D01*
X132451000Y-62480000D02*
X140549000Y-62480000D01*
X132453000Y-62440000D02*
X140547000Y-62440000D01*
X132454000Y-62400000D02*
X140546000Y-62400000D01*
X132457000Y-62360000D02*
X140543000Y-62360000D01*
X132459000Y-62320000D02*
X140541000Y-62320000D01*
X132462000Y-62280000D02*
X140538000Y-62280000D01*
X132465000Y-62240000D02*
X140535000Y-62240000D01*
X132469000Y-62200000D02*
X140531000Y-62200000D01*
X132473000Y-62160000D02*
X140527000Y-62160000D01*
X132478000Y-62120000D02*
X140522000Y-62120000D01*
X132483000Y-62080000D02*
X140517000Y-62080000D01*
X132488000Y-62040000D02*
X140512000Y-62040000D01*
X132494000Y-62000000D02*
X140506000Y-62000000D01*
X132500000Y-61960000D02*
X140500000Y-61960000D01*
X132506000Y-61920000D02*
X140494000Y-61920000D01*
X132513000Y-61879000D02*
X140487000Y-61879000D01*
X132521000Y-61839000D02*
X140479000Y-61839000D01*
X132529000Y-61799000D02*
X140471000Y-61799000D01*
X132537000Y-61759000D02*
X140463000Y-61759000D01*
X132545000Y-61719000D02*
X140455000Y-61719000D01*
X132554000Y-61679000D02*
X135520000Y-61679000D01*
X137480000Y-61679000D02*
X140446000Y-61679000D01*
X132564000Y-61639000D02*
X135520000Y-61639000D01*
X137480000Y-61639000D02*
X140436000Y-61639000D01*
X132574000Y-61599000D02*
X135520000Y-61599000D01*
X137480000Y-61599000D02*
X140426000Y-61599000D01*
X132584000Y-61559000D02*
X135520000Y-61559000D01*
X137480000Y-61559000D02*
X140416000Y-61559000D01*
X132595000Y-61519000D02*
X135520000Y-61519000D01*
X137480000Y-61519000D02*
X140405000Y-61519000D01*
X132606000Y-61479000D02*
X135520000Y-61479000D01*
X137480000Y-61479000D02*
X140394000Y-61479000D01*
X132617000Y-61439000D02*
X135520000Y-61439000D01*
X137480000Y-61439000D02*
X140383000Y-61439000D01*
X132630000Y-61399000D02*
X135520000Y-61399000D01*
X137480000Y-61399000D02*
X140370000Y-61399000D01*
X132642000Y-61359000D02*
X135520000Y-61359000D01*
X137480000Y-61359000D02*
X140358000Y-61359000D01*
X132655000Y-61319000D02*
X135520000Y-61319000D01*
X137480000Y-61319000D02*
X140345000Y-61319000D01*
X132668000Y-61279000D02*
X135520000Y-61279000D01*
X137480000Y-61279000D02*
X140332000Y-61279000D01*
X132682000Y-61239000D02*
X135520000Y-61239000D01*
X137480000Y-61239000D02*
X140318000Y-61239000D01*
X132697000Y-61199000D02*
X135520000Y-61199000D01*
X137480000Y-61199000D02*
X140303000Y-61199000D01*
X132711000Y-61159000D02*
X135520000Y-61159000D01*
X137480000Y-61159000D02*
X140289000Y-61159000D01*
X132727000Y-61119000D02*
X135520000Y-61119000D01*
X137480000Y-61119000D02*
X140273000Y-61119000D01*
X132742000Y-61079000D02*
X135520000Y-61079000D01*
X137480000Y-61079000D02*
X140258000Y-61079000D01*
X132759000Y-61039000D02*
X135520000Y-61039000D01*
X137480000Y-61039000D02*
X140241000Y-61039000D01*
X132775000Y-60999000D02*
X135520000Y-60999000D01*
X137480000Y-60999000D02*
X140225000Y-60999000D01*
X132793000Y-60959000D02*
X135520000Y-60959000D01*
X137480000Y-60959000D02*
X140207000Y-60959000D01*
X132810000Y-60919000D02*
X135520000Y-60919000D01*
X137480000Y-60919000D02*
X140190000Y-60919000D01*
X132829000Y-60879000D02*
X135520000Y-60879000D01*
X137480000Y-60879000D02*
X140171000Y-60879000D01*
X132848000Y-60839000D02*
X135520000Y-60839000D01*
X137480000Y-60839000D02*
X140152000Y-60839000D01*
X132867000Y-60799000D02*
X135520000Y-60799000D01*
X137480000Y-60799000D02*
X140133000Y-60799000D01*
X132887000Y-60759000D02*
X135520000Y-60759000D01*
X137480000Y-60759000D02*
X140113000Y-60759000D01*
X132907000Y-60719000D02*
X135520000Y-60719000D01*
X137480000Y-60719000D02*
X140093000Y-60719000D01*
X132928000Y-60679000D02*
X135520000Y-60679000D01*
X137480000Y-60679000D02*
X140072000Y-60679000D01*
X132950000Y-60639000D02*
X135520000Y-60639000D01*
X137480000Y-60639000D02*
X140050000Y-60639000D01*
X132972000Y-60599000D02*
X135520000Y-60599000D01*
X137480000Y-60599000D02*
X140028000Y-60599000D01*
X132995000Y-60559000D02*
X135520000Y-60559000D01*
X137480000Y-60559000D02*
X140005000Y-60559000D01*
X133018000Y-60519000D02*
X135520000Y-60519000D01*
X137480000Y-60519000D02*
X139982000Y-60519000D01*
X133042000Y-60479000D02*
X135520000Y-60479000D01*
X137480000Y-60479000D02*
X139958000Y-60479000D01*
X133066000Y-60439000D02*
X135520000Y-60439000D01*
X137480000Y-60439000D02*
X139934000Y-60439000D01*
X133092000Y-60399000D02*
X135520000Y-60399000D01*
X137480000Y-60399000D02*
X139908000Y-60399000D01*
X133117000Y-60359000D02*
X135520000Y-60359000D01*
X137480000Y-60359000D02*
X139883000Y-60359000D01*
X133144000Y-60319000D02*
X135520000Y-60319000D01*
X137480000Y-60319000D02*
X139856000Y-60319000D01*
X133171000Y-60279000D02*
X135520000Y-60279000D01*
X137480000Y-60279000D02*
X139829000Y-60279000D01*
X133199000Y-60239000D02*
X135520000Y-60239000D01*
X137480000Y-60239000D02*
X139801000Y-60239000D01*
X133228000Y-60199000D02*
X135520000Y-60199000D01*
X137480000Y-60199000D02*
X139772000Y-60199000D01*
X133257000Y-60159000D02*
X135520000Y-60159000D01*
X137480000Y-60159000D02*
X139743000Y-60159000D01*
X133287000Y-60119000D02*
X135520000Y-60119000D01*
X137480000Y-60119000D02*
X139713000Y-60119000D01*
X133318000Y-60079000D02*
X135520000Y-60079000D01*
X137480000Y-60079000D02*
X139682000Y-60079000D01*
X133350000Y-60039000D02*
X135520000Y-60039000D01*
X137480000Y-60039000D02*
X139650000Y-60039000D01*
X133382000Y-59999000D02*
X135520000Y-59999000D01*
X137480000Y-59999000D02*
X139618000Y-59999000D01*
X133416000Y-59959000D02*
X135520000Y-59959000D01*
X137480000Y-59959000D02*
X139584000Y-59959000D01*
X133450000Y-59919000D02*
X135520000Y-59919000D01*
X137480000Y-59919000D02*
X139550000Y-59919000D01*
X133485000Y-59879000D02*
X135520000Y-59879000D01*
X137480000Y-59879000D02*
X139515000Y-59879000D01*
X133521000Y-59839000D02*
X135520000Y-59839000D01*
X137480000Y-59839000D02*
X139479000Y-59839000D01*
X133558000Y-59799000D02*
X135520000Y-59799000D01*
X137480000Y-59799000D02*
X139442000Y-59799000D01*
X133596000Y-59759000D02*
X135520000Y-59759000D01*
X137480000Y-59759000D02*
X139404000Y-59759000D01*
X133635000Y-59719000D02*
X139365000Y-59719000D01*
X133676000Y-59679000D02*
X139324000Y-59679000D01*
X133717000Y-59639000D02*
X139283000Y-59639000D01*
X133760000Y-59599000D02*
X139240000Y-59599000D01*
X133803000Y-59559000D02*
X139197000Y-59559000D01*
X133848000Y-59519000D02*
X139152000Y-59519000D01*
X133895000Y-59479000D02*
X139105000Y-59479000D01*
X133943000Y-59439000D02*
X139057000Y-59439000D01*
X133992000Y-59399000D02*
X139008000Y-59399000D01*
X134043000Y-59359000D02*
X138957000Y-59359000D01*
X134096000Y-59319000D02*
X138904000Y-59319000D01*
X134151000Y-59279000D02*
X138849000Y-59279000D01*
X134207000Y-59239000D02*
X138793000Y-59239000D01*
X134266000Y-59199000D02*
X138734000Y-59199000D01*
X134327000Y-59159000D02*
X138673000Y-59159000D01*
X134391000Y-59119000D02*
X138609000Y-59119000D01*
X134457000Y-59079000D02*
X138543000Y-59079000D01*
X134526000Y-59039000D02*
X138474000Y-59039000D01*
X134598000Y-58999000D02*
X138402000Y-58999000D01*
X134674000Y-58959000D02*
X138326000Y-58959000D01*
X134755000Y-58919000D02*
X138245000Y-58919000D01*
X134840000Y-58879000D02*
X138160000Y-58879000D01*
X134930000Y-58839000D02*
X138070000Y-58839000D01*
X135027000Y-58799000D02*
X137973000Y-58799000D01*
X135131000Y-58759000D02*
X137869000Y-58759000D01*
X135246000Y-58719000D02*
X137754000Y-58719000D01*
X135373000Y-58679000D02*
X137627000Y-58679000D01*
X135517000Y-58639000D02*
X137483000Y-58639000D01*
X135686000Y-58599000D02*
X137314000Y-58599000D01*
X135902000Y-58559000D02*
X137098000Y-58559000D01*
X136254000Y-58519000D02*
X136746000Y-58519000D01*
X136500000Y-66700000D02*
X136500000Y-65500000D01*
X135850000Y-66100000D02*
X137150000Y-66100000D01*
G04 #@! TO.C,R14*
X138800000Y-106420000D02*
X138800000Y-106090000D01*
X138800000Y-106090000D02*
X145220000Y-106090000D01*
X145220000Y-106090000D02*
X145220000Y-106420000D01*
X138800000Y-108380000D02*
X138800000Y-108710000D01*
X138800000Y-108710000D02*
X145220000Y-108710000D01*
X145220000Y-108710000D02*
X145220000Y-108380000D01*
G04 #@! TO.C,R15*
X152800000Y-111620000D02*
X152800000Y-111290000D01*
X152800000Y-111290000D02*
X159220000Y-111290000D01*
X159220000Y-111290000D02*
X159220000Y-111620000D01*
X152800000Y-113580000D02*
X152800000Y-113910000D01*
X152800000Y-113910000D02*
X159220000Y-113910000D01*
X159220000Y-113910000D02*
X159220000Y-113580000D01*
G04 #@! TO.C,R16*
X175000000Y-111620000D02*
X175000000Y-111290000D01*
X175000000Y-111290000D02*
X181420000Y-111290000D01*
X181420000Y-111290000D02*
X181420000Y-111620000D01*
X175000000Y-113580000D02*
X175000000Y-113910000D01*
X175000000Y-113910000D02*
X181420000Y-113910000D01*
X181420000Y-113910000D02*
X181420000Y-113580000D01*
D17*
G04 #@! TO.C,REF\002A\002A\002A*
G36*
X205155814Y-57468931D02*
X205239635Y-57913555D01*
X205548920Y-58041053D01*
X205858206Y-58168551D01*
X206229246Y-57916246D01*
X206333157Y-57845996D01*
X206427087Y-57783272D01*
X206506652Y-57730938D01*
X206567470Y-57691857D01*
X206605157Y-57668893D01*
X206615421Y-57663942D01*
X206633910Y-57676676D01*
X206673420Y-57711882D01*
X206729522Y-57765062D01*
X206797787Y-57831718D01*
X206873786Y-57907354D01*
X206953092Y-57987472D01*
X207031275Y-58067574D01*
X207103907Y-58143164D01*
X207166559Y-58209745D01*
X207214803Y-58262818D01*
X207244210Y-58297887D01*
X207251241Y-58309623D01*
X207241123Y-58331260D01*
X207212759Y-58378662D01*
X207169129Y-58447193D01*
X207113218Y-58532215D01*
X207048006Y-58629093D01*
X207010219Y-58684350D01*
X206941343Y-58785248D01*
X206880140Y-58876299D01*
X206829578Y-58952970D01*
X206792628Y-59010728D01*
X206772258Y-59045043D01*
X206769197Y-59052254D01*
X206776136Y-59072748D01*
X206795051Y-59120513D01*
X206823087Y-59188832D01*
X206857391Y-59270989D01*
X206895109Y-59360270D01*
X206933387Y-59449958D01*
X206969370Y-59533338D01*
X207000206Y-59603694D01*
X207023039Y-59654310D01*
X207035017Y-59678471D01*
X207035724Y-59679422D01*
X207054531Y-59684036D01*
X207104618Y-59694328D01*
X207180793Y-59709287D01*
X207277865Y-59727901D01*
X207390643Y-59749159D01*
X207456442Y-59761418D01*
X207576950Y-59784362D01*
X207685797Y-59806195D01*
X207777476Y-59825722D01*
X207846481Y-59841748D01*
X207887304Y-59853079D01*
X207895511Y-59856674D01*
X207903548Y-59881006D01*
X207910033Y-59935959D01*
X207914970Y-60015108D01*
X207918364Y-60112026D01*
X207920218Y-60220287D01*
X207920538Y-60333465D01*
X207919327Y-60445135D01*
X207916590Y-60548868D01*
X207912331Y-60638241D01*
X207906555Y-60706826D01*
X207899267Y-60748197D01*
X207894895Y-60756810D01*
X207868764Y-60767133D01*
X207813393Y-60781892D01*
X207736107Y-60799352D01*
X207644230Y-60817780D01*
X207612158Y-60823741D01*
X207457524Y-60852066D01*
X207335375Y-60874876D01*
X207241673Y-60893080D01*
X207172384Y-60907583D01*
X207123471Y-60919292D01*
X207090897Y-60929115D01*
X207070628Y-60937956D01*
X207058626Y-60946724D01*
X207056947Y-60948457D01*
X207040184Y-60976371D01*
X207014614Y-61030695D01*
X206982788Y-61104777D01*
X206947260Y-61191965D01*
X206910583Y-61285608D01*
X206875311Y-61379052D01*
X206843996Y-61465647D01*
X206819193Y-61538740D01*
X206803454Y-61591678D01*
X206799332Y-61617811D01*
X206799676Y-61618726D01*
X206813641Y-61640086D01*
X206845322Y-61687084D01*
X206891391Y-61754827D01*
X206948518Y-61838423D01*
X207013373Y-61932982D01*
X207031843Y-61959854D01*
X207097699Y-62057275D01*
X207155650Y-62146163D01*
X207202538Y-62221412D01*
X207235207Y-62277920D01*
X207250500Y-62310581D01*
X207251241Y-62314593D01*
X207238392Y-62335684D01*
X207202888Y-62377464D01*
X207149293Y-62435445D01*
X207082171Y-62505135D01*
X207006087Y-62582045D01*
X206925604Y-62661683D01*
X206845287Y-62739561D01*
X206769699Y-62811186D01*
X206703405Y-62872070D01*
X206650969Y-62917721D01*
X206616955Y-62943650D01*
X206607545Y-62947883D01*
X206585643Y-62937912D01*
X206540800Y-62911020D01*
X206480321Y-62871736D01*
X206433789Y-62840117D01*
X206349475Y-62782098D01*
X206249626Y-62713784D01*
X206149473Y-62645579D01*
X206095627Y-62609075D01*
X205913371Y-62485800D01*
X205760381Y-62568520D01*
X205690682Y-62604759D01*
X205631414Y-62632926D01*
X205591311Y-62648991D01*
X205581103Y-62651226D01*
X205568829Y-62634722D01*
X205544613Y-62588082D01*
X205510263Y-62515609D01*
X205467588Y-62421606D01*
X205418394Y-62310374D01*
X205364490Y-62186215D01*
X205307684Y-62053432D01*
X205249782Y-61916327D01*
X205192593Y-61779202D01*
X205137924Y-61646358D01*
X205087584Y-61522098D01*
X205043380Y-61410725D01*
X205007119Y-61316539D01*
X204980609Y-61243844D01*
X204965658Y-61196941D01*
X204963254Y-61180833D01*
X204982311Y-61160286D01*
X205024036Y-61126933D01*
X205079706Y-61087702D01*
X205084378Y-61084599D01*
X205228264Y-60969423D01*
X205344283Y-60835053D01*
X205431430Y-60685784D01*
X205488699Y-60525913D01*
X205515086Y-60359737D01*
X205509585Y-60191552D01*
X205471190Y-60025655D01*
X205398895Y-59866342D01*
X205377626Y-59831487D01*
X205266996Y-59690737D01*
X205136302Y-59577714D01*
X204990064Y-59493003D01*
X204832808Y-59437194D01*
X204669057Y-59410874D01*
X204503333Y-59414630D01*
X204340162Y-59449050D01*
X204184065Y-59514723D01*
X204039567Y-59612235D01*
X203994869Y-59651813D01*
X203881112Y-59775703D01*
X203798218Y-59906124D01*
X203741356Y-60052315D01*
X203709687Y-60197088D01*
X203701869Y-60359860D01*
X203727938Y-60523440D01*
X203785245Y-60682298D01*
X203871144Y-60830906D01*
X203982986Y-60963735D01*
X204118123Y-61075256D01*
X204135883Y-61087011D01*
X204192150Y-61125508D01*
X204234923Y-61158863D01*
X204255372Y-61180160D01*
X204255669Y-61180833D01*
X204251279Y-61203871D01*
X204233876Y-61256157D01*
X204205268Y-61333390D01*
X204167265Y-61431268D01*
X204121674Y-61545491D01*
X204070303Y-61671758D01*
X204014962Y-61805767D01*
X203957458Y-61943218D01*
X203899601Y-62079808D01*
X203843198Y-62211237D01*
X203790058Y-62333205D01*
X203741990Y-62441409D01*
X203700801Y-62531549D01*
X203668301Y-62599323D01*
X203646297Y-62640430D01*
X203637436Y-62651226D01*
X203610360Y-62642819D01*
X203559697Y-62620272D01*
X203494183Y-62587613D01*
X203458159Y-62568520D01*
X203305168Y-62485800D01*
X203122912Y-62609075D01*
X203029875Y-62672228D01*
X202928015Y-62741727D01*
X202832562Y-62807165D01*
X202784750Y-62840117D01*
X202717505Y-62885273D01*
X202660564Y-62921057D01*
X202621354Y-62942938D01*
X202608619Y-62947563D01*
X202590083Y-62935085D01*
X202549059Y-62900252D01*
X202489525Y-62846678D01*
X202415458Y-62777983D01*
X202330835Y-62697781D01*
X202277315Y-62646286D01*
X202183681Y-62554286D01*
X202102759Y-62471999D01*
X202037823Y-62402945D01*
X201992142Y-62350644D01*
X201968989Y-62318616D01*
X201966768Y-62312116D01*
X201977076Y-62287394D01*
X202005561Y-62237405D01*
X202049063Y-62167212D01*
X202104423Y-62081875D01*
X202168480Y-61986456D01*
X202186697Y-61959854D01*
X202253073Y-61863167D01*
X202312622Y-61776117D01*
X202362016Y-61703595D01*
X202397925Y-61650493D01*
X202417019Y-61621703D01*
X202418864Y-61618726D01*
X202416105Y-61595782D01*
X202401462Y-61545336D01*
X202377487Y-61474041D01*
X202346734Y-61388547D01*
X202311756Y-61295507D01*
X202275107Y-61201574D01*
X202239339Y-61113399D01*
X202207006Y-61037634D01*
X202180662Y-60980931D01*
X202162858Y-60949943D01*
X202161593Y-60948457D01*
X202150706Y-60939601D01*
X202132318Y-60930843D01*
X202102394Y-60921277D01*
X202056897Y-60909996D01*
X201991791Y-60896093D01*
X201903039Y-60878663D01*
X201786607Y-60856798D01*
X201638458Y-60829591D01*
X201606382Y-60823741D01*
X201511314Y-60805374D01*
X201428435Y-60787405D01*
X201365070Y-60771569D01*
X201328542Y-60759600D01*
X201323644Y-60756810D01*
X201315573Y-60732072D01*
X201309013Y-60676790D01*
X201303967Y-60597389D01*
X201300441Y-60500296D01*
X201298439Y-60391938D01*
X201297964Y-60278740D01*
X201299023Y-60167128D01*
X201301618Y-60063529D01*
X201305754Y-59974368D01*
X201311437Y-59906072D01*
X201318669Y-59865066D01*
X201323029Y-59856674D01*
X201347302Y-59848208D01*
X201402574Y-59834435D01*
X201483338Y-59816550D01*
X201584088Y-59795748D01*
X201699317Y-59773223D01*
X201762098Y-59761418D01*
X201881213Y-59739151D01*
X201987435Y-59718979D01*
X202075573Y-59701915D01*
X202140434Y-59688969D01*
X202176826Y-59681155D01*
X202182816Y-59679422D01*
X202192939Y-59659890D01*
X202214338Y-59612843D01*
X202244161Y-59545003D01*
X202279555Y-59463091D01*
X202317668Y-59373828D01*
X202355647Y-59283935D01*
X202390640Y-59200135D01*
X202419794Y-59129147D01*
X202440257Y-59077694D01*
X202449177Y-59052497D01*
X202449343Y-59051396D01*
X202439231Y-59031519D01*
X202410883Y-58985777D01*
X202367277Y-58918717D01*
X202311394Y-58834884D01*
X202246213Y-58738826D01*
X202208321Y-58683650D01*
X202139275Y-58582481D01*
X202077950Y-58490630D01*
X202027337Y-58412744D01*
X201990429Y-58353469D01*
X201970218Y-58317451D01*
X201967299Y-58309377D01*
X201979847Y-58290584D01*
X202014537Y-58250457D01*
X202066937Y-58193493D01*
X202132616Y-58124185D01*
X202207144Y-58047031D01*
X202286087Y-57966525D01*
X202365017Y-57887163D01*
X202439500Y-57813440D01*
X202505106Y-57749852D01*
X202557404Y-57700894D01*
X202591961Y-57671061D01*
X202603522Y-57663942D01*
X202622346Y-57673953D01*
X202667369Y-57702078D01*
X202734213Y-57745454D01*
X202818501Y-57801218D01*
X202915856Y-57866506D01*
X202989293Y-57916246D01*
X203360333Y-58168551D01*
X203978905Y-57913555D01*
X204062725Y-57468931D01*
X204146546Y-57024307D01*
X205071994Y-57024307D01*
X205155814Y-57468931D01*
X205155814Y-57468931D01*
G37*
X205155814Y-57468931D02*
X205239635Y-57913555D01*
X205548920Y-58041053D01*
X205858206Y-58168551D01*
X206229246Y-57916246D01*
X206333157Y-57845996D01*
X206427087Y-57783272D01*
X206506652Y-57730938D01*
X206567470Y-57691857D01*
X206605157Y-57668893D01*
X206615421Y-57663942D01*
X206633910Y-57676676D01*
X206673420Y-57711882D01*
X206729522Y-57765062D01*
X206797787Y-57831718D01*
X206873786Y-57907354D01*
X206953092Y-57987472D01*
X207031275Y-58067574D01*
X207103907Y-58143164D01*
X207166559Y-58209745D01*
X207214803Y-58262818D01*
X207244210Y-58297887D01*
X207251241Y-58309623D01*
X207241123Y-58331260D01*
X207212759Y-58378662D01*
X207169129Y-58447193D01*
X207113218Y-58532215D01*
X207048006Y-58629093D01*
X207010219Y-58684350D01*
X206941343Y-58785248D01*
X206880140Y-58876299D01*
X206829578Y-58952970D01*
X206792628Y-59010728D01*
X206772258Y-59045043D01*
X206769197Y-59052254D01*
X206776136Y-59072748D01*
X206795051Y-59120513D01*
X206823087Y-59188832D01*
X206857391Y-59270989D01*
X206895109Y-59360270D01*
X206933387Y-59449958D01*
X206969370Y-59533338D01*
X207000206Y-59603694D01*
X207023039Y-59654310D01*
X207035017Y-59678471D01*
X207035724Y-59679422D01*
X207054531Y-59684036D01*
X207104618Y-59694328D01*
X207180793Y-59709287D01*
X207277865Y-59727901D01*
X207390643Y-59749159D01*
X207456442Y-59761418D01*
X207576950Y-59784362D01*
X207685797Y-59806195D01*
X207777476Y-59825722D01*
X207846481Y-59841748D01*
X207887304Y-59853079D01*
X207895511Y-59856674D01*
X207903548Y-59881006D01*
X207910033Y-59935959D01*
X207914970Y-60015108D01*
X207918364Y-60112026D01*
X207920218Y-60220287D01*
X207920538Y-60333465D01*
X207919327Y-60445135D01*
X207916590Y-60548868D01*
X207912331Y-60638241D01*
X207906555Y-60706826D01*
X207899267Y-60748197D01*
X207894895Y-60756810D01*
X207868764Y-60767133D01*
X207813393Y-60781892D01*
X207736107Y-60799352D01*
X207644230Y-60817780D01*
X207612158Y-60823741D01*
X207457524Y-60852066D01*
X207335375Y-60874876D01*
X207241673Y-60893080D01*
X207172384Y-60907583D01*
X207123471Y-60919292D01*
X207090897Y-60929115D01*
X207070628Y-60937956D01*
X207058626Y-60946724D01*
X207056947Y-60948457D01*
X207040184Y-60976371D01*
X207014614Y-61030695D01*
X206982788Y-61104777D01*
X206947260Y-61191965D01*
X206910583Y-61285608D01*
X206875311Y-61379052D01*
X206843996Y-61465647D01*
X206819193Y-61538740D01*
X206803454Y-61591678D01*
X206799332Y-61617811D01*
X206799676Y-61618726D01*
X206813641Y-61640086D01*
X206845322Y-61687084D01*
X206891391Y-61754827D01*
X206948518Y-61838423D01*
X207013373Y-61932982D01*
X207031843Y-61959854D01*
X207097699Y-62057275D01*
X207155650Y-62146163D01*
X207202538Y-62221412D01*
X207235207Y-62277920D01*
X207250500Y-62310581D01*
X207251241Y-62314593D01*
X207238392Y-62335684D01*
X207202888Y-62377464D01*
X207149293Y-62435445D01*
X207082171Y-62505135D01*
X207006087Y-62582045D01*
X206925604Y-62661683D01*
X206845287Y-62739561D01*
X206769699Y-62811186D01*
X206703405Y-62872070D01*
X206650969Y-62917721D01*
X206616955Y-62943650D01*
X206607545Y-62947883D01*
X206585643Y-62937912D01*
X206540800Y-62911020D01*
X206480321Y-62871736D01*
X206433789Y-62840117D01*
X206349475Y-62782098D01*
X206249626Y-62713784D01*
X206149473Y-62645579D01*
X206095627Y-62609075D01*
X205913371Y-62485800D01*
X205760381Y-62568520D01*
X205690682Y-62604759D01*
X205631414Y-62632926D01*
X205591311Y-62648991D01*
X205581103Y-62651226D01*
X205568829Y-62634722D01*
X205544613Y-62588082D01*
X205510263Y-62515609D01*
X205467588Y-62421606D01*
X205418394Y-62310374D01*
X205364490Y-62186215D01*
X205307684Y-62053432D01*
X205249782Y-61916327D01*
X205192593Y-61779202D01*
X205137924Y-61646358D01*
X205087584Y-61522098D01*
X205043380Y-61410725D01*
X205007119Y-61316539D01*
X204980609Y-61243844D01*
X204965658Y-61196941D01*
X204963254Y-61180833D01*
X204982311Y-61160286D01*
X205024036Y-61126933D01*
X205079706Y-61087702D01*
X205084378Y-61084599D01*
X205228264Y-60969423D01*
X205344283Y-60835053D01*
X205431430Y-60685784D01*
X205488699Y-60525913D01*
X205515086Y-60359737D01*
X205509585Y-60191552D01*
X205471190Y-60025655D01*
X205398895Y-59866342D01*
X205377626Y-59831487D01*
X205266996Y-59690737D01*
X205136302Y-59577714D01*
X204990064Y-59493003D01*
X204832808Y-59437194D01*
X204669057Y-59410874D01*
X204503333Y-59414630D01*
X204340162Y-59449050D01*
X204184065Y-59514723D01*
X204039567Y-59612235D01*
X203994869Y-59651813D01*
X203881112Y-59775703D01*
X203798218Y-59906124D01*
X203741356Y-60052315D01*
X203709687Y-60197088D01*
X203701869Y-60359860D01*
X203727938Y-60523440D01*
X203785245Y-60682298D01*
X203871144Y-60830906D01*
X203982986Y-60963735D01*
X204118123Y-61075256D01*
X204135883Y-61087011D01*
X204192150Y-61125508D01*
X204234923Y-61158863D01*
X204255372Y-61180160D01*
X204255669Y-61180833D01*
X204251279Y-61203871D01*
X204233876Y-61256157D01*
X204205268Y-61333390D01*
X204167265Y-61431268D01*
X204121674Y-61545491D01*
X204070303Y-61671758D01*
X204014962Y-61805767D01*
X203957458Y-61943218D01*
X203899601Y-62079808D01*
X203843198Y-62211237D01*
X203790058Y-62333205D01*
X203741990Y-62441409D01*
X203700801Y-62531549D01*
X203668301Y-62599323D01*
X203646297Y-62640430D01*
X203637436Y-62651226D01*
X203610360Y-62642819D01*
X203559697Y-62620272D01*
X203494183Y-62587613D01*
X203458159Y-62568520D01*
X203305168Y-62485800D01*
X203122912Y-62609075D01*
X203029875Y-62672228D01*
X202928015Y-62741727D01*
X202832562Y-62807165D01*
X202784750Y-62840117D01*
X202717505Y-62885273D01*
X202660564Y-62921057D01*
X202621354Y-62942938D01*
X202608619Y-62947563D01*
X202590083Y-62935085D01*
X202549059Y-62900252D01*
X202489525Y-62846678D01*
X202415458Y-62777983D01*
X202330835Y-62697781D01*
X202277315Y-62646286D01*
X202183681Y-62554286D01*
X202102759Y-62471999D01*
X202037823Y-62402945D01*
X201992142Y-62350644D01*
X201968989Y-62318616D01*
X201966768Y-62312116D01*
X201977076Y-62287394D01*
X202005561Y-62237405D01*
X202049063Y-62167212D01*
X202104423Y-62081875D01*
X202168480Y-61986456D01*
X202186697Y-61959854D01*
X202253073Y-61863167D01*
X202312622Y-61776117D01*
X202362016Y-61703595D01*
X202397925Y-61650493D01*
X202417019Y-61621703D01*
X202418864Y-61618726D01*
X202416105Y-61595782D01*
X202401462Y-61545336D01*
X202377487Y-61474041D01*
X202346734Y-61388547D01*
X202311756Y-61295507D01*
X202275107Y-61201574D01*
X202239339Y-61113399D01*
X202207006Y-61037634D01*
X202180662Y-60980931D01*
X202162858Y-60949943D01*
X202161593Y-60948457D01*
X202150706Y-60939601D01*
X202132318Y-60930843D01*
X202102394Y-60921277D01*
X202056897Y-60909996D01*
X201991791Y-60896093D01*
X201903039Y-60878663D01*
X201786607Y-60856798D01*
X201638458Y-60829591D01*
X201606382Y-60823741D01*
X201511314Y-60805374D01*
X201428435Y-60787405D01*
X201365070Y-60771569D01*
X201328542Y-60759600D01*
X201323644Y-60756810D01*
X201315573Y-60732072D01*
X201309013Y-60676790D01*
X201303967Y-60597389D01*
X201300441Y-60500296D01*
X201298439Y-60391938D01*
X201297964Y-60278740D01*
X201299023Y-60167128D01*
X201301618Y-60063529D01*
X201305754Y-59974368D01*
X201311437Y-59906072D01*
X201318669Y-59865066D01*
X201323029Y-59856674D01*
X201347302Y-59848208D01*
X201402574Y-59834435D01*
X201483338Y-59816550D01*
X201584088Y-59795748D01*
X201699317Y-59773223D01*
X201762098Y-59761418D01*
X201881213Y-59739151D01*
X201987435Y-59718979D01*
X202075573Y-59701915D01*
X202140434Y-59688969D01*
X202176826Y-59681155D01*
X202182816Y-59679422D01*
X202192939Y-59659890D01*
X202214338Y-59612843D01*
X202244161Y-59545003D01*
X202279555Y-59463091D01*
X202317668Y-59373828D01*
X202355647Y-59283935D01*
X202390640Y-59200135D01*
X202419794Y-59129147D01*
X202440257Y-59077694D01*
X202449177Y-59052497D01*
X202449343Y-59051396D01*
X202439231Y-59031519D01*
X202410883Y-58985777D01*
X202367277Y-58918717D01*
X202311394Y-58834884D01*
X202246213Y-58738826D01*
X202208321Y-58683650D01*
X202139275Y-58582481D01*
X202077950Y-58490630D01*
X202027337Y-58412744D01*
X201990429Y-58353469D01*
X201970218Y-58317451D01*
X201967299Y-58309377D01*
X201979847Y-58290584D01*
X202014537Y-58250457D01*
X202066937Y-58193493D01*
X202132616Y-58124185D01*
X202207144Y-58047031D01*
X202286087Y-57966525D01*
X202365017Y-57887163D01*
X202439500Y-57813440D01*
X202505106Y-57749852D01*
X202557404Y-57700894D01*
X202591961Y-57671061D01*
X202603522Y-57663942D01*
X202622346Y-57673953D01*
X202667369Y-57702078D01*
X202734213Y-57745454D01*
X202818501Y-57801218D01*
X202915856Y-57866506D01*
X202989293Y-57916246D01*
X203360333Y-58168551D01*
X203978905Y-57913555D01*
X204062725Y-57468931D01*
X204146546Y-57024307D01*
X205071994Y-57024307D01*
X205155814Y-57468931D01*
D14*
G04 #@! TO.C,SpeedPot1*
X110050000Y-112670000D02*
X102429000Y-112670000D01*
X110050000Y-96550000D02*
X102429000Y-96550000D01*
X110050000Y-112670000D02*
X110050000Y-96550000D01*
X102429000Y-112670000D02*
X102429000Y-96550000D01*
X102429000Y-108170000D02*
X97430000Y-108170000D01*
X102429000Y-101050000D02*
X97430000Y-101050000D01*
X102429000Y-108170000D02*
X102429000Y-101050000D01*
X97430000Y-108170000D02*
X97430000Y-101050000D01*
X97430000Y-106670000D02*
X87429000Y-106670000D01*
X97430000Y-102550000D02*
X87429000Y-102550000D01*
X97430000Y-106670000D02*
X97430000Y-102550000D01*
X87429000Y-106670000D02*
X87429000Y-102550000D01*
G04 #@! TO.C,D4*
X202986758Y-113580724D02*
G75*
G03X207290000Y-113898749I2243242J1080724D01*
G01*
X202986758Y-111419276D02*
G75*
G02X207290000Y-111101251I2243242J-1080724D01*
G01*
X203547287Y-113580961D02*
G75*
G03X206913330Y-113580000I1682713J1080961D01*
G01*
X203547287Y-111419039D02*
G75*
G02X206913330Y-111420000I1682713J-1080961D01*
G01*
X207290000Y-113899000D02*
X207290000Y-113580000D01*
X207290000Y-111420000D02*
X207290000Y-111101000D01*
G04 #@! TO.C,C3*
X199889000Y-82337000D02*
X199889000Y-81163000D01*
X201611000Y-82337000D02*
X201611000Y-81163000D01*
G04 #@! TO.C,C2*
X201611000Y-91163000D02*
X201611000Y-92337000D01*
X199889000Y-91163000D02*
X199889000Y-92337000D01*
G04 #@! TO.C,C10*
X170861000Y-106463000D02*
X170861000Y-107637000D01*
X169139000Y-106463000D02*
X169139000Y-107637000D01*
G04 #@! TO.C,C11*
X152061000Y-106263000D02*
X152061000Y-107437000D01*
X150339000Y-106263000D02*
X150339000Y-107437000D01*
G04 #@! TO.C,C1*
X117339000Y-87937000D02*
X117339000Y-86763000D01*
X119061000Y-87937000D02*
X119061000Y-86763000D01*
G04 #@! TO.C,C12*
X119360000Y-78790000D02*
X119360000Y-82710000D01*
X116640000Y-78790000D02*
X116640000Y-82710000D01*
X119360000Y-78790000D02*
X118750000Y-78790000D01*
X117250000Y-78790000D02*
X116640000Y-78790000D01*
X119360000Y-82710000D02*
X118750000Y-82710000D01*
X117250000Y-82710000D02*
X116640000Y-82710000D01*
G04 #@! TO.C,C13*
X112581400Y-81646863D02*
G75*
G03X112580000Y-76852564I-981400J2396863D01*
G01*
X110618600Y-81646863D02*
G75*
G02X110620000Y-76852564I981400J2396863D01*
G01*
X110618600Y-81646863D02*
G75*
G03X112580000Y-81647436I981400J2396863D01*
G01*
X114150000Y-79250000D02*
X109050000Y-79250000D01*
X114150000Y-79290000D02*
X109050000Y-79290000D01*
X114149000Y-79330000D02*
X109051000Y-79330000D01*
X114148000Y-79370000D02*
X109052000Y-79370000D01*
X114146000Y-79410000D02*
X109054000Y-79410000D01*
X114143000Y-79450000D02*
X109057000Y-79450000D01*
X114139000Y-79490000D02*
X109061000Y-79490000D01*
X114135000Y-79530000D02*
X112580000Y-79530000D01*
X110620000Y-79530000D02*
X109065000Y-79530000D01*
X114131000Y-79570000D02*
X112580000Y-79570000D01*
X110620000Y-79570000D02*
X109069000Y-79570000D01*
X114125000Y-79610000D02*
X112580000Y-79610000D01*
X110620000Y-79610000D02*
X109075000Y-79610000D01*
X114119000Y-79650000D02*
X112580000Y-79650000D01*
X110620000Y-79650000D02*
X109081000Y-79650000D01*
X114113000Y-79690000D02*
X112580000Y-79690000D01*
X110620000Y-79690000D02*
X109087000Y-79690000D01*
X114106000Y-79730000D02*
X112580000Y-79730000D01*
X110620000Y-79730000D02*
X109094000Y-79730000D01*
X114098000Y-79770000D02*
X112580000Y-79770000D01*
X110620000Y-79770000D02*
X109102000Y-79770000D01*
X114089000Y-79810000D02*
X112580000Y-79810000D01*
X110620000Y-79810000D02*
X109111000Y-79810000D01*
X114080000Y-79850000D02*
X112580000Y-79850000D01*
X110620000Y-79850000D02*
X109120000Y-79850000D01*
X114070000Y-79890000D02*
X112580000Y-79890000D01*
X110620000Y-79890000D02*
X109130000Y-79890000D01*
X114060000Y-79930000D02*
X112580000Y-79930000D01*
X110620000Y-79930000D02*
X109140000Y-79930000D01*
X114048000Y-79971000D02*
X112580000Y-79971000D01*
X110620000Y-79971000D02*
X109152000Y-79971000D01*
X114036000Y-80011000D02*
X112580000Y-80011000D01*
X110620000Y-80011000D02*
X109164000Y-80011000D01*
X114024000Y-80051000D02*
X112580000Y-80051000D01*
X110620000Y-80051000D02*
X109176000Y-80051000D01*
X114010000Y-80091000D02*
X112580000Y-80091000D01*
X110620000Y-80091000D02*
X109190000Y-80091000D01*
X113996000Y-80131000D02*
X112580000Y-80131000D01*
X110620000Y-80131000D02*
X109204000Y-80131000D01*
X113982000Y-80171000D02*
X112580000Y-80171000D01*
X110620000Y-80171000D02*
X109218000Y-80171000D01*
X113966000Y-80211000D02*
X112580000Y-80211000D01*
X110620000Y-80211000D02*
X109234000Y-80211000D01*
X113950000Y-80251000D02*
X112580000Y-80251000D01*
X110620000Y-80251000D02*
X109250000Y-80251000D01*
X113933000Y-80291000D02*
X112580000Y-80291000D01*
X110620000Y-80291000D02*
X109267000Y-80291000D01*
X113915000Y-80331000D02*
X112580000Y-80331000D01*
X110620000Y-80331000D02*
X109285000Y-80331000D01*
X113896000Y-80371000D02*
X112580000Y-80371000D01*
X110620000Y-80371000D02*
X109304000Y-80371000D01*
X113876000Y-80411000D02*
X112580000Y-80411000D01*
X110620000Y-80411000D02*
X109324000Y-80411000D01*
X113856000Y-80451000D02*
X112580000Y-80451000D01*
X110620000Y-80451000D02*
X109344000Y-80451000D01*
X113834000Y-80491000D02*
X112580000Y-80491000D01*
X110620000Y-80491000D02*
X109366000Y-80491000D01*
X113812000Y-80531000D02*
X112580000Y-80531000D01*
X110620000Y-80531000D02*
X109388000Y-80531000D01*
X113789000Y-80571000D02*
X112580000Y-80571000D01*
X110620000Y-80571000D02*
X109411000Y-80571000D01*
X113765000Y-80611000D02*
X112580000Y-80611000D01*
X110620000Y-80611000D02*
X109435000Y-80611000D01*
X113740000Y-80651000D02*
X112580000Y-80651000D01*
X110620000Y-80651000D02*
X109460000Y-80651000D01*
X113713000Y-80691000D02*
X112580000Y-80691000D01*
X110620000Y-80691000D02*
X109487000Y-80691000D01*
X113686000Y-80731000D02*
X112580000Y-80731000D01*
X110620000Y-80731000D02*
X109514000Y-80731000D01*
X113658000Y-80771000D02*
X112580000Y-80771000D01*
X110620000Y-80771000D02*
X109542000Y-80771000D01*
X113628000Y-80811000D02*
X112580000Y-80811000D01*
X110620000Y-80811000D02*
X109572000Y-80811000D01*
X113597000Y-80851000D02*
X112580000Y-80851000D01*
X110620000Y-80851000D02*
X109603000Y-80851000D01*
X113565000Y-80891000D02*
X112580000Y-80891000D01*
X110620000Y-80891000D02*
X109635000Y-80891000D01*
X113532000Y-80931000D02*
X112580000Y-80931000D01*
X110620000Y-80931000D02*
X109668000Y-80931000D01*
X113497000Y-80971000D02*
X112580000Y-80971000D01*
X110620000Y-80971000D02*
X109703000Y-80971000D01*
X113461000Y-81011000D02*
X112580000Y-81011000D01*
X110620000Y-81011000D02*
X109739000Y-81011000D01*
X113423000Y-81051000D02*
X112580000Y-81051000D01*
X110620000Y-81051000D02*
X109777000Y-81051000D01*
X113383000Y-81091000D02*
X112580000Y-81091000D01*
X110620000Y-81091000D02*
X109817000Y-81091000D01*
X113342000Y-81131000D02*
X112580000Y-81131000D01*
X110620000Y-81131000D02*
X109858000Y-81131000D01*
X113299000Y-81171000D02*
X112580000Y-81171000D01*
X110620000Y-81171000D02*
X109901000Y-81171000D01*
X113254000Y-81211000D02*
X112580000Y-81211000D01*
X110620000Y-81211000D02*
X109946000Y-81211000D01*
X113206000Y-81251000D02*
X112580000Y-81251000D01*
X110620000Y-81251000D02*
X109994000Y-81251000D01*
X113156000Y-81291000D02*
X112580000Y-81291000D01*
X110620000Y-81291000D02*
X110044000Y-81291000D01*
X113104000Y-81331000D02*
X112580000Y-81331000D01*
X110620000Y-81331000D02*
X110096000Y-81331000D01*
X113048000Y-81371000D02*
X112580000Y-81371000D01*
X110620000Y-81371000D02*
X110152000Y-81371000D01*
X112990000Y-81411000D02*
X112580000Y-81411000D01*
X110620000Y-81411000D02*
X110210000Y-81411000D01*
X112927000Y-81451000D02*
X112580000Y-81451000D01*
X110620000Y-81451000D02*
X110273000Y-81451000D01*
X112861000Y-81491000D02*
X110339000Y-81491000D01*
X112789000Y-81531000D02*
X110411000Y-81531000D01*
X112712000Y-81571000D02*
X110488000Y-81571000D01*
X112628000Y-81611000D02*
X110572000Y-81611000D01*
X112534000Y-81651000D02*
X110666000Y-81651000D01*
X112429000Y-81691000D02*
X110771000Y-81691000D01*
X112307000Y-81731000D02*
X110893000Y-81731000D01*
X112159000Y-81771000D02*
X111041000Y-81771000D01*
X111954000Y-81811000D02*
X111246000Y-81811000D01*
X111600000Y-75800000D02*
X111600000Y-77000000D01*
X112250000Y-76400000D02*
X110950000Y-76400000D01*
G04 #@! TO.C,C15*
X112581400Y-90046863D02*
G75*
G03X112580000Y-85252564I-981400J2396863D01*
G01*
X110618600Y-90046863D02*
G75*
G02X110620000Y-85252564I981400J2396863D01*
G01*
X110618600Y-90046863D02*
G75*
G03X112580000Y-90047436I981400J2396863D01*
G01*
X114150000Y-87650000D02*
X109050000Y-87650000D01*
X114150000Y-87690000D02*
X109050000Y-87690000D01*
X114149000Y-87730000D02*
X109051000Y-87730000D01*
X114148000Y-87770000D02*
X109052000Y-87770000D01*
X114146000Y-87810000D02*
X109054000Y-87810000D01*
X114143000Y-87850000D02*
X109057000Y-87850000D01*
X114139000Y-87890000D02*
X109061000Y-87890000D01*
X114135000Y-87930000D02*
X112580000Y-87930000D01*
X110620000Y-87930000D02*
X109065000Y-87930000D01*
X114131000Y-87970000D02*
X112580000Y-87970000D01*
X110620000Y-87970000D02*
X109069000Y-87970000D01*
X114125000Y-88010000D02*
X112580000Y-88010000D01*
X110620000Y-88010000D02*
X109075000Y-88010000D01*
X114119000Y-88050000D02*
X112580000Y-88050000D01*
X110620000Y-88050000D02*
X109081000Y-88050000D01*
X114113000Y-88090000D02*
X112580000Y-88090000D01*
X110620000Y-88090000D02*
X109087000Y-88090000D01*
X114106000Y-88130000D02*
X112580000Y-88130000D01*
X110620000Y-88130000D02*
X109094000Y-88130000D01*
X114098000Y-88170000D02*
X112580000Y-88170000D01*
X110620000Y-88170000D02*
X109102000Y-88170000D01*
X114089000Y-88210000D02*
X112580000Y-88210000D01*
X110620000Y-88210000D02*
X109111000Y-88210000D01*
X114080000Y-88250000D02*
X112580000Y-88250000D01*
X110620000Y-88250000D02*
X109120000Y-88250000D01*
X114070000Y-88290000D02*
X112580000Y-88290000D01*
X110620000Y-88290000D02*
X109130000Y-88290000D01*
X114060000Y-88330000D02*
X112580000Y-88330000D01*
X110620000Y-88330000D02*
X109140000Y-88330000D01*
X114048000Y-88371000D02*
X112580000Y-88371000D01*
X110620000Y-88371000D02*
X109152000Y-88371000D01*
X114036000Y-88411000D02*
X112580000Y-88411000D01*
X110620000Y-88411000D02*
X109164000Y-88411000D01*
X114024000Y-88451000D02*
X112580000Y-88451000D01*
X110620000Y-88451000D02*
X109176000Y-88451000D01*
X114010000Y-88491000D02*
X112580000Y-88491000D01*
X110620000Y-88491000D02*
X109190000Y-88491000D01*
X113996000Y-88531000D02*
X112580000Y-88531000D01*
X110620000Y-88531000D02*
X109204000Y-88531000D01*
X113982000Y-88571000D02*
X112580000Y-88571000D01*
X110620000Y-88571000D02*
X109218000Y-88571000D01*
X113966000Y-88611000D02*
X112580000Y-88611000D01*
X110620000Y-88611000D02*
X109234000Y-88611000D01*
X113950000Y-88651000D02*
X112580000Y-88651000D01*
X110620000Y-88651000D02*
X109250000Y-88651000D01*
X113933000Y-88691000D02*
X112580000Y-88691000D01*
X110620000Y-88691000D02*
X109267000Y-88691000D01*
X113915000Y-88731000D02*
X112580000Y-88731000D01*
X110620000Y-88731000D02*
X109285000Y-88731000D01*
X113896000Y-88771000D02*
X112580000Y-88771000D01*
X110620000Y-88771000D02*
X109304000Y-88771000D01*
X113876000Y-88811000D02*
X112580000Y-88811000D01*
X110620000Y-88811000D02*
X109324000Y-88811000D01*
X113856000Y-88851000D02*
X112580000Y-88851000D01*
X110620000Y-88851000D02*
X109344000Y-88851000D01*
X113834000Y-88891000D02*
X112580000Y-88891000D01*
X110620000Y-88891000D02*
X109366000Y-88891000D01*
X113812000Y-88931000D02*
X112580000Y-88931000D01*
X110620000Y-88931000D02*
X109388000Y-88931000D01*
X113789000Y-88971000D02*
X112580000Y-88971000D01*
X110620000Y-88971000D02*
X109411000Y-88971000D01*
X113765000Y-89011000D02*
X112580000Y-89011000D01*
X110620000Y-89011000D02*
X109435000Y-89011000D01*
X113740000Y-89051000D02*
X112580000Y-89051000D01*
X110620000Y-89051000D02*
X109460000Y-89051000D01*
X113713000Y-89091000D02*
X112580000Y-89091000D01*
X110620000Y-89091000D02*
X109487000Y-89091000D01*
X113686000Y-89131000D02*
X112580000Y-89131000D01*
X110620000Y-89131000D02*
X109514000Y-89131000D01*
X113658000Y-89171000D02*
X112580000Y-89171000D01*
X110620000Y-89171000D02*
X109542000Y-89171000D01*
X113628000Y-89211000D02*
X112580000Y-89211000D01*
X110620000Y-89211000D02*
X109572000Y-89211000D01*
X113597000Y-89251000D02*
X112580000Y-89251000D01*
X110620000Y-89251000D02*
X109603000Y-89251000D01*
X113565000Y-89291000D02*
X112580000Y-89291000D01*
X110620000Y-89291000D02*
X109635000Y-89291000D01*
X113532000Y-89331000D02*
X112580000Y-89331000D01*
X110620000Y-89331000D02*
X109668000Y-89331000D01*
X113497000Y-89371000D02*
X112580000Y-89371000D01*
X110620000Y-89371000D02*
X109703000Y-89371000D01*
X113461000Y-89411000D02*
X112580000Y-89411000D01*
X110620000Y-89411000D02*
X109739000Y-89411000D01*
X113423000Y-89451000D02*
X112580000Y-89451000D01*
X110620000Y-89451000D02*
X109777000Y-89451000D01*
X113383000Y-89491000D02*
X112580000Y-89491000D01*
X110620000Y-89491000D02*
X109817000Y-89491000D01*
X113342000Y-89531000D02*
X112580000Y-89531000D01*
X110620000Y-89531000D02*
X109858000Y-89531000D01*
X113299000Y-89571000D02*
X112580000Y-89571000D01*
X110620000Y-89571000D02*
X109901000Y-89571000D01*
X113254000Y-89611000D02*
X112580000Y-89611000D01*
X110620000Y-89611000D02*
X109946000Y-89611000D01*
X113206000Y-89651000D02*
X112580000Y-89651000D01*
X110620000Y-89651000D02*
X109994000Y-89651000D01*
X113156000Y-89691000D02*
X112580000Y-89691000D01*
X110620000Y-89691000D02*
X110044000Y-89691000D01*
X113104000Y-89731000D02*
X112580000Y-89731000D01*
X110620000Y-89731000D02*
X110096000Y-89731000D01*
X113048000Y-89771000D02*
X112580000Y-89771000D01*
X110620000Y-89771000D02*
X110152000Y-89771000D01*
X112990000Y-89811000D02*
X112580000Y-89811000D01*
X110620000Y-89811000D02*
X110210000Y-89811000D01*
X112927000Y-89851000D02*
X112580000Y-89851000D01*
X110620000Y-89851000D02*
X110273000Y-89851000D01*
X112861000Y-89891000D02*
X110339000Y-89891000D01*
X112789000Y-89931000D02*
X110411000Y-89931000D01*
X112712000Y-89971000D02*
X110488000Y-89971000D01*
X112628000Y-90011000D02*
X110572000Y-90011000D01*
X112534000Y-90051000D02*
X110666000Y-90051000D01*
X112429000Y-90091000D02*
X110771000Y-90091000D01*
X112307000Y-90131000D02*
X110893000Y-90131000D01*
X112159000Y-90171000D02*
X111041000Y-90171000D01*
X111954000Y-90211000D02*
X111246000Y-90211000D01*
X111600000Y-84200000D02*
X111600000Y-85400000D01*
X112250000Y-84800000D02*
X110950000Y-84800000D01*
G04 #@! TO.C,C4*
X199537000Y-108061000D02*
X198363000Y-108061000D01*
X199537000Y-106339000D02*
X198363000Y-106339000D01*
G04 #@! TO.C,C5*
X199697000Y-112751000D02*
X198523000Y-112751000D01*
X199697000Y-111029000D02*
X198523000Y-111029000D01*
G04 #@! TO.C,J8*
X128640000Y-101480000D02*
X128640000Y-83580000D01*
X128640000Y-83580000D02*
X123320000Y-83580000D01*
X123320000Y-83580000D02*
X123320000Y-104140000D01*
X123320000Y-104140000D02*
X125980000Y-104140000D01*
X125980000Y-104140000D02*
X125980000Y-101480000D01*
X125980000Y-101480000D02*
X128640000Y-101480000D01*
X128640000Y-102750000D02*
X128640000Y-104140000D01*
X128640000Y-104140000D02*
X127250000Y-104140000D01*
D15*
G04 #@! TO.C,SW1*
X115950000Y-132850000D02*
X115950000Y-132750000D01*
X116050000Y-132900000D02*
X115700000Y-132900000D01*
X115700000Y-132900000D02*
G75*
G03X116050000Y-132550000I-700000J1050000D01*
G01*
X116050000Y-132900000D02*
X116050000Y-132550000D01*
X113414214Y-129850000D02*
G75*
G03X113414214Y-129850000I-1414214J0D01*
G01*
X114000000Y-126850000D02*
X110000000Y-126850000D01*
X114000000Y-132850000D02*
X110000000Y-132850000D01*
X115000000Y-129100000D02*
X115000000Y-130600000D01*
X109000000Y-130600000D02*
X109000000Y-129100000D01*
D18*
X115000000Y-129850000D02*
X115000000Y-129850000D01*
X110000000Y-126850000D02*
X114000000Y-126850000D01*
X110000000Y-132850000D02*
X114000000Y-132850000D01*
X109000000Y-129850000D02*
X109000000Y-129850000D01*
X113414214Y-129850000D02*
G75*
G03X113414214Y-129850000I-1414214J0D01*
G01*
D15*
G04 #@! TO.C,SW2*
X129050000Y-132950000D02*
X129050000Y-132850000D01*
X129150000Y-133000000D02*
X128800000Y-133000000D01*
X128800000Y-133000000D02*
G75*
G03X129150000Y-132650000I-700000J1050000D01*
G01*
X129150000Y-133000000D02*
X129150000Y-132650000D01*
X126514214Y-129950000D02*
G75*
G03X126514214Y-129950000I-1414214J0D01*
G01*
X127100000Y-126950000D02*
X123100000Y-126950000D01*
X127100000Y-132950000D02*
X123100000Y-132950000D01*
X128100000Y-129200000D02*
X128100000Y-130700000D01*
X122100000Y-130700000D02*
X122100000Y-129200000D01*
D18*
X128100000Y-129950000D02*
X128100000Y-129950000D01*
X123100000Y-126950000D02*
X127100000Y-126950000D01*
X123100000Y-132950000D02*
X127100000Y-132950000D01*
X122100000Y-129950000D02*
X122100000Y-129950000D01*
X126514214Y-129950000D02*
G75*
G03X126514214Y-129950000I-1414214J0D01*
G01*
D15*
G04 #@! TO.C,SW3*
X141750000Y-133050000D02*
X141750000Y-132950000D01*
X141850000Y-133100000D02*
X141500000Y-133100000D01*
X141500000Y-133100000D02*
G75*
G03X141850000Y-132750000I-700000J1050000D01*
G01*
X141850000Y-133100000D02*
X141850000Y-132750000D01*
X139214214Y-130050000D02*
G75*
G03X139214214Y-130050000I-1414214J0D01*
G01*
X139800000Y-127050000D02*
X135800000Y-127050000D01*
X139800000Y-133050000D02*
X135800000Y-133050000D01*
X140800000Y-129300000D02*
X140800000Y-130800000D01*
X134800000Y-130800000D02*
X134800000Y-129300000D01*
D18*
X140800000Y-130050000D02*
X140800000Y-130050000D01*
X135800000Y-127050000D02*
X139800000Y-127050000D01*
X135800000Y-133050000D02*
X139800000Y-133050000D01*
X134800000Y-130050000D02*
X134800000Y-130050000D01*
X139214214Y-130050000D02*
G75*
G03X139214214Y-130050000I-1414214J0D01*
G01*
D15*
G04 #@! TO.C,SW4*
X154550000Y-133100000D02*
X154550000Y-133000000D01*
X154650000Y-133150000D02*
X154300000Y-133150000D01*
X154300000Y-133150000D02*
G75*
G03X154650000Y-132800000I-700000J1050000D01*
G01*
X154650000Y-133150000D02*
X154650000Y-132800000D01*
X152014214Y-130100000D02*
G75*
G03X152014214Y-130100000I-1414214J0D01*
G01*
X152600000Y-127100000D02*
X148600000Y-127100000D01*
X152600000Y-133100000D02*
X148600000Y-133100000D01*
X153600000Y-129350000D02*
X153600000Y-130850000D01*
X147600000Y-130850000D02*
X147600000Y-129350000D01*
D18*
X153600000Y-130100000D02*
X153600000Y-130100000D01*
X148600000Y-127100000D02*
X152600000Y-127100000D01*
X148600000Y-133100000D02*
X152600000Y-133100000D01*
X147600000Y-130100000D02*
X147600000Y-130100000D01*
X152014214Y-130100000D02*
G75*
G03X152014214Y-130100000I-1414214J0D01*
G01*
D15*
G04 #@! TO.C,SW5*
X166700000Y-133100000D02*
X166700000Y-133000000D01*
X166800000Y-133150000D02*
X166450000Y-133150000D01*
X166450000Y-133150000D02*
G75*
G03X166800000Y-132800000I-700000J1050000D01*
G01*
X166800000Y-133150000D02*
X166800000Y-132800000D01*
X164164214Y-130100000D02*
G75*
G03X164164214Y-130100000I-1414214J0D01*
G01*
X164750000Y-127100000D02*
X160750000Y-127100000D01*
X164750000Y-133100000D02*
X160750000Y-133100000D01*
X165750000Y-129350000D02*
X165750000Y-130850000D01*
X159750000Y-130850000D02*
X159750000Y-129350000D01*
D18*
X165750000Y-130100000D02*
X165750000Y-130100000D01*
X160750000Y-127100000D02*
X164750000Y-127100000D01*
X160750000Y-133100000D02*
X164750000Y-133100000D01*
X159750000Y-130100000D02*
X159750000Y-130100000D01*
X164164214Y-130100000D02*
G75*
G03X164164214Y-130100000I-1414214J0D01*
G01*
D15*
G04 #@! TO.C,SW7*
X178450000Y-133050000D02*
X178450000Y-132950000D01*
X178550000Y-133100000D02*
X178200000Y-133100000D01*
X178200000Y-133100000D02*
G75*
G03X178550000Y-132750000I-700000J1050000D01*
G01*
X178550000Y-133100000D02*
X178550000Y-132750000D01*
X175914214Y-130050000D02*
G75*
G03X175914214Y-130050000I-1414214J0D01*
G01*
X176500000Y-127050000D02*
X172500000Y-127050000D01*
X176500000Y-133050000D02*
X172500000Y-133050000D01*
X177500000Y-129300000D02*
X177500000Y-130800000D01*
X171500000Y-130800000D02*
X171500000Y-129300000D01*
D18*
X177500000Y-130050000D02*
X177500000Y-130050000D01*
X172500000Y-127050000D02*
X176500000Y-127050000D01*
X172500000Y-133050000D02*
X176500000Y-133050000D01*
X171500000Y-130050000D02*
X171500000Y-130050000D01*
X175914214Y-130050000D02*
G75*
G03X175914214Y-130050000I-1414214J0D01*
G01*
D15*
G04 #@! TO.C,SW8*
X190300000Y-133000000D02*
X190300000Y-132900000D01*
X190400000Y-133050000D02*
X190050000Y-133050000D01*
X190050000Y-133050000D02*
G75*
G03X190400000Y-132700000I-700000J1050000D01*
G01*
X190400000Y-133050000D02*
X190400000Y-132700000D01*
X187764214Y-130000000D02*
G75*
G03X187764214Y-130000000I-1414214J0D01*
G01*
X188350000Y-127000000D02*
X184350000Y-127000000D01*
X188350000Y-133000000D02*
X184350000Y-133000000D01*
X189350000Y-129250000D02*
X189350000Y-130750000D01*
X183350000Y-130750000D02*
X183350000Y-129250000D01*
D18*
X189350000Y-130000000D02*
X189350000Y-130000000D01*
X184350000Y-127000000D02*
X188350000Y-127000000D01*
X184350000Y-133000000D02*
X188350000Y-133000000D01*
X183350000Y-130000000D02*
X183350000Y-130000000D01*
X187764214Y-130000000D02*
G75*
G03X187764214Y-130000000I-1414214J0D01*
G01*
D15*
G04 #@! TO.C,SW9*
X202500000Y-133100000D02*
X202500000Y-133000000D01*
X202600000Y-133150000D02*
X202250000Y-133150000D01*
X202250000Y-133150000D02*
G75*
G03X202600000Y-132800000I-700000J1050000D01*
G01*
X202600000Y-133150000D02*
X202600000Y-132800000D01*
X199964214Y-130100000D02*
G75*
G03X199964214Y-130100000I-1414214J0D01*
G01*
X200550000Y-127100000D02*
X196550000Y-127100000D01*
X200550000Y-133100000D02*
X196550000Y-133100000D01*
X201550000Y-129350000D02*
X201550000Y-130850000D01*
X195550000Y-130850000D02*
X195550000Y-129350000D01*
D18*
X201550000Y-130100000D02*
X201550000Y-130100000D01*
X196550000Y-127100000D02*
X200550000Y-127100000D01*
X196550000Y-133100000D02*
X200550000Y-133100000D01*
X195550000Y-130100000D02*
X195550000Y-130100000D01*
X199964214Y-130100000D02*
G75*
G03X199964214Y-130100000I-1414214J0D01*
G01*
D14*
G04 #@! TO.C,J10*
X145370000Y-118990000D02*
X165810000Y-118990000D01*
X165810000Y-118990000D02*
X165810000Y-116210000D01*
X165810000Y-116210000D02*
X145370000Y-116210000D01*
X145370000Y-116210000D02*
X145370000Y-118990000D01*
X144100000Y-118990000D02*
X142710000Y-118990000D01*
X142710000Y-118990000D02*
X142710000Y-117600000D01*
G04 #@! TO.C,J11*
X145370000Y-121790000D02*
X165810000Y-121790000D01*
X165810000Y-121790000D02*
X165810000Y-119010000D01*
X165810000Y-119010000D02*
X145370000Y-119010000D01*
X145370000Y-119010000D02*
X145370000Y-121790000D01*
X144100000Y-121790000D02*
X142710000Y-121790000D01*
X142710000Y-121790000D02*
X142710000Y-120400000D01*
G04 #@! TO.C,J12*
D15*
X139690476Y-122452380D02*
X139690476Y-123166666D01*
X139642857Y-123309523D01*
X139547619Y-123404761D01*
X139404761Y-123452380D01*
X139309523Y-123452380D01*
X140690476Y-123452380D02*
X140119047Y-123452380D01*
X140404761Y-123452380D02*
X140404761Y-122452380D01*
X140309523Y-122595238D01*
X140214285Y-122690476D01*
X140119047Y-122738095D01*
X141071428Y-122547619D02*
X141119047Y-122500000D01*
X141214285Y-122452380D01*
X141452380Y-122452380D01*
X141547619Y-122500000D01*
X141595238Y-122547619D01*
X141642857Y-122642857D01*
X141642857Y-122738095D01*
X141595238Y-122880952D01*
X141023809Y-123452380D01*
X141642857Y-123452380D01*
G04 #@! TO.C,HOLE2*
X116357142Y-61102380D02*
X116357142Y-60102380D01*
X116357142Y-60578571D02*
X116928571Y-60578571D01*
X116928571Y-61102380D02*
X116928571Y-60102380D01*
X117595238Y-60102380D02*
X117785714Y-60102380D01*
X117880952Y-60150000D01*
X117976190Y-60245238D01*
X118023809Y-60435714D01*
X118023809Y-60769047D01*
X117976190Y-60959523D01*
X117880952Y-61054761D01*
X117785714Y-61102380D01*
X117595238Y-61102380D01*
X117500000Y-61054761D01*
X117404761Y-60959523D01*
X117357142Y-60769047D01*
X117357142Y-60435714D01*
X117404761Y-60245238D01*
X117500000Y-60150000D01*
X117595238Y-60102380D01*
X118928571Y-61102380D02*
X118452380Y-61102380D01*
X118452380Y-60102380D01*
X119261904Y-60578571D02*
X119595238Y-60578571D01*
X119738095Y-61102380D02*
X119261904Y-61102380D01*
X119261904Y-60102380D01*
X119738095Y-60102380D01*
X120119047Y-60197619D02*
X120166666Y-60150000D01*
X120261904Y-60102380D01*
X120500000Y-60102380D01*
X120595238Y-60150000D01*
X120642857Y-60197619D01*
X120690476Y-60292857D01*
X120690476Y-60388095D01*
X120642857Y-60530952D01*
X120071428Y-61102380D01*
X120690476Y-61102380D01*
G04 #@! TO.C,HOLE4*
X193107142Y-114352380D02*
X193107142Y-113352380D01*
X193107142Y-113828571D02*
X193678571Y-113828571D01*
X193678571Y-114352380D02*
X193678571Y-113352380D01*
X194345238Y-113352380D02*
X194535714Y-113352380D01*
X194630952Y-113400000D01*
X194726190Y-113495238D01*
X194773809Y-113685714D01*
X194773809Y-114019047D01*
X194726190Y-114209523D01*
X194630952Y-114304761D01*
X194535714Y-114352380D01*
X194345238Y-114352380D01*
X194250000Y-114304761D01*
X194154761Y-114209523D01*
X194107142Y-114019047D01*
X194107142Y-113685714D01*
X194154761Y-113495238D01*
X194250000Y-113400000D01*
X194345238Y-113352380D01*
X195678571Y-114352380D02*
X195202380Y-114352380D01*
X195202380Y-113352380D01*
X196011904Y-113828571D02*
X196345238Y-113828571D01*
X196488095Y-114352380D02*
X196011904Y-114352380D01*
X196011904Y-113352380D01*
X196488095Y-113352380D01*
X197345238Y-113685714D02*
X197345238Y-114352380D01*
X197107142Y-113304761D02*
X196869047Y-114019047D01*
X197488095Y-114019047D01*
G04 #@! TO.C,HOLE6*
X203907142Y-127152380D02*
X203907142Y-126152380D01*
X203907142Y-126628571D02*
X204478571Y-126628571D01*
X204478571Y-127152380D02*
X204478571Y-126152380D01*
X205145238Y-126152380D02*
X205335714Y-126152380D01*
X205430952Y-126200000D01*
X205526190Y-126295238D01*
X205573809Y-126485714D01*
X205573809Y-126819047D01*
X205526190Y-127009523D01*
X205430952Y-127104761D01*
X205335714Y-127152380D01*
X205145238Y-127152380D01*
X205050000Y-127104761D01*
X204954761Y-127009523D01*
X204907142Y-126819047D01*
X204907142Y-126485714D01*
X204954761Y-126295238D01*
X205050000Y-126200000D01*
X205145238Y-126152380D01*
X206478571Y-127152380D02*
X206002380Y-127152380D01*
X206002380Y-126152380D01*
X206811904Y-126628571D02*
X207145238Y-126628571D01*
X207288095Y-127152380D02*
X206811904Y-127152380D01*
X206811904Y-126152380D01*
X207288095Y-126152380D01*
X208145238Y-126152380D02*
X207954761Y-126152380D01*
X207859523Y-126200000D01*
X207811904Y-126247619D01*
X207716666Y-126390476D01*
X207669047Y-126580952D01*
X207669047Y-126961904D01*
X207716666Y-127057142D01*
X207764285Y-127104761D01*
X207859523Y-127152380D01*
X208050000Y-127152380D01*
X208145238Y-127104761D01*
X208192857Y-127057142D01*
X208240476Y-126961904D01*
X208240476Y-126723809D01*
X208192857Y-126628571D01*
X208145238Y-126580952D01*
X208050000Y-126533333D01*
X207859523Y-126533333D01*
X207764285Y-126580952D01*
X207716666Y-126628571D01*
X207669047Y-126723809D01*
G04 #@! TO.C,HOLE5*
X101757142Y-127302380D02*
X101757142Y-126302380D01*
X101757142Y-126778571D02*
X102328571Y-126778571D01*
X102328571Y-127302380D02*
X102328571Y-126302380D01*
X102995238Y-126302380D02*
X103185714Y-126302380D01*
X103280952Y-126350000D01*
X103376190Y-126445238D01*
X103423809Y-126635714D01*
X103423809Y-126969047D01*
X103376190Y-127159523D01*
X103280952Y-127254761D01*
X103185714Y-127302380D01*
X102995238Y-127302380D01*
X102900000Y-127254761D01*
X102804761Y-127159523D01*
X102757142Y-126969047D01*
X102757142Y-126635714D01*
X102804761Y-126445238D01*
X102900000Y-126350000D01*
X102995238Y-126302380D01*
X104328571Y-127302380D02*
X103852380Y-127302380D01*
X103852380Y-126302380D01*
X104661904Y-126778571D02*
X104995238Y-126778571D01*
X105138095Y-127302380D02*
X104661904Y-127302380D01*
X104661904Y-126302380D01*
X105138095Y-126302380D01*
X106042857Y-126302380D02*
X105566666Y-126302380D01*
X105519047Y-126778571D01*
X105566666Y-126730952D01*
X105661904Y-126683333D01*
X105900000Y-126683333D01*
X105995238Y-126730952D01*
X106042857Y-126778571D01*
X106090476Y-126873809D01*
X106090476Y-127111904D01*
X106042857Y-127207142D01*
X105995238Y-127254761D01*
X105900000Y-127302380D01*
X105661904Y-127302380D01*
X105566666Y-127254761D01*
X105519047Y-127207142D01*
G04 #@! TO.C,PS2CONN1*
X159988095Y-58552380D02*
X159988095Y-57552380D01*
X160369047Y-57552380D01*
X160464285Y-57600000D01*
X160511904Y-57647619D01*
X160559523Y-57742857D01*
X160559523Y-57885714D01*
X160511904Y-57980952D01*
X160464285Y-58028571D01*
X160369047Y-58076190D01*
X159988095Y-58076190D01*
X160940476Y-58504761D02*
X161083333Y-58552380D01*
X161321428Y-58552380D01*
X161416666Y-58504761D01*
X161464285Y-58457142D01*
X161511904Y-58361904D01*
X161511904Y-58266666D01*
X161464285Y-58171428D01*
X161416666Y-58123809D01*
X161321428Y-58076190D01*
X161130952Y-58028571D01*
X161035714Y-57980952D01*
X160988095Y-57933333D01*
X160940476Y-57838095D01*
X160940476Y-57742857D01*
X160988095Y-57647619D01*
X161035714Y-57600000D01*
X161130952Y-57552380D01*
X161369047Y-57552380D01*
X161511904Y-57600000D01*
X161892857Y-57647619D02*
X161940476Y-57600000D01*
X162035714Y-57552380D01*
X162273809Y-57552380D01*
X162369047Y-57600000D01*
X162416666Y-57647619D01*
X162464285Y-57742857D01*
X162464285Y-57838095D01*
X162416666Y-57980952D01*
X161845238Y-58552380D01*
X162464285Y-58552380D01*
X163464285Y-58457142D02*
X163416666Y-58504761D01*
X163273809Y-58552380D01*
X163178571Y-58552380D01*
X163035714Y-58504761D01*
X162940476Y-58409523D01*
X162892857Y-58314285D01*
X162845238Y-58123809D01*
X162845238Y-57980952D01*
X162892857Y-57790476D01*
X162940476Y-57695238D01*
X163035714Y-57600000D01*
X163178571Y-57552380D01*
X163273809Y-57552380D01*
X163416666Y-57600000D01*
X163464285Y-57647619D01*
X164083333Y-57552380D02*
X164273809Y-57552380D01*
X164369047Y-57600000D01*
X164464285Y-57695238D01*
X164511904Y-57885714D01*
X164511904Y-58219047D01*
X164464285Y-58409523D01*
X164369047Y-58504761D01*
X164273809Y-58552380D01*
X164083333Y-58552380D01*
X163988095Y-58504761D01*
X163892857Y-58409523D01*
X163845238Y-58219047D01*
X163845238Y-57885714D01*
X163892857Y-57695238D01*
X163988095Y-57600000D01*
X164083333Y-57552380D01*
X164940476Y-58552380D02*
X164940476Y-57552380D01*
X165511904Y-58552380D01*
X165511904Y-57552380D01*
X165988095Y-58552380D02*
X165988095Y-57552380D01*
X166559523Y-58552380D01*
X166559523Y-57552380D01*
X167559523Y-58552380D02*
X166988095Y-58552380D01*
X167273809Y-58552380D02*
X167273809Y-57552380D01*
X167178571Y-57695238D01*
X167083333Y-57790476D01*
X166988095Y-57838095D01*
G04 #@! TO.C,BZ1*
X151619047Y-56928571D02*
X151761904Y-56976190D01*
X151809523Y-57023809D01*
X151857142Y-57119047D01*
X151857142Y-57261904D01*
X151809523Y-57357142D01*
X151761904Y-57404761D01*
X151666666Y-57452380D01*
X151285714Y-57452380D01*
X151285714Y-56452380D01*
X151619047Y-56452380D01*
X151714285Y-56500000D01*
X151761904Y-56547619D01*
X151809523Y-56642857D01*
X151809523Y-56738095D01*
X151761904Y-56833333D01*
X151714285Y-56880952D01*
X151619047Y-56928571D01*
X151285714Y-56928571D01*
X152190476Y-56452380D02*
X152857142Y-56452380D01*
X152190476Y-57452380D01*
X152857142Y-57452380D01*
X153761904Y-57452380D02*
X153190476Y-57452380D01*
X153476190Y-57452380D02*
X153476190Y-56452380D01*
X153380952Y-56595238D01*
X153285714Y-56690476D01*
X153190476Y-56738095D01*
X151429047Y-65611428D02*
X152190952Y-65611428D01*
X151810000Y-65992380D02*
X151810000Y-65230476D01*
G04 #@! TO.C,D1*
X204511904Y-79202380D02*
X204511904Y-78202380D01*
X204750000Y-78202380D01*
X204892857Y-78250000D01*
X204988095Y-78345238D01*
X205035714Y-78440476D01*
X205083333Y-78630952D01*
X205083333Y-78773809D01*
X205035714Y-78964285D01*
X204988095Y-79059523D01*
X204892857Y-79154761D01*
X204750000Y-79202380D01*
X204511904Y-79202380D01*
X206035714Y-79202380D02*
X205464285Y-79202380D01*
X205750000Y-79202380D02*
X205750000Y-78202380D01*
X205654761Y-78345238D01*
X205559523Y-78440476D01*
X205464285Y-78488095D01*
G04 #@! TO.C,D2*
X204511904Y-99452380D02*
X204511904Y-98452380D01*
X204750000Y-98452380D01*
X204892857Y-98500000D01*
X204988095Y-98595238D01*
X205035714Y-98690476D01*
X205083333Y-98880952D01*
X205083333Y-99023809D01*
X205035714Y-99214285D01*
X204988095Y-99309523D01*
X204892857Y-99404761D01*
X204750000Y-99452380D01*
X204511904Y-99452380D01*
X205464285Y-98547619D02*
X205511904Y-98500000D01*
X205607142Y-98452380D01*
X205845238Y-98452380D01*
X205940476Y-98500000D01*
X205988095Y-98547619D01*
X206035714Y-98642857D01*
X206035714Y-98738095D01*
X205988095Y-98880952D01*
X205416666Y-99452380D01*
X206035714Y-99452380D01*
G04 #@! TO.C,D3*
X204511904Y-89202380D02*
X204511904Y-88202380D01*
X204750000Y-88202380D01*
X204892857Y-88250000D01*
X204988095Y-88345238D01*
X205035714Y-88440476D01*
X205083333Y-88630952D01*
X205083333Y-88773809D01*
X205035714Y-88964285D01*
X204988095Y-89059523D01*
X204892857Y-89154761D01*
X204750000Y-89202380D01*
X204511904Y-89202380D01*
X205416666Y-88202380D02*
X206035714Y-88202380D01*
X205702380Y-88583333D01*
X205845238Y-88583333D01*
X205940476Y-88630952D01*
X205988095Y-88678571D01*
X206035714Y-88773809D01*
X206035714Y-89011904D01*
X205988095Y-89107142D01*
X205940476Y-89154761D01*
X205845238Y-89202380D01*
X205559523Y-89202380D01*
X205464285Y-89154761D01*
X205416666Y-89107142D01*
G04 #@! TO.C,IC1*
X156661309Y-84352380D02*
X156661309Y-83352380D01*
X157708928Y-84257142D02*
X157661309Y-84304761D01*
X157518452Y-84352380D01*
X157423214Y-84352380D01*
X157280357Y-84304761D01*
X157185119Y-84209523D01*
X157137500Y-84114285D01*
X157089880Y-83923809D01*
X157089880Y-83780952D01*
X157137500Y-83590476D01*
X157185119Y-83495238D01*
X157280357Y-83400000D01*
X157423214Y-83352380D01*
X157518452Y-83352380D01*
X157661309Y-83400000D01*
X157708928Y-83447619D01*
X158661309Y-84352380D02*
X158089880Y-84352380D01*
X158375595Y-84352380D02*
X158375595Y-83352380D01*
X158280357Y-83495238D01*
X158185119Y-83590476D01*
X158089880Y-83638095D01*
G04 #@! TO.C,IC2*
X192073809Y-93802380D02*
X192073809Y-92802380D01*
X193121428Y-93707142D02*
X193073809Y-93754761D01*
X192930952Y-93802380D01*
X192835714Y-93802380D01*
X192692857Y-93754761D01*
X192597619Y-93659523D01*
X192550000Y-93564285D01*
X192502380Y-93373809D01*
X192502380Y-93230952D01*
X192550000Y-93040476D01*
X192597619Y-92945238D01*
X192692857Y-92850000D01*
X192835714Y-92802380D01*
X192930952Y-92802380D01*
X193073809Y-92850000D01*
X193121428Y-92897619D01*
X193502380Y-92897619D02*
X193550000Y-92850000D01*
X193645238Y-92802380D01*
X193883333Y-92802380D01*
X193978571Y-92850000D01*
X194026190Y-92897619D01*
X194073809Y-92992857D01*
X194073809Y-93088095D01*
X194026190Y-93230952D01*
X193454761Y-93802380D01*
X194073809Y-93802380D01*
G04 #@! TO.C,L1*
X163333333Y-73202380D02*
X162857142Y-73202380D01*
X162857142Y-72202380D01*
X164190476Y-73202380D02*
X163619047Y-73202380D01*
X163904761Y-73202380D02*
X163904761Y-72202380D01*
X163809523Y-72345238D01*
X163714285Y-72440476D01*
X163619047Y-72488095D01*
G04 #@! TO.C,L2*
X158413333Y-78492380D02*
X157937142Y-78492380D01*
X157937142Y-77492380D01*
X158699047Y-77587619D02*
X158746666Y-77540000D01*
X158841904Y-77492380D01*
X159080000Y-77492380D01*
X159175238Y-77540000D01*
X159222857Y-77587619D01*
X159270476Y-77682857D01*
X159270476Y-77778095D01*
X159222857Y-77920952D01*
X158651428Y-78492380D01*
X159270476Y-78492380D01*
G04 #@! TO.C,R1*
X117183333Y-110552380D02*
X116850000Y-110076190D01*
X116611904Y-110552380D02*
X116611904Y-109552380D01*
X116992857Y-109552380D01*
X117088095Y-109600000D01*
X117135714Y-109647619D01*
X117183333Y-109742857D01*
X117183333Y-109885714D01*
X117135714Y-109980952D01*
X117088095Y-110028571D01*
X116992857Y-110076190D01*
X116611904Y-110076190D01*
X118135714Y-110552380D02*
X117564285Y-110552380D01*
X117850000Y-110552380D02*
X117850000Y-109552380D01*
X117754761Y-109695238D01*
X117659523Y-109790476D01*
X117564285Y-109838095D01*
G04 #@! TO.C,R2*
X117243333Y-105542380D02*
X116910000Y-105066190D01*
X116671904Y-105542380D02*
X116671904Y-104542380D01*
X117052857Y-104542380D01*
X117148095Y-104590000D01*
X117195714Y-104637619D01*
X117243333Y-104732857D01*
X117243333Y-104875714D01*
X117195714Y-104970952D01*
X117148095Y-105018571D01*
X117052857Y-105066190D01*
X116671904Y-105066190D01*
X117624285Y-104637619D02*
X117671904Y-104590000D01*
X117767142Y-104542380D01*
X118005238Y-104542380D01*
X118100476Y-104590000D01*
X118148095Y-104637619D01*
X118195714Y-104732857D01*
X118195714Y-104828095D01*
X118148095Y-104970952D01*
X117576666Y-105542380D01*
X118195714Y-105542380D01*
G04 #@! TO.C,R3*
X129243333Y-110742380D02*
X128910000Y-110266190D01*
X128671904Y-110742380D02*
X128671904Y-109742380D01*
X129052857Y-109742380D01*
X129148095Y-109790000D01*
X129195714Y-109837619D01*
X129243333Y-109932857D01*
X129243333Y-110075714D01*
X129195714Y-110170952D01*
X129148095Y-110218571D01*
X129052857Y-110266190D01*
X128671904Y-110266190D01*
X129576666Y-109742380D02*
X130195714Y-109742380D01*
X129862380Y-110123333D01*
X130005238Y-110123333D01*
X130100476Y-110170952D01*
X130148095Y-110218571D01*
X130195714Y-110313809D01*
X130195714Y-110551904D01*
X130148095Y-110647142D01*
X130100476Y-110694761D01*
X130005238Y-110742380D01*
X129719523Y-110742380D01*
X129624285Y-110694761D01*
X129576666Y-110647142D01*
G04 #@! TO.C,R4*
X129243333Y-105542380D02*
X128910000Y-105066190D01*
X128671904Y-105542380D02*
X128671904Y-104542380D01*
X129052857Y-104542380D01*
X129148095Y-104590000D01*
X129195714Y-104637619D01*
X129243333Y-104732857D01*
X129243333Y-104875714D01*
X129195714Y-104970952D01*
X129148095Y-105018571D01*
X129052857Y-105066190D01*
X128671904Y-105066190D01*
X130100476Y-104875714D02*
X130100476Y-105542380D01*
X129862380Y-104494761D02*
X129624285Y-105209047D01*
X130243333Y-105209047D01*
G04 #@! TO.C,R5*
X141843333Y-110742380D02*
X141510000Y-110266190D01*
X141271904Y-110742380D02*
X141271904Y-109742380D01*
X141652857Y-109742380D01*
X141748095Y-109790000D01*
X141795714Y-109837619D01*
X141843333Y-109932857D01*
X141843333Y-110075714D01*
X141795714Y-110170952D01*
X141748095Y-110218571D01*
X141652857Y-110266190D01*
X141271904Y-110266190D01*
X142748095Y-109742380D02*
X142271904Y-109742380D01*
X142224285Y-110218571D01*
X142271904Y-110170952D01*
X142367142Y-110123333D01*
X142605238Y-110123333D01*
X142700476Y-110170952D01*
X142748095Y-110218571D01*
X142795714Y-110313809D01*
X142795714Y-110551904D01*
X142748095Y-110647142D01*
X142700476Y-110694761D01*
X142605238Y-110742380D01*
X142367142Y-110742380D01*
X142271904Y-110694761D01*
X142224285Y-110647142D01*
G04 #@! TO.C,R6*
X192833333Y-79202380D02*
X192500000Y-78726190D01*
X192261904Y-79202380D02*
X192261904Y-78202380D01*
X192642857Y-78202380D01*
X192738095Y-78250000D01*
X192785714Y-78297619D01*
X192833333Y-78392857D01*
X192833333Y-78535714D01*
X192785714Y-78630952D01*
X192738095Y-78678571D01*
X192642857Y-78726190D01*
X192261904Y-78726190D01*
X193690476Y-78202380D02*
X193500000Y-78202380D01*
X193404761Y-78250000D01*
X193357142Y-78297619D01*
X193261904Y-78440476D01*
X193214285Y-78630952D01*
X193214285Y-79011904D01*
X193261904Y-79107142D01*
X193309523Y-79154761D01*
X193404761Y-79202380D01*
X193595238Y-79202380D01*
X193690476Y-79154761D01*
X193738095Y-79107142D01*
X193785714Y-79011904D01*
X193785714Y-78773809D01*
X193738095Y-78678571D01*
X193690476Y-78630952D01*
X193595238Y-78583333D01*
X193404761Y-78583333D01*
X193309523Y-78630952D01*
X193261904Y-78678571D01*
X193214285Y-78773809D01*
G04 #@! TO.C,R7*
X190233333Y-110802380D02*
X189900000Y-110326190D01*
X189661904Y-110802380D02*
X189661904Y-109802380D01*
X190042857Y-109802380D01*
X190138095Y-109850000D01*
X190185714Y-109897619D01*
X190233333Y-109992857D01*
X190233333Y-110135714D01*
X190185714Y-110230952D01*
X190138095Y-110278571D01*
X190042857Y-110326190D01*
X189661904Y-110326190D01*
X190566666Y-109802380D02*
X191233333Y-109802380D01*
X190804761Y-110802380D01*
G04 #@! TO.C,R8*
X192833333Y-83952380D02*
X192500000Y-83476190D01*
X192261904Y-83952380D02*
X192261904Y-82952380D01*
X192642857Y-82952380D01*
X192738095Y-83000000D01*
X192785714Y-83047619D01*
X192833333Y-83142857D01*
X192833333Y-83285714D01*
X192785714Y-83380952D01*
X192738095Y-83428571D01*
X192642857Y-83476190D01*
X192261904Y-83476190D01*
X193404761Y-83380952D02*
X193309523Y-83333333D01*
X193261904Y-83285714D01*
X193214285Y-83190476D01*
X193214285Y-83142857D01*
X193261904Y-83047619D01*
X193309523Y-83000000D01*
X193404761Y-82952380D01*
X193595238Y-82952380D01*
X193690476Y-83000000D01*
X193738095Y-83047619D01*
X193785714Y-83142857D01*
X193785714Y-83190476D01*
X193738095Y-83285714D01*
X193690476Y-83333333D01*
X193595238Y-83380952D01*
X193404761Y-83380952D01*
X193309523Y-83428571D01*
X193261904Y-83476190D01*
X193214285Y-83571428D01*
X193214285Y-83761904D01*
X193261904Y-83857142D01*
X193309523Y-83904761D01*
X193404761Y-83952380D01*
X193595238Y-83952380D01*
X193690476Y-83904761D01*
X193738095Y-83857142D01*
X193785714Y-83761904D01*
X193785714Y-83571428D01*
X193738095Y-83476190D01*
X193690476Y-83428571D01*
X193595238Y-83380952D01*
G04 #@! TO.C,R9*
X190033333Y-105552380D02*
X189700000Y-105076190D01*
X189461904Y-105552380D02*
X189461904Y-104552380D01*
X189842857Y-104552380D01*
X189938095Y-104600000D01*
X189985714Y-104647619D01*
X190033333Y-104742857D01*
X190033333Y-104885714D01*
X189985714Y-104980952D01*
X189938095Y-105028571D01*
X189842857Y-105076190D01*
X189461904Y-105076190D01*
X190509523Y-105552380D02*
X190700000Y-105552380D01*
X190795238Y-105504761D01*
X190842857Y-105457142D01*
X190938095Y-105314285D01*
X190985714Y-105123809D01*
X190985714Y-104742857D01*
X190938095Y-104647619D01*
X190890476Y-104600000D01*
X190795238Y-104552380D01*
X190604761Y-104552380D01*
X190509523Y-104600000D01*
X190461904Y-104647619D01*
X190414285Y-104742857D01*
X190414285Y-104980952D01*
X190461904Y-105076190D01*
X190509523Y-105123809D01*
X190604761Y-105171428D01*
X190795238Y-105171428D01*
X190890476Y-105123809D01*
X190938095Y-105076190D01*
X190985714Y-104980952D01*
G04 #@! TO.C,R10*
X192857142Y-88952380D02*
X192523809Y-88476190D01*
X192285714Y-88952380D02*
X192285714Y-87952380D01*
X192666666Y-87952380D01*
X192761904Y-88000000D01*
X192809523Y-88047619D01*
X192857142Y-88142857D01*
X192857142Y-88285714D01*
X192809523Y-88380952D01*
X192761904Y-88428571D01*
X192666666Y-88476190D01*
X192285714Y-88476190D01*
X193809523Y-88952380D02*
X193238095Y-88952380D01*
X193523809Y-88952380D02*
X193523809Y-87952380D01*
X193428571Y-88095238D01*
X193333333Y-88190476D01*
X193238095Y-88238095D01*
X194428571Y-87952380D02*
X194523809Y-87952380D01*
X194619047Y-88000000D01*
X194666666Y-88047619D01*
X194714285Y-88142857D01*
X194761904Y-88333333D01*
X194761904Y-88571428D01*
X194714285Y-88761904D01*
X194666666Y-88857142D01*
X194619047Y-88904761D01*
X194523809Y-88952380D01*
X194428571Y-88952380D01*
X194333333Y-88904761D01*
X194285714Y-88857142D01*
X194238095Y-88761904D01*
X194190476Y-88571428D01*
X194190476Y-88333333D01*
X194238095Y-88142857D01*
X194285714Y-88047619D01*
X194333333Y-88000000D01*
X194428571Y-87952380D01*
G04 #@! TO.C,R11*
X177567142Y-105742380D02*
X177233809Y-105266190D01*
X176995714Y-105742380D02*
X176995714Y-104742380D01*
X177376666Y-104742380D01*
X177471904Y-104790000D01*
X177519523Y-104837619D01*
X177567142Y-104932857D01*
X177567142Y-105075714D01*
X177519523Y-105170952D01*
X177471904Y-105218571D01*
X177376666Y-105266190D01*
X176995714Y-105266190D01*
X178519523Y-105742380D02*
X177948095Y-105742380D01*
X178233809Y-105742380D02*
X178233809Y-104742380D01*
X178138571Y-104885238D01*
X178043333Y-104980476D01*
X177948095Y-105028095D01*
X179471904Y-105742380D02*
X178900476Y-105742380D01*
X179186190Y-105742380D02*
X179186190Y-104742380D01*
X179090952Y-104885238D01*
X178995714Y-104980476D01*
X178900476Y-105028095D01*
G04 #@! TO.C,R12*
X131667142Y-78392380D02*
X131333809Y-77916190D01*
X131095714Y-78392380D02*
X131095714Y-77392380D01*
X131476666Y-77392380D01*
X131571904Y-77440000D01*
X131619523Y-77487619D01*
X131667142Y-77582857D01*
X131667142Y-77725714D01*
X131619523Y-77820952D01*
X131571904Y-77868571D01*
X131476666Y-77916190D01*
X131095714Y-77916190D01*
X132619523Y-78392380D02*
X132048095Y-78392380D01*
X132333809Y-78392380D02*
X132333809Y-77392380D01*
X132238571Y-77535238D01*
X132143333Y-77630476D01*
X132048095Y-77678095D01*
X133000476Y-77487619D02*
X133048095Y-77440000D01*
X133143333Y-77392380D01*
X133381428Y-77392380D01*
X133476666Y-77440000D01*
X133524285Y-77487619D01*
X133571904Y-77582857D01*
X133571904Y-77678095D01*
X133524285Y-77820952D01*
X132952857Y-78392380D01*
X133571904Y-78392380D01*
G04 #@! TO.C,R13*
X144167142Y-78392380D02*
X143833809Y-77916190D01*
X143595714Y-78392380D02*
X143595714Y-77392380D01*
X143976666Y-77392380D01*
X144071904Y-77440000D01*
X144119523Y-77487619D01*
X144167142Y-77582857D01*
X144167142Y-77725714D01*
X144119523Y-77820952D01*
X144071904Y-77868571D01*
X143976666Y-77916190D01*
X143595714Y-77916190D01*
X145119523Y-78392380D02*
X144548095Y-78392380D01*
X144833809Y-78392380D02*
X144833809Y-77392380D01*
X144738571Y-77535238D01*
X144643333Y-77630476D01*
X144548095Y-77678095D01*
X145452857Y-77392380D02*
X146071904Y-77392380D01*
X145738571Y-77773333D01*
X145881428Y-77773333D01*
X145976666Y-77820952D01*
X146024285Y-77868571D01*
X146071904Y-77963809D01*
X146071904Y-78201904D01*
X146024285Y-78297142D01*
X145976666Y-78344761D01*
X145881428Y-78392380D01*
X145595714Y-78392380D01*
X145500476Y-78344761D01*
X145452857Y-78297142D01*
G04 #@! TO.C,Y1*
X160551609Y-102845590D02*
X160551609Y-103321780D01*
X160218276Y-102321780D02*
X160551609Y-102845590D01*
X160884942Y-102321780D01*
X161742085Y-103321780D02*
X161170657Y-103321780D01*
X161456371Y-103321780D02*
X161456371Y-102321780D01*
X161361133Y-102464638D01*
X161265895Y-102559876D01*
X161170657Y-102607495D01*
G04 #@! TO.C,J3*
X201276666Y-96452380D02*
X201276666Y-97166666D01*
X201229047Y-97309523D01*
X201133809Y-97404761D01*
X200990952Y-97452380D01*
X200895714Y-97452380D01*
X201657619Y-96452380D02*
X202276666Y-96452380D01*
X201943333Y-96833333D01*
X202086190Y-96833333D01*
X202181428Y-96880952D01*
X202229047Y-96928571D01*
X202276666Y-97023809D01*
X202276666Y-97261904D01*
X202229047Y-97357142D01*
X202181428Y-97404761D01*
X202086190Y-97452380D01*
X201800476Y-97452380D01*
X201705238Y-97404761D01*
X201657619Y-97357142D01*
G04 #@! TO.C,J4*
X201276666Y-106452380D02*
X201276666Y-107166666D01*
X201229047Y-107309523D01*
X201133809Y-107404761D01*
X200990952Y-107452380D01*
X200895714Y-107452380D01*
X202181428Y-106785714D02*
X202181428Y-107452380D01*
X201943333Y-106404761D02*
X201705238Y-107119047D01*
X202324285Y-107119047D01*
G04 #@! TO.C,J5*
X198776666Y-85952380D02*
X198776666Y-86666666D01*
X198729047Y-86809523D01*
X198633809Y-86904761D01*
X198490952Y-86952380D01*
X198395714Y-86952380D01*
X199729047Y-85952380D02*
X199252857Y-85952380D01*
X199205238Y-86428571D01*
X199252857Y-86380952D01*
X199348095Y-86333333D01*
X199586190Y-86333333D01*
X199681428Y-86380952D01*
X199729047Y-86428571D01*
X199776666Y-86523809D01*
X199776666Y-86761904D01*
X199729047Y-86857142D01*
X199681428Y-86904761D01*
X199586190Y-86952380D01*
X199348095Y-86952380D01*
X199252857Y-86904761D01*
X199205238Y-86857142D01*
G04 #@! TO.C,D5*
X179261904Y-67702380D02*
X179261904Y-66702380D01*
X179500000Y-66702380D01*
X179642857Y-66750000D01*
X179738095Y-66845238D01*
X179785714Y-66940476D01*
X179833333Y-67130952D01*
X179833333Y-67273809D01*
X179785714Y-67464285D01*
X179738095Y-67559523D01*
X179642857Y-67654761D01*
X179500000Y-67702380D01*
X179261904Y-67702380D01*
X180738095Y-66702380D02*
X180261904Y-66702380D01*
X180214285Y-67178571D01*
X180261904Y-67130952D01*
X180357142Y-67083333D01*
X180595238Y-67083333D01*
X180690476Y-67130952D01*
X180738095Y-67178571D01*
X180785714Y-67273809D01*
X180785714Y-67511904D01*
X180738095Y-67607142D01*
X180690476Y-67654761D01*
X180595238Y-67702380D01*
X180357142Y-67702380D01*
X180261904Y-67654761D01*
X180214285Y-67607142D01*
G04 #@! TO.C,D6*
X182071904Y-62542380D02*
X182071904Y-61542380D01*
X182310000Y-61542380D01*
X182452857Y-61590000D01*
X182548095Y-61685238D01*
X182595714Y-61780476D01*
X182643333Y-61970952D01*
X182643333Y-62113809D01*
X182595714Y-62304285D01*
X182548095Y-62399523D01*
X182452857Y-62494761D01*
X182310000Y-62542380D01*
X182071904Y-62542380D01*
X183500476Y-61542380D02*
X183310000Y-61542380D01*
X183214761Y-61590000D01*
X183167142Y-61637619D01*
X183071904Y-61780476D01*
X183024285Y-61970952D01*
X183024285Y-62351904D01*
X183071904Y-62447142D01*
X183119523Y-62494761D01*
X183214761Y-62542380D01*
X183405238Y-62542380D01*
X183500476Y-62494761D01*
X183548095Y-62447142D01*
X183595714Y-62351904D01*
X183595714Y-62113809D01*
X183548095Y-62018571D01*
X183500476Y-61970952D01*
X183405238Y-61923333D01*
X183214761Y-61923333D01*
X183119523Y-61970952D01*
X183071904Y-62018571D01*
X183024285Y-62113809D01*
G04 #@! TO.C,J6*
X180966666Y-73002380D02*
X180966666Y-73716666D01*
X180919047Y-73859523D01*
X180823809Y-73954761D01*
X180680952Y-74002380D01*
X180585714Y-74002380D01*
X181871428Y-73002380D02*
X181680952Y-73002380D01*
X181585714Y-73050000D01*
X181538095Y-73097619D01*
X181442857Y-73240476D01*
X181395238Y-73430952D01*
X181395238Y-73811904D01*
X181442857Y-73907142D01*
X181490476Y-73954761D01*
X181585714Y-74002380D01*
X181776190Y-74002380D01*
X181871428Y-73954761D01*
X181919047Y-73907142D01*
X181966666Y-73811904D01*
X181966666Y-73573809D01*
X181919047Y-73478571D01*
X181871428Y-73430952D01*
X181776190Y-73383333D01*
X181585714Y-73383333D01*
X181490476Y-73430952D01*
X181442857Y-73478571D01*
X181395238Y-73573809D01*
G04 #@! TO.C,SW6*
X166566666Y-110754761D02*
X166709523Y-110802380D01*
X166947619Y-110802380D01*
X167042857Y-110754761D01*
X167090476Y-110707142D01*
X167138095Y-110611904D01*
X167138095Y-110516666D01*
X167090476Y-110421428D01*
X167042857Y-110373809D01*
X166947619Y-110326190D01*
X166757142Y-110278571D01*
X166661904Y-110230952D01*
X166614285Y-110183333D01*
X166566666Y-110088095D01*
X166566666Y-109992857D01*
X166614285Y-109897619D01*
X166661904Y-109850000D01*
X166757142Y-109802380D01*
X166995238Y-109802380D01*
X167138095Y-109850000D01*
X167471428Y-109802380D02*
X167709523Y-110802380D01*
X167900000Y-110088095D01*
X168090476Y-110802380D01*
X168328571Y-109802380D01*
X169138095Y-109802380D02*
X168947619Y-109802380D01*
X168852380Y-109850000D01*
X168804761Y-109897619D01*
X168709523Y-110040476D01*
X168661904Y-110230952D01*
X168661904Y-110611904D01*
X168709523Y-110707142D01*
X168757142Y-110754761D01*
X168852380Y-110802380D01*
X169042857Y-110802380D01*
X169138095Y-110754761D01*
X169185714Y-110707142D01*
X169233333Y-110611904D01*
X169233333Y-110373809D01*
X169185714Y-110278571D01*
X169138095Y-110230952D01*
X169042857Y-110183333D01*
X168852380Y-110183333D01*
X168757142Y-110230952D01*
X168709523Y-110278571D01*
X168661904Y-110373809D01*
G04 #@! TO.C,U1*
D19*
X102538857Y-69365428D02*
X102538857Y-70599142D01*
X102611428Y-70744285D01*
X102684000Y-70816857D01*
X102829142Y-70889428D01*
X103119428Y-70889428D01*
X103264571Y-70816857D01*
X103337142Y-70744285D01*
X103409714Y-70599142D01*
X103409714Y-69365428D01*
X104933714Y-70889428D02*
X104062857Y-70889428D01*
X104498285Y-70889428D02*
X104498285Y-69365428D01*
X104353142Y-69583142D01*
X104208000Y-69728285D01*
X104062857Y-69800857D01*
G04 #@! TO.C,J2*
D15*
X101816666Y-61752380D02*
X101816666Y-62466666D01*
X101769047Y-62609523D01*
X101673809Y-62704761D01*
X101530952Y-62752380D01*
X101435714Y-62752380D01*
X102245238Y-61847619D02*
X102292857Y-61800000D01*
X102388095Y-61752380D01*
X102626190Y-61752380D01*
X102721428Y-61800000D01*
X102769047Y-61847619D01*
X102816666Y-61942857D01*
X102816666Y-62038095D01*
X102769047Y-62180952D01*
X102197619Y-62752380D01*
X102816666Y-62752380D01*
G04 #@! TO.C,LCDPot2*
X113798738Y-93105880D02*
X113322547Y-93105880D01*
X113322547Y-92105880D01*
X114703500Y-93010642D02*
X114655880Y-93058261D01*
X114513023Y-93105880D01*
X114417785Y-93105880D01*
X114274928Y-93058261D01*
X114179690Y-92963023D01*
X114132071Y-92867785D01*
X114084452Y-92677309D01*
X114084452Y-92534452D01*
X114132071Y-92343976D01*
X114179690Y-92248738D01*
X114274928Y-92153500D01*
X114417785Y-92105880D01*
X114513023Y-92105880D01*
X114655880Y-92153500D01*
X114703500Y-92201119D01*
X115132071Y-93105880D02*
X115132071Y-92105880D01*
X115370166Y-92105880D01*
X115513023Y-92153500D01*
X115608261Y-92248738D01*
X115655880Y-92343976D01*
X115703500Y-92534452D01*
X115703500Y-92677309D01*
X115655880Y-92867785D01*
X115608261Y-92963023D01*
X115513023Y-93058261D01*
X115370166Y-93105880D01*
X115132071Y-93105880D01*
X116132071Y-93105880D02*
X116132071Y-92105880D01*
X116513023Y-92105880D01*
X116608261Y-92153500D01*
X116655880Y-92201119D01*
X116703500Y-92296357D01*
X116703500Y-92439214D01*
X116655880Y-92534452D01*
X116608261Y-92582071D01*
X116513023Y-92629690D01*
X116132071Y-92629690D01*
X117274928Y-93105880D02*
X117179690Y-93058261D01*
X117132071Y-93010642D01*
X117084452Y-92915404D01*
X117084452Y-92629690D01*
X117132071Y-92534452D01*
X117179690Y-92486833D01*
X117274928Y-92439214D01*
X117417785Y-92439214D01*
X117513023Y-92486833D01*
X117560642Y-92534452D01*
X117608261Y-92629690D01*
X117608261Y-92915404D01*
X117560642Y-93010642D01*
X117513023Y-93058261D01*
X117417785Y-93105880D01*
X117274928Y-93105880D01*
X117893976Y-92439214D02*
X118274928Y-92439214D01*
X118036833Y-92105880D02*
X118036833Y-92963023D01*
X118084452Y-93058261D01*
X118179690Y-93105880D01*
X118274928Y-93105880D01*
X118560642Y-92201119D02*
X118608261Y-92153500D01*
X118703500Y-92105880D01*
X118941595Y-92105880D01*
X119036833Y-92153500D01*
X119084452Y-92201119D01*
X119132071Y-92296357D01*
X119132071Y-92391595D01*
X119084452Y-92534452D01*
X118513023Y-93105880D01*
X119132071Y-93105880D01*
G04 #@! TO.C,DS1*
X133742114Y-70582180D02*
X133742114Y-69582180D01*
X133980209Y-69582180D01*
X134123066Y-69629800D01*
X134218304Y-69725038D01*
X134265923Y-69820276D01*
X134313542Y-70010752D01*
X134313542Y-70153609D01*
X134265923Y-70344085D01*
X134218304Y-70439323D01*
X134123066Y-70534561D01*
X133980209Y-70582180D01*
X133742114Y-70582180D01*
X134694495Y-70534561D02*
X134837352Y-70582180D01*
X135075447Y-70582180D01*
X135170685Y-70534561D01*
X135218304Y-70486942D01*
X135265923Y-70391704D01*
X135265923Y-70296466D01*
X135218304Y-70201228D01*
X135170685Y-70153609D01*
X135075447Y-70105990D01*
X134884971Y-70058371D01*
X134789733Y-70010752D01*
X134742114Y-69963133D01*
X134694495Y-69867895D01*
X134694495Y-69772657D01*
X134742114Y-69677419D01*
X134789733Y-69629800D01*
X134884971Y-69582180D01*
X135123066Y-69582180D01*
X135265923Y-69629800D01*
X136218304Y-70582180D02*
X135646876Y-70582180D01*
X135932590Y-70582180D02*
X135932590Y-69582180D01*
X135837352Y-69725038D01*
X135742114Y-69820276D01*
X135646876Y-69867895D01*
G04 #@! TO.C,J7*
X172016666Y-77952380D02*
X172016666Y-78666666D01*
X171969047Y-78809523D01*
X171873809Y-78904761D01*
X171730952Y-78952380D01*
X171635714Y-78952380D01*
X172397619Y-77952380D02*
X173064285Y-77952380D01*
X172635714Y-78952380D01*
G04 #@! TO.C,J9*
X193849666Y-67333880D02*
X193849666Y-68048166D01*
X193802047Y-68191023D01*
X193706809Y-68286261D01*
X193563952Y-68333880D01*
X193468714Y-68333880D01*
X194373476Y-68333880D02*
X194563952Y-68333880D01*
X194659190Y-68286261D01*
X194706809Y-68238642D01*
X194802047Y-68095785D01*
X194849666Y-67905309D01*
X194849666Y-67524357D01*
X194802047Y-67429119D01*
X194754428Y-67381500D01*
X194659190Y-67333880D01*
X194468714Y-67333880D01*
X194373476Y-67381500D01*
X194325857Y-67429119D01*
X194278238Y-67524357D01*
X194278238Y-67762452D01*
X194325857Y-67857690D01*
X194373476Y-67905309D01*
X194468714Y-67952928D01*
X194659190Y-67952928D01*
X194754428Y-67905309D01*
X194802047Y-67857690D01*
X194849666Y-67762452D01*
G04 #@! TO.C,U2*
D19*
X102788857Y-82265428D02*
X102788857Y-83499142D01*
X102861428Y-83644285D01*
X102934000Y-83716857D01*
X103079142Y-83789428D01*
X103369428Y-83789428D01*
X103514571Y-83716857D01*
X103587142Y-83644285D01*
X103659714Y-83499142D01*
X103659714Y-82265428D01*
X104312857Y-82410571D02*
X104385428Y-82338000D01*
X104530571Y-82265428D01*
X104893428Y-82265428D01*
X105038571Y-82338000D01*
X105111142Y-82410571D01*
X105183714Y-82555714D01*
X105183714Y-82700857D01*
X105111142Y-82918571D01*
X104240285Y-83789428D01*
X105183714Y-83789428D01*
G04 #@! TO.C,J1*
D15*
X207887666Y-66346380D02*
X207887666Y-67060666D01*
X207840047Y-67203523D01*
X207744809Y-67298761D01*
X207601952Y-67346380D01*
X207506714Y-67346380D01*
X208887666Y-67346380D02*
X208316238Y-67346380D01*
X208601952Y-67346380D02*
X208601952Y-66346380D01*
X208506714Y-66489238D01*
X208411476Y-66584476D01*
X208316238Y-66632095D01*
G04 #@! TO.C,C14*
X125357142Y-57857142D02*
X125309523Y-57904761D01*
X125166666Y-57952380D01*
X125071428Y-57952380D01*
X124928571Y-57904761D01*
X124833333Y-57809523D01*
X124785714Y-57714285D01*
X124738095Y-57523809D01*
X124738095Y-57380952D01*
X124785714Y-57190476D01*
X124833333Y-57095238D01*
X124928571Y-57000000D01*
X125071428Y-56952380D01*
X125166666Y-56952380D01*
X125309523Y-57000000D01*
X125357142Y-57047619D01*
X126309523Y-57952380D02*
X125738095Y-57952380D01*
X126023809Y-57952380D02*
X126023809Y-56952380D01*
X125928571Y-57095238D01*
X125833333Y-57190476D01*
X125738095Y-57238095D01*
X127166666Y-57285714D02*
X127166666Y-57952380D01*
X126928571Y-56904761D02*
X126690476Y-57619047D01*
X127309523Y-57619047D01*
G04 #@! TO.C,C16*
X135857142Y-57857142D02*
X135809523Y-57904761D01*
X135666666Y-57952380D01*
X135571428Y-57952380D01*
X135428571Y-57904761D01*
X135333333Y-57809523D01*
X135285714Y-57714285D01*
X135238095Y-57523809D01*
X135238095Y-57380952D01*
X135285714Y-57190476D01*
X135333333Y-57095238D01*
X135428571Y-57000000D01*
X135571428Y-56952380D01*
X135666666Y-56952380D01*
X135809523Y-57000000D01*
X135857142Y-57047619D01*
X136809523Y-57952380D02*
X136238095Y-57952380D01*
X136523809Y-57952380D02*
X136523809Y-56952380D01*
X136428571Y-57095238D01*
X136333333Y-57190476D01*
X136238095Y-57238095D01*
X137666666Y-56952380D02*
X137476190Y-56952380D01*
X137380952Y-57000000D01*
X137333333Y-57047619D01*
X137238095Y-57190476D01*
X137190476Y-57380952D01*
X137190476Y-57761904D01*
X137238095Y-57857142D01*
X137285714Y-57904761D01*
X137380952Y-57952380D01*
X137571428Y-57952380D01*
X137666666Y-57904761D01*
X137714285Y-57857142D01*
X137761904Y-57761904D01*
X137761904Y-57523809D01*
X137714285Y-57428571D01*
X137666666Y-57380952D01*
X137571428Y-57333333D01*
X137380952Y-57333333D01*
X137285714Y-57380952D01*
X137238095Y-57428571D01*
X137190476Y-57523809D01*
G04 #@! TO.C,R14*
X141367142Y-105542380D02*
X141033809Y-105066190D01*
X140795714Y-105542380D02*
X140795714Y-104542380D01*
X141176666Y-104542380D01*
X141271904Y-104590000D01*
X141319523Y-104637619D01*
X141367142Y-104732857D01*
X141367142Y-104875714D01*
X141319523Y-104970952D01*
X141271904Y-105018571D01*
X141176666Y-105066190D01*
X140795714Y-105066190D01*
X142319523Y-105542380D02*
X141748095Y-105542380D01*
X142033809Y-105542380D02*
X142033809Y-104542380D01*
X141938571Y-104685238D01*
X141843333Y-104780476D01*
X141748095Y-104828095D01*
X143176666Y-104875714D02*
X143176666Y-105542380D01*
X142938571Y-104494761D02*
X142700476Y-105209047D01*
X143319523Y-105209047D01*
G04 #@! TO.C,R15*
X155367142Y-110742380D02*
X155033809Y-110266190D01*
X154795714Y-110742380D02*
X154795714Y-109742380D01*
X155176666Y-109742380D01*
X155271904Y-109790000D01*
X155319523Y-109837619D01*
X155367142Y-109932857D01*
X155367142Y-110075714D01*
X155319523Y-110170952D01*
X155271904Y-110218571D01*
X155176666Y-110266190D01*
X154795714Y-110266190D01*
X156319523Y-110742380D02*
X155748095Y-110742380D01*
X156033809Y-110742380D02*
X156033809Y-109742380D01*
X155938571Y-109885238D01*
X155843333Y-109980476D01*
X155748095Y-110028095D01*
X157224285Y-109742380D02*
X156748095Y-109742380D01*
X156700476Y-110218571D01*
X156748095Y-110170952D01*
X156843333Y-110123333D01*
X157081428Y-110123333D01*
X157176666Y-110170952D01*
X157224285Y-110218571D01*
X157271904Y-110313809D01*
X157271904Y-110551904D01*
X157224285Y-110647142D01*
X157176666Y-110694761D01*
X157081428Y-110742380D01*
X156843333Y-110742380D01*
X156748095Y-110694761D01*
X156700476Y-110647142D01*
G04 #@! TO.C,R16*
X177757142Y-110802380D02*
X177423809Y-110326190D01*
X177185714Y-110802380D02*
X177185714Y-109802380D01*
X177566666Y-109802380D01*
X177661904Y-109850000D01*
X177709523Y-109897619D01*
X177757142Y-109992857D01*
X177757142Y-110135714D01*
X177709523Y-110230952D01*
X177661904Y-110278571D01*
X177566666Y-110326190D01*
X177185714Y-110326190D01*
X178709523Y-110802380D02*
X178138095Y-110802380D01*
X178423809Y-110802380D02*
X178423809Y-109802380D01*
X178328571Y-109945238D01*
X178233333Y-110040476D01*
X178138095Y-110088095D01*
X179566666Y-109802380D02*
X179376190Y-109802380D01*
X179280952Y-109850000D01*
X179233333Y-109897619D01*
X179138095Y-110040476D01*
X179090476Y-110230952D01*
X179090476Y-110611904D01*
X179138095Y-110707142D01*
X179185714Y-110754761D01*
X179280952Y-110802380D01*
X179471428Y-110802380D01*
X179566666Y-110754761D01*
X179614285Y-110707142D01*
X179661904Y-110611904D01*
X179661904Y-110373809D01*
X179614285Y-110278571D01*
X179566666Y-110230952D01*
X179471428Y-110183333D01*
X179280952Y-110183333D01*
X179185714Y-110230952D01*
X179138095Y-110278571D01*
X179090476Y-110373809D01*
G04 #@! TO.C,SpeedPot1*
X100958095Y-96154761D02*
X101100952Y-96202380D01*
X101339047Y-96202380D01*
X101434285Y-96154761D01*
X101481904Y-96107142D01*
X101529523Y-96011904D01*
X101529523Y-95916666D01*
X101481904Y-95821428D01*
X101434285Y-95773809D01*
X101339047Y-95726190D01*
X101148571Y-95678571D01*
X101053333Y-95630952D01*
X101005714Y-95583333D01*
X100958095Y-95488095D01*
X100958095Y-95392857D01*
X101005714Y-95297619D01*
X101053333Y-95250000D01*
X101148571Y-95202380D01*
X101386666Y-95202380D01*
X101529523Y-95250000D01*
X101958095Y-95535714D02*
X101958095Y-96535714D01*
X101958095Y-95583333D02*
X102053333Y-95535714D01*
X102243809Y-95535714D01*
X102339047Y-95583333D01*
X102386666Y-95630952D01*
X102434285Y-95726190D01*
X102434285Y-96011904D01*
X102386666Y-96107142D01*
X102339047Y-96154761D01*
X102243809Y-96202380D01*
X102053333Y-96202380D01*
X101958095Y-96154761D01*
X103243809Y-96154761D02*
X103148571Y-96202380D01*
X102958095Y-96202380D01*
X102862857Y-96154761D01*
X102815238Y-96059523D01*
X102815238Y-95678571D01*
X102862857Y-95583333D01*
X102958095Y-95535714D01*
X103148571Y-95535714D01*
X103243809Y-95583333D01*
X103291428Y-95678571D01*
X103291428Y-95773809D01*
X102815238Y-95869047D01*
X104100952Y-96154761D02*
X104005714Y-96202380D01*
X103815238Y-96202380D01*
X103720000Y-96154761D01*
X103672380Y-96059523D01*
X103672380Y-95678571D01*
X103720000Y-95583333D01*
X103815238Y-95535714D01*
X104005714Y-95535714D01*
X104100952Y-95583333D01*
X104148571Y-95678571D01*
X104148571Y-95773809D01*
X103672380Y-95869047D01*
X105005714Y-96202380D02*
X105005714Y-95202380D01*
X105005714Y-96154761D02*
X104910476Y-96202380D01*
X104720000Y-96202380D01*
X104624761Y-96154761D01*
X104577142Y-96107142D01*
X104529523Y-96011904D01*
X104529523Y-95726190D01*
X104577142Y-95630952D01*
X104624761Y-95583333D01*
X104720000Y-95535714D01*
X104910476Y-95535714D01*
X105005714Y-95583333D01*
X105481904Y-96202380D02*
X105481904Y-95202380D01*
X105862857Y-95202380D01*
X105958095Y-95250000D01*
X106005714Y-95297619D01*
X106053333Y-95392857D01*
X106053333Y-95535714D01*
X106005714Y-95630952D01*
X105958095Y-95678571D01*
X105862857Y-95726190D01*
X105481904Y-95726190D01*
X106624761Y-96202380D02*
X106529523Y-96154761D01*
X106481904Y-96107142D01*
X106434285Y-96011904D01*
X106434285Y-95726190D01*
X106481904Y-95630952D01*
X106529523Y-95583333D01*
X106624761Y-95535714D01*
X106767619Y-95535714D01*
X106862857Y-95583333D01*
X106910476Y-95630952D01*
X106958095Y-95726190D01*
X106958095Y-96011904D01*
X106910476Y-96107142D01*
X106862857Y-96154761D01*
X106767619Y-96202380D01*
X106624761Y-96202380D01*
X107243809Y-95535714D02*
X107624761Y-95535714D01*
X107386666Y-95202380D02*
X107386666Y-96059523D01*
X107434285Y-96154761D01*
X107529523Y-96202380D01*
X107624761Y-96202380D01*
X108481904Y-96202380D02*
X107910476Y-96202380D01*
X108196190Y-96202380D02*
X108196190Y-95202380D01*
X108100952Y-95345238D01*
X108005714Y-95440476D01*
X107910476Y-95488095D01*
G04 #@! TO.C,D4*
X204511904Y-109452380D02*
X204511904Y-108452380D01*
X204750000Y-108452380D01*
X204892857Y-108500000D01*
X204988095Y-108595238D01*
X205035714Y-108690476D01*
X205083333Y-108880952D01*
X205083333Y-109023809D01*
X205035714Y-109214285D01*
X204988095Y-109309523D01*
X204892857Y-109404761D01*
X204750000Y-109452380D01*
X204511904Y-109452380D01*
X205940476Y-108785714D02*
X205940476Y-109452380D01*
X205702380Y-108404761D02*
X205464285Y-109119047D01*
X206083333Y-109119047D01*
G04 #@! TO.C,C3*
X200583333Y-78857142D02*
X200535714Y-78904761D01*
X200392857Y-78952380D01*
X200297619Y-78952380D01*
X200154761Y-78904761D01*
X200059523Y-78809523D01*
X200011904Y-78714285D01*
X199964285Y-78523809D01*
X199964285Y-78380952D01*
X200011904Y-78190476D01*
X200059523Y-78095238D01*
X200154761Y-78000000D01*
X200297619Y-77952380D01*
X200392857Y-77952380D01*
X200535714Y-78000000D01*
X200583333Y-78047619D01*
X200916666Y-77952380D02*
X201535714Y-77952380D01*
X201202380Y-78333333D01*
X201345238Y-78333333D01*
X201440476Y-78380952D01*
X201488095Y-78428571D01*
X201535714Y-78523809D01*
X201535714Y-78761904D01*
X201488095Y-78857142D01*
X201440476Y-78904761D01*
X201345238Y-78952380D01*
X201059523Y-78952380D01*
X200964285Y-78904761D01*
X200916666Y-78857142D01*
G04 #@! TO.C,C2*
X200583333Y-95357142D02*
X200535714Y-95404761D01*
X200392857Y-95452380D01*
X200297619Y-95452380D01*
X200154761Y-95404761D01*
X200059523Y-95309523D01*
X200011904Y-95214285D01*
X199964285Y-95023809D01*
X199964285Y-94880952D01*
X200011904Y-94690476D01*
X200059523Y-94595238D01*
X200154761Y-94500000D01*
X200297619Y-94452380D01*
X200392857Y-94452380D01*
X200535714Y-94500000D01*
X200583333Y-94547619D01*
X200964285Y-94547619D02*
X201011904Y-94500000D01*
X201107142Y-94452380D01*
X201345238Y-94452380D01*
X201440476Y-94500000D01*
X201488095Y-94547619D01*
X201535714Y-94642857D01*
X201535714Y-94738095D01*
X201488095Y-94880952D01*
X200916666Y-95452380D01*
X201535714Y-95452380D01*
G04 #@! TO.C,C10*
X169207142Y-104207142D02*
X169159523Y-104254761D01*
X169016666Y-104302380D01*
X168921428Y-104302380D01*
X168778571Y-104254761D01*
X168683333Y-104159523D01*
X168635714Y-104064285D01*
X168588095Y-103873809D01*
X168588095Y-103730952D01*
X168635714Y-103540476D01*
X168683333Y-103445238D01*
X168778571Y-103350000D01*
X168921428Y-103302380D01*
X169016666Y-103302380D01*
X169159523Y-103350000D01*
X169207142Y-103397619D01*
X170159523Y-104302380D02*
X169588095Y-104302380D01*
X169873809Y-104302380D02*
X169873809Y-103302380D01*
X169778571Y-103445238D01*
X169683333Y-103540476D01*
X169588095Y-103588095D01*
X170778571Y-103302380D02*
X170873809Y-103302380D01*
X170969047Y-103350000D01*
X171016666Y-103397619D01*
X171064285Y-103492857D01*
X171111904Y-103683333D01*
X171111904Y-103921428D01*
X171064285Y-104111904D01*
X171016666Y-104207142D01*
X170969047Y-104254761D01*
X170873809Y-104302380D01*
X170778571Y-104302380D01*
X170683333Y-104254761D01*
X170635714Y-104207142D01*
X170588095Y-104111904D01*
X170540476Y-103921428D01*
X170540476Y-103683333D01*
X170588095Y-103492857D01*
X170635714Y-103397619D01*
X170683333Y-103350000D01*
X170778571Y-103302380D01*
G04 #@! TO.C,C11*
X150557142Y-103957142D02*
X150509523Y-104004761D01*
X150366666Y-104052380D01*
X150271428Y-104052380D01*
X150128571Y-104004761D01*
X150033333Y-103909523D01*
X149985714Y-103814285D01*
X149938095Y-103623809D01*
X149938095Y-103480952D01*
X149985714Y-103290476D01*
X150033333Y-103195238D01*
X150128571Y-103100000D01*
X150271428Y-103052380D01*
X150366666Y-103052380D01*
X150509523Y-103100000D01*
X150557142Y-103147619D01*
X151509523Y-104052380D02*
X150938095Y-104052380D01*
X151223809Y-104052380D02*
X151223809Y-103052380D01*
X151128571Y-103195238D01*
X151033333Y-103290476D01*
X150938095Y-103338095D01*
X152461904Y-104052380D02*
X151890476Y-104052380D01*
X152176190Y-104052380D02*
X152176190Y-103052380D01*
X152080952Y-103195238D01*
X151985714Y-103290476D01*
X151890476Y-103338095D01*
G04 #@! TO.C,C1*
X117983333Y-84607142D02*
X117935714Y-84654761D01*
X117792857Y-84702380D01*
X117697619Y-84702380D01*
X117554761Y-84654761D01*
X117459523Y-84559523D01*
X117411904Y-84464285D01*
X117364285Y-84273809D01*
X117364285Y-84130952D01*
X117411904Y-83940476D01*
X117459523Y-83845238D01*
X117554761Y-83750000D01*
X117697619Y-83702380D01*
X117792857Y-83702380D01*
X117935714Y-83750000D01*
X117983333Y-83797619D01*
X118935714Y-84702380D02*
X118364285Y-84702380D01*
X118650000Y-84702380D02*
X118650000Y-83702380D01*
X118554761Y-83845238D01*
X118459523Y-83940476D01*
X118364285Y-83988095D01*
G04 #@! TO.C,C12*
X117157142Y-77707142D02*
X117109523Y-77754761D01*
X116966666Y-77802380D01*
X116871428Y-77802380D01*
X116728571Y-77754761D01*
X116633333Y-77659523D01*
X116585714Y-77564285D01*
X116538095Y-77373809D01*
X116538095Y-77230952D01*
X116585714Y-77040476D01*
X116633333Y-76945238D01*
X116728571Y-76850000D01*
X116871428Y-76802380D01*
X116966666Y-76802380D01*
X117109523Y-76850000D01*
X117157142Y-76897619D01*
X118109523Y-77802380D02*
X117538095Y-77802380D01*
X117823809Y-77802380D02*
X117823809Y-76802380D01*
X117728571Y-76945238D01*
X117633333Y-77040476D01*
X117538095Y-77088095D01*
X118490476Y-76897619D02*
X118538095Y-76850000D01*
X118633333Y-76802380D01*
X118871428Y-76802380D01*
X118966666Y-76850000D01*
X119014285Y-76897619D01*
X119061904Y-76992857D01*
X119061904Y-77088095D01*
X119014285Y-77230952D01*
X118442857Y-77802380D01*
X119061904Y-77802380D01*
G04 #@! TO.C,C13*
X110657142Y-75807142D02*
X110609523Y-75854761D01*
X110466666Y-75902380D01*
X110371428Y-75902380D01*
X110228571Y-75854761D01*
X110133333Y-75759523D01*
X110085714Y-75664285D01*
X110038095Y-75473809D01*
X110038095Y-75330952D01*
X110085714Y-75140476D01*
X110133333Y-75045238D01*
X110228571Y-74950000D01*
X110371428Y-74902380D01*
X110466666Y-74902380D01*
X110609523Y-74950000D01*
X110657142Y-74997619D01*
X111609523Y-75902380D02*
X111038095Y-75902380D01*
X111323809Y-75902380D02*
X111323809Y-74902380D01*
X111228571Y-75045238D01*
X111133333Y-75140476D01*
X111038095Y-75188095D01*
X111942857Y-74902380D02*
X112561904Y-74902380D01*
X112228571Y-75283333D01*
X112371428Y-75283333D01*
X112466666Y-75330952D01*
X112514285Y-75378571D01*
X112561904Y-75473809D01*
X112561904Y-75711904D01*
X112514285Y-75807142D01*
X112466666Y-75854761D01*
X112371428Y-75902380D01*
X112085714Y-75902380D01*
X111990476Y-75854761D01*
X111942857Y-75807142D01*
G04 #@! TO.C,C15*
X110857142Y-84357142D02*
X110809523Y-84404761D01*
X110666666Y-84452380D01*
X110571428Y-84452380D01*
X110428571Y-84404761D01*
X110333333Y-84309523D01*
X110285714Y-84214285D01*
X110238095Y-84023809D01*
X110238095Y-83880952D01*
X110285714Y-83690476D01*
X110333333Y-83595238D01*
X110428571Y-83500000D01*
X110571428Y-83452380D01*
X110666666Y-83452380D01*
X110809523Y-83500000D01*
X110857142Y-83547619D01*
X111809523Y-84452380D02*
X111238095Y-84452380D01*
X111523809Y-84452380D02*
X111523809Y-83452380D01*
X111428571Y-83595238D01*
X111333333Y-83690476D01*
X111238095Y-83738095D01*
X112714285Y-83452380D02*
X112238095Y-83452380D01*
X112190476Y-83928571D01*
X112238095Y-83880952D01*
X112333333Y-83833333D01*
X112571428Y-83833333D01*
X112666666Y-83880952D01*
X112714285Y-83928571D01*
X112761904Y-84023809D01*
X112761904Y-84261904D01*
X112714285Y-84357142D01*
X112666666Y-84404761D01*
X112571428Y-84452380D01*
X112333333Y-84452380D01*
X112238095Y-84404761D01*
X112190476Y-84357142D01*
G04 #@! TO.C,C4*
X199033333Y-105557142D02*
X198985714Y-105604761D01*
X198842857Y-105652380D01*
X198747619Y-105652380D01*
X198604761Y-105604761D01*
X198509523Y-105509523D01*
X198461904Y-105414285D01*
X198414285Y-105223809D01*
X198414285Y-105080952D01*
X198461904Y-104890476D01*
X198509523Y-104795238D01*
X198604761Y-104700000D01*
X198747619Y-104652380D01*
X198842857Y-104652380D01*
X198985714Y-104700000D01*
X199033333Y-104747619D01*
X199890476Y-104985714D02*
X199890476Y-105652380D01*
X199652380Y-104604761D02*
X199414285Y-105319047D01*
X200033333Y-105319047D01*
G04 #@! TO.C,C5*
X198903333Y-110417142D02*
X198855714Y-110464761D01*
X198712857Y-110512380D01*
X198617619Y-110512380D01*
X198474761Y-110464761D01*
X198379523Y-110369523D01*
X198331904Y-110274285D01*
X198284285Y-110083809D01*
X198284285Y-109940952D01*
X198331904Y-109750476D01*
X198379523Y-109655238D01*
X198474761Y-109560000D01*
X198617619Y-109512380D01*
X198712857Y-109512380D01*
X198855714Y-109560000D01*
X198903333Y-109607619D01*
X199808095Y-109512380D02*
X199331904Y-109512380D01*
X199284285Y-109988571D01*
X199331904Y-109940952D01*
X199427142Y-109893333D01*
X199665238Y-109893333D01*
X199760476Y-109940952D01*
X199808095Y-109988571D01*
X199855714Y-110083809D01*
X199855714Y-110321904D01*
X199808095Y-110417142D01*
X199760476Y-110464761D01*
X199665238Y-110512380D01*
X199427142Y-110512380D01*
X199331904Y-110464761D01*
X199284285Y-110417142D01*
G04 #@! TO.C,J8*
X125416666Y-81952380D02*
X125416666Y-82666666D01*
X125369047Y-82809523D01*
X125273809Y-82904761D01*
X125130952Y-82952380D01*
X125035714Y-82952380D01*
X126035714Y-82380952D02*
X125940476Y-82333333D01*
X125892857Y-82285714D01*
X125845238Y-82190476D01*
X125845238Y-82142857D01*
X125892857Y-82047619D01*
X125940476Y-82000000D01*
X126035714Y-81952380D01*
X126226190Y-81952380D01*
X126321428Y-82000000D01*
X126369047Y-82047619D01*
X126416666Y-82142857D01*
X126416666Y-82190476D01*
X126369047Y-82285714D01*
X126321428Y-82333333D01*
X126226190Y-82380952D01*
X126035714Y-82380952D01*
X125940476Y-82428571D01*
X125892857Y-82476190D01*
X125845238Y-82571428D01*
X125845238Y-82761904D01*
X125892857Y-82857142D01*
X125940476Y-82904761D01*
X126035714Y-82952380D01*
X126226190Y-82952380D01*
X126321428Y-82904761D01*
X126369047Y-82857142D01*
X126416666Y-82761904D01*
X126416666Y-82571428D01*
X126369047Y-82476190D01*
X126321428Y-82428571D01*
X126226190Y-82380952D01*
G04 #@! TO.C,SW1*
X110666666Y-125904761D02*
X110809523Y-125952380D01*
X111047619Y-125952380D01*
X111142857Y-125904761D01*
X111190476Y-125857142D01*
X111238095Y-125761904D01*
X111238095Y-125666666D01*
X111190476Y-125571428D01*
X111142857Y-125523809D01*
X111047619Y-125476190D01*
X110857142Y-125428571D01*
X110761904Y-125380952D01*
X110714285Y-125333333D01*
X110666666Y-125238095D01*
X110666666Y-125142857D01*
X110714285Y-125047619D01*
X110761904Y-125000000D01*
X110857142Y-124952380D01*
X111095238Y-124952380D01*
X111238095Y-125000000D01*
X111571428Y-124952380D02*
X111809523Y-125952380D01*
X112000000Y-125238095D01*
X112190476Y-125952380D01*
X112428571Y-124952380D01*
X113333333Y-125952380D02*
X112761904Y-125952380D01*
X113047619Y-125952380D02*
X113047619Y-124952380D01*
X112952380Y-125095238D01*
X112857142Y-125190476D01*
X112761904Y-125238095D01*
G04 #@! TO.C,SW2*
X123616666Y-125904761D02*
X123759523Y-125952380D01*
X123997619Y-125952380D01*
X124092857Y-125904761D01*
X124140476Y-125857142D01*
X124188095Y-125761904D01*
X124188095Y-125666666D01*
X124140476Y-125571428D01*
X124092857Y-125523809D01*
X123997619Y-125476190D01*
X123807142Y-125428571D01*
X123711904Y-125380952D01*
X123664285Y-125333333D01*
X123616666Y-125238095D01*
X123616666Y-125142857D01*
X123664285Y-125047619D01*
X123711904Y-125000000D01*
X123807142Y-124952380D01*
X124045238Y-124952380D01*
X124188095Y-125000000D01*
X124521428Y-124952380D02*
X124759523Y-125952380D01*
X124950000Y-125238095D01*
X125140476Y-125952380D01*
X125378571Y-124952380D01*
X125711904Y-125047619D02*
X125759523Y-125000000D01*
X125854761Y-124952380D01*
X126092857Y-124952380D01*
X126188095Y-125000000D01*
X126235714Y-125047619D01*
X126283333Y-125142857D01*
X126283333Y-125238095D01*
X126235714Y-125380952D01*
X125664285Y-125952380D01*
X126283333Y-125952380D01*
G04 #@! TO.C,SW3*
X136316666Y-126004761D02*
X136459523Y-126052380D01*
X136697619Y-126052380D01*
X136792857Y-126004761D01*
X136840476Y-125957142D01*
X136888095Y-125861904D01*
X136888095Y-125766666D01*
X136840476Y-125671428D01*
X136792857Y-125623809D01*
X136697619Y-125576190D01*
X136507142Y-125528571D01*
X136411904Y-125480952D01*
X136364285Y-125433333D01*
X136316666Y-125338095D01*
X136316666Y-125242857D01*
X136364285Y-125147619D01*
X136411904Y-125100000D01*
X136507142Y-125052380D01*
X136745238Y-125052380D01*
X136888095Y-125100000D01*
X137221428Y-125052380D02*
X137459523Y-126052380D01*
X137650000Y-125338095D01*
X137840476Y-126052380D01*
X138078571Y-125052380D01*
X138364285Y-125052380D02*
X138983333Y-125052380D01*
X138650000Y-125433333D01*
X138792857Y-125433333D01*
X138888095Y-125480952D01*
X138935714Y-125528571D01*
X138983333Y-125623809D01*
X138983333Y-125861904D01*
X138935714Y-125957142D01*
X138888095Y-126004761D01*
X138792857Y-126052380D01*
X138507142Y-126052380D01*
X138411904Y-126004761D01*
X138364285Y-125957142D01*
G04 #@! TO.C,SW4*
X149266666Y-126004761D02*
X149409523Y-126052380D01*
X149647619Y-126052380D01*
X149742857Y-126004761D01*
X149790476Y-125957142D01*
X149838095Y-125861904D01*
X149838095Y-125766666D01*
X149790476Y-125671428D01*
X149742857Y-125623809D01*
X149647619Y-125576190D01*
X149457142Y-125528571D01*
X149361904Y-125480952D01*
X149314285Y-125433333D01*
X149266666Y-125338095D01*
X149266666Y-125242857D01*
X149314285Y-125147619D01*
X149361904Y-125100000D01*
X149457142Y-125052380D01*
X149695238Y-125052380D01*
X149838095Y-125100000D01*
X150171428Y-125052380D02*
X150409523Y-126052380D01*
X150600000Y-125338095D01*
X150790476Y-126052380D01*
X151028571Y-125052380D01*
X151838095Y-125385714D02*
X151838095Y-126052380D01*
X151600000Y-125004761D02*
X151361904Y-125719047D01*
X151980952Y-125719047D01*
G04 #@! TO.C,SW5*
X161216666Y-126104761D02*
X161359523Y-126152380D01*
X161597619Y-126152380D01*
X161692857Y-126104761D01*
X161740476Y-126057142D01*
X161788095Y-125961904D01*
X161788095Y-125866666D01*
X161740476Y-125771428D01*
X161692857Y-125723809D01*
X161597619Y-125676190D01*
X161407142Y-125628571D01*
X161311904Y-125580952D01*
X161264285Y-125533333D01*
X161216666Y-125438095D01*
X161216666Y-125342857D01*
X161264285Y-125247619D01*
X161311904Y-125200000D01*
X161407142Y-125152380D01*
X161645238Y-125152380D01*
X161788095Y-125200000D01*
X162121428Y-125152380D02*
X162359523Y-126152380D01*
X162550000Y-125438095D01*
X162740476Y-126152380D01*
X162978571Y-125152380D01*
X163835714Y-125152380D02*
X163359523Y-125152380D01*
X163311904Y-125628571D01*
X163359523Y-125580952D01*
X163454761Y-125533333D01*
X163692857Y-125533333D01*
X163788095Y-125580952D01*
X163835714Y-125628571D01*
X163883333Y-125723809D01*
X163883333Y-125961904D01*
X163835714Y-126057142D01*
X163788095Y-126104761D01*
X163692857Y-126152380D01*
X163454761Y-126152380D01*
X163359523Y-126104761D01*
X163311904Y-126057142D01*
G04 #@! TO.C,SW7*
X173216666Y-126054761D02*
X173359523Y-126102380D01*
X173597619Y-126102380D01*
X173692857Y-126054761D01*
X173740476Y-126007142D01*
X173788095Y-125911904D01*
X173788095Y-125816666D01*
X173740476Y-125721428D01*
X173692857Y-125673809D01*
X173597619Y-125626190D01*
X173407142Y-125578571D01*
X173311904Y-125530952D01*
X173264285Y-125483333D01*
X173216666Y-125388095D01*
X173216666Y-125292857D01*
X173264285Y-125197619D01*
X173311904Y-125150000D01*
X173407142Y-125102380D01*
X173645238Y-125102380D01*
X173788095Y-125150000D01*
X174121428Y-125102380D02*
X174359523Y-126102380D01*
X174550000Y-125388095D01*
X174740476Y-126102380D01*
X174978571Y-125102380D01*
X175264285Y-125102380D02*
X175930952Y-125102380D01*
X175502380Y-126102380D01*
G04 #@! TO.C,SW8*
X185166666Y-126054761D02*
X185309523Y-126102380D01*
X185547619Y-126102380D01*
X185642857Y-126054761D01*
X185690476Y-126007142D01*
X185738095Y-125911904D01*
X185738095Y-125816666D01*
X185690476Y-125721428D01*
X185642857Y-125673809D01*
X185547619Y-125626190D01*
X185357142Y-125578571D01*
X185261904Y-125530952D01*
X185214285Y-125483333D01*
X185166666Y-125388095D01*
X185166666Y-125292857D01*
X185214285Y-125197619D01*
X185261904Y-125150000D01*
X185357142Y-125102380D01*
X185595238Y-125102380D01*
X185738095Y-125150000D01*
X186071428Y-125102380D02*
X186309523Y-126102380D01*
X186500000Y-125388095D01*
X186690476Y-126102380D01*
X186928571Y-125102380D01*
X187452380Y-125530952D02*
X187357142Y-125483333D01*
X187309523Y-125435714D01*
X187261904Y-125340476D01*
X187261904Y-125292857D01*
X187309523Y-125197619D01*
X187357142Y-125150000D01*
X187452380Y-125102380D01*
X187642857Y-125102380D01*
X187738095Y-125150000D01*
X187785714Y-125197619D01*
X187833333Y-125292857D01*
X187833333Y-125340476D01*
X187785714Y-125435714D01*
X187738095Y-125483333D01*
X187642857Y-125530952D01*
X187452380Y-125530952D01*
X187357142Y-125578571D01*
X187309523Y-125626190D01*
X187261904Y-125721428D01*
X187261904Y-125911904D01*
X187309523Y-126007142D01*
X187357142Y-126054761D01*
X187452380Y-126102380D01*
X187642857Y-126102380D01*
X187738095Y-126054761D01*
X187785714Y-126007142D01*
X187833333Y-125911904D01*
X187833333Y-125721428D01*
X187785714Y-125626190D01*
X187738095Y-125578571D01*
X187642857Y-125530952D01*
G04 #@! TO.C,SW9*
X197016666Y-126104761D02*
X197159523Y-126152380D01*
X197397619Y-126152380D01*
X197492857Y-126104761D01*
X197540476Y-126057142D01*
X197588095Y-125961904D01*
X197588095Y-125866666D01*
X197540476Y-125771428D01*
X197492857Y-125723809D01*
X197397619Y-125676190D01*
X197207142Y-125628571D01*
X197111904Y-125580952D01*
X197064285Y-125533333D01*
X197016666Y-125438095D01*
X197016666Y-125342857D01*
X197064285Y-125247619D01*
X197111904Y-125200000D01*
X197207142Y-125152380D01*
X197445238Y-125152380D01*
X197588095Y-125200000D01*
X197921428Y-125152380D02*
X198159523Y-126152380D01*
X198350000Y-125438095D01*
X198540476Y-126152380D01*
X198778571Y-125152380D01*
X199207142Y-126152380D02*
X199397619Y-126152380D01*
X199492857Y-126104761D01*
X199540476Y-126057142D01*
X199635714Y-125914285D01*
X199683333Y-125723809D01*
X199683333Y-125342857D01*
X199635714Y-125247619D01*
X199588095Y-125200000D01*
X199492857Y-125152380D01*
X199302380Y-125152380D01*
X199207142Y-125200000D01*
X199159523Y-125247619D01*
X199111904Y-125342857D01*
X199111904Y-125580952D01*
X199159523Y-125676190D01*
X199207142Y-125723809D01*
X199302380Y-125771428D01*
X199492857Y-125771428D01*
X199588095Y-125723809D01*
X199635714Y-125676190D01*
X199683333Y-125580952D01*
G04 #@! TO.C,J10*
X139590476Y-117202380D02*
X139590476Y-117916666D01*
X139542857Y-118059523D01*
X139447619Y-118154761D01*
X139304761Y-118202380D01*
X139209523Y-118202380D01*
X140590476Y-118202380D02*
X140019047Y-118202380D01*
X140304761Y-118202380D02*
X140304761Y-117202380D01*
X140209523Y-117345238D01*
X140114285Y-117440476D01*
X140019047Y-117488095D01*
X141209523Y-117202380D02*
X141304761Y-117202380D01*
X141400000Y-117250000D01*
X141447619Y-117297619D01*
X141495238Y-117392857D01*
X141542857Y-117583333D01*
X141542857Y-117821428D01*
X141495238Y-118011904D01*
X141447619Y-118107142D01*
X141400000Y-118154761D01*
X141304761Y-118202380D01*
X141209523Y-118202380D01*
X141114285Y-118154761D01*
X141066666Y-118107142D01*
X141019047Y-118011904D01*
X140971428Y-117821428D01*
X140971428Y-117583333D01*
X141019047Y-117392857D01*
X141066666Y-117297619D01*
X141114285Y-117250000D01*
X141209523Y-117202380D01*
G04 #@! TO.C,J11*
X139690476Y-119902380D02*
X139690476Y-120616666D01*
X139642857Y-120759523D01*
X139547619Y-120854761D01*
X139404761Y-120902380D01*
X139309523Y-120902380D01*
X140690476Y-120902380D02*
X140119047Y-120902380D01*
X140404761Y-120902380D02*
X140404761Y-119902380D01*
X140309523Y-120045238D01*
X140214285Y-120140476D01*
X140119047Y-120188095D01*
X141642857Y-120902380D02*
X141071428Y-120902380D01*
X141357142Y-120902380D02*
X141357142Y-119902380D01*
X141261904Y-120045238D01*
X141166666Y-120140476D01*
X141071428Y-120188095D01*
G04 #@! TO.C,HOLE3*
X101557142Y-114202380D02*
X101557142Y-113202380D01*
X101557142Y-113678571D02*
X102128571Y-113678571D01*
X102128571Y-114202380D02*
X102128571Y-113202380D01*
X102795238Y-113202380D02*
X102985714Y-113202380D01*
X103080952Y-113250000D01*
X103176190Y-113345238D01*
X103223809Y-113535714D01*
X103223809Y-113869047D01*
X103176190Y-114059523D01*
X103080952Y-114154761D01*
X102985714Y-114202380D01*
X102795238Y-114202380D01*
X102700000Y-114154761D01*
X102604761Y-114059523D01*
X102557142Y-113869047D01*
X102557142Y-113535714D01*
X102604761Y-113345238D01*
X102700000Y-113250000D01*
X102795238Y-113202380D01*
X104128571Y-114202380D02*
X103652380Y-114202380D01*
X103652380Y-113202380D01*
X104461904Y-113678571D02*
X104795238Y-113678571D01*
X104938095Y-114202380D02*
X104461904Y-114202380D01*
X104461904Y-113202380D01*
X104938095Y-113202380D01*
X105271428Y-113202380D02*
X105890476Y-113202380D01*
X105557142Y-113583333D01*
X105700000Y-113583333D01*
X105795238Y-113630952D01*
X105842857Y-113678571D01*
X105890476Y-113773809D01*
X105890476Y-114011904D01*
X105842857Y-114107142D01*
X105795238Y-114154761D01*
X105700000Y-114202380D01*
X105414285Y-114202380D01*
X105319047Y-114154761D01*
X105271428Y-114107142D01*
G04 #@! TD*
M02*
