%FSLAX45Y45*%
G04 Gerber Fmt 4.5, Leading zero omitted, Abs format (unit mm)*
G04 Created by KiCad (PCBNEW 5.0.2+dfsg1-1) date lun 11 feb 2019 17:56:47 CET*
%MOMM*%
%LPD*%
G01*
G04 APERTURE LIST*
%ADD10C,0.100000*%
%ADD11C,0.200000*%
%ADD12C,0.300000*%
G04 APERTURE END LIST*
D10*
X21000000Y-5835000D02*
X21000000Y-5595000D01*
X10000000Y-5835000D02*
X10000000Y-5595000D01*
X10000000Y-5593600D02*
X21000000Y-5593600D01*
X10000000Y-13638600D02*
X10000000Y-13338600D01*
X21000000Y-13638600D02*
X21000000Y-13338600D01*
X10000000Y-13338600D02*
X10000000Y-5838600D01*
X21000000Y-13638600D02*
X10000000Y-13638600D01*
X21000000Y-5838600D02*
X21000000Y-13338600D01*
D11*
X10745400Y-5673000D02*
X10895400Y-5823000D01*
X10895400Y-5673000D02*
X10745400Y-5823000D01*
X10745400Y-6373000D02*
X10895400Y-6523000D01*
X10895400Y-6373000D02*
X10745400Y-6523000D01*
X19617200Y-6299200D02*
G75*
G03X19617200Y-6299200I-110000J0D01*
G01*
D12*
X10281428Y-14109314D02*
X10281428Y-13809314D01*
X10352857Y-13809314D01*
X10395714Y-13823600D01*
X10424286Y-13852171D01*
X10438571Y-13880743D01*
X10452857Y-13937886D01*
X10452857Y-13980743D01*
X10438571Y-14037886D01*
X10424286Y-14066457D01*
X10395714Y-14095029D01*
X10352857Y-14109314D01*
X10281428Y-14109314D01*
X10581428Y-14109314D02*
X10581428Y-13909314D01*
X10581428Y-13966457D02*
X10595714Y-13937886D01*
X10610000Y-13923600D01*
X10638571Y-13909314D01*
X10667143Y-13909314D01*
X10767143Y-14109314D02*
X10767143Y-13909314D01*
X10767143Y-13809314D02*
X10752857Y-13823600D01*
X10767143Y-13837886D01*
X10781428Y-13823600D01*
X10767143Y-13809314D01*
X10767143Y-13837886D01*
X10952857Y-14109314D02*
X10924286Y-14095029D01*
X10910000Y-14066457D01*
X10910000Y-13809314D01*
X11110000Y-14109314D02*
X11081428Y-14095029D01*
X11067143Y-14066457D01*
X11067143Y-13809314D01*
X11452857Y-14109314D02*
X11452857Y-13809314D01*
X11552857Y-14023600D01*
X11652857Y-13809314D01*
X11652857Y-14109314D01*
X11924286Y-14109314D02*
X11924286Y-13952171D01*
X11910000Y-13923600D01*
X11881428Y-13909314D01*
X11824286Y-13909314D01*
X11795714Y-13923600D01*
X11924286Y-14095029D02*
X11895714Y-14109314D01*
X11824286Y-14109314D01*
X11795714Y-14095029D01*
X11781428Y-14066457D01*
X11781428Y-14037886D01*
X11795714Y-14009314D01*
X11824286Y-13995029D01*
X11895714Y-13995029D01*
X11924286Y-13980743D01*
X12067143Y-13909314D02*
X12067143Y-14209314D01*
X12067143Y-13923600D02*
X12095714Y-13909314D01*
X12152857Y-13909314D01*
X12181428Y-13923600D01*
X12195714Y-13937886D01*
X12210000Y-13966457D01*
X12210000Y-14052171D01*
X12195714Y-14080743D01*
X12181428Y-14095029D01*
X12152857Y-14109314D01*
X12095714Y-14109314D01*
X12067143Y-14095029D01*
X12338571Y-14080743D02*
X12352857Y-14095029D01*
X12338571Y-14109314D01*
X12324286Y-14095029D01*
X12338571Y-14080743D01*
X12338571Y-14109314D01*
X12338571Y-13923600D02*
X12352857Y-13937886D01*
X12338571Y-13952171D01*
X12324286Y-13937886D01*
X12338571Y-13923600D01*
X12338571Y-13952171D01*
X9845000Y-14528600D02*
X9995000Y-14678600D01*
X9995000Y-14528600D02*
X9845000Y-14678600D01*
X10438571Y-14739314D02*
X10267143Y-14739314D01*
X10352857Y-14739314D02*
X10352857Y-14439314D01*
X10324286Y-14482171D01*
X10295714Y-14510743D01*
X10267143Y-14525029D01*
X10567143Y-14710743D02*
X10581428Y-14725029D01*
X10567143Y-14739314D01*
X10552857Y-14725029D01*
X10567143Y-14710743D01*
X10567143Y-14739314D01*
X10852857Y-14439314D02*
X10710000Y-14439314D01*
X10695714Y-14582171D01*
X10710000Y-14567886D01*
X10738571Y-14553600D01*
X10810000Y-14553600D01*
X10838571Y-14567886D01*
X10852857Y-14582171D01*
X10867143Y-14610743D01*
X10867143Y-14682171D01*
X10852857Y-14710743D01*
X10838571Y-14725029D01*
X10810000Y-14739314D01*
X10738571Y-14739314D01*
X10710000Y-14725029D01*
X10695714Y-14710743D01*
X11052857Y-14439314D02*
X11081428Y-14439314D01*
X11110000Y-14453600D01*
X11124286Y-14467886D01*
X11138571Y-14496457D01*
X11152857Y-14553600D01*
X11152857Y-14625029D01*
X11138571Y-14682171D01*
X11124286Y-14710743D01*
X11110000Y-14725029D01*
X11081428Y-14739314D01*
X11052857Y-14739314D01*
X11024286Y-14725029D01*
X11010000Y-14710743D01*
X10995714Y-14682171D01*
X10981428Y-14625029D01*
X10981428Y-14553600D01*
X10995714Y-14496457D01*
X11010000Y-14467886D01*
X11024286Y-14453600D01*
X11052857Y-14439314D01*
X11281428Y-14739314D02*
X11281428Y-14539314D01*
X11281428Y-14567886D02*
X11295714Y-14553600D01*
X11324286Y-14539314D01*
X11367143Y-14539314D01*
X11395714Y-14553600D01*
X11410000Y-14582171D01*
X11410000Y-14739314D01*
X11410000Y-14582171D02*
X11424286Y-14553600D01*
X11452857Y-14539314D01*
X11495714Y-14539314D01*
X11524286Y-14553600D01*
X11538571Y-14582171D01*
X11538571Y-14739314D01*
X11681428Y-14739314D02*
X11681428Y-14539314D01*
X11681428Y-14567886D02*
X11695714Y-14553600D01*
X11724286Y-14539314D01*
X11767143Y-14539314D01*
X11795714Y-14553600D01*
X11810000Y-14582171D01*
X11810000Y-14739314D01*
X11810000Y-14582171D02*
X11824286Y-14553600D01*
X11852857Y-14539314D01*
X11895714Y-14539314D01*
X11924286Y-14553600D01*
X11938571Y-14582171D01*
X11938571Y-14739314D01*
X12524286Y-14425029D02*
X12267143Y-14810743D01*
X12910000Y-14439314D02*
X12938571Y-14439314D01*
X12967143Y-14453600D01*
X12981428Y-14467886D01*
X12995714Y-14496457D01*
X13010000Y-14553600D01*
X13010000Y-14625029D01*
X12995714Y-14682171D01*
X12981428Y-14710743D01*
X12967143Y-14725029D01*
X12938571Y-14739314D01*
X12910000Y-14739314D01*
X12881428Y-14725029D01*
X12867143Y-14710743D01*
X12852857Y-14682171D01*
X12838571Y-14625029D01*
X12838571Y-14553600D01*
X12852857Y-14496457D01*
X12867143Y-14467886D01*
X12881428Y-14453600D01*
X12910000Y-14439314D01*
X13138571Y-14710743D02*
X13152857Y-14725029D01*
X13138571Y-14739314D01*
X13124286Y-14725029D01*
X13138571Y-14710743D01*
X13138571Y-14739314D01*
X13338571Y-14439314D02*
X13367143Y-14439314D01*
X13395714Y-14453600D01*
X13410000Y-14467886D01*
X13424286Y-14496457D01*
X13438571Y-14553600D01*
X13438571Y-14625029D01*
X13424286Y-14682171D01*
X13410000Y-14710743D01*
X13395714Y-14725029D01*
X13367143Y-14739314D01*
X13338571Y-14739314D01*
X13310000Y-14725029D01*
X13295714Y-14710743D01*
X13281428Y-14682171D01*
X13267143Y-14625029D01*
X13267143Y-14553600D01*
X13281428Y-14496457D01*
X13295714Y-14467886D01*
X13310000Y-14453600D01*
X13338571Y-14439314D01*
X13710000Y-14439314D02*
X13567143Y-14439314D01*
X13552857Y-14582171D01*
X13567143Y-14567886D01*
X13595714Y-14553600D01*
X13667143Y-14553600D01*
X13695714Y-14567886D01*
X13710000Y-14582171D01*
X13724286Y-14610743D01*
X13724286Y-14682171D01*
X13710000Y-14710743D01*
X13695714Y-14725029D01*
X13667143Y-14739314D01*
X13595714Y-14739314D01*
X13567143Y-14725029D01*
X13552857Y-14710743D01*
X13867143Y-14739314D02*
X13924286Y-14739314D01*
X13952857Y-14725029D01*
X13967143Y-14710743D01*
X13995714Y-14667886D01*
X14010000Y-14610743D01*
X14010000Y-14496457D01*
X13995714Y-14467886D01*
X13981428Y-14453600D01*
X13952857Y-14439314D01*
X13895714Y-14439314D01*
X13867143Y-14453600D01*
X13852857Y-14467886D01*
X13838571Y-14496457D01*
X13838571Y-14567886D01*
X13852857Y-14596457D01*
X13867143Y-14610743D01*
X13895714Y-14625029D01*
X13952857Y-14625029D01*
X13981428Y-14610743D01*
X13995714Y-14596457D01*
X14010000Y-14567886D01*
X14124286Y-14439314D02*
X14124286Y-14496457D01*
X14238571Y-14439314D02*
X14238571Y-14496457D01*
X14681428Y-14853600D02*
X14667143Y-14839314D01*
X14638571Y-14796457D01*
X14624286Y-14767886D01*
X14610000Y-14725029D01*
X14595714Y-14653600D01*
X14595714Y-14596457D01*
X14610000Y-14525029D01*
X14624286Y-14482171D01*
X14638571Y-14453600D01*
X14667143Y-14410743D01*
X14681428Y-14396457D01*
X14781428Y-14467886D02*
X14795714Y-14453600D01*
X14824286Y-14439314D01*
X14895714Y-14439314D01*
X14924286Y-14453600D01*
X14938571Y-14467886D01*
X14952857Y-14496457D01*
X14952857Y-14525029D01*
X14938571Y-14567886D01*
X14767143Y-14739314D01*
X14952857Y-14739314D01*
X15310000Y-14739314D02*
X15310000Y-14439314D01*
X15438571Y-14739314D02*
X15438571Y-14582171D01*
X15424286Y-14553600D01*
X15395714Y-14539314D01*
X15352857Y-14539314D01*
X15324286Y-14553600D01*
X15310000Y-14567886D01*
X15624286Y-14739314D02*
X15595714Y-14725029D01*
X15581428Y-14710743D01*
X15567143Y-14682171D01*
X15567143Y-14596457D01*
X15581428Y-14567886D01*
X15595714Y-14553600D01*
X15624286Y-14539314D01*
X15667143Y-14539314D01*
X15695714Y-14553600D01*
X15710000Y-14567886D01*
X15724286Y-14596457D01*
X15724286Y-14682171D01*
X15710000Y-14710743D01*
X15695714Y-14725029D01*
X15667143Y-14739314D01*
X15624286Y-14739314D01*
X15895714Y-14739314D02*
X15867143Y-14725029D01*
X15852857Y-14696457D01*
X15852857Y-14439314D01*
X16124286Y-14725029D02*
X16095714Y-14739314D01*
X16038571Y-14739314D01*
X16010000Y-14725029D01*
X15995714Y-14696457D01*
X15995714Y-14582171D01*
X16010000Y-14553600D01*
X16038571Y-14539314D01*
X16095714Y-14539314D01*
X16124286Y-14553600D01*
X16138571Y-14582171D01*
X16138571Y-14610743D01*
X15995714Y-14639314D01*
X16252857Y-14725029D02*
X16281428Y-14739314D01*
X16338571Y-14739314D01*
X16367143Y-14725029D01*
X16381428Y-14696457D01*
X16381428Y-14682171D01*
X16367143Y-14653600D01*
X16338571Y-14639314D01*
X16295714Y-14639314D01*
X16267143Y-14625029D01*
X16252857Y-14596457D01*
X16252857Y-14582171D01*
X16267143Y-14553600D01*
X16295714Y-14539314D01*
X16338571Y-14539314D01*
X16367143Y-14553600D01*
X16481428Y-14853600D02*
X16495714Y-14839314D01*
X16524286Y-14796457D01*
X16538571Y-14767886D01*
X16552857Y-14725029D01*
X16567143Y-14653600D01*
X16567143Y-14596457D01*
X16552857Y-14525029D01*
X16538571Y-14482171D01*
X16524286Y-14453600D01*
X16495714Y-14410743D01*
X16481428Y-14396457D01*
X17024286Y-14853600D02*
X17010000Y-14839314D01*
X16981428Y-14796457D01*
X16967143Y-14767886D01*
X16952857Y-14725029D01*
X16938571Y-14653600D01*
X16938571Y-14596457D01*
X16952857Y-14525029D01*
X16967143Y-14482171D01*
X16981428Y-14453600D01*
X17010000Y-14410743D01*
X17024286Y-14396457D01*
X17138571Y-14539314D02*
X17138571Y-14739314D01*
X17138571Y-14567886D02*
X17152857Y-14553600D01*
X17181428Y-14539314D01*
X17224286Y-14539314D01*
X17252857Y-14553600D01*
X17267143Y-14582171D01*
X17267143Y-14739314D01*
X17452857Y-14739314D02*
X17424286Y-14725029D01*
X17410000Y-14710743D01*
X17395714Y-14682171D01*
X17395714Y-14596457D01*
X17410000Y-14567886D01*
X17424286Y-14553600D01*
X17452857Y-14539314D01*
X17495714Y-14539314D01*
X17524286Y-14553600D01*
X17538571Y-14567886D01*
X17552857Y-14596457D01*
X17552857Y-14682171D01*
X17538571Y-14710743D01*
X17524286Y-14725029D01*
X17495714Y-14739314D01*
X17452857Y-14739314D01*
X17638571Y-14539314D02*
X17752857Y-14539314D01*
X17681428Y-14439314D02*
X17681428Y-14696457D01*
X17695714Y-14725029D01*
X17724286Y-14739314D01*
X17752857Y-14739314D01*
X18081428Y-14539314D02*
X18081428Y-14839314D01*
X18081428Y-14553600D02*
X18110000Y-14539314D01*
X18167143Y-14539314D01*
X18195714Y-14553600D01*
X18210000Y-14567886D01*
X18224286Y-14596457D01*
X18224286Y-14682171D01*
X18210000Y-14710743D01*
X18195714Y-14725029D01*
X18167143Y-14739314D01*
X18110000Y-14739314D01*
X18081428Y-14725029D01*
X18395714Y-14739314D02*
X18367143Y-14725029D01*
X18352857Y-14696457D01*
X18352857Y-14439314D01*
X18638571Y-14739314D02*
X18638571Y-14582171D01*
X18624286Y-14553600D01*
X18595714Y-14539314D01*
X18538571Y-14539314D01*
X18510000Y-14553600D01*
X18638571Y-14725029D02*
X18610000Y-14739314D01*
X18538571Y-14739314D01*
X18510000Y-14725029D01*
X18495714Y-14696457D01*
X18495714Y-14667886D01*
X18510000Y-14639314D01*
X18538571Y-14625029D01*
X18610000Y-14625029D01*
X18638571Y-14610743D01*
X18738571Y-14539314D02*
X18852857Y-14539314D01*
X18781428Y-14439314D02*
X18781428Y-14696457D01*
X18795714Y-14725029D01*
X18824286Y-14739314D01*
X18852857Y-14739314D01*
X19067143Y-14725029D02*
X19038571Y-14739314D01*
X18981428Y-14739314D01*
X18952857Y-14725029D01*
X18938571Y-14696457D01*
X18938571Y-14582171D01*
X18952857Y-14553600D01*
X18981428Y-14539314D01*
X19038571Y-14539314D01*
X19067143Y-14553600D01*
X19081428Y-14582171D01*
X19081428Y-14610743D01*
X18938571Y-14639314D01*
X19338571Y-14739314D02*
X19338571Y-14439314D01*
X19338571Y-14725029D02*
X19310000Y-14739314D01*
X19252857Y-14739314D01*
X19224286Y-14725029D01*
X19210000Y-14710743D01*
X19195714Y-14682171D01*
X19195714Y-14596457D01*
X19210000Y-14567886D01*
X19224286Y-14553600D01*
X19252857Y-14539314D01*
X19310000Y-14539314D01*
X19338571Y-14553600D01*
X19452857Y-14853600D02*
X19467143Y-14839314D01*
X19495714Y-14796457D01*
X19510000Y-14767886D01*
X19524286Y-14725029D01*
X19538571Y-14653600D01*
X19538571Y-14596457D01*
X19524286Y-14525029D01*
X19510000Y-14482171D01*
X19495714Y-14453600D01*
X19467143Y-14410743D01*
X19452857Y-14396457D01*
X9995000Y-14999600D02*
G75*
G03X9995000Y-14999600I-110000J0D01*
G01*
X10267143Y-14863886D02*
X10281428Y-14849600D01*
X10310000Y-14835314D01*
X10381428Y-14835314D01*
X10410000Y-14849600D01*
X10424286Y-14863886D01*
X10438571Y-14892457D01*
X10438571Y-14921029D01*
X10424286Y-14963886D01*
X10252857Y-15135314D01*
X10438571Y-15135314D01*
X10567143Y-15106743D02*
X10581428Y-15121029D01*
X10567143Y-15135314D01*
X10552857Y-15121029D01*
X10567143Y-15106743D01*
X10567143Y-15135314D01*
X10695714Y-14863886D02*
X10710000Y-14849600D01*
X10738571Y-14835314D01*
X10810000Y-14835314D01*
X10838571Y-14849600D01*
X10852857Y-14863886D01*
X10867143Y-14892457D01*
X10867143Y-14921029D01*
X10852857Y-14963886D01*
X10681428Y-15135314D01*
X10867143Y-15135314D01*
X11052857Y-14835314D02*
X11081428Y-14835314D01*
X11110000Y-14849600D01*
X11124286Y-14863886D01*
X11138571Y-14892457D01*
X11152857Y-14949600D01*
X11152857Y-15021029D01*
X11138571Y-15078171D01*
X11124286Y-15106743D01*
X11110000Y-15121029D01*
X11081428Y-15135314D01*
X11052857Y-15135314D01*
X11024286Y-15121029D01*
X11010000Y-15106743D01*
X10995714Y-15078171D01*
X10981428Y-15021029D01*
X10981428Y-14949600D01*
X10995714Y-14892457D01*
X11010000Y-14863886D01*
X11024286Y-14849600D01*
X11052857Y-14835314D01*
X11281428Y-15135314D02*
X11281428Y-14935314D01*
X11281428Y-14963886D02*
X11295714Y-14949600D01*
X11324286Y-14935314D01*
X11367143Y-14935314D01*
X11395714Y-14949600D01*
X11410000Y-14978171D01*
X11410000Y-15135314D01*
X11410000Y-14978171D02*
X11424286Y-14949600D01*
X11452857Y-14935314D01*
X11495714Y-14935314D01*
X11524286Y-14949600D01*
X11538571Y-14978171D01*
X11538571Y-15135314D01*
X11681428Y-15135314D02*
X11681428Y-14935314D01*
X11681428Y-14963886D02*
X11695714Y-14949600D01*
X11724286Y-14935314D01*
X11767143Y-14935314D01*
X11795714Y-14949600D01*
X11810000Y-14978171D01*
X11810000Y-15135314D01*
X11810000Y-14978171D02*
X11824286Y-14949600D01*
X11852857Y-14935314D01*
X11895714Y-14935314D01*
X11924286Y-14949600D01*
X11938571Y-14978171D01*
X11938571Y-15135314D01*
X12524286Y-14821029D02*
X12267143Y-15206743D01*
X12910000Y-14835314D02*
X12938571Y-14835314D01*
X12967143Y-14849600D01*
X12981428Y-14863886D01*
X12995714Y-14892457D01*
X13010000Y-14949600D01*
X13010000Y-15021029D01*
X12995714Y-15078171D01*
X12981428Y-15106743D01*
X12967143Y-15121029D01*
X12938571Y-15135314D01*
X12910000Y-15135314D01*
X12881428Y-15121029D01*
X12867143Y-15106743D01*
X12852857Y-15078171D01*
X12838571Y-15021029D01*
X12838571Y-14949600D01*
X12852857Y-14892457D01*
X12867143Y-14863886D01*
X12881428Y-14849600D01*
X12910000Y-14835314D01*
X13138571Y-15106743D02*
X13152857Y-15121029D01*
X13138571Y-15135314D01*
X13124286Y-15121029D01*
X13138571Y-15106743D01*
X13138571Y-15135314D01*
X13338571Y-14835314D02*
X13367143Y-14835314D01*
X13395714Y-14849600D01*
X13410000Y-14863886D01*
X13424286Y-14892457D01*
X13438571Y-14949600D01*
X13438571Y-15021029D01*
X13424286Y-15078171D01*
X13410000Y-15106743D01*
X13395714Y-15121029D01*
X13367143Y-15135314D01*
X13338571Y-15135314D01*
X13310000Y-15121029D01*
X13295714Y-15106743D01*
X13281428Y-15078171D01*
X13267143Y-15021029D01*
X13267143Y-14949600D01*
X13281428Y-14892457D01*
X13295714Y-14863886D01*
X13310000Y-14849600D01*
X13338571Y-14835314D01*
X13610000Y-14963886D02*
X13581428Y-14949600D01*
X13567143Y-14935314D01*
X13552857Y-14906743D01*
X13552857Y-14892457D01*
X13567143Y-14863886D01*
X13581428Y-14849600D01*
X13610000Y-14835314D01*
X13667143Y-14835314D01*
X13695714Y-14849600D01*
X13710000Y-14863886D01*
X13724286Y-14892457D01*
X13724286Y-14906743D01*
X13710000Y-14935314D01*
X13695714Y-14949600D01*
X13667143Y-14963886D01*
X13610000Y-14963886D01*
X13581428Y-14978171D01*
X13567143Y-14992457D01*
X13552857Y-15021029D01*
X13552857Y-15078171D01*
X13567143Y-15106743D01*
X13581428Y-15121029D01*
X13610000Y-15135314D01*
X13667143Y-15135314D01*
X13695714Y-15121029D01*
X13710000Y-15106743D01*
X13724286Y-15078171D01*
X13724286Y-15021029D01*
X13710000Y-14992457D01*
X13695714Y-14978171D01*
X13667143Y-14963886D01*
X13824286Y-14835314D02*
X14024286Y-14835314D01*
X13895714Y-15135314D01*
X14124286Y-14835314D02*
X14124286Y-14892457D01*
X14238571Y-14835314D02*
X14238571Y-14892457D01*
X14681428Y-15249600D02*
X14667143Y-15235314D01*
X14638571Y-15192457D01*
X14624286Y-15163886D01*
X14610000Y-15121029D01*
X14595714Y-15049600D01*
X14595714Y-14992457D01*
X14610000Y-14921029D01*
X14624286Y-14878171D01*
X14638571Y-14849600D01*
X14667143Y-14806743D01*
X14681428Y-14792457D01*
X14952857Y-15135314D02*
X14781428Y-15135314D01*
X14867143Y-15135314D02*
X14867143Y-14835314D01*
X14838571Y-14878171D01*
X14810000Y-14906743D01*
X14781428Y-14921029D01*
X15310000Y-15135314D02*
X15310000Y-14835314D01*
X15438571Y-15135314D02*
X15438571Y-14978171D01*
X15424286Y-14949600D01*
X15395714Y-14935314D01*
X15352857Y-14935314D01*
X15324286Y-14949600D01*
X15310000Y-14963886D01*
X15624286Y-15135314D02*
X15595714Y-15121029D01*
X15581428Y-15106743D01*
X15567143Y-15078171D01*
X15567143Y-14992457D01*
X15581428Y-14963886D01*
X15595714Y-14949600D01*
X15624286Y-14935314D01*
X15667143Y-14935314D01*
X15695714Y-14949600D01*
X15710000Y-14963886D01*
X15724286Y-14992457D01*
X15724286Y-15078171D01*
X15710000Y-15106743D01*
X15695714Y-15121029D01*
X15667143Y-15135314D01*
X15624286Y-15135314D01*
X15895714Y-15135314D02*
X15867143Y-15121029D01*
X15852857Y-15092457D01*
X15852857Y-14835314D01*
X16124286Y-15121029D02*
X16095714Y-15135314D01*
X16038571Y-15135314D01*
X16010000Y-15121029D01*
X15995714Y-15092457D01*
X15995714Y-14978171D01*
X16010000Y-14949600D01*
X16038571Y-14935314D01*
X16095714Y-14935314D01*
X16124286Y-14949600D01*
X16138571Y-14978171D01*
X16138571Y-15006743D01*
X15995714Y-15035314D01*
X16238571Y-15249600D02*
X16252857Y-15235314D01*
X16281428Y-15192457D01*
X16295714Y-15163886D01*
X16310000Y-15121029D01*
X16324286Y-15049600D01*
X16324286Y-14992457D01*
X16310000Y-14921029D01*
X16295714Y-14878171D01*
X16281428Y-14849600D01*
X16252857Y-14806743D01*
X16238571Y-14792457D01*
X16781428Y-15249600D02*
X16767143Y-15235314D01*
X16738571Y-15192457D01*
X16724286Y-15163886D01*
X16710000Y-15121029D01*
X16695714Y-15049600D01*
X16695714Y-14992457D01*
X16710000Y-14921029D01*
X16724286Y-14878171D01*
X16738571Y-14849600D01*
X16767143Y-14806743D01*
X16781428Y-14792457D01*
X16895714Y-14935314D02*
X16895714Y-15135314D01*
X16895714Y-14963886D02*
X16910000Y-14949600D01*
X16938571Y-14935314D01*
X16981428Y-14935314D01*
X17010000Y-14949600D01*
X17024286Y-14978171D01*
X17024286Y-15135314D01*
X17210000Y-15135314D02*
X17181428Y-15121029D01*
X17167143Y-15106743D01*
X17152857Y-15078171D01*
X17152857Y-14992457D01*
X17167143Y-14963886D01*
X17181428Y-14949600D01*
X17210000Y-14935314D01*
X17252857Y-14935314D01*
X17281428Y-14949600D01*
X17295714Y-14963886D01*
X17310000Y-14992457D01*
X17310000Y-15078171D01*
X17295714Y-15106743D01*
X17281428Y-15121029D01*
X17252857Y-15135314D01*
X17210000Y-15135314D01*
X17395714Y-14935314D02*
X17510000Y-14935314D01*
X17438571Y-14835314D02*
X17438571Y-15092457D01*
X17452857Y-15121029D01*
X17481428Y-15135314D01*
X17510000Y-15135314D01*
X17838571Y-14935314D02*
X17838571Y-15235314D01*
X17838571Y-14949600D02*
X17867143Y-14935314D01*
X17924286Y-14935314D01*
X17952857Y-14949600D01*
X17967143Y-14963886D01*
X17981428Y-14992457D01*
X17981428Y-15078171D01*
X17967143Y-15106743D01*
X17952857Y-15121029D01*
X17924286Y-15135314D01*
X17867143Y-15135314D01*
X17838571Y-15121029D01*
X18152857Y-15135314D02*
X18124286Y-15121029D01*
X18110000Y-15092457D01*
X18110000Y-14835314D01*
X18395714Y-15135314D02*
X18395714Y-14978171D01*
X18381428Y-14949600D01*
X18352857Y-14935314D01*
X18295714Y-14935314D01*
X18267143Y-14949600D01*
X18395714Y-15121029D02*
X18367143Y-15135314D01*
X18295714Y-15135314D01*
X18267143Y-15121029D01*
X18252857Y-15092457D01*
X18252857Y-15063886D01*
X18267143Y-15035314D01*
X18295714Y-15021029D01*
X18367143Y-15021029D01*
X18395714Y-15006743D01*
X18495714Y-14935314D02*
X18610000Y-14935314D01*
X18538571Y-14835314D02*
X18538571Y-15092457D01*
X18552857Y-15121029D01*
X18581428Y-15135314D01*
X18610000Y-15135314D01*
X18824286Y-15121029D02*
X18795714Y-15135314D01*
X18738571Y-15135314D01*
X18710000Y-15121029D01*
X18695714Y-15092457D01*
X18695714Y-14978171D01*
X18710000Y-14949600D01*
X18738571Y-14935314D01*
X18795714Y-14935314D01*
X18824286Y-14949600D01*
X18838571Y-14978171D01*
X18838571Y-15006743D01*
X18695714Y-15035314D01*
X19095714Y-15135314D02*
X19095714Y-14835314D01*
X19095714Y-15121029D02*
X19067143Y-15135314D01*
X19010000Y-15135314D01*
X18981428Y-15121029D01*
X18967143Y-15106743D01*
X18952857Y-15078171D01*
X18952857Y-14992457D01*
X18967143Y-14963886D01*
X18981428Y-14949600D01*
X19010000Y-14935314D01*
X19067143Y-14935314D01*
X19095714Y-14949600D01*
X19210000Y-15249600D02*
X19224286Y-15235314D01*
X19252857Y-15192457D01*
X19267143Y-15163886D01*
X19281428Y-15121029D01*
X19295714Y-15049600D01*
X19295714Y-14992457D01*
X19281428Y-14921029D01*
X19267143Y-14878171D01*
X19252857Y-14849600D01*
X19224286Y-14806743D01*
X19210000Y-14792457D01*
M02*
