G04 #@! TF.GenerationSoftware,KiCad,Pcbnew,5.0.2+dfsg1-1*
G04 #@! TF.CreationDate,2019-02-11T17:55:52+01:00*
G04 #@! TF.ProjectId,yaacwk,79616163-776b-42e6-9b69-6361645f7063,1.2*
G04 #@! TF.SameCoordinates,Original*
G04 #@! TF.FileFunction,Other,User*
%FSLAX46Y46*%
G04 Gerber Fmt 4.6, Leading zero omitted, Abs format (unit mm)*
G04 Created by KiCad (PCBNEW 5.0.2+dfsg1-1) date lun 11 feb 2019 17:55:52 CET*
%MOMM*%
%LPD*%
G01*
G04 APERTURE LIST*
%ADD10C,0.050000*%
G04 APERTURE END LIST*
D10*
G04 #@! TO.C,J12*
X142500000Y-121400000D02*
X142500000Y-124600000D01*
X166000000Y-121400000D02*
X142500000Y-121400000D01*
X166000000Y-124600000D02*
X166000000Y-121400000D01*
X142500000Y-124600000D02*
X166000000Y-124600000D01*
G04 #@! TO.C,HOLE2*
X120950000Y-63850000D02*
G75*
G03X120950000Y-63850000I-2450000J0D01*
G01*
G04 #@! TO.C,HOLE4*
X197700000Y-117100000D02*
G75*
G03X197700000Y-117100000I-2450000J0D01*
G01*
G04 #@! TO.C,HOLE6*
X208500000Y-129900000D02*
G75*
G03X208500000Y-129900000I-2450000J0D01*
G01*
G04 #@! TO.C,HOLE5*
X106350000Y-130050000D02*
G75*
G03X106350000Y-130050000I-2450000J0D01*
G01*
G04 #@! TO.C,PS2CONN1*
X172310000Y-69550000D02*
X155310000Y-69550000D01*
X172310000Y-69550000D02*
X172310000Y-55500000D01*
X155310000Y-55500000D02*
X155310000Y-69550000D01*
X155310000Y-55500000D02*
X172310000Y-55500000D01*
G04 #@! TO.C,D1*
X207650000Y-84000000D02*
X207650000Y-79500000D01*
X207650000Y-79500000D02*
X202800000Y-79500000D01*
X202800000Y-79500000D02*
X202800000Y-84000000D01*
X202800000Y-84000000D02*
X207650000Y-84000000D01*
G04 #@! TO.C,D2*
X207650000Y-104250000D02*
X207650000Y-99750000D01*
X207650000Y-99750000D02*
X202800000Y-99750000D01*
X202800000Y-99750000D02*
X202800000Y-104250000D01*
X202800000Y-104250000D02*
X207650000Y-104250000D01*
G04 #@! TO.C,D3*
X207650000Y-94000000D02*
X207650000Y-89500000D01*
X207650000Y-89500000D02*
X202800000Y-89500000D01*
X202800000Y-89500000D02*
X202800000Y-94000000D01*
X202800000Y-94000000D02*
X207650000Y-94000000D01*
G04 #@! TO.C,IC1*
X133050000Y-102100000D02*
X184450000Y-102100000D01*
X184450000Y-102100000D02*
X184450000Y-84700000D01*
X184450000Y-84700000D02*
X133050000Y-84700000D01*
X133050000Y-84700000D02*
X133050000Y-102100000D01*
G04 #@! TO.C,IC2*
X199100000Y-94150000D02*
X188300000Y-94150000D01*
X188300000Y-94150000D02*
X188300000Y-103950000D01*
X188300000Y-103950000D02*
X199100000Y-103950000D01*
X199100000Y-103950000D02*
X199100000Y-94150000D01*
G04 #@! TO.C,L1*
X169800000Y-77500000D02*
X169800000Y-73500000D01*
X169800000Y-73500000D02*
X157500000Y-73500000D01*
X157500000Y-73500000D02*
X157500000Y-77500000D01*
X157500000Y-77500000D02*
X169800000Y-77500000D01*
G04 #@! TO.C,L2*
X152450000Y-78750000D02*
X152450000Y-82750000D01*
X152450000Y-82750000D02*
X164750000Y-82750000D01*
X164750000Y-82750000D02*
X164750000Y-78750000D01*
X164750000Y-78750000D02*
X152450000Y-78750000D01*
G04 #@! TO.C,R1*
X112550000Y-111000000D02*
X112550000Y-114200000D01*
X112550000Y-114200000D02*
X122300000Y-114200000D01*
X122300000Y-114200000D02*
X122300000Y-111000000D01*
X122300000Y-111000000D02*
X112550000Y-111000000D01*
G04 #@! TO.C,R2*
X112550000Y-105800000D02*
X112550000Y-109000000D01*
X112550000Y-109000000D02*
X122300000Y-109000000D01*
X122300000Y-109000000D02*
X122300000Y-105800000D01*
X122300000Y-105800000D02*
X112550000Y-105800000D01*
G04 #@! TO.C,R3*
X124550000Y-111000000D02*
X124550000Y-114200000D01*
X124550000Y-114200000D02*
X134300000Y-114200000D01*
X134300000Y-114200000D02*
X134300000Y-111000000D01*
X134300000Y-111000000D02*
X124550000Y-111000000D01*
G04 #@! TO.C,R4*
X124550000Y-105800000D02*
X124550000Y-109000000D01*
X124550000Y-109000000D02*
X134300000Y-109000000D01*
X134300000Y-109000000D02*
X134300000Y-105800000D01*
X134300000Y-105800000D02*
X124550000Y-105800000D01*
G04 #@! TO.C,R5*
X137150000Y-111000000D02*
X137150000Y-114200000D01*
X137150000Y-114200000D02*
X146900000Y-114200000D01*
X146900000Y-114200000D02*
X146900000Y-111000000D01*
X146900000Y-111000000D02*
X137150000Y-111000000D01*
G04 #@! TO.C,R6*
X198050000Y-82600000D02*
X198050000Y-79400000D01*
X198050000Y-79400000D02*
X188300000Y-79400000D01*
X188300000Y-79400000D02*
X188300000Y-82600000D01*
X188300000Y-82600000D02*
X198050000Y-82600000D01*
G04 #@! TO.C,R7*
X195450000Y-114200000D02*
X195450000Y-111000000D01*
X195450000Y-111000000D02*
X185700000Y-111000000D01*
X185700000Y-111000000D02*
X185700000Y-114200000D01*
X185700000Y-114200000D02*
X195450000Y-114200000D01*
G04 #@! TO.C,R8*
X198050000Y-87350000D02*
X198050000Y-84150000D01*
X198050000Y-84150000D02*
X188300000Y-84150000D01*
X188300000Y-84150000D02*
X188300000Y-87350000D01*
X188300000Y-87350000D02*
X198050000Y-87350000D01*
G04 #@! TO.C,R9*
X195250000Y-109200000D02*
X195250000Y-106000000D01*
X195250000Y-106000000D02*
X185500000Y-106000000D01*
X185500000Y-106000000D02*
X185500000Y-109200000D01*
X185500000Y-109200000D02*
X195250000Y-109200000D01*
G04 #@! TO.C,R10*
X188450000Y-89400000D02*
X188450000Y-92600000D01*
X188450000Y-92600000D02*
X198200000Y-92600000D01*
X198200000Y-92600000D02*
X198200000Y-89400000D01*
X198200000Y-89400000D02*
X188450000Y-89400000D01*
G04 #@! TO.C,R11*
X173350000Y-106000000D02*
X173350000Y-109200000D01*
X173350000Y-109200000D02*
X183100000Y-109200000D01*
X183100000Y-109200000D02*
X183100000Y-106000000D01*
X183100000Y-106000000D02*
X173350000Y-106000000D01*
G04 #@! TO.C,R12*
X127450000Y-78650000D02*
X127450000Y-81850000D01*
X127450000Y-81850000D02*
X137200000Y-81850000D01*
X137200000Y-81850000D02*
X137200000Y-78650000D01*
X137200000Y-78650000D02*
X127450000Y-78650000D01*
G04 #@! TO.C,R13*
X139950000Y-78650000D02*
X139950000Y-81850000D01*
X139950000Y-81850000D02*
X149700000Y-81850000D01*
X149700000Y-81850000D02*
X149700000Y-78650000D01*
X149700000Y-78650000D02*
X139950000Y-78650000D01*
G04 #@! TO.C,Y1*
X166700000Y-109200000D02*
X166700000Y-103600000D01*
X166700000Y-103600000D02*
X154800000Y-103600000D01*
X154800000Y-103600000D02*
X154800000Y-109200000D01*
X154800000Y-109200000D02*
X166700000Y-109200000D01*
G04 #@! TO.C,J3*
X202400000Y-98600000D02*
X208100000Y-98600000D01*
X208100000Y-98600000D02*
X208100000Y-95400000D01*
X208100000Y-95400000D02*
X202400000Y-95400000D01*
X202400000Y-95400000D02*
X202400000Y-98600000D01*
G04 #@! TO.C,J4*
X202400000Y-108600000D02*
X208100000Y-108600000D01*
X208100000Y-108600000D02*
X208100000Y-105400000D01*
X208100000Y-105400000D02*
X202400000Y-105400000D01*
X202400000Y-105400000D02*
X202400000Y-108600000D01*
G04 #@! TO.C,J5*
X199900000Y-88100000D02*
X208100000Y-88100000D01*
X208100000Y-88100000D02*
X208100000Y-84900000D01*
X208100000Y-84900000D02*
X199900000Y-84900000D01*
X199900000Y-84900000D02*
X199900000Y-88100000D01*
G04 #@! TO.C,D5*
X185150000Y-71450000D02*
X185150000Y-68050000D01*
X185150000Y-68050000D02*
X175200000Y-68050000D01*
X175200000Y-68050000D02*
X175200000Y-71450000D01*
X175200000Y-71450000D02*
X185150000Y-71450000D01*
G04 #@! TO.C,D6*
X177850000Y-62800000D02*
X177850000Y-66200000D01*
X177850000Y-66200000D02*
X187800000Y-66200000D01*
X187800000Y-66200000D02*
X187800000Y-62800000D01*
X187800000Y-62800000D02*
X177850000Y-62800000D01*
G04 #@! TO.C,J6*
X173400000Y-77600000D02*
X189300000Y-77600000D01*
X189300000Y-77600000D02*
X189300000Y-74400000D01*
X189300000Y-74400000D02*
X173400000Y-74400000D01*
X173400000Y-74400000D02*
X173400000Y-77600000D01*
G04 #@! TO.C,SW6*
X170600000Y-111000000D02*
X164900000Y-111000000D01*
X164900000Y-111000000D02*
X164900000Y-114200000D01*
X164900000Y-114200000D02*
X170600000Y-114200000D01*
X170600000Y-114200000D02*
X170600000Y-111000000D01*
G04 #@! TO.C,J2*
X103204000Y-68370000D02*
X113204000Y-68370000D01*
X103204000Y-53570000D02*
X113204000Y-53570000D01*
X103204000Y-53570000D02*
X103204000Y-68370000D01*
X113204000Y-53570000D02*
X113204000Y-68370000D01*
G04 #@! TO.C,LCDPot2*
X112150000Y-93700000D02*
X112150000Y-104050000D01*
X112150000Y-104050000D02*
X120050000Y-104050000D01*
X120050000Y-104050000D02*
X120050000Y-93700000D01*
X120050000Y-93700000D02*
X112150000Y-93700000D01*
G04 #@! TO.C,DS1*
X113900000Y-74600000D02*
X155200000Y-74600000D01*
X155200000Y-74600000D02*
X155200000Y-71400000D01*
X155200000Y-71400000D02*
X113900000Y-71400000D01*
X113900000Y-71400000D02*
X113900000Y-74600000D01*
G04 #@! TO.C,J7*
X182050000Y-79300000D02*
X166150000Y-79300000D01*
X166150000Y-79300000D02*
X166150000Y-82500000D01*
X166150000Y-82500000D02*
X182050000Y-82500000D01*
X182050000Y-82500000D02*
X182050000Y-79300000D01*
G04 #@! TO.C,J9*
X195910000Y-77419000D02*
X195910000Y-69219000D01*
X195910000Y-69219000D02*
X192710000Y-69219000D01*
X192710000Y-69219000D02*
X192710000Y-77419000D01*
X192710000Y-77419000D02*
X195910000Y-77419000D01*
G04 #@! TO.C,J1*
X198771000Y-77144000D02*
X198771000Y-77394000D01*
X198771000Y-77394000D02*
X213771000Y-77394000D01*
X198771000Y-77144000D02*
X198771000Y-74644000D01*
X198771000Y-74644000D02*
X197771000Y-74644000D01*
X197771000Y-74644000D02*
X197771000Y-70644000D01*
X197771000Y-70644000D02*
X198771000Y-70644000D01*
X198771000Y-70644000D02*
X198771000Y-67894000D01*
X198771000Y-67894000D02*
X200771000Y-67894000D01*
X200771000Y-67894000D02*
X200771000Y-65894000D01*
X200771000Y-65894000D02*
X204771000Y-65894000D01*
X204771000Y-65894000D02*
X204771000Y-67894000D01*
X204771000Y-67894000D02*
X213771000Y-67894000D01*
X213771000Y-67894000D02*
X213771000Y-77394000D01*
G04 #@! TO.C,C14*
X122150000Y-66950000D02*
X130850000Y-66950000D01*
X130850000Y-66950000D02*
X130850000Y-58250000D01*
X130850000Y-58250000D02*
X122150000Y-58250000D01*
X122150000Y-58250000D02*
X122150000Y-66950000D01*
G04 #@! TO.C,C16*
X132150000Y-66950000D02*
X140850000Y-66950000D01*
X140850000Y-66950000D02*
X140850000Y-58250000D01*
X140850000Y-58250000D02*
X132150000Y-58250000D01*
X132150000Y-58250000D02*
X132150000Y-66950000D01*
G04 #@! TO.C,R14*
X137150000Y-105800000D02*
X137150000Y-109000000D01*
X137150000Y-109000000D02*
X146900000Y-109000000D01*
X146900000Y-109000000D02*
X146900000Y-105800000D01*
X146900000Y-105800000D02*
X137150000Y-105800000D01*
G04 #@! TO.C,R15*
X151150000Y-111000000D02*
X151150000Y-114200000D01*
X151150000Y-114200000D02*
X160900000Y-114200000D01*
X160900000Y-114200000D02*
X160900000Y-111000000D01*
X160900000Y-111000000D02*
X151150000Y-111000000D01*
G04 #@! TO.C,R16*
X173350000Y-111000000D02*
X173350000Y-114200000D01*
X173350000Y-114200000D02*
X183100000Y-114200000D01*
X183100000Y-114200000D02*
X183100000Y-111000000D01*
X183100000Y-111000000D02*
X173350000Y-111000000D01*
G04 #@! TO.C,SpeedPot1*
X110240000Y-112860000D02*
X110240000Y-96360000D01*
X110240000Y-96360000D02*
X87240000Y-96360000D01*
X87240000Y-96360000D02*
X87240000Y-112860000D01*
X87240000Y-112860000D02*
X110240000Y-112860000D01*
G04 #@! TO.C,D4*
X207950000Y-115250000D02*
X207950000Y-109750000D01*
X207950000Y-109750000D02*
X202500000Y-109750000D01*
X202500000Y-109750000D02*
X202500000Y-115250000D01*
X202500000Y-115250000D02*
X207950000Y-115250000D01*
G04 #@! TO.C,C3*
X199600000Y-84050000D02*
X201900000Y-84050000D01*
X201900000Y-84050000D02*
X201900000Y-79450000D01*
X201900000Y-79450000D02*
X199600000Y-79450000D01*
X199600000Y-79450000D02*
X199600000Y-84050000D01*
G04 #@! TO.C,C2*
X201900000Y-89450000D02*
X199600000Y-89450000D01*
X199600000Y-89450000D02*
X199600000Y-94050000D01*
X199600000Y-94050000D02*
X201900000Y-94050000D01*
X201900000Y-94050000D02*
X201900000Y-89450000D01*
G04 #@! TO.C,C10*
X171150000Y-104750000D02*
X168850000Y-104750000D01*
X168850000Y-104750000D02*
X168850000Y-109350000D01*
X168850000Y-109350000D02*
X171150000Y-109350000D01*
X171150000Y-109350000D02*
X171150000Y-104750000D01*
G04 #@! TO.C,C11*
X152350000Y-104550000D02*
X150050000Y-104550000D01*
X150050000Y-104550000D02*
X150050000Y-109150000D01*
X150050000Y-109150000D02*
X152350000Y-109150000D01*
X152350000Y-109150000D02*
X152350000Y-104550000D01*
G04 #@! TO.C,C1*
X117050000Y-89650000D02*
X119350000Y-89650000D01*
X119350000Y-89650000D02*
X119350000Y-85050000D01*
X119350000Y-85050000D02*
X117050000Y-85050000D01*
X117050000Y-85050000D02*
X117050000Y-89650000D01*
G04 #@! TO.C,C12*
X119650000Y-78450000D02*
X116350000Y-78450000D01*
X116350000Y-78450000D02*
X116350000Y-83050000D01*
X116350000Y-83050000D02*
X119650000Y-83050000D01*
X119650000Y-83050000D02*
X119650000Y-78450000D01*
G04 #@! TO.C,C13*
X114450000Y-76400000D02*
X108750000Y-76400000D01*
X108750000Y-76400000D02*
X108750000Y-82100000D01*
X108750000Y-82100000D02*
X114450000Y-82100000D01*
X114450000Y-82100000D02*
X114450000Y-76400000D01*
G04 #@! TO.C,C15*
X114450000Y-84800000D02*
X108750000Y-84800000D01*
X108750000Y-84800000D02*
X108750000Y-90500000D01*
X108750000Y-90500000D02*
X114450000Y-90500000D01*
X114450000Y-90500000D02*
X114450000Y-84800000D01*
G04 #@! TO.C,C4*
X201250000Y-108350000D02*
X201250000Y-106050000D01*
X201250000Y-106050000D02*
X196650000Y-106050000D01*
X196650000Y-106050000D02*
X196650000Y-108350000D01*
X196650000Y-108350000D02*
X201250000Y-108350000D01*
G04 #@! TO.C,C5*
X201410000Y-113040000D02*
X201410000Y-110740000D01*
X201410000Y-110740000D02*
X196810000Y-110740000D01*
X196810000Y-110740000D02*
X196810000Y-113040000D01*
X196810000Y-113040000D02*
X201410000Y-113040000D01*
G04 #@! TO.C,J8*
X128850000Y-104350000D02*
X128850000Y-83450000D01*
X128850000Y-83450000D02*
X123150000Y-83450000D01*
X123150000Y-83450000D02*
X123150000Y-104350000D01*
X123150000Y-104350000D02*
X128850000Y-104350000D01*
G04 #@! TO.C,SW1*
X107850000Y-133000000D02*
X114550000Y-133000000D01*
X107850000Y-126700000D02*
X107850000Y-133000000D01*
X116150000Y-126700000D02*
X107850000Y-126700000D01*
X116150000Y-131850000D02*
X116150000Y-126700000D01*
X116150000Y-133000000D02*
X114550000Y-133000000D01*
X116150000Y-131850000D02*
X116150000Y-133000000D01*
G04 #@! TO.C,SW2*
X120950000Y-133100000D02*
X127650000Y-133100000D01*
X120950000Y-126800000D02*
X120950000Y-133100000D01*
X129250000Y-126800000D02*
X120950000Y-126800000D01*
X129250000Y-131950000D02*
X129250000Y-126800000D01*
X129250000Y-133100000D02*
X127650000Y-133100000D01*
X129250000Y-131950000D02*
X129250000Y-133100000D01*
G04 #@! TO.C,SW3*
X133650000Y-133200000D02*
X140350000Y-133200000D01*
X133650000Y-126900000D02*
X133650000Y-133200000D01*
X141950000Y-126900000D02*
X133650000Y-126900000D01*
X141950000Y-132050000D02*
X141950000Y-126900000D01*
X141950000Y-133200000D02*
X140350000Y-133200000D01*
X141950000Y-132050000D02*
X141950000Y-133200000D01*
G04 #@! TO.C,SW4*
X146450000Y-133250000D02*
X153150000Y-133250000D01*
X146450000Y-126950000D02*
X146450000Y-133250000D01*
X154750000Y-126950000D02*
X146450000Y-126950000D01*
X154750000Y-132100000D02*
X154750000Y-126950000D01*
X154750000Y-133250000D02*
X153150000Y-133250000D01*
X154750000Y-132100000D02*
X154750000Y-133250000D01*
G04 #@! TO.C,SW5*
X158600000Y-133250000D02*
X165300000Y-133250000D01*
X158600000Y-126950000D02*
X158600000Y-133250000D01*
X166900000Y-126950000D02*
X158600000Y-126950000D01*
X166900000Y-132100000D02*
X166900000Y-126950000D01*
X166900000Y-133250000D02*
X165300000Y-133250000D01*
X166900000Y-132100000D02*
X166900000Y-133250000D01*
G04 #@! TO.C,SW7*
X170350000Y-133200000D02*
X177050000Y-133200000D01*
X170350000Y-126900000D02*
X170350000Y-133200000D01*
X178650000Y-126900000D02*
X170350000Y-126900000D01*
X178650000Y-132050000D02*
X178650000Y-126900000D01*
X178650000Y-133200000D02*
X177050000Y-133200000D01*
X178650000Y-132050000D02*
X178650000Y-133200000D01*
G04 #@! TO.C,SW8*
X182200000Y-133150000D02*
X188900000Y-133150000D01*
X182200000Y-126850000D02*
X182200000Y-133150000D01*
X190500000Y-126850000D02*
X182200000Y-126850000D01*
X190500000Y-132000000D02*
X190500000Y-126850000D01*
X190500000Y-133150000D02*
X188900000Y-133150000D01*
X190500000Y-132000000D02*
X190500000Y-133150000D01*
G04 #@! TO.C,SW9*
X194400000Y-133250000D02*
X201100000Y-133250000D01*
X194400000Y-126950000D02*
X194400000Y-133250000D01*
X202700000Y-126950000D02*
X194400000Y-126950000D01*
X202700000Y-132100000D02*
X202700000Y-126950000D01*
X202700000Y-133250000D02*
X201100000Y-133250000D01*
X202700000Y-132100000D02*
X202700000Y-133250000D01*
G04 #@! TO.C,J10*
X142500000Y-119200000D02*
X166000000Y-119200000D01*
X166000000Y-119200000D02*
X166000000Y-116000000D01*
X166000000Y-116000000D02*
X142500000Y-116000000D01*
X142500000Y-116000000D02*
X142500000Y-119200000D01*
G04 #@! TO.C,J11*
X142500000Y-122000000D02*
X166000000Y-122000000D01*
X166000000Y-122000000D02*
X166000000Y-118800000D01*
X166000000Y-118800000D02*
X142500000Y-118800000D01*
X142500000Y-118800000D02*
X142500000Y-122000000D01*
G04 #@! TO.C,HOLE3*
X106150000Y-116950000D02*
G75*
G03X106150000Y-116950000I-2450000J0D01*
G01*
G04 #@! TD*
M02*
