M48
;DRILL file {KiCad 5.0.2+dfsg1-1} date lun 11 feb 2019 17:56:47 CET
;FORMAT={-:-/ absolute / metric / decimal}
FMAT,2
METRIC,TZ
T1C0.300
T2C0.600
T3C0.700
T4C0.800
T5C0.900
T6C1.000
T7C1.001
T8C1.143
T9C1.300
T10C2.200
%
G90
G05
T1
X120.268Y-84.358
X128.24Y-134.5
X129.88Y-102.01
X132.216Y-104.283
X134.372Y-88.8
X134.742Y-87.737
X135.663Y-76.095
X136.61Y-95.647
X137.525Y-97.58
X138.27Y-78.739
X139.933Y-103.72
X147.974Y-110.003
X149.664Y-115.557
X150.905Y-113.704
X155.132Y-125.76
X155.674Y-92.305
X156.044Y-70.396
X156.711Y-88.454
X159.059Y-91.
X161.152Y-105.667
X163.332Y-132.151
X163.857Y-82.167
X164.082Y-92.305
X164.333Y-125.901
X167.173Y-92.147
X172.217Y-90.81
X177.74Y-92.018
X179.976Y-79.152
X183.352Y-87.821
X185.066Y-87.872
X185.559Y-83.448
X185.559Y-84.954
X187.909Y-104.166
X190.162Y-89.1
X191.644Y-88.459
T3
X163.469Y-71.298
T4
X186.58Y-107.6
X194.2Y-107.6
X153.5Y-80.75
X163.66Y-80.75
X141.Y-80.25
X148.62Y-80.25
X118.65Y-129.4
X118.65Y-131.9
X136.5Y-60.7
X136.5Y-64.5
X158.32Y-106.4
X163.2Y-106.4
X118.2Y-86.1
X118.2Y-88.6
X186.78Y-112.6
X194.4Y-112.6
X118.Y-79.5
X118.Y-82.
X126.5Y-60.7
X126.5Y-64.5
X138.2Y-107.4
X145.82Y-107.4
X125.6Y-112.6
X133.22Y-112.6
X125.6Y-107.4
X133.22Y-107.4
X128.5Y-80.25
X136.12Y-80.25
X200.75Y-90.5
X200.75Y-93.
X156.75Y-129.65
X156.75Y-132.15
X180.5Y-129.65
X180.5Y-132.15
X134.65Y-85.76
X134.65Y-101.
X137.19Y-85.76
X137.19Y-101.
X139.73Y-85.76
X139.73Y-101.
X142.27Y-85.76
X142.27Y-101.
X144.81Y-85.76
X144.81Y-101.
X147.35Y-85.76
X147.35Y-101.
X149.89Y-85.76
X149.89Y-101.
X152.43Y-85.76
X152.43Y-101.
X154.97Y-85.76
X154.97Y-101.
X157.51Y-85.76
X157.51Y-101.
X160.05Y-85.76
X160.05Y-101.
X162.59Y-85.76
X162.59Y-101.
X165.13Y-85.76
X165.13Y-101.
X167.67Y-85.76
X167.67Y-101.
X170.21Y-85.76
X170.21Y-101.
X172.75Y-85.76
X172.75Y-101.
X175.29Y-85.76
X175.29Y-101.
X177.83Y-85.76
X177.83Y-101.
X180.37Y-85.76
X180.37Y-101.
X182.91Y-85.76
X182.91Y-101.
X144.35Y-129.55
X144.35Y-132.05
X189.38Y-81.
X197.Y-81.
X168.65Y-129.65
X168.65Y-132.15
X158.59Y-75.5
X168.75Y-75.5
X192.5Y-129.5
X192.5Y-132.
X200.75Y-80.5
X200.75Y-83.
X197.86Y-111.89
X200.36Y-111.89
X131.55Y-129.5
X131.55Y-132.
X113.6Y-112.6
X121.22Y-112.6
X111.6Y-86.4
X111.6Y-88.9
X111.6Y-78.
X111.6Y-80.5
X189.88Y-95.25
X189.88Y-102.87
X192.42Y-95.25
X192.42Y-102.87
X194.96Y-95.25
X194.96Y-102.87
X197.5Y-95.25
X197.5Y-102.87
X189.5Y-91.
X197.12Y-91.
X170.Y-105.8
X170.Y-108.3
X152.2Y-112.6
X159.82Y-112.6
X189.38Y-85.75
X197.Y-85.75
X174.4Y-112.6
X182.02Y-112.6
X113.6Y-107.4
X121.22Y-107.4
X151.2Y-105.6
X151.2Y-108.1
X197.7Y-107.2
X200.2Y-107.2
X174.4Y-107.6
X182.02Y-107.6
X138.2Y-112.6
X145.82Y-112.6
T5
X100.55Y-120.45
X102.05Y-120.45
X103.55Y-120.45
X105.05Y-120.45
X106.55Y-120.45
X107.95Y-120.45
X109.5Y-120.45
X111.Y-120.45
X112.5Y-120.45
X114.Y-120.45
X115.5Y-120.45
X116.95Y-120.45
X118.5Y-120.45
X120.Y-120.45
X121.5Y-120.45
X123.Y-120.45
X124.5Y-120.45
X125.95Y-120.45
X127.5Y-120.45
X129.Y-120.45
X130.5Y-120.45
X132.Y-120.45
X133.5Y-120.45
X134.95Y-120.4
X136.5Y-120.4
X138.Y-120.4
X139.5Y-120.4
X141.Y-120.4
X142.5Y-120.4
X166.Y-120.45
X167.45Y-120.45
X168.95Y-120.45
X170.45Y-120.45
X171.95Y-120.45
X173.45Y-120.45
X174.85Y-120.45
X176.4Y-120.45
X177.9Y-120.45
X179.4Y-120.45
X180.9Y-120.45
X182.4Y-120.45
X183.85Y-120.45
X185.4Y-120.45
X186.9Y-120.45
X188.4Y-120.45
X189.9Y-120.45
X191.4Y-120.45
X192.85Y-120.45
X194.4Y-120.45
X195.9Y-120.45
X197.4Y-120.45
X198.9Y-120.45
X200.4Y-120.45
X201.85Y-120.4
X203.4Y-120.4
X204.9Y-120.4
X206.4Y-120.4
X207.9Y-120.4
X209.4Y-120.4
X179.Y-64.5
X186.62Y-64.5
X203.96Y-81.75
X206.5Y-81.75
X176.38Y-69.75
X184.Y-69.75
X203.96Y-91.75
X206.5Y-91.75
X203.96Y-112.5
X206.5Y-112.5
X203.96Y-102.
X206.5Y-102.
T6
X175.Y-76.
X177.54Y-76.
X180.08Y-76.
X182.62Y-76.
X185.16Y-76.
X187.7Y-76.
X195.55Y-128.1
X195.55Y-132.1
X201.55Y-128.1
X201.55Y-132.1
X134.8Y-128.05
X134.8Y-132.05
X140.8Y-128.05
X140.8Y-132.05
X167.75Y-80.9
X170.29Y-80.9
X172.83Y-80.9
X175.37Y-80.9
X177.91Y-80.9
X180.45Y-80.9
X159.75Y-128.1
X159.75Y-132.1
X165.75Y-128.1
X165.75Y-132.1
X194.31Y-70.739
X194.31Y-73.279
X194.31Y-75.819
X144.1Y-117.6
X146.64Y-117.6
X149.18Y-117.6
X151.72Y-117.6
X154.26Y-117.6
X156.8Y-117.6
X159.34Y-117.6
X161.88Y-117.6
X164.42Y-117.6
X109.Y-127.85
X109.Y-131.85
X115.Y-127.85
X115.Y-131.85
X183.35Y-128.
X183.35Y-132.
X189.35Y-128.
X189.35Y-132.
X124.71Y-84.97
X124.71Y-87.51
X124.71Y-90.05
X124.71Y-92.59
X124.71Y-95.13
X124.71Y-97.67
X124.71Y-100.21
X124.71Y-102.75
X127.25Y-84.97
X127.25Y-87.51
X127.25Y-90.05
X127.25Y-92.59
X127.25Y-95.13
X127.25Y-97.67
X127.25Y-100.21
X127.25Y-102.75
X122.1Y-127.95
X122.1Y-131.95
X128.1Y-127.95
X128.1Y-131.95
X115.5Y-73.
X118.04Y-73.
X120.58Y-73.
X123.12Y-73.
X125.66Y-73.
X128.2Y-73.
X130.74Y-73.
X133.28Y-73.
X135.82Y-73.
X138.36Y-73.
X140.9Y-73.
X143.44Y-73.
X145.98Y-73.
X148.52Y-73.
X151.06Y-73.
X153.6Y-73.
X166.46Y-112.6
X169.Y-112.6
X204.Y-107.
X206.54Y-107.
X201.5Y-86.5
X204.04Y-86.5
X206.58Y-86.5
X147.6Y-128.1
X147.6Y-132.1
X153.6Y-128.1
X153.6Y-132.1
X171.5Y-128.05
X171.5Y-132.05
X177.5Y-128.05
X177.5Y-132.05
X144.1Y-123.
X146.64Y-123.
X149.18Y-123.
X151.72Y-123.
X154.26Y-123.
X156.8Y-123.
X159.34Y-123.
X161.88Y-123.
X164.42Y-123.
X204.Y-97.
X206.54Y-97.
X144.1Y-120.4
X146.64Y-120.4
X149.18Y-120.4
X151.72Y-120.4
X154.26Y-120.4
X156.8Y-120.4
X159.34Y-120.4
X161.88Y-120.4
X164.42Y-120.4
T7
X144.2Y-63.
X151.8Y-63.
T8
X104.Y-86.96
X104.Y-89.5
X104.Y-92.04
X104.Y-74.21
X104.Y-76.75
X104.Y-79.29
T9
X113.6Y-96.4
X113.6Y-101.4
X118.6Y-98.9
X103.99Y-99.61
X103.99Y-104.61
X103.99Y-109.61
T10
X195.25Y-117.1
X103.7Y-116.95
X103.9Y-130.05
X206.05Y-129.9
X118.5Y-63.85
T2
X105.904Y-66.88G85X105.904Y-67.48
G05
X110.504Y-58.78G85X110.504Y-59.38
G05
X110.504Y-61.78G85X110.504Y-62.38
G05
X110.504Y-65.78G85X110.504Y-66.38
G05
T4
X160.4Y-65.1G85X160.4Y-64.9
G05
X160.4Y-67.4G85X160.4Y-67.2
G05
X162.5Y-65.1G85X162.5Y-64.9
G05
X165.1Y-65.1G85X165.1Y-64.9
G05
X167.2Y-65.1G85X167.2Y-64.9
G05
X167.2Y-67.4G85X167.2Y-67.2
G05
T6
X199.771Y-73.644G85X199.771Y-71.644
G05
X203.771Y-67.944G85X201.771Y-67.944
G05
X205.771Y-73.644G85X205.771Y-71.644
G05
X156.95Y-62.4G85X156.95Y-60.9
G05
X164.8Y-61.35G85X162.8Y-61.35
G05
X170.65Y-62.4G85X170.65Y-60.9
G05
T0
M30
