%FSLAX45Y45*%
G04 Gerber Fmt 4.5, Leading zero omitted, Abs format (unit mm)*
G04 Created by KiCad (PCBNEW 5.0.2+dfsg1-1) date gio 18 apr 2019 10:12:51 CEST*
%MOMM*%
%LPD*%
G01*
G04 APERTURE LIST*
%ADD10C,0.100000*%
%ADD11C,0.200000*%
%ADD12C,0.300000*%
G04 APERTURE END LIST*
D10*
X21000000Y-5835000D02*
X21000000Y-5595000D01*
X10000000Y-5835000D02*
X10000000Y-5595000D01*
X10000000Y-5593600D02*
X21000000Y-5593600D01*
X10000000Y-13338600D02*
X10000000Y-5838600D01*
X21000000Y-13340000D02*
X10000000Y-13340000D01*
X21000000Y-5838600D02*
X21000000Y-13338600D01*
D11*
X10745400Y-5673000D02*
X10895400Y-5823000D01*
X10895400Y-5673000D02*
X10745400Y-5823000D01*
X10745400Y-6373000D02*
X10895400Y-6523000D01*
X10895400Y-6373000D02*
X10745400Y-6523000D01*
X18125000Y-5670000D02*
X18275000Y-5820000D01*
X18275000Y-5670000D02*
X18125000Y-5820000D01*
X18125000Y-6370000D02*
X18275000Y-6520000D01*
X18275000Y-6370000D02*
X18125000Y-6520000D01*
D12*
X10281428Y-13810714D02*
X10281428Y-13510714D01*
X10352857Y-13510714D01*
X10395714Y-13525000D01*
X10424286Y-13553571D01*
X10438571Y-13582143D01*
X10452857Y-13639286D01*
X10452857Y-13682143D01*
X10438571Y-13739286D01*
X10424286Y-13767857D01*
X10395714Y-13796429D01*
X10352857Y-13810714D01*
X10281428Y-13810714D01*
X10581428Y-13810714D02*
X10581428Y-13610714D01*
X10581428Y-13667857D02*
X10595714Y-13639286D01*
X10610000Y-13625000D01*
X10638571Y-13610714D01*
X10667143Y-13610714D01*
X10767143Y-13810714D02*
X10767143Y-13610714D01*
X10767143Y-13510714D02*
X10752857Y-13525000D01*
X10767143Y-13539286D01*
X10781428Y-13525000D01*
X10767143Y-13510714D01*
X10767143Y-13539286D01*
X10952857Y-13810714D02*
X10924286Y-13796429D01*
X10910000Y-13767857D01*
X10910000Y-13510714D01*
X11110000Y-13810714D02*
X11081428Y-13796429D01*
X11067143Y-13767857D01*
X11067143Y-13510714D01*
X11452857Y-13810714D02*
X11452857Y-13510714D01*
X11552857Y-13725000D01*
X11652857Y-13510714D01*
X11652857Y-13810714D01*
X11924286Y-13810714D02*
X11924286Y-13653571D01*
X11910000Y-13625000D01*
X11881428Y-13610714D01*
X11824286Y-13610714D01*
X11795714Y-13625000D01*
X11924286Y-13796429D02*
X11895714Y-13810714D01*
X11824286Y-13810714D01*
X11795714Y-13796429D01*
X11781428Y-13767857D01*
X11781428Y-13739286D01*
X11795714Y-13710714D01*
X11824286Y-13696429D01*
X11895714Y-13696429D01*
X11924286Y-13682143D01*
X12067143Y-13610714D02*
X12067143Y-13910714D01*
X12067143Y-13625000D02*
X12095714Y-13610714D01*
X12152857Y-13610714D01*
X12181428Y-13625000D01*
X12195714Y-13639286D01*
X12210000Y-13667857D01*
X12210000Y-13753571D01*
X12195714Y-13782143D01*
X12181428Y-13796429D01*
X12152857Y-13810714D01*
X12095714Y-13810714D01*
X12067143Y-13796429D01*
X12338571Y-13782143D02*
X12352857Y-13796429D01*
X12338571Y-13810714D01*
X12324286Y-13796429D01*
X12338571Y-13782143D01*
X12338571Y-13810714D01*
X12338571Y-13625000D02*
X12352857Y-13639286D01*
X12338571Y-13653571D01*
X12324286Y-13639286D01*
X12338571Y-13625000D01*
X12338571Y-13653571D01*
X9845000Y-14230000D02*
X9995000Y-14380000D01*
X9995000Y-14230000D02*
X9845000Y-14380000D01*
X10438571Y-14440714D02*
X10267143Y-14440714D01*
X10352857Y-14440714D02*
X10352857Y-14140714D01*
X10324286Y-14183571D01*
X10295714Y-14212143D01*
X10267143Y-14226429D01*
X10567143Y-14412143D02*
X10581428Y-14426429D01*
X10567143Y-14440714D01*
X10552857Y-14426429D01*
X10567143Y-14412143D01*
X10567143Y-14440714D01*
X10852857Y-14140714D02*
X10710000Y-14140714D01*
X10695714Y-14283571D01*
X10710000Y-14269286D01*
X10738571Y-14255000D01*
X10810000Y-14255000D01*
X10838571Y-14269286D01*
X10852857Y-14283571D01*
X10867143Y-14312143D01*
X10867143Y-14383571D01*
X10852857Y-14412143D01*
X10838571Y-14426429D01*
X10810000Y-14440714D01*
X10738571Y-14440714D01*
X10710000Y-14426429D01*
X10695714Y-14412143D01*
X11052857Y-14140714D02*
X11081428Y-14140714D01*
X11110000Y-14155000D01*
X11124286Y-14169286D01*
X11138571Y-14197857D01*
X11152857Y-14255000D01*
X11152857Y-14326429D01*
X11138571Y-14383571D01*
X11124286Y-14412143D01*
X11110000Y-14426429D01*
X11081428Y-14440714D01*
X11052857Y-14440714D01*
X11024286Y-14426429D01*
X11010000Y-14412143D01*
X10995714Y-14383571D01*
X10981428Y-14326429D01*
X10981428Y-14255000D01*
X10995714Y-14197857D01*
X11010000Y-14169286D01*
X11024286Y-14155000D01*
X11052857Y-14140714D01*
X11281428Y-14440714D02*
X11281428Y-14240714D01*
X11281428Y-14269286D02*
X11295714Y-14255000D01*
X11324286Y-14240714D01*
X11367143Y-14240714D01*
X11395714Y-14255000D01*
X11410000Y-14283571D01*
X11410000Y-14440714D01*
X11410000Y-14283571D02*
X11424286Y-14255000D01*
X11452857Y-14240714D01*
X11495714Y-14240714D01*
X11524286Y-14255000D01*
X11538571Y-14283571D01*
X11538571Y-14440714D01*
X11681428Y-14440714D02*
X11681428Y-14240714D01*
X11681428Y-14269286D02*
X11695714Y-14255000D01*
X11724286Y-14240714D01*
X11767143Y-14240714D01*
X11795714Y-14255000D01*
X11810000Y-14283571D01*
X11810000Y-14440714D01*
X11810000Y-14283571D02*
X11824286Y-14255000D01*
X11852857Y-14240714D01*
X11895714Y-14240714D01*
X11924286Y-14255000D01*
X11938571Y-14283571D01*
X11938571Y-14440714D01*
X12524286Y-14126429D02*
X12267143Y-14512143D01*
X12910000Y-14140714D02*
X12938571Y-14140714D01*
X12967143Y-14155000D01*
X12981428Y-14169286D01*
X12995714Y-14197857D01*
X13010000Y-14255000D01*
X13010000Y-14326429D01*
X12995714Y-14383571D01*
X12981428Y-14412143D01*
X12967143Y-14426429D01*
X12938571Y-14440714D01*
X12910000Y-14440714D01*
X12881428Y-14426429D01*
X12867143Y-14412143D01*
X12852857Y-14383571D01*
X12838571Y-14326429D01*
X12838571Y-14255000D01*
X12852857Y-14197857D01*
X12867143Y-14169286D01*
X12881428Y-14155000D01*
X12910000Y-14140714D01*
X13138571Y-14412143D02*
X13152857Y-14426429D01*
X13138571Y-14440714D01*
X13124286Y-14426429D01*
X13138571Y-14412143D01*
X13138571Y-14440714D01*
X13338571Y-14140714D02*
X13367143Y-14140714D01*
X13395714Y-14155000D01*
X13410000Y-14169286D01*
X13424286Y-14197857D01*
X13438571Y-14255000D01*
X13438571Y-14326429D01*
X13424286Y-14383571D01*
X13410000Y-14412143D01*
X13395714Y-14426429D01*
X13367143Y-14440714D01*
X13338571Y-14440714D01*
X13310000Y-14426429D01*
X13295714Y-14412143D01*
X13281428Y-14383571D01*
X13267143Y-14326429D01*
X13267143Y-14255000D01*
X13281428Y-14197857D01*
X13295714Y-14169286D01*
X13310000Y-14155000D01*
X13338571Y-14140714D01*
X13710000Y-14140714D02*
X13567143Y-14140714D01*
X13552857Y-14283571D01*
X13567143Y-14269286D01*
X13595714Y-14255000D01*
X13667143Y-14255000D01*
X13695714Y-14269286D01*
X13710000Y-14283571D01*
X13724286Y-14312143D01*
X13724286Y-14383571D01*
X13710000Y-14412143D01*
X13695714Y-14426429D01*
X13667143Y-14440714D01*
X13595714Y-14440714D01*
X13567143Y-14426429D01*
X13552857Y-14412143D01*
X13867143Y-14440714D02*
X13924286Y-14440714D01*
X13952857Y-14426429D01*
X13967143Y-14412143D01*
X13995714Y-14369286D01*
X14010000Y-14312143D01*
X14010000Y-14197857D01*
X13995714Y-14169286D01*
X13981428Y-14155000D01*
X13952857Y-14140714D01*
X13895714Y-14140714D01*
X13867143Y-14155000D01*
X13852857Y-14169286D01*
X13838571Y-14197857D01*
X13838571Y-14269286D01*
X13852857Y-14297857D01*
X13867143Y-14312143D01*
X13895714Y-14326429D01*
X13952857Y-14326429D01*
X13981428Y-14312143D01*
X13995714Y-14297857D01*
X14010000Y-14269286D01*
X14124286Y-14140714D02*
X14124286Y-14197857D01*
X14238571Y-14140714D02*
X14238571Y-14197857D01*
X14681428Y-14555000D02*
X14667143Y-14540714D01*
X14638571Y-14497857D01*
X14624286Y-14469286D01*
X14610000Y-14426429D01*
X14595714Y-14355000D01*
X14595714Y-14297857D01*
X14610000Y-14226429D01*
X14624286Y-14183571D01*
X14638571Y-14155000D01*
X14667143Y-14112143D01*
X14681428Y-14097857D01*
X14924286Y-14240714D02*
X14924286Y-14440714D01*
X14852857Y-14126429D02*
X14781428Y-14340714D01*
X14967143Y-14340714D01*
X15310000Y-14440714D02*
X15310000Y-14140714D01*
X15438571Y-14440714D02*
X15438571Y-14283571D01*
X15424286Y-14255000D01*
X15395714Y-14240714D01*
X15352857Y-14240714D01*
X15324286Y-14255000D01*
X15310000Y-14269286D01*
X15624286Y-14440714D02*
X15595714Y-14426429D01*
X15581428Y-14412143D01*
X15567143Y-14383571D01*
X15567143Y-14297857D01*
X15581428Y-14269286D01*
X15595714Y-14255000D01*
X15624286Y-14240714D01*
X15667143Y-14240714D01*
X15695714Y-14255000D01*
X15710000Y-14269286D01*
X15724286Y-14297857D01*
X15724286Y-14383571D01*
X15710000Y-14412143D01*
X15695714Y-14426429D01*
X15667143Y-14440714D01*
X15624286Y-14440714D01*
X15895714Y-14440714D02*
X15867143Y-14426429D01*
X15852857Y-14397857D01*
X15852857Y-14140714D01*
X16124286Y-14426429D02*
X16095714Y-14440714D01*
X16038571Y-14440714D01*
X16010000Y-14426429D01*
X15995714Y-14397857D01*
X15995714Y-14283571D01*
X16010000Y-14255000D01*
X16038571Y-14240714D01*
X16095714Y-14240714D01*
X16124286Y-14255000D01*
X16138571Y-14283571D01*
X16138571Y-14312143D01*
X15995714Y-14340714D01*
X16252857Y-14426429D02*
X16281428Y-14440714D01*
X16338571Y-14440714D01*
X16367143Y-14426429D01*
X16381428Y-14397857D01*
X16381428Y-14383571D01*
X16367143Y-14355000D01*
X16338571Y-14340714D01*
X16295714Y-14340714D01*
X16267143Y-14326429D01*
X16252857Y-14297857D01*
X16252857Y-14283571D01*
X16267143Y-14255000D01*
X16295714Y-14240714D01*
X16338571Y-14240714D01*
X16367143Y-14255000D01*
X16481428Y-14555000D02*
X16495714Y-14540714D01*
X16524286Y-14497857D01*
X16538571Y-14469286D01*
X16552857Y-14426429D01*
X16567143Y-14355000D01*
X16567143Y-14297857D01*
X16552857Y-14226429D01*
X16538571Y-14183571D01*
X16524286Y-14155000D01*
X16495714Y-14112143D01*
X16481428Y-14097857D01*
X17024286Y-14555000D02*
X17010000Y-14540714D01*
X16981428Y-14497857D01*
X16967143Y-14469286D01*
X16952857Y-14426429D01*
X16938571Y-14355000D01*
X16938571Y-14297857D01*
X16952857Y-14226429D01*
X16967143Y-14183571D01*
X16981428Y-14155000D01*
X17010000Y-14112143D01*
X17024286Y-14097857D01*
X17138571Y-14240714D02*
X17138571Y-14440714D01*
X17138571Y-14269286D02*
X17152857Y-14255000D01*
X17181428Y-14240714D01*
X17224286Y-14240714D01*
X17252857Y-14255000D01*
X17267143Y-14283571D01*
X17267143Y-14440714D01*
X17452857Y-14440714D02*
X17424286Y-14426429D01*
X17410000Y-14412143D01*
X17395714Y-14383571D01*
X17395714Y-14297857D01*
X17410000Y-14269286D01*
X17424286Y-14255000D01*
X17452857Y-14240714D01*
X17495714Y-14240714D01*
X17524286Y-14255000D01*
X17538571Y-14269286D01*
X17552857Y-14297857D01*
X17552857Y-14383571D01*
X17538571Y-14412143D01*
X17524286Y-14426429D01*
X17495714Y-14440714D01*
X17452857Y-14440714D01*
X17638571Y-14240714D02*
X17752857Y-14240714D01*
X17681428Y-14140714D02*
X17681428Y-14397857D01*
X17695714Y-14426429D01*
X17724286Y-14440714D01*
X17752857Y-14440714D01*
X18081428Y-14240714D02*
X18081428Y-14540714D01*
X18081428Y-14255000D02*
X18110000Y-14240714D01*
X18167143Y-14240714D01*
X18195714Y-14255000D01*
X18210000Y-14269286D01*
X18224286Y-14297857D01*
X18224286Y-14383571D01*
X18210000Y-14412143D01*
X18195714Y-14426429D01*
X18167143Y-14440714D01*
X18110000Y-14440714D01*
X18081428Y-14426429D01*
X18395714Y-14440714D02*
X18367143Y-14426429D01*
X18352857Y-14397857D01*
X18352857Y-14140714D01*
X18638571Y-14440714D02*
X18638571Y-14283571D01*
X18624286Y-14255000D01*
X18595714Y-14240714D01*
X18538571Y-14240714D01*
X18510000Y-14255000D01*
X18638571Y-14426429D02*
X18610000Y-14440714D01*
X18538571Y-14440714D01*
X18510000Y-14426429D01*
X18495714Y-14397857D01*
X18495714Y-14369286D01*
X18510000Y-14340714D01*
X18538571Y-14326429D01*
X18610000Y-14326429D01*
X18638571Y-14312143D01*
X18738571Y-14240714D02*
X18852857Y-14240714D01*
X18781428Y-14140714D02*
X18781428Y-14397857D01*
X18795714Y-14426429D01*
X18824286Y-14440714D01*
X18852857Y-14440714D01*
X19067143Y-14426429D02*
X19038571Y-14440714D01*
X18981428Y-14440714D01*
X18952857Y-14426429D01*
X18938571Y-14397857D01*
X18938571Y-14283571D01*
X18952857Y-14255000D01*
X18981428Y-14240714D01*
X19038571Y-14240714D01*
X19067143Y-14255000D01*
X19081428Y-14283571D01*
X19081428Y-14312143D01*
X18938571Y-14340714D01*
X19338571Y-14440714D02*
X19338571Y-14140714D01*
X19338571Y-14426429D02*
X19310000Y-14440714D01*
X19252857Y-14440714D01*
X19224286Y-14426429D01*
X19210000Y-14412143D01*
X19195714Y-14383571D01*
X19195714Y-14297857D01*
X19210000Y-14269286D01*
X19224286Y-14255000D01*
X19252857Y-14240714D01*
X19310000Y-14240714D01*
X19338571Y-14255000D01*
X19452857Y-14555000D02*
X19467143Y-14540714D01*
X19495714Y-14497857D01*
X19510000Y-14469286D01*
X19524286Y-14426429D01*
X19538571Y-14355000D01*
X19538571Y-14297857D01*
X19524286Y-14226429D01*
X19510000Y-14183571D01*
X19495714Y-14155000D01*
X19467143Y-14112143D01*
X19452857Y-14097857D01*
M02*
