G04 #@! TF.GenerationSoftware,KiCad,Pcbnew,5.0.2+dfsg1-1*
G04 #@! TF.CreationDate,2019-04-18T10:12:34+02:00*
G04 #@! TF.ProjectId,yaacwk,79616163-776b-42e6-9b69-6361645f7063,1.3*
G04 #@! TF.SameCoordinates,Original*
G04 #@! TF.FileFunction,Copper,L2,Bot*
G04 #@! TF.FilePolarity,Positive*
%FSLAX46Y46*%
G04 Gerber Fmt 4.6, Leading zero omitted, Abs format (unit mm)*
G04 Created by KiCad (PCBNEW 5.0.2+dfsg1-1) date gio 18 apr 2019 10:12:34 CEST*
%MOMM*%
%LPD*%
G01*
G04 APERTURE LIST*
G04 #@! TA.AperFunction,ComponentPad*
%ADD10O,1.700000X1.700000*%
G04 #@! TD*
G04 #@! TA.AperFunction,ComponentPad*
%ADD11R,1.700000X1.700000*%
G04 #@! TD*
G04 #@! TA.AperFunction,ComponentPad*
%ADD12C,4.400000*%
G04 #@! TD*
G04 #@! TA.AperFunction,ComponentPad*
%ADD13O,2.000000X3.500000*%
G04 #@! TD*
G04 #@! TA.AperFunction,ComponentPad*
%ADD14C,1.600000*%
G04 #@! TD*
G04 #@! TA.AperFunction,ComponentPad*
%ADD15O,4.000000X2.000000*%
G04 #@! TD*
G04 #@! TA.AperFunction,ComponentPad*
%ADD16C,3.064000*%
G04 #@! TD*
G04 #@! TA.AperFunction,ComponentPad*
%ADD17C,2.000000*%
G04 #@! TD*
G04 #@! TA.AperFunction,ComponentPad*
%ADD18R,1.800000X1.800000*%
G04 #@! TD*
G04 #@! TA.AperFunction,ComponentPad*
%ADD19C,1.800000*%
G04 #@! TD*
G04 #@! TA.AperFunction,ComponentPad*
%ADD20R,1.600000X1.600000*%
G04 #@! TD*
G04 #@! TA.AperFunction,ComponentPad*
%ADD21O,1.600000X1.600000*%
G04 #@! TD*
G04 #@! TA.AperFunction,ComponentPad*
%ADD22C,1.500000*%
G04 #@! TD*
G04 #@! TA.AperFunction,ComponentPad*
%ADD23O,1.800000X1.800000*%
G04 #@! TD*
G04 #@! TA.AperFunction,ComponentPad*
%ADD24O,2.540000X2.032000*%
G04 #@! TD*
G04 #@! TA.AperFunction,ComponentPad*
%ADD25O,1.400000X2.000000*%
G04 #@! TD*
G04 #@! TA.AperFunction,ComponentPad*
%ADD26C,2.340000*%
G04 #@! TD*
G04 #@! TA.AperFunction,ComponentPad*
%ADD27R,3.500000X3.500000*%
G04 #@! TD*
G04 #@! TA.AperFunction,ComponentPad*
%ADD28C,1.700000*%
G04 #@! TD*
G04 #@! TA.AperFunction,ComponentPad*
%ADD29C,4.227000*%
G04 #@! TD*
G04 #@! TA.AperFunction,ComponentPad*
%ADD30C,4.039000*%
G04 #@! TD*
G04 #@! TA.AperFunction,ViaPad*
%ADD31C,1.100000*%
G04 #@! TD*
G04 #@! TA.AperFunction,ViaPad*
%ADD32C,0.400000*%
G04 #@! TD*
G04 #@! TA.AperFunction,Conductor*
%ADD33C,0.800000*%
G04 #@! TD*
G04 #@! TA.AperFunction,Conductor*
%ADD34C,1.000000*%
G04 #@! TD*
G04 APERTURE END LIST*
D10*
G04 #@! TO.P,J12,9*
G04 #@! TO.N,GND*
X164420000Y-123000000D03*
G04 #@! TO.P,J12,8*
G04 #@! TO.N,Net-(C19-Pad2)*
X161880000Y-123000000D03*
G04 #@! TO.P,J12,7*
G04 #@! TO.N,Net-(C18-Pad2)*
X159340000Y-123000000D03*
G04 #@! TO.P,J12,6*
G04 #@! TO.N,Net-(C17-Pad2)*
X156800000Y-123000000D03*
G04 #@! TO.P,J12,5*
G04 #@! TO.N,Net-(C9-Pad2)*
X154260000Y-123000000D03*
G04 #@! TO.P,J12,4*
G04 #@! TO.N,Net-(C8-Pad2)*
X151720000Y-123000000D03*
G04 #@! TO.P,J12,3*
G04 #@! TO.N,Net-(C7-Pad2)*
X149180000Y-123000000D03*
G04 #@! TO.P,J12,2*
G04 #@! TO.N,Net-(C6-Pad2)*
X146640000Y-123000000D03*
D11*
G04 #@! TO.P,J12,1*
G04 #@! TO.N,Net-(IC1-Pad39)*
X144100000Y-123000000D03*
G04 #@! TD*
D12*
G04 #@! TO.P,HOLE2,1*
G04 #@! TO.N,GND*
X118500000Y-63850000D03*
G04 #@! TD*
G04 #@! TO.P,HOLE4,1*
G04 #@! TO.N,GND*
X195050000Y-116900000D03*
G04 #@! TD*
G04 #@! TO.P,HOLE6,1*
G04 #@! TO.N,GND*
X206050000Y-127500000D03*
G04 #@! TD*
G04 #@! TO.P,HOLE5,1*
G04 #@! TO.N,GND*
X103900000Y-127550000D03*
G04 #@! TD*
D13*
G04 #@! TO.P,PS2CONN1,7*
G04 #@! TO.N,Net-(PS2CONN1-Pad7)*
X170800000Y-61650000D03*
X157100000Y-61650000D03*
D14*
G04 #@! TO.P,PS2CONN1,1*
G04 #@! TO.N,Net-(L2-Pad2)*
X162650000Y-65000000D03*
G04 #@! TO.P,PS2CONN1,2*
G04 #@! TO.N,N/C*
X165250000Y-65000000D03*
G04 #@! TO.P,PS2CONN1,3*
G04 #@! TO.N,GND*
X160550000Y-65000000D03*
G04 #@! TO.P,PS2CONN1,4*
G04 #@! TO.N,Net-(C16-Pad1)*
X167350000Y-65000000D03*
G04 #@! TO.P,PS2CONN1,5*
G04 #@! TO.N,Net-(L1-Pad2)*
X160550000Y-67300000D03*
G04 #@! TO.P,PS2CONN1,6*
G04 #@! TO.N,N/C*
X167350000Y-67300000D03*
D15*
G04 #@! TO.P,PS2CONN1,7*
G04 #@! TO.N,Net-(PS2CONN1-Pad7)*
X163950000Y-61350000D03*
G04 #@! TD*
D16*
G04 #@! TO.P,HOLE1,*
G04 #@! TO.N,*
X195072000Y-62992000D03*
G04 #@! TD*
D17*
G04 #@! TO.P,BZ1,1*
G04 #@! TO.N,Net-(BZ1-Pad1)*
X151849840Y-62250000D03*
G04 #@! TO.P,BZ1,2*
G04 #@! TO.N,GND*
X144250160Y-62250000D03*
G04 #@! TD*
D18*
G04 #@! TO.P,D1,1*
G04 #@! TO.N,GND*
X207850000Y-96350000D03*
D19*
G04 #@! TO.P,D1,2*
G04 #@! TO.N,Net-(D1-Pad2)*
X205310000Y-96350000D03*
G04 #@! TD*
D18*
G04 #@! TO.P,D2,1*
G04 #@! TO.N,GND*
X207700000Y-108350000D03*
D19*
G04 #@! TO.P,D2,2*
G04 #@! TO.N,Net-(D2-Pad2)*
X205160000Y-108350000D03*
G04 #@! TD*
D18*
G04 #@! TO.P,D3,1*
G04 #@! TO.N,GND*
X207850000Y-102350000D03*
D19*
G04 #@! TO.P,D3,2*
G04 #@! TO.N,Net-(D3-Pad2)*
X205310000Y-102350000D03*
G04 #@! TD*
D20*
G04 #@! TO.P,IC1,1*
G04 #@! TO.N,Net-(IC1-Pad1)*
X134650000Y-101000000D03*
D21*
G04 #@! TO.P,IC1,21*
G04 #@! TO.N,Net-(DS1-Pad14)*
X182910000Y-85760000D03*
G04 #@! TO.P,IC1,2*
G04 #@! TO.N,Net-(IC1-Pad2)*
X137190000Y-101000000D03*
G04 #@! TO.P,IC1,22*
G04 #@! TO.N,Net-(IC1-Pad22)*
X180370000Y-85760000D03*
G04 #@! TO.P,IC1,3*
G04 #@! TO.N,Net-(IC1-Pad3)*
X139730000Y-101000000D03*
G04 #@! TO.P,IC1,23*
G04 #@! TO.N,Net-(IC1-Pad23)*
X177830000Y-85760000D03*
G04 #@! TO.P,IC1,4*
G04 #@! TO.N,Net-(IC1-Pad4)*
X142270000Y-101000000D03*
G04 #@! TO.P,IC1,24*
G04 #@! TO.N,Net-(IC1-Pad24)*
X175290000Y-85760000D03*
G04 #@! TO.P,IC1,5*
G04 #@! TO.N,Net-(IC1-Pad5)*
X144810000Y-101000000D03*
G04 #@! TO.P,IC1,25*
G04 #@! TO.N,Net-(IC1-Pad25)*
X172750000Y-85760000D03*
G04 #@! TO.P,IC1,6*
G04 #@! TO.N,Net-(IC1-Pad6)*
X147350000Y-101000000D03*
G04 #@! TO.P,IC1,26*
G04 #@! TO.N,Net-(DS1-Pad6)*
X170210000Y-85760000D03*
G04 #@! TO.P,IC1,7*
G04 #@! TO.N,Net-(IC1-Pad7)*
X149890000Y-101000000D03*
G04 #@! TO.P,IC1,27*
G04 #@! TO.N,Net-(C2-Pad1)*
X167670000Y-85760000D03*
G04 #@! TO.P,IC1,8*
G04 #@! TO.N,Net-(IC1-Pad8)*
X152430000Y-101000000D03*
G04 #@! TO.P,IC1,28*
G04 #@! TO.N,Net-(C3-Pad1)*
X165130000Y-85760000D03*
G04 #@! TO.P,IC1,9*
G04 #@! TO.N,Net-(IC1-Pad9)*
X154970000Y-101000000D03*
G04 #@! TO.P,IC1,29*
G04 #@! TO.N,Net-(BZ1-Pad1)*
X162590000Y-85760000D03*
G04 #@! TO.P,IC1,10*
G04 #@! TO.N,Net-(C16-Pad1)*
X157510000Y-101000000D03*
G04 #@! TO.P,IC1,30*
X160050000Y-85760000D03*
G04 #@! TO.P,IC1,11*
G04 #@! TO.N,GND*
X160050000Y-101000000D03*
G04 #@! TO.P,IC1,31*
X157510000Y-85760000D03*
G04 #@! TO.P,IC1,12*
G04 #@! TO.N,Net-(C11-Pad2)*
X162590000Y-101000000D03*
G04 #@! TO.P,IC1,32*
G04 #@! TO.N,N/C*
X154970000Y-85760000D03*
G04 #@! TO.P,IC1,13*
G04 #@! TO.N,Net-(C10-Pad2)*
X165130000Y-101000000D03*
G04 #@! TO.P,IC1,33*
G04 #@! TO.N,Net-(IC1-Pad33)*
X152430000Y-85760000D03*
G04 #@! TO.P,IC1,14*
G04 #@! TO.N,Net-(IC1-Pad14)*
X167670000Y-101000000D03*
G04 #@! TO.P,IC1,34*
G04 #@! TO.N,Net-(D4-Pad2)*
X149890000Y-85760000D03*
G04 #@! TO.P,IC1,15*
G04 #@! TO.N,Net-(IC1-Pad15)*
X170210000Y-101000000D03*
G04 #@! TO.P,IC1,35*
G04 #@! TO.N,Net-(C12-Pad2)*
X147350000Y-85760000D03*
G04 #@! TO.P,IC1,16*
G04 #@! TO.N,Net-(IC1-Pad16)*
X172750000Y-101000000D03*
G04 #@! TO.P,IC1,36*
G04 #@! TO.N,Net-(IC1-Pad36)*
X144810000Y-85760000D03*
G04 #@! TO.P,IC1,17*
G04 #@! TO.N,Net-(IC1-Pad17)*
X175290000Y-101000000D03*
G04 #@! TO.P,IC1,37*
G04 #@! TO.N,Net-(IC1-Pad37)*
X142270000Y-85760000D03*
G04 #@! TO.P,IC1,18*
G04 #@! TO.N,Net-(DS1-Pad11)*
X177830000Y-101000000D03*
G04 #@! TO.P,IC1,38*
G04 #@! TO.N,Net-(DS1-Pad4)*
X139730000Y-85760000D03*
G04 #@! TO.P,IC1,19*
G04 #@! TO.N,Net-(DS1-Pad12)*
X180370000Y-101000000D03*
G04 #@! TO.P,IC1,39*
G04 #@! TO.N,Net-(IC1-Pad39)*
X137190000Y-85760000D03*
G04 #@! TO.P,IC1,20*
G04 #@! TO.N,Net-(DS1-Pad13)*
X182910000Y-101000000D03*
G04 #@! TO.P,IC1,40*
G04 #@! TO.N,Net-(C1-Pad1)*
X134650000Y-85760000D03*
G04 #@! TD*
G04 #@! TO.P,IC2,8*
G04 #@! TO.N,Net-(C4-Pad1)*
X195470000Y-94550000D03*
G04 #@! TO.P,IC2,4*
G04 #@! TO.N,GND*
X187850000Y-102170000D03*
G04 #@! TO.P,IC2,7*
G04 #@! TO.N,Net-(C4-Pad2)*
X195470000Y-97090000D03*
G04 #@! TO.P,IC2,3*
G04 #@! TO.N,Net-(IC2-Pad3)*
X187850000Y-99630000D03*
G04 #@! TO.P,IC2,6*
G04 #@! TO.N,Net-(C5-Pad1)*
X195470000Y-99630000D03*
G04 #@! TO.P,IC2,2*
G04 #@! TO.N,GND*
X187850000Y-97090000D03*
G04 #@! TO.P,IC2,5*
G04 #@! TO.N,Net-(C4-Pad2)*
X195470000Y-102170000D03*
D20*
G04 #@! TO.P,IC2,1*
G04 #@! TO.N,Net-(IC2-Pad1)*
X187850000Y-94550000D03*
G04 #@! TD*
D14*
G04 #@! TO.P,L1,1*
G04 #@! TO.N,Net-(IC1-Pad3)*
X139900000Y-81500000D03*
D21*
G04 #@! TO.P,L1,2*
G04 #@! TO.N,Net-(L1-Pad2)*
X150060000Y-81500000D03*
G04 #@! TD*
D14*
G04 #@! TO.P,L2,1*
G04 #@! TO.N,Net-(IC1-Pad37)*
X139700000Y-76050000D03*
D21*
G04 #@! TO.P,L2,2*
G04 #@! TO.N,Net-(L2-Pad2)*
X149860000Y-76050000D03*
G04 #@! TD*
G04 #@! TO.P,R1,2*
G04 #@! TO.N,Net-(IC1-Pad39)*
X119820000Y-112500000D03*
D14*
G04 #@! TO.P,R1,1*
G04 #@! TO.N,Net-(C16-Pad1)*
X112200000Y-112500000D03*
G04 #@! TD*
D21*
G04 #@! TO.P,R2,2*
G04 #@! TO.N,Net-(C6-Pad2)*
X119970000Y-107300000D03*
D14*
G04 #@! TO.P,R2,1*
G04 #@! TO.N,Net-(IC1-Pad39)*
X112350000Y-107300000D03*
G04 #@! TD*
D21*
G04 #@! TO.P,R3,2*
G04 #@! TO.N,Net-(C7-Pad2)*
X133120000Y-112650000D03*
D14*
G04 #@! TO.P,R3,1*
G04 #@! TO.N,Net-(C6-Pad2)*
X125500000Y-112650000D03*
G04 #@! TD*
D21*
G04 #@! TO.P,R4,2*
G04 #@! TO.N,Net-(C8-Pad2)*
X133070000Y-107650000D03*
D14*
G04 #@! TO.P,R4,1*
G04 #@! TO.N,Net-(C7-Pad2)*
X125450000Y-107650000D03*
G04 #@! TD*
G04 #@! TO.P,R5,1*
G04 #@! TO.N,Net-(C8-Pad2)*
X137700000Y-112500000D03*
D21*
G04 #@! TO.P,R5,2*
G04 #@! TO.N,Net-(C9-Pad2)*
X145320000Y-112500000D03*
G04 #@! TD*
D14*
G04 #@! TO.P,R6,1*
G04 #@! TO.N,Net-(D1-Pad2)*
X192800000Y-77150000D03*
D21*
G04 #@! TO.P,R6,2*
G04 #@! TO.N,Net-(C16-Pad1)*
X192800000Y-69530000D03*
G04 #@! TD*
D14*
G04 #@! TO.P,R7,1*
G04 #@! TO.N,Net-(D2-Pad2)*
X195650000Y-112150000D03*
D21*
G04 #@! TO.P,R7,2*
G04 #@! TO.N,Net-(IC1-Pad33)*
X188030000Y-112150000D03*
G04 #@! TD*
G04 #@! TO.P,R8,2*
G04 #@! TO.N,Net-(IC1-Pad36)*
X192800000Y-81380000D03*
D14*
G04 #@! TO.P,R8,1*
G04 #@! TO.N,Net-(D3-Pad2)*
X192800000Y-89000000D03*
G04 #@! TD*
G04 #@! TO.P,R9,1*
G04 #@! TO.N,Net-(D4-Pad1)*
X195850000Y-107400000D03*
D21*
G04 #@! TO.P,R9,2*
G04 #@! TO.N,GND*
X188230000Y-107400000D03*
G04 #@! TD*
D14*
G04 #@! TO.P,R10,1*
G04 #@! TO.N,Net-(IC1-Pad36)*
X187800000Y-81400000D03*
D21*
G04 #@! TO.P,R10,2*
G04 #@! TO.N,Net-(IC2-Pad1)*
X187800000Y-89020000D03*
G04 #@! TD*
D14*
G04 #@! TO.P,R11,1*
G04 #@! TO.N,Net-(IC1-Pad33)*
X176300000Y-107400000D03*
D21*
G04 #@! TO.P,R11,2*
G04 #@! TO.N,Net-(IC2-Pad3)*
X183920000Y-107400000D03*
G04 #@! TD*
D14*
G04 #@! TO.P,R12,1*
G04 #@! TO.N,Net-(C16-Pad1)*
X126400000Y-75500000D03*
D21*
G04 #@! TO.P,R12,2*
G04 #@! TO.N,Net-(C12-Pad2)*
X134020000Y-75500000D03*
G04 #@! TD*
D14*
G04 #@! TO.P,R13,1*
G04 #@! TO.N,Net-(C12-Pad2)*
X126300000Y-80100000D03*
D21*
G04 #@! TO.P,R13,2*
G04 #@! TO.N,GND*
X133920000Y-80100000D03*
G04 #@! TD*
D22*
G04 #@! TO.P,Y1,1*
G04 #@! TO.N,Net-(C10-Pad2)*
X163200000Y-106400000D03*
G04 #@! TO.P,Y1,2*
G04 #@! TO.N,Net-(C11-Pad2)*
X158320000Y-106400000D03*
G04 #@! TD*
D18*
G04 #@! TO.P,D5,1*
G04 #@! TO.N,Net-(D5-Pad1)*
X163000000Y-80900000D03*
D23*
G04 #@! TO.P,D5,2*
G04 #@! TO.N,Net-(D5-Pad2)*
X155380000Y-80900000D03*
G04 #@! TD*
D18*
G04 #@! TO.P,D6,1*
G04 #@! TO.N,Net-(C14-Pad1)*
X180850000Y-70600000D03*
D23*
G04 #@! TO.P,D6,2*
G04 #@! TO.N,Net-(D6-Pad2)*
X188470000Y-70600000D03*
G04 #@! TD*
D10*
G04 #@! TO.P,J6,6*
G04 #@! TO.N,N/C*
X188000000Y-76000000D03*
G04 #@! TO.P,J6,5*
X185460000Y-76000000D03*
G04 #@! TO.P,J6,4*
G04 #@! TO.N,Net-(IC1-Pad15)*
X182920000Y-76000000D03*
G04 #@! TO.P,J6,3*
G04 #@! TO.N,Net-(IC1-Pad14)*
X180380000Y-76000000D03*
G04 #@! TO.P,J6,2*
G04 #@! TO.N,GND*
X177840000Y-76000000D03*
D11*
G04 #@! TO.P,J6,1*
G04 #@! TO.N,Net-(D5-Pad2)*
X175300000Y-76000000D03*
G04 #@! TD*
G04 #@! TO.P,SW6,1*
G04 #@! TO.N,GND*
X170200000Y-112600000D03*
D10*
G04 #@! TO.P,SW6,2*
G04 #@! TO.N,Net-(IC1-Pad9)*
X167660000Y-112600000D03*
G04 #@! TD*
D24*
G04 #@! TO.P,U1,GND*
G04 #@! TO.N,GND*
X104000000Y-76750000D03*
G04 #@! TO.P,U1,VO*
G04 #@! TO.N,Net-(C13-Pad1)*
X104000000Y-74210000D03*
G04 #@! TO.P,U1,VI*
G04 #@! TO.N,Net-(C14-Pad1)*
X104000000Y-79290000D03*
G04 #@! TD*
D25*
G04 #@! TO.P,J2,5*
G04 #@! TO.N,GND*
X105904000Y-67180000D03*
G04 #@! TO.P,J2,4*
G04 #@! TO.N,Net-(C12-Pad1)*
X110504000Y-66080000D03*
G04 #@! TO.P,J2,3*
X110504000Y-62080000D03*
G04 #@! TO.P,J2,2*
X110504000Y-59080000D03*
G04 #@! TD*
D26*
G04 #@! TO.P,LCDPot2,3*
G04 #@! TO.N,GND*
X113600000Y-101400000D03*
G04 #@! TO.P,LCDPot2,2*
G04 #@! TO.N,Net-(DS1-Pad3)*
X118600000Y-98900000D03*
G04 #@! TO.P,LCDPot2,1*
G04 #@! TO.N,Net-(C16-Pad1)*
X113600000Y-96400000D03*
G04 #@! TD*
D11*
G04 #@! TO.P,DS1,1*
G04 #@! TO.N,GND*
X115500000Y-70200000D03*
D10*
G04 #@! TO.P,DS1,2*
G04 #@! TO.N,Net-(C16-Pad1)*
X118040000Y-70200000D03*
G04 #@! TO.P,DS1,3*
G04 #@! TO.N,Net-(DS1-Pad3)*
X120580000Y-70200000D03*
G04 #@! TO.P,DS1,4*
G04 #@! TO.N,Net-(DS1-Pad4)*
X123120000Y-70200000D03*
G04 #@! TO.P,DS1,5*
G04 #@! TO.N,GND*
X125660000Y-70200000D03*
G04 #@! TO.P,DS1,6*
G04 #@! TO.N,Net-(DS1-Pad6)*
X128200000Y-70200000D03*
G04 #@! TO.P,DS1,7*
G04 #@! TO.N,N/C*
X130740000Y-70200000D03*
G04 #@! TO.P,DS1,8*
X133280000Y-70200000D03*
G04 #@! TO.P,DS1,9*
X135820000Y-70200000D03*
G04 #@! TO.P,DS1,10*
X138360000Y-70200000D03*
G04 #@! TO.P,DS1,11*
G04 #@! TO.N,Net-(DS1-Pad11)*
X140900000Y-70200000D03*
G04 #@! TO.P,DS1,12*
G04 #@! TO.N,Net-(DS1-Pad12)*
X143440000Y-70200000D03*
G04 #@! TO.P,DS1,13*
G04 #@! TO.N,Net-(DS1-Pad13)*
X145980000Y-70200000D03*
G04 #@! TO.P,DS1,14*
G04 #@! TO.N,Net-(DS1-Pad14)*
X148520000Y-70200000D03*
G04 #@! TO.P,DS1,15*
G04 #@! TO.N,Net-(C16-Pad1)*
X151060000Y-70200000D03*
G04 #@! TO.P,DS1,16*
G04 #@! TO.N,GND*
X153600000Y-70200000D03*
G04 #@! TD*
D11*
G04 #@! TO.P,J7,1*
G04 #@! TO.N,Net-(IC1-Pad22)*
X180450000Y-80900000D03*
D10*
G04 #@! TO.P,J7,2*
G04 #@! TO.N,Net-(IC1-Pad23)*
X177910000Y-80900000D03*
G04 #@! TO.P,J7,3*
G04 #@! TO.N,Net-(IC1-Pad24)*
X175370000Y-80900000D03*
G04 #@! TO.P,J7,4*
G04 #@! TO.N,Net-(IC1-Pad25)*
X172830000Y-80900000D03*
G04 #@! TO.P,J7,5*
G04 #@! TO.N,Net-(IC1-Pad17)*
X170290000Y-80900000D03*
G04 #@! TO.P,J7,6*
G04 #@! TO.N,Net-(IC1-Pad16)*
X167750000Y-80900000D03*
G04 #@! TD*
D11*
G04 #@! TO.P,J9,1*
G04 #@! TO.N,Net-(C13-Pad1)*
X166969000Y-74940000D03*
D10*
G04 #@! TO.P,J9,2*
G04 #@! TO.N,Net-(C16-Pad1)*
X164429000Y-74940000D03*
G04 #@! TO.P,J9,3*
G04 #@! TO.N,Net-(D5-Pad1)*
X161889000Y-74940000D03*
G04 #@! TD*
D24*
G04 #@! TO.P,U2,GND*
G04 #@! TO.N,GND*
X104000000Y-89500000D03*
G04 #@! TO.P,U2,VO*
G04 #@! TO.N,Net-(C15-Pad1)*
X104000000Y-86960000D03*
G04 #@! TO.P,U2,VI*
G04 #@! TO.N,Net-(C16-Pad1)*
X104000000Y-92040000D03*
G04 #@! TD*
D27*
G04 #@! TO.P,J1,1*
G04 #@! TO.N,Net-(D6-Pad2)*
X205150000Y-66100000D03*
G04 #@! TO.P,J1,2*
G04 #@! TO.N,GND*
X205150000Y-60100000D03*
G04 #@! TO.P,J1,3*
X200450000Y-63100000D03*
G04 #@! TD*
D20*
G04 #@! TO.P,C14,1*
G04 #@! TO.N,Net-(C14-Pad1)*
X126500000Y-64500000D03*
D14*
G04 #@! TO.P,C14,2*
G04 #@! TO.N,GND*
X126500000Y-60700000D03*
G04 #@! TD*
D20*
G04 #@! TO.P,C16,1*
G04 #@! TO.N,Net-(C16-Pad1)*
X136500000Y-64500000D03*
D14*
G04 #@! TO.P,C16,2*
G04 #@! TO.N,GND*
X136500000Y-60700000D03*
G04 #@! TD*
G04 #@! TO.P,R14,1*
G04 #@! TO.N,Net-(C9-Pad2)*
X137650000Y-107700000D03*
D21*
G04 #@! TO.P,R14,2*
G04 #@! TO.N,Net-(C17-Pad2)*
X145270000Y-107700000D03*
G04 #@! TD*
D14*
G04 #@! TO.P,R15,1*
G04 #@! TO.N,Net-(C17-Pad2)*
X154750000Y-112750000D03*
D21*
G04 #@! TO.P,R15,2*
G04 #@! TO.N,Net-(C18-Pad2)*
X162370000Y-112750000D03*
G04 #@! TD*
D14*
G04 #@! TO.P,R16,1*
G04 #@! TO.N,Net-(C18-Pad2)*
X176400000Y-112250000D03*
D21*
G04 #@! TO.P,R16,2*
G04 #@! TO.N,Net-(C19-Pad2)*
X184020000Y-112250000D03*
G04 #@! TD*
D26*
G04 #@! TO.P,SpeedPot1,1*
G04 #@! TO.N,Net-(C16-Pad1)*
X101650000Y-99600000D03*
G04 #@! TO.P,SpeedPot1,2*
G04 #@! TO.N,Net-(C1-Pad1)*
X101650000Y-104600000D03*
G04 #@! TO.P,SpeedPot1,3*
G04 #@! TO.N,GND*
X101650000Y-109600000D03*
G04 #@! TD*
D18*
G04 #@! TO.P,D4,1*
G04 #@! TO.N,Net-(D4-Pad1)*
X207700000Y-114900000D03*
D19*
G04 #@! TO.P,D4,2*
G04 #@! TO.N,Net-(D4-Pad2)*
X205160000Y-114900000D03*
G04 #@! TD*
D14*
G04 #@! TO.P,C3,2*
G04 #@! TO.N,GND*
X199300000Y-98100000D03*
G04 #@! TO.P,C3,1*
G04 #@! TO.N,Net-(C3-Pad1)*
X201800000Y-98100000D03*
G04 #@! TD*
G04 #@! TO.P,C2,2*
G04 #@! TO.N,GND*
X199300000Y-102350000D03*
G04 #@! TO.P,C2,1*
G04 #@! TO.N,Net-(C2-Pad1)*
X201800000Y-102350000D03*
G04 #@! TD*
G04 #@! TO.P,C10,1*
G04 #@! TO.N,GND*
X170000000Y-105800000D03*
G04 #@! TO.P,C10,2*
G04 #@! TO.N,Net-(C10-Pad2)*
X170000000Y-108300000D03*
G04 #@! TD*
G04 #@! TO.P,C11,1*
G04 #@! TO.N,GND*
X151200000Y-105600000D03*
G04 #@! TO.P,C11,2*
G04 #@! TO.N,Net-(C11-Pad2)*
X151200000Y-108100000D03*
G04 #@! TD*
G04 #@! TO.P,C1,1*
G04 #@! TO.N,Net-(C1-Pad1)*
X118200000Y-88600000D03*
G04 #@! TO.P,C1,2*
G04 #@! TO.N,GND*
X118200000Y-86100000D03*
G04 #@! TD*
G04 #@! TO.P,C12,1*
G04 #@! TO.N,Net-(C12-Pad1)*
X118000000Y-79500000D03*
G04 #@! TO.P,C12,2*
G04 #@! TO.N,Net-(C12-Pad2)*
X118000000Y-82000000D03*
G04 #@! TD*
D20*
G04 #@! TO.P,C13,1*
G04 #@! TO.N,Net-(C13-Pad1)*
X111600000Y-78000000D03*
D14*
G04 #@! TO.P,C13,2*
G04 #@! TO.N,GND*
X111600000Y-80500000D03*
G04 #@! TD*
D20*
G04 #@! TO.P,C15,1*
G04 #@! TO.N,Net-(C15-Pad1)*
X111600000Y-86400000D03*
D14*
G04 #@! TO.P,C15,2*
G04 #@! TO.N,GND*
X111600000Y-88900000D03*
G04 #@! TD*
G04 #@! TO.P,C4,1*
G04 #@! TO.N,Net-(C4-Pad1)*
X201750000Y-107000000D03*
G04 #@! TO.P,C4,2*
G04 #@! TO.N,Net-(C4-Pad2)*
X199250000Y-107000000D03*
G04 #@! TD*
G04 #@! TO.P,C5,1*
G04 #@! TO.N,Net-(C5-Pad1)*
X201750000Y-112350000D03*
G04 #@! TO.P,C5,2*
G04 #@! TO.N,Net-(C4-Pad2)*
X199250000Y-112350000D03*
G04 #@! TD*
D11*
G04 #@! TO.P,J8,1*
G04 #@! TO.N,Net-(C15-Pad1)*
X127250000Y-102750000D03*
D10*
G04 #@! TO.P,J8,2*
X124710000Y-102750000D03*
G04 #@! TO.P,J8,3*
G04 #@! TO.N,Net-(C16-Pad1)*
X127250000Y-100210000D03*
G04 #@! TO.P,J8,4*
X124710000Y-100210000D03*
G04 #@! TO.P,J8,5*
G04 #@! TO.N,Net-(IC1-Pad4)*
X127250000Y-97670000D03*
G04 #@! TO.P,J8,6*
G04 #@! TO.N,Net-(IC1-Pad2)*
X124710000Y-97670000D03*
G04 #@! TO.P,J8,7*
G04 #@! TO.N,Net-(IC1-Pad5)*
X127250000Y-95130000D03*
G04 #@! TO.P,J8,8*
G04 #@! TO.N,Net-(IC1-Pad1)*
X124710000Y-95130000D03*
G04 #@! TO.P,J8,9*
G04 #@! TO.N,Net-(IC1-Pad6)*
X127250000Y-92590000D03*
G04 #@! TO.P,J8,10*
X124710000Y-92590000D03*
G04 #@! TO.P,J8,11*
G04 #@! TO.N,Net-(IC1-Pad7)*
X127250000Y-90050000D03*
G04 #@! TO.P,J8,12*
X124710000Y-90050000D03*
G04 #@! TO.P,J8,13*
G04 #@! TO.N,Net-(IC1-Pad8)*
X127250000Y-87510000D03*
G04 #@! TO.P,J8,14*
X124710000Y-87510000D03*
G04 #@! TO.P,J8,15*
G04 #@! TO.N,GND*
X127250000Y-84970000D03*
G04 #@! TO.P,J8,16*
X124710000Y-84970000D03*
G04 #@! TD*
D28*
G04 #@! TO.P,SW1,1*
G04 #@! TO.N,GND*
X115000000Y-131850000D03*
G04 #@! TO.P,SW1,2*
G04 #@! TO.N,Net-(IC1-Pad39)*
X109000000Y-131850000D03*
G04 #@! TO.P,SW1,3*
G04 #@! TO.N,N/C*
X115000000Y-127850000D03*
G04 #@! TO.P,SW1,4*
X109000000Y-127850000D03*
G04 #@! TD*
G04 #@! TO.P,SW2,1*
G04 #@! TO.N,GND*
X128100000Y-131850000D03*
G04 #@! TO.P,SW2,2*
G04 #@! TO.N,Net-(C6-Pad2)*
X122100000Y-131850000D03*
G04 #@! TO.P,SW2,3*
G04 #@! TO.N,N/C*
X128100000Y-127850000D03*
G04 #@! TO.P,SW2,4*
X122100000Y-127850000D03*
G04 #@! TD*
G04 #@! TO.P,SW3,1*
G04 #@! TO.N,GND*
X140800000Y-131850000D03*
G04 #@! TO.P,SW3,2*
G04 #@! TO.N,Net-(C7-Pad2)*
X134800000Y-131850000D03*
G04 #@! TO.P,SW3,3*
G04 #@! TO.N,N/C*
X140800000Y-127850000D03*
G04 #@! TO.P,SW3,4*
X134800000Y-127850000D03*
G04 #@! TD*
G04 #@! TO.P,SW4,4*
G04 #@! TO.N,N/C*
X147600000Y-127850000D03*
G04 #@! TO.P,SW4,3*
X153600000Y-127850000D03*
G04 #@! TO.P,SW4,2*
G04 #@! TO.N,Net-(C8-Pad2)*
X147600000Y-131850000D03*
G04 #@! TO.P,SW4,1*
G04 #@! TO.N,GND*
X153600000Y-131850000D03*
G04 #@! TD*
G04 #@! TO.P,SW5,4*
G04 #@! TO.N,N/C*
X159750000Y-127900000D03*
G04 #@! TO.P,SW5,3*
X165750000Y-127900000D03*
G04 #@! TO.P,SW5,2*
G04 #@! TO.N,Net-(C9-Pad2)*
X159750000Y-131900000D03*
G04 #@! TO.P,SW5,1*
G04 #@! TO.N,GND*
X165750000Y-131900000D03*
G04 #@! TD*
G04 #@! TO.P,SW7,4*
G04 #@! TO.N,N/C*
X171500000Y-127850000D03*
G04 #@! TO.P,SW7,3*
X177500000Y-127850000D03*
G04 #@! TO.P,SW7,2*
G04 #@! TO.N,Net-(C17-Pad2)*
X171500000Y-131850000D03*
G04 #@! TO.P,SW7,1*
G04 #@! TO.N,GND*
X177500000Y-131850000D03*
G04 #@! TD*
G04 #@! TO.P,SW8,4*
G04 #@! TO.N,N/C*
X183350000Y-127850000D03*
G04 #@! TO.P,SW8,3*
X189350000Y-127850000D03*
G04 #@! TO.P,SW8,2*
G04 #@! TO.N,Net-(C18-Pad2)*
X183350000Y-131850000D03*
G04 #@! TO.P,SW8,1*
G04 #@! TO.N,GND*
X189350000Y-131850000D03*
G04 #@! TD*
G04 #@! TO.P,SW9,4*
G04 #@! TO.N,N/C*
X195550000Y-127850000D03*
G04 #@! TO.P,SW9,3*
X201550000Y-127850000D03*
G04 #@! TO.P,SW9,2*
G04 #@! TO.N,Net-(C19-Pad2)*
X195550000Y-131850000D03*
G04 #@! TO.P,SW9,1*
G04 #@! TO.N,GND*
X201550000Y-131850000D03*
G04 #@! TD*
D11*
G04 #@! TO.P,J10,1*
G04 #@! TO.N,Net-(IC1-Pad39)*
X144100000Y-117600000D03*
D10*
G04 #@! TO.P,J10,2*
G04 #@! TO.N,Net-(C6-Pad2)*
X146640000Y-117600000D03*
G04 #@! TO.P,J10,3*
G04 #@! TO.N,Net-(C7-Pad2)*
X149180000Y-117600000D03*
G04 #@! TO.P,J10,4*
G04 #@! TO.N,Net-(C8-Pad2)*
X151720000Y-117600000D03*
G04 #@! TO.P,J10,5*
G04 #@! TO.N,Net-(C9-Pad2)*
X154260000Y-117600000D03*
G04 #@! TO.P,J10,6*
G04 #@! TO.N,Net-(C17-Pad2)*
X156800000Y-117600000D03*
G04 #@! TO.P,J10,7*
G04 #@! TO.N,Net-(C18-Pad2)*
X159340000Y-117600000D03*
G04 #@! TO.P,J10,8*
G04 #@! TO.N,Net-(C19-Pad2)*
X161880000Y-117600000D03*
G04 #@! TO.P,J10,9*
G04 #@! TO.N,GND*
X164420000Y-117600000D03*
G04 #@! TD*
G04 #@! TO.P,J11,1*
G04 #@! TO.N,Net-(IC1-Pad39)*
X144100000Y-120400000D03*
G04 #@! TO.P,J11,2*
G04 #@! TO.N,Net-(C6-Pad2)*
X146640000Y-120400000D03*
G04 #@! TO.P,J11,3*
G04 #@! TO.N,Net-(C7-Pad2)*
X149180000Y-120400000D03*
G04 #@! TO.P,J11,4*
G04 #@! TO.N,Net-(C8-Pad2)*
X151720000Y-120400000D03*
G04 #@! TO.P,J11,5*
G04 #@! TO.N,Net-(C9-Pad2)*
X154260000Y-120400000D03*
G04 #@! TO.P,J11,6*
G04 #@! TO.N,Net-(C17-Pad2)*
X156800000Y-120400000D03*
G04 #@! TO.P,J11,7*
G04 #@! TO.N,Net-(C18-Pad2)*
X159340000Y-120400000D03*
G04 #@! TO.P,J11,8*
G04 #@! TO.N,Net-(C19-Pad2)*
X161880000Y-120400000D03*
G04 #@! TO.P,J11,9*
G04 #@! TO.N,GND*
X164420000Y-120400000D03*
G04 #@! TD*
D12*
G04 #@! TO.P,HOLE3,1*
G04 #@! TO.N,GND*
X103700000Y-116950000D03*
G04 #@! TD*
D14*
G04 #@! TO.P,C6,1*
G04 #@! TO.N,GND*
X118650000Y-131950000D03*
G04 #@! TO.P,C6,2*
G04 #@! TO.N,Net-(C6-Pad2)*
X118650000Y-129450000D03*
G04 #@! TD*
G04 #@! TO.P,C7,2*
G04 #@! TO.N,Net-(C7-Pad2)*
X131550000Y-129450000D03*
G04 #@! TO.P,C7,1*
G04 #@! TO.N,GND*
X131550000Y-131950000D03*
G04 #@! TD*
G04 #@! TO.P,C8,1*
G04 #@! TO.N,GND*
X144350000Y-132050000D03*
G04 #@! TO.P,C8,2*
G04 #@! TO.N,Net-(C8-Pad2)*
X144350000Y-129550000D03*
G04 #@! TD*
G04 #@! TO.P,C9,1*
G04 #@! TO.N,GND*
X156750000Y-131950000D03*
G04 #@! TO.P,C9,2*
G04 #@! TO.N,Net-(C9-Pad2)*
X156750000Y-129450000D03*
G04 #@! TD*
G04 #@! TO.P,C17,1*
G04 #@! TO.N,GND*
X168650000Y-132000000D03*
G04 #@! TO.P,C17,2*
G04 #@! TO.N,Net-(C17-Pad2)*
X168650000Y-129500000D03*
G04 #@! TD*
G04 #@! TO.P,C18,2*
G04 #@! TO.N,Net-(C18-Pad2)*
X180500000Y-129450000D03*
G04 #@! TO.P,C18,1*
G04 #@! TO.N,GND*
X180500000Y-131950000D03*
G04 #@! TD*
G04 #@! TO.P,C19,1*
G04 #@! TO.N,GND*
X192500000Y-131950000D03*
G04 #@! TO.P,C19,2*
G04 #@! TO.N,Net-(C19-Pad2)*
X192500000Y-129450000D03*
G04 #@! TD*
D29*
G04 #@! TO.P,J3,1*
G04 #@! TO.N,Net-(C4-Pad2)*
X206000000Y-74450000D03*
D30*
G04 #@! TO.P,J3,2*
G04 #@! TO.N,Net-(C4-Pad1)*
X202300000Y-78200000D03*
G04 #@! TO.P,J3,3*
X202300000Y-70700000D03*
G04 #@! TD*
G04 #@! TO.P,J4,3*
G04 #@! TO.N,Net-(C5-Pad1)*
X202300000Y-83000000D03*
G04 #@! TO.P,J4,2*
X202300000Y-90500000D03*
D29*
G04 #@! TO.P,J4,1*
G04 #@! TO.N,Net-(C4-Pad2)*
X206000000Y-86750000D03*
G04 #@! TD*
D25*
G04 #@! TO.P,J5,2*
G04 #@! TO.N,N/C*
X184300000Y-59050000D03*
G04 #@! TO.P,J5,3*
G04 #@! TO.N,Net-(C3-Pad1)*
X184300000Y-62050000D03*
G04 #@! TO.P,J5,4*
G04 #@! TO.N,Net-(C2-Pad1)*
X184300000Y-66050000D03*
G04 #@! TO.P,J5,5*
G04 #@! TO.N,GND*
X179700000Y-67150000D03*
G04 #@! TD*
D31*
G04 #@! TO.N,*
X166450000Y-120400000D03*
X168000000Y-120400000D03*
X169500000Y-120400000D03*
X171000000Y-120400000D03*
X172500000Y-120400000D03*
X174000000Y-120400000D03*
X180050000Y-120400000D03*
X177050000Y-120400000D03*
X178550000Y-120400000D03*
X183050000Y-120400000D03*
X175500000Y-120400000D03*
X181550000Y-120400000D03*
X189050000Y-120400000D03*
X190550000Y-120400000D03*
X187550000Y-120400000D03*
X186050000Y-120400000D03*
X192050000Y-120400000D03*
X184500000Y-120400000D03*
X201050000Y-120400000D03*
X193500000Y-120400000D03*
X198050000Y-120400000D03*
X195050000Y-120400000D03*
X196550000Y-120400000D03*
X199550000Y-120400000D03*
X204100000Y-120400000D03*
X208600000Y-120400000D03*
X202550000Y-120400000D03*
X205600000Y-120400000D03*
X207100000Y-120400000D03*
X125500000Y-120350000D03*
X117950000Y-120350000D03*
X122500000Y-120350000D03*
X128500000Y-120350000D03*
X113500000Y-120350000D03*
X142200000Y-120350000D03*
X140600000Y-120350000D03*
X137550000Y-120350000D03*
X133000000Y-120350000D03*
X119500000Y-120350000D03*
X139050000Y-120350000D03*
X121000000Y-120350000D03*
X126950000Y-120350000D03*
X115000000Y-120350000D03*
X116500000Y-120350000D03*
X136000000Y-120350000D03*
X124000000Y-120350000D03*
X134500000Y-120350000D03*
X130000000Y-120350000D03*
X131500000Y-120350000D03*
X108950000Y-120350000D03*
X110450000Y-120350000D03*
X102900000Y-120350000D03*
X101400000Y-120350000D03*
X111950000Y-120350000D03*
X107450000Y-120350000D03*
X105900000Y-120350000D03*
X104400000Y-120350000D03*
D32*
G04 #@! TO.N,Net-(C1-Pad1)*
X120047700Y-84657500D03*
G04 #@! TO.N,Net-(C2-Pad1)*
X190043800Y-86260700D03*
G04 #@! TO.N,Net-(DS1-Pad4)*
X130402500Y-78736500D03*
G04 #@! TO.N,Net-(DS1-Pad6)*
X140355300Y-78816300D03*
G04 #@! TO.N,Net-(DS1-Pad11)*
X132479200Y-72912900D03*
G04 #@! TO.N,Net-(DS1-Pad12)*
X159522100Y-80992500D03*
G04 #@! TO.N,Net-(DS1-Pad13)*
X136801500Y-82021500D03*
X143217500Y-72962500D03*
G04 #@! TO.N,Net-(IC1-Pad14)*
X184223700Y-85085900D03*
G04 #@! TO.N,Net-(IC1-Pad15)*
X177721900Y-104714500D03*
X189464900Y-105220300D03*
X194054200Y-91768900D03*
G04 #@! TO.N,Net-(IC1-Pad36)*
X181793300Y-87224000D03*
G04 #@! TO.N,Net-(IC1-Pad39)*
X129657400Y-83231000D03*
G04 #@! TO.N,Net-(D4-Pad2)*
X181660300Y-98574100D03*
G04 #@! TO.N,Net-(C16-Pad1)*
X120547800Y-74790000D03*
G04 #@! TD*
D33*
G04 #@! TO.N,Net-(BZ1-Pad1)*
X162590000Y-85760000D02*
X162590000Y-84160000D01*
X162590000Y-84160000D02*
X165568000Y-81182000D01*
X165568000Y-81182000D02*
X165568000Y-80977400D01*
X165568000Y-80977400D02*
X168765300Y-77780100D01*
X168765300Y-77780100D02*
X168765300Y-64418200D01*
X168765300Y-64418200D02*
X167896700Y-63549600D01*
X167896700Y-63549600D02*
X158261700Y-63549600D01*
X158261700Y-63549600D02*
X157764000Y-64047300D01*
X157764000Y-64047300D02*
X153647100Y-64047300D01*
X153647100Y-64047300D02*
X151849800Y-62250000D01*
D34*
G04 #@! TO.N,GND*
X144250200Y-62250000D02*
X145650000Y-62250000D01*
X145650000Y-62250000D02*
X153600000Y-70200000D01*
X160550000Y-65000000D02*
X155350000Y-70200000D01*
X155350000Y-70200000D02*
X153600000Y-70200000D01*
X186150000Y-97090000D02*
X179736700Y-90676700D01*
X179736700Y-90676700D02*
X162426700Y-90676700D01*
X162426700Y-90676700D02*
X157510000Y-85760000D01*
X187850000Y-97090000D02*
X186150000Y-97090000D01*
X144350000Y-132050000D02*
X146153400Y-130246600D01*
X146153400Y-130246600D02*
X151996600Y-130246600D01*
X151996600Y-130246600D02*
X153600000Y-131850000D01*
X189350000Y-131850000D02*
X192400000Y-131850000D01*
X192400000Y-131850000D02*
X192500000Y-131950000D01*
X179700000Y-67150000D02*
X178100000Y-67150000D01*
X207850000Y-96350000D02*
X207850000Y-94550000D01*
X207850000Y-94550000D02*
X208892200Y-93507800D01*
X208892200Y-93507800D02*
X208892200Y-65277100D01*
X208892200Y-65277100D02*
X206365100Y-62750000D01*
X206365100Y-62750000D02*
X205150000Y-62750000D01*
X205150000Y-60100000D02*
X205150000Y-62750000D01*
X200450000Y-63100000D02*
X203100000Y-63100000D01*
X203100000Y-63100000D02*
X203450000Y-62750000D01*
X203450000Y-62750000D02*
X205150000Y-62750000D01*
X171574800Y-108975400D02*
X171574800Y-107374800D01*
X171574800Y-107374800D02*
X170000000Y-105800000D01*
X170200000Y-110850000D02*
X171574800Y-109475200D01*
X171574800Y-109475200D02*
X171574800Y-108975400D01*
X171574800Y-108975400D02*
X184954600Y-108975400D01*
X184954600Y-108975400D02*
X186530000Y-107400000D01*
X188230000Y-107400000D02*
X186530000Y-107400000D01*
X170200000Y-112600000D02*
X170200000Y-110850000D01*
X164420000Y-114201600D02*
X168598400Y-114201600D01*
X168598400Y-114201600D02*
X170200000Y-112600000D01*
X117060400Y-130360400D02*
X117060400Y-128801300D01*
X117060400Y-128801300D02*
X117995800Y-127865900D01*
X117995800Y-127865900D02*
X119805400Y-127865900D01*
X119805400Y-127865900D02*
X121389900Y-129450400D01*
X121389900Y-129450400D02*
X125700400Y-129450400D01*
X125700400Y-129450400D02*
X128100000Y-131850000D01*
X118650000Y-131950000D02*
X117060400Y-130360400D01*
X117060400Y-130360400D02*
X116489600Y-130360400D01*
X116489600Y-130360400D02*
X115000000Y-131850000D01*
X109984900Y-88900000D02*
X106770000Y-88900000D01*
X106770000Y-88900000D02*
X106170000Y-89500000D01*
X111600000Y-88900000D02*
X109984900Y-88900000D01*
X109984900Y-80564900D02*
X109984900Y-88900000D01*
X111600000Y-80500000D02*
X110049800Y-80500000D01*
X110049800Y-80500000D02*
X109984900Y-80564900D01*
X109984900Y-80564900D02*
X106170000Y-76750000D01*
X105904000Y-67180000D02*
X105904000Y-69080000D01*
X105904000Y-69080000D02*
X106170000Y-69346000D01*
X106170000Y-69346000D02*
X106170000Y-76750000D01*
X104000000Y-76750000D02*
X106170000Y-76750000D01*
X207700000Y-108350000D02*
X207700000Y-106550000D01*
X207850000Y-102350000D02*
X207850000Y-106400000D01*
X207850000Y-106400000D02*
X207700000Y-106550000D01*
X187850000Y-102170000D02*
X187850000Y-103870000D01*
X177840000Y-76000000D02*
X177840000Y-74250000D01*
X178100000Y-67150000D02*
X178100000Y-73990000D01*
X178100000Y-73990000D02*
X177840000Y-74250000D01*
X164420000Y-114201600D02*
X164420000Y-117600000D01*
X151200000Y-105600000D02*
X154827600Y-109227600D01*
X154827600Y-109227600D02*
X161109700Y-109227600D01*
X161109700Y-109227600D02*
X164420000Y-112537900D01*
X164420000Y-112537900D02*
X164420000Y-114201600D01*
X125660000Y-68450000D02*
X123890000Y-66680000D01*
X123890000Y-66680000D02*
X123890000Y-63850000D01*
X129000000Y-84970000D02*
X129594000Y-84970000D01*
X129594000Y-84970000D02*
X132220000Y-82344000D01*
X132220000Y-82344000D02*
X132220000Y-80100000D01*
X126500000Y-60700000D02*
X123890000Y-63310000D01*
X123890000Y-63310000D02*
X123890000Y-63850000D01*
X123890000Y-63850000D02*
X118500000Y-63850000D01*
X125660000Y-70200000D02*
X125660000Y-68450000D01*
X125660000Y-70200000D02*
X132220000Y-76760000D01*
X132220000Y-76760000D02*
X132220000Y-80100000D01*
X104000000Y-89500000D02*
X106170000Y-89500000D01*
X188230000Y-105700000D02*
X188230000Y-104250000D01*
X188230000Y-104250000D02*
X187850000Y-103870000D01*
X164420000Y-123000000D02*
X164420000Y-124750000D01*
X177500000Y-131850000D02*
X175899600Y-130249600D01*
X175899600Y-130249600D02*
X171592200Y-130249600D01*
X171592200Y-130249600D02*
X166092600Y-124750000D01*
X166092600Y-124750000D02*
X164420000Y-124750000D01*
X188230000Y-106550000D02*
X188230000Y-107400000D01*
X188230000Y-106550000D02*
X188230000Y-105700000D01*
X133920000Y-80100000D02*
X132220000Y-80100000D01*
X127250000Y-84970000D02*
X129000000Y-84970000D01*
X103700000Y-111300000D02*
X103700000Y-116950000D01*
X113600000Y-101400000D02*
X103700000Y-111300000D01*
X101650000Y-109600000D02*
X103350000Y-111300000D01*
X103350000Y-111300000D02*
X103700000Y-111300000D01*
X115500000Y-70200000D02*
X115500000Y-66850000D01*
X115500000Y-66850000D02*
X118500000Y-63850000D01*
X115000000Y-131850000D02*
X113000000Y-129850000D01*
X113000000Y-129850000D02*
X106200000Y-129850000D01*
X106200000Y-129850000D02*
X103900000Y-127550000D01*
X201550000Y-131850000D02*
X201700000Y-131850000D01*
X201700000Y-131850000D02*
X206050000Y-127500000D01*
X164420000Y-117600000D02*
X164420000Y-120400000D01*
X164420000Y-120400000D02*
X164420000Y-123000000D01*
D33*
G04 #@! TO.N,Net-(C1-Pad1)*
X118200000Y-88600000D02*
X102200000Y-104600000D01*
X102200000Y-104600000D02*
X101650000Y-104600000D01*
X120047700Y-84657500D02*
X120047700Y-86752300D01*
X120047700Y-86752300D02*
X118200000Y-88600000D01*
G04 #@! TO.N,Net-(C2-Pad1)*
X167670000Y-85760000D02*
X170179700Y-88269700D01*
X170179700Y-88269700D02*
X183869200Y-88269700D01*
X183869200Y-88269700D02*
X185878200Y-86260700D01*
X185878200Y-86260700D02*
X190043800Y-86260700D01*
X190043800Y-66293800D02*
X190043800Y-86260700D01*
X189800000Y-66050000D02*
X184300000Y-66050000D01*
X190043800Y-66293800D02*
X189800000Y-66050000D01*
G04 #@! TO.N,Net-(C3-Pad1)*
X191072000Y-87608700D02*
X191072000Y-89289500D01*
X191072000Y-89289500D02*
X192526800Y-90744300D01*
X192526800Y-90744300D02*
X194444300Y-90744300D01*
X194444300Y-90744300D02*
X201800000Y-98100000D01*
X191072000Y-64322000D02*
X191072000Y-87608700D01*
X165130000Y-85760000D02*
X168640000Y-89270000D01*
X168640000Y-89270000D02*
X184616400Y-89270000D01*
X184616400Y-89270000D02*
X186277700Y-87608700D01*
X186277700Y-87608700D02*
X191072000Y-87608700D01*
X188800000Y-62050000D02*
X184300000Y-62050000D01*
X191072000Y-64322000D02*
X188800000Y-62050000D01*
G04 #@! TO.N,Net-(C4-Pad1)*
X202300000Y-70700000D02*
X202300000Y-78200000D01*
G04 #@! TO.N,Net-(C4-Pad2)*
X195470000Y-102170000D02*
X195470000Y-103770000D01*
X195470000Y-103770000D02*
X196020000Y-103770000D01*
X196020000Y-103770000D02*
X199250000Y-107000000D01*
X195470000Y-97090000D02*
X194065400Y-98494600D01*
X194065400Y-98494600D02*
X194065400Y-100765400D01*
X194065400Y-100765400D02*
X195470000Y-102170000D01*
X199250000Y-112350000D02*
X199250000Y-107000000D01*
G04 #@! TO.N,Net-(C5-Pad1)*
X202300000Y-90500000D02*
X202300000Y-83000000D01*
X195470000Y-99630000D02*
X197465100Y-101625100D01*
X197465100Y-101625100D02*
X197465100Y-102568400D01*
X197465100Y-102568400D02*
X200283200Y-105386500D01*
X200283200Y-105386500D02*
X202193400Y-105386500D01*
X202193400Y-105386500D02*
X203206000Y-106399100D01*
X203206000Y-106399100D02*
X203206000Y-110894000D01*
X203206000Y-110894000D02*
X201750000Y-112350000D01*
G04 #@! TO.N,Net-(C6-Pad2)*
X125500000Y-112650000D02*
X121570000Y-108720000D01*
X121570000Y-108720000D02*
X121570000Y-107300000D01*
X119970000Y-107300000D02*
X121570000Y-107300000D01*
X146640000Y-117600000D02*
X146640000Y-120400000D01*
X146640000Y-120400000D02*
X146640000Y-123000000D01*
X118650000Y-129450000D02*
X119700000Y-129450000D01*
X119700000Y-129450000D02*
X122100000Y-131850000D01*
G04 #@! TO.N,Net-(C7-Pad2)*
X131550000Y-129450000D02*
X133950000Y-131850000D01*
X133950000Y-131850000D02*
X134800000Y-131850000D01*
X133120000Y-112650000D02*
X130450000Y-112650000D01*
X130450000Y-112650000D02*
X125450000Y-107650000D01*
X149180000Y-123000000D02*
X144179000Y-128001000D01*
X144179000Y-128001000D02*
X142700100Y-128001000D01*
X142700100Y-128001000D02*
X141400700Y-129300400D01*
X141400700Y-129300400D02*
X137349600Y-129300400D01*
X137349600Y-129300400D02*
X134800000Y-131850000D01*
X149180000Y-120400000D02*
X149180000Y-123000000D01*
X149180000Y-117600000D02*
X149180000Y-120400000D01*
G04 #@! TO.N,Net-(C8-Pad2)*
X133070000Y-107650000D02*
X133070000Y-109250000D01*
X137700000Y-112500000D02*
X134450000Y-109250000D01*
X134450000Y-109250000D02*
X133070000Y-109250000D01*
X151720000Y-117600000D02*
X149298800Y-115178800D01*
X149298800Y-115178800D02*
X140378800Y-115178800D01*
X140378800Y-115178800D02*
X137700000Y-112500000D01*
X151720000Y-120400000D02*
X151720000Y-117600000D01*
X151720000Y-120400000D02*
X151720000Y-123000000D01*
G04 #@! TO.N,Net-(C9-Pad2)*
X156750000Y-129450000D02*
X156750000Y-127140000D01*
X156750000Y-127140000D02*
X154260000Y-124650000D01*
X154260000Y-123000000D02*
X154260000Y-124650000D01*
X156750000Y-129450000D02*
X157300000Y-129450000D01*
X157300000Y-129450000D02*
X159750000Y-131900000D01*
X145320000Y-112500000D02*
X143720000Y-112500000D01*
X137650000Y-107700000D02*
X138920000Y-107700000D01*
X138920000Y-107700000D02*
X143720000Y-112500000D01*
X154260000Y-117600000D02*
X154260000Y-120400000D01*
X154260000Y-120400000D02*
X154260000Y-123000000D01*
G04 #@! TO.N,Net-(C10-Pad2)*
X165130000Y-101000000D02*
X165130000Y-102600000D01*
X163200000Y-106400000D02*
X163200000Y-104530000D01*
X163200000Y-104530000D02*
X165130000Y-102600000D01*
G04 #@! TO.N,Net-(C12-Pad1)*
X110504000Y-66080000D02*
X110504000Y-62080000D01*
X118000000Y-79500000D02*
X110504000Y-72004000D01*
X110504000Y-72004000D02*
X110504000Y-66080000D01*
X110504000Y-59080000D02*
X110504000Y-62080000D01*
G04 #@! TO.N,Net-(C12-Pad2)*
X134020000Y-75500000D02*
X135620000Y-75500000D01*
X147350000Y-85760000D02*
X141655200Y-80065200D01*
X141655200Y-80065200D02*
X140185200Y-80065200D01*
X140185200Y-80065200D02*
X135620000Y-75500000D01*
G04 #@! TO.N,Net-(DS1-Pad3)*
X118600000Y-98900000D02*
X118600000Y-96070600D01*
X118600000Y-96070600D02*
X122048300Y-92622300D01*
X122048300Y-92622300D02*
X122048300Y-73318300D01*
X122048300Y-73318300D02*
X120580000Y-71850000D01*
X120580000Y-70200000D02*
X120580000Y-71850000D01*
G04 #@! TO.N,Net-(DS1-Pad4)*
X123120000Y-70200000D02*
X123120000Y-71850000D01*
X123120000Y-71850000D02*
X124770000Y-71850000D01*
X124770000Y-71850000D02*
X130402500Y-77482500D01*
X130402500Y-77482500D02*
X130402500Y-78736500D01*
G04 #@! TO.N,Net-(DS1-Pad6)*
X128200000Y-70200000D02*
X131913300Y-73913300D01*
X131913300Y-73913300D02*
X135452300Y-73913300D01*
X135452300Y-73913300D02*
X140355300Y-78816300D01*
G04 #@! TO.N,Net-(DS1-Pad11)*
X140900000Y-70200000D02*
X138187100Y-72912900D01*
X138187100Y-72912900D02*
X132479200Y-72912900D01*
G04 #@! TO.N,Net-(DS1-Pad12)*
X143440000Y-70200000D02*
X142217100Y-71422900D01*
X142217100Y-71422900D02*
X142217100Y-77136700D01*
X142217100Y-77136700D02*
X148989900Y-83909500D01*
X148989900Y-83909500D02*
X156605100Y-83909500D01*
X156605100Y-83909500D02*
X159522100Y-80992500D01*
G04 #@! TO.N,Net-(DS1-Pad13)*
X136801500Y-82021500D02*
X136403500Y-82021500D01*
X136403500Y-82021500D02*
X133220700Y-85204300D01*
X133220700Y-85204300D02*
X133220700Y-86349500D01*
X133220700Y-86349500D02*
X146331800Y-99460600D01*
X146331800Y-99460600D02*
X181132100Y-99460600D01*
X181132100Y-99460600D02*
X182671500Y-101000000D01*
X182671500Y-101000000D02*
X182910000Y-101000000D01*
X145980000Y-70200000D02*
X145980000Y-71850000D01*
X145980000Y-71850000D02*
X144330000Y-71850000D01*
X144330000Y-71850000D02*
X143217500Y-72962500D01*
G04 #@! TO.N,Net-(DS1-Pad14)*
X182910000Y-84160000D02*
X182910000Y-80754700D01*
X182910000Y-80754700D02*
X180919900Y-78764600D01*
X180919900Y-78764600D02*
X175483200Y-78764600D01*
X175483200Y-78764600D02*
X172503900Y-75785300D01*
X172503900Y-75785300D02*
X172503900Y-66638600D01*
X172503900Y-66638600D02*
X165156100Y-59290800D01*
X165156100Y-59290800D02*
X144864100Y-59290800D01*
X144864100Y-59290800D02*
X142556200Y-61598700D01*
X142556200Y-61598700D02*
X142556200Y-62895600D01*
X142556200Y-62895600D02*
X148210600Y-68550000D01*
X148210600Y-68550000D02*
X148520000Y-68550000D01*
X182910000Y-85760000D02*
X182910000Y-84160000D01*
X148520000Y-70200000D02*
X148520000Y-68550000D01*
G04 #@! TO.N,Net-(IC1-Pad1)*
X124710000Y-95130000D02*
X122254800Y-97585200D01*
X122254800Y-97585200D02*
X122254800Y-103815000D01*
X122254800Y-103815000D02*
X123640500Y-105200700D01*
X123640500Y-105200700D02*
X128849300Y-105200700D01*
X128849300Y-105200700D02*
X133050000Y-101000000D01*
X134650000Y-101000000D02*
X133050000Y-101000000D01*
G04 #@! TO.N,Net-(IC1-Pad2)*
X124710000Y-97670000D02*
X123257400Y-99122600D01*
X123257400Y-99122600D02*
X123257400Y-103375700D01*
X123257400Y-103375700D02*
X124082000Y-104200300D01*
X124082000Y-104200300D02*
X128348700Y-104200300D01*
X128348700Y-104200300D02*
X132949400Y-99599600D01*
X132949400Y-99599600D02*
X135789600Y-99599600D01*
X135789600Y-99599600D02*
X137190000Y-101000000D01*
G04 #@! TO.N,Net-(IC1-Pad22)*
X180450000Y-80900000D02*
X180450000Y-82550000D01*
X180450000Y-82550000D02*
X180370000Y-82630000D01*
X180370000Y-82630000D02*
X180370000Y-85760000D01*
G04 #@! TO.N,Net-(IC1-Pad3)*
X139730000Y-101000000D02*
X139730000Y-99400000D01*
X139900000Y-81500000D02*
X139421200Y-81021200D01*
X139421200Y-81021200D02*
X135987400Y-81021200D01*
X135987400Y-81021200D02*
X132203700Y-84804900D01*
X132203700Y-84804900D02*
X132203700Y-91873700D01*
X132203700Y-91873700D02*
X139730000Y-99400000D01*
G04 #@! TO.N,Net-(IC1-Pad23)*
X177910000Y-80900000D02*
X177910000Y-82550000D01*
X177910000Y-82550000D02*
X177830000Y-82630000D01*
X177830000Y-82630000D02*
X177830000Y-85760000D01*
G04 #@! TO.N,Net-(IC1-Pad24)*
X175370000Y-80900000D02*
X175370000Y-82550000D01*
X175370000Y-82550000D02*
X175290000Y-82630000D01*
X175290000Y-82630000D02*
X175290000Y-85760000D01*
G04 #@! TO.N,Net-(IC1-Pad25)*
X172830000Y-80900000D02*
X172830000Y-82550000D01*
X172830000Y-82550000D02*
X172750000Y-82630000D01*
X172750000Y-82630000D02*
X172750000Y-85760000D01*
G04 #@! TO.N,Net-(IC1-Pad9)*
X154970000Y-101000000D02*
X154970000Y-102600000D01*
X167660000Y-112600000D02*
X166010000Y-112600000D01*
X166010000Y-112600000D02*
X166010000Y-112180000D01*
X166010000Y-112180000D02*
X156430000Y-102600000D01*
X156430000Y-102600000D02*
X154970000Y-102600000D01*
G04 #@! TO.N,Net-(IC1-Pad33)*
X176300000Y-107400000D02*
X178494100Y-107400000D01*
X178494100Y-107400000D02*
X184314900Y-101579200D01*
X184314900Y-101579200D02*
X184314900Y-99719400D01*
X184314900Y-99719400D02*
X177210900Y-92615400D01*
X177210900Y-92615400D02*
X159285400Y-92615400D01*
X159285400Y-92615400D02*
X152430000Y-85760000D01*
G04 #@! TO.N,Net-(IC1-Pad14)*
X180380000Y-77650000D02*
X181308100Y-77650000D01*
X181308100Y-77650000D02*
X184198700Y-80540600D01*
X184198700Y-80540600D02*
X184198700Y-85060900D01*
X184198700Y-85060900D02*
X184223700Y-85085900D01*
X180380000Y-76000000D02*
X180380000Y-77650000D01*
G04 #@! TO.N,Net-(IC1-Pad15)*
X189464900Y-105220300D02*
X189464900Y-96358200D01*
X189464900Y-96358200D02*
X194054200Y-91768900D01*
X177721900Y-104714500D02*
X173924500Y-104714500D01*
X173924500Y-104714500D02*
X170210000Y-101000000D01*
G04 #@! TO.N,Net-(IC1-Pad36)*
X187800000Y-81400000D02*
X187800000Y-82924200D01*
X187800000Y-82924200D02*
X183500200Y-87224000D01*
X183500200Y-87224000D02*
X181793300Y-87224000D01*
G04 #@! TO.N,Net-(IC1-Pad39)*
X119820000Y-110900000D02*
X118494300Y-109574300D01*
X118494300Y-109574300D02*
X118494300Y-104789100D01*
X118494300Y-104789100D02*
X120399900Y-102883500D01*
X120399900Y-102883500D02*
X120399900Y-96392600D01*
X120399900Y-96392600D02*
X123048600Y-93743900D01*
X123048600Y-93743900D02*
X123048600Y-84442100D01*
X123048600Y-84442100D02*
X124259700Y-83231000D01*
X124259700Y-83231000D02*
X129657400Y-83231000D01*
X144100000Y-117600000D02*
X126520000Y-117600000D01*
X126520000Y-117600000D02*
X121420000Y-112500000D01*
X119820000Y-112500000D02*
X121420000Y-112500000D01*
X144100000Y-117600000D02*
X144100000Y-120400000D01*
X119820000Y-112500000D02*
X119820000Y-110900000D01*
X144100000Y-120400000D02*
X144100000Y-123000000D01*
G04 #@! TO.N,Net-(IC2-Pad1)*
X187800000Y-89020000D02*
X187800000Y-90620000D01*
X187850000Y-92950000D02*
X187850000Y-90670000D01*
X187850000Y-90670000D02*
X187800000Y-90620000D01*
X187850000Y-94550000D02*
X187850000Y-92950000D01*
G04 #@! TO.N,Net-(IC2-Pad3)*
X183920000Y-105800000D02*
X183920000Y-103560000D01*
X183920000Y-103560000D02*
X187850000Y-99630000D01*
X183920000Y-107400000D02*
X183920000Y-105800000D01*
G04 #@! TO.N,Net-(L1-Pad2)*
X150060000Y-81500000D02*
X150060000Y-79900000D01*
X150060000Y-79900000D02*
X160550000Y-69410000D01*
X160550000Y-69410000D02*
X160550000Y-67300000D01*
G04 #@! TO.N,Net-(L2-Pad2)*
X162650000Y-65000000D02*
X162650000Y-69503400D01*
X162650000Y-69503400D02*
X154732200Y-77421200D01*
X154732200Y-77421200D02*
X154732200Y-78835900D01*
X154732200Y-78835900D02*
X150659000Y-82909100D01*
X150659000Y-82909100D02*
X149463000Y-82909100D01*
X149463000Y-82909100D02*
X148651200Y-82097300D01*
X148651200Y-82097300D02*
X148651200Y-78858800D01*
X148651200Y-78858800D02*
X149860000Y-77650000D01*
X149860000Y-76050000D02*
X149860000Y-77650000D01*
G04 #@! TO.N,Net-(PS2CONN1-Pad7)*
X163950000Y-61350000D02*
X157400000Y-61350000D01*
X157400000Y-61350000D02*
X157100000Y-61650000D01*
G04 #@! TO.N,Net-(D1-Pad2)*
X192800000Y-77150000D02*
X196828300Y-81178300D01*
X196828300Y-81178300D02*
X196828300Y-88747500D01*
X196828300Y-88747500D02*
X204430800Y-96350000D01*
X204430800Y-96350000D02*
X205310000Y-96350000D01*
G04 #@! TO.N,Net-(D2-Pad2)*
X195650000Y-112150000D02*
X197295600Y-113795600D01*
X197295600Y-113795600D02*
X202318400Y-113795600D01*
X202318400Y-113795600D02*
X205160000Y-110954000D01*
X205160000Y-110954000D02*
X205160000Y-108350000D01*
G04 #@! TO.N,Net-(D3-Pad2)*
X205310000Y-102350000D02*
X205310000Y-99585000D01*
X205310000Y-99585000D02*
X194725000Y-89000000D01*
X194725000Y-89000000D02*
X192800000Y-89000000D01*
G04 #@! TO.N,Net-(D4-Pad2)*
X149890000Y-85760000D02*
X159520200Y-95390200D01*
X159520200Y-95390200D02*
X178476400Y-95390200D01*
X178476400Y-95390200D02*
X181660300Y-98574100D01*
G04 #@! TO.N,Net-(C16-Pad1)*
X164429000Y-73463200D02*
X164429000Y-67921000D01*
X164429000Y-67921000D02*
X167350000Y-65000000D01*
X164429000Y-74940000D02*
X164429000Y-73463200D01*
X164429000Y-73463200D02*
X161313300Y-73463200D01*
X161313300Y-73463200D02*
X160437900Y-74338600D01*
X160437900Y-74338600D02*
X160437900Y-79988000D01*
X160437900Y-79988000D02*
X160531900Y-80082000D01*
X160531900Y-80082000D02*
X160531900Y-83678100D01*
X160531900Y-83678100D02*
X160050000Y-84160000D01*
X160050000Y-85760000D02*
X160050000Y-84160000D01*
X115474700Y-96400000D02*
X121048000Y-90826700D01*
X121048000Y-90826700D02*
X121048000Y-75290200D01*
X121048000Y-75290200D02*
X120547800Y-74790000D01*
X118040000Y-70798100D02*
X118040000Y-70200000D01*
X118040000Y-70798100D02*
X118040000Y-71850000D01*
X118040000Y-71850000D02*
X120547800Y-74357800D01*
X120547800Y-74357800D02*
X120547800Y-74790000D01*
X115474700Y-96400000D02*
X115474700Y-109225300D01*
X115474700Y-109225300D02*
X112200000Y-112500000D01*
X113600000Y-96400000D02*
X115474700Y-96400000D01*
X101650000Y-99600000D02*
X104000000Y-97250000D01*
X104000000Y-97250000D02*
X104000000Y-92040000D01*
G04 #@! TO.N,Net-(D5-Pad1)*
X161889000Y-74940000D02*
X161889000Y-76590000D01*
X163000000Y-79200000D02*
X163000000Y-77701000D01*
X163000000Y-77701000D02*
X161889000Y-76590000D01*
X163000000Y-80900000D02*
X163000000Y-79200000D01*
G04 #@! TO.N,Net-(C17-Pad2)*
X168650000Y-129500000D02*
X169150000Y-129500000D01*
X169150000Y-129500000D02*
X171500000Y-131850000D01*
X154750000Y-112750000D02*
X156800000Y-114800000D01*
X156800000Y-114800000D02*
X156800000Y-117600000D01*
X168650000Y-129500000D02*
X163788800Y-129500000D01*
X163788800Y-129500000D02*
X157288800Y-123000000D01*
X157288800Y-123000000D02*
X156800000Y-123000000D01*
X156800000Y-117600000D02*
X156800000Y-120400000D01*
X156800000Y-120400000D02*
X156800000Y-123000000D01*
G04 #@! TO.N,Net-(C18-Pad2)*
X180500000Y-129450000D02*
X180950000Y-129450000D01*
X180950000Y-129450000D02*
X183350000Y-131850000D01*
X159340000Y-117600000D02*
X159340000Y-115950000D01*
X162370000Y-112750000D02*
X162370000Y-114350000D01*
X159340000Y-115950000D02*
X160770000Y-115950000D01*
X160770000Y-115950000D02*
X162370000Y-114350000D01*
X159340000Y-120400000D02*
X159340000Y-117600000D01*
X159340000Y-120400000D02*
X159340000Y-123000000D01*
G04 #@! TO.N,Net-(C19-Pad2)*
X192500000Y-129450000D02*
X193150000Y-129450000D01*
X193150000Y-129450000D02*
X195550000Y-131850000D01*
X161880000Y-117600000D02*
X161880000Y-120400000D01*
X161880000Y-120400000D02*
X161880000Y-123000000D01*
G04 #@! TD*
M02*
