G04 #@! TF.GenerationSoftware,KiCad,Pcbnew,5.0.2+dfsg1-1*
G04 #@! TF.CreationDate,2019-04-18T10:12:34+02:00*
G04 #@! TF.ProjectId,yaacwk,79616163-776b-42e6-9b69-6361645f7063,1.3*
G04 #@! TF.SameCoordinates,Original*
G04 #@! TF.FileFunction,Other,Fab,Top*
%FSLAX46Y46*%
G04 Gerber Fmt 4.6, Leading zero omitted, Abs format (unit mm)*
G04 Created by KiCad (PCBNEW 5.0.2+dfsg1-1) date gio 18 apr 2019 10:12:34 CEST*
%MOMM*%
%LPD*%
G01*
G04 APERTURE LIST*
%ADD10C,0.100000*%
%ADD11C,0.150000*%
G04 APERTURE END LIST*
D10*
G04 #@! TO.C,J12*
X142830000Y-121730000D02*
X142830000Y-124270000D01*
X165690000Y-121730000D02*
X142830000Y-121730000D01*
X165690000Y-124270000D02*
X165690000Y-121730000D01*
X142830000Y-124270000D02*
X165690000Y-124270000D01*
G04 #@! TO.C,PS2CONN1*
X155950000Y-68800000D02*
X155950000Y-56000000D01*
X155950000Y-56000000D02*
X171950000Y-56000000D01*
X171950000Y-56000000D02*
X171950000Y-68800000D01*
X171950000Y-68800000D02*
X155950000Y-68800000D01*
G04 #@! TO.C,D1*
X208080555Y-95184524D02*
G75*
G03X208080000Y-97516190I-1500555J-1165476D01*
G01*
X208080000Y-96350000D02*
G75*
G03X208080000Y-96350000I-1500000J0D01*
G01*
X208080000Y-97516190D02*
X208080000Y-95183810D01*
G04 #@! TO.C,D2*
X207930555Y-107184524D02*
G75*
G03X207930000Y-109516190I-1500555J-1165476D01*
G01*
X207930000Y-108350000D02*
G75*
G03X207930000Y-108350000I-1500000J0D01*
G01*
X207930000Y-109516190D02*
X207930000Y-107183810D01*
G04 #@! TO.C,D3*
X208080555Y-101184524D02*
G75*
G03X208080000Y-103516190I-1500555J-1165476D01*
G01*
X208080000Y-102350000D02*
G75*
G03X208080000Y-102350000I-1500000J0D01*
G01*
X208080000Y-103516190D02*
X208080000Y-101183810D01*
G04 #@! TO.C,IC1*
X133380000Y-99745000D02*
X133380000Y-86015000D01*
X133380000Y-86015000D02*
X184180000Y-86015000D01*
X184180000Y-86015000D02*
X184180000Y-100745000D01*
X184180000Y-100745000D02*
X134380000Y-100745000D01*
X134380000Y-100745000D02*
X133380000Y-99745000D01*
G04 #@! TO.C,IC2*
X188485000Y-94280000D02*
X189485000Y-93280000D01*
X188485000Y-103440000D02*
X188485000Y-94280000D01*
X194835000Y-103440000D02*
X188485000Y-103440000D01*
X194835000Y-93280000D02*
X194835000Y-103440000D01*
X189485000Y-93280000D02*
X194835000Y-93280000D01*
G04 #@! TO.C,L1*
X141480000Y-79850000D02*
X141480000Y-83150000D01*
X141480000Y-83150000D02*
X148480000Y-83150000D01*
X148480000Y-83150000D02*
X148480000Y-79850000D01*
X148480000Y-79850000D02*
X141480000Y-79850000D01*
X139900000Y-81500000D02*
X141480000Y-81500000D01*
X150060000Y-81500000D02*
X148480000Y-81500000D01*
G04 #@! TO.C,L2*
X141280000Y-74400000D02*
X141280000Y-77700000D01*
X141280000Y-77700000D02*
X148280000Y-77700000D01*
X148280000Y-77700000D02*
X148280000Y-74400000D01*
X148280000Y-74400000D02*
X141280000Y-74400000D01*
X139700000Y-76050000D02*
X141280000Y-76050000D01*
X149860000Y-76050000D02*
X148280000Y-76050000D01*
G04 #@! TO.C,R1*
X119820000Y-112500000D02*
X119160000Y-112500000D01*
X112200000Y-112500000D02*
X112860000Y-112500000D01*
X119160000Y-111250000D02*
X112860000Y-111250000D01*
X119160000Y-113750000D02*
X119160000Y-111250000D01*
X112860000Y-113750000D02*
X119160000Y-113750000D01*
X112860000Y-111250000D02*
X112860000Y-113750000D01*
G04 #@! TO.C,R2*
X119970000Y-107300000D02*
X119310000Y-107300000D01*
X112350000Y-107300000D02*
X113010000Y-107300000D01*
X119310000Y-106050000D02*
X113010000Y-106050000D01*
X119310000Y-108550000D02*
X119310000Y-106050000D01*
X113010000Y-108550000D02*
X119310000Y-108550000D01*
X113010000Y-106050000D02*
X113010000Y-108550000D01*
G04 #@! TO.C,R3*
X133120000Y-112650000D02*
X132460000Y-112650000D01*
X125500000Y-112650000D02*
X126160000Y-112650000D01*
X132460000Y-111400000D02*
X126160000Y-111400000D01*
X132460000Y-113900000D02*
X132460000Y-111400000D01*
X126160000Y-113900000D02*
X132460000Y-113900000D01*
X126160000Y-111400000D02*
X126160000Y-113900000D01*
G04 #@! TO.C,R4*
X133070000Y-107650000D02*
X132410000Y-107650000D01*
X125450000Y-107650000D02*
X126110000Y-107650000D01*
X132410000Y-106400000D02*
X126110000Y-106400000D01*
X132410000Y-108900000D02*
X132410000Y-106400000D01*
X126110000Y-108900000D02*
X132410000Y-108900000D01*
X126110000Y-106400000D02*
X126110000Y-108900000D01*
G04 #@! TO.C,R5*
X138360000Y-111250000D02*
X138360000Y-113750000D01*
X138360000Y-113750000D02*
X144660000Y-113750000D01*
X144660000Y-113750000D02*
X144660000Y-111250000D01*
X144660000Y-111250000D02*
X138360000Y-111250000D01*
X137700000Y-112500000D02*
X138360000Y-112500000D01*
X145320000Y-112500000D02*
X144660000Y-112500000D01*
G04 #@! TO.C,R6*
X191550000Y-76490000D02*
X194050000Y-76490000D01*
X194050000Y-76490000D02*
X194050000Y-70190000D01*
X194050000Y-70190000D02*
X191550000Y-70190000D01*
X191550000Y-70190000D02*
X191550000Y-76490000D01*
X192800000Y-77150000D02*
X192800000Y-76490000D01*
X192800000Y-69530000D02*
X192800000Y-70190000D01*
G04 #@! TO.C,R7*
X194990000Y-113400000D02*
X194990000Y-110900000D01*
X194990000Y-110900000D02*
X188690000Y-110900000D01*
X188690000Y-110900000D02*
X188690000Y-113400000D01*
X188690000Y-113400000D02*
X194990000Y-113400000D01*
X195650000Y-112150000D02*
X194990000Y-112150000D01*
X188030000Y-112150000D02*
X188690000Y-112150000D01*
G04 #@! TO.C,R8*
X192800000Y-81380000D02*
X192800000Y-82040000D01*
X192800000Y-89000000D02*
X192800000Y-88340000D01*
X191550000Y-82040000D02*
X191550000Y-88340000D01*
X194050000Y-82040000D02*
X191550000Y-82040000D01*
X194050000Y-88340000D02*
X194050000Y-82040000D01*
X191550000Y-88340000D02*
X194050000Y-88340000D01*
G04 #@! TO.C,R9*
X195190000Y-108650000D02*
X195190000Y-106150000D01*
X195190000Y-106150000D02*
X188890000Y-106150000D01*
X188890000Y-106150000D02*
X188890000Y-108650000D01*
X188890000Y-108650000D02*
X195190000Y-108650000D01*
X195850000Y-107400000D02*
X195190000Y-107400000D01*
X188230000Y-107400000D02*
X188890000Y-107400000D01*
G04 #@! TO.C,R10*
X189050000Y-82060000D02*
X186550000Y-82060000D01*
X186550000Y-82060000D02*
X186550000Y-88360000D01*
X186550000Y-88360000D02*
X189050000Y-88360000D01*
X189050000Y-88360000D02*
X189050000Y-82060000D01*
X187800000Y-81400000D02*
X187800000Y-82060000D01*
X187800000Y-89020000D02*
X187800000Y-88360000D01*
G04 #@! TO.C,R11*
X176960000Y-106150000D02*
X176960000Y-108650000D01*
X176960000Y-108650000D02*
X183260000Y-108650000D01*
X183260000Y-108650000D02*
X183260000Y-106150000D01*
X183260000Y-106150000D02*
X176960000Y-106150000D01*
X176300000Y-107400000D02*
X176960000Y-107400000D01*
X183920000Y-107400000D02*
X183260000Y-107400000D01*
G04 #@! TO.C,R12*
X127060000Y-74250000D02*
X127060000Y-76750000D01*
X127060000Y-76750000D02*
X133360000Y-76750000D01*
X133360000Y-76750000D02*
X133360000Y-74250000D01*
X133360000Y-74250000D02*
X127060000Y-74250000D01*
X126400000Y-75500000D02*
X127060000Y-75500000D01*
X134020000Y-75500000D02*
X133360000Y-75500000D01*
G04 #@! TO.C,R13*
X126960000Y-78850000D02*
X126960000Y-81350000D01*
X126960000Y-81350000D02*
X133260000Y-81350000D01*
X133260000Y-81350000D02*
X133260000Y-78850000D01*
X133260000Y-78850000D02*
X126960000Y-78850000D01*
X126300000Y-80100000D02*
X126960000Y-80100000D01*
X133920000Y-80100000D02*
X133260000Y-80100000D01*
G04 #@! TO.C,Y1*
X163885000Y-104075000D02*
G75*
G02X163885000Y-108725000I0J-2325000D01*
G01*
X157635000Y-104075000D02*
G75*
G03X157635000Y-108725000I0J-2325000D01*
G01*
X163760000Y-104400000D02*
G75*
G02X163760000Y-108400000I0J-2000000D01*
G01*
X157760000Y-104400000D02*
G75*
G03X157760000Y-108400000I0J-2000000D01*
G01*
X163885000Y-108725000D02*
X157635000Y-108725000D01*
X163885000Y-104075000D02*
X157635000Y-104075000D01*
X163760000Y-108400000D02*
X157760000Y-108400000D01*
X163760000Y-104400000D02*
X157760000Y-104400000D01*
G04 #@! TO.C,D5*
X161790000Y-82250000D02*
X161790000Y-79550000D01*
X161790000Y-79550000D02*
X156590000Y-79550000D01*
X156590000Y-79550000D02*
X156590000Y-82250000D01*
X156590000Y-82250000D02*
X161790000Y-82250000D01*
X163000000Y-80900000D02*
X161790000Y-80900000D01*
X155380000Y-80900000D02*
X156590000Y-80900000D01*
X161010000Y-82250000D02*
X161010000Y-79550000D01*
G04 #@! TO.C,D6*
X182060000Y-69250000D02*
X182060000Y-71950000D01*
X182060000Y-71950000D02*
X187260000Y-71950000D01*
X187260000Y-71950000D02*
X187260000Y-69250000D01*
X187260000Y-69250000D02*
X182060000Y-69250000D01*
X180850000Y-70600000D02*
X182060000Y-70600000D01*
X188470000Y-70600000D02*
X187260000Y-70600000D01*
X182840000Y-69250000D02*
X182840000Y-71950000D01*
G04 #@! TO.C,J6*
X174030000Y-74730000D02*
X174030000Y-77270000D01*
X189270000Y-74730000D02*
X174030000Y-74730000D01*
X189270000Y-77270000D02*
X189270000Y-74730000D01*
X174030000Y-77270000D02*
X189270000Y-77270000D01*
G04 #@! TO.C,SW6*
X171470000Y-111330000D02*
X166390000Y-111330000D01*
X166390000Y-111330000D02*
X166390000Y-113870000D01*
X166390000Y-113870000D02*
X171470000Y-113870000D01*
X171470000Y-113870000D02*
X171470000Y-111330000D01*
G04 #@! TO.C,J2*
X105304000Y-67880000D02*
X105304000Y-56080000D01*
X105304000Y-56080000D02*
X105904000Y-56080000D01*
X105904000Y-56080000D02*
X105904000Y-54080000D01*
X105904000Y-54080000D02*
X110504000Y-54080000D01*
X110504000Y-54080000D02*
X110504000Y-56080000D01*
X110504000Y-56080000D02*
X111104000Y-56080000D01*
X111104000Y-56080000D02*
X111104000Y-67880000D01*
X111104000Y-67880000D02*
X105304000Y-67880000D01*
G04 #@! TO.C,LCDPot2*
X118400000Y-94000000D02*
X118400000Y-103800000D01*
X118400000Y-103800000D02*
X113600000Y-103800000D01*
X113600000Y-103800000D02*
X113600000Y-94000000D01*
X113600000Y-94000000D02*
X118400000Y-94000000D01*
X113600000Y-97400000D02*
X113600000Y-100400000D01*
X113600000Y-100400000D02*
X118400000Y-100400000D01*
X118400000Y-100400000D02*
X118400000Y-97400000D01*
X118400000Y-97400000D02*
X113600000Y-97400000D01*
G04 #@! TO.C,DS1*
X114230000Y-71470000D02*
X154870000Y-71470000D01*
X154870000Y-71470000D02*
X154870000Y-68930000D01*
X154870000Y-68930000D02*
X114230000Y-68930000D01*
X114230000Y-68930000D02*
X114230000Y-71470000D01*
G04 #@! TO.C,J7*
X181720000Y-79630000D02*
X166480000Y-79630000D01*
X166480000Y-79630000D02*
X166480000Y-82170000D01*
X166480000Y-82170000D02*
X181720000Y-82170000D01*
X181720000Y-82170000D02*
X181720000Y-79630000D01*
G04 #@! TO.C,J9*
X168239000Y-73670000D02*
X160619000Y-73670000D01*
X160619000Y-73670000D02*
X160619000Y-76210000D01*
X160619000Y-76210000D02*
X168239000Y-76210000D01*
X168239000Y-76210000D02*
X168239000Y-73670000D01*
G04 #@! TO.C,J1*
X209650000Y-55900000D02*
X200650000Y-55900000D01*
X209650000Y-52400000D02*
X200650000Y-52400000D01*
X200650000Y-52400000D02*
X200650000Y-66900000D01*
X200650000Y-66900000D02*
X209650000Y-66900000D01*
X209650000Y-66900000D02*
X209650000Y-52400000D01*
G04 #@! TO.C,C14*
X130500000Y-62600000D02*
G75*
G03X130500000Y-62600000I-4000000J0D01*
G01*
X126500000Y-66700000D02*
X126500000Y-65500000D01*
X125850000Y-66100000D02*
X127150000Y-66100000D01*
G04 #@! TO.C,C16*
X140500000Y-62600000D02*
G75*
G03X140500000Y-62600000I-4000000J0D01*
G01*
X136500000Y-66700000D02*
X136500000Y-65500000D01*
X135850000Y-66100000D02*
X137150000Y-66100000D01*
G04 #@! TO.C,R14*
X138310000Y-106450000D02*
X138310000Y-108950000D01*
X138310000Y-108950000D02*
X144610000Y-108950000D01*
X144610000Y-108950000D02*
X144610000Y-106450000D01*
X144610000Y-106450000D02*
X138310000Y-106450000D01*
X137650000Y-107700000D02*
X138310000Y-107700000D01*
X145270000Y-107700000D02*
X144610000Y-107700000D01*
G04 #@! TO.C,R15*
X155410000Y-111500000D02*
X155410000Y-114000000D01*
X155410000Y-114000000D02*
X161710000Y-114000000D01*
X161710000Y-114000000D02*
X161710000Y-111500000D01*
X161710000Y-111500000D02*
X155410000Y-111500000D01*
X154750000Y-112750000D02*
X155410000Y-112750000D01*
X162370000Y-112750000D02*
X161710000Y-112750000D01*
G04 #@! TO.C,R16*
X177060000Y-111000000D02*
X177060000Y-113500000D01*
X177060000Y-113500000D02*
X183360000Y-113500000D01*
X183360000Y-113500000D02*
X183360000Y-111000000D01*
X183360000Y-111000000D02*
X177060000Y-111000000D01*
X176400000Y-112250000D02*
X177060000Y-112250000D01*
X184020000Y-112250000D02*
X183360000Y-112250000D01*
G04 #@! TO.C,SpeedPot1*
X85150000Y-106600000D02*
X95150000Y-106600000D01*
X85150000Y-102600000D02*
X85150000Y-106600000D01*
X95150000Y-102600000D02*
X85150000Y-102600000D01*
X95150000Y-106600000D02*
X95150000Y-102600000D01*
X95150000Y-108100000D02*
X100150000Y-108100000D01*
X95150000Y-101100000D02*
X95150000Y-108100000D01*
X100150000Y-101100000D02*
X95150000Y-101100000D01*
X100150000Y-108100000D02*
X100150000Y-101100000D01*
X100150000Y-112600000D02*
X107650000Y-112600000D01*
X100150000Y-96600000D02*
X100150000Y-112600000D01*
X107650000Y-96600000D02*
X100150000Y-96600000D01*
X107650000Y-112600000D02*
X107650000Y-96600000D01*
G04 #@! TO.C,D4*
X208430338Y-113573861D02*
G75*
G03X208430000Y-116226650I-2000338J-1326139D01*
G01*
X208430000Y-114900000D02*
G75*
G03X208430000Y-114900000I-2000000J0D01*
G01*
X208430000Y-116226650D02*
X208430000Y-113573350D01*
G04 #@! TO.C,C3*
X199050000Y-98900000D02*
X202050000Y-98900000D01*
X199050000Y-97300000D02*
X199050000Y-98900000D01*
X202050000Y-97300000D02*
X199050000Y-97300000D01*
X202050000Y-98900000D02*
X202050000Y-97300000D01*
G04 #@! TO.C,C2*
X199050000Y-103150000D02*
X202050000Y-103150000D01*
X199050000Y-101550000D02*
X199050000Y-103150000D01*
X202050000Y-101550000D02*
X199050000Y-101550000D01*
X202050000Y-103150000D02*
X202050000Y-101550000D01*
G04 #@! TO.C,C10*
X170800000Y-105550000D02*
X169200000Y-105550000D01*
X169200000Y-105550000D02*
X169200000Y-108550000D01*
X169200000Y-108550000D02*
X170800000Y-108550000D01*
X170800000Y-108550000D02*
X170800000Y-105550000D01*
G04 #@! TO.C,C11*
X152000000Y-105350000D02*
X150400000Y-105350000D01*
X150400000Y-105350000D02*
X150400000Y-108350000D01*
X150400000Y-108350000D02*
X152000000Y-108350000D01*
X152000000Y-108350000D02*
X152000000Y-105350000D01*
G04 #@! TO.C,C1*
X117400000Y-88850000D02*
X119000000Y-88850000D01*
X119000000Y-88850000D02*
X119000000Y-85850000D01*
X119000000Y-85850000D02*
X117400000Y-85850000D01*
X117400000Y-85850000D02*
X117400000Y-88850000D01*
G04 #@! TO.C,C12*
X119300000Y-78850000D02*
X116700000Y-78850000D01*
X116700000Y-78850000D02*
X116700000Y-82650000D01*
X116700000Y-82650000D02*
X119300000Y-82650000D01*
X119300000Y-82650000D02*
X119300000Y-78850000D01*
G04 #@! TO.C,C13*
X114100000Y-79250000D02*
G75*
G03X114100000Y-79250000I-2500000J0D01*
G01*
X111600000Y-75800000D02*
X111600000Y-77000000D01*
X112250000Y-76400000D02*
X110950000Y-76400000D01*
G04 #@! TO.C,C15*
X114100000Y-87650000D02*
G75*
G03X114100000Y-87650000I-2500000J0D01*
G01*
X111600000Y-84200000D02*
X111600000Y-85400000D01*
X112250000Y-84800000D02*
X110950000Y-84800000D01*
G04 #@! TO.C,C4*
X202000000Y-107800000D02*
X202000000Y-106200000D01*
X202000000Y-106200000D02*
X199000000Y-106200000D01*
X199000000Y-106200000D02*
X199000000Y-107800000D01*
X199000000Y-107800000D02*
X202000000Y-107800000D01*
G04 #@! TO.C,C5*
X202000000Y-113150000D02*
X202000000Y-111550000D01*
X202000000Y-111550000D02*
X199000000Y-111550000D01*
X199000000Y-111550000D02*
X199000000Y-113150000D01*
X199000000Y-113150000D02*
X202000000Y-113150000D01*
G04 #@! TO.C,J8*
X128520000Y-104020000D02*
X128520000Y-83700000D01*
X128520000Y-83700000D02*
X123440000Y-83700000D01*
X123440000Y-83700000D02*
X123440000Y-104020000D01*
X123440000Y-104020000D02*
X128520000Y-104020000D01*
G04 #@! TO.C,J10*
X142830000Y-118870000D02*
X165690000Y-118870000D01*
X165690000Y-118870000D02*
X165690000Y-116330000D01*
X165690000Y-116330000D02*
X142830000Y-116330000D01*
X142830000Y-116330000D02*
X142830000Y-118870000D01*
G04 #@! TO.C,J11*
X142830000Y-121670000D02*
X165690000Y-121670000D01*
X165690000Y-121670000D02*
X165690000Y-119130000D01*
X165690000Y-119130000D02*
X142830000Y-119130000D01*
X142830000Y-119130000D02*
X142830000Y-121670000D01*
G04 #@! TO.C,J5*
X184900000Y-67850000D02*
X179100000Y-67850000D01*
X184900000Y-56050000D02*
X184900000Y-67850000D01*
X184300000Y-56050000D02*
X184900000Y-56050000D01*
X184300000Y-54050000D02*
X184300000Y-56050000D01*
X179700000Y-54050000D02*
X184300000Y-54050000D01*
X179700000Y-56050000D02*
X179700000Y-54050000D01*
X179100000Y-56050000D02*
X179700000Y-56050000D01*
X179100000Y-67850000D02*
X179100000Y-56050000D01*
G04 #@! TD*
G04 #@! TO.C,PS2CONN1*
D11*
X155156190Y-54802380D02*
X155156190Y-53802380D01*
X155489523Y-54516666D01*
X155822857Y-53802380D01*
X155822857Y-54802380D01*
X156299047Y-54802380D02*
X156299047Y-54135714D01*
X156299047Y-53802380D02*
X156251428Y-53850000D01*
X156299047Y-53897619D01*
X156346666Y-53850000D01*
X156299047Y-53802380D01*
X156299047Y-53897619D01*
X156775238Y-54135714D02*
X156775238Y-54802380D01*
X156775238Y-54230952D02*
X156822857Y-54183333D01*
X156918095Y-54135714D01*
X157060952Y-54135714D01*
X157156190Y-54183333D01*
X157203809Y-54278571D01*
X157203809Y-54802380D01*
X157680000Y-54802380D02*
X157680000Y-54135714D01*
X157680000Y-53802380D02*
X157632380Y-53850000D01*
X157680000Y-53897619D01*
X157727619Y-53850000D01*
X157680000Y-53802380D01*
X157680000Y-53897619D01*
X158156190Y-54421428D02*
X158918095Y-54421428D01*
X159394285Y-54802380D02*
X159394285Y-53802380D01*
X159632380Y-53802380D01*
X159775238Y-53850000D01*
X159870476Y-53945238D01*
X159918095Y-54040476D01*
X159965714Y-54230952D01*
X159965714Y-54373809D01*
X159918095Y-54564285D01*
X159870476Y-54659523D01*
X159775238Y-54754761D01*
X159632380Y-54802380D01*
X159394285Y-54802380D01*
X160394285Y-54802380D02*
X160394285Y-53802380D01*
X160870476Y-54802380D02*
X160870476Y-53802380D01*
X161441904Y-54802380D01*
X161441904Y-53802380D01*
X161680000Y-54897619D02*
X162441904Y-54897619D01*
X163108571Y-53802380D02*
X162918095Y-53802380D01*
X162822857Y-53850000D01*
X162775238Y-53897619D01*
X162680000Y-54040476D01*
X162632380Y-54230952D01*
X162632380Y-54611904D01*
X162680000Y-54707142D01*
X162727619Y-54754761D01*
X162822857Y-54802380D01*
X163013333Y-54802380D01*
X163108571Y-54754761D01*
X163156190Y-54707142D01*
X163203809Y-54611904D01*
X163203809Y-54373809D01*
X163156190Y-54278571D01*
X163108571Y-54230952D01*
X163013333Y-54183333D01*
X162822857Y-54183333D01*
X162727619Y-54230952D01*
X162680000Y-54278571D01*
X162632380Y-54373809D01*
X163632380Y-54135714D02*
X163632380Y-55135714D01*
X163632380Y-54183333D02*
X163727619Y-54135714D01*
X163918095Y-54135714D01*
X164013333Y-54183333D01*
X164060952Y-54230952D01*
X164108571Y-54326190D01*
X164108571Y-54611904D01*
X164060952Y-54707142D01*
X164013333Y-54754761D01*
X163918095Y-54802380D01*
X163727619Y-54802380D01*
X163632380Y-54754761D01*
X164537142Y-54802380D02*
X164537142Y-54135714D01*
X164537142Y-53802380D02*
X164489523Y-53850000D01*
X164537142Y-53897619D01*
X164584761Y-53850000D01*
X164537142Y-53802380D01*
X164537142Y-53897619D01*
X165013333Y-54135714D02*
X165013333Y-54802380D01*
X165013333Y-54230952D02*
X165060952Y-54183333D01*
X165156190Y-54135714D01*
X165299047Y-54135714D01*
X165394285Y-54183333D01*
X165441904Y-54278571D01*
X165441904Y-54802380D01*
X165870476Y-54754761D02*
X165965714Y-54802380D01*
X166156190Y-54802380D01*
X166251428Y-54754761D01*
X166299047Y-54659523D01*
X166299047Y-54611904D01*
X166251428Y-54516666D01*
X166156190Y-54469047D01*
X166013333Y-54469047D01*
X165918095Y-54421428D01*
X165870476Y-54326190D01*
X165870476Y-54278571D01*
X165918095Y-54183333D01*
X166013333Y-54135714D01*
X166156190Y-54135714D01*
X166251428Y-54183333D01*
X166489523Y-54897619D02*
X167251428Y-54897619D01*
X167394285Y-54135714D02*
X167632380Y-54802380D01*
X167870476Y-54135714D01*
X168632380Y-54754761D02*
X168537142Y-54802380D01*
X168346666Y-54802380D01*
X168251428Y-54754761D01*
X168203809Y-54659523D01*
X168203809Y-54278571D01*
X168251428Y-54183333D01*
X168346666Y-54135714D01*
X168537142Y-54135714D01*
X168632380Y-54183333D01*
X168679999Y-54278571D01*
X168679999Y-54373809D01*
X168203809Y-54469047D01*
X169108571Y-54802380D02*
X169108571Y-54135714D01*
X169108571Y-54326190D02*
X169156190Y-54230952D01*
X169203809Y-54183333D01*
X169299047Y-54135714D01*
X169394285Y-54135714D01*
X170156190Y-54135714D02*
X170156190Y-54802380D01*
X169918095Y-53754761D02*
X169679999Y-54469047D01*
X170299047Y-54469047D01*
X160158095Y-71302380D02*
X160158095Y-70302380D01*
X160539047Y-70302380D01*
X160634285Y-70350000D01*
X160681904Y-70397619D01*
X160729523Y-70492857D01*
X160729523Y-70635714D01*
X160681904Y-70730952D01*
X160634285Y-70778571D01*
X160539047Y-70826190D01*
X160158095Y-70826190D01*
X161110476Y-71254761D02*
X161253333Y-71302380D01*
X161491428Y-71302380D01*
X161586666Y-71254761D01*
X161634285Y-71207142D01*
X161681904Y-71111904D01*
X161681904Y-71016666D01*
X161634285Y-70921428D01*
X161586666Y-70873809D01*
X161491428Y-70826190D01*
X161300952Y-70778571D01*
X161205714Y-70730952D01*
X161158095Y-70683333D01*
X161110476Y-70588095D01*
X161110476Y-70492857D01*
X161158095Y-70397619D01*
X161205714Y-70350000D01*
X161300952Y-70302380D01*
X161539047Y-70302380D01*
X161681904Y-70350000D01*
X162062857Y-70397619D02*
X162110476Y-70350000D01*
X162205714Y-70302380D01*
X162443809Y-70302380D01*
X162539047Y-70350000D01*
X162586666Y-70397619D01*
X162634285Y-70492857D01*
X162634285Y-70588095D01*
X162586666Y-70730952D01*
X162015238Y-71302380D01*
X162634285Y-71302380D01*
X163634285Y-71207142D02*
X163586666Y-71254761D01*
X163443809Y-71302380D01*
X163348571Y-71302380D01*
X163205714Y-71254761D01*
X163110476Y-71159523D01*
X163062857Y-71064285D01*
X163015238Y-70873809D01*
X163015238Y-70730952D01*
X163062857Y-70540476D01*
X163110476Y-70445238D01*
X163205714Y-70350000D01*
X163348571Y-70302380D01*
X163443809Y-70302380D01*
X163586666Y-70350000D01*
X163634285Y-70397619D01*
X164253333Y-70302380D02*
X164443809Y-70302380D01*
X164539047Y-70350000D01*
X164634285Y-70445238D01*
X164681904Y-70635714D01*
X164681904Y-70969047D01*
X164634285Y-71159523D01*
X164539047Y-71254761D01*
X164443809Y-71302380D01*
X164253333Y-71302380D01*
X164158095Y-71254761D01*
X164062857Y-71159523D01*
X164015238Y-70969047D01*
X164015238Y-70635714D01*
X164062857Y-70445238D01*
X164158095Y-70350000D01*
X164253333Y-70302380D01*
X165110476Y-71302380D02*
X165110476Y-70302380D01*
X165681904Y-71302380D01*
X165681904Y-70302380D01*
X166158095Y-71302380D02*
X166158095Y-70302380D01*
X166729523Y-71302380D01*
X166729523Y-70302380D01*
X167729523Y-71302380D02*
X167158095Y-71302380D01*
X167443809Y-71302380D02*
X167443809Y-70302380D01*
X167348571Y-70445238D01*
X167253333Y-70540476D01*
X167158095Y-70588095D01*
G04 #@! TO.C,HOLE1*
X194214857Y-66238380D02*
X193643428Y-66238380D01*
X193929142Y-66238380D02*
X193929142Y-65238380D01*
X193833904Y-65381238D01*
X193738666Y-65476476D01*
X193643428Y-65524095D01*
X194643428Y-65571714D02*
X194643428Y-66571714D01*
X194643428Y-65619333D02*
X194738666Y-65571714D01*
X194929142Y-65571714D01*
X195024380Y-65619333D01*
X195072000Y-65666952D01*
X195119619Y-65762190D01*
X195119619Y-66047904D01*
X195072000Y-66143142D01*
X195024380Y-66190761D01*
X194929142Y-66238380D01*
X194738666Y-66238380D01*
X194643428Y-66190761D01*
X195548190Y-66238380D02*
X195548190Y-65571714D01*
X195548190Y-65238380D02*
X195500571Y-65286000D01*
X195548190Y-65333619D01*
X195595809Y-65286000D01*
X195548190Y-65238380D01*
X195548190Y-65333619D01*
X196024380Y-65571714D02*
X196024380Y-66238380D01*
X196024380Y-65666952D02*
X196072000Y-65619333D01*
X196167238Y-65571714D01*
X196310095Y-65571714D01*
X196405333Y-65619333D01*
X196452952Y-65714571D01*
X196452952Y-66238380D01*
G04 #@! TO.C,BZ1*
X146693617Y-54177571D02*
X146836474Y-54225190D01*
X146884093Y-54272809D01*
X146931712Y-54368047D01*
X146931712Y-54510904D01*
X146884093Y-54606142D01*
X146836474Y-54653761D01*
X146741236Y-54701380D01*
X146360283Y-54701380D01*
X146360283Y-53701380D01*
X146693617Y-53701380D01*
X146788855Y-53749000D01*
X146836474Y-53796619D01*
X146884093Y-53891857D01*
X146884093Y-53987095D01*
X146836474Y-54082333D01*
X146788855Y-54129952D01*
X146693617Y-54177571D01*
X146360283Y-54177571D01*
X147360283Y-53701380D02*
X147360283Y-54510904D01*
X147407902Y-54606142D01*
X147455521Y-54653761D01*
X147550760Y-54701380D01*
X147741236Y-54701380D01*
X147836474Y-54653761D01*
X147884093Y-54606142D01*
X147931712Y-54510904D01*
X147931712Y-53701380D01*
X148312664Y-53701380D02*
X148979331Y-53701380D01*
X148312664Y-54701380D01*
X148979331Y-54701380D01*
X149265045Y-53701380D02*
X149931712Y-53701380D01*
X149265045Y-54701380D01*
X149931712Y-54701380D01*
X150312664Y-54177571D02*
X150645998Y-54177571D01*
X150788855Y-54701380D02*
X150312664Y-54701380D01*
X150312664Y-53701380D01*
X150788855Y-53701380D01*
X151788855Y-54701380D02*
X151455521Y-54225190D01*
X151217426Y-54701380D02*
X151217426Y-53701380D01*
X151598379Y-53701380D01*
X151693617Y-53749000D01*
X151741236Y-53796619D01*
X151788855Y-53891857D01*
X151788855Y-54034714D01*
X151741236Y-54129952D01*
X151693617Y-54177571D01*
X151598379Y-54225190D01*
X151217426Y-54225190D01*
G04 #@! TO.C,D1*
X206007142Y-99352380D02*
X205530952Y-99352380D01*
X205530952Y-98352380D01*
X206340476Y-98828571D02*
X206673809Y-98828571D01*
X206816666Y-99352380D02*
X206340476Y-99352380D01*
X206340476Y-98352380D01*
X206816666Y-98352380D01*
X207245238Y-99352380D02*
X207245238Y-98352380D01*
X207483333Y-98352380D01*
X207626190Y-98400000D01*
X207721428Y-98495238D01*
X207769047Y-98590476D01*
X207816666Y-98780952D01*
X207816666Y-98923809D01*
X207769047Y-99114285D01*
X207721428Y-99209523D01*
X207626190Y-99304761D01*
X207483333Y-99352380D01*
X207245238Y-99352380D01*
G04 #@! TO.C,D2*
X205807142Y-111502380D02*
X205330952Y-111502380D01*
X205330952Y-110502380D01*
X206140476Y-110978571D02*
X206473809Y-110978571D01*
X206616666Y-111502380D02*
X206140476Y-111502380D01*
X206140476Y-110502380D01*
X206616666Y-110502380D01*
X207045238Y-111502380D02*
X207045238Y-110502380D01*
X207283333Y-110502380D01*
X207426190Y-110550000D01*
X207521428Y-110645238D01*
X207569047Y-110740476D01*
X207616666Y-110930952D01*
X207616666Y-111073809D01*
X207569047Y-111264285D01*
X207521428Y-111359523D01*
X207426190Y-111454761D01*
X207283333Y-111502380D01*
X207045238Y-111502380D01*
G04 #@! TO.C,D3*
X205857142Y-105752380D02*
X205380952Y-105752380D01*
X205380952Y-104752380D01*
X206190476Y-105228571D02*
X206523809Y-105228571D01*
X206666666Y-105752380D02*
X206190476Y-105752380D01*
X206190476Y-104752380D01*
X206666666Y-104752380D01*
X207095238Y-105752380D02*
X207095238Y-104752380D01*
X207333333Y-104752380D01*
X207476190Y-104800000D01*
X207571428Y-104895238D01*
X207619047Y-104990476D01*
X207666666Y-105180952D01*
X207666666Y-105323809D01*
X207619047Y-105514285D01*
X207571428Y-105609523D01*
X207476190Y-105704761D01*
X207333333Y-105752380D01*
X207095238Y-105752380D01*
G04 #@! TO.C,IC1*
X185466666Y-98999047D02*
X185466666Y-98522857D01*
X185752380Y-99094285D02*
X184752380Y-98760952D01*
X185752380Y-98427619D01*
X184752380Y-98237142D02*
X184752380Y-97665714D01*
X185752380Y-97951428D02*
X184752380Y-97951428D01*
X185752380Y-97332380D02*
X184752380Y-97332380D01*
X185466666Y-96999047D01*
X184752380Y-96665714D01*
X185752380Y-96665714D01*
X185228571Y-96189523D02*
X185228571Y-95856190D01*
X185752380Y-95713333D02*
X185752380Y-96189523D01*
X184752380Y-96189523D01*
X184752380Y-95713333D01*
X184800000Y-94760952D02*
X184752380Y-94856190D01*
X184752380Y-94999047D01*
X184800000Y-95141904D01*
X184895238Y-95237142D01*
X184990476Y-95284761D01*
X185180952Y-95332380D01*
X185323809Y-95332380D01*
X185514285Y-95284761D01*
X185609523Y-95237142D01*
X185704761Y-95141904D01*
X185752380Y-94999047D01*
X185752380Y-94903809D01*
X185704761Y-94760952D01*
X185657142Y-94713333D01*
X185323809Y-94713333D01*
X185323809Y-94903809D01*
X185466666Y-94332380D02*
X185466666Y-93856190D01*
X185752380Y-94427619D02*
X184752380Y-94094285D01*
X185752380Y-93760952D01*
X184752380Y-92999047D02*
X184752380Y-93189523D01*
X184800000Y-93284761D01*
X184847619Y-93332380D01*
X184990476Y-93427619D01*
X185180952Y-93475238D01*
X185561904Y-93475238D01*
X185657142Y-93427619D01*
X185704761Y-93380000D01*
X185752380Y-93284761D01*
X185752380Y-93094285D01*
X185704761Y-92999047D01*
X185657142Y-92951428D01*
X185561904Y-92903809D01*
X185323809Y-92903809D01*
X185228571Y-92951428D01*
X185180952Y-92999047D01*
X185133333Y-93094285D01*
X185133333Y-93284761D01*
X185180952Y-93380000D01*
X185228571Y-93427619D01*
X185323809Y-93475238D01*
X185085714Y-92046666D02*
X185752380Y-92046666D01*
X184704761Y-92284761D02*
X185419047Y-92522857D01*
X185419047Y-91903809D01*
X185085714Y-91094285D02*
X185752380Y-91094285D01*
X184704761Y-91332380D02*
X185419047Y-91570476D01*
X185419047Y-90951428D01*
X185752380Y-90570476D02*
X184752380Y-90570476D01*
X184752380Y-90189523D01*
X184800000Y-90094285D01*
X184847619Y-90046666D01*
X184942857Y-89999047D01*
X185085714Y-89999047D01*
X185180952Y-90046666D01*
X185228571Y-90094285D01*
X185276190Y-90189523D01*
X185276190Y-90570476D01*
X185371428Y-89570476D02*
X185371428Y-88808571D01*
X185752380Y-88332380D02*
X184752380Y-88332380D01*
X184752380Y-87951428D01*
X184800000Y-87856190D01*
X184847619Y-87808571D01*
X184942857Y-87760952D01*
X185085714Y-87760952D01*
X185180952Y-87808571D01*
X185228571Y-87856190D01*
X185276190Y-87951428D01*
X185276190Y-88332380D01*
G04 #@! TO.C,IC2*
X192347619Y-94635714D02*
X192347619Y-95207142D01*
X191347619Y-94921428D02*
X192347619Y-94921428D01*
X191347619Y-96016666D02*
X191347619Y-95540476D01*
X192347619Y-95540476D01*
X191347619Y-96350000D02*
X192347619Y-96350000D01*
X192347619Y-96730952D01*
X192300000Y-96826190D01*
X192252380Y-96873809D01*
X192157142Y-96921428D01*
X192014285Y-96921428D01*
X191919047Y-96873809D01*
X191871428Y-96826190D01*
X191823809Y-96730952D01*
X191823809Y-96350000D01*
X192347619Y-97778571D02*
X192347619Y-97588095D01*
X192300000Y-97492857D01*
X192252380Y-97445238D01*
X192109523Y-97350000D01*
X191919047Y-97302380D01*
X191538095Y-97302380D01*
X191442857Y-97350000D01*
X191395238Y-97397619D01*
X191347619Y-97492857D01*
X191347619Y-97683333D01*
X191395238Y-97778571D01*
X191442857Y-97826190D01*
X191538095Y-97873809D01*
X191776190Y-97873809D01*
X191871428Y-97826190D01*
X191919047Y-97778571D01*
X191966666Y-97683333D01*
X191966666Y-97492857D01*
X191919047Y-97397619D01*
X191871428Y-97350000D01*
X191776190Y-97302380D01*
X192252380Y-98254761D02*
X192300000Y-98302380D01*
X192347619Y-98397619D01*
X192347619Y-98635714D01*
X192300000Y-98730952D01*
X192252380Y-98778571D01*
X192157142Y-98826190D01*
X192061904Y-98826190D01*
X191919047Y-98778571D01*
X191347619Y-98207142D01*
X191347619Y-98826190D01*
X192347619Y-99159523D02*
X192347619Y-99826190D01*
X191347619Y-99397619D01*
X191728571Y-100207142D02*
X191728571Y-100969047D01*
X192252380Y-101397619D02*
X192300000Y-101445238D01*
X192347619Y-101540476D01*
X192347619Y-101778571D01*
X192300000Y-101873809D01*
X192252380Y-101921428D01*
X192157142Y-101969047D01*
X192061904Y-101969047D01*
X191919047Y-101921428D01*
X191347619Y-101350000D01*
X191347619Y-101969047D01*
G04 #@! TO.C,L1*
X139492857Y-84802380D02*
X139492857Y-83802380D01*
X139969047Y-84802380D02*
X139969047Y-83802380D01*
X140540476Y-84802380D01*
X140540476Y-83802380D01*
X141016666Y-84802380D02*
X141016666Y-83802380D01*
X141254761Y-83802380D01*
X141397619Y-83850000D01*
X141492857Y-83945238D01*
X141540476Y-84040476D01*
X141588095Y-84230952D01*
X141588095Y-84373809D01*
X141540476Y-84564285D01*
X141492857Y-84659523D01*
X141397619Y-84754761D01*
X141254761Y-84802380D01*
X141016666Y-84802380D01*
X142016666Y-83802380D02*
X142016666Y-84611904D01*
X142064285Y-84707142D01*
X142111904Y-84754761D01*
X142207142Y-84802380D01*
X142397619Y-84802380D01*
X142492857Y-84754761D01*
X142540476Y-84707142D01*
X142588095Y-84611904D01*
X142588095Y-83802380D01*
X143635714Y-84707142D02*
X143588095Y-84754761D01*
X143445238Y-84802380D01*
X143350000Y-84802380D01*
X143207142Y-84754761D01*
X143111904Y-84659523D01*
X143064285Y-84564285D01*
X143016666Y-84373809D01*
X143016666Y-84230952D01*
X143064285Y-84040476D01*
X143111904Y-83945238D01*
X143207142Y-83850000D01*
X143350000Y-83802380D01*
X143445238Y-83802380D01*
X143588095Y-83850000D01*
X143635714Y-83897619D01*
X143921428Y-83802380D02*
X144492857Y-83802380D01*
X144207142Y-84802380D02*
X144207142Y-83802380D01*
X145016666Y-83802380D02*
X145207142Y-83802380D01*
X145302380Y-83850000D01*
X145397619Y-83945238D01*
X145445238Y-84135714D01*
X145445238Y-84469047D01*
X145397619Y-84659523D01*
X145302380Y-84754761D01*
X145207142Y-84802380D01*
X145016666Y-84802380D01*
X144921428Y-84754761D01*
X144826190Y-84659523D01*
X144778571Y-84469047D01*
X144778571Y-84135714D01*
X144826190Y-83945238D01*
X144921428Y-83850000D01*
X145016666Y-83802380D01*
X146445238Y-84802380D02*
X146111904Y-84326190D01*
X145873809Y-84802380D02*
X145873809Y-83802380D01*
X146254761Y-83802380D01*
X146350000Y-83850000D01*
X146397619Y-83897619D01*
X146445238Y-83992857D01*
X146445238Y-84135714D01*
X146397619Y-84230952D01*
X146350000Y-84278571D01*
X146254761Y-84326190D01*
X145873809Y-84326190D01*
X148111904Y-83802380D02*
X147635714Y-83802380D01*
X147588095Y-84278571D01*
X147635714Y-84230952D01*
X147730952Y-84183333D01*
X147969047Y-84183333D01*
X148064285Y-84230952D01*
X148111904Y-84278571D01*
X148159523Y-84373809D01*
X148159523Y-84611904D01*
X148111904Y-84707142D01*
X148064285Y-84754761D01*
X147969047Y-84802380D01*
X147730952Y-84802380D01*
X147635714Y-84754761D01*
X147588095Y-84707142D01*
X148588095Y-84135714D02*
X148588095Y-85135714D01*
X149064285Y-84659523D02*
X149111904Y-84754761D01*
X149207142Y-84802380D01*
X148588095Y-84659523D02*
X148635714Y-84754761D01*
X148730952Y-84802380D01*
X148921428Y-84802380D01*
X149016666Y-84754761D01*
X149064285Y-84659523D01*
X149064285Y-84135714D01*
X149635714Y-84802380D02*
X149635714Y-83802380D01*
X149635714Y-84278571D02*
X150207142Y-84278571D01*
X150207142Y-84802380D02*
X150207142Y-83802380D01*
G04 #@! TO.C,L2*
X139422857Y-79212380D02*
X139422857Y-78212380D01*
X139899047Y-79212380D02*
X139899047Y-78212380D01*
X140470476Y-79212380D01*
X140470476Y-78212380D01*
X140946666Y-79212380D02*
X140946666Y-78212380D01*
X141184761Y-78212380D01*
X141327619Y-78260000D01*
X141422857Y-78355238D01*
X141470476Y-78450476D01*
X141518095Y-78640952D01*
X141518095Y-78783809D01*
X141470476Y-78974285D01*
X141422857Y-79069523D01*
X141327619Y-79164761D01*
X141184761Y-79212380D01*
X140946666Y-79212380D01*
X141946666Y-78212380D02*
X141946666Y-79021904D01*
X141994285Y-79117142D01*
X142041904Y-79164761D01*
X142137142Y-79212380D01*
X142327619Y-79212380D01*
X142422857Y-79164761D01*
X142470476Y-79117142D01*
X142518095Y-79021904D01*
X142518095Y-78212380D01*
X143565714Y-79117142D02*
X143518095Y-79164761D01*
X143375238Y-79212380D01*
X143280000Y-79212380D01*
X143137142Y-79164761D01*
X143041904Y-79069523D01*
X142994285Y-78974285D01*
X142946666Y-78783809D01*
X142946666Y-78640952D01*
X142994285Y-78450476D01*
X143041904Y-78355238D01*
X143137142Y-78260000D01*
X143280000Y-78212380D01*
X143375238Y-78212380D01*
X143518095Y-78260000D01*
X143565714Y-78307619D01*
X143851428Y-78212380D02*
X144422857Y-78212380D01*
X144137142Y-79212380D02*
X144137142Y-78212380D01*
X144946666Y-78212380D02*
X145137142Y-78212380D01*
X145232380Y-78260000D01*
X145327619Y-78355238D01*
X145375238Y-78545714D01*
X145375238Y-78879047D01*
X145327619Y-79069523D01*
X145232380Y-79164761D01*
X145137142Y-79212380D01*
X144946666Y-79212380D01*
X144851428Y-79164761D01*
X144756190Y-79069523D01*
X144708571Y-78879047D01*
X144708571Y-78545714D01*
X144756190Y-78355238D01*
X144851428Y-78260000D01*
X144946666Y-78212380D01*
X146375238Y-79212380D02*
X146041904Y-78736190D01*
X145803809Y-79212380D02*
X145803809Y-78212380D01*
X146184761Y-78212380D01*
X146280000Y-78260000D01*
X146327619Y-78307619D01*
X146375238Y-78402857D01*
X146375238Y-78545714D01*
X146327619Y-78640952D01*
X146280000Y-78688571D01*
X146184761Y-78736190D01*
X145803809Y-78736190D01*
X148041904Y-78212380D02*
X147565714Y-78212380D01*
X147518095Y-78688571D01*
X147565714Y-78640952D01*
X147660952Y-78593333D01*
X147899047Y-78593333D01*
X147994285Y-78640952D01*
X148041904Y-78688571D01*
X148089523Y-78783809D01*
X148089523Y-79021904D01*
X148041904Y-79117142D01*
X147994285Y-79164761D01*
X147899047Y-79212380D01*
X147660952Y-79212380D01*
X147565714Y-79164761D01*
X147518095Y-79117142D01*
X148518095Y-78545714D02*
X148518095Y-79545714D01*
X148994285Y-79069523D02*
X149041904Y-79164761D01*
X149137142Y-79212380D01*
X148518095Y-79069523D02*
X148565714Y-79164761D01*
X148660952Y-79212380D01*
X148851428Y-79212380D01*
X148946666Y-79164761D01*
X148994285Y-79069523D01*
X148994285Y-78545714D01*
X149565714Y-79212380D02*
X149565714Y-78212380D01*
X149565714Y-78688571D02*
X150137142Y-78688571D01*
X150137142Y-79212380D02*
X150137142Y-78212380D01*
G04 #@! TO.C,R1*
X113771904Y-115262380D02*
X113200476Y-115262380D01*
X113486190Y-115262380D02*
X113486190Y-114262380D01*
X113390952Y-114405238D01*
X113295714Y-114500476D01*
X113200476Y-114548095D01*
X114390952Y-114262380D02*
X114486190Y-114262380D01*
X114581428Y-114310000D01*
X114629047Y-114357619D01*
X114676666Y-114452857D01*
X114724285Y-114643333D01*
X114724285Y-114881428D01*
X114676666Y-115071904D01*
X114629047Y-115167142D01*
X114581428Y-115214761D01*
X114486190Y-115262380D01*
X114390952Y-115262380D01*
X114295714Y-115214761D01*
X114248095Y-115167142D01*
X114200476Y-115071904D01*
X114152857Y-114881428D01*
X114152857Y-114643333D01*
X114200476Y-114452857D01*
X114248095Y-114357619D01*
X114295714Y-114310000D01*
X114390952Y-114262380D01*
X115152857Y-115262380D02*
X115152857Y-114262380D01*
X115248095Y-114881428D02*
X115533809Y-115262380D01*
X115533809Y-114595714D02*
X115152857Y-114976666D01*
X116152857Y-114262380D02*
X116343333Y-114262380D01*
X116438571Y-114310000D01*
X116533809Y-114405238D01*
X116581428Y-114595714D01*
X116581428Y-114929047D01*
X116533809Y-115119523D01*
X116438571Y-115214761D01*
X116343333Y-115262380D01*
X116152857Y-115262380D01*
X116057619Y-115214761D01*
X115962380Y-115119523D01*
X115914761Y-114929047D01*
X115914761Y-114595714D01*
X115962380Y-114405238D01*
X116057619Y-114310000D01*
X116152857Y-114262380D01*
X117010000Y-115262380D02*
X117010000Y-114262380D01*
X117438571Y-115262380D02*
X117438571Y-114738571D01*
X117390952Y-114643333D01*
X117295714Y-114595714D01*
X117152857Y-114595714D01*
X117057619Y-114643333D01*
X117010000Y-114690952D01*
X117914761Y-115262380D02*
X117914761Y-114595714D01*
X117914761Y-114690952D02*
X117962380Y-114643333D01*
X118057619Y-114595714D01*
X118200476Y-114595714D01*
X118295714Y-114643333D01*
X118343333Y-114738571D01*
X118343333Y-115262380D01*
X118343333Y-114738571D02*
X118390952Y-114643333D01*
X118486190Y-114595714D01*
X118629047Y-114595714D01*
X118724285Y-114643333D01*
X118771904Y-114738571D01*
X118771904Y-115262380D01*
G04 #@! TO.C,R2*
X114398095Y-110062380D02*
X113826666Y-110062380D01*
X114112380Y-110062380D02*
X114112380Y-109062380D01*
X114017142Y-109205238D01*
X113921904Y-109300476D01*
X113826666Y-109348095D01*
X114826666Y-110062380D02*
X114826666Y-109062380D01*
X114921904Y-109681428D02*
X115207619Y-110062380D01*
X115207619Y-109395714D02*
X114826666Y-109776666D01*
X115826666Y-109062380D02*
X116017142Y-109062380D01*
X116112380Y-109110000D01*
X116207619Y-109205238D01*
X116255238Y-109395714D01*
X116255238Y-109729047D01*
X116207619Y-109919523D01*
X116112380Y-110014761D01*
X116017142Y-110062380D01*
X115826666Y-110062380D01*
X115731428Y-110014761D01*
X115636190Y-109919523D01*
X115588571Y-109729047D01*
X115588571Y-109395714D01*
X115636190Y-109205238D01*
X115731428Y-109110000D01*
X115826666Y-109062380D01*
X116683809Y-110062380D02*
X116683809Y-109062380D01*
X117112380Y-110062380D02*
X117112380Y-109538571D01*
X117064761Y-109443333D01*
X116969523Y-109395714D01*
X116826666Y-109395714D01*
X116731428Y-109443333D01*
X116683809Y-109490952D01*
X117588571Y-110062380D02*
X117588571Y-109395714D01*
X117588571Y-109490952D02*
X117636190Y-109443333D01*
X117731428Y-109395714D01*
X117874285Y-109395714D01*
X117969523Y-109443333D01*
X118017142Y-109538571D01*
X118017142Y-110062380D01*
X118017142Y-109538571D02*
X118064761Y-109443333D01*
X118160000Y-109395714D01*
X118302857Y-109395714D01*
X118398095Y-109443333D01*
X118445714Y-109538571D01*
X118445714Y-110062380D01*
G04 #@! TO.C,R3*
X127548095Y-115412380D02*
X126976666Y-115412380D01*
X127262380Y-115412380D02*
X127262380Y-114412380D01*
X127167142Y-114555238D01*
X127071904Y-114650476D01*
X126976666Y-114698095D01*
X127976666Y-115412380D02*
X127976666Y-114412380D01*
X128071904Y-115031428D02*
X128357619Y-115412380D01*
X128357619Y-114745714D02*
X127976666Y-115126666D01*
X128976666Y-114412380D02*
X129167142Y-114412380D01*
X129262380Y-114460000D01*
X129357619Y-114555238D01*
X129405238Y-114745714D01*
X129405238Y-115079047D01*
X129357619Y-115269523D01*
X129262380Y-115364761D01*
X129167142Y-115412380D01*
X128976666Y-115412380D01*
X128881428Y-115364761D01*
X128786190Y-115269523D01*
X128738571Y-115079047D01*
X128738571Y-114745714D01*
X128786190Y-114555238D01*
X128881428Y-114460000D01*
X128976666Y-114412380D01*
X129833809Y-115412380D02*
X129833809Y-114412380D01*
X130262380Y-115412380D02*
X130262380Y-114888571D01*
X130214761Y-114793333D01*
X130119523Y-114745714D01*
X129976666Y-114745714D01*
X129881428Y-114793333D01*
X129833809Y-114840952D01*
X130738571Y-115412380D02*
X130738571Y-114745714D01*
X130738571Y-114840952D02*
X130786190Y-114793333D01*
X130881428Y-114745714D01*
X131024285Y-114745714D01*
X131119523Y-114793333D01*
X131167142Y-114888571D01*
X131167142Y-115412380D01*
X131167142Y-114888571D02*
X131214761Y-114793333D01*
X131310000Y-114745714D01*
X131452857Y-114745714D01*
X131548095Y-114793333D01*
X131595714Y-114888571D01*
X131595714Y-115412380D01*
G04 #@! TO.C,R4*
X127498095Y-110412380D02*
X126926666Y-110412380D01*
X127212380Y-110412380D02*
X127212380Y-109412380D01*
X127117142Y-109555238D01*
X127021904Y-109650476D01*
X126926666Y-109698095D01*
X127926666Y-110412380D02*
X127926666Y-109412380D01*
X128021904Y-110031428D02*
X128307619Y-110412380D01*
X128307619Y-109745714D02*
X127926666Y-110126666D01*
X128926666Y-109412380D02*
X129117142Y-109412380D01*
X129212380Y-109460000D01*
X129307619Y-109555238D01*
X129355238Y-109745714D01*
X129355238Y-110079047D01*
X129307619Y-110269523D01*
X129212380Y-110364761D01*
X129117142Y-110412380D01*
X128926666Y-110412380D01*
X128831428Y-110364761D01*
X128736190Y-110269523D01*
X128688571Y-110079047D01*
X128688571Y-109745714D01*
X128736190Y-109555238D01*
X128831428Y-109460000D01*
X128926666Y-109412380D01*
X129783809Y-110412380D02*
X129783809Y-109412380D01*
X130212380Y-110412380D02*
X130212380Y-109888571D01*
X130164761Y-109793333D01*
X130069523Y-109745714D01*
X129926666Y-109745714D01*
X129831428Y-109793333D01*
X129783809Y-109840952D01*
X130688571Y-110412380D02*
X130688571Y-109745714D01*
X130688571Y-109840952D02*
X130736190Y-109793333D01*
X130831428Y-109745714D01*
X130974285Y-109745714D01*
X131069523Y-109793333D01*
X131117142Y-109888571D01*
X131117142Y-110412380D01*
X131117142Y-109888571D02*
X131164761Y-109793333D01*
X131260000Y-109745714D01*
X131402857Y-109745714D01*
X131498095Y-109793333D01*
X131545714Y-109888571D01*
X131545714Y-110412380D01*
G04 #@! TO.C,R5*
X139748095Y-115262380D02*
X139176666Y-115262380D01*
X139462380Y-115262380D02*
X139462380Y-114262380D01*
X139367142Y-114405238D01*
X139271904Y-114500476D01*
X139176666Y-114548095D01*
X140176666Y-115262380D02*
X140176666Y-114262380D01*
X140271904Y-114881428D02*
X140557619Y-115262380D01*
X140557619Y-114595714D02*
X140176666Y-114976666D01*
X141176666Y-114262380D02*
X141367142Y-114262380D01*
X141462380Y-114310000D01*
X141557619Y-114405238D01*
X141605238Y-114595714D01*
X141605238Y-114929047D01*
X141557619Y-115119523D01*
X141462380Y-115214761D01*
X141367142Y-115262380D01*
X141176666Y-115262380D01*
X141081428Y-115214761D01*
X140986190Y-115119523D01*
X140938571Y-114929047D01*
X140938571Y-114595714D01*
X140986190Y-114405238D01*
X141081428Y-114310000D01*
X141176666Y-114262380D01*
X142033809Y-115262380D02*
X142033809Y-114262380D01*
X142462380Y-115262380D02*
X142462380Y-114738571D01*
X142414761Y-114643333D01*
X142319523Y-114595714D01*
X142176666Y-114595714D01*
X142081428Y-114643333D01*
X142033809Y-114690952D01*
X142938571Y-115262380D02*
X142938571Y-114595714D01*
X142938571Y-114690952D02*
X142986190Y-114643333D01*
X143081428Y-114595714D01*
X143224285Y-114595714D01*
X143319523Y-114643333D01*
X143367142Y-114738571D01*
X143367142Y-115262380D01*
X143367142Y-114738571D02*
X143414761Y-114643333D01*
X143510000Y-114595714D01*
X143652857Y-114595714D01*
X143748095Y-114643333D01*
X143795714Y-114738571D01*
X143795714Y-115262380D01*
G04 #@! TO.C,R6*
X195702380Y-74961904D02*
X195702380Y-75533333D01*
X195702380Y-75247619D02*
X194702380Y-75247619D01*
X194845238Y-75342857D01*
X194940476Y-75438095D01*
X194988095Y-75533333D01*
X195702380Y-74533333D02*
X194702380Y-74533333D01*
X195321428Y-74438095D02*
X195702380Y-74152380D01*
X195035714Y-74152380D02*
X195416666Y-74533333D01*
X194702380Y-73533333D02*
X194702380Y-73342857D01*
X194750000Y-73247619D01*
X194845238Y-73152380D01*
X195035714Y-73104761D01*
X195369047Y-73104761D01*
X195559523Y-73152380D01*
X195654761Y-73247619D01*
X195702380Y-73342857D01*
X195702380Y-73533333D01*
X195654761Y-73628571D01*
X195559523Y-73723809D01*
X195369047Y-73771428D01*
X195035714Y-73771428D01*
X194845238Y-73723809D01*
X194750000Y-73628571D01*
X194702380Y-73533333D01*
X195702380Y-72676190D02*
X194702380Y-72676190D01*
X195702380Y-72247619D02*
X195178571Y-72247619D01*
X195083333Y-72295238D01*
X195035714Y-72390476D01*
X195035714Y-72533333D01*
X195083333Y-72628571D01*
X195130952Y-72676190D01*
X195702380Y-71771428D02*
X195035714Y-71771428D01*
X195130952Y-71771428D02*
X195083333Y-71723809D01*
X195035714Y-71628571D01*
X195035714Y-71485714D01*
X195083333Y-71390476D01*
X195178571Y-71342857D01*
X195702380Y-71342857D01*
X195178571Y-71342857D02*
X195083333Y-71295238D01*
X195035714Y-71200000D01*
X195035714Y-71057142D01*
X195083333Y-70961904D01*
X195178571Y-70914285D01*
X195702380Y-70914285D01*
G04 #@! TO.C,R7*
X189888095Y-114952380D02*
X189316666Y-114952380D01*
X189602380Y-114952380D02*
X189602380Y-113952380D01*
X189507142Y-114095238D01*
X189411904Y-114190476D01*
X189316666Y-114238095D01*
X190316666Y-114952380D02*
X190316666Y-113952380D01*
X190411904Y-114571428D02*
X190697619Y-114952380D01*
X190697619Y-114285714D02*
X190316666Y-114666666D01*
X191316666Y-113952380D02*
X191507142Y-113952380D01*
X191602380Y-114000000D01*
X191697619Y-114095238D01*
X191745238Y-114285714D01*
X191745238Y-114619047D01*
X191697619Y-114809523D01*
X191602380Y-114904761D01*
X191507142Y-114952380D01*
X191316666Y-114952380D01*
X191221428Y-114904761D01*
X191126190Y-114809523D01*
X191078571Y-114619047D01*
X191078571Y-114285714D01*
X191126190Y-114095238D01*
X191221428Y-114000000D01*
X191316666Y-113952380D01*
X192173809Y-114952380D02*
X192173809Y-113952380D01*
X192602380Y-114952380D02*
X192602380Y-114428571D01*
X192554761Y-114333333D01*
X192459523Y-114285714D01*
X192316666Y-114285714D01*
X192221428Y-114333333D01*
X192173809Y-114380952D01*
X193078571Y-114952380D02*
X193078571Y-114285714D01*
X193078571Y-114380952D02*
X193126190Y-114333333D01*
X193221428Y-114285714D01*
X193364285Y-114285714D01*
X193459523Y-114333333D01*
X193507142Y-114428571D01*
X193507142Y-114952380D01*
X193507142Y-114428571D02*
X193554761Y-114333333D01*
X193650000Y-114285714D01*
X193792857Y-114285714D01*
X193888095Y-114333333D01*
X193935714Y-114428571D01*
X193935714Y-114952380D01*
G04 #@! TO.C,R8*
X195702380Y-86811904D02*
X195702380Y-87383333D01*
X195702380Y-87097619D02*
X194702380Y-87097619D01*
X194845238Y-87192857D01*
X194940476Y-87288095D01*
X194988095Y-87383333D01*
X195702380Y-86383333D02*
X194702380Y-86383333D01*
X195321428Y-86288095D02*
X195702380Y-86002380D01*
X195035714Y-86002380D02*
X195416666Y-86383333D01*
X194702380Y-85383333D02*
X194702380Y-85192857D01*
X194750000Y-85097619D01*
X194845238Y-85002380D01*
X195035714Y-84954761D01*
X195369047Y-84954761D01*
X195559523Y-85002380D01*
X195654761Y-85097619D01*
X195702380Y-85192857D01*
X195702380Y-85383333D01*
X195654761Y-85478571D01*
X195559523Y-85573809D01*
X195369047Y-85621428D01*
X195035714Y-85621428D01*
X194845238Y-85573809D01*
X194750000Y-85478571D01*
X194702380Y-85383333D01*
X195702380Y-84526190D02*
X194702380Y-84526190D01*
X195702380Y-84097619D02*
X195178571Y-84097619D01*
X195083333Y-84145238D01*
X195035714Y-84240476D01*
X195035714Y-84383333D01*
X195083333Y-84478571D01*
X195130952Y-84526190D01*
X195702380Y-83621428D02*
X195035714Y-83621428D01*
X195130952Y-83621428D02*
X195083333Y-83573809D01*
X195035714Y-83478571D01*
X195035714Y-83335714D01*
X195083333Y-83240476D01*
X195178571Y-83192857D01*
X195702380Y-83192857D01*
X195178571Y-83192857D02*
X195083333Y-83145238D01*
X195035714Y-83050000D01*
X195035714Y-82907142D01*
X195083333Y-82811904D01*
X195178571Y-82764285D01*
X195702380Y-82764285D01*
G04 #@! TO.C,R9*
X189288095Y-109247619D02*
X189335714Y-109200000D01*
X189430952Y-109152380D01*
X189669047Y-109152380D01*
X189764285Y-109200000D01*
X189811904Y-109247619D01*
X189859523Y-109342857D01*
X189859523Y-109438095D01*
X189811904Y-109580952D01*
X189240476Y-110152380D01*
X189859523Y-110152380D01*
X190240476Y-109247619D02*
X190288095Y-109200000D01*
X190383333Y-109152380D01*
X190621428Y-109152380D01*
X190716666Y-109200000D01*
X190764285Y-109247619D01*
X190811904Y-109342857D01*
X190811904Y-109438095D01*
X190764285Y-109580952D01*
X190192857Y-110152380D01*
X190811904Y-110152380D01*
X191430952Y-109152380D02*
X191526190Y-109152380D01*
X191621428Y-109200000D01*
X191669047Y-109247619D01*
X191716666Y-109342857D01*
X191764285Y-109533333D01*
X191764285Y-109771428D01*
X191716666Y-109961904D01*
X191669047Y-110057142D01*
X191621428Y-110104761D01*
X191526190Y-110152380D01*
X191430952Y-110152380D01*
X191335714Y-110104761D01*
X191288095Y-110057142D01*
X191240476Y-109961904D01*
X191192857Y-109771428D01*
X191192857Y-109533333D01*
X191240476Y-109342857D01*
X191288095Y-109247619D01*
X191335714Y-109200000D01*
X191430952Y-109152380D01*
X193145238Y-109152380D02*
X193335714Y-109152380D01*
X193430952Y-109200000D01*
X193526190Y-109295238D01*
X193573809Y-109485714D01*
X193573809Y-109819047D01*
X193526190Y-110009523D01*
X193430952Y-110104761D01*
X193335714Y-110152380D01*
X193145238Y-110152380D01*
X193050000Y-110104761D01*
X192954761Y-110009523D01*
X192907142Y-109819047D01*
X192907142Y-109485714D01*
X192954761Y-109295238D01*
X193050000Y-109200000D01*
X193145238Y-109152380D01*
X194002380Y-110152380D02*
X194002380Y-109152380D01*
X194430952Y-110152380D02*
X194430952Y-109628571D01*
X194383333Y-109533333D01*
X194288095Y-109485714D01*
X194145238Y-109485714D01*
X194050000Y-109533333D01*
X194002380Y-109580952D01*
X194907142Y-110152380D02*
X194907142Y-109485714D01*
X194907142Y-109580952D02*
X194954761Y-109533333D01*
X195050000Y-109485714D01*
X195192857Y-109485714D01*
X195288095Y-109533333D01*
X195335714Y-109628571D01*
X195335714Y-110152380D01*
X195335714Y-109628571D02*
X195383333Y-109533333D01*
X195478571Y-109485714D01*
X195621428Y-109485714D01*
X195716666Y-109533333D01*
X195764285Y-109628571D01*
X195764285Y-110152380D01*
G04 #@! TO.C,R10*
X190652380Y-87011904D02*
X190652380Y-87583333D01*
X190652380Y-87297619D02*
X189652380Y-87297619D01*
X189795238Y-87392857D01*
X189890476Y-87488095D01*
X189938095Y-87583333D01*
X190652380Y-86583333D02*
X189652380Y-86583333D01*
X190271428Y-86488095D02*
X190652380Y-86202380D01*
X189985714Y-86202380D02*
X190366666Y-86583333D01*
X189652380Y-85583333D02*
X189652380Y-85392857D01*
X189700000Y-85297619D01*
X189795238Y-85202380D01*
X189985714Y-85154761D01*
X190319047Y-85154761D01*
X190509523Y-85202380D01*
X190604761Y-85297619D01*
X190652380Y-85392857D01*
X190652380Y-85583333D01*
X190604761Y-85678571D01*
X190509523Y-85773809D01*
X190319047Y-85821428D01*
X189985714Y-85821428D01*
X189795238Y-85773809D01*
X189700000Y-85678571D01*
X189652380Y-85583333D01*
X190652380Y-84726190D02*
X189652380Y-84726190D01*
X190652380Y-84297619D02*
X190128571Y-84297619D01*
X190033333Y-84345238D01*
X189985714Y-84440476D01*
X189985714Y-84583333D01*
X190033333Y-84678571D01*
X190080952Y-84726190D01*
X190652380Y-83821428D02*
X189985714Y-83821428D01*
X190080952Y-83821428D02*
X190033333Y-83773809D01*
X189985714Y-83678571D01*
X189985714Y-83535714D01*
X190033333Y-83440476D01*
X190128571Y-83392857D01*
X190652380Y-83392857D01*
X190128571Y-83392857D02*
X190033333Y-83345238D01*
X189985714Y-83250000D01*
X189985714Y-83107142D01*
X190033333Y-83011904D01*
X190128571Y-82964285D01*
X190652380Y-82964285D01*
G04 #@! TO.C,R11*
X178348095Y-110162380D02*
X177776666Y-110162380D01*
X178062380Y-110162380D02*
X178062380Y-109162380D01*
X177967142Y-109305238D01*
X177871904Y-109400476D01*
X177776666Y-109448095D01*
X178776666Y-110162380D02*
X178776666Y-109162380D01*
X178871904Y-109781428D02*
X179157619Y-110162380D01*
X179157619Y-109495714D02*
X178776666Y-109876666D01*
X179776666Y-109162380D02*
X179967142Y-109162380D01*
X180062380Y-109210000D01*
X180157619Y-109305238D01*
X180205238Y-109495714D01*
X180205238Y-109829047D01*
X180157619Y-110019523D01*
X180062380Y-110114761D01*
X179967142Y-110162380D01*
X179776666Y-110162380D01*
X179681428Y-110114761D01*
X179586190Y-110019523D01*
X179538571Y-109829047D01*
X179538571Y-109495714D01*
X179586190Y-109305238D01*
X179681428Y-109210000D01*
X179776666Y-109162380D01*
X180633809Y-110162380D02*
X180633809Y-109162380D01*
X181062380Y-110162380D02*
X181062380Y-109638571D01*
X181014761Y-109543333D01*
X180919523Y-109495714D01*
X180776666Y-109495714D01*
X180681428Y-109543333D01*
X180633809Y-109590952D01*
X181538571Y-110162380D02*
X181538571Y-109495714D01*
X181538571Y-109590952D02*
X181586190Y-109543333D01*
X181681428Y-109495714D01*
X181824285Y-109495714D01*
X181919523Y-109543333D01*
X181967142Y-109638571D01*
X181967142Y-110162380D01*
X181967142Y-109638571D02*
X182014761Y-109543333D01*
X182110000Y-109495714D01*
X182252857Y-109495714D01*
X182348095Y-109543333D01*
X182395714Y-109638571D01*
X182395714Y-110162380D01*
G04 #@! TO.C,R12*
X127971904Y-78262380D02*
X127400476Y-78262380D01*
X127686190Y-78262380D02*
X127686190Y-77262380D01*
X127590952Y-77405238D01*
X127495714Y-77500476D01*
X127400476Y-77548095D01*
X128590952Y-77262380D02*
X128686190Y-77262380D01*
X128781428Y-77310000D01*
X128829047Y-77357619D01*
X128876666Y-77452857D01*
X128924285Y-77643333D01*
X128924285Y-77881428D01*
X128876666Y-78071904D01*
X128829047Y-78167142D01*
X128781428Y-78214761D01*
X128686190Y-78262380D01*
X128590952Y-78262380D01*
X128495714Y-78214761D01*
X128448095Y-78167142D01*
X128400476Y-78071904D01*
X128352857Y-77881428D01*
X128352857Y-77643333D01*
X128400476Y-77452857D01*
X128448095Y-77357619D01*
X128495714Y-77310000D01*
X128590952Y-77262380D01*
X129352857Y-78262380D02*
X129352857Y-77262380D01*
X129448095Y-77881428D02*
X129733809Y-78262380D01*
X129733809Y-77595714D02*
X129352857Y-77976666D01*
X130352857Y-77262380D02*
X130543333Y-77262380D01*
X130638571Y-77310000D01*
X130733809Y-77405238D01*
X130781428Y-77595714D01*
X130781428Y-77929047D01*
X130733809Y-78119523D01*
X130638571Y-78214761D01*
X130543333Y-78262380D01*
X130352857Y-78262380D01*
X130257619Y-78214761D01*
X130162380Y-78119523D01*
X130114761Y-77929047D01*
X130114761Y-77595714D01*
X130162380Y-77405238D01*
X130257619Y-77310000D01*
X130352857Y-77262380D01*
X131210000Y-78262380D02*
X131210000Y-77262380D01*
X131638571Y-78262380D02*
X131638571Y-77738571D01*
X131590952Y-77643333D01*
X131495714Y-77595714D01*
X131352857Y-77595714D01*
X131257619Y-77643333D01*
X131210000Y-77690952D01*
X132114761Y-78262380D02*
X132114761Y-77595714D01*
X132114761Y-77690952D02*
X132162380Y-77643333D01*
X132257619Y-77595714D01*
X132400476Y-77595714D01*
X132495714Y-77643333D01*
X132543333Y-77738571D01*
X132543333Y-78262380D01*
X132543333Y-77738571D02*
X132590952Y-77643333D01*
X132686190Y-77595714D01*
X132829047Y-77595714D01*
X132924285Y-77643333D01*
X132971904Y-77738571D01*
X132971904Y-78262380D01*
G04 #@! TO.C,R13*
X127871904Y-82862380D02*
X127300476Y-82862380D01*
X127586190Y-82862380D02*
X127586190Y-81862380D01*
X127490952Y-82005238D01*
X127395714Y-82100476D01*
X127300476Y-82148095D01*
X128490952Y-81862380D02*
X128586190Y-81862380D01*
X128681428Y-81910000D01*
X128729047Y-81957619D01*
X128776666Y-82052857D01*
X128824285Y-82243333D01*
X128824285Y-82481428D01*
X128776666Y-82671904D01*
X128729047Y-82767142D01*
X128681428Y-82814761D01*
X128586190Y-82862380D01*
X128490952Y-82862380D01*
X128395714Y-82814761D01*
X128348095Y-82767142D01*
X128300476Y-82671904D01*
X128252857Y-82481428D01*
X128252857Y-82243333D01*
X128300476Y-82052857D01*
X128348095Y-81957619D01*
X128395714Y-81910000D01*
X128490952Y-81862380D01*
X129252857Y-82862380D02*
X129252857Y-81862380D01*
X129348095Y-82481428D02*
X129633809Y-82862380D01*
X129633809Y-82195714D02*
X129252857Y-82576666D01*
X130252857Y-81862380D02*
X130443333Y-81862380D01*
X130538571Y-81910000D01*
X130633809Y-82005238D01*
X130681428Y-82195714D01*
X130681428Y-82529047D01*
X130633809Y-82719523D01*
X130538571Y-82814761D01*
X130443333Y-82862380D01*
X130252857Y-82862380D01*
X130157619Y-82814761D01*
X130062380Y-82719523D01*
X130014761Y-82529047D01*
X130014761Y-82195714D01*
X130062380Y-82005238D01*
X130157619Y-81910000D01*
X130252857Y-81862380D01*
X131110000Y-82862380D02*
X131110000Y-81862380D01*
X131538571Y-82862380D02*
X131538571Y-82338571D01*
X131490952Y-82243333D01*
X131395714Y-82195714D01*
X131252857Y-82195714D01*
X131157619Y-82243333D01*
X131110000Y-82290952D01*
X132014761Y-82862380D02*
X132014761Y-82195714D01*
X132014761Y-82290952D02*
X132062380Y-82243333D01*
X132157619Y-82195714D01*
X132300476Y-82195714D01*
X132395714Y-82243333D01*
X132443333Y-82338571D01*
X132443333Y-82862380D01*
X132443333Y-82338571D02*
X132490952Y-82243333D01*
X132586190Y-82195714D01*
X132729047Y-82195714D01*
X132824285Y-82243333D01*
X132871904Y-82338571D01*
X132871904Y-82862380D01*
G04 #@! TO.C,Y1*
X156100000Y-110307142D02*
X156052380Y-110354761D01*
X155909523Y-110402380D01*
X155814285Y-110402380D01*
X155671428Y-110354761D01*
X155576190Y-110259523D01*
X155528571Y-110164285D01*
X155480952Y-109973809D01*
X155480952Y-109830952D01*
X155528571Y-109640476D01*
X155576190Y-109545238D01*
X155671428Y-109450000D01*
X155814285Y-109402380D01*
X155909523Y-109402380D01*
X156052380Y-109450000D01*
X156100000Y-109497619D01*
X156528571Y-110402380D02*
X156528571Y-109735714D01*
X156528571Y-109926190D02*
X156576190Y-109830952D01*
X156623809Y-109783333D01*
X156719047Y-109735714D01*
X156814285Y-109735714D01*
X157052380Y-109735714D02*
X157290476Y-110402380D01*
X157528571Y-109735714D02*
X157290476Y-110402380D01*
X157195238Y-110640476D01*
X157147619Y-110688095D01*
X157052380Y-110735714D01*
X157861904Y-110354761D02*
X157957142Y-110402380D01*
X158147619Y-110402380D01*
X158242857Y-110354761D01*
X158290476Y-110259523D01*
X158290476Y-110211904D01*
X158242857Y-110116666D01*
X158147619Y-110069047D01*
X158004761Y-110069047D01*
X157909523Y-110021428D01*
X157861904Y-109926190D01*
X157861904Y-109878571D01*
X157909523Y-109783333D01*
X158004761Y-109735714D01*
X158147619Y-109735714D01*
X158242857Y-109783333D01*
X158576190Y-109735714D02*
X158957142Y-109735714D01*
X158719047Y-109402380D02*
X158719047Y-110259523D01*
X158766666Y-110354761D01*
X158861904Y-110402380D01*
X158957142Y-110402380D01*
X159719047Y-110402380D02*
X159719047Y-109878571D01*
X159671428Y-109783333D01*
X159576190Y-109735714D01*
X159385714Y-109735714D01*
X159290476Y-109783333D01*
X159719047Y-110354761D02*
X159623809Y-110402380D01*
X159385714Y-110402380D01*
X159290476Y-110354761D01*
X159242857Y-110259523D01*
X159242857Y-110164285D01*
X159290476Y-110069047D01*
X159385714Y-110021428D01*
X159623809Y-110021428D01*
X159719047Y-109973809D01*
X160338095Y-110402380D02*
X160242857Y-110354761D01*
X160195238Y-110259523D01*
X160195238Y-109402380D01*
X162004761Y-110402380D02*
X161433333Y-110402380D01*
X161719047Y-110402380D02*
X161719047Y-109402380D01*
X161623809Y-109545238D01*
X161528571Y-109640476D01*
X161433333Y-109688095D01*
X162861904Y-109402380D02*
X162671428Y-109402380D01*
X162576190Y-109450000D01*
X162528571Y-109497619D01*
X162433333Y-109640476D01*
X162385714Y-109830952D01*
X162385714Y-110211904D01*
X162433333Y-110307142D01*
X162480952Y-110354761D01*
X162576190Y-110402380D01*
X162766666Y-110402380D01*
X162861904Y-110354761D01*
X162909523Y-110307142D01*
X162957142Y-110211904D01*
X162957142Y-109973809D01*
X162909523Y-109878571D01*
X162861904Y-109830952D01*
X162766666Y-109783333D01*
X162576190Y-109783333D01*
X162480952Y-109830952D01*
X162433333Y-109878571D01*
X162385714Y-109973809D01*
X164147619Y-110402380D02*
X164147619Y-109402380D01*
X164480952Y-110116666D01*
X164814285Y-109402380D01*
X164814285Y-110402380D01*
X165290476Y-110402380D02*
X165290476Y-109402380D01*
X165290476Y-109878571D02*
X165861904Y-109878571D01*
X165861904Y-110402380D02*
X165861904Y-109402380D01*
X166242857Y-109735714D02*
X166766666Y-109735714D01*
X166242857Y-110402380D01*
X166766666Y-110402380D01*
G04 #@! TO.C,D5*
X157192857Y-83752380D02*
X157192857Y-82752380D01*
X157430952Y-82752380D01*
X157573809Y-82800000D01*
X157669047Y-82895238D01*
X157716666Y-82990476D01*
X157764285Y-83180952D01*
X157764285Y-83323809D01*
X157716666Y-83514285D01*
X157669047Y-83609523D01*
X157573809Y-83704761D01*
X157430952Y-83752380D01*
X157192857Y-83752380D01*
X157954761Y-83847619D02*
X158716666Y-83847619D01*
X158907142Y-83466666D02*
X159383333Y-83466666D01*
X158811904Y-83752380D02*
X159145238Y-82752380D01*
X159478571Y-83752380D01*
X160288095Y-83752380D02*
X159811904Y-83752380D01*
X159811904Y-82752380D01*
X160478571Y-82752380D02*
X161050000Y-82752380D01*
X160764285Y-83752380D02*
X160764285Y-82752380D01*
G04 #@! TO.C,D6*
X182802857Y-73462380D02*
X182802857Y-72462380D01*
X183040952Y-72462380D01*
X183183809Y-72510000D01*
X183279047Y-72605238D01*
X183326666Y-72700476D01*
X183374285Y-72890952D01*
X183374285Y-73033809D01*
X183326666Y-73224285D01*
X183279047Y-73319523D01*
X183183809Y-73414761D01*
X183040952Y-73462380D01*
X182802857Y-73462380D01*
X183564761Y-73557619D02*
X184326666Y-73557619D01*
X184517142Y-73176666D02*
X184993333Y-73176666D01*
X184421904Y-73462380D02*
X184755238Y-72462380D01*
X185088571Y-73462380D01*
X185898095Y-73462380D02*
X185421904Y-73462380D01*
X185421904Y-72462380D01*
X186088571Y-72462380D02*
X186660000Y-72462380D01*
X186374285Y-73462380D02*
X186374285Y-72462380D01*
G04 #@! TO.C,SW6*
X165688095Y-115404761D02*
X165830952Y-115452380D01*
X166069047Y-115452380D01*
X166164285Y-115404761D01*
X166211904Y-115357142D01*
X166259523Y-115261904D01*
X166259523Y-115166666D01*
X166211904Y-115071428D01*
X166164285Y-115023809D01*
X166069047Y-114976190D01*
X165878571Y-114928571D01*
X165783333Y-114880952D01*
X165735714Y-114833333D01*
X165688095Y-114738095D01*
X165688095Y-114642857D01*
X165735714Y-114547619D01*
X165783333Y-114500000D01*
X165878571Y-114452380D01*
X166116666Y-114452380D01*
X166259523Y-114500000D01*
X166592857Y-114452380D02*
X166830952Y-115452380D01*
X167021428Y-114738095D01*
X167211904Y-115452380D01*
X167450000Y-114452380D01*
X167592857Y-115547619D02*
X168354761Y-115547619D01*
X168592857Y-115452380D02*
X168592857Y-114452380D01*
X168973809Y-114452380D01*
X169069047Y-114500000D01*
X169116666Y-114547619D01*
X169164285Y-114642857D01*
X169164285Y-114785714D01*
X169116666Y-114880952D01*
X169069047Y-114928571D01*
X168973809Y-114976190D01*
X168592857Y-114976190D01*
X169592857Y-114452380D02*
X169592857Y-115261904D01*
X169640476Y-115357142D01*
X169688095Y-115404761D01*
X169783333Y-115452380D01*
X169973809Y-115452380D01*
X170069047Y-115404761D01*
X170116666Y-115357142D01*
X170164285Y-115261904D01*
X170164285Y-114452380D01*
X170592857Y-115404761D02*
X170735714Y-115452380D01*
X170973809Y-115452380D01*
X171069047Y-115404761D01*
X171116666Y-115357142D01*
X171164285Y-115261904D01*
X171164285Y-115166666D01*
X171116666Y-115071428D01*
X171069047Y-115023809D01*
X170973809Y-114976190D01*
X170783333Y-114928571D01*
X170688095Y-114880952D01*
X170640476Y-114833333D01*
X170592857Y-114738095D01*
X170592857Y-114642857D01*
X170640476Y-114547619D01*
X170688095Y-114500000D01*
X170783333Y-114452380D01*
X171021428Y-114452380D01*
X171164285Y-114500000D01*
X171592857Y-115452380D02*
X171592857Y-114452380D01*
X171592857Y-114928571D02*
X172164285Y-114928571D01*
X172164285Y-115452380D02*
X172164285Y-114452380D01*
G04 #@! TO.C,J2*
X112866666Y-64816666D02*
X112866666Y-64340476D01*
X113152380Y-64911904D02*
X112152380Y-64578571D01*
X113152380Y-64245238D01*
X112152380Y-63911904D02*
X112961904Y-63911904D01*
X113057142Y-63864285D01*
X113104761Y-63816666D01*
X113152380Y-63721428D01*
X113152380Y-63530952D01*
X113104761Y-63435714D01*
X113057142Y-63388095D01*
X112961904Y-63340476D01*
X112152380Y-63340476D01*
X113152380Y-62864285D02*
X112152380Y-62864285D01*
X112152380Y-62626190D01*
X112200000Y-62483333D01*
X112295238Y-62388095D01*
X112390476Y-62340476D01*
X112580952Y-62292857D01*
X112723809Y-62292857D01*
X112914285Y-62340476D01*
X113009523Y-62388095D01*
X113104761Y-62483333D01*
X113152380Y-62626190D01*
X113152380Y-62864285D01*
X113152380Y-61864285D02*
X112152380Y-61864285D01*
X112152380Y-61197619D02*
X112152380Y-61007142D01*
X112200000Y-60911904D01*
X112295238Y-60816666D01*
X112485714Y-60769047D01*
X112819047Y-60769047D01*
X113009523Y-60816666D01*
X113104761Y-60911904D01*
X113152380Y-61007142D01*
X113152380Y-61197619D01*
X113104761Y-61292857D01*
X113009523Y-61388095D01*
X112819047Y-61435714D01*
X112485714Y-61435714D01*
X112295238Y-61388095D01*
X112200000Y-61292857D01*
X112152380Y-61197619D01*
X113247619Y-60578571D02*
X113247619Y-59816666D01*
X113152380Y-59578571D02*
X112152380Y-59578571D01*
X113152380Y-59102380D02*
X112152380Y-59102380D01*
X113152380Y-58530952D01*
X112152380Y-58530952D01*
X101816666Y-61752380D02*
X101816666Y-62466666D01*
X101769047Y-62609523D01*
X101673809Y-62704761D01*
X101530952Y-62752380D01*
X101435714Y-62752380D01*
X102245238Y-61847619D02*
X102292857Y-61800000D01*
X102388095Y-61752380D01*
X102626190Y-61752380D01*
X102721428Y-61800000D01*
X102769047Y-61847619D01*
X102816666Y-61942857D01*
X102816666Y-62038095D01*
X102769047Y-62180952D01*
X102197619Y-62752380D01*
X102816666Y-62752380D01*
G04 #@! TO.C,LCDPot2*
X114011904Y-105352380D02*
X113440476Y-105352380D01*
X113726190Y-105352380D02*
X113726190Y-104352380D01*
X113630952Y-104495238D01*
X113535714Y-104590476D01*
X113440476Y-104638095D01*
X114630952Y-104352380D02*
X114726190Y-104352380D01*
X114821428Y-104400000D01*
X114869047Y-104447619D01*
X114916666Y-104542857D01*
X114964285Y-104733333D01*
X114964285Y-104971428D01*
X114916666Y-105161904D01*
X114869047Y-105257142D01*
X114821428Y-105304761D01*
X114726190Y-105352380D01*
X114630952Y-105352380D01*
X114535714Y-105304761D01*
X114488095Y-105257142D01*
X114440476Y-105161904D01*
X114392857Y-104971428D01*
X114392857Y-104733333D01*
X114440476Y-104542857D01*
X114488095Y-104447619D01*
X114535714Y-104400000D01*
X114630952Y-104352380D01*
X115392857Y-105352380D02*
X115392857Y-104352380D01*
X115488095Y-104971428D02*
X115773809Y-105352380D01*
X115773809Y-104685714D02*
X115392857Y-105066666D01*
X116392857Y-104352380D02*
X116583333Y-104352380D01*
X116678571Y-104400000D01*
X116773809Y-104495238D01*
X116821428Y-104685714D01*
X116821428Y-105019047D01*
X116773809Y-105209523D01*
X116678571Y-105304761D01*
X116583333Y-105352380D01*
X116392857Y-105352380D01*
X116297619Y-105304761D01*
X116202380Y-105209523D01*
X116154761Y-105019047D01*
X116154761Y-104685714D01*
X116202380Y-104495238D01*
X116297619Y-104400000D01*
X116392857Y-104352380D01*
X117250000Y-105352380D02*
X117250000Y-104352380D01*
X117678571Y-105352380D02*
X117678571Y-104828571D01*
X117630952Y-104733333D01*
X117535714Y-104685714D01*
X117392857Y-104685714D01*
X117297619Y-104733333D01*
X117250000Y-104780952D01*
X118154761Y-105352380D02*
X118154761Y-104685714D01*
X118154761Y-104780952D02*
X118202380Y-104733333D01*
X118297619Y-104685714D01*
X118440476Y-104685714D01*
X118535714Y-104733333D01*
X118583333Y-104828571D01*
X118583333Y-105352380D01*
X118583333Y-104828571D02*
X118630952Y-104733333D01*
X118726190Y-104685714D01*
X118869047Y-104685714D01*
X118964285Y-104733333D01*
X119011904Y-104828571D01*
X119011904Y-105352380D01*
G04 #@! TO.C,DS1*
X133004761Y-73302380D02*
X132528571Y-73302380D01*
X132528571Y-72302380D01*
X133909523Y-73207142D02*
X133861904Y-73254761D01*
X133719047Y-73302380D01*
X133623809Y-73302380D01*
X133480952Y-73254761D01*
X133385714Y-73159523D01*
X133338095Y-73064285D01*
X133290476Y-72873809D01*
X133290476Y-72730952D01*
X133338095Y-72540476D01*
X133385714Y-72445238D01*
X133480952Y-72350000D01*
X133623809Y-72302380D01*
X133719047Y-72302380D01*
X133861904Y-72350000D01*
X133909523Y-72397619D01*
X134338095Y-73302380D02*
X134338095Y-72302380D01*
X134576190Y-72302380D01*
X134719047Y-72350000D01*
X134814285Y-72445238D01*
X134861904Y-72540476D01*
X134909523Y-72730952D01*
X134909523Y-72873809D01*
X134861904Y-73064285D01*
X134814285Y-73159523D01*
X134719047Y-73254761D01*
X134576190Y-73302380D01*
X134338095Y-73302380D01*
X135290476Y-72397619D02*
X135338095Y-72350000D01*
X135433333Y-72302380D01*
X135671428Y-72302380D01*
X135766666Y-72350000D01*
X135814285Y-72397619D01*
X135861904Y-72492857D01*
X135861904Y-72588095D01*
X135814285Y-72730952D01*
X135242857Y-73302380D01*
X135861904Y-73302380D01*
X136480952Y-72302380D02*
X136576190Y-72302380D01*
X136671428Y-72350000D01*
X136719047Y-72397619D01*
X136766666Y-72492857D01*
X136814285Y-72683333D01*
X136814285Y-72921428D01*
X136766666Y-73111904D01*
X136719047Y-73207142D01*
X136671428Y-73254761D01*
X136576190Y-73302380D01*
X136480952Y-73302380D01*
X136385714Y-73254761D01*
X136338095Y-73207142D01*
X136290476Y-73111904D01*
X136242857Y-72921428D01*
X136242857Y-72683333D01*
X136290476Y-72492857D01*
X136338095Y-72397619D01*
X136385714Y-72350000D01*
X136480952Y-72302380D01*
X137147619Y-72302380D02*
X137814285Y-73302380D01*
X137814285Y-72302380D02*
X137147619Y-73302380D01*
X138623809Y-72635714D02*
X138623809Y-73302380D01*
X138385714Y-72254761D02*
X138147619Y-72969047D01*
X138766666Y-72969047D01*
G04 #@! TO.C,J7*
X170673809Y-83852380D02*
X170673809Y-82852380D01*
X170673809Y-83328571D02*
X171245238Y-83328571D01*
X171245238Y-83852380D02*
X171245238Y-82852380D01*
X171721428Y-83328571D02*
X172054761Y-83328571D01*
X172197619Y-83852380D02*
X171721428Y-83852380D01*
X171721428Y-82852380D01*
X172197619Y-82852380D01*
X172578571Y-83566666D02*
X173054761Y-83566666D01*
X172483333Y-83852380D02*
X172816666Y-82852380D01*
X173150000Y-83852380D01*
X173483333Y-83852380D02*
X173483333Y-82852380D01*
X173721428Y-82852380D01*
X173864285Y-82900000D01*
X173959523Y-82995238D01*
X174007142Y-83090476D01*
X174054761Y-83280952D01*
X174054761Y-83423809D01*
X174007142Y-83614285D01*
X173959523Y-83709523D01*
X173864285Y-83804761D01*
X173721428Y-83852380D01*
X173483333Y-83852380D01*
X174483333Y-83328571D02*
X174816666Y-83328571D01*
X174959523Y-83852380D02*
X174483333Y-83852380D01*
X174483333Y-82852380D01*
X174959523Y-82852380D01*
X175959523Y-83852380D02*
X175626190Y-83376190D01*
X175388095Y-83852380D02*
X175388095Y-82852380D01*
X175769047Y-82852380D01*
X175864285Y-82900000D01*
X175911904Y-82947619D01*
X175959523Y-83042857D01*
X175959523Y-83185714D01*
X175911904Y-83280952D01*
X175864285Y-83328571D01*
X175769047Y-83376190D01*
X175388095Y-83376190D01*
X176150000Y-83947619D02*
X176911904Y-83947619D01*
X177578571Y-82852380D02*
X177388095Y-82852380D01*
X177292857Y-82900000D01*
X177245238Y-82947619D01*
X177150000Y-83090476D01*
X177102380Y-83280952D01*
X177102380Y-83661904D01*
X177150000Y-83757142D01*
X177197619Y-83804761D01*
X177292857Y-83852380D01*
X177483333Y-83852380D01*
X177578571Y-83804761D01*
X177626190Y-83757142D01*
X177673809Y-83661904D01*
X177673809Y-83423809D01*
X177626190Y-83328571D01*
X177578571Y-83280952D01*
X177483333Y-83233333D01*
X177292857Y-83233333D01*
X177197619Y-83280952D01*
X177150000Y-83328571D01*
X177102380Y-83423809D01*
G04 #@! TO.C,J1*
X210578571Y-62923809D02*
X210578571Y-62590476D01*
X211102380Y-62447619D02*
X211102380Y-62923809D01*
X210102380Y-62923809D01*
X210102380Y-62447619D01*
X210102380Y-62114285D02*
X211102380Y-61447619D01*
X210102380Y-61447619D02*
X211102380Y-62114285D01*
X210102380Y-61209523D02*
X210102380Y-60638095D01*
X211102380Y-60923809D02*
X210102380Y-60923809D01*
X211197619Y-60542857D02*
X211197619Y-59780952D01*
X211102380Y-59542857D02*
X210102380Y-59542857D01*
X210102380Y-59161904D01*
X210150000Y-59066666D01*
X210197619Y-59019047D01*
X210292857Y-58971428D01*
X210435714Y-58971428D01*
X210530952Y-59019047D01*
X210578571Y-59066666D01*
X210626190Y-59161904D01*
X210626190Y-59542857D01*
X210102380Y-58638095D02*
X211102380Y-58400000D01*
X210388095Y-58209523D01*
X211102380Y-58019047D01*
X210102380Y-57780952D01*
X211102380Y-56828571D02*
X210626190Y-57161904D01*
X211102380Y-57400000D02*
X210102380Y-57400000D01*
X210102380Y-57019047D01*
X210150000Y-56923809D01*
X210197619Y-56876190D01*
X210292857Y-56828571D01*
X210435714Y-56828571D01*
X210530952Y-56876190D01*
X210578571Y-56923809D01*
X210626190Y-57019047D01*
X210626190Y-57400000D01*
G04 #@! TO.C,C14*
X124383333Y-67452380D02*
X125002380Y-67452380D01*
X124669047Y-67833333D01*
X124811904Y-67833333D01*
X124907142Y-67880952D01*
X124954761Y-67928571D01*
X125002380Y-68023809D01*
X125002380Y-68261904D01*
X124954761Y-68357142D01*
X124907142Y-68404761D01*
X124811904Y-68452380D01*
X124526190Y-68452380D01*
X124430952Y-68404761D01*
X124383333Y-68357142D01*
X125335714Y-67452380D02*
X125954761Y-67452380D01*
X125621428Y-67833333D01*
X125764285Y-67833333D01*
X125859523Y-67880952D01*
X125907142Y-67928571D01*
X125954761Y-68023809D01*
X125954761Y-68261904D01*
X125907142Y-68357142D01*
X125859523Y-68404761D01*
X125764285Y-68452380D01*
X125478571Y-68452380D01*
X125383333Y-68404761D01*
X125335714Y-68357142D01*
X126573809Y-67452380D02*
X126669047Y-67452380D01*
X126764285Y-67500000D01*
X126811904Y-67547619D01*
X126859523Y-67642857D01*
X126907142Y-67833333D01*
X126907142Y-68071428D01*
X126859523Y-68261904D01*
X126811904Y-68357142D01*
X126764285Y-68404761D01*
X126669047Y-68452380D01*
X126573809Y-68452380D01*
X126478571Y-68404761D01*
X126430952Y-68357142D01*
X126383333Y-68261904D01*
X126335714Y-68071428D01*
X126335714Y-67833333D01*
X126383333Y-67642857D01*
X126430952Y-67547619D01*
X126478571Y-67500000D01*
X126573809Y-67452380D01*
X127764285Y-67785714D02*
X127764285Y-68452380D01*
X127335714Y-67785714D02*
X127335714Y-68309523D01*
X127383333Y-68404761D01*
X127478571Y-68452380D01*
X127621428Y-68452380D01*
X127716666Y-68404761D01*
X127764285Y-68357142D01*
X128573809Y-67928571D02*
X128240476Y-67928571D01*
X128240476Y-68452380D02*
X128240476Y-67452380D01*
X128716666Y-67452380D01*
G04 #@! TO.C,C16*
X134083333Y-67302380D02*
X134702380Y-67302380D01*
X134369047Y-67683333D01*
X134511904Y-67683333D01*
X134607142Y-67730952D01*
X134654761Y-67778571D01*
X134702380Y-67873809D01*
X134702380Y-68111904D01*
X134654761Y-68207142D01*
X134607142Y-68254761D01*
X134511904Y-68302380D01*
X134226190Y-68302380D01*
X134130952Y-68254761D01*
X134083333Y-68207142D01*
X135035714Y-67302380D02*
X135654761Y-67302380D01*
X135321428Y-67683333D01*
X135464285Y-67683333D01*
X135559523Y-67730952D01*
X135607142Y-67778571D01*
X135654761Y-67873809D01*
X135654761Y-68111904D01*
X135607142Y-68207142D01*
X135559523Y-68254761D01*
X135464285Y-68302380D01*
X135178571Y-68302380D01*
X135083333Y-68254761D01*
X135035714Y-68207142D01*
X136273809Y-67302380D02*
X136369047Y-67302380D01*
X136464285Y-67350000D01*
X136511904Y-67397619D01*
X136559523Y-67492857D01*
X136607142Y-67683333D01*
X136607142Y-67921428D01*
X136559523Y-68111904D01*
X136511904Y-68207142D01*
X136464285Y-68254761D01*
X136369047Y-68302380D01*
X136273809Y-68302380D01*
X136178571Y-68254761D01*
X136130952Y-68207142D01*
X136083333Y-68111904D01*
X136035714Y-67921428D01*
X136035714Y-67683333D01*
X136083333Y-67492857D01*
X136130952Y-67397619D01*
X136178571Y-67350000D01*
X136273809Y-67302380D01*
X137464285Y-67635714D02*
X137464285Y-68302380D01*
X137035714Y-67635714D02*
X137035714Y-68159523D01*
X137083333Y-68254761D01*
X137178571Y-68302380D01*
X137321428Y-68302380D01*
X137416666Y-68254761D01*
X137464285Y-68207142D01*
X138273809Y-67778571D02*
X137940476Y-67778571D01*
X137940476Y-68302380D02*
X137940476Y-67302380D01*
X138416666Y-67302380D01*
G04 #@! TO.C,R14*
X139738095Y-110652380D02*
X139166666Y-110652380D01*
X139452380Y-110652380D02*
X139452380Y-109652380D01*
X139357142Y-109795238D01*
X139261904Y-109890476D01*
X139166666Y-109938095D01*
X140166666Y-110652380D02*
X140166666Y-109652380D01*
X140261904Y-110271428D02*
X140547619Y-110652380D01*
X140547619Y-109985714D02*
X140166666Y-110366666D01*
X141166666Y-109652380D02*
X141357142Y-109652380D01*
X141452380Y-109700000D01*
X141547619Y-109795238D01*
X141595238Y-109985714D01*
X141595238Y-110319047D01*
X141547619Y-110509523D01*
X141452380Y-110604761D01*
X141357142Y-110652380D01*
X141166666Y-110652380D01*
X141071428Y-110604761D01*
X140976190Y-110509523D01*
X140928571Y-110319047D01*
X140928571Y-109985714D01*
X140976190Y-109795238D01*
X141071428Y-109700000D01*
X141166666Y-109652380D01*
X142023809Y-110652380D02*
X142023809Y-109652380D01*
X142452380Y-110652380D02*
X142452380Y-110128571D01*
X142404761Y-110033333D01*
X142309523Y-109985714D01*
X142166666Y-109985714D01*
X142071428Y-110033333D01*
X142023809Y-110080952D01*
X142928571Y-110652380D02*
X142928571Y-109985714D01*
X142928571Y-110080952D02*
X142976190Y-110033333D01*
X143071428Y-109985714D01*
X143214285Y-109985714D01*
X143309523Y-110033333D01*
X143357142Y-110128571D01*
X143357142Y-110652380D01*
X143357142Y-110128571D02*
X143404761Y-110033333D01*
X143500000Y-109985714D01*
X143642857Y-109985714D01*
X143738095Y-110033333D01*
X143785714Y-110128571D01*
X143785714Y-110652380D01*
G04 #@! TO.C,R15*
X156798095Y-115512380D02*
X156226666Y-115512380D01*
X156512380Y-115512380D02*
X156512380Y-114512380D01*
X156417142Y-114655238D01*
X156321904Y-114750476D01*
X156226666Y-114798095D01*
X157226666Y-115512380D02*
X157226666Y-114512380D01*
X157321904Y-115131428D02*
X157607619Y-115512380D01*
X157607619Y-114845714D02*
X157226666Y-115226666D01*
X158226666Y-114512380D02*
X158417142Y-114512380D01*
X158512380Y-114560000D01*
X158607619Y-114655238D01*
X158655238Y-114845714D01*
X158655238Y-115179047D01*
X158607619Y-115369523D01*
X158512380Y-115464761D01*
X158417142Y-115512380D01*
X158226666Y-115512380D01*
X158131428Y-115464761D01*
X158036190Y-115369523D01*
X157988571Y-115179047D01*
X157988571Y-114845714D01*
X158036190Y-114655238D01*
X158131428Y-114560000D01*
X158226666Y-114512380D01*
X159083809Y-115512380D02*
X159083809Y-114512380D01*
X159512380Y-115512380D02*
X159512380Y-114988571D01*
X159464761Y-114893333D01*
X159369523Y-114845714D01*
X159226666Y-114845714D01*
X159131428Y-114893333D01*
X159083809Y-114940952D01*
X159988571Y-115512380D02*
X159988571Y-114845714D01*
X159988571Y-114940952D02*
X160036190Y-114893333D01*
X160131428Y-114845714D01*
X160274285Y-114845714D01*
X160369523Y-114893333D01*
X160417142Y-114988571D01*
X160417142Y-115512380D01*
X160417142Y-114988571D02*
X160464761Y-114893333D01*
X160560000Y-114845714D01*
X160702857Y-114845714D01*
X160798095Y-114893333D01*
X160845714Y-114988571D01*
X160845714Y-115512380D01*
G04 #@! TO.C,R16*
X178448095Y-115012380D02*
X177876666Y-115012380D01*
X178162380Y-115012380D02*
X178162380Y-114012380D01*
X178067142Y-114155238D01*
X177971904Y-114250476D01*
X177876666Y-114298095D01*
X178876666Y-115012380D02*
X178876666Y-114012380D01*
X178971904Y-114631428D02*
X179257619Y-115012380D01*
X179257619Y-114345714D02*
X178876666Y-114726666D01*
X179876666Y-114012380D02*
X180067142Y-114012380D01*
X180162380Y-114060000D01*
X180257619Y-114155238D01*
X180305238Y-114345714D01*
X180305238Y-114679047D01*
X180257619Y-114869523D01*
X180162380Y-114964761D01*
X180067142Y-115012380D01*
X179876666Y-115012380D01*
X179781428Y-114964761D01*
X179686190Y-114869523D01*
X179638571Y-114679047D01*
X179638571Y-114345714D01*
X179686190Y-114155238D01*
X179781428Y-114060000D01*
X179876666Y-114012380D01*
X180733809Y-115012380D02*
X180733809Y-114012380D01*
X181162380Y-115012380D02*
X181162380Y-114488571D01*
X181114761Y-114393333D01*
X181019523Y-114345714D01*
X180876666Y-114345714D01*
X180781428Y-114393333D01*
X180733809Y-114440952D01*
X181638571Y-115012380D02*
X181638571Y-114345714D01*
X181638571Y-114440952D02*
X181686190Y-114393333D01*
X181781428Y-114345714D01*
X181924285Y-114345714D01*
X182019523Y-114393333D01*
X182067142Y-114488571D01*
X182067142Y-115012380D01*
X182067142Y-114488571D02*
X182114761Y-114393333D01*
X182210000Y-114345714D01*
X182352857Y-114345714D01*
X182448095Y-114393333D01*
X182495714Y-114488571D01*
X182495714Y-115012380D01*
G04 #@! TO.C,SpeedPot1*
X99471904Y-113992380D02*
X98900476Y-113992380D01*
X99186190Y-113992380D02*
X99186190Y-112992380D01*
X99090952Y-113135238D01*
X98995714Y-113230476D01*
X98900476Y-113278095D01*
X100090952Y-112992380D02*
X100186190Y-112992380D01*
X100281428Y-113040000D01*
X100329047Y-113087619D01*
X100376666Y-113182857D01*
X100424285Y-113373333D01*
X100424285Y-113611428D01*
X100376666Y-113801904D01*
X100329047Y-113897142D01*
X100281428Y-113944761D01*
X100186190Y-113992380D01*
X100090952Y-113992380D01*
X99995714Y-113944761D01*
X99948095Y-113897142D01*
X99900476Y-113801904D01*
X99852857Y-113611428D01*
X99852857Y-113373333D01*
X99900476Y-113182857D01*
X99948095Y-113087619D01*
X99995714Y-113040000D01*
X100090952Y-112992380D01*
X100852857Y-113992380D02*
X100852857Y-112992380D01*
X100948095Y-113611428D02*
X101233809Y-113992380D01*
X101233809Y-113325714D02*
X100852857Y-113706666D01*
X101852857Y-112992380D02*
X102043333Y-112992380D01*
X102138571Y-113040000D01*
X102233809Y-113135238D01*
X102281428Y-113325714D01*
X102281428Y-113659047D01*
X102233809Y-113849523D01*
X102138571Y-113944761D01*
X102043333Y-113992380D01*
X101852857Y-113992380D01*
X101757619Y-113944761D01*
X101662380Y-113849523D01*
X101614761Y-113659047D01*
X101614761Y-113325714D01*
X101662380Y-113135238D01*
X101757619Y-113040000D01*
X101852857Y-112992380D01*
X102710000Y-113992380D02*
X102710000Y-112992380D01*
X103138571Y-113992380D02*
X103138571Y-113468571D01*
X103090952Y-113373333D01*
X102995714Y-113325714D01*
X102852857Y-113325714D01*
X102757619Y-113373333D01*
X102710000Y-113420952D01*
X103614761Y-113992380D02*
X103614761Y-113325714D01*
X103614761Y-113420952D02*
X103662380Y-113373333D01*
X103757619Y-113325714D01*
X103900476Y-113325714D01*
X103995714Y-113373333D01*
X104043333Y-113468571D01*
X104043333Y-113992380D01*
X104043333Y-113468571D02*
X104090952Y-113373333D01*
X104186190Y-113325714D01*
X104329047Y-113325714D01*
X104424285Y-113373333D01*
X104471904Y-113468571D01*
X104471904Y-113992380D01*
G04 #@! TO.C,D4*
X205907142Y-118852380D02*
X205430952Y-118852380D01*
X205430952Y-117852380D01*
X206240476Y-118328571D02*
X206573809Y-118328571D01*
X206716666Y-118852380D02*
X206240476Y-118852380D01*
X206240476Y-117852380D01*
X206716666Y-117852380D01*
X207145238Y-118852380D02*
X207145238Y-117852380D01*
X207383333Y-117852380D01*
X207526190Y-117900000D01*
X207621428Y-117995238D01*
X207669047Y-118090476D01*
X207716666Y-118280952D01*
X207716666Y-118423809D01*
X207669047Y-118614285D01*
X207621428Y-118709523D01*
X207526190Y-118804761D01*
X207383333Y-118852380D01*
X207145238Y-118852380D01*
G04 #@! TO.C,C3*
X199578571Y-100552380D02*
X199007142Y-100552380D01*
X199292857Y-100552380D02*
X199292857Y-99552380D01*
X199197619Y-99695238D01*
X199102380Y-99790476D01*
X199007142Y-99838095D01*
X200197619Y-99552380D02*
X200292857Y-99552380D01*
X200388095Y-99600000D01*
X200435714Y-99647619D01*
X200483333Y-99742857D01*
X200530952Y-99933333D01*
X200530952Y-100171428D01*
X200483333Y-100361904D01*
X200435714Y-100457142D01*
X200388095Y-100504761D01*
X200292857Y-100552380D01*
X200197619Y-100552380D01*
X200102380Y-100504761D01*
X200054761Y-100457142D01*
X200007142Y-100361904D01*
X199959523Y-100171428D01*
X199959523Y-99933333D01*
X200007142Y-99742857D01*
X200054761Y-99647619D01*
X200102380Y-99600000D01*
X200197619Y-99552380D01*
X200959523Y-99885714D02*
X200959523Y-100552380D01*
X200959523Y-99980952D02*
X201007142Y-99933333D01*
X201102380Y-99885714D01*
X201245238Y-99885714D01*
X201340476Y-99933333D01*
X201388095Y-100028571D01*
X201388095Y-100552380D01*
X202197619Y-100028571D02*
X201864285Y-100028571D01*
X201864285Y-100552380D02*
X201864285Y-99552380D01*
X202340476Y-99552380D01*
G04 #@! TO.C,C2*
X199628571Y-104902380D02*
X199057142Y-104902380D01*
X199342857Y-104902380D02*
X199342857Y-103902380D01*
X199247619Y-104045238D01*
X199152380Y-104140476D01*
X199057142Y-104188095D01*
X200247619Y-103902380D02*
X200342857Y-103902380D01*
X200438095Y-103950000D01*
X200485714Y-103997619D01*
X200533333Y-104092857D01*
X200580952Y-104283333D01*
X200580952Y-104521428D01*
X200533333Y-104711904D01*
X200485714Y-104807142D01*
X200438095Y-104854761D01*
X200342857Y-104902380D01*
X200247619Y-104902380D01*
X200152380Y-104854761D01*
X200104761Y-104807142D01*
X200057142Y-104711904D01*
X200009523Y-104521428D01*
X200009523Y-104283333D01*
X200057142Y-104092857D01*
X200104761Y-103997619D01*
X200152380Y-103950000D01*
X200247619Y-103902380D01*
X201009523Y-104235714D02*
X201009523Y-104902380D01*
X201009523Y-104330952D02*
X201057142Y-104283333D01*
X201152380Y-104235714D01*
X201295238Y-104235714D01*
X201390476Y-104283333D01*
X201438095Y-104378571D01*
X201438095Y-104902380D01*
X202247619Y-104378571D02*
X201914285Y-104378571D01*
X201914285Y-104902380D02*
X201914285Y-103902380D01*
X202390476Y-103902380D01*
G04 #@! TO.C,C10*
X168226190Y-109597619D02*
X168273809Y-109550000D01*
X168369047Y-109502380D01*
X168607142Y-109502380D01*
X168702380Y-109550000D01*
X168750000Y-109597619D01*
X168797619Y-109692857D01*
X168797619Y-109788095D01*
X168750000Y-109930952D01*
X168178571Y-110502380D01*
X168797619Y-110502380D01*
X169178571Y-109597619D02*
X169226190Y-109550000D01*
X169321428Y-109502380D01*
X169559523Y-109502380D01*
X169654761Y-109550000D01*
X169702380Y-109597619D01*
X169750000Y-109692857D01*
X169750000Y-109788095D01*
X169702380Y-109930952D01*
X169130952Y-110502380D01*
X169750000Y-110502380D01*
X170940476Y-109835714D02*
X170940476Y-110835714D01*
X170940476Y-109883333D02*
X171035714Y-109835714D01*
X171226190Y-109835714D01*
X171321428Y-109883333D01*
X171369047Y-109930952D01*
X171416666Y-110026190D01*
X171416666Y-110311904D01*
X171369047Y-110407142D01*
X171321428Y-110454761D01*
X171226190Y-110502380D01*
X171035714Y-110502380D01*
X170940476Y-110454761D01*
X172178571Y-109978571D02*
X171845238Y-109978571D01*
X171845238Y-110502380D02*
X171845238Y-109502380D01*
X172321428Y-109502380D01*
G04 #@! TO.C,C11*
X149176190Y-109597619D02*
X149223809Y-109550000D01*
X149319047Y-109502380D01*
X149557142Y-109502380D01*
X149652380Y-109550000D01*
X149700000Y-109597619D01*
X149747619Y-109692857D01*
X149747619Y-109788095D01*
X149700000Y-109930952D01*
X149128571Y-110502380D01*
X149747619Y-110502380D01*
X150128571Y-109597619D02*
X150176190Y-109550000D01*
X150271428Y-109502380D01*
X150509523Y-109502380D01*
X150604761Y-109550000D01*
X150652380Y-109597619D01*
X150700000Y-109692857D01*
X150700000Y-109788095D01*
X150652380Y-109930952D01*
X150080952Y-110502380D01*
X150700000Y-110502380D01*
X151890476Y-109835714D02*
X151890476Y-110835714D01*
X151890476Y-109883333D02*
X151985714Y-109835714D01*
X152176190Y-109835714D01*
X152271428Y-109883333D01*
X152319047Y-109930952D01*
X152366666Y-110026190D01*
X152366666Y-110311904D01*
X152319047Y-110407142D01*
X152271428Y-110454761D01*
X152176190Y-110502380D01*
X151985714Y-110502380D01*
X151890476Y-110454761D01*
X153128571Y-109978571D02*
X152795238Y-109978571D01*
X152795238Y-110502380D02*
X152795238Y-109502380D01*
X153271428Y-109502380D01*
G04 #@! TO.C,C1*
X117657142Y-90102380D02*
X117180952Y-90102380D01*
X117133333Y-90578571D01*
X117180952Y-90530952D01*
X117276190Y-90483333D01*
X117514285Y-90483333D01*
X117609523Y-90530952D01*
X117657142Y-90578571D01*
X117704761Y-90673809D01*
X117704761Y-90911904D01*
X117657142Y-91007142D01*
X117609523Y-91054761D01*
X117514285Y-91102380D01*
X117276190Y-91102380D01*
X117180952Y-91054761D01*
X117133333Y-91007142D01*
X118133333Y-90435714D02*
X118133333Y-91102380D01*
X118133333Y-90530952D02*
X118180952Y-90483333D01*
X118276190Y-90435714D01*
X118419047Y-90435714D01*
X118514285Y-90483333D01*
X118561904Y-90578571D01*
X118561904Y-91102380D01*
X119371428Y-90578571D02*
X119038095Y-90578571D01*
X119038095Y-91102380D02*
X119038095Y-90102380D01*
X119514285Y-90102380D01*
G04 #@! TO.C,C12*
X116502380Y-84402380D02*
X115930952Y-84402380D01*
X116216666Y-84402380D02*
X116216666Y-83402380D01*
X116121428Y-83545238D01*
X116026190Y-83640476D01*
X115930952Y-83688095D01*
X117121428Y-83402380D02*
X117216666Y-83402380D01*
X117311904Y-83450000D01*
X117359523Y-83497619D01*
X117407142Y-83592857D01*
X117454761Y-83783333D01*
X117454761Y-84021428D01*
X117407142Y-84211904D01*
X117359523Y-84307142D01*
X117311904Y-84354761D01*
X117216666Y-84402380D01*
X117121428Y-84402380D01*
X117026190Y-84354761D01*
X116978571Y-84307142D01*
X116930952Y-84211904D01*
X116883333Y-84021428D01*
X116883333Y-83783333D01*
X116930952Y-83592857D01*
X116978571Y-83497619D01*
X117026190Y-83450000D01*
X117121428Y-83402380D01*
X118073809Y-83402380D02*
X118169047Y-83402380D01*
X118264285Y-83450000D01*
X118311904Y-83497619D01*
X118359523Y-83592857D01*
X118407142Y-83783333D01*
X118407142Y-84021428D01*
X118359523Y-84211904D01*
X118311904Y-84307142D01*
X118264285Y-84354761D01*
X118169047Y-84402380D01*
X118073809Y-84402380D01*
X117978571Y-84354761D01*
X117930952Y-84307142D01*
X117883333Y-84211904D01*
X117835714Y-84021428D01*
X117835714Y-83783333D01*
X117883333Y-83592857D01*
X117930952Y-83497619D01*
X117978571Y-83450000D01*
X118073809Y-83402380D01*
X118835714Y-83735714D02*
X118835714Y-84402380D01*
X118835714Y-83830952D02*
X118883333Y-83783333D01*
X118978571Y-83735714D01*
X119121428Y-83735714D01*
X119216666Y-83783333D01*
X119264285Y-83878571D01*
X119264285Y-84402380D01*
X120073809Y-83878571D02*
X119740476Y-83878571D01*
X119740476Y-84402380D02*
X119740476Y-83402380D01*
X120216666Y-83402380D01*
G04 #@! TO.C,C13*
X110207142Y-82397619D02*
X110254761Y-82350000D01*
X110350000Y-82302380D01*
X110588095Y-82302380D01*
X110683333Y-82350000D01*
X110730952Y-82397619D01*
X110778571Y-82492857D01*
X110778571Y-82588095D01*
X110730952Y-82730952D01*
X110159523Y-83302380D01*
X110778571Y-83302380D01*
X111159523Y-82397619D02*
X111207142Y-82350000D01*
X111302380Y-82302380D01*
X111540476Y-82302380D01*
X111635714Y-82350000D01*
X111683333Y-82397619D01*
X111730952Y-82492857D01*
X111730952Y-82588095D01*
X111683333Y-82730952D01*
X111111904Y-83302380D01*
X111730952Y-83302380D01*
X112588095Y-82635714D02*
X112588095Y-83302380D01*
X112159523Y-82635714D02*
X112159523Y-83159523D01*
X112207142Y-83254761D01*
X112302380Y-83302380D01*
X112445238Y-83302380D01*
X112540476Y-83254761D01*
X112588095Y-83207142D01*
X113397619Y-82778571D02*
X113064285Y-82778571D01*
X113064285Y-83302380D02*
X113064285Y-82302380D01*
X113540476Y-82302380D01*
G04 #@! TO.C,C15*
X110307142Y-90847619D02*
X110354761Y-90800000D01*
X110450000Y-90752380D01*
X110688095Y-90752380D01*
X110783333Y-90800000D01*
X110830952Y-90847619D01*
X110878571Y-90942857D01*
X110878571Y-91038095D01*
X110830952Y-91180952D01*
X110259523Y-91752380D01*
X110878571Y-91752380D01*
X111259523Y-90847619D02*
X111307142Y-90800000D01*
X111402380Y-90752380D01*
X111640476Y-90752380D01*
X111735714Y-90800000D01*
X111783333Y-90847619D01*
X111830952Y-90942857D01*
X111830952Y-91038095D01*
X111783333Y-91180952D01*
X111211904Y-91752380D01*
X111830952Y-91752380D01*
X112688095Y-91085714D02*
X112688095Y-91752380D01*
X112259523Y-91085714D02*
X112259523Y-91609523D01*
X112307142Y-91704761D01*
X112402380Y-91752380D01*
X112545238Y-91752380D01*
X112640476Y-91704761D01*
X112688095Y-91657142D01*
X113497619Y-91228571D02*
X113164285Y-91228571D01*
X113164285Y-91752380D02*
X113164285Y-90752380D01*
X113640476Y-90752380D01*
G04 #@! TO.C,C4*
X199778571Y-109452380D02*
X199207142Y-109452380D01*
X199492857Y-109452380D02*
X199492857Y-108452380D01*
X199397619Y-108595238D01*
X199302380Y-108690476D01*
X199207142Y-108738095D01*
X200397619Y-108452380D02*
X200492857Y-108452380D01*
X200588095Y-108500000D01*
X200635714Y-108547619D01*
X200683333Y-108642857D01*
X200730952Y-108833333D01*
X200730952Y-109071428D01*
X200683333Y-109261904D01*
X200635714Y-109357142D01*
X200588095Y-109404761D01*
X200492857Y-109452380D01*
X200397619Y-109452380D01*
X200302380Y-109404761D01*
X200254761Y-109357142D01*
X200207142Y-109261904D01*
X200159523Y-109071428D01*
X200159523Y-108833333D01*
X200207142Y-108642857D01*
X200254761Y-108547619D01*
X200302380Y-108500000D01*
X200397619Y-108452380D01*
X201159523Y-108785714D02*
X201159523Y-109452380D01*
X201159523Y-108880952D02*
X201207142Y-108833333D01*
X201302380Y-108785714D01*
X201445238Y-108785714D01*
X201540476Y-108833333D01*
X201588095Y-108928571D01*
X201588095Y-109452380D01*
X202397619Y-108928571D02*
X202064285Y-108928571D01*
X202064285Y-109452380D02*
X202064285Y-108452380D01*
X202540476Y-108452380D01*
G04 #@! TO.C,C5*
X199518571Y-114912380D02*
X198947142Y-114912380D01*
X199232857Y-114912380D02*
X199232857Y-113912380D01*
X199137619Y-114055238D01*
X199042380Y-114150476D01*
X198947142Y-114198095D01*
X200137619Y-113912380D02*
X200232857Y-113912380D01*
X200328095Y-113960000D01*
X200375714Y-114007619D01*
X200423333Y-114102857D01*
X200470952Y-114293333D01*
X200470952Y-114531428D01*
X200423333Y-114721904D01*
X200375714Y-114817142D01*
X200328095Y-114864761D01*
X200232857Y-114912380D01*
X200137619Y-114912380D01*
X200042380Y-114864761D01*
X199994761Y-114817142D01*
X199947142Y-114721904D01*
X199899523Y-114531428D01*
X199899523Y-114293333D01*
X199947142Y-114102857D01*
X199994761Y-114007619D01*
X200042380Y-113960000D01*
X200137619Y-113912380D01*
X200899523Y-114245714D02*
X200899523Y-114912380D01*
X200899523Y-114340952D02*
X200947142Y-114293333D01*
X201042380Y-114245714D01*
X201185238Y-114245714D01*
X201280476Y-114293333D01*
X201328095Y-114388571D01*
X201328095Y-114912380D01*
X202137619Y-114388571D02*
X201804285Y-114388571D01*
X201804285Y-114912380D02*
X201804285Y-113912380D01*
X202280476Y-113912380D01*
G04 #@! TO.C,J8*
X121842857Y-105802380D02*
X121842857Y-104802380D01*
X121842857Y-105278571D02*
X122414285Y-105278571D01*
X122414285Y-105802380D02*
X122414285Y-104802380D01*
X122890476Y-105278571D02*
X123223809Y-105278571D01*
X123366666Y-105802380D02*
X122890476Y-105802380D01*
X122890476Y-104802380D01*
X123366666Y-104802380D01*
X123747619Y-105516666D02*
X124223809Y-105516666D01*
X123652380Y-105802380D02*
X123985714Y-104802380D01*
X124319047Y-105802380D01*
X124652380Y-105802380D02*
X124652380Y-104802380D01*
X124890476Y-104802380D01*
X125033333Y-104850000D01*
X125128571Y-104945238D01*
X125176190Y-105040476D01*
X125223809Y-105230952D01*
X125223809Y-105373809D01*
X125176190Y-105564285D01*
X125128571Y-105659523D01*
X125033333Y-105754761D01*
X124890476Y-105802380D01*
X124652380Y-105802380D01*
X125652380Y-105278571D02*
X125985714Y-105278571D01*
X126128571Y-105802380D02*
X125652380Y-105802380D01*
X125652380Y-104802380D01*
X126128571Y-104802380D01*
X127128571Y-105802380D02*
X126795238Y-105326190D01*
X126557142Y-105802380D02*
X126557142Y-104802380D01*
X126938095Y-104802380D01*
X127033333Y-104850000D01*
X127080952Y-104897619D01*
X127128571Y-104992857D01*
X127128571Y-105135714D01*
X127080952Y-105230952D01*
X127033333Y-105278571D01*
X126938095Y-105326190D01*
X126557142Y-105326190D01*
X127319047Y-105897619D02*
X128080952Y-105897619D01*
X128461904Y-105230952D02*
X128366666Y-105183333D01*
X128319047Y-105135714D01*
X128271428Y-105040476D01*
X128271428Y-104992857D01*
X128319047Y-104897619D01*
X128366666Y-104850000D01*
X128461904Y-104802380D01*
X128652380Y-104802380D01*
X128747619Y-104850000D01*
X128795238Y-104897619D01*
X128842857Y-104992857D01*
X128842857Y-105040476D01*
X128795238Y-105135714D01*
X128747619Y-105183333D01*
X128652380Y-105230952D01*
X128461904Y-105230952D01*
X128366666Y-105278571D01*
X128319047Y-105326190D01*
X128271428Y-105421428D01*
X128271428Y-105611904D01*
X128319047Y-105707142D01*
X128366666Y-105754761D01*
X128461904Y-105802380D01*
X128652380Y-105802380D01*
X128747619Y-105754761D01*
X128795238Y-105707142D01*
X128842857Y-105611904D01*
X128842857Y-105421428D01*
X128795238Y-105326190D01*
X128747619Y-105278571D01*
X128652380Y-105230952D01*
X129176190Y-105802380D02*
X129700000Y-105135714D01*
X129176190Y-105135714D02*
X129700000Y-105802380D01*
X130033333Y-104897619D02*
X130080952Y-104850000D01*
X130176190Y-104802380D01*
X130414285Y-104802380D01*
X130509523Y-104850000D01*
X130557142Y-104897619D01*
X130604761Y-104992857D01*
X130604761Y-105088095D01*
X130557142Y-105230952D01*
X129985714Y-105802380D01*
X130604761Y-105802380D01*
G04 #@! TO.C,SW1*
X109088095Y-134604761D02*
X109230952Y-134652380D01*
X109469047Y-134652380D01*
X109564285Y-134604761D01*
X109611904Y-134557142D01*
X109659523Y-134461904D01*
X109659523Y-134366666D01*
X109611904Y-134271428D01*
X109564285Y-134223809D01*
X109469047Y-134176190D01*
X109278571Y-134128571D01*
X109183333Y-134080952D01*
X109135714Y-134033333D01*
X109088095Y-133938095D01*
X109088095Y-133842857D01*
X109135714Y-133747619D01*
X109183333Y-133700000D01*
X109278571Y-133652380D01*
X109516666Y-133652380D01*
X109659523Y-133700000D01*
X109992857Y-133652380D02*
X110230952Y-134652380D01*
X110421428Y-133938095D01*
X110611904Y-134652380D01*
X110850000Y-133652380D01*
X110992857Y-134747619D02*
X111754761Y-134747619D01*
X111992857Y-134652380D02*
X111992857Y-133652380D01*
X112373809Y-133652380D01*
X112469047Y-133700000D01*
X112516666Y-133747619D01*
X112564285Y-133842857D01*
X112564285Y-133985714D01*
X112516666Y-134080952D01*
X112469047Y-134128571D01*
X112373809Y-134176190D01*
X111992857Y-134176190D01*
X112992857Y-133652380D02*
X112992857Y-134461904D01*
X113040476Y-134557142D01*
X113088095Y-134604761D01*
X113183333Y-134652380D01*
X113373809Y-134652380D01*
X113469047Y-134604761D01*
X113516666Y-134557142D01*
X113564285Y-134461904D01*
X113564285Y-133652380D01*
X113992857Y-134604761D02*
X114135714Y-134652380D01*
X114373809Y-134652380D01*
X114469047Y-134604761D01*
X114516666Y-134557142D01*
X114564285Y-134461904D01*
X114564285Y-134366666D01*
X114516666Y-134271428D01*
X114469047Y-134223809D01*
X114373809Y-134176190D01*
X114183333Y-134128571D01*
X114088095Y-134080952D01*
X114040476Y-134033333D01*
X113992857Y-133938095D01*
X113992857Y-133842857D01*
X114040476Y-133747619D01*
X114088095Y-133700000D01*
X114183333Y-133652380D01*
X114421428Y-133652380D01*
X114564285Y-133700000D01*
X114992857Y-134652380D02*
X114992857Y-133652380D01*
X114992857Y-134128571D02*
X115564285Y-134128571D01*
X115564285Y-134652380D02*
X115564285Y-133652380D01*
G04 #@! TO.C,SW2*
X122038095Y-134404761D02*
X122180952Y-134452380D01*
X122419047Y-134452380D01*
X122514285Y-134404761D01*
X122561904Y-134357142D01*
X122609523Y-134261904D01*
X122609523Y-134166666D01*
X122561904Y-134071428D01*
X122514285Y-134023809D01*
X122419047Y-133976190D01*
X122228571Y-133928571D01*
X122133333Y-133880952D01*
X122085714Y-133833333D01*
X122038095Y-133738095D01*
X122038095Y-133642857D01*
X122085714Y-133547619D01*
X122133333Y-133500000D01*
X122228571Y-133452380D01*
X122466666Y-133452380D01*
X122609523Y-133500000D01*
X122942857Y-133452380D02*
X123180952Y-134452380D01*
X123371428Y-133738095D01*
X123561904Y-134452380D01*
X123800000Y-133452380D01*
X123942857Y-134547619D02*
X124704761Y-134547619D01*
X124942857Y-134452380D02*
X124942857Y-133452380D01*
X125323809Y-133452380D01*
X125419047Y-133500000D01*
X125466666Y-133547619D01*
X125514285Y-133642857D01*
X125514285Y-133785714D01*
X125466666Y-133880952D01*
X125419047Y-133928571D01*
X125323809Y-133976190D01*
X124942857Y-133976190D01*
X125942857Y-133452380D02*
X125942857Y-134261904D01*
X125990476Y-134357142D01*
X126038095Y-134404761D01*
X126133333Y-134452380D01*
X126323809Y-134452380D01*
X126419047Y-134404761D01*
X126466666Y-134357142D01*
X126514285Y-134261904D01*
X126514285Y-133452380D01*
X126942857Y-134404761D02*
X127085714Y-134452380D01*
X127323809Y-134452380D01*
X127419047Y-134404761D01*
X127466666Y-134357142D01*
X127514285Y-134261904D01*
X127514285Y-134166666D01*
X127466666Y-134071428D01*
X127419047Y-134023809D01*
X127323809Y-133976190D01*
X127133333Y-133928571D01*
X127038095Y-133880952D01*
X126990476Y-133833333D01*
X126942857Y-133738095D01*
X126942857Y-133642857D01*
X126990476Y-133547619D01*
X127038095Y-133500000D01*
X127133333Y-133452380D01*
X127371428Y-133452380D01*
X127514285Y-133500000D01*
X127942857Y-134452380D02*
X127942857Y-133452380D01*
X127942857Y-133928571D02*
X128514285Y-133928571D01*
X128514285Y-134452380D02*
X128514285Y-133452380D01*
G04 #@! TO.C,SW3*
X134788095Y-134304761D02*
X134930952Y-134352380D01*
X135169047Y-134352380D01*
X135264285Y-134304761D01*
X135311904Y-134257142D01*
X135359523Y-134161904D01*
X135359523Y-134066666D01*
X135311904Y-133971428D01*
X135264285Y-133923809D01*
X135169047Y-133876190D01*
X134978571Y-133828571D01*
X134883333Y-133780952D01*
X134835714Y-133733333D01*
X134788095Y-133638095D01*
X134788095Y-133542857D01*
X134835714Y-133447619D01*
X134883333Y-133400000D01*
X134978571Y-133352380D01*
X135216666Y-133352380D01*
X135359523Y-133400000D01*
X135692857Y-133352380D02*
X135930952Y-134352380D01*
X136121428Y-133638095D01*
X136311904Y-134352380D01*
X136550000Y-133352380D01*
X136692857Y-134447619D02*
X137454761Y-134447619D01*
X137692857Y-134352380D02*
X137692857Y-133352380D01*
X138073809Y-133352380D01*
X138169047Y-133400000D01*
X138216666Y-133447619D01*
X138264285Y-133542857D01*
X138264285Y-133685714D01*
X138216666Y-133780952D01*
X138169047Y-133828571D01*
X138073809Y-133876190D01*
X137692857Y-133876190D01*
X138692857Y-133352380D02*
X138692857Y-134161904D01*
X138740476Y-134257142D01*
X138788095Y-134304761D01*
X138883333Y-134352380D01*
X139073809Y-134352380D01*
X139169047Y-134304761D01*
X139216666Y-134257142D01*
X139264285Y-134161904D01*
X139264285Y-133352380D01*
X139692857Y-134304761D02*
X139835714Y-134352380D01*
X140073809Y-134352380D01*
X140169047Y-134304761D01*
X140216666Y-134257142D01*
X140264285Y-134161904D01*
X140264285Y-134066666D01*
X140216666Y-133971428D01*
X140169047Y-133923809D01*
X140073809Y-133876190D01*
X139883333Y-133828571D01*
X139788095Y-133780952D01*
X139740476Y-133733333D01*
X139692857Y-133638095D01*
X139692857Y-133542857D01*
X139740476Y-133447619D01*
X139788095Y-133400000D01*
X139883333Y-133352380D01*
X140121428Y-133352380D01*
X140264285Y-133400000D01*
X140692857Y-134352380D02*
X140692857Y-133352380D01*
X140692857Y-133828571D02*
X141264285Y-133828571D01*
X141264285Y-134352380D02*
X141264285Y-133352380D01*
G04 #@! TO.C,SW4*
X147738095Y-134304761D02*
X147880952Y-134352380D01*
X148119047Y-134352380D01*
X148214285Y-134304761D01*
X148261904Y-134257142D01*
X148309523Y-134161904D01*
X148309523Y-134066666D01*
X148261904Y-133971428D01*
X148214285Y-133923809D01*
X148119047Y-133876190D01*
X147928571Y-133828571D01*
X147833333Y-133780952D01*
X147785714Y-133733333D01*
X147738095Y-133638095D01*
X147738095Y-133542857D01*
X147785714Y-133447619D01*
X147833333Y-133400000D01*
X147928571Y-133352380D01*
X148166666Y-133352380D01*
X148309523Y-133400000D01*
X148642857Y-133352380D02*
X148880952Y-134352380D01*
X149071428Y-133638095D01*
X149261904Y-134352380D01*
X149500000Y-133352380D01*
X149642857Y-134447619D02*
X150404761Y-134447619D01*
X150642857Y-134352380D02*
X150642857Y-133352380D01*
X151023809Y-133352380D01*
X151119047Y-133400000D01*
X151166666Y-133447619D01*
X151214285Y-133542857D01*
X151214285Y-133685714D01*
X151166666Y-133780952D01*
X151119047Y-133828571D01*
X151023809Y-133876190D01*
X150642857Y-133876190D01*
X151642857Y-133352380D02*
X151642857Y-134161904D01*
X151690476Y-134257142D01*
X151738095Y-134304761D01*
X151833333Y-134352380D01*
X152023809Y-134352380D01*
X152119047Y-134304761D01*
X152166666Y-134257142D01*
X152214285Y-134161904D01*
X152214285Y-133352380D01*
X152642857Y-134304761D02*
X152785714Y-134352380D01*
X153023809Y-134352380D01*
X153119047Y-134304761D01*
X153166666Y-134257142D01*
X153214285Y-134161904D01*
X153214285Y-134066666D01*
X153166666Y-133971428D01*
X153119047Y-133923809D01*
X153023809Y-133876190D01*
X152833333Y-133828571D01*
X152738095Y-133780952D01*
X152690476Y-133733333D01*
X152642857Y-133638095D01*
X152642857Y-133542857D01*
X152690476Y-133447619D01*
X152738095Y-133400000D01*
X152833333Y-133352380D01*
X153071428Y-133352380D01*
X153214285Y-133400000D01*
X153642857Y-134352380D02*
X153642857Y-133352380D01*
X153642857Y-133828571D02*
X154214285Y-133828571D01*
X154214285Y-134352380D02*
X154214285Y-133352380D01*
G04 #@! TO.C,SW5*
X159638095Y-134304761D02*
X159780952Y-134352380D01*
X160019047Y-134352380D01*
X160114285Y-134304761D01*
X160161904Y-134257142D01*
X160209523Y-134161904D01*
X160209523Y-134066666D01*
X160161904Y-133971428D01*
X160114285Y-133923809D01*
X160019047Y-133876190D01*
X159828571Y-133828571D01*
X159733333Y-133780952D01*
X159685714Y-133733333D01*
X159638095Y-133638095D01*
X159638095Y-133542857D01*
X159685714Y-133447619D01*
X159733333Y-133400000D01*
X159828571Y-133352380D01*
X160066666Y-133352380D01*
X160209523Y-133400000D01*
X160542857Y-133352380D02*
X160780952Y-134352380D01*
X160971428Y-133638095D01*
X161161904Y-134352380D01*
X161400000Y-133352380D01*
X161542857Y-134447619D02*
X162304761Y-134447619D01*
X162542857Y-134352380D02*
X162542857Y-133352380D01*
X162923809Y-133352380D01*
X163019047Y-133400000D01*
X163066666Y-133447619D01*
X163114285Y-133542857D01*
X163114285Y-133685714D01*
X163066666Y-133780952D01*
X163019047Y-133828571D01*
X162923809Y-133876190D01*
X162542857Y-133876190D01*
X163542857Y-133352380D02*
X163542857Y-134161904D01*
X163590476Y-134257142D01*
X163638095Y-134304761D01*
X163733333Y-134352380D01*
X163923809Y-134352380D01*
X164019047Y-134304761D01*
X164066666Y-134257142D01*
X164114285Y-134161904D01*
X164114285Y-133352380D01*
X164542857Y-134304761D02*
X164685714Y-134352380D01*
X164923809Y-134352380D01*
X165019047Y-134304761D01*
X165066666Y-134257142D01*
X165114285Y-134161904D01*
X165114285Y-134066666D01*
X165066666Y-133971428D01*
X165019047Y-133923809D01*
X164923809Y-133876190D01*
X164733333Y-133828571D01*
X164638095Y-133780952D01*
X164590476Y-133733333D01*
X164542857Y-133638095D01*
X164542857Y-133542857D01*
X164590476Y-133447619D01*
X164638095Y-133400000D01*
X164733333Y-133352380D01*
X164971428Y-133352380D01*
X165114285Y-133400000D01*
X165542857Y-134352380D02*
X165542857Y-133352380D01*
X165542857Y-133828571D02*
X166114285Y-133828571D01*
X166114285Y-134352380D02*
X166114285Y-133352380D01*
G04 #@! TO.C,SW7*
X171338095Y-134404761D02*
X171480952Y-134452380D01*
X171719047Y-134452380D01*
X171814285Y-134404761D01*
X171861904Y-134357142D01*
X171909523Y-134261904D01*
X171909523Y-134166666D01*
X171861904Y-134071428D01*
X171814285Y-134023809D01*
X171719047Y-133976190D01*
X171528571Y-133928571D01*
X171433333Y-133880952D01*
X171385714Y-133833333D01*
X171338095Y-133738095D01*
X171338095Y-133642857D01*
X171385714Y-133547619D01*
X171433333Y-133500000D01*
X171528571Y-133452380D01*
X171766666Y-133452380D01*
X171909523Y-133500000D01*
X172242857Y-133452380D02*
X172480952Y-134452380D01*
X172671428Y-133738095D01*
X172861904Y-134452380D01*
X173100000Y-133452380D01*
X173242857Y-134547619D02*
X174004761Y-134547619D01*
X174242857Y-134452380D02*
X174242857Y-133452380D01*
X174623809Y-133452380D01*
X174719047Y-133500000D01*
X174766666Y-133547619D01*
X174814285Y-133642857D01*
X174814285Y-133785714D01*
X174766666Y-133880952D01*
X174719047Y-133928571D01*
X174623809Y-133976190D01*
X174242857Y-133976190D01*
X175242857Y-133452380D02*
X175242857Y-134261904D01*
X175290476Y-134357142D01*
X175338095Y-134404761D01*
X175433333Y-134452380D01*
X175623809Y-134452380D01*
X175719047Y-134404761D01*
X175766666Y-134357142D01*
X175814285Y-134261904D01*
X175814285Y-133452380D01*
X176242857Y-134404761D02*
X176385714Y-134452380D01*
X176623809Y-134452380D01*
X176719047Y-134404761D01*
X176766666Y-134357142D01*
X176814285Y-134261904D01*
X176814285Y-134166666D01*
X176766666Y-134071428D01*
X176719047Y-134023809D01*
X176623809Y-133976190D01*
X176433333Y-133928571D01*
X176338095Y-133880952D01*
X176290476Y-133833333D01*
X176242857Y-133738095D01*
X176242857Y-133642857D01*
X176290476Y-133547619D01*
X176338095Y-133500000D01*
X176433333Y-133452380D01*
X176671428Y-133452380D01*
X176814285Y-133500000D01*
X177242857Y-134452380D02*
X177242857Y-133452380D01*
X177242857Y-133928571D02*
X177814285Y-133928571D01*
X177814285Y-134452380D02*
X177814285Y-133452380D01*
G04 #@! TO.C,SW8*
X183688095Y-134404761D02*
X183830952Y-134452380D01*
X184069047Y-134452380D01*
X184164285Y-134404761D01*
X184211904Y-134357142D01*
X184259523Y-134261904D01*
X184259523Y-134166666D01*
X184211904Y-134071428D01*
X184164285Y-134023809D01*
X184069047Y-133976190D01*
X183878571Y-133928571D01*
X183783333Y-133880952D01*
X183735714Y-133833333D01*
X183688095Y-133738095D01*
X183688095Y-133642857D01*
X183735714Y-133547619D01*
X183783333Y-133500000D01*
X183878571Y-133452380D01*
X184116666Y-133452380D01*
X184259523Y-133500000D01*
X184592857Y-133452380D02*
X184830952Y-134452380D01*
X185021428Y-133738095D01*
X185211904Y-134452380D01*
X185450000Y-133452380D01*
X185592857Y-134547619D02*
X186354761Y-134547619D01*
X186592857Y-134452380D02*
X186592857Y-133452380D01*
X186973809Y-133452380D01*
X187069047Y-133500000D01*
X187116666Y-133547619D01*
X187164285Y-133642857D01*
X187164285Y-133785714D01*
X187116666Y-133880952D01*
X187069047Y-133928571D01*
X186973809Y-133976190D01*
X186592857Y-133976190D01*
X187592857Y-133452380D02*
X187592857Y-134261904D01*
X187640476Y-134357142D01*
X187688095Y-134404761D01*
X187783333Y-134452380D01*
X187973809Y-134452380D01*
X188069047Y-134404761D01*
X188116666Y-134357142D01*
X188164285Y-134261904D01*
X188164285Y-133452380D01*
X188592857Y-134404761D02*
X188735714Y-134452380D01*
X188973809Y-134452380D01*
X189069047Y-134404761D01*
X189116666Y-134357142D01*
X189164285Y-134261904D01*
X189164285Y-134166666D01*
X189116666Y-134071428D01*
X189069047Y-134023809D01*
X188973809Y-133976190D01*
X188783333Y-133928571D01*
X188688095Y-133880952D01*
X188640476Y-133833333D01*
X188592857Y-133738095D01*
X188592857Y-133642857D01*
X188640476Y-133547619D01*
X188688095Y-133500000D01*
X188783333Y-133452380D01*
X189021428Y-133452380D01*
X189164285Y-133500000D01*
X189592857Y-134452380D02*
X189592857Y-133452380D01*
X189592857Y-133928571D02*
X190164285Y-133928571D01*
X190164285Y-134452380D02*
X190164285Y-133452380D01*
G04 #@! TO.C,SW9*
X195638095Y-134304761D02*
X195780952Y-134352380D01*
X196019047Y-134352380D01*
X196114285Y-134304761D01*
X196161904Y-134257142D01*
X196209523Y-134161904D01*
X196209523Y-134066666D01*
X196161904Y-133971428D01*
X196114285Y-133923809D01*
X196019047Y-133876190D01*
X195828571Y-133828571D01*
X195733333Y-133780952D01*
X195685714Y-133733333D01*
X195638095Y-133638095D01*
X195638095Y-133542857D01*
X195685714Y-133447619D01*
X195733333Y-133400000D01*
X195828571Y-133352380D01*
X196066666Y-133352380D01*
X196209523Y-133400000D01*
X196542857Y-133352380D02*
X196780952Y-134352380D01*
X196971428Y-133638095D01*
X197161904Y-134352380D01*
X197400000Y-133352380D01*
X197542857Y-134447619D02*
X198304761Y-134447619D01*
X198542857Y-134352380D02*
X198542857Y-133352380D01*
X198923809Y-133352380D01*
X199019047Y-133400000D01*
X199066666Y-133447619D01*
X199114285Y-133542857D01*
X199114285Y-133685714D01*
X199066666Y-133780952D01*
X199019047Y-133828571D01*
X198923809Y-133876190D01*
X198542857Y-133876190D01*
X199542857Y-133352380D02*
X199542857Y-134161904D01*
X199590476Y-134257142D01*
X199638095Y-134304761D01*
X199733333Y-134352380D01*
X199923809Y-134352380D01*
X200019047Y-134304761D01*
X200066666Y-134257142D01*
X200114285Y-134161904D01*
X200114285Y-133352380D01*
X200542857Y-134304761D02*
X200685714Y-134352380D01*
X200923809Y-134352380D01*
X201019047Y-134304761D01*
X201066666Y-134257142D01*
X201114285Y-134161904D01*
X201114285Y-134066666D01*
X201066666Y-133971428D01*
X201019047Y-133923809D01*
X200923809Y-133876190D01*
X200733333Y-133828571D01*
X200638095Y-133780952D01*
X200590476Y-133733333D01*
X200542857Y-133638095D01*
X200542857Y-133542857D01*
X200590476Y-133447619D01*
X200638095Y-133400000D01*
X200733333Y-133352380D01*
X200971428Y-133352380D01*
X201114285Y-133400000D01*
X201542857Y-134352380D02*
X201542857Y-133352380D01*
X201542857Y-133828571D02*
X202114285Y-133828571D01*
X202114285Y-134352380D02*
X202114285Y-133352380D01*
G04 #@! TO.C,J5*
X188602380Y-64223809D02*
X187602380Y-64223809D01*
X187602380Y-63842857D01*
X187650000Y-63747619D01*
X187697619Y-63700000D01*
X187792857Y-63652380D01*
X187935714Y-63652380D01*
X188030952Y-63700000D01*
X188078571Y-63747619D01*
X188126190Y-63842857D01*
X188126190Y-64223809D01*
X188316666Y-63271428D02*
X188316666Y-62795238D01*
X188602380Y-63366666D02*
X187602380Y-63033333D01*
X188602380Y-62700000D01*
X188602380Y-62366666D02*
X187602380Y-62366666D01*
X187602380Y-62128571D01*
X187650000Y-61985714D01*
X187745238Y-61890476D01*
X187840476Y-61842857D01*
X188030952Y-61795238D01*
X188173809Y-61795238D01*
X188364285Y-61842857D01*
X188459523Y-61890476D01*
X188554761Y-61985714D01*
X188602380Y-62128571D01*
X188602380Y-62366666D01*
X188602380Y-61366666D02*
X187602380Y-61366666D01*
X187602380Y-61128571D01*
X187650000Y-60985714D01*
X187745238Y-60890476D01*
X187840476Y-60842857D01*
X188030952Y-60795238D01*
X188173809Y-60795238D01*
X188364285Y-60842857D01*
X188459523Y-60890476D01*
X188554761Y-60985714D01*
X188602380Y-61128571D01*
X188602380Y-61366666D01*
X188602380Y-59890476D02*
X188602380Y-60366666D01*
X187602380Y-60366666D01*
X188078571Y-59557142D02*
X188078571Y-59223809D01*
X188602380Y-59080952D02*
X188602380Y-59557142D01*
X187602380Y-59557142D01*
X187602380Y-59080952D01*
X188554761Y-58700000D02*
X188602380Y-58557142D01*
X188602380Y-58319047D01*
X188554761Y-58223809D01*
X188507142Y-58176190D01*
X188411904Y-58128571D01*
X188316666Y-58128571D01*
X188221428Y-58176190D01*
X188173809Y-58223809D01*
X188126190Y-58319047D01*
X188078571Y-58509523D01*
X188030952Y-58604761D01*
X187983333Y-58652380D01*
X187888095Y-58700000D01*
X187792857Y-58700000D01*
X187697619Y-58652380D01*
X187650000Y-58604761D01*
X187602380Y-58509523D01*
X187602380Y-58271428D01*
X187650000Y-58128571D01*
X175766666Y-60502380D02*
X175766666Y-61216666D01*
X175719047Y-61359523D01*
X175623809Y-61454761D01*
X175480952Y-61502380D01*
X175385714Y-61502380D01*
X176719047Y-60502380D02*
X176242857Y-60502380D01*
X176195238Y-60978571D01*
X176242857Y-60930952D01*
X176338095Y-60883333D01*
X176576190Y-60883333D01*
X176671428Y-60930952D01*
X176719047Y-60978571D01*
X176766666Y-61073809D01*
X176766666Y-61311904D01*
X176719047Y-61407142D01*
X176671428Y-61454761D01*
X176576190Y-61502380D01*
X176338095Y-61502380D01*
X176242857Y-61454761D01*
X176195238Y-61407142D01*
G04 #@! TD*
M02*
