G04 #@! TF.GenerationSoftware,KiCad,Pcbnew,5.0.2+dfsg1-1*
G04 #@! TF.CreationDate,2019-04-18T10:12:34+02:00*
G04 #@! TF.ProjectId,yaacwk,79616163-776b-42e6-9b69-6361645f7063,1.3*
G04 #@! TF.SameCoordinates,Original*
G04 #@! TF.FileFunction,Other,Fab,Bot*
%FSLAX46Y46*%
G04 Gerber Fmt 4.6, Leading zero omitted, Abs format (unit mm)*
G04 Created by KiCad (PCBNEW 5.0.2+dfsg1-1) date gio 18 apr 2019 10:12:34 CEST*
%MOMM*%
%LPD*%
G01*
G04 APERTURE LIST*
%ADD10C,0.100000*%
%ADD11C,0.150000*%
G04 APERTURE END LIST*
D10*
G04 #@! TO.C,C6*
X119700000Y-132400000D02*
X117600000Y-132400000D01*
X117600000Y-132400000D02*
X117600000Y-129000000D01*
X117600000Y-129000000D02*
X119700000Y-129000000D01*
X119700000Y-129000000D02*
X119700000Y-132400000D01*
G04 #@! TO.C,C7*
X132600000Y-129000000D02*
X132600000Y-132400000D01*
X130500000Y-129000000D02*
X132600000Y-129000000D01*
X130500000Y-132400000D02*
X130500000Y-129000000D01*
X132600000Y-132400000D02*
X130500000Y-132400000D01*
G04 #@! TO.C,C8*
X145400000Y-132500000D02*
X143300000Y-132500000D01*
X143300000Y-132500000D02*
X143300000Y-129100000D01*
X143300000Y-129100000D02*
X145400000Y-129100000D01*
X145400000Y-129100000D02*
X145400000Y-132500000D01*
G04 #@! TO.C,C9*
X157800000Y-132400000D02*
X155700000Y-132400000D01*
X155700000Y-132400000D02*
X155700000Y-129000000D01*
X155700000Y-129000000D02*
X157800000Y-129000000D01*
X157800000Y-129000000D02*
X157800000Y-132400000D01*
G04 #@! TO.C,C17*
X169700000Y-132450000D02*
X167600000Y-132450000D01*
X167600000Y-132450000D02*
X167600000Y-129050000D01*
X167600000Y-129050000D02*
X169700000Y-129050000D01*
X169700000Y-129050000D02*
X169700000Y-132450000D01*
G04 #@! TO.C,C18*
X181550000Y-129000000D02*
X181550000Y-132400000D01*
X179450000Y-129000000D02*
X181550000Y-129000000D01*
X179450000Y-132400000D02*
X179450000Y-129000000D01*
X181550000Y-132400000D02*
X179450000Y-132400000D01*
G04 #@! TO.C,C19*
X193550000Y-132400000D02*
X191450000Y-132400000D01*
X191450000Y-132400000D02*
X191450000Y-129000000D01*
X191450000Y-129000000D02*
X193550000Y-129000000D01*
X193550000Y-129000000D02*
X193550000Y-132400000D01*
G04 #@! TD*
G04 #@! TO.C,C6*
D11*
X116992380Y-129152380D02*
X116992380Y-128580952D01*
X116992380Y-128866666D02*
X115992380Y-128866666D01*
X116135238Y-128771428D01*
X116230476Y-128676190D01*
X116278095Y-128580952D01*
X115992380Y-129771428D02*
X115992380Y-129866666D01*
X116040000Y-129961904D01*
X116087619Y-130009523D01*
X116182857Y-130057142D01*
X116373333Y-130104761D01*
X116611428Y-130104761D01*
X116801904Y-130057142D01*
X116897142Y-130009523D01*
X116944761Y-129961904D01*
X116992380Y-129866666D01*
X116992380Y-129771428D01*
X116944761Y-129676190D01*
X116897142Y-129628571D01*
X116801904Y-129580952D01*
X116611428Y-129533333D01*
X116373333Y-129533333D01*
X116182857Y-129580952D01*
X116087619Y-129628571D01*
X116040000Y-129676190D01*
X115992380Y-129771428D01*
X115992380Y-130723809D02*
X115992380Y-130819047D01*
X116040000Y-130914285D01*
X116087619Y-130961904D01*
X116182857Y-131009523D01*
X116373333Y-131057142D01*
X116611428Y-131057142D01*
X116801904Y-131009523D01*
X116897142Y-130961904D01*
X116944761Y-130914285D01*
X116992380Y-130819047D01*
X116992380Y-130723809D01*
X116944761Y-130628571D01*
X116897142Y-130580952D01*
X116801904Y-130533333D01*
X116611428Y-130485714D01*
X116373333Y-130485714D01*
X116182857Y-130533333D01*
X116087619Y-130580952D01*
X116040000Y-130628571D01*
X115992380Y-130723809D01*
X116325714Y-131485714D02*
X116992380Y-131485714D01*
X116420952Y-131485714D02*
X116373333Y-131533333D01*
X116325714Y-131628571D01*
X116325714Y-131771428D01*
X116373333Y-131866666D01*
X116468571Y-131914285D01*
X116992380Y-131914285D01*
X116468571Y-132723809D02*
X116468571Y-132390476D01*
X116992380Y-132390476D02*
X115992380Y-132390476D01*
X115992380Y-132866666D01*
G04 #@! TO.C,C7*
X129892380Y-129152380D02*
X129892380Y-128580952D01*
X129892380Y-128866666D02*
X128892380Y-128866666D01*
X129035238Y-128771428D01*
X129130476Y-128676190D01*
X129178095Y-128580952D01*
X128892380Y-129771428D02*
X128892380Y-129866666D01*
X128940000Y-129961904D01*
X128987619Y-130009523D01*
X129082857Y-130057142D01*
X129273333Y-130104761D01*
X129511428Y-130104761D01*
X129701904Y-130057142D01*
X129797142Y-130009523D01*
X129844761Y-129961904D01*
X129892380Y-129866666D01*
X129892380Y-129771428D01*
X129844761Y-129676190D01*
X129797142Y-129628571D01*
X129701904Y-129580952D01*
X129511428Y-129533333D01*
X129273333Y-129533333D01*
X129082857Y-129580952D01*
X128987619Y-129628571D01*
X128940000Y-129676190D01*
X128892380Y-129771428D01*
X128892380Y-130723809D02*
X128892380Y-130819047D01*
X128940000Y-130914285D01*
X128987619Y-130961904D01*
X129082857Y-131009523D01*
X129273333Y-131057142D01*
X129511428Y-131057142D01*
X129701904Y-131009523D01*
X129797142Y-130961904D01*
X129844761Y-130914285D01*
X129892380Y-130819047D01*
X129892380Y-130723809D01*
X129844761Y-130628571D01*
X129797142Y-130580952D01*
X129701904Y-130533333D01*
X129511428Y-130485714D01*
X129273333Y-130485714D01*
X129082857Y-130533333D01*
X128987619Y-130580952D01*
X128940000Y-130628571D01*
X128892380Y-130723809D01*
X129225714Y-131485714D02*
X129892380Y-131485714D01*
X129320952Y-131485714D02*
X129273333Y-131533333D01*
X129225714Y-131628571D01*
X129225714Y-131771428D01*
X129273333Y-131866666D01*
X129368571Y-131914285D01*
X129892380Y-131914285D01*
X129368571Y-132723809D02*
X129368571Y-132390476D01*
X129892380Y-132390476D02*
X128892380Y-132390476D01*
X128892380Y-132866666D01*
G04 #@! TO.C,C8*
X142692380Y-129252380D02*
X142692380Y-128680952D01*
X142692380Y-128966666D02*
X141692380Y-128966666D01*
X141835238Y-128871428D01*
X141930476Y-128776190D01*
X141978095Y-128680952D01*
X141692380Y-129871428D02*
X141692380Y-129966666D01*
X141740000Y-130061904D01*
X141787619Y-130109523D01*
X141882857Y-130157142D01*
X142073333Y-130204761D01*
X142311428Y-130204761D01*
X142501904Y-130157142D01*
X142597142Y-130109523D01*
X142644761Y-130061904D01*
X142692380Y-129966666D01*
X142692380Y-129871428D01*
X142644761Y-129776190D01*
X142597142Y-129728571D01*
X142501904Y-129680952D01*
X142311428Y-129633333D01*
X142073333Y-129633333D01*
X141882857Y-129680952D01*
X141787619Y-129728571D01*
X141740000Y-129776190D01*
X141692380Y-129871428D01*
X141692380Y-130823809D02*
X141692380Y-130919047D01*
X141740000Y-131014285D01*
X141787619Y-131061904D01*
X141882857Y-131109523D01*
X142073333Y-131157142D01*
X142311428Y-131157142D01*
X142501904Y-131109523D01*
X142597142Y-131061904D01*
X142644761Y-131014285D01*
X142692380Y-130919047D01*
X142692380Y-130823809D01*
X142644761Y-130728571D01*
X142597142Y-130680952D01*
X142501904Y-130633333D01*
X142311428Y-130585714D01*
X142073333Y-130585714D01*
X141882857Y-130633333D01*
X141787619Y-130680952D01*
X141740000Y-130728571D01*
X141692380Y-130823809D01*
X142025714Y-131585714D02*
X142692380Y-131585714D01*
X142120952Y-131585714D02*
X142073333Y-131633333D01*
X142025714Y-131728571D01*
X142025714Y-131871428D01*
X142073333Y-131966666D01*
X142168571Y-132014285D01*
X142692380Y-132014285D01*
X142168571Y-132823809D02*
X142168571Y-132490476D01*
X142692380Y-132490476D02*
X141692380Y-132490476D01*
X141692380Y-132966666D01*
G04 #@! TO.C,C9*
X155092380Y-129152380D02*
X155092380Y-128580952D01*
X155092380Y-128866666D02*
X154092380Y-128866666D01*
X154235238Y-128771428D01*
X154330476Y-128676190D01*
X154378095Y-128580952D01*
X154092380Y-129771428D02*
X154092380Y-129866666D01*
X154140000Y-129961904D01*
X154187619Y-130009523D01*
X154282857Y-130057142D01*
X154473333Y-130104761D01*
X154711428Y-130104761D01*
X154901904Y-130057142D01*
X154997142Y-130009523D01*
X155044761Y-129961904D01*
X155092380Y-129866666D01*
X155092380Y-129771428D01*
X155044761Y-129676190D01*
X154997142Y-129628571D01*
X154901904Y-129580952D01*
X154711428Y-129533333D01*
X154473333Y-129533333D01*
X154282857Y-129580952D01*
X154187619Y-129628571D01*
X154140000Y-129676190D01*
X154092380Y-129771428D01*
X154092380Y-130723809D02*
X154092380Y-130819047D01*
X154140000Y-130914285D01*
X154187619Y-130961904D01*
X154282857Y-131009523D01*
X154473333Y-131057142D01*
X154711428Y-131057142D01*
X154901904Y-131009523D01*
X154997142Y-130961904D01*
X155044761Y-130914285D01*
X155092380Y-130819047D01*
X155092380Y-130723809D01*
X155044761Y-130628571D01*
X154997142Y-130580952D01*
X154901904Y-130533333D01*
X154711428Y-130485714D01*
X154473333Y-130485714D01*
X154282857Y-130533333D01*
X154187619Y-130580952D01*
X154140000Y-130628571D01*
X154092380Y-130723809D01*
X154425714Y-131485714D02*
X155092380Y-131485714D01*
X154520952Y-131485714D02*
X154473333Y-131533333D01*
X154425714Y-131628571D01*
X154425714Y-131771428D01*
X154473333Y-131866666D01*
X154568571Y-131914285D01*
X155092380Y-131914285D01*
X154568571Y-132723809D02*
X154568571Y-132390476D01*
X155092380Y-132390476D02*
X154092380Y-132390476D01*
X154092380Y-132866666D01*
G04 #@! TO.C,C17*
X166992380Y-129202380D02*
X166992380Y-128630952D01*
X166992380Y-128916666D02*
X165992380Y-128916666D01*
X166135238Y-128821428D01*
X166230476Y-128726190D01*
X166278095Y-128630952D01*
X165992380Y-129821428D02*
X165992380Y-129916666D01*
X166040000Y-130011904D01*
X166087619Y-130059523D01*
X166182857Y-130107142D01*
X166373333Y-130154761D01*
X166611428Y-130154761D01*
X166801904Y-130107142D01*
X166897142Y-130059523D01*
X166944761Y-130011904D01*
X166992380Y-129916666D01*
X166992380Y-129821428D01*
X166944761Y-129726190D01*
X166897142Y-129678571D01*
X166801904Y-129630952D01*
X166611428Y-129583333D01*
X166373333Y-129583333D01*
X166182857Y-129630952D01*
X166087619Y-129678571D01*
X166040000Y-129726190D01*
X165992380Y-129821428D01*
X165992380Y-130773809D02*
X165992380Y-130869047D01*
X166040000Y-130964285D01*
X166087619Y-131011904D01*
X166182857Y-131059523D01*
X166373333Y-131107142D01*
X166611428Y-131107142D01*
X166801904Y-131059523D01*
X166897142Y-131011904D01*
X166944761Y-130964285D01*
X166992380Y-130869047D01*
X166992380Y-130773809D01*
X166944761Y-130678571D01*
X166897142Y-130630952D01*
X166801904Y-130583333D01*
X166611428Y-130535714D01*
X166373333Y-130535714D01*
X166182857Y-130583333D01*
X166087619Y-130630952D01*
X166040000Y-130678571D01*
X165992380Y-130773809D01*
X166325714Y-131535714D02*
X166992380Y-131535714D01*
X166420952Y-131535714D02*
X166373333Y-131583333D01*
X166325714Y-131678571D01*
X166325714Y-131821428D01*
X166373333Y-131916666D01*
X166468571Y-131964285D01*
X166992380Y-131964285D01*
X166468571Y-132773809D02*
X166468571Y-132440476D01*
X166992380Y-132440476D02*
X165992380Y-132440476D01*
X165992380Y-132916666D01*
G04 #@! TO.C,C18*
X178842380Y-129152380D02*
X178842380Y-128580952D01*
X178842380Y-128866666D02*
X177842380Y-128866666D01*
X177985238Y-128771428D01*
X178080476Y-128676190D01*
X178128095Y-128580952D01*
X177842380Y-129771428D02*
X177842380Y-129866666D01*
X177890000Y-129961904D01*
X177937619Y-130009523D01*
X178032857Y-130057142D01*
X178223333Y-130104761D01*
X178461428Y-130104761D01*
X178651904Y-130057142D01*
X178747142Y-130009523D01*
X178794761Y-129961904D01*
X178842380Y-129866666D01*
X178842380Y-129771428D01*
X178794761Y-129676190D01*
X178747142Y-129628571D01*
X178651904Y-129580952D01*
X178461428Y-129533333D01*
X178223333Y-129533333D01*
X178032857Y-129580952D01*
X177937619Y-129628571D01*
X177890000Y-129676190D01*
X177842380Y-129771428D01*
X177842380Y-130723809D02*
X177842380Y-130819047D01*
X177890000Y-130914285D01*
X177937619Y-130961904D01*
X178032857Y-131009523D01*
X178223333Y-131057142D01*
X178461428Y-131057142D01*
X178651904Y-131009523D01*
X178747142Y-130961904D01*
X178794761Y-130914285D01*
X178842380Y-130819047D01*
X178842380Y-130723809D01*
X178794761Y-130628571D01*
X178747142Y-130580952D01*
X178651904Y-130533333D01*
X178461428Y-130485714D01*
X178223333Y-130485714D01*
X178032857Y-130533333D01*
X177937619Y-130580952D01*
X177890000Y-130628571D01*
X177842380Y-130723809D01*
X178175714Y-131485714D02*
X178842380Y-131485714D01*
X178270952Y-131485714D02*
X178223333Y-131533333D01*
X178175714Y-131628571D01*
X178175714Y-131771428D01*
X178223333Y-131866666D01*
X178318571Y-131914285D01*
X178842380Y-131914285D01*
X178318571Y-132723809D02*
X178318571Y-132390476D01*
X178842380Y-132390476D02*
X177842380Y-132390476D01*
X177842380Y-132866666D01*
G04 #@! TO.C,C19*
X190842380Y-129152380D02*
X190842380Y-128580952D01*
X190842380Y-128866666D02*
X189842380Y-128866666D01*
X189985238Y-128771428D01*
X190080476Y-128676190D01*
X190128095Y-128580952D01*
X189842380Y-129771428D02*
X189842380Y-129866666D01*
X189890000Y-129961904D01*
X189937619Y-130009523D01*
X190032857Y-130057142D01*
X190223333Y-130104761D01*
X190461428Y-130104761D01*
X190651904Y-130057142D01*
X190747142Y-130009523D01*
X190794761Y-129961904D01*
X190842380Y-129866666D01*
X190842380Y-129771428D01*
X190794761Y-129676190D01*
X190747142Y-129628571D01*
X190651904Y-129580952D01*
X190461428Y-129533333D01*
X190223333Y-129533333D01*
X190032857Y-129580952D01*
X189937619Y-129628571D01*
X189890000Y-129676190D01*
X189842380Y-129771428D01*
X189842380Y-130723809D02*
X189842380Y-130819047D01*
X189890000Y-130914285D01*
X189937619Y-130961904D01*
X190032857Y-131009523D01*
X190223333Y-131057142D01*
X190461428Y-131057142D01*
X190651904Y-131009523D01*
X190747142Y-130961904D01*
X190794761Y-130914285D01*
X190842380Y-130819047D01*
X190842380Y-130723809D01*
X190794761Y-130628571D01*
X190747142Y-130580952D01*
X190651904Y-130533333D01*
X190461428Y-130485714D01*
X190223333Y-130485714D01*
X190032857Y-130533333D01*
X189937619Y-130580952D01*
X189890000Y-130628571D01*
X189842380Y-130723809D01*
X190175714Y-131485714D02*
X190842380Y-131485714D01*
X190270952Y-131485714D02*
X190223333Y-131533333D01*
X190175714Y-131628571D01*
X190175714Y-131771428D01*
X190223333Y-131866666D01*
X190318571Y-131914285D01*
X190842380Y-131914285D01*
X190318571Y-132723809D02*
X190318571Y-132390476D01*
X190842380Y-132390476D02*
X189842380Y-132390476D01*
X189842380Y-132866666D01*
G04 #@! TO.C,REF3*
X160643417Y-101755761D02*
X160500560Y-101803380D01*
X160262464Y-101803380D01*
X160167226Y-101755761D01*
X160119607Y-101708142D01*
X160071988Y-101612904D01*
X160071988Y-101517666D01*
X160119607Y-101422428D01*
X160167226Y-101374809D01*
X160262464Y-101327190D01*
X160452940Y-101279571D01*
X160548179Y-101231952D01*
X160595798Y-101184333D01*
X160643417Y-101089095D01*
X160643417Y-100993857D01*
X160595798Y-100898619D01*
X160548179Y-100851000D01*
X160452940Y-100803380D01*
X160214845Y-100803380D01*
X160071988Y-100851000D01*
X159738655Y-101136714D02*
X159500560Y-101803380D01*
X159262464Y-101136714D02*
X159500560Y-101803380D01*
X159595798Y-102041476D01*
X159643417Y-102089095D01*
X159738655Y-102136714D01*
X158881512Y-101803380D02*
X158881512Y-101136714D01*
X158881512Y-101231952D02*
X158833893Y-101184333D01*
X158738655Y-101136714D01*
X158595798Y-101136714D01*
X158500560Y-101184333D01*
X158452940Y-101279571D01*
X158452940Y-101803380D01*
X158452940Y-101279571D02*
X158405321Y-101184333D01*
X158310083Y-101136714D01*
X158167226Y-101136714D01*
X158071988Y-101184333D01*
X158024369Y-101279571D01*
X158024369Y-101803380D01*
X157548179Y-101803380D02*
X157548179Y-100803380D01*
X157548179Y-101184333D02*
X157452940Y-101136714D01*
X157262464Y-101136714D01*
X157167226Y-101184333D01*
X157119607Y-101231952D01*
X157071988Y-101327190D01*
X157071988Y-101612904D01*
X157119607Y-101708142D01*
X157167226Y-101755761D01*
X157262464Y-101803380D01*
X157452940Y-101803380D01*
X157548179Y-101755761D01*
X156500560Y-101803380D02*
X156595798Y-101755761D01*
X156643417Y-101708142D01*
X156691036Y-101612904D01*
X156691036Y-101327190D01*
X156643417Y-101231952D01*
X156595798Y-101184333D01*
X156500560Y-101136714D01*
X156357702Y-101136714D01*
X156262464Y-101184333D01*
X156214845Y-101231952D01*
X156167226Y-101327190D01*
X156167226Y-101612904D01*
X156214845Y-101708142D01*
X156262464Y-101755761D01*
X156357702Y-101803380D01*
X156500560Y-101803380D01*
X155595798Y-101803380D02*
X155691036Y-101755761D01*
X155738655Y-101660523D01*
X155738655Y-100803380D01*
X155452940Y-101898619D02*
X154691036Y-101898619D01*
X153881512Y-101708142D02*
X153929131Y-101755761D01*
X154071988Y-101803380D01*
X154167226Y-101803380D01*
X154310083Y-101755761D01*
X154405321Y-101660523D01*
X154452940Y-101565285D01*
X154500560Y-101374809D01*
X154500560Y-101231952D01*
X154452940Y-101041476D01*
X154405321Y-100946238D01*
X154310083Y-100851000D01*
X154167226Y-100803380D01*
X154071988Y-100803380D01*
X153929131Y-100851000D01*
X153881512Y-100898619D01*
X153452940Y-101803380D02*
X153452940Y-101136714D01*
X153452940Y-101327190D02*
X153405321Y-101231952D01*
X153357702Y-101184333D01*
X153262464Y-101136714D01*
X153167226Y-101136714D01*
X152452940Y-101755761D02*
X152548179Y-101803380D01*
X152738655Y-101803380D01*
X152833893Y-101755761D01*
X152881512Y-101660523D01*
X152881512Y-101279571D01*
X152833893Y-101184333D01*
X152738655Y-101136714D01*
X152548179Y-101136714D01*
X152452940Y-101184333D01*
X152405321Y-101279571D01*
X152405321Y-101374809D01*
X152881512Y-101470047D01*
X151548179Y-101803380D02*
X151548179Y-101279571D01*
X151595798Y-101184333D01*
X151691036Y-101136714D01*
X151881512Y-101136714D01*
X151976750Y-101184333D01*
X151548179Y-101755761D02*
X151643417Y-101803380D01*
X151881512Y-101803380D01*
X151976750Y-101755761D01*
X152024369Y-101660523D01*
X152024369Y-101565285D01*
X151976750Y-101470047D01*
X151881512Y-101422428D01*
X151643417Y-101422428D01*
X151548179Y-101374809D01*
X151214845Y-101136714D02*
X150833893Y-101136714D01*
X151071988Y-100803380D02*
X151071988Y-101660523D01*
X151024369Y-101755761D01*
X150929131Y-101803380D01*
X150833893Y-101803380D01*
X150500560Y-101803380D02*
X150500560Y-101136714D01*
X150500560Y-100803380D02*
X150548179Y-100851000D01*
X150500560Y-100898619D01*
X150452940Y-100851000D01*
X150500560Y-100803380D01*
X150500560Y-100898619D01*
X150119607Y-101136714D02*
X149881512Y-101803380D01*
X149643417Y-101136714D01*
X148881512Y-101755761D02*
X148976750Y-101803380D01*
X149167226Y-101803380D01*
X149262464Y-101755761D01*
X149310083Y-101660523D01*
X149310083Y-101279571D01*
X149262464Y-101184333D01*
X149167226Y-101136714D01*
X148976750Y-101136714D01*
X148881512Y-101184333D01*
X148833893Y-101279571D01*
X148833893Y-101374809D01*
X149310083Y-101470047D01*
X147833893Y-101708142D02*
X147881512Y-101755761D01*
X148024369Y-101803380D01*
X148119607Y-101803380D01*
X148262464Y-101755761D01*
X148357702Y-101660523D01*
X148405321Y-101565285D01*
X148452940Y-101374809D01*
X148452940Y-101231952D01*
X148405321Y-101041476D01*
X148357702Y-100946238D01*
X148262464Y-100851000D01*
X148119607Y-100803380D01*
X148024369Y-100803380D01*
X147881512Y-100851000D01*
X147833893Y-100898619D01*
X147262464Y-101803380D02*
X147357702Y-101755761D01*
X147405321Y-101708142D01*
X147452940Y-101612904D01*
X147452940Y-101327190D01*
X147405321Y-101231952D01*
X147357702Y-101184333D01*
X147262464Y-101136714D01*
X147119607Y-101136714D01*
X147024369Y-101184333D01*
X146976750Y-101231952D01*
X146929131Y-101327190D01*
X146929131Y-101612904D01*
X146976750Y-101708142D01*
X147024369Y-101755761D01*
X147119607Y-101803380D01*
X147262464Y-101803380D01*
X146500560Y-101803380D02*
X146500560Y-101136714D01*
X146500560Y-101231952D02*
X146452940Y-101184333D01*
X146357702Y-101136714D01*
X146214845Y-101136714D01*
X146119607Y-101184333D01*
X146071988Y-101279571D01*
X146071988Y-101803380D01*
X146071988Y-101279571D02*
X146024369Y-101184333D01*
X145929131Y-101136714D01*
X145786274Y-101136714D01*
X145691036Y-101184333D01*
X145643417Y-101279571D01*
X145643417Y-101803380D01*
X145167226Y-101803380D02*
X145167226Y-101136714D01*
X145167226Y-101231952D02*
X145119607Y-101184333D01*
X145024369Y-101136714D01*
X144881512Y-101136714D01*
X144786274Y-101184333D01*
X144738655Y-101279571D01*
X144738655Y-101803380D01*
X144738655Y-101279571D02*
X144691036Y-101184333D01*
X144595798Y-101136714D01*
X144452940Y-101136714D01*
X144357702Y-101184333D01*
X144310083Y-101279571D01*
X144310083Y-101803380D01*
X143691036Y-101803380D02*
X143786274Y-101755761D01*
X143833893Y-101708142D01*
X143881512Y-101612904D01*
X143881512Y-101327190D01*
X143833893Y-101231952D01*
X143786274Y-101184333D01*
X143691036Y-101136714D01*
X143548179Y-101136714D01*
X143452940Y-101184333D01*
X143405321Y-101231952D01*
X143357702Y-101327190D01*
X143357702Y-101612904D01*
X143405321Y-101708142D01*
X143452940Y-101755761D01*
X143548179Y-101803380D01*
X143691036Y-101803380D01*
X142929131Y-101136714D02*
X142929131Y-101803380D01*
X142929131Y-101231952D02*
X142881512Y-101184333D01*
X142786274Y-101136714D01*
X142643417Y-101136714D01*
X142548179Y-101184333D01*
X142500560Y-101279571D01*
X142500560Y-101803380D01*
X142071988Y-101755761D02*
X141976750Y-101803380D01*
X141786274Y-101803380D01*
X141691036Y-101755761D01*
X141643417Y-101660523D01*
X141643417Y-101612904D01*
X141691036Y-101517666D01*
X141786274Y-101470047D01*
X141929131Y-101470047D01*
X142024369Y-101422428D01*
X142071988Y-101327190D01*
X142071988Y-101279571D01*
X142024369Y-101184333D01*
X141929131Y-101136714D01*
X141786274Y-101136714D01*
X141691036Y-101184333D01*
X141452940Y-101898619D02*
X140691036Y-101898619D01*
X140500560Y-101755761D02*
X140357702Y-101803380D01*
X140119607Y-101803380D01*
X140024369Y-101755761D01*
X139976750Y-101708142D01*
X139929131Y-101612904D01*
X139929131Y-101517666D01*
X139976750Y-101422428D01*
X140024369Y-101374809D01*
X140119607Y-101327190D01*
X140310083Y-101279571D01*
X140405321Y-101231952D01*
X140452940Y-101184333D01*
X140500560Y-101089095D01*
X140500560Y-100993857D01*
X140452940Y-100898619D01*
X140405321Y-100851000D01*
X140310083Y-100803380D01*
X140071988Y-100803380D01*
X139929131Y-100851000D01*
X139500560Y-101803380D02*
X139500560Y-101136714D01*
X139500560Y-100803380D02*
X139548179Y-100851000D01*
X139500560Y-100898619D01*
X139452940Y-100851000D01*
X139500560Y-100803380D01*
X139500560Y-100898619D01*
X138881512Y-101803380D02*
X138976750Y-101755761D01*
X139024369Y-101660523D01*
X139024369Y-100803380D01*
X138500560Y-101803380D02*
X138500560Y-100803380D01*
X138405321Y-101422428D02*
X138119607Y-101803380D01*
X138119607Y-101136714D02*
X138500560Y-101517666D01*
X137738655Y-101755761D02*
X137595798Y-101803380D01*
X137357702Y-101803380D01*
X137262464Y-101755761D01*
X137214845Y-101708142D01*
X137167226Y-101612904D01*
X137167226Y-101517666D01*
X137214845Y-101422428D01*
X137262464Y-101374809D01*
X137357702Y-101327190D01*
X137548179Y-101279571D01*
X137643417Y-101231952D01*
X137691036Y-101184333D01*
X137738655Y-101089095D01*
X137738655Y-100993857D01*
X137691036Y-100898619D01*
X137643417Y-100851000D01*
X137548179Y-100803380D01*
X137310083Y-100803380D01*
X137167226Y-100851000D01*
X136310083Y-101755761D02*
X136405321Y-101803380D01*
X136595798Y-101803380D01*
X136691036Y-101755761D01*
X136738655Y-101708142D01*
X136786274Y-101612904D01*
X136786274Y-101327190D01*
X136738655Y-101231952D01*
X136691036Y-101184333D01*
X136595798Y-101136714D01*
X136405321Y-101136714D01*
X136310083Y-101184333D01*
X135881512Y-101803380D02*
X135881512Y-101136714D01*
X135881512Y-101327190D02*
X135833893Y-101231952D01*
X135786274Y-101184333D01*
X135691036Y-101136714D01*
X135595798Y-101136714D01*
X134881512Y-101755761D02*
X134976750Y-101803380D01*
X135167226Y-101803380D01*
X135262464Y-101755761D01*
X135310083Y-101660523D01*
X135310083Y-101279571D01*
X135262464Y-101184333D01*
X135167226Y-101136714D01*
X134976750Y-101136714D01*
X134881512Y-101184333D01*
X134833893Y-101279571D01*
X134833893Y-101374809D01*
X135310083Y-101470047D01*
X134024369Y-101755761D02*
X134119607Y-101803380D01*
X134310083Y-101803380D01*
X134405321Y-101755761D01*
X134452940Y-101660523D01*
X134452940Y-101279571D01*
X134405321Y-101184333D01*
X134310083Y-101136714D01*
X134119607Y-101136714D01*
X134024369Y-101184333D01*
X133976750Y-101279571D01*
X133976750Y-101374809D01*
X134452940Y-101470047D01*
X133548179Y-101136714D02*
X133548179Y-101803380D01*
X133548179Y-101231952D02*
X133500560Y-101184333D01*
X133405321Y-101136714D01*
X133262464Y-101136714D01*
X133167226Y-101184333D01*
X133119607Y-101279571D01*
X133119607Y-101803380D01*
X132786274Y-100803380D02*
X132214845Y-100803380D01*
X132500560Y-101803380D02*
X132500560Y-100803380D01*
X131738655Y-101803380D02*
X131833893Y-101755761D01*
X131881512Y-101708142D01*
X131929131Y-101612904D01*
X131929131Y-101327190D01*
X131881512Y-101231952D01*
X131833893Y-101184333D01*
X131738655Y-101136714D01*
X131595798Y-101136714D01*
X131500560Y-101184333D01*
X131452940Y-101231952D01*
X131405321Y-101327190D01*
X131405321Y-101612904D01*
X131452940Y-101708142D01*
X131500560Y-101755761D01*
X131595798Y-101803380D01*
X131738655Y-101803380D01*
X130976750Y-101136714D02*
X130976750Y-102136714D01*
X130976750Y-101184333D02*
X130881512Y-101136714D01*
X130691036Y-101136714D01*
X130595798Y-101184333D01*
X130548179Y-101231952D01*
X130500560Y-101327190D01*
X130500560Y-101612904D01*
X130548179Y-101708142D01*
X130595798Y-101755761D01*
X130691036Y-101803380D01*
X130881512Y-101803380D01*
X130976750Y-101755761D01*
X130310083Y-101898619D02*
X129548179Y-101898619D01*
X129452940Y-100803380D02*
X128881512Y-100803380D01*
X129167226Y-101803380D02*
X129167226Y-100803380D01*
X128643417Y-101136714D02*
X128405321Y-101803380D01*
X128167226Y-101136714D02*
X128405321Y-101803380D01*
X128500560Y-102041476D01*
X128548179Y-102089095D01*
X128643417Y-102136714D01*
X127786274Y-101136714D02*
X127786274Y-102136714D01*
X127786274Y-101184333D02*
X127691036Y-101136714D01*
X127500560Y-101136714D01*
X127405321Y-101184333D01*
X127357702Y-101231952D01*
X127310083Y-101327190D01*
X127310083Y-101612904D01*
X127357702Y-101708142D01*
X127405321Y-101755761D01*
X127500560Y-101803380D01*
X127691036Y-101803380D01*
X127786274Y-101755761D01*
X126500560Y-101755761D02*
X126595798Y-101803380D01*
X126786274Y-101803380D01*
X126881512Y-101755761D01*
X126929131Y-101660523D01*
X126929131Y-101279571D01*
X126881512Y-101184333D01*
X126786274Y-101136714D01*
X126595798Y-101136714D01*
X126500560Y-101184333D01*
X126452940Y-101279571D01*
X126452940Y-101374809D01*
X126929131Y-101470047D01*
X126071988Y-100898619D02*
X126024369Y-100851000D01*
X125929131Y-100803380D01*
X125691036Y-100803380D01*
X125595798Y-100851000D01*
X125548179Y-100898619D01*
X125500560Y-100993857D01*
X125500560Y-101089095D01*
X125548179Y-101231952D01*
X126119607Y-101803380D01*
X125500560Y-101803380D01*
X125310083Y-101898619D02*
X124548179Y-101898619D01*
X123976750Y-101279571D02*
X123833893Y-101327190D01*
X123786274Y-101374809D01*
X123738655Y-101470047D01*
X123738655Y-101612904D01*
X123786274Y-101708142D01*
X123833893Y-101755761D01*
X123929131Y-101803380D01*
X124310083Y-101803380D01*
X124310083Y-100803380D01*
X123976750Y-100803380D01*
X123881512Y-100851000D01*
X123833893Y-100898619D01*
X123786274Y-100993857D01*
X123786274Y-101089095D01*
X123833893Y-101184333D01*
X123881512Y-101231952D01*
X123976750Y-101279571D01*
X124310083Y-101279571D01*
X123310083Y-101803380D02*
X123310083Y-101136714D01*
X123310083Y-100803380D02*
X123357702Y-100851000D01*
X123310083Y-100898619D01*
X123262464Y-100851000D01*
X123310083Y-100803380D01*
X123310083Y-100898619D01*
X122405321Y-101136714D02*
X122405321Y-101946238D01*
X122452940Y-102041476D01*
X122500560Y-102089095D01*
X122595798Y-102136714D01*
X122738655Y-102136714D01*
X122833893Y-102089095D01*
X122405321Y-101755761D02*
X122500560Y-101803380D01*
X122691036Y-101803380D01*
X122786274Y-101755761D01*
X122833893Y-101708142D01*
X122881512Y-101612904D01*
X122881512Y-101327190D01*
X122833893Y-101231952D01*
X122786274Y-101184333D01*
X122691036Y-101136714D01*
X122500560Y-101136714D01*
X122405321Y-101184333D01*
G04 #@! TD*
M02*
