G04 #@! TF.GenerationSoftware,KiCad,Pcbnew,5.0.2+dfsg1-1*
G04 #@! TF.CreationDate,2019-04-18T10:12:34+02:00*
G04 #@! TF.ProjectId,yaacwk,79616163-776b-42e6-9b69-6361645f7063,1.3*
G04 #@! TF.SameCoordinates,Original*
G04 #@! TF.FileFunction,Legend,Top*
G04 #@! TF.FilePolarity,Positive*
%FSLAX46Y46*%
G04 Gerber Fmt 4.6, Leading zero omitted, Abs format (unit mm)*
G04 Created by KiCad (PCBNEW 5.0.2+dfsg1-1) date gio 18 apr 2019 10:12:34 CEST*
%MOMM*%
%LPD*%
G01*
G04 APERTURE LIST*
%ADD10C,0.250000*%
%ADD11C,0.300000*%
%ADD12C,0.125000*%
%ADD13C,0.200000*%
%ADD14C,0.120000*%
%ADD15C,0.150000*%
%ADD16C,0.381000*%
%ADD17C,0.100000*%
%ADD18C,0.304800*%
%ADD19C,0.254000*%
G04 APERTURE END LIST*
D10*
X112866666Y-64816666D02*
X112866666Y-64340476D01*
X113152380Y-64911904D02*
X112152380Y-64578571D01*
X113152380Y-64245238D01*
X112152380Y-63911904D02*
X112961904Y-63911904D01*
X113057142Y-63864285D01*
X113104761Y-63816666D01*
X113152380Y-63721428D01*
X113152380Y-63530952D01*
X113104761Y-63435714D01*
X113057142Y-63388095D01*
X112961904Y-63340476D01*
X112152380Y-63340476D01*
X113152380Y-62864285D02*
X112152380Y-62864285D01*
X112152380Y-62626190D01*
X112200000Y-62483333D01*
X112295238Y-62388095D01*
X112390476Y-62340476D01*
X112580952Y-62292857D01*
X112723809Y-62292857D01*
X112914285Y-62340476D01*
X113009523Y-62388095D01*
X113104761Y-62483333D01*
X113152380Y-62626190D01*
X113152380Y-62864285D01*
X113152380Y-61864285D02*
X112152380Y-61864285D01*
X112152380Y-61197619D02*
X112152380Y-61007142D01*
X112200000Y-60911904D01*
X112295238Y-60816666D01*
X112485714Y-60769047D01*
X112819047Y-60769047D01*
X113009523Y-60816666D01*
X113104761Y-60911904D01*
X113152380Y-61007142D01*
X113152380Y-61197619D01*
X113104761Y-61292857D01*
X113009523Y-61388095D01*
X112819047Y-61435714D01*
X112485714Y-61435714D01*
X112295238Y-61388095D01*
X112200000Y-61292857D01*
X112152380Y-61197619D01*
X113247619Y-60578571D02*
X113247619Y-59816666D01*
X113152380Y-59578571D02*
X112152380Y-59578571D01*
X113152380Y-59102380D02*
X112152380Y-59102380D01*
X113152380Y-58530952D01*
X112152380Y-58530952D01*
X188652380Y-64173809D02*
X187652380Y-64173809D01*
X187652380Y-63792857D01*
X187700000Y-63697619D01*
X187747619Y-63650000D01*
X187842857Y-63602380D01*
X187985714Y-63602380D01*
X188080952Y-63650000D01*
X188128571Y-63697619D01*
X188176190Y-63792857D01*
X188176190Y-64173809D01*
X188366666Y-63221428D02*
X188366666Y-62745238D01*
X188652380Y-63316666D02*
X187652380Y-62983333D01*
X188652380Y-62650000D01*
X188652380Y-62316666D02*
X187652380Y-62316666D01*
X187652380Y-62078571D01*
X187700000Y-61935714D01*
X187795238Y-61840476D01*
X187890476Y-61792857D01*
X188080952Y-61745238D01*
X188223809Y-61745238D01*
X188414285Y-61792857D01*
X188509523Y-61840476D01*
X188604761Y-61935714D01*
X188652380Y-62078571D01*
X188652380Y-62316666D01*
X188652380Y-61316666D02*
X187652380Y-61316666D01*
X187652380Y-61078571D01*
X187700000Y-60935714D01*
X187795238Y-60840476D01*
X187890476Y-60792857D01*
X188080952Y-60745238D01*
X188223809Y-60745238D01*
X188414285Y-60792857D01*
X188509523Y-60840476D01*
X188604761Y-60935714D01*
X188652380Y-61078571D01*
X188652380Y-61316666D01*
X188652380Y-59840476D02*
X188652380Y-60316666D01*
X187652380Y-60316666D01*
X188128571Y-59507142D02*
X188128571Y-59173809D01*
X188652380Y-59030952D02*
X188652380Y-59507142D01*
X187652380Y-59507142D01*
X187652380Y-59030952D01*
X188604761Y-58650000D02*
X188652380Y-58507142D01*
X188652380Y-58269047D01*
X188604761Y-58173809D01*
X188557142Y-58126190D01*
X188461904Y-58078571D01*
X188366666Y-58078571D01*
X188271428Y-58126190D01*
X188223809Y-58173809D01*
X188176190Y-58269047D01*
X188128571Y-58459523D01*
X188080952Y-58554761D01*
X188033333Y-58602380D01*
X187938095Y-58650000D01*
X187842857Y-58650000D01*
X187747619Y-58602380D01*
X187700000Y-58554761D01*
X187652380Y-58459523D01*
X187652380Y-58221428D01*
X187700000Y-58078571D01*
X174930952Y-73804761D02*
X174835714Y-73852380D01*
X174645238Y-73852380D01*
X174550000Y-73804761D01*
X174502380Y-73757142D01*
X174454761Y-73661904D01*
X174454761Y-73376190D01*
X174502380Y-73280952D01*
X174550000Y-73233333D01*
X174645238Y-73185714D01*
X174835714Y-73185714D01*
X174930952Y-73233333D01*
X175359523Y-73185714D02*
X175359523Y-74185714D01*
X175359523Y-73233333D02*
X175454761Y-73185714D01*
X175645238Y-73185714D01*
X175740476Y-73233333D01*
X175788095Y-73280952D01*
X175835714Y-73376190D01*
X175835714Y-73661904D01*
X175788095Y-73757142D01*
X175740476Y-73804761D01*
X175645238Y-73852380D01*
X175454761Y-73852380D01*
X175359523Y-73804761D01*
X176216666Y-72947619D02*
X176264285Y-72900000D01*
X176359523Y-72852380D01*
X176597619Y-72852380D01*
X176692857Y-72900000D01*
X176740476Y-72947619D01*
X176788095Y-73042857D01*
X176788095Y-73138095D01*
X176740476Y-73280952D01*
X176169047Y-73852380D01*
X176788095Y-73852380D01*
X177740476Y-73852380D02*
X177169047Y-73852380D01*
X177454761Y-73852380D02*
X177454761Y-72852380D01*
X177359523Y-72995238D01*
X177264285Y-73090476D01*
X177169047Y-73138095D01*
X178359523Y-72852380D02*
X178454761Y-72852380D01*
X178550000Y-72900000D01*
X178597619Y-72947619D01*
X178645238Y-73042857D01*
X178692857Y-73233333D01*
X178692857Y-73471428D01*
X178645238Y-73661904D01*
X178597619Y-73757142D01*
X178550000Y-73804761D01*
X178454761Y-73852380D01*
X178359523Y-73852380D01*
X178264285Y-73804761D01*
X178216666Y-73757142D01*
X178169047Y-73661904D01*
X178121428Y-73471428D01*
X178121428Y-73233333D01*
X178169047Y-73042857D01*
X178216666Y-72947619D01*
X178264285Y-72900000D01*
X178359523Y-72852380D01*
X179073809Y-72947619D02*
X179121428Y-72900000D01*
X179216666Y-72852380D01*
X179454761Y-72852380D01*
X179550000Y-72900000D01*
X179597619Y-72947619D01*
X179645238Y-73042857D01*
X179645238Y-73138095D01*
X179597619Y-73280952D01*
X179026190Y-73852380D01*
X179645238Y-73852380D01*
X179835714Y-73947619D02*
X180597619Y-73947619D01*
X181264285Y-73185714D02*
X181264285Y-73852380D01*
X180835714Y-73185714D02*
X180835714Y-73709523D01*
X180883333Y-73804761D01*
X180978571Y-73852380D01*
X181121428Y-73852380D01*
X181216666Y-73804761D01*
X181264285Y-73757142D01*
X181692857Y-73804761D02*
X181788095Y-73852380D01*
X181978571Y-73852380D01*
X182073809Y-73804761D01*
X182121428Y-73709523D01*
X182121428Y-73661904D01*
X182073809Y-73566666D01*
X181978571Y-73519047D01*
X181835714Y-73519047D01*
X181740476Y-73471428D01*
X181692857Y-73376190D01*
X181692857Y-73328571D01*
X181740476Y-73233333D01*
X181835714Y-73185714D01*
X181978571Y-73185714D01*
X182073809Y-73233333D01*
X182550000Y-73852380D02*
X182550000Y-72852380D01*
X182550000Y-73233333D02*
X182645238Y-73185714D01*
X182835714Y-73185714D01*
X182930952Y-73233333D01*
X182978571Y-73280952D01*
X183026190Y-73376190D01*
X183026190Y-73661904D01*
X182978571Y-73757142D01*
X182930952Y-73804761D01*
X182835714Y-73852380D01*
X182645238Y-73852380D01*
X182550000Y-73804761D01*
X183454761Y-73471428D02*
X184216666Y-73471428D01*
X184550000Y-73185714D02*
X184930952Y-73185714D01*
X184692857Y-72852380D02*
X184692857Y-73709523D01*
X184740476Y-73804761D01*
X184835714Y-73852380D01*
X184930952Y-73852380D01*
X185407142Y-73852380D02*
X185311904Y-73804761D01*
X185264285Y-73757142D01*
X185216666Y-73661904D01*
X185216666Y-73376190D01*
X185264285Y-73280952D01*
X185311904Y-73233333D01*
X185407142Y-73185714D01*
X185550000Y-73185714D01*
X185645238Y-73233333D01*
X185692857Y-73280952D01*
X185740476Y-73376190D01*
X185740476Y-73661904D01*
X185692857Y-73757142D01*
X185645238Y-73804761D01*
X185550000Y-73852380D01*
X185407142Y-73852380D01*
X186169047Y-73471428D02*
X186930952Y-73471428D01*
X187264285Y-73185714D02*
X187645238Y-73185714D01*
X187407142Y-72852380D02*
X187407142Y-73709523D01*
X187454761Y-73804761D01*
X187550000Y-73852380D01*
X187645238Y-73852380D01*
X187835714Y-73185714D02*
X188216666Y-73185714D01*
X187978571Y-72852380D02*
X187978571Y-73709523D01*
X188026190Y-73804761D01*
X188121428Y-73852380D01*
X188216666Y-73852380D01*
X188692857Y-73852380D02*
X188597619Y-73804761D01*
X188550000Y-73709523D01*
X188550000Y-72852380D01*
D11*
X202778571Y-62807142D02*
X203921428Y-62807142D01*
D12*
X122285714Y-104297619D02*
X122285714Y-103916666D01*
X122476190Y-104107142D02*
X122095238Y-104107142D01*
X121976190Y-103726190D02*
X121976190Y-103416666D01*
X122166666Y-103583333D01*
X122166666Y-103511904D01*
X122190476Y-103464285D01*
X122214285Y-103440476D01*
X122261904Y-103416666D01*
X122380952Y-103416666D01*
X122428571Y-103440476D01*
X122452380Y-103464285D01*
X122476190Y-103511904D01*
X122476190Y-103654761D01*
X122452380Y-103702380D01*
X122428571Y-103726190D01*
X121976190Y-103273809D02*
X122476190Y-103107142D01*
X121976190Y-102940476D01*
X121976190Y-102821428D02*
X121976190Y-102511904D01*
X122166666Y-102678571D01*
X122166666Y-102607142D01*
X122190476Y-102559523D01*
X122214285Y-102535714D01*
X122261904Y-102511904D01*
X122380952Y-102511904D01*
X122428571Y-102535714D01*
X122452380Y-102559523D01*
X122476190Y-102607142D01*
X122476190Y-102749999D01*
X122452380Y-102797619D01*
X122428571Y-102821428D01*
X122285714Y-101154761D02*
X122285714Y-100773809D01*
X122476190Y-100964285D02*
X122095238Y-100964285D01*
X121976190Y-100297619D02*
X121976190Y-100535714D01*
X122214285Y-100559523D01*
X122190476Y-100535714D01*
X122166666Y-100488095D01*
X122166666Y-100369047D01*
X122190476Y-100321428D01*
X122214285Y-100297619D01*
X122261904Y-100273809D01*
X122380952Y-100273809D01*
X122428571Y-100297619D01*
X122452380Y-100321428D01*
X122476190Y-100369047D01*
X122476190Y-100488095D01*
X122452380Y-100535714D01*
X122428571Y-100559523D01*
X121976190Y-100130952D02*
X122476190Y-99964285D01*
X121976190Y-99797619D01*
X122476190Y-98488095D02*
X121976190Y-98488095D01*
X121976190Y-98297619D01*
X122000000Y-98249999D01*
X122023809Y-98226190D01*
X122071428Y-98202380D01*
X122142857Y-98202380D01*
X122190476Y-98226190D01*
X122214285Y-98249999D01*
X122238095Y-98297619D01*
X122238095Y-98488095D01*
X122214285Y-97821428D02*
X122238095Y-97749999D01*
X122261904Y-97726190D01*
X122309523Y-97702380D01*
X122380952Y-97702380D01*
X122428571Y-97726190D01*
X122452380Y-97749999D01*
X122476190Y-97797619D01*
X122476190Y-97988095D01*
X121976190Y-97988095D01*
X121976190Y-97821428D01*
X122000000Y-97773809D01*
X122023809Y-97749999D01*
X122071428Y-97726190D01*
X122119047Y-97726190D01*
X122166666Y-97749999D01*
X122190476Y-97773809D01*
X122214285Y-97821428D01*
X122214285Y-97988095D01*
X122476190Y-97226190D02*
X122476190Y-97511904D01*
X122476190Y-97369047D02*
X121976190Y-97369047D01*
X122047619Y-97416666D01*
X122095238Y-97464285D01*
X122119047Y-97511904D01*
X122476190Y-95869047D02*
X121976190Y-95869047D01*
X121976190Y-95678571D01*
X122000000Y-95630952D01*
X122023809Y-95607142D01*
X122071428Y-95583333D01*
X122142857Y-95583333D01*
X122190476Y-95607142D01*
X122214285Y-95630952D01*
X122238095Y-95678571D01*
X122238095Y-95869047D01*
X122214285Y-95202380D02*
X122238095Y-95130952D01*
X122261904Y-95107142D01*
X122309523Y-95083333D01*
X122380952Y-95083333D01*
X122428571Y-95107142D01*
X122452380Y-95130952D01*
X122476190Y-95178571D01*
X122476190Y-95369047D01*
X121976190Y-95369047D01*
X121976190Y-95202380D01*
X122000000Y-95154761D01*
X122023809Y-95130952D01*
X122071428Y-95107142D01*
X122119047Y-95107142D01*
X122166666Y-95130952D01*
X122190476Y-95154761D01*
X122214285Y-95202380D01*
X122214285Y-95369047D01*
X121976190Y-94773809D02*
X121976190Y-94726190D01*
X122000000Y-94678571D01*
X122023809Y-94654761D01*
X122071428Y-94630952D01*
X122166666Y-94607142D01*
X122285714Y-94607142D01*
X122380952Y-94630952D01*
X122428571Y-94654761D01*
X122452380Y-94678571D01*
X122476190Y-94726190D01*
X122476190Y-94773809D01*
X122452380Y-94821428D01*
X122428571Y-94845238D01*
X122380952Y-94869047D01*
X122285714Y-94892857D01*
X122166666Y-94892857D01*
X122071428Y-94869047D01*
X122023809Y-94845238D01*
X122000000Y-94821428D01*
X121976190Y-94773809D01*
X122476190Y-93630952D02*
X121976190Y-93630952D01*
X122333333Y-93464285D01*
X121976190Y-93297619D01*
X122476190Y-93297619D01*
X121976190Y-92964285D02*
X121976190Y-92869047D01*
X122000000Y-92821428D01*
X122047619Y-92773809D01*
X122142857Y-92750000D01*
X122309523Y-92750000D01*
X122404761Y-92773809D01*
X122452380Y-92821428D01*
X122476190Y-92869047D01*
X122476190Y-92964285D01*
X122452380Y-93011904D01*
X122404761Y-93059523D01*
X122309523Y-93083333D01*
X122142857Y-93083333D01*
X122047619Y-93059523D01*
X122000000Y-93011904D01*
X121976190Y-92964285D01*
X122452380Y-92559523D02*
X122476190Y-92488095D01*
X122476190Y-92369047D01*
X122452380Y-92321428D01*
X122428571Y-92297619D01*
X122380952Y-92273809D01*
X122333333Y-92273809D01*
X122285714Y-92297619D01*
X122261904Y-92321428D01*
X122238095Y-92369047D01*
X122214285Y-92464285D01*
X122190476Y-92511904D01*
X122166666Y-92535714D01*
X122119047Y-92559523D01*
X122071428Y-92559523D01*
X122023809Y-92535714D01*
X122000000Y-92511904D01*
X121976190Y-92464285D01*
X121976190Y-92345238D01*
X122000000Y-92273809D01*
X122476190Y-92059523D02*
X121976190Y-92059523D01*
X122476190Y-90678571D02*
X121976190Y-90678571D01*
X122333333Y-90511904D01*
X121976190Y-90345238D01*
X122476190Y-90345238D01*
X122476190Y-90107142D02*
X121976190Y-90107142D01*
X122452380Y-89892857D02*
X122476190Y-89821428D01*
X122476190Y-89702380D01*
X122452380Y-89654761D01*
X122428571Y-89630952D01*
X122380952Y-89607142D01*
X122333333Y-89607142D01*
X122285714Y-89630952D01*
X122261904Y-89654761D01*
X122238095Y-89702380D01*
X122214285Y-89797619D01*
X122190476Y-89845238D01*
X122166666Y-89869047D01*
X122119047Y-89892857D01*
X122071428Y-89892857D01*
X122023809Y-89869047D01*
X122000000Y-89845238D01*
X121976190Y-89797619D01*
X121976190Y-89678571D01*
X122000000Y-89607142D01*
X121976190Y-89297619D02*
X121976190Y-89202380D01*
X122000000Y-89154761D01*
X122047619Y-89107142D01*
X122142857Y-89083333D01*
X122309523Y-89083333D01*
X122404761Y-89107142D01*
X122452380Y-89154761D01*
X122476190Y-89202380D01*
X122476190Y-89297619D01*
X122452380Y-89345238D01*
X122404761Y-89392857D01*
X122309523Y-89416666D01*
X122142857Y-89416666D01*
X122047619Y-89392857D01*
X122000000Y-89345238D01*
X121976190Y-89297619D01*
X122452380Y-88130952D02*
X122476190Y-88059523D01*
X122476190Y-87940476D01*
X122452380Y-87892857D01*
X122428571Y-87869047D01*
X122380952Y-87845238D01*
X122333333Y-87845238D01*
X122285714Y-87869047D01*
X122261904Y-87892857D01*
X122238095Y-87940476D01*
X122214285Y-88035714D01*
X122190476Y-88083333D01*
X122166666Y-88107142D01*
X122119047Y-88130952D01*
X122071428Y-88130952D01*
X122023809Y-88107142D01*
X122000000Y-88083333D01*
X121976190Y-88035714D01*
X121976190Y-87916666D01*
X122000000Y-87845238D01*
X122428571Y-87345238D02*
X122452380Y-87369047D01*
X122476190Y-87440476D01*
X122476190Y-87488095D01*
X122452380Y-87559523D01*
X122404761Y-87607142D01*
X122357142Y-87630952D01*
X122261904Y-87654761D01*
X122190476Y-87654761D01*
X122095238Y-87630952D01*
X122047619Y-87607142D01*
X122000000Y-87559523D01*
X121976190Y-87488095D01*
X121976190Y-87440476D01*
X122000000Y-87369047D01*
X122023809Y-87345238D01*
X122476190Y-87130952D02*
X121976190Y-87130952D01*
X122476190Y-86845238D02*
X122190476Y-87059523D01*
X121976190Y-86845238D02*
X122261904Y-87130952D01*
X122000000Y-85226190D02*
X121976190Y-85273809D01*
X121976190Y-85345238D01*
X122000000Y-85416666D01*
X122047619Y-85464285D01*
X122095238Y-85488095D01*
X122190476Y-85511904D01*
X122261904Y-85511904D01*
X122357142Y-85488095D01*
X122404761Y-85464285D01*
X122452380Y-85416666D01*
X122476190Y-85345238D01*
X122476190Y-85297619D01*
X122452380Y-85226190D01*
X122428571Y-85202380D01*
X122261904Y-85202380D01*
X122261904Y-85297619D01*
X122476190Y-84988095D02*
X121976190Y-84988095D01*
X122476190Y-84702380D01*
X121976190Y-84702380D01*
X122476190Y-84464285D02*
X121976190Y-84464285D01*
X121976190Y-84345238D01*
X122000000Y-84273809D01*
X122047619Y-84226190D01*
X122095238Y-84202380D01*
X122190476Y-84178571D01*
X122261904Y-84178571D01*
X122357142Y-84202380D01*
X122404761Y-84226190D01*
X122452380Y-84273809D01*
X122476190Y-84345238D01*
X122476190Y-84464285D01*
D13*
X167938095Y-115361904D02*
X167671428Y-114980952D01*
X167480952Y-115361904D02*
X167480952Y-114561904D01*
X167785714Y-114561904D01*
X167861904Y-114600000D01*
X167900000Y-114638095D01*
X167938095Y-114714285D01*
X167938095Y-114828571D01*
X167900000Y-114904761D01*
X167861904Y-114942857D01*
X167785714Y-114980952D01*
X167480952Y-114980952D01*
X168280952Y-114942857D02*
X168547619Y-114942857D01*
X168661904Y-115361904D02*
X168280952Y-115361904D01*
X168280952Y-114561904D01*
X168661904Y-114561904D01*
X168966666Y-115323809D02*
X169080952Y-115361904D01*
X169271428Y-115361904D01*
X169347619Y-115323809D01*
X169385714Y-115285714D01*
X169423809Y-115209523D01*
X169423809Y-115133333D01*
X169385714Y-115057142D01*
X169347619Y-115019047D01*
X169271428Y-114980952D01*
X169119047Y-114942857D01*
X169042857Y-114904761D01*
X169004761Y-114866666D01*
X168966666Y-114790476D01*
X168966666Y-114714285D01*
X169004761Y-114638095D01*
X169042857Y-114600000D01*
X169119047Y-114561904D01*
X169309523Y-114561904D01*
X169423809Y-114600000D01*
X169766666Y-114942857D02*
X170033333Y-114942857D01*
X170147619Y-115361904D02*
X169766666Y-115361904D01*
X169766666Y-114561904D01*
X170147619Y-114561904D01*
X170376190Y-114561904D02*
X170833333Y-114561904D01*
X170604761Y-115361904D02*
X170604761Y-114561904D01*
D12*
X173928571Y-78335714D02*
X174309523Y-78335714D01*
X174119047Y-78526190D02*
X174119047Y-78145238D01*
X174785714Y-78026190D02*
X174547619Y-78026190D01*
X174523809Y-78264285D01*
X174547619Y-78240476D01*
X174595238Y-78216666D01*
X174714285Y-78216666D01*
X174761904Y-78240476D01*
X174785714Y-78264285D01*
X174809523Y-78311904D01*
X174809523Y-78430952D01*
X174785714Y-78478571D01*
X174761904Y-78502380D01*
X174714285Y-78526190D01*
X174595238Y-78526190D01*
X174547619Y-78502380D01*
X174523809Y-78478571D01*
X174952380Y-78026190D02*
X175119047Y-78526190D01*
X175285714Y-78026190D01*
X175333333Y-78573809D02*
X175714285Y-78573809D01*
X175833333Y-78526190D02*
X175833333Y-78026190D01*
X176071428Y-78526190D02*
X176071428Y-78026190D01*
X176357142Y-78526190D01*
X176357142Y-78026190D01*
X177738095Y-78335714D02*
X178119047Y-78335714D01*
X180166666Y-78526190D02*
X180000000Y-78288095D01*
X179880952Y-78526190D02*
X179880952Y-78026190D01*
X180071428Y-78026190D01*
X180119047Y-78050000D01*
X180142857Y-78073809D01*
X180166666Y-78121428D01*
X180166666Y-78192857D01*
X180142857Y-78240476D01*
X180119047Y-78264285D01*
X180071428Y-78288095D01*
X179880952Y-78288095D01*
X180333333Y-78026190D02*
X180666666Y-78526190D01*
X180666666Y-78026190D02*
X180333333Y-78526190D01*
X180952380Y-78026190D02*
X181000000Y-78026190D01*
X181047619Y-78050000D01*
X181071428Y-78073809D01*
X181095238Y-78121428D01*
X181119047Y-78216666D01*
X181119047Y-78335714D01*
X181095238Y-78430952D01*
X181071428Y-78478571D01*
X181047619Y-78502380D01*
X181000000Y-78526190D01*
X180952380Y-78526190D01*
X180904761Y-78502380D01*
X180880952Y-78478571D01*
X180857142Y-78430952D01*
X180833333Y-78335714D01*
X180833333Y-78216666D01*
X180857142Y-78121428D01*
X180880952Y-78073809D01*
X180904761Y-78050000D01*
X180952380Y-78026190D01*
X182404761Y-78026190D02*
X182690476Y-78026190D01*
X182547619Y-78526190D02*
X182547619Y-78026190D01*
X182809523Y-78026190D02*
X183142857Y-78526190D01*
X183142857Y-78026190D02*
X182809523Y-78526190D01*
X183428571Y-78026190D02*
X183476190Y-78026190D01*
X183523809Y-78050000D01*
X183547619Y-78073809D01*
X183571428Y-78121428D01*
X183595238Y-78216666D01*
X183595238Y-78335714D01*
X183571428Y-78430952D01*
X183547619Y-78478571D01*
X183523809Y-78502380D01*
X183476190Y-78526190D01*
X183428571Y-78526190D01*
X183380952Y-78502380D01*
X183357142Y-78478571D01*
X183333333Y-78430952D01*
X183309523Y-78335714D01*
X183309523Y-78216666D01*
X183333333Y-78121428D01*
X183357142Y-78073809D01*
X183380952Y-78050000D01*
X183428571Y-78026190D01*
X167202380Y-83376190D02*
X167035714Y-83138095D01*
X166916666Y-83376190D02*
X166916666Y-82876190D01*
X167107142Y-82876190D01*
X167154761Y-82900000D01*
X167178571Y-82923809D01*
X167202380Y-82971428D01*
X167202380Y-83042857D01*
X167178571Y-83090476D01*
X167154761Y-83114285D01*
X167107142Y-83138095D01*
X166916666Y-83138095D01*
X167369047Y-82876190D02*
X167702380Y-83376190D01*
X167702380Y-82876190D02*
X167369047Y-83376190D01*
X168154761Y-83376190D02*
X167869047Y-83376190D01*
X168011904Y-83376190D02*
X168011904Y-82876190D01*
X167964285Y-82947619D01*
X167916666Y-82995238D01*
X167869047Y-83019047D01*
X169440476Y-82876190D02*
X169726190Y-82876190D01*
X169583333Y-83376190D02*
X169583333Y-82876190D01*
X169845238Y-82876190D02*
X170178571Y-83376190D01*
X170178571Y-82876190D02*
X169845238Y-83376190D01*
X170630952Y-83376190D02*
X170345238Y-83376190D01*
X170488095Y-83376190D02*
X170488095Y-82876190D01*
X170440476Y-82947619D01*
X170392857Y-82995238D01*
X170345238Y-83019047D01*
X171988095Y-83376190D02*
X171988095Y-82876190D01*
X172178571Y-82876190D01*
X172226190Y-82900000D01*
X172250000Y-82923809D01*
X172273809Y-82971428D01*
X172273809Y-83042857D01*
X172250000Y-83090476D01*
X172226190Y-83114285D01*
X172178571Y-83138095D01*
X171988095Y-83138095D01*
X172773809Y-83328571D02*
X172750000Y-83352380D01*
X172678571Y-83376190D01*
X172630952Y-83376190D01*
X172559523Y-83352380D01*
X172511904Y-83304761D01*
X172488095Y-83257142D01*
X172464285Y-83161904D01*
X172464285Y-83090476D01*
X172488095Y-82995238D01*
X172511904Y-82947619D01*
X172559523Y-82900000D01*
X172630952Y-82876190D01*
X172678571Y-82876190D01*
X172750000Y-82900000D01*
X172773809Y-82923809D01*
X172940476Y-82876190D02*
X173250000Y-82876190D01*
X173083333Y-83066666D01*
X173154761Y-83066666D01*
X173202380Y-83090476D01*
X173226190Y-83114285D01*
X173250000Y-83161904D01*
X173250000Y-83280952D01*
X173226190Y-83328571D01*
X173202380Y-83352380D01*
X173154761Y-83376190D01*
X173011904Y-83376190D01*
X172964285Y-83352380D01*
X172940476Y-83328571D01*
X174607142Y-83376190D02*
X174607142Y-82876190D01*
X174797619Y-82876190D01*
X174845238Y-82900000D01*
X174869047Y-82923809D01*
X174892857Y-82971428D01*
X174892857Y-83042857D01*
X174869047Y-83090476D01*
X174845238Y-83114285D01*
X174797619Y-83138095D01*
X174607142Y-83138095D01*
X175392857Y-83328571D02*
X175369047Y-83352380D01*
X175297619Y-83376190D01*
X175250000Y-83376190D01*
X175178571Y-83352380D01*
X175130952Y-83304761D01*
X175107142Y-83257142D01*
X175083333Y-83161904D01*
X175083333Y-83090476D01*
X175107142Y-82995238D01*
X175130952Y-82947619D01*
X175178571Y-82900000D01*
X175250000Y-82876190D01*
X175297619Y-82876190D01*
X175369047Y-82900000D01*
X175392857Y-82923809D01*
X175583333Y-82923809D02*
X175607142Y-82900000D01*
X175654761Y-82876190D01*
X175773809Y-82876190D01*
X175821428Y-82900000D01*
X175845238Y-82923809D01*
X175869047Y-82971428D01*
X175869047Y-83019047D01*
X175845238Y-83090476D01*
X175559523Y-83376190D01*
X175869047Y-83376190D01*
X177226190Y-83376190D02*
X177226190Y-82876190D01*
X177416666Y-82876190D01*
X177464285Y-82900000D01*
X177488095Y-82923809D01*
X177511904Y-82971428D01*
X177511904Y-83042857D01*
X177488095Y-83090476D01*
X177464285Y-83114285D01*
X177416666Y-83138095D01*
X177226190Y-83138095D01*
X178011904Y-83328571D02*
X177988095Y-83352380D01*
X177916666Y-83376190D01*
X177869047Y-83376190D01*
X177797619Y-83352380D01*
X177750000Y-83304761D01*
X177726190Y-83257142D01*
X177702380Y-83161904D01*
X177702380Y-83090476D01*
X177726190Y-82995238D01*
X177750000Y-82947619D01*
X177797619Y-82900000D01*
X177869047Y-82876190D01*
X177916666Y-82876190D01*
X177988095Y-82900000D01*
X178011904Y-82923809D01*
X178488095Y-83376190D02*
X178202380Y-83376190D01*
X178345238Y-83376190D02*
X178345238Y-82876190D01*
X178297619Y-82947619D01*
X178250000Y-82995238D01*
X178202380Y-83019047D01*
X179845238Y-83376190D02*
X179845238Y-82876190D01*
X180035714Y-82876190D01*
X180083333Y-82900000D01*
X180107142Y-82923809D01*
X180130952Y-82971428D01*
X180130952Y-83042857D01*
X180107142Y-83090476D01*
X180083333Y-83114285D01*
X180035714Y-83138095D01*
X179845238Y-83138095D01*
X180630952Y-83328571D02*
X180607142Y-83352380D01*
X180535714Y-83376190D01*
X180488095Y-83376190D01*
X180416666Y-83352380D01*
X180369047Y-83304761D01*
X180345238Y-83257142D01*
X180321428Y-83161904D01*
X180321428Y-83090476D01*
X180345238Y-82995238D01*
X180369047Y-82947619D01*
X180416666Y-82900000D01*
X180488095Y-82876190D01*
X180535714Y-82876190D01*
X180607142Y-82900000D01*
X180630952Y-82923809D01*
X180940476Y-82876190D02*
X180988095Y-82876190D01*
X181035714Y-82900000D01*
X181059523Y-82923809D01*
X181083333Y-82971428D01*
X181107142Y-83066666D01*
X181107142Y-83185714D01*
X181083333Y-83280952D01*
X181059523Y-83328571D01*
X181035714Y-83352380D01*
X180988095Y-83376190D01*
X180940476Y-83376190D01*
X180892857Y-83352380D01*
X180869047Y-83328571D01*
X180845238Y-83280952D01*
X180821428Y-83185714D01*
X180821428Y-83066666D01*
X180845238Y-82971428D01*
X180869047Y-82923809D01*
X180892857Y-82900000D01*
X180940476Y-82876190D01*
X129635714Y-103976190D02*
X129635714Y-103595238D01*
X129826190Y-103785714D02*
X129445238Y-103785714D01*
X129326190Y-103404761D02*
X129326190Y-103095238D01*
X129516666Y-103261904D01*
X129516666Y-103190476D01*
X129540476Y-103142857D01*
X129564285Y-103119047D01*
X129611904Y-103095238D01*
X129730952Y-103095238D01*
X129778571Y-103119047D01*
X129802380Y-103142857D01*
X129826190Y-103190476D01*
X129826190Y-103333333D01*
X129802380Y-103380952D01*
X129778571Y-103404761D01*
X129326190Y-102952380D02*
X129826190Y-102785714D01*
X129326190Y-102619047D01*
X129326190Y-102500000D02*
X129326190Y-102190476D01*
X129516666Y-102357142D01*
X129516666Y-102285714D01*
X129540476Y-102238095D01*
X129564285Y-102214285D01*
X129611904Y-102190476D01*
X129730952Y-102190476D01*
X129778571Y-102214285D01*
X129802380Y-102238095D01*
X129826190Y-102285714D01*
X129826190Y-102428571D01*
X129802380Y-102476190D01*
X129778571Y-102500000D01*
X129635714Y-100833333D02*
X129635714Y-100452380D01*
X129826190Y-100642857D02*
X129445238Y-100642857D01*
X129326190Y-99976190D02*
X129326190Y-100214285D01*
X129564285Y-100238095D01*
X129540476Y-100214285D01*
X129516666Y-100166666D01*
X129516666Y-100047619D01*
X129540476Y-100000000D01*
X129564285Y-99976190D01*
X129611904Y-99952380D01*
X129730952Y-99952380D01*
X129778571Y-99976190D01*
X129802380Y-100000000D01*
X129826190Y-100047619D01*
X129826190Y-100166666D01*
X129802380Y-100214285D01*
X129778571Y-100238095D01*
X129326190Y-99809523D02*
X129826190Y-99642857D01*
X129326190Y-99476190D01*
X129826190Y-98166666D02*
X129326190Y-98166666D01*
X129326190Y-97976190D01*
X129350000Y-97928571D01*
X129373809Y-97904761D01*
X129421428Y-97880952D01*
X129492857Y-97880952D01*
X129540476Y-97904761D01*
X129564285Y-97928571D01*
X129588095Y-97976190D01*
X129588095Y-98166666D01*
X129564285Y-97500000D02*
X129588095Y-97428571D01*
X129611904Y-97404761D01*
X129659523Y-97380952D01*
X129730952Y-97380952D01*
X129778571Y-97404761D01*
X129802380Y-97428571D01*
X129826190Y-97476190D01*
X129826190Y-97666666D01*
X129326190Y-97666666D01*
X129326190Y-97500000D01*
X129350000Y-97452380D01*
X129373809Y-97428571D01*
X129421428Y-97404761D01*
X129469047Y-97404761D01*
X129516666Y-97428571D01*
X129540476Y-97452380D01*
X129564285Y-97500000D01*
X129564285Y-97666666D01*
X129326190Y-97214285D02*
X129326190Y-96904761D01*
X129516666Y-97071428D01*
X129516666Y-97000000D01*
X129540476Y-96952380D01*
X129564285Y-96928571D01*
X129611904Y-96904761D01*
X129730952Y-96904761D01*
X129778571Y-96928571D01*
X129802380Y-96952380D01*
X129826190Y-97000000D01*
X129826190Y-97142857D01*
X129802380Y-97190476D01*
X129778571Y-97214285D01*
X129802380Y-95571428D02*
X129826190Y-95500000D01*
X129826190Y-95380952D01*
X129802380Y-95333333D01*
X129778571Y-95309523D01*
X129730952Y-95285714D01*
X129683333Y-95285714D01*
X129635714Y-95309523D01*
X129611904Y-95333333D01*
X129588095Y-95380952D01*
X129564285Y-95476190D01*
X129540476Y-95523809D01*
X129516666Y-95547619D01*
X129469047Y-95571428D01*
X129421428Y-95571428D01*
X129373809Y-95547619D01*
X129350000Y-95523809D01*
X129326190Y-95476190D01*
X129326190Y-95357142D01*
X129350000Y-95285714D01*
X129802380Y-95095238D02*
X129826190Y-95023809D01*
X129826190Y-94904761D01*
X129802380Y-94857142D01*
X129778571Y-94833333D01*
X129730952Y-94809523D01*
X129683333Y-94809523D01*
X129635714Y-94833333D01*
X129611904Y-94857142D01*
X129588095Y-94904761D01*
X129564285Y-95000000D01*
X129540476Y-95047619D01*
X129516666Y-95071428D01*
X129469047Y-95095238D01*
X129421428Y-95095238D01*
X129373809Y-95071428D01*
X129350000Y-95047619D01*
X129326190Y-95000000D01*
X129326190Y-94880952D01*
X129350000Y-94809523D01*
X129826190Y-93452380D02*
X129326190Y-93452380D01*
X129683333Y-93285714D01*
X129326190Y-93119047D01*
X129826190Y-93119047D01*
X129326190Y-92785714D02*
X129326190Y-92690476D01*
X129350000Y-92642857D01*
X129397619Y-92595238D01*
X129492857Y-92571428D01*
X129659523Y-92571428D01*
X129754761Y-92595238D01*
X129802380Y-92642857D01*
X129826190Y-92690476D01*
X129826190Y-92785714D01*
X129802380Y-92833333D01*
X129754761Y-92880952D01*
X129659523Y-92904761D01*
X129492857Y-92904761D01*
X129397619Y-92880952D01*
X129350000Y-92833333D01*
X129326190Y-92785714D01*
X129802380Y-92380952D02*
X129826190Y-92309523D01*
X129826190Y-92190476D01*
X129802380Y-92142857D01*
X129778571Y-92119047D01*
X129730952Y-92095238D01*
X129683333Y-92095238D01*
X129635714Y-92119047D01*
X129611904Y-92142857D01*
X129588095Y-92190476D01*
X129564285Y-92285714D01*
X129540476Y-92333333D01*
X129516666Y-92357142D01*
X129469047Y-92380952D01*
X129421428Y-92380952D01*
X129373809Y-92357142D01*
X129350000Y-92333333D01*
X129326190Y-92285714D01*
X129326190Y-92166666D01*
X129350000Y-92095238D01*
X129826190Y-91880952D02*
X129326190Y-91880952D01*
X129826190Y-90500000D02*
X129326190Y-90500000D01*
X129683333Y-90333333D01*
X129326190Y-90166666D01*
X129826190Y-90166666D01*
X129826190Y-89928571D02*
X129326190Y-89928571D01*
X129802380Y-89714285D02*
X129826190Y-89642857D01*
X129826190Y-89523809D01*
X129802380Y-89476190D01*
X129778571Y-89452380D01*
X129730952Y-89428571D01*
X129683333Y-89428571D01*
X129635714Y-89452380D01*
X129611904Y-89476190D01*
X129588095Y-89523809D01*
X129564285Y-89619047D01*
X129540476Y-89666666D01*
X129516666Y-89690476D01*
X129469047Y-89714285D01*
X129421428Y-89714285D01*
X129373809Y-89690476D01*
X129350000Y-89666666D01*
X129326190Y-89619047D01*
X129326190Y-89500000D01*
X129350000Y-89428571D01*
X129326190Y-89119047D02*
X129326190Y-89023809D01*
X129350000Y-88976190D01*
X129397619Y-88928571D01*
X129492857Y-88904761D01*
X129659523Y-88904761D01*
X129754761Y-88928571D01*
X129802380Y-88976190D01*
X129826190Y-89023809D01*
X129826190Y-89119047D01*
X129802380Y-89166666D01*
X129754761Y-89214285D01*
X129659523Y-89238095D01*
X129492857Y-89238095D01*
X129397619Y-89214285D01*
X129350000Y-89166666D01*
X129326190Y-89119047D01*
X129802380Y-87952380D02*
X129826190Y-87880952D01*
X129826190Y-87761904D01*
X129802380Y-87714285D01*
X129778571Y-87690476D01*
X129730952Y-87666666D01*
X129683333Y-87666666D01*
X129635714Y-87690476D01*
X129611904Y-87714285D01*
X129588095Y-87761904D01*
X129564285Y-87857142D01*
X129540476Y-87904761D01*
X129516666Y-87928571D01*
X129469047Y-87952380D01*
X129421428Y-87952380D01*
X129373809Y-87928571D01*
X129350000Y-87904761D01*
X129326190Y-87857142D01*
X129326190Y-87738095D01*
X129350000Y-87666666D01*
X129778571Y-87166666D02*
X129802380Y-87190476D01*
X129826190Y-87261904D01*
X129826190Y-87309523D01*
X129802380Y-87380952D01*
X129754761Y-87428571D01*
X129707142Y-87452380D01*
X129611904Y-87476190D01*
X129540476Y-87476190D01*
X129445238Y-87452380D01*
X129397619Y-87428571D01*
X129350000Y-87380952D01*
X129326190Y-87309523D01*
X129326190Y-87261904D01*
X129350000Y-87190476D01*
X129373809Y-87166666D01*
X129826190Y-86952380D02*
X129326190Y-86952380D01*
X129826190Y-86666666D02*
X129540476Y-86880952D01*
X129326190Y-86666666D02*
X129611904Y-86952380D01*
X129350000Y-85047619D02*
X129326190Y-85095238D01*
X129326190Y-85166666D01*
X129350000Y-85238095D01*
X129397619Y-85285714D01*
X129445238Y-85309523D01*
X129540476Y-85333333D01*
X129611904Y-85333333D01*
X129707142Y-85309523D01*
X129754761Y-85285714D01*
X129802380Y-85238095D01*
X129826190Y-85166666D01*
X129826190Y-85119047D01*
X129802380Y-85047619D01*
X129778571Y-85023809D01*
X129611904Y-85023809D01*
X129611904Y-85119047D01*
X129826190Y-84809523D02*
X129326190Y-84809523D01*
X129826190Y-84523809D01*
X129326190Y-84523809D01*
X129826190Y-84285714D02*
X129326190Y-84285714D01*
X129326190Y-84166666D01*
X129350000Y-84095238D01*
X129397619Y-84047619D01*
X129445238Y-84023809D01*
X129540476Y-84000000D01*
X129611904Y-84000000D01*
X129707142Y-84023809D01*
X129754761Y-84047619D01*
X129802380Y-84095238D01*
X129826190Y-84166666D01*
X129826190Y-84285714D01*
X114738095Y-72176190D02*
X114904761Y-72676190D01*
X115071428Y-72176190D01*
X115214285Y-72652380D02*
X115285714Y-72676190D01*
X115404761Y-72676190D01*
X115452380Y-72652380D01*
X115476190Y-72628571D01*
X115500000Y-72580952D01*
X115500000Y-72533333D01*
X115476190Y-72485714D01*
X115452380Y-72461904D01*
X115404761Y-72438095D01*
X115309523Y-72414285D01*
X115261904Y-72390476D01*
X115238095Y-72366666D01*
X115214285Y-72319047D01*
X115214285Y-72271428D01*
X115238095Y-72223809D01*
X115261904Y-72200000D01*
X115309523Y-72176190D01*
X115428571Y-72176190D01*
X115500000Y-72200000D01*
X115690476Y-72652380D02*
X115761904Y-72676190D01*
X115880952Y-72676190D01*
X115928571Y-72652380D01*
X115952380Y-72628571D01*
X115976190Y-72580952D01*
X115976190Y-72533333D01*
X115952380Y-72485714D01*
X115928571Y-72461904D01*
X115880952Y-72438095D01*
X115785714Y-72414285D01*
X115738095Y-72390476D01*
X115714285Y-72366666D01*
X115690476Y-72319047D01*
X115690476Y-72271428D01*
X115714285Y-72223809D01*
X115738095Y-72200000D01*
X115785714Y-72176190D01*
X115904761Y-72176190D01*
X115976190Y-72200000D01*
X117261904Y-72176190D02*
X117428571Y-72676190D01*
X117595238Y-72176190D01*
X117761904Y-72676190D02*
X117761904Y-72176190D01*
X117880952Y-72176190D01*
X117952380Y-72200000D01*
X118000000Y-72247619D01*
X118023809Y-72295238D01*
X118047619Y-72390476D01*
X118047619Y-72461904D01*
X118023809Y-72557142D01*
X118000000Y-72604761D01*
X117952380Y-72652380D01*
X117880952Y-72676190D01*
X117761904Y-72676190D01*
X118261904Y-72676190D02*
X118261904Y-72176190D01*
X118380952Y-72176190D01*
X118452380Y-72200000D01*
X118500000Y-72247619D01*
X118523809Y-72295238D01*
X118547619Y-72390476D01*
X118547619Y-72461904D01*
X118523809Y-72557142D01*
X118500000Y-72604761D01*
X118452380Y-72652380D01*
X118380952Y-72676190D01*
X118261904Y-72676190D01*
X120214285Y-72176190D02*
X120380952Y-72676190D01*
X120547619Y-72176190D01*
X120809523Y-72176190D02*
X120857142Y-72176190D01*
X120904761Y-72200000D01*
X120928571Y-72223809D01*
X120952380Y-72271428D01*
X120976190Y-72366666D01*
X120976190Y-72485714D01*
X120952380Y-72580952D01*
X120928571Y-72628571D01*
X120904761Y-72652380D01*
X120857142Y-72676190D01*
X120809523Y-72676190D01*
X120761904Y-72652380D01*
X120738095Y-72628571D01*
X120714285Y-72580952D01*
X120690476Y-72485714D01*
X120690476Y-72366666D01*
X120714285Y-72271428D01*
X120738095Y-72223809D01*
X120761904Y-72200000D01*
X120809523Y-72176190D01*
X123000000Y-72676190D02*
X122833333Y-72438095D01*
X122714285Y-72676190D02*
X122714285Y-72176190D01*
X122904761Y-72176190D01*
X122952380Y-72200000D01*
X122976190Y-72223809D01*
X123000000Y-72271428D01*
X123000000Y-72342857D01*
X122976190Y-72390476D01*
X122952380Y-72414285D01*
X122904761Y-72438095D01*
X122714285Y-72438095D01*
X123190476Y-72652380D02*
X123261904Y-72676190D01*
X123380952Y-72676190D01*
X123428571Y-72652380D01*
X123452380Y-72628571D01*
X123476190Y-72580952D01*
X123476190Y-72533333D01*
X123452380Y-72485714D01*
X123428571Y-72461904D01*
X123380952Y-72438095D01*
X123285714Y-72414285D01*
X123238095Y-72390476D01*
X123214285Y-72366666D01*
X123190476Y-72319047D01*
X123190476Y-72271428D01*
X123214285Y-72223809D01*
X123238095Y-72200000D01*
X123285714Y-72176190D01*
X123404761Y-72176190D01*
X123476190Y-72200000D01*
X125500000Y-72676190D02*
X125333333Y-72438095D01*
X125214285Y-72676190D02*
X125214285Y-72176190D01*
X125404761Y-72176190D01*
X125452380Y-72200000D01*
X125476190Y-72223809D01*
X125500000Y-72271428D01*
X125500000Y-72342857D01*
X125476190Y-72390476D01*
X125452380Y-72414285D01*
X125404761Y-72438095D01*
X125214285Y-72438095D01*
X126071428Y-72152380D02*
X125642857Y-72795238D01*
X126190476Y-72176190D02*
X126309523Y-72676190D01*
X126404761Y-72319047D01*
X126500000Y-72676190D01*
X126619047Y-72176190D01*
X127952380Y-72414285D02*
X128119047Y-72414285D01*
X128190476Y-72676190D02*
X127952380Y-72676190D01*
X127952380Y-72176190D01*
X128190476Y-72176190D01*
X140595238Y-72676190D02*
X140595238Y-72176190D01*
X140714285Y-72176190D01*
X140785714Y-72200000D01*
X140833333Y-72247619D01*
X140857142Y-72295238D01*
X140880952Y-72390476D01*
X140880952Y-72461904D01*
X140857142Y-72557142D01*
X140833333Y-72604761D01*
X140785714Y-72652380D01*
X140714285Y-72676190D01*
X140595238Y-72676190D01*
X141309523Y-72342857D02*
X141309523Y-72676190D01*
X141190476Y-72152380D02*
X141071428Y-72509523D01*
X141380952Y-72509523D01*
X143095238Y-72676190D02*
X143095238Y-72176190D01*
X143214285Y-72176190D01*
X143285714Y-72200000D01*
X143333333Y-72247619D01*
X143357142Y-72295238D01*
X143380952Y-72390476D01*
X143380952Y-72461904D01*
X143357142Y-72557142D01*
X143333333Y-72604761D01*
X143285714Y-72652380D01*
X143214285Y-72676190D01*
X143095238Y-72676190D01*
X143833333Y-72176190D02*
X143595238Y-72176190D01*
X143571428Y-72414285D01*
X143595238Y-72390476D01*
X143642857Y-72366666D01*
X143761904Y-72366666D01*
X143809523Y-72390476D01*
X143833333Y-72414285D01*
X143857142Y-72461904D01*
X143857142Y-72580952D01*
X143833333Y-72628571D01*
X143809523Y-72652380D01*
X143761904Y-72676190D01*
X143642857Y-72676190D01*
X143595238Y-72652380D01*
X143571428Y-72628571D01*
X145595238Y-72676190D02*
X145595238Y-72176190D01*
X145714285Y-72176190D01*
X145785714Y-72200000D01*
X145833333Y-72247619D01*
X145857142Y-72295238D01*
X145880952Y-72390476D01*
X145880952Y-72461904D01*
X145857142Y-72557142D01*
X145833333Y-72604761D01*
X145785714Y-72652380D01*
X145714285Y-72676190D01*
X145595238Y-72676190D01*
X146309523Y-72176190D02*
X146214285Y-72176190D01*
X146166666Y-72200000D01*
X146142857Y-72223809D01*
X146095238Y-72295238D01*
X146071428Y-72390476D01*
X146071428Y-72580952D01*
X146095238Y-72628571D01*
X146119047Y-72652380D01*
X146166666Y-72676190D01*
X146261904Y-72676190D01*
X146309523Y-72652380D01*
X146333333Y-72628571D01*
X146357142Y-72580952D01*
X146357142Y-72461904D01*
X146333333Y-72414285D01*
X146309523Y-72390476D01*
X146261904Y-72366666D01*
X146166666Y-72366666D01*
X146119047Y-72390476D01*
X146095238Y-72414285D01*
X146071428Y-72461904D01*
X148095238Y-72676190D02*
X148095238Y-72176190D01*
X148214285Y-72176190D01*
X148285714Y-72200000D01*
X148333333Y-72247619D01*
X148357142Y-72295238D01*
X148380952Y-72390476D01*
X148380952Y-72461904D01*
X148357142Y-72557142D01*
X148333333Y-72604761D01*
X148285714Y-72652380D01*
X148214285Y-72676190D01*
X148095238Y-72676190D01*
X148547619Y-72176190D02*
X148880952Y-72176190D01*
X148666666Y-72676190D01*
X150452380Y-72676190D02*
X150214285Y-72676190D01*
X150214285Y-72176190D01*
X150619047Y-72414285D02*
X150785714Y-72414285D01*
X150857142Y-72676190D02*
X150619047Y-72676190D01*
X150619047Y-72176190D01*
X150857142Y-72176190D01*
X151071428Y-72676190D02*
X151071428Y-72176190D01*
X151190476Y-72176190D01*
X151261904Y-72200000D01*
X151309523Y-72247619D01*
X151333333Y-72295238D01*
X151357142Y-72390476D01*
X151357142Y-72461904D01*
X151333333Y-72557142D01*
X151309523Y-72604761D01*
X151261904Y-72652380D01*
X151190476Y-72676190D01*
X151071428Y-72676190D01*
X151571428Y-72485714D02*
X151952380Y-72485714D01*
X151761904Y-72676190D02*
X151761904Y-72295238D01*
X153190476Y-72676190D02*
X152952380Y-72676190D01*
X152952380Y-72176190D01*
X153357142Y-72414285D02*
X153523809Y-72414285D01*
X153595238Y-72676190D02*
X153357142Y-72676190D01*
X153357142Y-72176190D01*
X153595238Y-72176190D01*
X153809523Y-72676190D02*
X153809523Y-72176190D01*
X153928571Y-72176190D01*
X154000000Y-72200000D01*
X154047619Y-72247619D01*
X154071428Y-72295238D01*
X154095238Y-72390476D01*
X154095238Y-72461904D01*
X154071428Y-72557142D01*
X154047619Y-72604761D01*
X154000000Y-72652380D01*
X153928571Y-72676190D01*
X153809523Y-72676190D01*
X154309523Y-72485714D02*
X154690476Y-72485714D01*
D11*
X207678571Y-59557142D02*
X208821428Y-59557142D01*
D13*
X195135714Y-56842857D02*
X195402380Y-56842857D01*
X195516666Y-57261904D02*
X195135714Y-57261904D01*
X195135714Y-56461904D01*
X195516666Y-56461904D01*
X195783333Y-56461904D02*
X196316666Y-57261904D01*
X196316666Y-56461904D02*
X195783333Y-57261904D01*
X196507142Y-56461904D02*
X196964285Y-56461904D01*
X196735714Y-57261904D02*
X196735714Y-56461904D01*
X197040476Y-57338095D02*
X197650000Y-57338095D01*
X197840476Y-57261904D02*
X197840476Y-56461904D01*
X198145238Y-56461904D01*
X198221428Y-56500000D01*
X198259523Y-56538095D01*
X198297619Y-56614285D01*
X198297619Y-56728571D01*
X198259523Y-56804761D01*
X198221428Y-56842857D01*
X198145238Y-56880952D01*
X197840476Y-56880952D01*
X198564285Y-56461904D02*
X198754761Y-57261904D01*
X198907142Y-56690476D01*
X199059523Y-57261904D01*
X199250000Y-56461904D01*
X200011904Y-57261904D02*
X199745238Y-56880952D01*
X199554761Y-57261904D02*
X199554761Y-56461904D01*
X199859523Y-56461904D01*
X199935714Y-56500000D01*
X199973809Y-56538095D01*
X200011904Y-56614285D01*
X200011904Y-56728571D01*
X199973809Y-56804761D01*
X199935714Y-56842857D01*
X199859523Y-56880952D01*
X199554761Y-56880952D01*
X200964285Y-56957142D02*
X201573809Y-56957142D01*
X201269047Y-57261904D02*
X201269047Y-56652380D01*
X201992857Y-57261904D02*
X202145238Y-57261904D01*
X202221428Y-57223809D01*
X202259523Y-57185714D01*
X202335714Y-57071428D01*
X202373809Y-56919047D01*
X202373809Y-56614285D01*
X202335714Y-56538095D01*
X202297619Y-56500000D01*
X202221428Y-56461904D01*
X202069047Y-56461904D01*
X201992857Y-56500000D01*
X201954761Y-56538095D01*
X201916666Y-56614285D01*
X201916666Y-56804761D01*
X201954761Y-56880952D01*
X201992857Y-56919047D01*
X202069047Y-56957142D01*
X202221428Y-56957142D01*
X202297619Y-56919047D01*
X202335714Y-56880952D01*
X202373809Y-56804761D01*
X202716666Y-56957142D02*
X203326190Y-56957142D01*
X204126190Y-57261904D02*
X203669047Y-57261904D01*
X203897619Y-57261904D02*
X203897619Y-56461904D01*
X203821428Y-56576190D01*
X203745238Y-56652380D01*
X203669047Y-56690476D01*
X204430952Y-56538095D02*
X204469047Y-56500000D01*
X204545238Y-56461904D01*
X204735714Y-56461904D01*
X204811904Y-56500000D01*
X204850000Y-56538095D01*
X204888095Y-56614285D01*
X204888095Y-56690476D01*
X204850000Y-56804761D01*
X204392857Y-57261904D01*
X204888095Y-57261904D01*
X205116666Y-56461904D02*
X205383333Y-57261904D01*
X205650000Y-56461904D01*
X205726190Y-57338095D02*
X206335714Y-57338095D01*
X206526190Y-57261904D02*
X206526190Y-56461904D01*
X206907142Y-57261904D02*
X206907142Y-56461904D01*
X207364285Y-57261904D01*
X207364285Y-56461904D01*
D11*
X207628571Y-65707142D02*
X208771428Y-65707142D01*
X208200000Y-66278571D02*
X208200000Y-65135714D01*
D10*
X165199071Y-78028571D02*
X165532404Y-78028571D01*
X165675261Y-78552380D02*
X165199071Y-78552380D01*
X165199071Y-77552380D01*
X165675261Y-77552380D01*
X166008595Y-77552380D02*
X166675261Y-78552380D01*
X166675261Y-77552380D02*
X166008595Y-78552380D01*
X166913357Y-77552380D02*
X167484785Y-77552380D01*
X167199071Y-78552380D02*
X167199071Y-77552380D01*
X161778571Y-77552380D02*
X162350000Y-77552380D01*
X162064285Y-78552380D02*
X162064285Y-77552380D01*
X162540476Y-77552380D02*
X163111904Y-77552380D01*
X162826190Y-78552380D02*
X162826190Y-77552380D01*
X163921428Y-78552380D02*
X163445238Y-78552380D01*
X163445238Y-77552380D01*
X167651428Y-76654547D02*
X167651428Y-77130738D01*
X164794285Y-77130738D01*
X164794285Y-76654547D01*
X164349428Y-76654547D02*
X164349428Y-77130738D01*
X161492285Y-77130738D01*
X161492285Y-76654547D01*
X161052380Y-73052380D02*
X161052380Y-72052380D01*
X161433333Y-72052380D01*
X161528571Y-72100000D01*
X161576190Y-72147619D01*
X161623809Y-72242857D01*
X161623809Y-72385714D01*
X161576190Y-72480952D01*
X161528571Y-72528571D01*
X161433333Y-72576190D01*
X161052380Y-72576190D01*
X161957142Y-72052380D02*
X162195238Y-73052380D01*
X162385714Y-72338095D01*
X162576190Y-73052380D01*
X162814285Y-72052380D01*
X163766666Y-73052380D02*
X163433333Y-72576190D01*
X163195238Y-73052380D02*
X163195238Y-72052380D01*
X163576190Y-72052380D01*
X163671428Y-72100000D01*
X163719047Y-72147619D01*
X163766666Y-72242857D01*
X163766666Y-72385714D01*
X163719047Y-72480952D01*
X163671428Y-72528571D01*
X163576190Y-72576190D01*
X163195238Y-72576190D01*
X163957142Y-73147619D02*
X164719047Y-73147619D01*
X164909523Y-73004761D02*
X165052380Y-73052380D01*
X165290476Y-73052380D01*
X165385714Y-73004761D01*
X165433333Y-72957142D01*
X165480952Y-72861904D01*
X165480952Y-72766666D01*
X165433333Y-72671428D01*
X165385714Y-72623809D01*
X165290476Y-72576190D01*
X165100000Y-72528571D01*
X165004761Y-72480952D01*
X164957142Y-72433333D01*
X164909523Y-72338095D01*
X164909523Y-72242857D01*
X164957142Y-72147619D01*
X165004761Y-72100000D01*
X165100000Y-72052380D01*
X165338095Y-72052380D01*
X165480952Y-72100000D01*
X165909523Y-72528571D02*
X166242857Y-72528571D01*
X166385714Y-73052380D02*
X165909523Y-73052380D01*
X165909523Y-72052380D01*
X166385714Y-72052380D01*
X167290476Y-73052380D02*
X166814285Y-73052380D01*
X166814285Y-72052380D01*
X108811904Y-118376190D02*
X108811904Y-118852380D01*
X108478571Y-117852380D02*
X108811904Y-118376190D01*
X109145238Y-117852380D01*
X109430952Y-118566666D02*
X109907142Y-118566666D01*
X109335714Y-118852380D02*
X109669047Y-117852380D01*
X110002380Y-118852380D01*
X110288095Y-118566666D02*
X110764285Y-118566666D01*
X110192857Y-118852380D02*
X110526190Y-117852380D01*
X110859523Y-118852380D01*
X111764285Y-118757142D02*
X111716666Y-118804761D01*
X111573809Y-118852380D01*
X111478571Y-118852380D01*
X111335714Y-118804761D01*
X111240476Y-118709523D01*
X111192857Y-118614285D01*
X111145238Y-118423809D01*
X111145238Y-118280952D01*
X111192857Y-118090476D01*
X111240476Y-117995238D01*
X111335714Y-117900000D01*
X111478571Y-117852380D01*
X111573809Y-117852380D01*
X111716666Y-117900000D01*
X111764285Y-117947619D01*
X112097619Y-117852380D02*
X112335714Y-118852380D01*
X112526190Y-118138095D01*
X112716666Y-118852380D01*
X112954761Y-117852380D01*
X113335714Y-118852380D02*
X113335714Y-117852380D01*
X113907142Y-118852380D02*
X113478571Y-118280952D01*
X113907142Y-117852380D02*
X113335714Y-118423809D01*
X114954761Y-117852380D02*
X115288095Y-118852380D01*
X115621428Y-117852380D01*
X116478571Y-118852380D02*
X115907142Y-118852380D01*
X116192857Y-118852380D02*
X116192857Y-117852380D01*
X116097619Y-117995238D01*
X116002380Y-118090476D01*
X115907142Y-118138095D01*
X116907142Y-118757142D02*
X116954761Y-118804761D01*
X116907142Y-118852380D01*
X116859523Y-118804761D01*
X116907142Y-118757142D01*
X116907142Y-118852380D01*
X117288095Y-117852380D02*
X117907142Y-117852380D01*
X117573809Y-118233333D01*
X117716666Y-118233333D01*
X117811904Y-118280952D01*
X117859523Y-118328571D01*
X117907142Y-118423809D01*
X117907142Y-118661904D01*
X117859523Y-118757142D01*
X117811904Y-118804761D01*
X117716666Y-118852380D01*
X117430952Y-118852380D01*
X117335714Y-118804761D01*
X117288095Y-118757142D01*
X119097619Y-118471428D02*
X119859523Y-118471428D01*
X121097619Y-118852380D02*
X121097619Y-117852380D01*
X121478571Y-117852380D02*
X122145238Y-117852380D01*
X121478571Y-118852380D01*
X122145238Y-118852380D01*
X123050000Y-118852380D02*
X122478571Y-118852380D01*
X122764285Y-118852380D02*
X122764285Y-117852380D01*
X122669047Y-117995238D01*
X122573809Y-118090476D01*
X122478571Y-118138095D01*
X124002380Y-117900000D02*
X123907142Y-117852380D01*
X123764285Y-117852380D01*
X123621428Y-117900000D01*
X123526190Y-117995238D01*
X123478571Y-118090476D01*
X123430952Y-118280952D01*
X123430952Y-118423809D01*
X123478571Y-118614285D01*
X123526190Y-118709523D01*
X123621428Y-118804761D01*
X123764285Y-118852380D01*
X123859523Y-118852380D01*
X124002380Y-118804761D01*
X124050000Y-118757142D01*
X124050000Y-118423809D01*
X123859523Y-118423809D01*
X124954761Y-118852380D02*
X124478571Y-118852380D01*
X124478571Y-117852380D01*
X125811904Y-117900000D02*
X125716666Y-117852380D01*
X125573809Y-117852380D01*
X125430952Y-117900000D01*
X125335714Y-117995238D01*
X125288095Y-118090476D01*
X125240476Y-118280952D01*
X125240476Y-118423809D01*
X125288095Y-118614285D01*
X125335714Y-118709523D01*
X125430952Y-118804761D01*
X125573809Y-118852380D01*
X125669047Y-118852380D01*
X125811904Y-118804761D01*
X125859523Y-118757142D01*
X125859523Y-118423809D01*
X125669047Y-118423809D01*
X127050000Y-118471428D02*
X127811904Y-118471428D01*
X129050000Y-118852380D02*
X129050000Y-117852380D01*
X130050000Y-118852380D02*
X129478571Y-118852380D01*
X129764285Y-118852380D02*
X129764285Y-117852380D01*
X129669047Y-117995238D01*
X129573809Y-118090476D01*
X129478571Y-118138095D01*
X131050000Y-118757142D02*
X131002380Y-118804761D01*
X130859523Y-118852380D01*
X130764285Y-118852380D01*
X130621428Y-118804761D01*
X130526190Y-118709523D01*
X130478571Y-118614285D01*
X130430952Y-118423809D01*
X130430952Y-118280952D01*
X130478571Y-118090476D01*
X130526190Y-117995238D01*
X130621428Y-117900000D01*
X130764285Y-117852380D01*
X130859523Y-117852380D01*
X131002380Y-117900000D01*
X131050000Y-117947619D01*
X132050000Y-118852380D02*
X131716666Y-118376190D01*
X131478571Y-118852380D02*
X131478571Y-117852380D01*
X131859523Y-117852380D01*
X131954761Y-117900000D01*
X132002380Y-117947619D01*
X132050000Y-118042857D01*
X132050000Y-118185714D01*
X132002380Y-118280952D01*
X131954761Y-118328571D01*
X131859523Y-118376190D01*
X131478571Y-118376190D01*
X132430952Y-118566666D02*
X132907142Y-118566666D01*
X132335714Y-118852380D02*
X132669047Y-117852380D01*
X133002380Y-118852380D01*
X167621428Y-118852380D02*
X167621428Y-117852380D01*
X168050000Y-118852380D02*
X168050000Y-118328571D01*
X168002380Y-118233333D01*
X167907142Y-118185714D01*
X167764285Y-118185714D01*
X167669047Y-118233333D01*
X167621428Y-118280952D01*
X168383333Y-118185714D02*
X168764285Y-118185714D01*
X168526190Y-117852380D02*
X168526190Y-118709523D01*
X168573809Y-118804761D01*
X168669047Y-118852380D01*
X168764285Y-118852380D01*
X168954761Y-118185714D02*
X169335714Y-118185714D01*
X169097619Y-117852380D02*
X169097619Y-118709523D01*
X169145238Y-118804761D01*
X169240476Y-118852380D01*
X169335714Y-118852380D01*
X169669047Y-118185714D02*
X169669047Y-119185714D01*
X169669047Y-118233333D02*
X169764285Y-118185714D01*
X169954761Y-118185714D01*
X170050000Y-118233333D01*
X170097619Y-118280952D01*
X170145238Y-118376190D01*
X170145238Y-118661904D01*
X170097619Y-118757142D01*
X170050000Y-118804761D01*
X169954761Y-118852380D01*
X169764285Y-118852380D01*
X169669047Y-118804761D01*
X170573809Y-118757142D02*
X170621428Y-118804761D01*
X170573809Y-118852380D01*
X170526190Y-118804761D01*
X170573809Y-118757142D01*
X170573809Y-118852380D01*
X170573809Y-118233333D02*
X170621428Y-118280952D01*
X170573809Y-118328571D01*
X170526190Y-118280952D01*
X170573809Y-118233333D01*
X170573809Y-118328571D01*
X171764285Y-117804761D02*
X170907142Y-119090476D01*
X172811904Y-117804761D02*
X171954761Y-119090476D01*
X173145238Y-118852380D02*
X173145238Y-118185714D01*
X173145238Y-117852380D02*
X173097619Y-117900000D01*
X173145238Y-117947619D01*
X173192857Y-117900000D01*
X173145238Y-117852380D01*
X173145238Y-117947619D01*
X174145238Y-118852380D02*
X173573809Y-118852380D01*
X173859523Y-118852380D02*
X173859523Y-117852380D01*
X173764285Y-117995238D01*
X173669047Y-118090476D01*
X173573809Y-118138095D01*
X175002380Y-118804761D02*
X174907142Y-118852380D01*
X174716666Y-118852380D01*
X174621428Y-118804761D01*
X174573809Y-118757142D01*
X174526190Y-118661904D01*
X174526190Y-118376190D01*
X174573809Y-118280952D01*
X174621428Y-118233333D01*
X174716666Y-118185714D01*
X174907142Y-118185714D01*
X175002380Y-118233333D01*
X175430952Y-118852380D02*
X175430952Y-118185714D01*
X175430952Y-118376190D02*
X175478571Y-118280952D01*
X175526190Y-118233333D01*
X175621428Y-118185714D01*
X175716666Y-118185714D01*
X176478571Y-118852380D02*
X176478571Y-118328571D01*
X176430952Y-118233333D01*
X176335714Y-118185714D01*
X176145238Y-118185714D01*
X176050000Y-118233333D01*
X176478571Y-118804761D02*
X176383333Y-118852380D01*
X176145238Y-118852380D01*
X176050000Y-118804761D01*
X176002380Y-118709523D01*
X176002380Y-118614285D01*
X176050000Y-118519047D01*
X176145238Y-118471428D01*
X176383333Y-118471428D01*
X176478571Y-118423809D01*
X176954761Y-118757142D02*
X177002380Y-118804761D01*
X176954761Y-118852380D01*
X176907142Y-118804761D01*
X176954761Y-118757142D01*
X176954761Y-118852380D01*
X177430952Y-118852380D02*
X177430952Y-117852380D01*
X177430952Y-118233333D02*
X177526190Y-118185714D01*
X177716666Y-118185714D01*
X177811904Y-118233333D01*
X177859523Y-118280952D01*
X177907142Y-118376190D01*
X177907142Y-118661904D01*
X177859523Y-118757142D01*
X177811904Y-118804761D01*
X177716666Y-118852380D01*
X177526190Y-118852380D01*
X177430952Y-118804761D01*
X178335714Y-118852380D02*
X178335714Y-118185714D01*
X178335714Y-118376190D02*
X178383333Y-118280952D01*
X178430952Y-118233333D01*
X178526190Y-118185714D01*
X178621428Y-118185714D01*
X178954761Y-118852380D02*
X178954761Y-118185714D01*
X178954761Y-117852380D02*
X178907142Y-117900000D01*
X178954761Y-117947619D01*
X179002380Y-117900000D01*
X178954761Y-117852380D01*
X178954761Y-117947619D01*
X179859523Y-118852380D02*
X179859523Y-118328571D01*
X179811904Y-118233333D01*
X179716666Y-118185714D01*
X179526190Y-118185714D01*
X179430952Y-118233333D01*
X179859523Y-118804761D02*
X179764285Y-118852380D01*
X179526190Y-118852380D01*
X179430952Y-118804761D01*
X179383333Y-118709523D01*
X179383333Y-118614285D01*
X179430952Y-118519047D01*
X179526190Y-118471428D01*
X179764285Y-118471428D01*
X179859523Y-118423809D01*
X180192857Y-118185714D02*
X180573809Y-118185714D01*
X180335714Y-117852380D02*
X180335714Y-118709523D01*
X180383333Y-118804761D01*
X180478571Y-118852380D01*
X180573809Y-118852380D01*
X181335714Y-118852380D02*
X181335714Y-118328571D01*
X181288095Y-118233333D01*
X181192857Y-118185714D01*
X181002380Y-118185714D01*
X180907142Y-118233333D01*
X181335714Y-118804761D02*
X181240476Y-118852380D01*
X181002380Y-118852380D01*
X180907142Y-118804761D01*
X180859523Y-118709523D01*
X180859523Y-118614285D01*
X180907142Y-118519047D01*
X181002380Y-118471428D01*
X181240476Y-118471428D01*
X181335714Y-118423809D01*
X181811904Y-118757142D02*
X181859523Y-118804761D01*
X181811904Y-118852380D01*
X181764285Y-118804761D01*
X181811904Y-118757142D01*
X181811904Y-118852380D01*
X182430952Y-118852380D02*
X182335714Y-118804761D01*
X182288095Y-118757142D01*
X182240476Y-118661904D01*
X182240476Y-118376190D01*
X182288095Y-118280952D01*
X182335714Y-118233333D01*
X182430952Y-118185714D01*
X182573809Y-118185714D01*
X182669047Y-118233333D01*
X182716666Y-118280952D01*
X182764285Y-118376190D01*
X182764285Y-118661904D01*
X182716666Y-118757142D01*
X182669047Y-118804761D01*
X182573809Y-118852380D01*
X182430952Y-118852380D01*
X183192857Y-118852380D02*
X183192857Y-118185714D01*
X183192857Y-118376190D02*
X183240476Y-118280952D01*
X183288095Y-118233333D01*
X183383333Y-118185714D01*
X183478571Y-118185714D01*
X184240476Y-118185714D02*
X184240476Y-118995238D01*
X184192857Y-119090476D01*
X184145238Y-119138095D01*
X184050000Y-119185714D01*
X183907142Y-119185714D01*
X183811904Y-119138095D01*
X184240476Y-118804761D02*
X184145238Y-118852380D01*
X183954761Y-118852380D01*
X183859523Y-118804761D01*
X183811904Y-118757142D01*
X183764285Y-118661904D01*
X183764285Y-118376190D01*
X183811904Y-118280952D01*
X183859523Y-118233333D01*
X183954761Y-118185714D01*
X184145238Y-118185714D01*
X184240476Y-118233333D01*
X185430952Y-117804761D02*
X184573809Y-119090476D01*
X185669047Y-118185714D02*
X185907142Y-118852380D01*
X186145238Y-118185714D02*
X185907142Y-118852380D01*
X185811904Y-119090476D01*
X185764285Y-119138095D01*
X185669047Y-119185714D01*
X186954761Y-118852380D02*
X186954761Y-118328571D01*
X186907142Y-118233333D01*
X186811904Y-118185714D01*
X186621428Y-118185714D01*
X186526190Y-118233333D01*
X186954761Y-118804761D02*
X186859523Y-118852380D01*
X186621428Y-118852380D01*
X186526190Y-118804761D01*
X186478571Y-118709523D01*
X186478571Y-118614285D01*
X186526190Y-118519047D01*
X186621428Y-118471428D01*
X186859523Y-118471428D01*
X186954761Y-118423809D01*
X187859523Y-118852380D02*
X187859523Y-118328571D01*
X187811904Y-118233333D01*
X187716666Y-118185714D01*
X187526190Y-118185714D01*
X187430952Y-118233333D01*
X187859523Y-118804761D02*
X187764285Y-118852380D01*
X187526190Y-118852380D01*
X187430952Y-118804761D01*
X187383333Y-118709523D01*
X187383333Y-118614285D01*
X187430952Y-118519047D01*
X187526190Y-118471428D01*
X187764285Y-118471428D01*
X187859523Y-118423809D01*
X188764285Y-118804761D02*
X188669047Y-118852380D01*
X188478571Y-118852380D01*
X188383333Y-118804761D01*
X188335714Y-118757142D01*
X188288095Y-118661904D01*
X188288095Y-118376190D01*
X188335714Y-118280952D01*
X188383333Y-118233333D01*
X188478571Y-118185714D01*
X188669047Y-118185714D01*
X188764285Y-118233333D01*
X189097619Y-118185714D02*
X189288095Y-118852380D01*
X189478571Y-118376190D01*
X189669047Y-118852380D01*
X189859523Y-118185714D01*
X190240476Y-118852380D02*
X190240476Y-117852380D01*
X190335714Y-118471428D02*
X190621428Y-118852380D01*
X190621428Y-118185714D02*
X190240476Y-118566666D01*
X191764285Y-117804761D02*
X190907142Y-119090476D01*
X198764285Y-118757142D02*
X198716666Y-118804761D01*
X198573809Y-118852380D01*
X198478571Y-118852380D01*
X198335714Y-118804761D01*
X198240476Y-118709523D01*
X198192857Y-118614285D01*
X198145238Y-118423809D01*
X198145238Y-118280952D01*
X198192857Y-118090476D01*
X198240476Y-117995238D01*
X198335714Y-117900000D01*
X198478571Y-117852380D01*
X198573809Y-117852380D01*
X198716666Y-117900000D01*
X198764285Y-117947619D01*
X199764285Y-118757142D02*
X199716666Y-118804761D01*
X199573809Y-118852380D01*
X199478571Y-118852380D01*
X199335714Y-118804761D01*
X199240476Y-118709523D01*
X199192857Y-118614285D01*
X199145238Y-118423809D01*
X199145238Y-118280952D01*
X199192857Y-118090476D01*
X199240476Y-117995238D01*
X199335714Y-117900000D01*
X199478571Y-117852380D01*
X199573809Y-117852380D01*
X199716666Y-117900000D01*
X199764285Y-117947619D01*
X200192857Y-118471428D02*
X200954761Y-118471428D01*
X201764285Y-118328571D02*
X201907142Y-118376190D01*
X201954761Y-118423809D01*
X202002380Y-118519047D01*
X202002380Y-118661904D01*
X201954761Y-118757142D01*
X201907142Y-118804761D01*
X201811904Y-118852380D01*
X201430952Y-118852380D01*
X201430952Y-117852380D01*
X201764285Y-117852380D01*
X201859523Y-117900000D01*
X201907142Y-117947619D01*
X201954761Y-118042857D01*
X201954761Y-118138095D01*
X201907142Y-118233333D01*
X201859523Y-118280952D01*
X201764285Y-118328571D01*
X201430952Y-118328571D01*
X202621428Y-118376190D02*
X202621428Y-118852380D01*
X202288095Y-117852380D02*
X202621428Y-118376190D01*
X202954761Y-117852380D01*
X203288095Y-118471428D02*
X204050000Y-118471428D01*
X204478571Y-118804761D02*
X204621428Y-118852380D01*
X204859523Y-118852380D01*
X204954761Y-118804761D01*
X205002380Y-118757142D01*
X205050000Y-118661904D01*
X205050000Y-118566666D01*
X205002380Y-118471428D01*
X204954761Y-118423809D01*
X204859523Y-118376190D01*
X204669047Y-118328571D01*
X204573809Y-118280952D01*
X204526190Y-118233333D01*
X204478571Y-118138095D01*
X204478571Y-118042857D01*
X204526190Y-117947619D01*
X204573809Y-117900000D01*
X204669047Y-117852380D01*
X204907142Y-117852380D01*
X205050000Y-117900000D01*
X205430952Y-118566666D02*
X205907142Y-118566666D01*
X205335714Y-118852380D02*
X205669047Y-117852380D01*
X206002380Y-118852380D01*
X206335714Y-118471428D02*
X207097619Y-118471428D01*
X208002380Y-118185714D02*
X208002380Y-118852380D01*
X207764285Y-117804761D02*
X207526190Y-118519047D01*
X208145238Y-118519047D01*
X208526190Y-118757142D02*
X208573809Y-118804761D01*
X208526190Y-118852380D01*
X208478571Y-118804761D01*
X208526190Y-118757142D01*
X208526190Y-118852380D01*
X209192857Y-117852380D02*
X209288095Y-117852380D01*
X209383333Y-117900000D01*
X209430952Y-117947619D01*
X209478571Y-118042857D01*
X209526190Y-118233333D01*
X209526190Y-118471428D01*
X209478571Y-118661904D01*
X209430952Y-118757142D01*
X209383333Y-118804761D01*
X209288095Y-118852380D01*
X209192857Y-118852380D01*
X209097619Y-118804761D01*
X209050000Y-118757142D01*
X209002380Y-118661904D01*
X208954761Y-118471428D01*
X208954761Y-118233333D01*
X209002380Y-118042857D01*
X209050000Y-117947619D01*
X209097619Y-117900000D01*
X209192857Y-117852380D01*
D14*
G04 #@! TO.C,J12*
X142710000Y-124390000D02*
X142710000Y-123000000D01*
X144100000Y-124390000D02*
X142710000Y-124390000D01*
X145370000Y-121610000D02*
X145370000Y-124390000D01*
X165810000Y-121610000D02*
X145370000Y-121610000D01*
X165810000Y-124390000D02*
X165810000Y-121610000D01*
X145370000Y-124390000D02*
X165810000Y-124390000D01*
G04 #@! TO.C,PS2CONN1*
X155850000Y-68900000D02*
X155850000Y-55900000D01*
X172050000Y-68900000D02*
X172050000Y-55900000D01*
X172050000Y-68900000D02*
X155850000Y-68900000D01*
X172050000Y-55900000D02*
X155850000Y-55900000D01*
D15*
G04 #@! TO.C,HOLE1*
X197358000Y-62992000D02*
G75*
G03X197358000Y-62992000I-2286000J0D01*
G01*
G04 #@! TO.C,BZ1*
X149050760Y-62250000D02*
G75*
G03X149050760Y-62250000I-1000760J0D01*
G01*
X154250140Y-62250000D02*
G75*
G03X154250140Y-62250000I-6200140J0D01*
G01*
D14*
G04 #@! TO.C,D1*
X204907665Y-97428608D02*
G75*
G03X208140000Y-97585516I1672335J1078608D01*
G01*
X204907665Y-95271392D02*
G75*
G02X208140000Y-95114484I1672335J-1078608D01*
G01*
X205538870Y-97429837D02*
G75*
G03X207620961Y-97430000I1041130J1079837D01*
G01*
X205538870Y-95270163D02*
G75*
G02X207620961Y-95270000I1041130J-1079837D01*
G01*
X208140000Y-97586000D02*
X208140000Y-97430000D01*
X208140000Y-95270000D02*
X208140000Y-95114000D01*
G04 #@! TO.C,D2*
X204757665Y-109428608D02*
G75*
G03X207990000Y-109585516I1672335J1078608D01*
G01*
X204757665Y-107271392D02*
G75*
G02X207990000Y-107114484I1672335J-1078608D01*
G01*
X205388870Y-109429837D02*
G75*
G03X207470961Y-109430000I1041130J1079837D01*
G01*
X205388870Y-107270163D02*
G75*
G02X207470961Y-107270000I1041130J-1079837D01*
G01*
X207990000Y-109586000D02*
X207990000Y-109430000D01*
X207990000Y-107270000D02*
X207990000Y-107114000D01*
G04 #@! TO.C,D3*
X204907665Y-103428608D02*
G75*
G03X208140000Y-103585516I1672335J1078608D01*
G01*
X204907665Y-101271392D02*
G75*
G02X208140000Y-101114484I1672335J-1078608D01*
G01*
X205538870Y-103429837D02*
G75*
G03X207620961Y-103430000I1041130J1079837D01*
G01*
X205538870Y-101270163D02*
G75*
G02X207620961Y-101270000I1041130J-1079837D01*
G01*
X208140000Y-103586000D02*
X208140000Y-103430000D01*
X208140000Y-101270000D02*
X208140000Y-101114000D01*
G04 #@! TO.C,IC1*
X133260000Y-92380000D02*
G75*
G02X133260000Y-94380000I0J-1000000D01*
G01*
X133260000Y-94380000D02*
X133260000Y-99960000D01*
X133260000Y-99960000D02*
X184300000Y-99960000D01*
X184300000Y-99960000D02*
X184300000Y-86800000D01*
X184300000Y-86800000D02*
X133260000Y-86800000D01*
X133260000Y-86800000D02*
X133260000Y-92380000D01*
G04 #@! TO.C,IC2*
X194430000Y-93160000D02*
X192660000Y-93160000D01*
X194430000Y-103560000D02*
X194430000Y-93160000D01*
X188890000Y-103560000D02*
X194430000Y-103560000D01*
X188890000Y-93160000D02*
X188890000Y-103560000D01*
X190660000Y-93160000D02*
X188890000Y-93160000D01*
X192660000Y-93160000D02*
G75*
G02X190660000Y-93160000I-1000000J0D01*
G01*
G04 #@! TO.C,L1*
X141420000Y-79790000D02*
X141420000Y-83210000D01*
X141420000Y-83210000D02*
X148540000Y-83210000D01*
X148540000Y-83210000D02*
X148540000Y-79790000D01*
X148540000Y-79790000D02*
X141420000Y-79790000D01*
X140880000Y-81500000D02*
X141420000Y-81500000D01*
X149080000Y-81500000D02*
X148540000Y-81500000D01*
G04 #@! TO.C,L2*
X141220000Y-74340000D02*
X141220000Y-77760000D01*
X141220000Y-77760000D02*
X148340000Y-77760000D01*
X148340000Y-77760000D02*
X148340000Y-74340000D01*
X148340000Y-74340000D02*
X141220000Y-74340000D01*
X140680000Y-76050000D02*
X141220000Y-76050000D01*
X148880000Y-76050000D02*
X148340000Y-76050000D01*
G04 #@! TO.C,R1*
X119220000Y-113810000D02*
X119220000Y-113480000D01*
X112800000Y-113810000D02*
X119220000Y-113810000D01*
X112800000Y-113480000D02*
X112800000Y-113810000D01*
X119220000Y-111190000D02*
X119220000Y-111520000D01*
X112800000Y-111190000D02*
X119220000Y-111190000D01*
X112800000Y-111520000D02*
X112800000Y-111190000D01*
G04 #@! TO.C,R2*
X119370000Y-108610000D02*
X119370000Y-108280000D01*
X112950000Y-108610000D02*
X119370000Y-108610000D01*
X112950000Y-108280000D02*
X112950000Y-108610000D01*
X119370000Y-105990000D02*
X119370000Y-106320000D01*
X112950000Y-105990000D02*
X119370000Y-105990000D01*
X112950000Y-106320000D02*
X112950000Y-105990000D01*
G04 #@! TO.C,R3*
X132520000Y-113960000D02*
X132520000Y-113630000D01*
X126100000Y-113960000D02*
X132520000Y-113960000D01*
X126100000Y-113630000D02*
X126100000Y-113960000D01*
X132520000Y-111340000D02*
X132520000Y-111670000D01*
X126100000Y-111340000D02*
X132520000Y-111340000D01*
X126100000Y-111670000D02*
X126100000Y-111340000D01*
G04 #@! TO.C,R4*
X132470000Y-108960000D02*
X132470000Y-108630000D01*
X126050000Y-108960000D02*
X132470000Y-108960000D01*
X126050000Y-108630000D02*
X126050000Y-108960000D01*
X132470000Y-106340000D02*
X132470000Y-106670000D01*
X126050000Y-106340000D02*
X132470000Y-106340000D01*
X126050000Y-106670000D02*
X126050000Y-106340000D01*
G04 #@! TO.C,R5*
X138300000Y-111520000D02*
X138300000Y-111190000D01*
X138300000Y-111190000D02*
X144720000Y-111190000D01*
X144720000Y-111190000D02*
X144720000Y-111520000D01*
X138300000Y-113480000D02*
X138300000Y-113810000D01*
X138300000Y-113810000D02*
X144720000Y-113810000D01*
X144720000Y-113810000D02*
X144720000Y-113480000D01*
G04 #@! TO.C,R6*
X191820000Y-76550000D02*
X191490000Y-76550000D01*
X191490000Y-76550000D02*
X191490000Y-70130000D01*
X191490000Y-70130000D02*
X191820000Y-70130000D01*
X193780000Y-76550000D02*
X194110000Y-76550000D01*
X194110000Y-76550000D02*
X194110000Y-70130000D01*
X194110000Y-70130000D02*
X193780000Y-70130000D01*
G04 #@! TO.C,R7*
X195050000Y-113130000D02*
X195050000Y-113460000D01*
X195050000Y-113460000D02*
X188630000Y-113460000D01*
X188630000Y-113460000D02*
X188630000Y-113130000D01*
X195050000Y-111170000D02*
X195050000Y-110840000D01*
X195050000Y-110840000D02*
X188630000Y-110840000D01*
X188630000Y-110840000D02*
X188630000Y-111170000D01*
G04 #@! TO.C,R8*
X194110000Y-81980000D02*
X193780000Y-81980000D01*
X194110000Y-88400000D02*
X194110000Y-81980000D01*
X193780000Y-88400000D02*
X194110000Y-88400000D01*
X191490000Y-81980000D02*
X191820000Y-81980000D01*
X191490000Y-88400000D02*
X191490000Y-81980000D01*
X191820000Y-88400000D02*
X191490000Y-88400000D01*
G04 #@! TO.C,R9*
X195250000Y-108380000D02*
X195250000Y-108710000D01*
X195250000Y-108710000D02*
X188830000Y-108710000D01*
X188830000Y-108710000D02*
X188830000Y-108380000D01*
X195250000Y-106420000D02*
X195250000Y-106090000D01*
X195250000Y-106090000D02*
X188830000Y-106090000D01*
X188830000Y-106090000D02*
X188830000Y-106420000D01*
G04 #@! TO.C,R10*
X188780000Y-82000000D02*
X189110000Y-82000000D01*
X189110000Y-82000000D02*
X189110000Y-88420000D01*
X189110000Y-88420000D02*
X188780000Y-88420000D01*
X186820000Y-82000000D02*
X186490000Y-82000000D01*
X186490000Y-82000000D02*
X186490000Y-88420000D01*
X186490000Y-88420000D02*
X186820000Y-88420000D01*
G04 #@! TO.C,R11*
X176900000Y-106420000D02*
X176900000Y-106090000D01*
X176900000Y-106090000D02*
X183320000Y-106090000D01*
X183320000Y-106090000D02*
X183320000Y-106420000D01*
X176900000Y-108380000D02*
X176900000Y-108710000D01*
X176900000Y-108710000D02*
X183320000Y-108710000D01*
X183320000Y-108710000D02*
X183320000Y-108380000D01*
G04 #@! TO.C,R12*
X127000000Y-74520000D02*
X127000000Y-74190000D01*
X127000000Y-74190000D02*
X133420000Y-74190000D01*
X133420000Y-74190000D02*
X133420000Y-74520000D01*
X127000000Y-76480000D02*
X127000000Y-76810000D01*
X127000000Y-76810000D02*
X133420000Y-76810000D01*
X133420000Y-76810000D02*
X133420000Y-76480000D01*
G04 #@! TO.C,R13*
X126900000Y-79120000D02*
X126900000Y-78790000D01*
X126900000Y-78790000D02*
X133320000Y-78790000D01*
X133320000Y-78790000D02*
X133320000Y-79120000D01*
X126900000Y-81080000D02*
X126900000Y-81410000D01*
X126900000Y-81410000D02*
X133320000Y-81410000D01*
X133320000Y-81410000D02*
X133320000Y-81080000D01*
G04 #@! TO.C,Y1*
X163885000Y-103875000D02*
G75*
G02X163885000Y-108925000I0J-2525000D01*
G01*
X157635000Y-103875000D02*
G75*
G03X157635000Y-108925000I0J-2525000D01*
G01*
X163885000Y-108925000D02*
X157635000Y-108925000D01*
X163885000Y-103875000D02*
X157635000Y-103875000D01*
G04 #@! TO.C,D5*
X161850000Y-82310000D02*
X161850000Y-79490000D01*
X161850000Y-79490000D02*
X156530000Y-79490000D01*
X156530000Y-79490000D02*
X156530000Y-82310000D01*
X156530000Y-82310000D02*
X161850000Y-82310000D01*
X161920000Y-80900000D02*
X161850000Y-80900000D01*
X156460000Y-80900000D02*
X156530000Y-80900000D01*
X161010000Y-82310000D02*
X161010000Y-79490000D01*
G04 #@! TO.C,D6*
X182000000Y-69190000D02*
X182000000Y-72010000D01*
X182000000Y-72010000D02*
X187320000Y-72010000D01*
X187320000Y-72010000D02*
X187320000Y-69190000D01*
X187320000Y-69190000D02*
X182000000Y-69190000D01*
X181930000Y-70600000D02*
X182000000Y-70600000D01*
X187390000Y-70600000D02*
X187320000Y-70600000D01*
X182840000Y-69190000D02*
X182840000Y-72010000D01*
G04 #@! TO.C,J6*
X173910000Y-77390000D02*
X173910000Y-76000000D01*
X175300000Y-77390000D02*
X173910000Y-77390000D01*
X176570000Y-74610000D02*
X176570000Y-77390000D01*
X189390000Y-74610000D02*
X176570000Y-74610000D01*
X189390000Y-77390000D02*
X189390000Y-74610000D01*
X176570000Y-77390000D02*
X189390000Y-77390000D01*
G04 #@! TO.C,SW6*
X168930000Y-111210000D02*
X166270000Y-111210000D01*
X166270000Y-111210000D02*
X166270000Y-113990000D01*
X166270000Y-113990000D02*
X168930000Y-113990000D01*
X168930000Y-113990000D02*
X168930000Y-111210000D01*
X170200000Y-111210000D02*
X171590000Y-111210000D01*
X171590000Y-111210000D02*
X171590000Y-112600000D01*
D16*
G04 #@! TO.C,U1*
X102349000Y-71924000D02*
X105778000Y-71924000D01*
X102349000Y-81576000D02*
X105778000Y-81576000D01*
X101206000Y-71416000D02*
X101206000Y-82084000D01*
X102222000Y-74972000D02*
X100952000Y-74972000D01*
X102222000Y-78528000D02*
X100952000Y-78528000D01*
X102349000Y-82084000D02*
X102349000Y-71416000D01*
X105778000Y-71416000D02*
X105778000Y-82084000D01*
X100952000Y-82084000D02*
X105778000Y-82084000D01*
X100952000Y-71416000D02*
X105778000Y-71416000D01*
X100952000Y-71416000D02*
X100952000Y-82084000D01*
D14*
G04 #@! TO.C,J2*
X105104000Y-66530000D02*
X105104000Y-55930000D01*
X105104000Y-67930000D02*
X105104000Y-68030000D01*
X111304000Y-66830000D02*
X111304000Y-68030000D01*
X111304000Y-62830000D02*
X111304000Y-65430000D01*
X111304000Y-59830000D02*
X111304000Y-61430000D01*
X111304000Y-55930000D02*
X111304000Y-58430000D01*
X105104000Y-68030000D02*
X111304000Y-68030000D01*
X111304000Y-55930000D02*
X110704000Y-55930000D01*
X105704000Y-55930000D02*
X105104000Y-55930000D01*
X110704000Y-53930000D02*
X105704000Y-53930000D01*
X110704000Y-55930000D02*
X110704000Y-53930000D01*
X105704000Y-55930000D02*
X105704000Y-53930000D01*
G04 #@! TO.C,LCDPot2*
X113539000Y-93939000D02*
X118460000Y-93939000D01*
X113539000Y-103860000D02*
X118460000Y-103860000D01*
X118460000Y-93939000D02*
X118460000Y-97535000D01*
X118460000Y-100265000D02*
X118460000Y-103860000D01*
X113539000Y-102765000D02*
X113539000Y-103860000D01*
X113539000Y-93939000D02*
X113539000Y-95035000D01*
X113539000Y-97765000D02*
X113539000Y-100035000D01*
X114785000Y-97340000D02*
X118460000Y-97340000D01*
X114785000Y-100461000D02*
X118460000Y-100461000D01*
X113539000Y-97765000D02*
X113539000Y-100035000D01*
X118460000Y-97340000D02*
X118460000Y-97535000D01*
X118460000Y-100265000D02*
X118460000Y-100461000D01*
G04 #@! TO.C,DS1*
X116770000Y-71590000D02*
X154990000Y-71590000D01*
X154990000Y-71590000D02*
X154990000Y-68810000D01*
X154990000Y-68810000D02*
X116770000Y-68810000D01*
X116770000Y-68810000D02*
X116770000Y-71590000D01*
X115500000Y-71590000D02*
X114110000Y-71590000D01*
X114110000Y-71590000D02*
X114110000Y-70200000D01*
G04 #@! TO.C,J7*
X179180000Y-79510000D02*
X166360000Y-79510000D01*
X166360000Y-79510000D02*
X166360000Y-82290000D01*
X166360000Y-82290000D02*
X179180000Y-82290000D01*
X179180000Y-82290000D02*
X179180000Y-79510000D01*
X180450000Y-79510000D02*
X181840000Y-79510000D01*
X181840000Y-79510000D02*
X181840000Y-80900000D01*
G04 #@! TO.C,J9*
X165699000Y-73550000D02*
X160499000Y-73550000D01*
X160499000Y-73550000D02*
X160499000Y-76330000D01*
X160499000Y-76330000D02*
X165699000Y-76330000D01*
X165699000Y-76330000D02*
X165699000Y-73550000D01*
X166969000Y-73550000D02*
X168359000Y-73550000D01*
X168359000Y-73550000D02*
X168359000Y-74940000D01*
D16*
G04 #@! TO.C,U2*
X102349000Y-84674000D02*
X105778000Y-84674000D01*
X102349000Y-94326000D02*
X105778000Y-94326000D01*
X101206000Y-84166000D02*
X101206000Y-94834000D01*
X102222000Y-87722000D02*
X100952000Y-87722000D01*
X102222000Y-91278000D02*
X100952000Y-91278000D01*
X102349000Y-94834000D02*
X102349000Y-84166000D01*
X105778000Y-84166000D02*
X105778000Y-94834000D01*
X100952000Y-94834000D02*
X105778000Y-94834000D01*
X100952000Y-84166000D02*
X105778000Y-84166000D01*
X100952000Y-84166000D02*
X100952000Y-94834000D01*
D14*
G04 #@! TO.C,J1*
X200550000Y-61100000D02*
X200550000Y-52300000D01*
X200550000Y-52300000D02*
X209750000Y-52300000D01*
X203250000Y-67000000D02*
X200550000Y-67000000D01*
X200550000Y-67000000D02*
X200550000Y-65100000D01*
X209750000Y-52300000D02*
X209750000Y-67000000D01*
X209750000Y-67000000D02*
X207150000Y-67000000D01*
G04 #@! TO.C,C14*
X130590000Y-62600000D02*
G75*
G03X130590000Y-62600000I-4090000J0D01*
G01*
X122450000Y-62600000D02*
X130550000Y-62600000D01*
X122450000Y-62560000D02*
X130550000Y-62560000D01*
X122450000Y-62520000D02*
X130550000Y-62520000D01*
X122451000Y-62480000D02*
X130549000Y-62480000D01*
X122453000Y-62440000D02*
X130547000Y-62440000D01*
X122454000Y-62400000D02*
X130546000Y-62400000D01*
X122457000Y-62360000D02*
X130543000Y-62360000D01*
X122459000Y-62320000D02*
X130541000Y-62320000D01*
X122462000Y-62280000D02*
X130538000Y-62280000D01*
X122465000Y-62240000D02*
X130535000Y-62240000D01*
X122469000Y-62200000D02*
X130531000Y-62200000D01*
X122473000Y-62160000D02*
X130527000Y-62160000D01*
X122478000Y-62120000D02*
X130522000Y-62120000D01*
X122483000Y-62080000D02*
X130517000Y-62080000D01*
X122488000Y-62040000D02*
X130512000Y-62040000D01*
X122494000Y-62000000D02*
X130506000Y-62000000D01*
X122500000Y-61960000D02*
X130500000Y-61960000D01*
X122506000Y-61920000D02*
X130494000Y-61920000D01*
X122513000Y-61879000D02*
X130487000Y-61879000D01*
X122521000Y-61839000D02*
X130479000Y-61839000D01*
X122529000Y-61799000D02*
X130471000Y-61799000D01*
X122537000Y-61759000D02*
X130463000Y-61759000D01*
X122545000Y-61719000D02*
X130455000Y-61719000D01*
X122554000Y-61679000D02*
X125520000Y-61679000D01*
X127480000Y-61679000D02*
X130446000Y-61679000D01*
X122564000Y-61639000D02*
X125520000Y-61639000D01*
X127480000Y-61639000D02*
X130436000Y-61639000D01*
X122574000Y-61599000D02*
X125520000Y-61599000D01*
X127480000Y-61599000D02*
X130426000Y-61599000D01*
X122584000Y-61559000D02*
X125520000Y-61559000D01*
X127480000Y-61559000D02*
X130416000Y-61559000D01*
X122595000Y-61519000D02*
X125520000Y-61519000D01*
X127480000Y-61519000D02*
X130405000Y-61519000D01*
X122606000Y-61479000D02*
X125520000Y-61479000D01*
X127480000Y-61479000D02*
X130394000Y-61479000D01*
X122617000Y-61439000D02*
X125520000Y-61439000D01*
X127480000Y-61439000D02*
X130383000Y-61439000D01*
X122630000Y-61399000D02*
X125520000Y-61399000D01*
X127480000Y-61399000D02*
X130370000Y-61399000D01*
X122642000Y-61359000D02*
X125520000Y-61359000D01*
X127480000Y-61359000D02*
X130358000Y-61359000D01*
X122655000Y-61319000D02*
X125520000Y-61319000D01*
X127480000Y-61319000D02*
X130345000Y-61319000D01*
X122668000Y-61279000D02*
X125520000Y-61279000D01*
X127480000Y-61279000D02*
X130332000Y-61279000D01*
X122682000Y-61239000D02*
X125520000Y-61239000D01*
X127480000Y-61239000D02*
X130318000Y-61239000D01*
X122697000Y-61199000D02*
X125520000Y-61199000D01*
X127480000Y-61199000D02*
X130303000Y-61199000D01*
X122711000Y-61159000D02*
X125520000Y-61159000D01*
X127480000Y-61159000D02*
X130289000Y-61159000D01*
X122727000Y-61119000D02*
X125520000Y-61119000D01*
X127480000Y-61119000D02*
X130273000Y-61119000D01*
X122742000Y-61079000D02*
X125520000Y-61079000D01*
X127480000Y-61079000D02*
X130258000Y-61079000D01*
X122759000Y-61039000D02*
X125520000Y-61039000D01*
X127480000Y-61039000D02*
X130241000Y-61039000D01*
X122775000Y-60999000D02*
X125520000Y-60999000D01*
X127480000Y-60999000D02*
X130225000Y-60999000D01*
X122793000Y-60959000D02*
X125520000Y-60959000D01*
X127480000Y-60959000D02*
X130207000Y-60959000D01*
X122810000Y-60919000D02*
X125520000Y-60919000D01*
X127480000Y-60919000D02*
X130190000Y-60919000D01*
X122829000Y-60879000D02*
X125520000Y-60879000D01*
X127480000Y-60879000D02*
X130171000Y-60879000D01*
X122848000Y-60839000D02*
X125520000Y-60839000D01*
X127480000Y-60839000D02*
X130152000Y-60839000D01*
X122867000Y-60799000D02*
X125520000Y-60799000D01*
X127480000Y-60799000D02*
X130133000Y-60799000D01*
X122887000Y-60759000D02*
X125520000Y-60759000D01*
X127480000Y-60759000D02*
X130113000Y-60759000D01*
X122907000Y-60719000D02*
X125520000Y-60719000D01*
X127480000Y-60719000D02*
X130093000Y-60719000D01*
X122928000Y-60679000D02*
X125520000Y-60679000D01*
X127480000Y-60679000D02*
X130072000Y-60679000D01*
X122950000Y-60639000D02*
X125520000Y-60639000D01*
X127480000Y-60639000D02*
X130050000Y-60639000D01*
X122972000Y-60599000D02*
X125520000Y-60599000D01*
X127480000Y-60599000D02*
X130028000Y-60599000D01*
X122995000Y-60559000D02*
X125520000Y-60559000D01*
X127480000Y-60559000D02*
X130005000Y-60559000D01*
X123018000Y-60519000D02*
X125520000Y-60519000D01*
X127480000Y-60519000D02*
X129982000Y-60519000D01*
X123042000Y-60479000D02*
X125520000Y-60479000D01*
X127480000Y-60479000D02*
X129958000Y-60479000D01*
X123066000Y-60439000D02*
X125520000Y-60439000D01*
X127480000Y-60439000D02*
X129934000Y-60439000D01*
X123092000Y-60399000D02*
X125520000Y-60399000D01*
X127480000Y-60399000D02*
X129908000Y-60399000D01*
X123117000Y-60359000D02*
X125520000Y-60359000D01*
X127480000Y-60359000D02*
X129883000Y-60359000D01*
X123144000Y-60319000D02*
X125520000Y-60319000D01*
X127480000Y-60319000D02*
X129856000Y-60319000D01*
X123171000Y-60279000D02*
X125520000Y-60279000D01*
X127480000Y-60279000D02*
X129829000Y-60279000D01*
X123199000Y-60239000D02*
X125520000Y-60239000D01*
X127480000Y-60239000D02*
X129801000Y-60239000D01*
X123228000Y-60199000D02*
X125520000Y-60199000D01*
X127480000Y-60199000D02*
X129772000Y-60199000D01*
X123257000Y-60159000D02*
X125520000Y-60159000D01*
X127480000Y-60159000D02*
X129743000Y-60159000D01*
X123287000Y-60119000D02*
X125520000Y-60119000D01*
X127480000Y-60119000D02*
X129713000Y-60119000D01*
X123318000Y-60079000D02*
X125520000Y-60079000D01*
X127480000Y-60079000D02*
X129682000Y-60079000D01*
X123350000Y-60039000D02*
X125520000Y-60039000D01*
X127480000Y-60039000D02*
X129650000Y-60039000D01*
X123382000Y-59999000D02*
X125520000Y-59999000D01*
X127480000Y-59999000D02*
X129618000Y-59999000D01*
X123416000Y-59959000D02*
X125520000Y-59959000D01*
X127480000Y-59959000D02*
X129584000Y-59959000D01*
X123450000Y-59919000D02*
X125520000Y-59919000D01*
X127480000Y-59919000D02*
X129550000Y-59919000D01*
X123485000Y-59879000D02*
X125520000Y-59879000D01*
X127480000Y-59879000D02*
X129515000Y-59879000D01*
X123521000Y-59839000D02*
X125520000Y-59839000D01*
X127480000Y-59839000D02*
X129479000Y-59839000D01*
X123558000Y-59799000D02*
X125520000Y-59799000D01*
X127480000Y-59799000D02*
X129442000Y-59799000D01*
X123596000Y-59759000D02*
X125520000Y-59759000D01*
X127480000Y-59759000D02*
X129404000Y-59759000D01*
X123635000Y-59719000D02*
X129365000Y-59719000D01*
X123676000Y-59679000D02*
X129324000Y-59679000D01*
X123717000Y-59639000D02*
X129283000Y-59639000D01*
X123760000Y-59599000D02*
X129240000Y-59599000D01*
X123803000Y-59559000D02*
X129197000Y-59559000D01*
X123848000Y-59519000D02*
X129152000Y-59519000D01*
X123895000Y-59479000D02*
X129105000Y-59479000D01*
X123943000Y-59439000D02*
X129057000Y-59439000D01*
X123992000Y-59399000D02*
X129008000Y-59399000D01*
X124043000Y-59359000D02*
X128957000Y-59359000D01*
X124096000Y-59319000D02*
X128904000Y-59319000D01*
X124151000Y-59279000D02*
X128849000Y-59279000D01*
X124207000Y-59239000D02*
X128793000Y-59239000D01*
X124266000Y-59199000D02*
X128734000Y-59199000D01*
X124327000Y-59159000D02*
X128673000Y-59159000D01*
X124391000Y-59119000D02*
X128609000Y-59119000D01*
X124457000Y-59079000D02*
X128543000Y-59079000D01*
X124526000Y-59039000D02*
X128474000Y-59039000D01*
X124598000Y-58999000D02*
X128402000Y-58999000D01*
X124674000Y-58959000D02*
X128326000Y-58959000D01*
X124755000Y-58919000D02*
X128245000Y-58919000D01*
X124840000Y-58879000D02*
X128160000Y-58879000D01*
X124930000Y-58839000D02*
X128070000Y-58839000D01*
X125027000Y-58799000D02*
X127973000Y-58799000D01*
X125131000Y-58759000D02*
X127869000Y-58759000D01*
X125246000Y-58719000D02*
X127754000Y-58719000D01*
X125373000Y-58679000D02*
X127627000Y-58679000D01*
X125517000Y-58639000D02*
X127483000Y-58639000D01*
X125686000Y-58599000D02*
X127314000Y-58599000D01*
X125902000Y-58559000D02*
X127098000Y-58559000D01*
X126254000Y-58519000D02*
X126746000Y-58519000D01*
X126500000Y-66700000D02*
X126500000Y-65500000D01*
X125850000Y-66100000D02*
X127150000Y-66100000D01*
G04 #@! TO.C,C16*
X140590000Y-62600000D02*
G75*
G03X140590000Y-62600000I-4090000J0D01*
G01*
X132450000Y-62600000D02*
X140550000Y-62600000D01*
X132450000Y-62560000D02*
X140550000Y-62560000D01*
X132450000Y-62520000D02*
X140550000Y-62520000D01*
X132451000Y-62480000D02*
X140549000Y-62480000D01*
X132453000Y-62440000D02*
X140547000Y-62440000D01*
X132454000Y-62400000D02*
X140546000Y-62400000D01*
X132457000Y-62360000D02*
X140543000Y-62360000D01*
X132459000Y-62320000D02*
X140541000Y-62320000D01*
X132462000Y-62280000D02*
X140538000Y-62280000D01*
X132465000Y-62240000D02*
X140535000Y-62240000D01*
X132469000Y-62200000D02*
X140531000Y-62200000D01*
X132473000Y-62160000D02*
X140527000Y-62160000D01*
X132478000Y-62120000D02*
X140522000Y-62120000D01*
X132483000Y-62080000D02*
X140517000Y-62080000D01*
X132488000Y-62040000D02*
X140512000Y-62040000D01*
X132494000Y-62000000D02*
X140506000Y-62000000D01*
X132500000Y-61960000D02*
X140500000Y-61960000D01*
X132506000Y-61920000D02*
X140494000Y-61920000D01*
X132513000Y-61879000D02*
X140487000Y-61879000D01*
X132521000Y-61839000D02*
X140479000Y-61839000D01*
X132529000Y-61799000D02*
X140471000Y-61799000D01*
X132537000Y-61759000D02*
X140463000Y-61759000D01*
X132545000Y-61719000D02*
X140455000Y-61719000D01*
X132554000Y-61679000D02*
X135520000Y-61679000D01*
X137480000Y-61679000D02*
X140446000Y-61679000D01*
X132564000Y-61639000D02*
X135520000Y-61639000D01*
X137480000Y-61639000D02*
X140436000Y-61639000D01*
X132574000Y-61599000D02*
X135520000Y-61599000D01*
X137480000Y-61599000D02*
X140426000Y-61599000D01*
X132584000Y-61559000D02*
X135520000Y-61559000D01*
X137480000Y-61559000D02*
X140416000Y-61559000D01*
X132595000Y-61519000D02*
X135520000Y-61519000D01*
X137480000Y-61519000D02*
X140405000Y-61519000D01*
X132606000Y-61479000D02*
X135520000Y-61479000D01*
X137480000Y-61479000D02*
X140394000Y-61479000D01*
X132617000Y-61439000D02*
X135520000Y-61439000D01*
X137480000Y-61439000D02*
X140383000Y-61439000D01*
X132630000Y-61399000D02*
X135520000Y-61399000D01*
X137480000Y-61399000D02*
X140370000Y-61399000D01*
X132642000Y-61359000D02*
X135520000Y-61359000D01*
X137480000Y-61359000D02*
X140358000Y-61359000D01*
X132655000Y-61319000D02*
X135520000Y-61319000D01*
X137480000Y-61319000D02*
X140345000Y-61319000D01*
X132668000Y-61279000D02*
X135520000Y-61279000D01*
X137480000Y-61279000D02*
X140332000Y-61279000D01*
X132682000Y-61239000D02*
X135520000Y-61239000D01*
X137480000Y-61239000D02*
X140318000Y-61239000D01*
X132697000Y-61199000D02*
X135520000Y-61199000D01*
X137480000Y-61199000D02*
X140303000Y-61199000D01*
X132711000Y-61159000D02*
X135520000Y-61159000D01*
X137480000Y-61159000D02*
X140289000Y-61159000D01*
X132727000Y-61119000D02*
X135520000Y-61119000D01*
X137480000Y-61119000D02*
X140273000Y-61119000D01*
X132742000Y-61079000D02*
X135520000Y-61079000D01*
X137480000Y-61079000D02*
X140258000Y-61079000D01*
X132759000Y-61039000D02*
X135520000Y-61039000D01*
X137480000Y-61039000D02*
X140241000Y-61039000D01*
X132775000Y-60999000D02*
X135520000Y-60999000D01*
X137480000Y-60999000D02*
X140225000Y-60999000D01*
X132793000Y-60959000D02*
X135520000Y-60959000D01*
X137480000Y-60959000D02*
X140207000Y-60959000D01*
X132810000Y-60919000D02*
X135520000Y-60919000D01*
X137480000Y-60919000D02*
X140190000Y-60919000D01*
X132829000Y-60879000D02*
X135520000Y-60879000D01*
X137480000Y-60879000D02*
X140171000Y-60879000D01*
X132848000Y-60839000D02*
X135520000Y-60839000D01*
X137480000Y-60839000D02*
X140152000Y-60839000D01*
X132867000Y-60799000D02*
X135520000Y-60799000D01*
X137480000Y-60799000D02*
X140133000Y-60799000D01*
X132887000Y-60759000D02*
X135520000Y-60759000D01*
X137480000Y-60759000D02*
X140113000Y-60759000D01*
X132907000Y-60719000D02*
X135520000Y-60719000D01*
X137480000Y-60719000D02*
X140093000Y-60719000D01*
X132928000Y-60679000D02*
X135520000Y-60679000D01*
X137480000Y-60679000D02*
X140072000Y-60679000D01*
X132950000Y-60639000D02*
X135520000Y-60639000D01*
X137480000Y-60639000D02*
X140050000Y-60639000D01*
X132972000Y-60599000D02*
X135520000Y-60599000D01*
X137480000Y-60599000D02*
X140028000Y-60599000D01*
X132995000Y-60559000D02*
X135520000Y-60559000D01*
X137480000Y-60559000D02*
X140005000Y-60559000D01*
X133018000Y-60519000D02*
X135520000Y-60519000D01*
X137480000Y-60519000D02*
X139982000Y-60519000D01*
X133042000Y-60479000D02*
X135520000Y-60479000D01*
X137480000Y-60479000D02*
X139958000Y-60479000D01*
X133066000Y-60439000D02*
X135520000Y-60439000D01*
X137480000Y-60439000D02*
X139934000Y-60439000D01*
X133092000Y-60399000D02*
X135520000Y-60399000D01*
X137480000Y-60399000D02*
X139908000Y-60399000D01*
X133117000Y-60359000D02*
X135520000Y-60359000D01*
X137480000Y-60359000D02*
X139883000Y-60359000D01*
X133144000Y-60319000D02*
X135520000Y-60319000D01*
X137480000Y-60319000D02*
X139856000Y-60319000D01*
X133171000Y-60279000D02*
X135520000Y-60279000D01*
X137480000Y-60279000D02*
X139829000Y-60279000D01*
X133199000Y-60239000D02*
X135520000Y-60239000D01*
X137480000Y-60239000D02*
X139801000Y-60239000D01*
X133228000Y-60199000D02*
X135520000Y-60199000D01*
X137480000Y-60199000D02*
X139772000Y-60199000D01*
X133257000Y-60159000D02*
X135520000Y-60159000D01*
X137480000Y-60159000D02*
X139743000Y-60159000D01*
X133287000Y-60119000D02*
X135520000Y-60119000D01*
X137480000Y-60119000D02*
X139713000Y-60119000D01*
X133318000Y-60079000D02*
X135520000Y-60079000D01*
X137480000Y-60079000D02*
X139682000Y-60079000D01*
X133350000Y-60039000D02*
X135520000Y-60039000D01*
X137480000Y-60039000D02*
X139650000Y-60039000D01*
X133382000Y-59999000D02*
X135520000Y-59999000D01*
X137480000Y-59999000D02*
X139618000Y-59999000D01*
X133416000Y-59959000D02*
X135520000Y-59959000D01*
X137480000Y-59959000D02*
X139584000Y-59959000D01*
X133450000Y-59919000D02*
X135520000Y-59919000D01*
X137480000Y-59919000D02*
X139550000Y-59919000D01*
X133485000Y-59879000D02*
X135520000Y-59879000D01*
X137480000Y-59879000D02*
X139515000Y-59879000D01*
X133521000Y-59839000D02*
X135520000Y-59839000D01*
X137480000Y-59839000D02*
X139479000Y-59839000D01*
X133558000Y-59799000D02*
X135520000Y-59799000D01*
X137480000Y-59799000D02*
X139442000Y-59799000D01*
X133596000Y-59759000D02*
X135520000Y-59759000D01*
X137480000Y-59759000D02*
X139404000Y-59759000D01*
X133635000Y-59719000D02*
X139365000Y-59719000D01*
X133676000Y-59679000D02*
X139324000Y-59679000D01*
X133717000Y-59639000D02*
X139283000Y-59639000D01*
X133760000Y-59599000D02*
X139240000Y-59599000D01*
X133803000Y-59559000D02*
X139197000Y-59559000D01*
X133848000Y-59519000D02*
X139152000Y-59519000D01*
X133895000Y-59479000D02*
X139105000Y-59479000D01*
X133943000Y-59439000D02*
X139057000Y-59439000D01*
X133992000Y-59399000D02*
X139008000Y-59399000D01*
X134043000Y-59359000D02*
X138957000Y-59359000D01*
X134096000Y-59319000D02*
X138904000Y-59319000D01*
X134151000Y-59279000D02*
X138849000Y-59279000D01*
X134207000Y-59239000D02*
X138793000Y-59239000D01*
X134266000Y-59199000D02*
X138734000Y-59199000D01*
X134327000Y-59159000D02*
X138673000Y-59159000D01*
X134391000Y-59119000D02*
X138609000Y-59119000D01*
X134457000Y-59079000D02*
X138543000Y-59079000D01*
X134526000Y-59039000D02*
X138474000Y-59039000D01*
X134598000Y-58999000D02*
X138402000Y-58999000D01*
X134674000Y-58959000D02*
X138326000Y-58959000D01*
X134755000Y-58919000D02*
X138245000Y-58919000D01*
X134840000Y-58879000D02*
X138160000Y-58879000D01*
X134930000Y-58839000D02*
X138070000Y-58839000D01*
X135027000Y-58799000D02*
X137973000Y-58799000D01*
X135131000Y-58759000D02*
X137869000Y-58759000D01*
X135246000Y-58719000D02*
X137754000Y-58719000D01*
X135373000Y-58679000D02*
X137627000Y-58679000D01*
X135517000Y-58639000D02*
X137483000Y-58639000D01*
X135686000Y-58599000D02*
X137314000Y-58599000D01*
X135902000Y-58559000D02*
X137098000Y-58559000D01*
X136254000Y-58519000D02*
X136746000Y-58519000D01*
X136500000Y-66700000D02*
X136500000Y-65500000D01*
X135850000Y-66100000D02*
X137150000Y-66100000D01*
G04 #@! TO.C,R14*
X138250000Y-106720000D02*
X138250000Y-106390000D01*
X138250000Y-106390000D02*
X144670000Y-106390000D01*
X144670000Y-106390000D02*
X144670000Y-106720000D01*
X138250000Y-108680000D02*
X138250000Y-109010000D01*
X138250000Y-109010000D02*
X144670000Y-109010000D01*
X144670000Y-109010000D02*
X144670000Y-108680000D01*
G04 #@! TO.C,R15*
X155350000Y-111770000D02*
X155350000Y-111440000D01*
X155350000Y-111440000D02*
X161770000Y-111440000D01*
X161770000Y-111440000D02*
X161770000Y-111770000D01*
X155350000Y-113730000D02*
X155350000Y-114060000D01*
X155350000Y-114060000D02*
X161770000Y-114060000D01*
X161770000Y-114060000D02*
X161770000Y-113730000D01*
G04 #@! TO.C,R16*
X177000000Y-111270000D02*
X177000000Y-110940000D01*
X177000000Y-110940000D02*
X183420000Y-110940000D01*
X183420000Y-110940000D02*
X183420000Y-111270000D01*
X177000000Y-113230000D02*
X177000000Y-113560000D01*
X177000000Y-113560000D02*
X183420000Y-113560000D01*
X183420000Y-113560000D02*
X183420000Y-113230000D01*
G04 #@! TO.C,SpeedPot1*
X85089000Y-106660000D02*
X85089000Y-102540000D01*
X95090000Y-106660000D02*
X95090000Y-102540000D01*
X95090000Y-102540000D02*
X85089000Y-102540000D01*
X95090000Y-106660000D02*
X85089000Y-106660000D01*
X95090000Y-108160000D02*
X95090000Y-101040000D01*
X100089000Y-108160000D02*
X100089000Y-101040000D01*
X100089000Y-101040000D02*
X95090000Y-101040000D01*
X100089000Y-108160000D02*
X95090000Y-108160000D01*
X100089000Y-112660000D02*
X100089000Y-96540000D01*
X107710000Y-112660000D02*
X107710000Y-96540000D01*
X107710000Y-96540000D02*
X100089000Y-96540000D01*
X107710000Y-112660000D02*
X100089000Y-112660000D01*
G04 #@! TO.C,D4*
X204186758Y-115980724D02*
G75*
G03X208490000Y-116298749I2243242J1080724D01*
G01*
X204186758Y-113819276D02*
G75*
G02X208490000Y-113501251I2243242J-1080724D01*
G01*
X204747287Y-115980961D02*
G75*
G03X208113330Y-115980000I1682713J1080961D01*
G01*
X204747287Y-113819039D02*
G75*
G02X208113330Y-113820000I1682713J-1080961D01*
G01*
X208490000Y-116299000D02*
X208490000Y-115980000D01*
X208490000Y-113820000D02*
X208490000Y-113501000D01*
G04 #@! TO.C,C3*
X201137000Y-97239000D02*
X199963000Y-97239000D01*
X201137000Y-98961000D02*
X199963000Y-98961000D01*
G04 #@! TO.C,C2*
X201137000Y-101489000D02*
X199963000Y-101489000D01*
X201137000Y-103211000D02*
X199963000Y-103211000D01*
G04 #@! TO.C,C10*
X170861000Y-106463000D02*
X170861000Y-107637000D01*
X169139000Y-106463000D02*
X169139000Y-107637000D01*
G04 #@! TO.C,C11*
X152061000Y-106263000D02*
X152061000Y-107437000D01*
X150339000Y-106263000D02*
X150339000Y-107437000D01*
G04 #@! TO.C,C1*
X117339000Y-87937000D02*
X117339000Y-86763000D01*
X119061000Y-87937000D02*
X119061000Y-86763000D01*
G04 #@! TO.C,C12*
X119360000Y-78790000D02*
X119360000Y-82710000D01*
X116640000Y-78790000D02*
X116640000Y-82710000D01*
X119360000Y-78790000D02*
X118750000Y-78790000D01*
X117250000Y-78790000D02*
X116640000Y-78790000D01*
X119360000Y-82710000D02*
X118750000Y-82710000D01*
X117250000Y-82710000D02*
X116640000Y-82710000D01*
G04 #@! TO.C,C13*
X112581400Y-81646863D02*
G75*
G03X112580000Y-76852564I-981400J2396863D01*
G01*
X110618600Y-81646863D02*
G75*
G02X110620000Y-76852564I981400J2396863D01*
G01*
X110618600Y-81646863D02*
G75*
G03X112580000Y-81647436I981400J2396863D01*
G01*
X114150000Y-79250000D02*
X109050000Y-79250000D01*
X114150000Y-79290000D02*
X109050000Y-79290000D01*
X114149000Y-79330000D02*
X109051000Y-79330000D01*
X114148000Y-79370000D02*
X109052000Y-79370000D01*
X114146000Y-79410000D02*
X109054000Y-79410000D01*
X114143000Y-79450000D02*
X109057000Y-79450000D01*
X114139000Y-79490000D02*
X109061000Y-79490000D01*
X114135000Y-79530000D02*
X112580000Y-79530000D01*
X110620000Y-79530000D02*
X109065000Y-79530000D01*
X114131000Y-79570000D02*
X112580000Y-79570000D01*
X110620000Y-79570000D02*
X109069000Y-79570000D01*
X114125000Y-79610000D02*
X112580000Y-79610000D01*
X110620000Y-79610000D02*
X109075000Y-79610000D01*
X114119000Y-79650000D02*
X112580000Y-79650000D01*
X110620000Y-79650000D02*
X109081000Y-79650000D01*
X114113000Y-79690000D02*
X112580000Y-79690000D01*
X110620000Y-79690000D02*
X109087000Y-79690000D01*
X114106000Y-79730000D02*
X112580000Y-79730000D01*
X110620000Y-79730000D02*
X109094000Y-79730000D01*
X114098000Y-79770000D02*
X112580000Y-79770000D01*
X110620000Y-79770000D02*
X109102000Y-79770000D01*
X114089000Y-79810000D02*
X112580000Y-79810000D01*
X110620000Y-79810000D02*
X109111000Y-79810000D01*
X114080000Y-79850000D02*
X112580000Y-79850000D01*
X110620000Y-79850000D02*
X109120000Y-79850000D01*
X114070000Y-79890000D02*
X112580000Y-79890000D01*
X110620000Y-79890000D02*
X109130000Y-79890000D01*
X114060000Y-79930000D02*
X112580000Y-79930000D01*
X110620000Y-79930000D02*
X109140000Y-79930000D01*
X114048000Y-79971000D02*
X112580000Y-79971000D01*
X110620000Y-79971000D02*
X109152000Y-79971000D01*
X114036000Y-80011000D02*
X112580000Y-80011000D01*
X110620000Y-80011000D02*
X109164000Y-80011000D01*
X114024000Y-80051000D02*
X112580000Y-80051000D01*
X110620000Y-80051000D02*
X109176000Y-80051000D01*
X114010000Y-80091000D02*
X112580000Y-80091000D01*
X110620000Y-80091000D02*
X109190000Y-80091000D01*
X113996000Y-80131000D02*
X112580000Y-80131000D01*
X110620000Y-80131000D02*
X109204000Y-80131000D01*
X113982000Y-80171000D02*
X112580000Y-80171000D01*
X110620000Y-80171000D02*
X109218000Y-80171000D01*
X113966000Y-80211000D02*
X112580000Y-80211000D01*
X110620000Y-80211000D02*
X109234000Y-80211000D01*
X113950000Y-80251000D02*
X112580000Y-80251000D01*
X110620000Y-80251000D02*
X109250000Y-80251000D01*
X113933000Y-80291000D02*
X112580000Y-80291000D01*
X110620000Y-80291000D02*
X109267000Y-80291000D01*
X113915000Y-80331000D02*
X112580000Y-80331000D01*
X110620000Y-80331000D02*
X109285000Y-80331000D01*
X113896000Y-80371000D02*
X112580000Y-80371000D01*
X110620000Y-80371000D02*
X109304000Y-80371000D01*
X113876000Y-80411000D02*
X112580000Y-80411000D01*
X110620000Y-80411000D02*
X109324000Y-80411000D01*
X113856000Y-80451000D02*
X112580000Y-80451000D01*
X110620000Y-80451000D02*
X109344000Y-80451000D01*
X113834000Y-80491000D02*
X112580000Y-80491000D01*
X110620000Y-80491000D02*
X109366000Y-80491000D01*
X113812000Y-80531000D02*
X112580000Y-80531000D01*
X110620000Y-80531000D02*
X109388000Y-80531000D01*
X113789000Y-80571000D02*
X112580000Y-80571000D01*
X110620000Y-80571000D02*
X109411000Y-80571000D01*
X113765000Y-80611000D02*
X112580000Y-80611000D01*
X110620000Y-80611000D02*
X109435000Y-80611000D01*
X113740000Y-80651000D02*
X112580000Y-80651000D01*
X110620000Y-80651000D02*
X109460000Y-80651000D01*
X113713000Y-80691000D02*
X112580000Y-80691000D01*
X110620000Y-80691000D02*
X109487000Y-80691000D01*
X113686000Y-80731000D02*
X112580000Y-80731000D01*
X110620000Y-80731000D02*
X109514000Y-80731000D01*
X113658000Y-80771000D02*
X112580000Y-80771000D01*
X110620000Y-80771000D02*
X109542000Y-80771000D01*
X113628000Y-80811000D02*
X112580000Y-80811000D01*
X110620000Y-80811000D02*
X109572000Y-80811000D01*
X113597000Y-80851000D02*
X112580000Y-80851000D01*
X110620000Y-80851000D02*
X109603000Y-80851000D01*
X113565000Y-80891000D02*
X112580000Y-80891000D01*
X110620000Y-80891000D02*
X109635000Y-80891000D01*
X113532000Y-80931000D02*
X112580000Y-80931000D01*
X110620000Y-80931000D02*
X109668000Y-80931000D01*
X113497000Y-80971000D02*
X112580000Y-80971000D01*
X110620000Y-80971000D02*
X109703000Y-80971000D01*
X113461000Y-81011000D02*
X112580000Y-81011000D01*
X110620000Y-81011000D02*
X109739000Y-81011000D01*
X113423000Y-81051000D02*
X112580000Y-81051000D01*
X110620000Y-81051000D02*
X109777000Y-81051000D01*
X113383000Y-81091000D02*
X112580000Y-81091000D01*
X110620000Y-81091000D02*
X109817000Y-81091000D01*
X113342000Y-81131000D02*
X112580000Y-81131000D01*
X110620000Y-81131000D02*
X109858000Y-81131000D01*
X113299000Y-81171000D02*
X112580000Y-81171000D01*
X110620000Y-81171000D02*
X109901000Y-81171000D01*
X113254000Y-81211000D02*
X112580000Y-81211000D01*
X110620000Y-81211000D02*
X109946000Y-81211000D01*
X113206000Y-81251000D02*
X112580000Y-81251000D01*
X110620000Y-81251000D02*
X109994000Y-81251000D01*
X113156000Y-81291000D02*
X112580000Y-81291000D01*
X110620000Y-81291000D02*
X110044000Y-81291000D01*
X113104000Y-81331000D02*
X112580000Y-81331000D01*
X110620000Y-81331000D02*
X110096000Y-81331000D01*
X113048000Y-81371000D02*
X112580000Y-81371000D01*
X110620000Y-81371000D02*
X110152000Y-81371000D01*
X112990000Y-81411000D02*
X112580000Y-81411000D01*
X110620000Y-81411000D02*
X110210000Y-81411000D01*
X112927000Y-81451000D02*
X112580000Y-81451000D01*
X110620000Y-81451000D02*
X110273000Y-81451000D01*
X112861000Y-81491000D02*
X110339000Y-81491000D01*
X112789000Y-81531000D02*
X110411000Y-81531000D01*
X112712000Y-81571000D02*
X110488000Y-81571000D01*
X112628000Y-81611000D02*
X110572000Y-81611000D01*
X112534000Y-81651000D02*
X110666000Y-81651000D01*
X112429000Y-81691000D02*
X110771000Y-81691000D01*
X112307000Y-81731000D02*
X110893000Y-81731000D01*
X112159000Y-81771000D02*
X111041000Y-81771000D01*
X111954000Y-81811000D02*
X111246000Y-81811000D01*
X111600000Y-75800000D02*
X111600000Y-77000000D01*
X112250000Y-76400000D02*
X110950000Y-76400000D01*
G04 #@! TO.C,C15*
X112581400Y-90046863D02*
G75*
G03X112580000Y-85252564I-981400J2396863D01*
G01*
X110618600Y-90046863D02*
G75*
G02X110620000Y-85252564I981400J2396863D01*
G01*
X110618600Y-90046863D02*
G75*
G03X112580000Y-90047436I981400J2396863D01*
G01*
X114150000Y-87650000D02*
X109050000Y-87650000D01*
X114150000Y-87690000D02*
X109050000Y-87690000D01*
X114149000Y-87730000D02*
X109051000Y-87730000D01*
X114148000Y-87770000D02*
X109052000Y-87770000D01*
X114146000Y-87810000D02*
X109054000Y-87810000D01*
X114143000Y-87850000D02*
X109057000Y-87850000D01*
X114139000Y-87890000D02*
X109061000Y-87890000D01*
X114135000Y-87930000D02*
X112580000Y-87930000D01*
X110620000Y-87930000D02*
X109065000Y-87930000D01*
X114131000Y-87970000D02*
X112580000Y-87970000D01*
X110620000Y-87970000D02*
X109069000Y-87970000D01*
X114125000Y-88010000D02*
X112580000Y-88010000D01*
X110620000Y-88010000D02*
X109075000Y-88010000D01*
X114119000Y-88050000D02*
X112580000Y-88050000D01*
X110620000Y-88050000D02*
X109081000Y-88050000D01*
X114113000Y-88090000D02*
X112580000Y-88090000D01*
X110620000Y-88090000D02*
X109087000Y-88090000D01*
X114106000Y-88130000D02*
X112580000Y-88130000D01*
X110620000Y-88130000D02*
X109094000Y-88130000D01*
X114098000Y-88170000D02*
X112580000Y-88170000D01*
X110620000Y-88170000D02*
X109102000Y-88170000D01*
X114089000Y-88210000D02*
X112580000Y-88210000D01*
X110620000Y-88210000D02*
X109111000Y-88210000D01*
X114080000Y-88250000D02*
X112580000Y-88250000D01*
X110620000Y-88250000D02*
X109120000Y-88250000D01*
X114070000Y-88290000D02*
X112580000Y-88290000D01*
X110620000Y-88290000D02*
X109130000Y-88290000D01*
X114060000Y-88330000D02*
X112580000Y-88330000D01*
X110620000Y-88330000D02*
X109140000Y-88330000D01*
X114048000Y-88371000D02*
X112580000Y-88371000D01*
X110620000Y-88371000D02*
X109152000Y-88371000D01*
X114036000Y-88411000D02*
X112580000Y-88411000D01*
X110620000Y-88411000D02*
X109164000Y-88411000D01*
X114024000Y-88451000D02*
X112580000Y-88451000D01*
X110620000Y-88451000D02*
X109176000Y-88451000D01*
X114010000Y-88491000D02*
X112580000Y-88491000D01*
X110620000Y-88491000D02*
X109190000Y-88491000D01*
X113996000Y-88531000D02*
X112580000Y-88531000D01*
X110620000Y-88531000D02*
X109204000Y-88531000D01*
X113982000Y-88571000D02*
X112580000Y-88571000D01*
X110620000Y-88571000D02*
X109218000Y-88571000D01*
X113966000Y-88611000D02*
X112580000Y-88611000D01*
X110620000Y-88611000D02*
X109234000Y-88611000D01*
X113950000Y-88651000D02*
X112580000Y-88651000D01*
X110620000Y-88651000D02*
X109250000Y-88651000D01*
X113933000Y-88691000D02*
X112580000Y-88691000D01*
X110620000Y-88691000D02*
X109267000Y-88691000D01*
X113915000Y-88731000D02*
X112580000Y-88731000D01*
X110620000Y-88731000D02*
X109285000Y-88731000D01*
X113896000Y-88771000D02*
X112580000Y-88771000D01*
X110620000Y-88771000D02*
X109304000Y-88771000D01*
X113876000Y-88811000D02*
X112580000Y-88811000D01*
X110620000Y-88811000D02*
X109324000Y-88811000D01*
X113856000Y-88851000D02*
X112580000Y-88851000D01*
X110620000Y-88851000D02*
X109344000Y-88851000D01*
X113834000Y-88891000D02*
X112580000Y-88891000D01*
X110620000Y-88891000D02*
X109366000Y-88891000D01*
X113812000Y-88931000D02*
X112580000Y-88931000D01*
X110620000Y-88931000D02*
X109388000Y-88931000D01*
X113789000Y-88971000D02*
X112580000Y-88971000D01*
X110620000Y-88971000D02*
X109411000Y-88971000D01*
X113765000Y-89011000D02*
X112580000Y-89011000D01*
X110620000Y-89011000D02*
X109435000Y-89011000D01*
X113740000Y-89051000D02*
X112580000Y-89051000D01*
X110620000Y-89051000D02*
X109460000Y-89051000D01*
X113713000Y-89091000D02*
X112580000Y-89091000D01*
X110620000Y-89091000D02*
X109487000Y-89091000D01*
X113686000Y-89131000D02*
X112580000Y-89131000D01*
X110620000Y-89131000D02*
X109514000Y-89131000D01*
X113658000Y-89171000D02*
X112580000Y-89171000D01*
X110620000Y-89171000D02*
X109542000Y-89171000D01*
X113628000Y-89211000D02*
X112580000Y-89211000D01*
X110620000Y-89211000D02*
X109572000Y-89211000D01*
X113597000Y-89251000D02*
X112580000Y-89251000D01*
X110620000Y-89251000D02*
X109603000Y-89251000D01*
X113565000Y-89291000D02*
X112580000Y-89291000D01*
X110620000Y-89291000D02*
X109635000Y-89291000D01*
X113532000Y-89331000D02*
X112580000Y-89331000D01*
X110620000Y-89331000D02*
X109668000Y-89331000D01*
X113497000Y-89371000D02*
X112580000Y-89371000D01*
X110620000Y-89371000D02*
X109703000Y-89371000D01*
X113461000Y-89411000D02*
X112580000Y-89411000D01*
X110620000Y-89411000D02*
X109739000Y-89411000D01*
X113423000Y-89451000D02*
X112580000Y-89451000D01*
X110620000Y-89451000D02*
X109777000Y-89451000D01*
X113383000Y-89491000D02*
X112580000Y-89491000D01*
X110620000Y-89491000D02*
X109817000Y-89491000D01*
X113342000Y-89531000D02*
X112580000Y-89531000D01*
X110620000Y-89531000D02*
X109858000Y-89531000D01*
X113299000Y-89571000D02*
X112580000Y-89571000D01*
X110620000Y-89571000D02*
X109901000Y-89571000D01*
X113254000Y-89611000D02*
X112580000Y-89611000D01*
X110620000Y-89611000D02*
X109946000Y-89611000D01*
X113206000Y-89651000D02*
X112580000Y-89651000D01*
X110620000Y-89651000D02*
X109994000Y-89651000D01*
X113156000Y-89691000D02*
X112580000Y-89691000D01*
X110620000Y-89691000D02*
X110044000Y-89691000D01*
X113104000Y-89731000D02*
X112580000Y-89731000D01*
X110620000Y-89731000D02*
X110096000Y-89731000D01*
X113048000Y-89771000D02*
X112580000Y-89771000D01*
X110620000Y-89771000D02*
X110152000Y-89771000D01*
X112990000Y-89811000D02*
X112580000Y-89811000D01*
X110620000Y-89811000D02*
X110210000Y-89811000D01*
X112927000Y-89851000D02*
X112580000Y-89851000D01*
X110620000Y-89851000D02*
X110273000Y-89851000D01*
X112861000Y-89891000D02*
X110339000Y-89891000D01*
X112789000Y-89931000D02*
X110411000Y-89931000D01*
X112712000Y-89971000D02*
X110488000Y-89971000D01*
X112628000Y-90011000D02*
X110572000Y-90011000D01*
X112534000Y-90051000D02*
X110666000Y-90051000D01*
X112429000Y-90091000D02*
X110771000Y-90091000D01*
X112307000Y-90131000D02*
X110893000Y-90131000D01*
X112159000Y-90171000D02*
X111041000Y-90171000D01*
X111954000Y-90211000D02*
X111246000Y-90211000D01*
X111600000Y-84200000D02*
X111600000Y-85400000D01*
X112250000Y-84800000D02*
X110950000Y-84800000D01*
G04 #@! TO.C,C4*
X201087000Y-107861000D02*
X199913000Y-107861000D01*
X201087000Y-106139000D02*
X199913000Y-106139000D01*
G04 #@! TO.C,C5*
X201087000Y-113211000D02*
X199913000Y-113211000D01*
X201087000Y-111489000D02*
X199913000Y-111489000D01*
G04 #@! TO.C,J8*
X128640000Y-101480000D02*
X128640000Y-83580000D01*
X128640000Y-83580000D02*
X123320000Y-83580000D01*
X123320000Y-83580000D02*
X123320000Y-104140000D01*
X123320000Y-104140000D02*
X125980000Y-104140000D01*
X125980000Y-104140000D02*
X125980000Y-101480000D01*
X125980000Y-101480000D02*
X128640000Y-101480000D01*
X128640000Y-102750000D02*
X128640000Y-104140000D01*
X128640000Y-104140000D02*
X127250000Y-104140000D01*
D17*
G04 #@! TO.C,SW1*
X113414214Y-129850000D02*
G75*
G03X113414214Y-129850000I-1414214J0D01*
G01*
X109000000Y-129850000D02*
X109000000Y-129850000D01*
X110000000Y-132850000D02*
X114000000Y-132850000D01*
X110000000Y-126850000D02*
X114000000Y-126850000D01*
X115000000Y-129850000D02*
X115000000Y-129850000D01*
D15*
X109000000Y-130600000D02*
X109000000Y-129100000D01*
X115000000Y-129100000D02*
X115000000Y-130600000D01*
X114000000Y-132850000D02*
X110000000Y-132850000D01*
X114000000Y-126850000D02*
X110000000Y-126850000D01*
X113414214Y-129850000D02*
G75*
G03X113414214Y-129850000I-1414214J0D01*
G01*
X116050000Y-132900000D02*
X116050000Y-132550000D01*
X115700000Y-132900000D02*
G75*
G03X116050000Y-132550000I-700000J1050000D01*
G01*
X116050000Y-132900000D02*
X115700000Y-132900000D01*
X115950000Y-132850000D02*
X115950000Y-132750000D01*
D17*
G04 #@! TO.C,SW2*
X126514214Y-129850000D02*
G75*
G03X126514214Y-129850000I-1414214J0D01*
G01*
X122100000Y-129850000D02*
X122100000Y-129850000D01*
X123100000Y-132850000D02*
X127100000Y-132850000D01*
X123100000Y-126850000D02*
X127100000Y-126850000D01*
X128100000Y-129850000D02*
X128100000Y-129850000D01*
D15*
X122100000Y-130600000D02*
X122100000Y-129100000D01*
X128100000Y-129100000D02*
X128100000Y-130600000D01*
X127100000Y-132850000D02*
X123100000Y-132850000D01*
X127100000Y-126850000D02*
X123100000Y-126850000D01*
X126514214Y-129850000D02*
G75*
G03X126514214Y-129850000I-1414214J0D01*
G01*
X129150000Y-132900000D02*
X129150000Y-132550000D01*
X128800000Y-132900000D02*
G75*
G03X129150000Y-132550000I-700000J1050000D01*
G01*
X129150000Y-132900000D02*
X128800000Y-132900000D01*
X129050000Y-132850000D02*
X129050000Y-132750000D01*
D17*
G04 #@! TO.C,SW3*
X139214214Y-129850000D02*
G75*
G03X139214214Y-129850000I-1414214J0D01*
G01*
X134800000Y-129850000D02*
X134800000Y-129850000D01*
X135800000Y-132850000D02*
X139800000Y-132850000D01*
X135800000Y-126850000D02*
X139800000Y-126850000D01*
X140800000Y-129850000D02*
X140800000Y-129850000D01*
D15*
X134800000Y-130600000D02*
X134800000Y-129100000D01*
X140800000Y-129100000D02*
X140800000Y-130600000D01*
X139800000Y-132850000D02*
X135800000Y-132850000D01*
X139800000Y-126850000D02*
X135800000Y-126850000D01*
X139214214Y-129850000D02*
G75*
G03X139214214Y-129850000I-1414214J0D01*
G01*
X141850000Y-132900000D02*
X141850000Y-132550000D01*
X141500000Y-132900000D02*
G75*
G03X141850000Y-132550000I-700000J1050000D01*
G01*
X141850000Y-132900000D02*
X141500000Y-132900000D01*
X141750000Y-132850000D02*
X141750000Y-132750000D01*
G04 #@! TO.C,SW4*
X154550000Y-132850000D02*
X154550000Y-132750000D01*
X154650000Y-132900000D02*
X154300000Y-132900000D01*
X154300000Y-132900000D02*
G75*
G03X154650000Y-132550000I-700000J1050000D01*
G01*
X154650000Y-132900000D02*
X154650000Y-132550000D01*
X152014214Y-129850000D02*
G75*
G03X152014214Y-129850000I-1414214J0D01*
G01*
X152600000Y-126850000D02*
X148600000Y-126850000D01*
X152600000Y-132850000D02*
X148600000Y-132850000D01*
X153600000Y-129100000D02*
X153600000Y-130600000D01*
X147600000Y-130600000D02*
X147600000Y-129100000D01*
D17*
X153600000Y-129850000D02*
X153600000Y-129850000D01*
X148600000Y-126850000D02*
X152600000Y-126850000D01*
X148600000Y-132850000D02*
X152600000Y-132850000D01*
X147600000Y-129850000D02*
X147600000Y-129850000D01*
X152014214Y-129850000D02*
G75*
G03X152014214Y-129850000I-1414214J0D01*
G01*
D15*
G04 #@! TO.C,SW5*
X166700000Y-132900000D02*
X166700000Y-132800000D01*
X166800000Y-132950000D02*
X166450000Y-132950000D01*
X166450000Y-132950000D02*
G75*
G03X166800000Y-132600000I-700000J1050000D01*
G01*
X166800000Y-132950000D02*
X166800000Y-132600000D01*
X164164214Y-129900000D02*
G75*
G03X164164214Y-129900000I-1414214J0D01*
G01*
X164750000Y-126900000D02*
X160750000Y-126900000D01*
X164750000Y-132900000D02*
X160750000Y-132900000D01*
X165750000Y-129150000D02*
X165750000Y-130650000D01*
X159750000Y-130650000D02*
X159750000Y-129150000D01*
D17*
X165750000Y-129900000D02*
X165750000Y-129900000D01*
X160750000Y-126900000D02*
X164750000Y-126900000D01*
X160750000Y-132900000D02*
X164750000Y-132900000D01*
X159750000Y-129900000D02*
X159750000Y-129900000D01*
X164164214Y-129900000D02*
G75*
G03X164164214Y-129900000I-1414214J0D01*
G01*
D15*
G04 #@! TO.C,SW7*
X178450000Y-132850000D02*
X178450000Y-132750000D01*
X178550000Y-132900000D02*
X178200000Y-132900000D01*
X178200000Y-132900000D02*
G75*
G03X178550000Y-132550000I-700000J1050000D01*
G01*
X178550000Y-132900000D02*
X178550000Y-132550000D01*
X175914214Y-129850000D02*
G75*
G03X175914214Y-129850000I-1414214J0D01*
G01*
X176500000Y-126850000D02*
X172500000Y-126850000D01*
X176500000Y-132850000D02*
X172500000Y-132850000D01*
X177500000Y-129100000D02*
X177500000Y-130600000D01*
X171500000Y-130600000D02*
X171500000Y-129100000D01*
D17*
X177500000Y-129850000D02*
X177500000Y-129850000D01*
X172500000Y-126850000D02*
X176500000Y-126850000D01*
X172500000Y-132850000D02*
X176500000Y-132850000D01*
X171500000Y-129850000D02*
X171500000Y-129850000D01*
X175914214Y-129850000D02*
G75*
G03X175914214Y-129850000I-1414214J0D01*
G01*
D15*
G04 #@! TO.C,SW8*
X190300000Y-132850000D02*
X190300000Y-132750000D01*
X190400000Y-132900000D02*
X190050000Y-132900000D01*
X190050000Y-132900000D02*
G75*
G03X190400000Y-132550000I-700000J1050000D01*
G01*
X190400000Y-132900000D02*
X190400000Y-132550000D01*
X187764214Y-129850000D02*
G75*
G03X187764214Y-129850000I-1414214J0D01*
G01*
X188350000Y-126850000D02*
X184350000Y-126850000D01*
X188350000Y-132850000D02*
X184350000Y-132850000D01*
X189350000Y-129100000D02*
X189350000Y-130600000D01*
X183350000Y-130600000D02*
X183350000Y-129100000D01*
D17*
X189350000Y-129850000D02*
X189350000Y-129850000D01*
X184350000Y-126850000D02*
X188350000Y-126850000D01*
X184350000Y-132850000D02*
X188350000Y-132850000D01*
X183350000Y-129850000D02*
X183350000Y-129850000D01*
X187764214Y-129850000D02*
G75*
G03X187764214Y-129850000I-1414214J0D01*
G01*
D15*
G04 #@! TO.C,SW9*
X202500000Y-132850000D02*
X202500000Y-132750000D01*
X202600000Y-132900000D02*
X202250000Y-132900000D01*
X202250000Y-132900000D02*
G75*
G03X202600000Y-132550000I-700000J1050000D01*
G01*
X202600000Y-132900000D02*
X202600000Y-132550000D01*
X199964214Y-129850000D02*
G75*
G03X199964214Y-129850000I-1414214J0D01*
G01*
X200550000Y-126850000D02*
X196550000Y-126850000D01*
X200550000Y-132850000D02*
X196550000Y-132850000D01*
X201550000Y-129100000D02*
X201550000Y-130600000D01*
X195550000Y-130600000D02*
X195550000Y-129100000D01*
D17*
X201550000Y-129850000D02*
X201550000Y-129850000D01*
X196550000Y-126850000D02*
X200550000Y-126850000D01*
X196550000Y-132850000D02*
X200550000Y-132850000D01*
X195550000Y-129850000D02*
X195550000Y-129850000D01*
X199964214Y-129850000D02*
G75*
G03X199964214Y-129850000I-1414214J0D01*
G01*
D14*
G04 #@! TO.C,J10*
X145370000Y-118990000D02*
X165810000Y-118990000D01*
X165810000Y-118990000D02*
X165810000Y-116210000D01*
X165810000Y-116210000D02*
X145370000Y-116210000D01*
X145370000Y-116210000D02*
X145370000Y-118990000D01*
X144100000Y-118990000D02*
X142710000Y-118990000D01*
X142710000Y-118990000D02*
X142710000Y-117600000D01*
G04 #@! TO.C,J11*
X145370000Y-121790000D02*
X165810000Y-121790000D01*
X165810000Y-121790000D02*
X165810000Y-119010000D01*
X165810000Y-119010000D02*
X145370000Y-119010000D01*
X145370000Y-119010000D02*
X145370000Y-121790000D01*
X144100000Y-121790000D02*
X142710000Y-121790000D01*
X142710000Y-121790000D02*
X142710000Y-120400000D01*
D17*
G04 #@! TO.C,J3*
X199760000Y-79450000D02*
X196000000Y-79530000D01*
X196000000Y-79530000D02*
X196000000Y-69450000D01*
X196000000Y-69450000D02*
X199760000Y-69450000D01*
X204840000Y-79450000D02*
X210000000Y-79450000D01*
X210000000Y-79450000D02*
X210000000Y-69450000D01*
X210000000Y-69450000D02*
X204840000Y-69450000D01*
X204840000Y-69450000D02*
X204840000Y-69450000D01*
G04 #@! TO.C,J4*
X204840000Y-81750000D02*
X204840000Y-81750000D01*
X210000000Y-81750000D02*
X204840000Y-81750000D01*
X210000000Y-91750000D02*
X210000000Y-81750000D01*
X204840000Y-91750000D02*
X210000000Y-91750000D01*
X196000000Y-81750000D02*
X199760000Y-81750000D01*
X196000000Y-91830000D02*
X196000000Y-81750000D01*
X199760000Y-91750000D02*
X196000000Y-91830000D01*
D14*
G04 #@! TO.C,J5*
X179500000Y-55900000D02*
X179500000Y-53900000D01*
X184500000Y-55900000D02*
X184500000Y-53900000D01*
X184500000Y-53900000D02*
X179500000Y-53900000D01*
X179500000Y-55900000D02*
X178900000Y-55900000D01*
X185100000Y-55900000D02*
X184500000Y-55900000D01*
X178900000Y-68000000D02*
X185100000Y-68000000D01*
X185100000Y-55900000D02*
X185100000Y-58400000D01*
X185100000Y-59800000D02*
X185100000Y-61400000D01*
X185100000Y-62800000D02*
X185100000Y-65400000D01*
X185100000Y-66800000D02*
X185100000Y-68000000D01*
X178900000Y-67900000D02*
X178900000Y-68000000D01*
X178900000Y-66500000D02*
X178900000Y-55900000D01*
G04 #@! TO.C,J12*
D15*
X139690476Y-122452380D02*
X139690476Y-123166666D01*
X139642857Y-123309523D01*
X139547619Y-123404761D01*
X139404761Y-123452380D01*
X139309523Y-123452380D01*
X140690476Y-123452380D02*
X140119047Y-123452380D01*
X140404761Y-123452380D02*
X140404761Y-122452380D01*
X140309523Y-122595238D01*
X140214285Y-122690476D01*
X140119047Y-122738095D01*
X141071428Y-122547619D02*
X141119047Y-122500000D01*
X141214285Y-122452380D01*
X141452380Y-122452380D01*
X141547619Y-122500000D01*
X141595238Y-122547619D01*
X141642857Y-122642857D01*
X141642857Y-122738095D01*
X141595238Y-122880952D01*
X141023809Y-123452380D01*
X141642857Y-123452380D01*
G04 #@! TO.C,HOLE2*
X116357142Y-61102380D02*
X116357142Y-60102380D01*
X116357142Y-60578571D02*
X116928571Y-60578571D01*
X116928571Y-61102380D02*
X116928571Y-60102380D01*
X117595238Y-60102380D02*
X117785714Y-60102380D01*
X117880952Y-60150000D01*
X117976190Y-60245238D01*
X118023809Y-60435714D01*
X118023809Y-60769047D01*
X117976190Y-60959523D01*
X117880952Y-61054761D01*
X117785714Y-61102380D01*
X117595238Y-61102380D01*
X117500000Y-61054761D01*
X117404761Y-60959523D01*
X117357142Y-60769047D01*
X117357142Y-60435714D01*
X117404761Y-60245238D01*
X117500000Y-60150000D01*
X117595238Y-60102380D01*
X118928571Y-61102380D02*
X118452380Y-61102380D01*
X118452380Y-60102380D01*
X119261904Y-60578571D02*
X119595238Y-60578571D01*
X119738095Y-61102380D02*
X119261904Y-61102380D01*
X119261904Y-60102380D01*
X119738095Y-60102380D01*
X120119047Y-60197619D02*
X120166666Y-60150000D01*
X120261904Y-60102380D01*
X120500000Y-60102380D01*
X120595238Y-60150000D01*
X120642857Y-60197619D01*
X120690476Y-60292857D01*
X120690476Y-60388095D01*
X120642857Y-60530952D01*
X120071428Y-61102380D01*
X120690476Y-61102380D01*
G04 #@! TO.C,HOLE4*
X192907142Y-114152380D02*
X192907142Y-113152380D01*
X192907142Y-113628571D02*
X193478571Y-113628571D01*
X193478571Y-114152380D02*
X193478571Y-113152380D01*
X194145238Y-113152380D02*
X194335714Y-113152380D01*
X194430952Y-113200000D01*
X194526190Y-113295238D01*
X194573809Y-113485714D01*
X194573809Y-113819047D01*
X194526190Y-114009523D01*
X194430952Y-114104761D01*
X194335714Y-114152380D01*
X194145238Y-114152380D01*
X194050000Y-114104761D01*
X193954761Y-114009523D01*
X193907142Y-113819047D01*
X193907142Y-113485714D01*
X193954761Y-113295238D01*
X194050000Y-113200000D01*
X194145238Y-113152380D01*
X195478571Y-114152380D02*
X195002380Y-114152380D01*
X195002380Y-113152380D01*
X195811904Y-113628571D02*
X196145238Y-113628571D01*
X196288095Y-114152380D02*
X195811904Y-114152380D01*
X195811904Y-113152380D01*
X196288095Y-113152380D01*
X197145238Y-113485714D02*
X197145238Y-114152380D01*
X196907142Y-113104761D02*
X196669047Y-113819047D01*
X197288095Y-113819047D01*
G04 #@! TO.C,HOLE6*
X203907142Y-124752380D02*
X203907142Y-123752380D01*
X203907142Y-124228571D02*
X204478571Y-124228571D01*
X204478571Y-124752380D02*
X204478571Y-123752380D01*
X205145238Y-123752380D02*
X205335714Y-123752380D01*
X205430952Y-123800000D01*
X205526190Y-123895238D01*
X205573809Y-124085714D01*
X205573809Y-124419047D01*
X205526190Y-124609523D01*
X205430952Y-124704761D01*
X205335714Y-124752380D01*
X205145238Y-124752380D01*
X205050000Y-124704761D01*
X204954761Y-124609523D01*
X204907142Y-124419047D01*
X204907142Y-124085714D01*
X204954761Y-123895238D01*
X205050000Y-123800000D01*
X205145238Y-123752380D01*
X206478571Y-124752380D02*
X206002380Y-124752380D01*
X206002380Y-123752380D01*
X206811904Y-124228571D02*
X207145238Y-124228571D01*
X207288095Y-124752380D02*
X206811904Y-124752380D01*
X206811904Y-123752380D01*
X207288095Y-123752380D01*
X208145238Y-123752380D02*
X207954761Y-123752380D01*
X207859523Y-123800000D01*
X207811904Y-123847619D01*
X207716666Y-123990476D01*
X207669047Y-124180952D01*
X207669047Y-124561904D01*
X207716666Y-124657142D01*
X207764285Y-124704761D01*
X207859523Y-124752380D01*
X208050000Y-124752380D01*
X208145238Y-124704761D01*
X208192857Y-124657142D01*
X208240476Y-124561904D01*
X208240476Y-124323809D01*
X208192857Y-124228571D01*
X208145238Y-124180952D01*
X208050000Y-124133333D01*
X207859523Y-124133333D01*
X207764285Y-124180952D01*
X207716666Y-124228571D01*
X207669047Y-124323809D01*
G04 #@! TO.C,HOLE5*
X101757142Y-124802380D02*
X101757142Y-123802380D01*
X101757142Y-124278571D02*
X102328571Y-124278571D01*
X102328571Y-124802380D02*
X102328571Y-123802380D01*
X102995238Y-123802380D02*
X103185714Y-123802380D01*
X103280952Y-123850000D01*
X103376190Y-123945238D01*
X103423809Y-124135714D01*
X103423809Y-124469047D01*
X103376190Y-124659523D01*
X103280952Y-124754761D01*
X103185714Y-124802380D01*
X102995238Y-124802380D01*
X102900000Y-124754761D01*
X102804761Y-124659523D01*
X102757142Y-124469047D01*
X102757142Y-124135714D01*
X102804761Y-123945238D01*
X102900000Y-123850000D01*
X102995238Y-123802380D01*
X104328571Y-124802380D02*
X103852380Y-124802380D01*
X103852380Y-123802380D01*
X104661904Y-124278571D02*
X104995238Y-124278571D01*
X105138095Y-124802380D02*
X104661904Y-124802380D01*
X104661904Y-123802380D01*
X105138095Y-123802380D01*
X106042857Y-123802380D02*
X105566666Y-123802380D01*
X105519047Y-124278571D01*
X105566666Y-124230952D01*
X105661904Y-124183333D01*
X105900000Y-124183333D01*
X105995238Y-124230952D01*
X106042857Y-124278571D01*
X106090476Y-124373809D01*
X106090476Y-124611904D01*
X106042857Y-124707142D01*
X105995238Y-124754761D01*
X105900000Y-124802380D01*
X105661904Y-124802380D01*
X105566666Y-124754761D01*
X105519047Y-124707142D01*
G04 #@! TO.C,PS2CONN1*
X160138095Y-58552380D02*
X160138095Y-57552380D01*
X160519047Y-57552380D01*
X160614285Y-57600000D01*
X160661904Y-57647619D01*
X160709523Y-57742857D01*
X160709523Y-57885714D01*
X160661904Y-57980952D01*
X160614285Y-58028571D01*
X160519047Y-58076190D01*
X160138095Y-58076190D01*
X161090476Y-58504761D02*
X161233333Y-58552380D01*
X161471428Y-58552380D01*
X161566666Y-58504761D01*
X161614285Y-58457142D01*
X161661904Y-58361904D01*
X161661904Y-58266666D01*
X161614285Y-58171428D01*
X161566666Y-58123809D01*
X161471428Y-58076190D01*
X161280952Y-58028571D01*
X161185714Y-57980952D01*
X161138095Y-57933333D01*
X161090476Y-57838095D01*
X161090476Y-57742857D01*
X161138095Y-57647619D01*
X161185714Y-57600000D01*
X161280952Y-57552380D01*
X161519047Y-57552380D01*
X161661904Y-57600000D01*
X162042857Y-57647619D02*
X162090476Y-57600000D01*
X162185714Y-57552380D01*
X162423809Y-57552380D01*
X162519047Y-57600000D01*
X162566666Y-57647619D01*
X162614285Y-57742857D01*
X162614285Y-57838095D01*
X162566666Y-57980952D01*
X161995238Y-58552380D01*
X162614285Y-58552380D01*
X163614285Y-58457142D02*
X163566666Y-58504761D01*
X163423809Y-58552380D01*
X163328571Y-58552380D01*
X163185714Y-58504761D01*
X163090476Y-58409523D01*
X163042857Y-58314285D01*
X162995238Y-58123809D01*
X162995238Y-57980952D01*
X163042857Y-57790476D01*
X163090476Y-57695238D01*
X163185714Y-57600000D01*
X163328571Y-57552380D01*
X163423809Y-57552380D01*
X163566666Y-57600000D01*
X163614285Y-57647619D01*
X164233333Y-57552380D02*
X164423809Y-57552380D01*
X164519047Y-57600000D01*
X164614285Y-57695238D01*
X164661904Y-57885714D01*
X164661904Y-58219047D01*
X164614285Y-58409523D01*
X164519047Y-58504761D01*
X164423809Y-58552380D01*
X164233333Y-58552380D01*
X164138095Y-58504761D01*
X164042857Y-58409523D01*
X163995238Y-58219047D01*
X163995238Y-57885714D01*
X164042857Y-57695238D01*
X164138095Y-57600000D01*
X164233333Y-57552380D01*
X165090476Y-58552380D02*
X165090476Y-57552380D01*
X165661904Y-58552380D01*
X165661904Y-57552380D01*
X166138095Y-58552380D02*
X166138095Y-57552380D01*
X166709523Y-58552380D01*
X166709523Y-57552380D01*
X167709523Y-58552380D02*
X167138095Y-58552380D01*
X167423809Y-58552380D02*
X167423809Y-57552380D01*
X167328571Y-57695238D01*
X167233333Y-57790476D01*
X167138095Y-57838095D01*
G04 #@! TO.C,BZ1*
X152419047Y-56828571D02*
X152561904Y-56876190D01*
X152609523Y-56923809D01*
X152657142Y-57019047D01*
X152657142Y-57161904D01*
X152609523Y-57257142D01*
X152561904Y-57304761D01*
X152466666Y-57352380D01*
X152085714Y-57352380D01*
X152085714Y-56352380D01*
X152419047Y-56352380D01*
X152514285Y-56400000D01*
X152561904Y-56447619D01*
X152609523Y-56542857D01*
X152609523Y-56638095D01*
X152561904Y-56733333D01*
X152514285Y-56780952D01*
X152419047Y-56828571D01*
X152085714Y-56828571D01*
X152990476Y-56352380D02*
X153657142Y-56352380D01*
X152990476Y-57352380D01*
X153657142Y-57352380D01*
X154561904Y-57352380D02*
X153990476Y-57352380D01*
X154276190Y-57352380D02*
X154276190Y-56352380D01*
X154180952Y-56495238D01*
X154085714Y-56590476D01*
X153990476Y-56638095D01*
X151479047Y-64861428D02*
X152240952Y-64861428D01*
X151860000Y-65242380D02*
X151860000Y-64480476D01*
G04 #@! TO.C,D1*
X205861904Y-93802380D02*
X205861904Y-92802380D01*
X206100000Y-92802380D01*
X206242857Y-92850000D01*
X206338095Y-92945238D01*
X206385714Y-93040476D01*
X206433333Y-93230952D01*
X206433333Y-93373809D01*
X206385714Y-93564285D01*
X206338095Y-93659523D01*
X206242857Y-93754761D01*
X206100000Y-93802380D01*
X205861904Y-93802380D01*
X207385714Y-93802380D02*
X206814285Y-93802380D01*
X207100000Y-93802380D02*
X207100000Y-92802380D01*
X207004761Y-92945238D01*
X206909523Y-93040476D01*
X206814285Y-93088095D01*
G04 #@! TO.C,D2*
X205711904Y-105802380D02*
X205711904Y-104802380D01*
X205950000Y-104802380D01*
X206092857Y-104850000D01*
X206188095Y-104945238D01*
X206235714Y-105040476D01*
X206283333Y-105230952D01*
X206283333Y-105373809D01*
X206235714Y-105564285D01*
X206188095Y-105659523D01*
X206092857Y-105754761D01*
X205950000Y-105802380D01*
X205711904Y-105802380D01*
X206664285Y-104897619D02*
X206711904Y-104850000D01*
X206807142Y-104802380D01*
X207045238Y-104802380D01*
X207140476Y-104850000D01*
X207188095Y-104897619D01*
X207235714Y-104992857D01*
X207235714Y-105088095D01*
X207188095Y-105230952D01*
X206616666Y-105802380D01*
X207235714Y-105802380D01*
G04 #@! TO.C,D3*
X205861904Y-99802380D02*
X205861904Y-98802380D01*
X206100000Y-98802380D01*
X206242857Y-98850000D01*
X206338095Y-98945238D01*
X206385714Y-99040476D01*
X206433333Y-99230952D01*
X206433333Y-99373809D01*
X206385714Y-99564285D01*
X206338095Y-99659523D01*
X206242857Y-99754761D01*
X206100000Y-99802380D01*
X205861904Y-99802380D01*
X206766666Y-98802380D02*
X207385714Y-98802380D01*
X207052380Y-99183333D01*
X207195238Y-99183333D01*
X207290476Y-99230952D01*
X207338095Y-99278571D01*
X207385714Y-99373809D01*
X207385714Y-99611904D01*
X207338095Y-99707142D01*
X207290476Y-99754761D01*
X207195238Y-99802380D01*
X206909523Y-99802380D01*
X206814285Y-99754761D01*
X206766666Y-99707142D01*
G04 #@! TO.C,IC1*
X156661309Y-84352380D02*
X156661309Y-83352380D01*
X157708928Y-84257142D02*
X157661309Y-84304761D01*
X157518452Y-84352380D01*
X157423214Y-84352380D01*
X157280357Y-84304761D01*
X157185119Y-84209523D01*
X157137500Y-84114285D01*
X157089880Y-83923809D01*
X157089880Y-83780952D01*
X157137500Y-83590476D01*
X157185119Y-83495238D01*
X157280357Y-83400000D01*
X157423214Y-83352380D01*
X157518452Y-83352380D01*
X157661309Y-83400000D01*
X157708928Y-83447619D01*
X158661309Y-84352380D02*
X158089880Y-84352380D01*
X158375595Y-84352380D02*
X158375595Y-83352380D01*
X158280357Y-83495238D01*
X158185119Y-83590476D01*
X158089880Y-83638095D01*
G04 #@! TO.C,IC2*
X190673809Y-92552380D02*
X190673809Y-91552380D01*
X191721428Y-92457142D02*
X191673809Y-92504761D01*
X191530952Y-92552380D01*
X191435714Y-92552380D01*
X191292857Y-92504761D01*
X191197619Y-92409523D01*
X191150000Y-92314285D01*
X191102380Y-92123809D01*
X191102380Y-91980952D01*
X191150000Y-91790476D01*
X191197619Y-91695238D01*
X191292857Y-91600000D01*
X191435714Y-91552380D01*
X191530952Y-91552380D01*
X191673809Y-91600000D01*
X191721428Y-91647619D01*
X192102380Y-91647619D02*
X192150000Y-91600000D01*
X192245238Y-91552380D01*
X192483333Y-91552380D01*
X192578571Y-91600000D01*
X192626190Y-91647619D01*
X192673809Y-91742857D01*
X192673809Y-91838095D01*
X192626190Y-91980952D01*
X192054761Y-92552380D01*
X192673809Y-92552380D01*
G04 #@! TO.C,L1*
X144383333Y-79202380D02*
X143907142Y-79202380D01*
X143907142Y-78202380D01*
X145240476Y-79202380D02*
X144669047Y-79202380D01*
X144954761Y-79202380D02*
X144954761Y-78202380D01*
X144859523Y-78345238D01*
X144764285Y-78440476D01*
X144669047Y-78488095D01*
G04 #@! TO.C,L2*
X144613333Y-73792380D02*
X144137142Y-73792380D01*
X144137142Y-72792380D01*
X144899047Y-72887619D02*
X144946666Y-72840000D01*
X145041904Y-72792380D01*
X145280000Y-72792380D01*
X145375238Y-72840000D01*
X145422857Y-72887619D01*
X145470476Y-72982857D01*
X145470476Y-73078095D01*
X145422857Y-73220952D01*
X144851428Y-73792380D01*
X145470476Y-73792380D01*
G04 #@! TO.C,R1*
X115783333Y-110452380D02*
X115450000Y-109976190D01*
X115211904Y-110452380D02*
X115211904Y-109452380D01*
X115592857Y-109452380D01*
X115688095Y-109500000D01*
X115735714Y-109547619D01*
X115783333Y-109642857D01*
X115783333Y-109785714D01*
X115735714Y-109880952D01*
X115688095Y-109928571D01*
X115592857Y-109976190D01*
X115211904Y-109976190D01*
X116735714Y-110452380D02*
X116164285Y-110452380D01*
X116450000Y-110452380D02*
X116450000Y-109452380D01*
X116354761Y-109595238D01*
X116259523Y-109690476D01*
X116164285Y-109738095D01*
G04 #@! TO.C,R2*
X115993333Y-105442380D02*
X115660000Y-104966190D01*
X115421904Y-105442380D02*
X115421904Y-104442380D01*
X115802857Y-104442380D01*
X115898095Y-104490000D01*
X115945714Y-104537619D01*
X115993333Y-104632857D01*
X115993333Y-104775714D01*
X115945714Y-104870952D01*
X115898095Y-104918571D01*
X115802857Y-104966190D01*
X115421904Y-104966190D01*
X116374285Y-104537619D02*
X116421904Y-104490000D01*
X116517142Y-104442380D01*
X116755238Y-104442380D01*
X116850476Y-104490000D01*
X116898095Y-104537619D01*
X116945714Y-104632857D01*
X116945714Y-104728095D01*
X116898095Y-104870952D01*
X116326666Y-105442380D01*
X116945714Y-105442380D01*
G04 #@! TO.C,R3*
X129143333Y-110792380D02*
X128810000Y-110316190D01*
X128571904Y-110792380D02*
X128571904Y-109792380D01*
X128952857Y-109792380D01*
X129048095Y-109840000D01*
X129095714Y-109887619D01*
X129143333Y-109982857D01*
X129143333Y-110125714D01*
X129095714Y-110220952D01*
X129048095Y-110268571D01*
X128952857Y-110316190D01*
X128571904Y-110316190D01*
X129476666Y-109792380D02*
X130095714Y-109792380D01*
X129762380Y-110173333D01*
X129905238Y-110173333D01*
X130000476Y-110220952D01*
X130048095Y-110268571D01*
X130095714Y-110363809D01*
X130095714Y-110601904D01*
X130048095Y-110697142D01*
X130000476Y-110744761D01*
X129905238Y-110792380D01*
X129619523Y-110792380D01*
X129524285Y-110744761D01*
X129476666Y-110697142D01*
G04 #@! TO.C,R4*
X129093333Y-105792380D02*
X128760000Y-105316190D01*
X128521904Y-105792380D02*
X128521904Y-104792380D01*
X128902857Y-104792380D01*
X128998095Y-104840000D01*
X129045714Y-104887619D01*
X129093333Y-104982857D01*
X129093333Y-105125714D01*
X129045714Y-105220952D01*
X128998095Y-105268571D01*
X128902857Y-105316190D01*
X128521904Y-105316190D01*
X129950476Y-105125714D02*
X129950476Y-105792380D01*
X129712380Y-104744761D02*
X129474285Y-105459047D01*
X130093333Y-105459047D01*
G04 #@! TO.C,R5*
X141383333Y-110752380D02*
X141050000Y-110276190D01*
X140811904Y-110752380D02*
X140811904Y-109752380D01*
X141192857Y-109752380D01*
X141288095Y-109800000D01*
X141335714Y-109847619D01*
X141383333Y-109942857D01*
X141383333Y-110085714D01*
X141335714Y-110180952D01*
X141288095Y-110228571D01*
X141192857Y-110276190D01*
X140811904Y-110276190D01*
X142288095Y-109752380D02*
X141811904Y-109752380D01*
X141764285Y-110228571D01*
X141811904Y-110180952D01*
X141907142Y-110133333D01*
X142145238Y-110133333D01*
X142240476Y-110180952D01*
X142288095Y-110228571D01*
X142335714Y-110323809D01*
X142335714Y-110561904D01*
X142288095Y-110657142D01*
X142240476Y-110704761D01*
X142145238Y-110752380D01*
X141907142Y-110752380D01*
X141811904Y-110704761D01*
X141764285Y-110657142D01*
G04 #@! TO.C,R6*
X192633333Y-68102380D02*
X192300000Y-67626190D01*
X192061904Y-68102380D02*
X192061904Y-67102380D01*
X192442857Y-67102380D01*
X192538095Y-67150000D01*
X192585714Y-67197619D01*
X192633333Y-67292857D01*
X192633333Y-67435714D01*
X192585714Y-67530952D01*
X192538095Y-67578571D01*
X192442857Y-67626190D01*
X192061904Y-67626190D01*
X193490476Y-67102380D02*
X193300000Y-67102380D01*
X193204761Y-67150000D01*
X193157142Y-67197619D01*
X193061904Y-67340476D01*
X193014285Y-67530952D01*
X193014285Y-67911904D01*
X193061904Y-68007142D01*
X193109523Y-68054761D01*
X193204761Y-68102380D01*
X193395238Y-68102380D01*
X193490476Y-68054761D01*
X193538095Y-68007142D01*
X193585714Y-67911904D01*
X193585714Y-67673809D01*
X193538095Y-67578571D01*
X193490476Y-67530952D01*
X193395238Y-67483333D01*
X193204761Y-67483333D01*
X193109523Y-67530952D01*
X193061904Y-67578571D01*
X193014285Y-67673809D01*
G04 #@! TO.C,R7*
X191483333Y-110352380D02*
X191150000Y-109876190D01*
X190911904Y-110352380D02*
X190911904Y-109352380D01*
X191292857Y-109352380D01*
X191388095Y-109400000D01*
X191435714Y-109447619D01*
X191483333Y-109542857D01*
X191483333Y-109685714D01*
X191435714Y-109780952D01*
X191388095Y-109828571D01*
X191292857Y-109876190D01*
X190911904Y-109876190D01*
X191816666Y-109352380D02*
X192483333Y-109352380D01*
X192054761Y-110352380D01*
G04 #@! TO.C,R8*
X192533333Y-80052380D02*
X192200000Y-79576190D01*
X191961904Y-80052380D02*
X191961904Y-79052380D01*
X192342857Y-79052380D01*
X192438095Y-79100000D01*
X192485714Y-79147619D01*
X192533333Y-79242857D01*
X192533333Y-79385714D01*
X192485714Y-79480952D01*
X192438095Y-79528571D01*
X192342857Y-79576190D01*
X191961904Y-79576190D01*
X193104761Y-79480952D02*
X193009523Y-79433333D01*
X192961904Y-79385714D01*
X192914285Y-79290476D01*
X192914285Y-79242857D01*
X192961904Y-79147619D01*
X193009523Y-79100000D01*
X193104761Y-79052380D01*
X193295238Y-79052380D01*
X193390476Y-79100000D01*
X193438095Y-79147619D01*
X193485714Y-79242857D01*
X193485714Y-79290476D01*
X193438095Y-79385714D01*
X193390476Y-79433333D01*
X193295238Y-79480952D01*
X193104761Y-79480952D01*
X193009523Y-79528571D01*
X192961904Y-79576190D01*
X192914285Y-79671428D01*
X192914285Y-79861904D01*
X192961904Y-79957142D01*
X193009523Y-80004761D01*
X193104761Y-80052380D01*
X193295238Y-80052380D01*
X193390476Y-80004761D01*
X193438095Y-79957142D01*
X193485714Y-79861904D01*
X193485714Y-79671428D01*
X193438095Y-79576190D01*
X193390476Y-79528571D01*
X193295238Y-79480952D01*
G04 #@! TO.C,R9*
X191683333Y-105352380D02*
X191350000Y-104876190D01*
X191111904Y-105352380D02*
X191111904Y-104352380D01*
X191492857Y-104352380D01*
X191588095Y-104400000D01*
X191635714Y-104447619D01*
X191683333Y-104542857D01*
X191683333Y-104685714D01*
X191635714Y-104780952D01*
X191588095Y-104828571D01*
X191492857Y-104876190D01*
X191111904Y-104876190D01*
X192159523Y-105352380D02*
X192350000Y-105352380D01*
X192445238Y-105304761D01*
X192492857Y-105257142D01*
X192588095Y-105114285D01*
X192635714Y-104923809D01*
X192635714Y-104542857D01*
X192588095Y-104447619D01*
X192540476Y-104400000D01*
X192445238Y-104352380D01*
X192254761Y-104352380D01*
X192159523Y-104400000D01*
X192111904Y-104447619D01*
X192064285Y-104542857D01*
X192064285Y-104780952D01*
X192111904Y-104876190D01*
X192159523Y-104923809D01*
X192254761Y-104971428D01*
X192445238Y-104971428D01*
X192540476Y-104923809D01*
X192588095Y-104876190D01*
X192635714Y-104780952D01*
G04 #@! TO.C,R10*
X187157142Y-80002380D02*
X186823809Y-79526190D01*
X186585714Y-80002380D02*
X186585714Y-79002380D01*
X186966666Y-79002380D01*
X187061904Y-79050000D01*
X187109523Y-79097619D01*
X187157142Y-79192857D01*
X187157142Y-79335714D01*
X187109523Y-79430952D01*
X187061904Y-79478571D01*
X186966666Y-79526190D01*
X186585714Y-79526190D01*
X188109523Y-80002380D02*
X187538095Y-80002380D01*
X187823809Y-80002380D02*
X187823809Y-79002380D01*
X187728571Y-79145238D01*
X187633333Y-79240476D01*
X187538095Y-79288095D01*
X188728571Y-79002380D02*
X188823809Y-79002380D01*
X188919047Y-79050000D01*
X188966666Y-79097619D01*
X189014285Y-79192857D01*
X189061904Y-79383333D01*
X189061904Y-79621428D01*
X189014285Y-79811904D01*
X188966666Y-79907142D01*
X188919047Y-79954761D01*
X188823809Y-80002380D01*
X188728571Y-80002380D01*
X188633333Y-79954761D01*
X188585714Y-79907142D01*
X188538095Y-79811904D01*
X188490476Y-79621428D01*
X188490476Y-79383333D01*
X188538095Y-79192857D01*
X188585714Y-79097619D01*
X188633333Y-79050000D01*
X188728571Y-79002380D01*
G04 #@! TO.C,R11*
X179467142Y-105542380D02*
X179133809Y-105066190D01*
X178895714Y-105542380D02*
X178895714Y-104542380D01*
X179276666Y-104542380D01*
X179371904Y-104590000D01*
X179419523Y-104637619D01*
X179467142Y-104732857D01*
X179467142Y-104875714D01*
X179419523Y-104970952D01*
X179371904Y-105018571D01*
X179276666Y-105066190D01*
X178895714Y-105066190D01*
X180419523Y-105542380D02*
X179848095Y-105542380D01*
X180133809Y-105542380D02*
X180133809Y-104542380D01*
X180038571Y-104685238D01*
X179943333Y-104780476D01*
X179848095Y-104828095D01*
X181371904Y-105542380D02*
X180800476Y-105542380D01*
X181086190Y-105542380D02*
X181086190Y-104542380D01*
X180990952Y-104685238D01*
X180895714Y-104780476D01*
X180800476Y-104828095D01*
G04 #@! TO.C,R12*
X129567142Y-73642380D02*
X129233809Y-73166190D01*
X128995714Y-73642380D02*
X128995714Y-72642380D01*
X129376666Y-72642380D01*
X129471904Y-72690000D01*
X129519523Y-72737619D01*
X129567142Y-72832857D01*
X129567142Y-72975714D01*
X129519523Y-73070952D01*
X129471904Y-73118571D01*
X129376666Y-73166190D01*
X128995714Y-73166190D01*
X130519523Y-73642380D02*
X129948095Y-73642380D01*
X130233809Y-73642380D02*
X130233809Y-72642380D01*
X130138571Y-72785238D01*
X130043333Y-72880476D01*
X129948095Y-72928095D01*
X130900476Y-72737619D02*
X130948095Y-72690000D01*
X131043333Y-72642380D01*
X131281428Y-72642380D01*
X131376666Y-72690000D01*
X131424285Y-72737619D01*
X131471904Y-72832857D01*
X131471904Y-72928095D01*
X131424285Y-73070952D01*
X130852857Y-73642380D01*
X131471904Y-73642380D01*
G04 #@! TO.C,R13*
X129467142Y-78242380D02*
X129133809Y-77766190D01*
X128895714Y-78242380D02*
X128895714Y-77242380D01*
X129276666Y-77242380D01*
X129371904Y-77290000D01*
X129419523Y-77337619D01*
X129467142Y-77432857D01*
X129467142Y-77575714D01*
X129419523Y-77670952D01*
X129371904Y-77718571D01*
X129276666Y-77766190D01*
X128895714Y-77766190D01*
X130419523Y-78242380D02*
X129848095Y-78242380D01*
X130133809Y-78242380D02*
X130133809Y-77242380D01*
X130038571Y-77385238D01*
X129943333Y-77480476D01*
X129848095Y-77528095D01*
X130752857Y-77242380D02*
X131371904Y-77242380D01*
X131038571Y-77623333D01*
X131181428Y-77623333D01*
X131276666Y-77670952D01*
X131324285Y-77718571D01*
X131371904Y-77813809D01*
X131371904Y-78051904D01*
X131324285Y-78147142D01*
X131276666Y-78194761D01*
X131181428Y-78242380D01*
X130895714Y-78242380D01*
X130800476Y-78194761D01*
X130752857Y-78147142D01*
G04 #@! TO.C,Y1*
X160551609Y-102845590D02*
X160551609Y-103321780D01*
X160218276Y-102321780D02*
X160551609Y-102845590D01*
X160884942Y-102321780D01*
X161742085Y-103321780D02*
X161170657Y-103321780D01*
X161456371Y-103321780D02*
X161456371Y-102321780D01*
X161361133Y-102464638D01*
X161265895Y-102559876D01*
X161170657Y-102607495D01*
G04 #@! TO.C,D5*
X158261904Y-78852380D02*
X158261904Y-77852380D01*
X158500000Y-77852380D01*
X158642857Y-77900000D01*
X158738095Y-77995238D01*
X158785714Y-78090476D01*
X158833333Y-78280952D01*
X158833333Y-78423809D01*
X158785714Y-78614285D01*
X158738095Y-78709523D01*
X158642857Y-78804761D01*
X158500000Y-78852380D01*
X158261904Y-78852380D01*
X159738095Y-77852380D02*
X159261904Y-77852380D01*
X159214285Y-78328571D01*
X159261904Y-78280952D01*
X159357142Y-78233333D01*
X159595238Y-78233333D01*
X159690476Y-78280952D01*
X159738095Y-78328571D01*
X159785714Y-78423809D01*
X159785714Y-78661904D01*
X159738095Y-78757142D01*
X159690476Y-78804761D01*
X159595238Y-78852380D01*
X159357142Y-78852380D01*
X159261904Y-78804761D01*
X159214285Y-78757142D01*
G04 #@! TO.C,D6*
X177661904Y-71202380D02*
X177661904Y-70202380D01*
X177900000Y-70202380D01*
X178042857Y-70250000D01*
X178138095Y-70345238D01*
X178185714Y-70440476D01*
X178233333Y-70630952D01*
X178233333Y-70773809D01*
X178185714Y-70964285D01*
X178138095Y-71059523D01*
X178042857Y-71154761D01*
X177900000Y-71202380D01*
X177661904Y-71202380D01*
X179090476Y-70202380D02*
X178900000Y-70202380D01*
X178804761Y-70250000D01*
X178757142Y-70297619D01*
X178661904Y-70440476D01*
X178614285Y-70630952D01*
X178614285Y-71011904D01*
X178661904Y-71107142D01*
X178709523Y-71154761D01*
X178804761Y-71202380D01*
X178995238Y-71202380D01*
X179090476Y-71154761D01*
X179138095Y-71107142D01*
X179185714Y-71011904D01*
X179185714Y-70773809D01*
X179138095Y-70678571D01*
X179090476Y-70630952D01*
X178995238Y-70583333D01*
X178804761Y-70583333D01*
X178709523Y-70630952D01*
X178661904Y-70678571D01*
X178614285Y-70773809D01*
G04 #@! TO.C,J6*
X172516666Y-75352380D02*
X172516666Y-76066666D01*
X172469047Y-76209523D01*
X172373809Y-76304761D01*
X172230952Y-76352380D01*
X172135714Y-76352380D01*
X173421428Y-75352380D02*
X173230952Y-75352380D01*
X173135714Y-75400000D01*
X173088095Y-75447619D01*
X172992857Y-75590476D01*
X172945238Y-75780952D01*
X172945238Y-76161904D01*
X172992857Y-76257142D01*
X173040476Y-76304761D01*
X173135714Y-76352380D01*
X173326190Y-76352380D01*
X173421428Y-76304761D01*
X173469047Y-76257142D01*
X173516666Y-76161904D01*
X173516666Y-75923809D01*
X173469047Y-75828571D01*
X173421428Y-75780952D01*
X173326190Y-75733333D01*
X173135714Y-75733333D01*
X173040476Y-75780952D01*
X172992857Y-75828571D01*
X172945238Y-75923809D01*
G04 #@! TO.C,SW6*
X167766666Y-110754761D02*
X167909523Y-110802380D01*
X168147619Y-110802380D01*
X168242857Y-110754761D01*
X168290476Y-110707142D01*
X168338095Y-110611904D01*
X168338095Y-110516666D01*
X168290476Y-110421428D01*
X168242857Y-110373809D01*
X168147619Y-110326190D01*
X167957142Y-110278571D01*
X167861904Y-110230952D01*
X167814285Y-110183333D01*
X167766666Y-110088095D01*
X167766666Y-109992857D01*
X167814285Y-109897619D01*
X167861904Y-109850000D01*
X167957142Y-109802380D01*
X168195238Y-109802380D01*
X168338095Y-109850000D01*
X168671428Y-109802380D02*
X168909523Y-110802380D01*
X169100000Y-110088095D01*
X169290476Y-110802380D01*
X169528571Y-109802380D01*
X170338095Y-109802380D02*
X170147619Y-109802380D01*
X170052380Y-109850000D01*
X170004761Y-109897619D01*
X169909523Y-110040476D01*
X169861904Y-110230952D01*
X169861904Y-110611904D01*
X169909523Y-110707142D01*
X169957142Y-110754761D01*
X170052380Y-110802380D01*
X170242857Y-110802380D01*
X170338095Y-110754761D01*
X170385714Y-110707142D01*
X170433333Y-110611904D01*
X170433333Y-110373809D01*
X170385714Y-110278571D01*
X170338095Y-110230952D01*
X170242857Y-110183333D01*
X170052380Y-110183333D01*
X169957142Y-110230952D01*
X169909523Y-110278571D01*
X169861904Y-110373809D01*
G04 #@! TO.C,U1*
D18*
X102538857Y-69365428D02*
X102538857Y-70599142D01*
X102611428Y-70744285D01*
X102684000Y-70816857D01*
X102829142Y-70889428D01*
X103119428Y-70889428D01*
X103264571Y-70816857D01*
X103337142Y-70744285D01*
X103409714Y-70599142D01*
X103409714Y-69365428D01*
X104933714Y-70889428D02*
X104062857Y-70889428D01*
X104498285Y-70889428D02*
X104498285Y-69365428D01*
X104353142Y-69583142D01*
X104208000Y-69728285D01*
X104062857Y-69800857D01*
G04 #@! TO.C,J2*
D15*
X101816666Y-61752380D02*
X101816666Y-62466666D01*
X101769047Y-62609523D01*
X101673809Y-62704761D01*
X101530952Y-62752380D01*
X101435714Y-62752380D01*
X102245238Y-61847619D02*
X102292857Y-61800000D01*
X102388095Y-61752380D01*
X102626190Y-61752380D01*
X102721428Y-61800000D01*
X102769047Y-61847619D01*
X102816666Y-61942857D01*
X102816666Y-62038095D01*
X102769047Y-62180952D01*
X102197619Y-62752380D01*
X102816666Y-62752380D01*
G04 #@! TO.C,LCDPot2*
X113798738Y-93105880D02*
X113322547Y-93105880D01*
X113322547Y-92105880D01*
X114703500Y-93010642D02*
X114655880Y-93058261D01*
X114513023Y-93105880D01*
X114417785Y-93105880D01*
X114274928Y-93058261D01*
X114179690Y-92963023D01*
X114132071Y-92867785D01*
X114084452Y-92677309D01*
X114084452Y-92534452D01*
X114132071Y-92343976D01*
X114179690Y-92248738D01*
X114274928Y-92153500D01*
X114417785Y-92105880D01*
X114513023Y-92105880D01*
X114655880Y-92153500D01*
X114703500Y-92201119D01*
X115132071Y-93105880D02*
X115132071Y-92105880D01*
X115370166Y-92105880D01*
X115513023Y-92153500D01*
X115608261Y-92248738D01*
X115655880Y-92343976D01*
X115703500Y-92534452D01*
X115703500Y-92677309D01*
X115655880Y-92867785D01*
X115608261Y-92963023D01*
X115513023Y-93058261D01*
X115370166Y-93105880D01*
X115132071Y-93105880D01*
X116132071Y-93105880D02*
X116132071Y-92105880D01*
X116513023Y-92105880D01*
X116608261Y-92153500D01*
X116655880Y-92201119D01*
X116703500Y-92296357D01*
X116703500Y-92439214D01*
X116655880Y-92534452D01*
X116608261Y-92582071D01*
X116513023Y-92629690D01*
X116132071Y-92629690D01*
X117274928Y-93105880D02*
X117179690Y-93058261D01*
X117132071Y-93010642D01*
X117084452Y-92915404D01*
X117084452Y-92629690D01*
X117132071Y-92534452D01*
X117179690Y-92486833D01*
X117274928Y-92439214D01*
X117417785Y-92439214D01*
X117513023Y-92486833D01*
X117560642Y-92534452D01*
X117608261Y-92629690D01*
X117608261Y-92915404D01*
X117560642Y-93010642D01*
X117513023Y-93058261D01*
X117417785Y-93105880D01*
X117274928Y-93105880D01*
X117893976Y-92439214D02*
X118274928Y-92439214D01*
X118036833Y-92105880D02*
X118036833Y-92963023D01*
X118084452Y-93058261D01*
X118179690Y-93105880D01*
X118274928Y-93105880D01*
X118560642Y-92201119D02*
X118608261Y-92153500D01*
X118703500Y-92105880D01*
X118941595Y-92105880D01*
X119036833Y-92153500D01*
X119084452Y-92201119D01*
X119132071Y-92296357D01*
X119132071Y-92391595D01*
X119084452Y-92534452D01*
X118513023Y-93105880D01*
X119132071Y-93105880D01*
G04 #@! TO.C,DS1*
X130435714Y-68352380D02*
X130435714Y-67352380D01*
X130673809Y-67352380D01*
X130816666Y-67400000D01*
X130911904Y-67495238D01*
X130959523Y-67590476D01*
X131007142Y-67780952D01*
X131007142Y-67923809D01*
X130959523Y-68114285D01*
X130911904Y-68209523D01*
X130816666Y-68304761D01*
X130673809Y-68352380D01*
X130435714Y-68352380D01*
X131388095Y-68304761D02*
X131530952Y-68352380D01*
X131769047Y-68352380D01*
X131864285Y-68304761D01*
X131911904Y-68257142D01*
X131959523Y-68161904D01*
X131959523Y-68066666D01*
X131911904Y-67971428D01*
X131864285Y-67923809D01*
X131769047Y-67876190D01*
X131578571Y-67828571D01*
X131483333Y-67780952D01*
X131435714Y-67733333D01*
X131388095Y-67638095D01*
X131388095Y-67542857D01*
X131435714Y-67447619D01*
X131483333Y-67400000D01*
X131578571Y-67352380D01*
X131816666Y-67352380D01*
X131959523Y-67400000D01*
X132911904Y-68352380D02*
X132340476Y-68352380D01*
X132626190Y-68352380D02*
X132626190Y-67352380D01*
X132530952Y-67495238D01*
X132435714Y-67590476D01*
X132340476Y-67638095D01*
G04 #@! TO.C,J7*
X172016666Y-77952380D02*
X172016666Y-78666666D01*
X171969047Y-78809523D01*
X171873809Y-78904761D01*
X171730952Y-78952380D01*
X171635714Y-78952380D01*
X172397619Y-77952380D02*
X173064285Y-77952380D01*
X172635714Y-78952380D01*
G04 #@! TO.C,J9*
X159066666Y-74202380D02*
X159066666Y-74916666D01*
X159019047Y-75059523D01*
X158923809Y-75154761D01*
X158780952Y-75202380D01*
X158685714Y-75202380D01*
X159590476Y-75202380D02*
X159780952Y-75202380D01*
X159876190Y-75154761D01*
X159923809Y-75107142D01*
X160019047Y-74964285D01*
X160066666Y-74773809D01*
X160066666Y-74392857D01*
X160019047Y-74297619D01*
X159971428Y-74250000D01*
X159876190Y-74202380D01*
X159685714Y-74202380D01*
X159590476Y-74250000D01*
X159542857Y-74297619D01*
X159495238Y-74392857D01*
X159495238Y-74630952D01*
X159542857Y-74726190D01*
X159590476Y-74773809D01*
X159685714Y-74821428D01*
X159876190Y-74821428D01*
X159971428Y-74773809D01*
X160019047Y-74726190D01*
X160066666Y-74630952D01*
G04 #@! TO.C,U2*
D18*
X102788857Y-82265428D02*
X102788857Y-83499142D01*
X102861428Y-83644285D01*
X102934000Y-83716857D01*
X103079142Y-83789428D01*
X103369428Y-83789428D01*
X103514571Y-83716857D01*
X103587142Y-83644285D01*
X103659714Y-83499142D01*
X103659714Y-82265428D01*
X104312857Y-82410571D02*
X104385428Y-82338000D01*
X104530571Y-82265428D01*
X104893428Y-82265428D01*
X105038571Y-82338000D01*
X105111142Y-82410571D01*
X105183714Y-82555714D01*
X105183714Y-82700857D01*
X105111142Y-82918571D01*
X104240285Y-83789428D01*
X105183714Y-83789428D01*
G04 #@! TO.C,J1*
D15*
X199066666Y-58402380D02*
X199066666Y-59116666D01*
X199019047Y-59259523D01*
X198923809Y-59354761D01*
X198780952Y-59402380D01*
X198685714Y-59402380D01*
X200066666Y-59402380D02*
X199495238Y-59402380D01*
X199780952Y-59402380D02*
X199780952Y-58402380D01*
X199685714Y-58545238D01*
X199590476Y-58640476D01*
X199495238Y-58688095D01*
G04 #@! TO.C,C14*
X125357142Y-57857142D02*
X125309523Y-57904761D01*
X125166666Y-57952380D01*
X125071428Y-57952380D01*
X124928571Y-57904761D01*
X124833333Y-57809523D01*
X124785714Y-57714285D01*
X124738095Y-57523809D01*
X124738095Y-57380952D01*
X124785714Y-57190476D01*
X124833333Y-57095238D01*
X124928571Y-57000000D01*
X125071428Y-56952380D01*
X125166666Y-56952380D01*
X125309523Y-57000000D01*
X125357142Y-57047619D01*
X126309523Y-57952380D02*
X125738095Y-57952380D01*
X126023809Y-57952380D02*
X126023809Y-56952380D01*
X125928571Y-57095238D01*
X125833333Y-57190476D01*
X125738095Y-57238095D01*
X127166666Y-57285714D02*
X127166666Y-57952380D01*
X126928571Y-56904761D02*
X126690476Y-57619047D01*
X127309523Y-57619047D01*
G04 #@! TO.C,C16*
X135857142Y-57857142D02*
X135809523Y-57904761D01*
X135666666Y-57952380D01*
X135571428Y-57952380D01*
X135428571Y-57904761D01*
X135333333Y-57809523D01*
X135285714Y-57714285D01*
X135238095Y-57523809D01*
X135238095Y-57380952D01*
X135285714Y-57190476D01*
X135333333Y-57095238D01*
X135428571Y-57000000D01*
X135571428Y-56952380D01*
X135666666Y-56952380D01*
X135809523Y-57000000D01*
X135857142Y-57047619D01*
X136809523Y-57952380D02*
X136238095Y-57952380D01*
X136523809Y-57952380D02*
X136523809Y-56952380D01*
X136428571Y-57095238D01*
X136333333Y-57190476D01*
X136238095Y-57238095D01*
X137666666Y-56952380D02*
X137476190Y-56952380D01*
X137380952Y-57000000D01*
X137333333Y-57047619D01*
X137238095Y-57190476D01*
X137190476Y-57380952D01*
X137190476Y-57761904D01*
X137238095Y-57857142D01*
X137285714Y-57904761D01*
X137380952Y-57952380D01*
X137571428Y-57952380D01*
X137666666Y-57904761D01*
X137714285Y-57857142D01*
X137761904Y-57761904D01*
X137761904Y-57523809D01*
X137714285Y-57428571D01*
X137666666Y-57380952D01*
X137571428Y-57333333D01*
X137380952Y-57333333D01*
X137285714Y-57380952D01*
X137238095Y-57428571D01*
X137190476Y-57523809D01*
G04 #@! TO.C,R14*
X140457142Y-105752380D02*
X140123809Y-105276190D01*
X139885714Y-105752380D02*
X139885714Y-104752380D01*
X140266666Y-104752380D01*
X140361904Y-104800000D01*
X140409523Y-104847619D01*
X140457142Y-104942857D01*
X140457142Y-105085714D01*
X140409523Y-105180952D01*
X140361904Y-105228571D01*
X140266666Y-105276190D01*
X139885714Y-105276190D01*
X141409523Y-105752380D02*
X140838095Y-105752380D01*
X141123809Y-105752380D02*
X141123809Y-104752380D01*
X141028571Y-104895238D01*
X140933333Y-104990476D01*
X140838095Y-105038095D01*
X142266666Y-105085714D02*
X142266666Y-105752380D01*
X142028571Y-104704761D02*
X141790476Y-105419047D01*
X142409523Y-105419047D01*
G04 #@! TO.C,R15*
X157907142Y-111002380D02*
X157573809Y-110526190D01*
X157335714Y-111002380D02*
X157335714Y-110002380D01*
X157716666Y-110002380D01*
X157811904Y-110050000D01*
X157859523Y-110097619D01*
X157907142Y-110192857D01*
X157907142Y-110335714D01*
X157859523Y-110430952D01*
X157811904Y-110478571D01*
X157716666Y-110526190D01*
X157335714Y-110526190D01*
X158859523Y-111002380D02*
X158288095Y-111002380D01*
X158573809Y-111002380D02*
X158573809Y-110002380D01*
X158478571Y-110145238D01*
X158383333Y-110240476D01*
X158288095Y-110288095D01*
X159764285Y-110002380D02*
X159288095Y-110002380D01*
X159240476Y-110478571D01*
X159288095Y-110430952D01*
X159383333Y-110383333D01*
X159621428Y-110383333D01*
X159716666Y-110430952D01*
X159764285Y-110478571D01*
X159811904Y-110573809D01*
X159811904Y-110811904D01*
X159764285Y-110907142D01*
X159716666Y-110954761D01*
X159621428Y-111002380D01*
X159383333Y-111002380D01*
X159288095Y-110954761D01*
X159240476Y-110907142D01*
G04 #@! TO.C,R16*
X179757142Y-110452380D02*
X179423809Y-109976190D01*
X179185714Y-110452380D02*
X179185714Y-109452380D01*
X179566666Y-109452380D01*
X179661904Y-109500000D01*
X179709523Y-109547619D01*
X179757142Y-109642857D01*
X179757142Y-109785714D01*
X179709523Y-109880952D01*
X179661904Y-109928571D01*
X179566666Y-109976190D01*
X179185714Y-109976190D01*
X180709523Y-110452380D02*
X180138095Y-110452380D01*
X180423809Y-110452380D02*
X180423809Y-109452380D01*
X180328571Y-109595238D01*
X180233333Y-109690476D01*
X180138095Y-109738095D01*
X181566666Y-109452380D02*
X181376190Y-109452380D01*
X181280952Y-109500000D01*
X181233333Y-109547619D01*
X181138095Y-109690476D01*
X181090476Y-109880952D01*
X181090476Y-110261904D01*
X181138095Y-110357142D01*
X181185714Y-110404761D01*
X181280952Y-110452380D01*
X181471428Y-110452380D01*
X181566666Y-110404761D01*
X181614285Y-110357142D01*
X181661904Y-110261904D01*
X181661904Y-110023809D01*
X181614285Y-109928571D01*
X181566666Y-109880952D01*
X181471428Y-109833333D01*
X181280952Y-109833333D01*
X181185714Y-109880952D01*
X181138095Y-109928571D01*
X181090476Y-110023809D01*
G04 #@! TO.C,SpeedPot1*
X98618095Y-96144761D02*
X98760952Y-96192380D01*
X98999047Y-96192380D01*
X99094285Y-96144761D01*
X99141904Y-96097142D01*
X99189523Y-96001904D01*
X99189523Y-95906666D01*
X99141904Y-95811428D01*
X99094285Y-95763809D01*
X98999047Y-95716190D01*
X98808571Y-95668571D01*
X98713333Y-95620952D01*
X98665714Y-95573333D01*
X98618095Y-95478095D01*
X98618095Y-95382857D01*
X98665714Y-95287619D01*
X98713333Y-95240000D01*
X98808571Y-95192380D01*
X99046666Y-95192380D01*
X99189523Y-95240000D01*
X99618095Y-95525714D02*
X99618095Y-96525714D01*
X99618095Y-95573333D02*
X99713333Y-95525714D01*
X99903809Y-95525714D01*
X99999047Y-95573333D01*
X100046666Y-95620952D01*
X100094285Y-95716190D01*
X100094285Y-96001904D01*
X100046666Y-96097142D01*
X99999047Y-96144761D01*
X99903809Y-96192380D01*
X99713333Y-96192380D01*
X99618095Y-96144761D01*
X100903809Y-96144761D02*
X100808571Y-96192380D01*
X100618095Y-96192380D01*
X100522857Y-96144761D01*
X100475238Y-96049523D01*
X100475238Y-95668571D01*
X100522857Y-95573333D01*
X100618095Y-95525714D01*
X100808571Y-95525714D01*
X100903809Y-95573333D01*
X100951428Y-95668571D01*
X100951428Y-95763809D01*
X100475238Y-95859047D01*
X101760952Y-96144761D02*
X101665714Y-96192380D01*
X101475238Y-96192380D01*
X101380000Y-96144761D01*
X101332380Y-96049523D01*
X101332380Y-95668571D01*
X101380000Y-95573333D01*
X101475238Y-95525714D01*
X101665714Y-95525714D01*
X101760952Y-95573333D01*
X101808571Y-95668571D01*
X101808571Y-95763809D01*
X101332380Y-95859047D01*
X102665714Y-96192380D02*
X102665714Y-95192380D01*
X102665714Y-96144761D02*
X102570476Y-96192380D01*
X102380000Y-96192380D01*
X102284761Y-96144761D01*
X102237142Y-96097142D01*
X102189523Y-96001904D01*
X102189523Y-95716190D01*
X102237142Y-95620952D01*
X102284761Y-95573333D01*
X102380000Y-95525714D01*
X102570476Y-95525714D01*
X102665714Y-95573333D01*
X103141904Y-96192380D02*
X103141904Y-95192380D01*
X103522857Y-95192380D01*
X103618095Y-95240000D01*
X103665714Y-95287619D01*
X103713333Y-95382857D01*
X103713333Y-95525714D01*
X103665714Y-95620952D01*
X103618095Y-95668571D01*
X103522857Y-95716190D01*
X103141904Y-95716190D01*
X104284761Y-96192380D02*
X104189523Y-96144761D01*
X104141904Y-96097142D01*
X104094285Y-96001904D01*
X104094285Y-95716190D01*
X104141904Y-95620952D01*
X104189523Y-95573333D01*
X104284761Y-95525714D01*
X104427619Y-95525714D01*
X104522857Y-95573333D01*
X104570476Y-95620952D01*
X104618095Y-95716190D01*
X104618095Y-96001904D01*
X104570476Y-96097142D01*
X104522857Y-96144761D01*
X104427619Y-96192380D01*
X104284761Y-96192380D01*
X104903809Y-95525714D02*
X105284761Y-95525714D01*
X105046666Y-95192380D02*
X105046666Y-96049523D01*
X105094285Y-96144761D01*
X105189523Y-96192380D01*
X105284761Y-96192380D01*
X106141904Y-96192380D02*
X105570476Y-96192380D01*
X105856190Y-96192380D02*
X105856190Y-95192380D01*
X105760952Y-95335238D01*
X105665714Y-95430476D01*
X105570476Y-95478095D01*
G04 #@! TO.C,D4*
X205711904Y-111852380D02*
X205711904Y-110852380D01*
X205950000Y-110852380D01*
X206092857Y-110900000D01*
X206188095Y-110995238D01*
X206235714Y-111090476D01*
X206283333Y-111280952D01*
X206283333Y-111423809D01*
X206235714Y-111614285D01*
X206188095Y-111709523D01*
X206092857Y-111804761D01*
X205950000Y-111852380D01*
X205711904Y-111852380D01*
X207140476Y-111185714D02*
X207140476Y-111852380D01*
X206902380Y-110804761D02*
X206664285Y-111519047D01*
X207283333Y-111519047D01*
G04 #@! TO.C,C3*
X200383333Y-96557142D02*
X200335714Y-96604761D01*
X200192857Y-96652380D01*
X200097619Y-96652380D01*
X199954761Y-96604761D01*
X199859523Y-96509523D01*
X199811904Y-96414285D01*
X199764285Y-96223809D01*
X199764285Y-96080952D01*
X199811904Y-95890476D01*
X199859523Y-95795238D01*
X199954761Y-95700000D01*
X200097619Y-95652380D01*
X200192857Y-95652380D01*
X200335714Y-95700000D01*
X200383333Y-95747619D01*
X200716666Y-95652380D02*
X201335714Y-95652380D01*
X201002380Y-96033333D01*
X201145238Y-96033333D01*
X201240476Y-96080952D01*
X201288095Y-96128571D01*
X201335714Y-96223809D01*
X201335714Y-96461904D01*
X201288095Y-96557142D01*
X201240476Y-96604761D01*
X201145238Y-96652380D01*
X200859523Y-96652380D01*
X200764285Y-96604761D01*
X200716666Y-96557142D01*
G04 #@! TO.C,C2*
X200383333Y-100807142D02*
X200335714Y-100854761D01*
X200192857Y-100902380D01*
X200097619Y-100902380D01*
X199954761Y-100854761D01*
X199859523Y-100759523D01*
X199811904Y-100664285D01*
X199764285Y-100473809D01*
X199764285Y-100330952D01*
X199811904Y-100140476D01*
X199859523Y-100045238D01*
X199954761Y-99950000D01*
X200097619Y-99902380D01*
X200192857Y-99902380D01*
X200335714Y-99950000D01*
X200383333Y-99997619D01*
X200764285Y-99997619D02*
X200811904Y-99950000D01*
X200907142Y-99902380D01*
X201145238Y-99902380D01*
X201240476Y-99950000D01*
X201288095Y-99997619D01*
X201335714Y-100092857D01*
X201335714Y-100188095D01*
X201288095Y-100330952D01*
X200716666Y-100902380D01*
X201335714Y-100902380D01*
G04 #@! TO.C,C10*
X169207142Y-104207142D02*
X169159523Y-104254761D01*
X169016666Y-104302380D01*
X168921428Y-104302380D01*
X168778571Y-104254761D01*
X168683333Y-104159523D01*
X168635714Y-104064285D01*
X168588095Y-103873809D01*
X168588095Y-103730952D01*
X168635714Y-103540476D01*
X168683333Y-103445238D01*
X168778571Y-103350000D01*
X168921428Y-103302380D01*
X169016666Y-103302380D01*
X169159523Y-103350000D01*
X169207142Y-103397619D01*
X170159523Y-104302380D02*
X169588095Y-104302380D01*
X169873809Y-104302380D02*
X169873809Y-103302380D01*
X169778571Y-103445238D01*
X169683333Y-103540476D01*
X169588095Y-103588095D01*
X170778571Y-103302380D02*
X170873809Y-103302380D01*
X170969047Y-103350000D01*
X171016666Y-103397619D01*
X171064285Y-103492857D01*
X171111904Y-103683333D01*
X171111904Y-103921428D01*
X171064285Y-104111904D01*
X171016666Y-104207142D01*
X170969047Y-104254761D01*
X170873809Y-104302380D01*
X170778571Y-104302380D01*
X170683333Y-104254761D01*
X170635714Y-104207142D01*
X170588095Y-104111904D01*
X170540476Y-103921428D01*
X170540476Y-103683333D01*
X170588095Y-103492857D01*
X170635714Y-103397619D01*
X170683333Y-103350000D01*
X170778571Y-103302380D01*
G04 #@! TO.C,C11*
X150557142Y-103957142D02*
X150509523Y-104004761D01*
X150366666Y-104052380D01*
X150271428Y-104052380D01*
X150128571Y-104004761D01*
X150033333Y-103909523D01*
X149985714Y-103814285D01*
X149938095Y-103623809D01*
X149938095Y-103480952D01*
X149985714Y-103290476D01*
X150033333Y-103195238D01*
X150128571Y-103100000D01*
X150271428Y-103052380D01*
X150366666Y-103052380D01*
X150509523Y-103100000D01*
X150557142Y-103147619D01*
X151509523Y-104052380D02*
X150938095Y-104052380D01*
X151223809Y-104052380D02*
X151223809Y-103052380D01*
X151128571Y-103195238D01*
X151033333Y-103290476D01*
X150938095Y-103338095D01*
X152461904Y-104052380D02*
X151890476Y-104052380D01*
X152176190Y-104052380D02*
X152176190Y-103052380D01*
X152080952Y-103195238D01*
X151985714Y-103290476D01*
X151890476Y-103338095D01*
G04 #@! TO.C,C1*
X117983333Y-84607142D02*
X117935714Y-84654761D01*
X117792857Y-84702380D01*
X117697619Y-84702380D01*
X117554761Y-84654761D01*
X117459523Y-84559523D01*
X117411904Y-84464285D01*
X117364285Y-84273809D01*
X117364285Y-84130952D01*
X117411904Y-83940476D01*
X117459523Y-83845238D01*
X117554761Y-83750000D01*
X117697619Y-83702380D01*
X117792857Y-83702380D01*
X117935714Y-83750000D01*
X117983333Y-83797619D01*
X118935714Y-84702380D02*
X118364285Y-84702380D01*
X118650000Y-84702380D02*
X118650000Y-83702380D01*
X118554761Y-83845238D01*
X118459523Y-83940476D01*
X118364285Y-83988095D01*
G04 #@! TO.C,C12*
X117157142Y-77707142D02*
X117109523Y-77754761D01*
X116966666Y-77802380D01*
X116871428Y-77802380D01*
X116728571Y-77754761D01*
X116633333Y-77659523D01*
X116585714Y-77564285D01*
X116538095Y-77373809D01*
X116538095Y-77230952D01*
X116585714Y-77040476D01*
X116633333Y-76945238D01*
X116728571Y-76850000D01*
X116871428Y-76802380D01*
X116966666Y-76802380D01*
X117109523Y-76850000D01*
X117157142Y-76897619D01*
X118109523Y-77802380D02*
X117538095Y-77802380D01*
X117823809Y-77802380D02*
X117823809Y-76802380D01*
X117728571Y-76945238D01*
X117633333Y-77040476D01*
X117538095Y-77088095D01*
X118490476Y-76897619D02*
X118538095Y-76850000D01*
X118633333Y-76802380D01*
X118871428Y-76802380D01*
X118966666Y-76850000D01*
X119014285Y-76897619D01*
X119061904Y-76992857D01*
X119061904Y-77088095D01*
X119014285Y-77230952D01*
X118442857Y-77802380D01*
X119061904Y-77802380D01*
G04 #@! TO.C,C13*
X110657142Y-75807142D02*
X110609523Y-75854761D01*
X110466666Y-75902380D01*
X110371428Y-75902380D01*
X110228571Y-75854761D01*
X110133333Y-75759523D01*
X110085714Y-75664285D01*
X110038095Y-75473809D01*
X110038095Y-75330952D01*
X110085714Y-75140476D01*
X110133333Y-75045238D01*
X110228571Y-74950000D01*
X110371428Y-74902380D01*
X110466666Y-74902380D01*
X110609523Y-74950000D01*
X110657142Y-74997619D01*
X111609523Y-75902380D02*
X111038095Y-75902380D01*
X111323809Y-75902380D02*
X111323809Y-74902380D01*
X111228571Y-75045238D01*
X111133333Y-75140476D01*
X111038095Y-75188095D01*
X111942857Y-74902380D02*
X112561904Y-74902380D01*
X112228571Y-75283333D01*
X112371428Y-75283333D01*
X112466666Y-75330952D01*
X112514285Y-75378571D01*
X112561904Y-75473809D01*
X112561904Y-75711904D01*
X112514285Y-75807142D01*
X112466666Y-75854761D01*
X112371428Y-75902380D01*
X112085714Y-75902380D01*
X111990476Y-75854761D01*
X111942857Y-75807142D01*
G04 #@! TO.C,C15*
X110857142Y-84357142D02*
X110809523Y-84404761D01*
X110666666Y-84452380D01*
X110571428Y-84452380D01*
X110428571Y-84404761D01*
X110333333Y-84309523D01*
X110285714Y-84214285D01*
X110238095Y-84023809D01*
X110238095Y-83880952D01*
X110285714Y-83690476D01*
X110333333Y-83595238D01*
X110428571Y-83500000D01*
X110571428Y-83452380D01*
X110666666Y-83452380D01*
X110809523Y-83500000D01*
X110857142Y-83547619D01*
X111809523Y-84452380D02*
X111238095Y-84452380D01*
X111523809Y-84452380D02*
X111523809Y-83452380D01*
X111428571Y-83595238D01*
X111333333Y-83690476D01*
X111238095Y-83738095D01*
X112714285Y-83452380D02*
X112238095Y-83452380D01*
X112190476Y-83928571D01*
X112238095Y-83880952D01*
X112333333Y-83833333D01*
X112571428Y-83833333D01*
X112666666Y-83880952D01*
X112714285Y-83928571D01*
X112761904Y-84023809D01*
X112761904Y-84261904D01*
X112714285Y-84357142D01*
X112666666Y-84404761D01*
X112571428Y-84452380D01*
X112333333Y-84452380D01*
X112238095Y-84404761D01*
X112190476Y-84357142D01*
G04 #@! TO.C,C4*
X200583333Y-105357142D02*
X200535714Y-105404761D01*
X200392857Y-105452380D01*
X200297619Y-105452380D01*
X200154761Y-105404761D01*
X200059523Y-105309523D01*
X200011904Y-105214285D01*
X199964285Y-105023809D01*
X199964285Y-104880952D01*
X200011904Y-104690476D01*
X200059523Y-104595238D01*
X200154761Y-104500000D01*
X200297619Y-104452380D01*
X200392857Y-104452380D01*
X200535714Y-104500000D01*
X200583333Y-104547619D01*
X201440476Y-104785714D02*
X201440476Y-105452380D01*
X201202380Y-104404761D02*
X200964285Y-105119047D01*
X201583333Y-105119047D01*
G04 #@! TO.C,C5*
X200293333Y-110877142D02*
X200245714Y-110924761D01*
X200102857Y-110972380D01*
X200007619Y-110972380D01*
X199864761Y-110924761D01*
X199769523Y-110829523D01*
X199721904Y-110734285D01*
X199674285Y-110543809D01*
X199674285Y-110400952D01*
X199721904Y-110210476D01*
X199769523Y-110115238D01*
X199864761Y-110020000D01*
X200007619Y-109972380D01*
X200102857Y-109972380D01*
X200245714Y-110020000D01*
X200293333Y-110067619D01*
X201198095Y-109972380D02*
X200721904Y-109972380D01*
X200674285Y-110448571D01*
X200721904Y-110400952D01*
X200817142Y-110353333D01*
X201055238Y-110353333D01*
X201150476Y-110400952D01*
X201198095Y-110448571D01*
X201245714Y-110543809D01*
X201245714Y-110781904D01*
X201198095Y-110877142D01*
X201150476Y-110924761D01*
X201055238Y-110972380D01*
X200817142Y-110972380D01*
X200721904Y-110924761D01*
X200674285Y-110877142D01*
G04 #@! TO.C,J8*
X125416666Y-81952380D02*
X125416666Y-82666666D01*
X125369047Y-82809523D01*
X125273809Y-82904761D01*
X125130952Y-82952380D01*
X125035714Y-82952380D01*
X126035714Y-82380952D02*
X125940476Y-82333333D01*
X125892857Y-82285714D01*
X125845238Y-82190476D01*
X125845238Y-82142857D01*
X125892857Y-82047619D01*
X125940476Y-82000000D01*
X126035714Y-81952380D01*
X126226190Y-81952380D01*
X126321428Y-82000000D01*
X126369047Y-82047619D01*
X126416666Y-82142857D01*
X126416666Y-82190476D01*
X126369047Y-82285714D01*
X126321428Y-82333333D01*
X126226190Y-82380952D01*
X126035714Y-82380952D01*
X125940476Y-82428571D01*
X125892857Y-82476190D01*
X125845238Y-82571428D01*
X125845238Y-82761904D01*
X125892857Y-82857142D01*
X125940476Y-82904761D01*
X126035714Y-82952380D01*
X126226190Y-82952380D01*
X126321428Y-82904761D01*
X126369047Y-82857142D01*
X126416666Y-82761904D01*
X126416666Y-82571428D01*
X126369047Y-82476190D01*
X126321428Y-82428571D01*
X126226190Y-82380952D01*
G04 #@! TO.C,SW1*
X110666666Y-125904761D02*
X110809523Y-125952380D01*
X111047619Y-125952380D01*
X111142857Y-125904761D01*
X111190476Y-125857142D01*
X111238095Y-125761904D01*
X111238095Y-125666666D01*
X111190476Y-125571428D01*
X111142857Y-125523809D01*
X111047619Y-125476190D01*
X110857142Y-125428571D01*
X110761904Y-125380952D01*
X110714285Y-125333333D01*
X110666666Y-125238095D01*
X110666666Y-125142857D01*
X110714285Y-125047619D01*
X110761904Y-125000000D01*
X110857142Y-124952380D01*
X111095238Y-124952380D01*
X111238095Y-125000000D01*
X111571428Y-124952380D02*
X111809523Y-125952380D01*
X112000000Y-125238095D01*
X112190476Y-125952380D01*
X112428571Y-124952380D01*
X113333333Y-125952380D02*
X112761904Y-125952380D01*
X113047619Y-125952380D02*
X113047619Y-124952380D01*
X112952380Y-125095238D01*
X112857142Y-125190476D01*
X112761904Y-125238095D01*
G04 #@! TO.C,SW2*
X123616666Y-125804761D02*
X123759523Y-125852380D01*
X123997619Y-125852380D01*
X124092857Y-125804761D01*
X124140476Y-125757142D01*
X124188095Y-125661904D01*
X124188095Y-125566666D01*
X124140476Y-125471428D01*
X124092857Y-125423809D01*
X123997619Y-125376190D01*
X123807142Y-125328571D01*
X123711904Y-125280952D01*
X123664285Y-125233333D01*
X123616666Y-125138095D01*
X123616666Y-125042857D01*
X123664285Y-124947619D01*
X123711904Y-124900000D01*
X123807142Y-124852380D01*
X124045238Y-124852380D01*
X124188095Y-124900000D01*
X124521428Y-124852380D02*
X124759523Y-125852380D01*
X124950000Y-125138095D01*
X125140476Y-125852380D01*
X125378571Y-124852380D01*
X125711904Y-124947619D02*
X125759523Y-124900000D01*
X125854761Y-124852380D01*
X126092857Y-124852380D01*
X126188095Y-124900000D01*
X126235714Y-124947619D01*
X126283333Y-125042857D01*
X126283333Y-125138095D01*
X126235714Y-125280952D01*
X125664285Y-125852380D01*
X126283333Y-125852380D01*
G04 #@! TO.C,SW3*
X136316666Y-125804761D02*
X136459523Y-125852380D01*
X136697619Y-125852380D01*
X136792857Y-125804761D01*
X136840476Y-125757142D01*
X136888095Y-125661904D01*
X136888095Y-125566666D01*
X136840476Y-125471428D01*
X136792857Y-125423809D01*
X136697619Y-125376190D01*
X136507142Y-125328571D01*
X136411904Y-125280952D01*
X136364285Y-125233333D01*
X136316666Y-125138095D01*
X136316666Y-125042857D01*
X136364285Y-124947619D01*
X136411904Y-124900000D01*
X136507142Y-124852380D01*
X136745238Y-124852380D01*
X136888095Y-124900000D01*
X137221428Y-124852380D02*
X137459523Y-125852380D01*
X137650000Y-125138095D01*
X137840476Y-125852380D01*
X138078571Y-124852380D01*
X138364285Y-124852380D02*
X138983333Y-124852380D01*
X138650000Y-125233333D01*
X138792857Y-125233333D01*
X138888095Y-125280952D01*
X138935714Y-125328571D01*
X138983333Y-125423809D01*
X138983333Y-125661904D01*
X138935714Y-125757142D01*
X138888095Y-125804761D01*
X138792857Y-125852380D01*
X138507142Y-125852380D01*
X138411904Y-125804761D01*
X138364285Y-125757142D01*
G04 #@! TO.C,SW4*
X149266666Y-125754761D02*
X149409523Y-125802380D01*
X149647619Y-125802380D01*
X149742857Y-125754761D01*
X149790476Y-125707142D01*
X149838095Y-125611904D01*
X149838095Y-125516666D01*
X149790476Y-125421428D01*
X149742857Y-125373809D01*
X149647619Y-125326190D01*
X149457142Y-125278571D01*
X149361904Y-125230952D01*
X149314285Y-125183333D01*
X149266666Y-125088095D01*
X149266666Y-124992857D01*
X149314285Y-124897619D01*
X149361904Y-124850000D01*
X149457142Y-124802380D01*
X149695238Y-124802380D01*
X149838095Y-124850000D01*
X150171428Y-124802380D02*
X150409523Y-125802380D01*
X150600000Y-125088095D01*
X150790476Y-125802380D01*
X151028571Y-124802380D01*
X151838095Y-125135714D02*
X151838095Y-125802380D01*
X151600000Y-124754761D02*
X151361904Y-125469047D01*
X151980952Y-125469047D01*
G04 #@! TO.C,SW5*
X161216666Y-125904761D02*
X161359523Y-125952380D01*
X161597619Y-125952380D01*
X161692857Y-125904761D01*
X161740476Y-125857142D01*
X161788095Y-125761904D01*
X161788095Y-125666666D01*
X161740476Y-125571428D01*
X161692857Y-125523809D01*
X161597619Y-125476190D01*
X161407142Y-125428571D01*
X161311904Y-125380952D01*
X161264285Y-125333333D01*
X161216666Y-125238095D01*
X161216666Y-125142857D01*
X161264285Y-125047619D01*
X161311904Y-125000000D01*
X161407142Y-124952380D01*
X161645238Y-124952380D01*
X161788095Y-125000000D01*
X162121428Y-124952380D02*
X162359523Y-125952380D01*
X162550000Y-125238095D01*
X162740476Y-125952380D01*
X162978571Y-124952380D01*
X163835714Y-124952380D02*
X163359523Y-124952380D01*
X163311904Y-125428571D01*
X163359523Y-125380952D01*
X163454761Y-125333333D01*
X163692857Y-125333333D01*
X163788095Y-125380952D01*
X163835714Y-125428571D01*
X163883333Y-125523809D01*
X163883333Y-125761904D01*
X163835714Y-125857142D01*
X163788095Y-125904761D01*
X163692857Y-125952380D01*
X163454761Y-125952380D01*
X163359523Y-125904761D01*
X163311904Y-125857142D01*
G04 #@! TO.C,SW7*
X173216666Y-125854761D02*
X173359523Y-125902380D01*
X173597619Y-125902380D01*
X173692857Y-125854761D01*
X173740476Y-125807142D01*
X173788095Y-125711904D01*
X173788095Y-125616666D01*
X173740476Y-125521428D01*
X173692857Y-125473809D01*
X173597619Y-125426190D01*
X173407142Y-125378571D01*
X173311904Y-125330952D01*
X173264285Y-125283333D01*
X173216666Y-125188095D01*
X173216666Y-125092857D01*
X173264285Y-124997619D01*
X173311904Y-124950000D01*
X173407142Y-124902380D01*
X173645238Y-124902380D01*
X173788095Y-124950000D01*
X174121428Y-124902380D02*
X174359523Y-125902380D01*
X174550000Y-125188095D01*
X174740476Y-125902380D01*
X174978571Y-124902380D01*
X175264285Y-124902380D02*
X175930952Y-124902380D01*
X175502380Y-125902380D01*
G04 #@! TO.C,SW8*
X185166666Y-125904761D02*
X185309523Y-125952380D01*
X185547619Y-125952380D01*
X185642857Y-125904761D01*
X185690476Y-125857142D01*
X185738095Y-125761904D01*
X185738095Y-125666666D01*
X185690476Y-125571428D01*
X185642857Y-125523809D01*
X185547619Y-125476190D01*
X185357142Y-125428571D01*
X185261904Y-125380952D01*
X185214285Y-125333333D01*
X185166666Y-125238095D01*
X185166666Y-125142857D01*
X185214285Y-125047619D01*
X185261904Y-125000000D01*
X185357142Y-124952380D01*
X185595238Y-124952380D01*
X185738095Y-125000000D01*
X186071428Y-124952380D02*
X186309523Y-125952380D01*
X186500000Y-125238095D01*
X186690476Y-125952380D01*
X186928571Y-124952380D01*
X187452380Y-125380952D02*
X187357142Y-125333333D01*
X187309523Y-125285714D01*
X187261904Y-125190476D01*
X187261904Y-125142857D01*
X187309523Y-125047619D01*
X187357142Y-125000000D01*
X187452380Y-124952380D01*
X187642857Y-124952380D01*
X187738095Y-125000000D01*
X187785714Y-125047619D01*
X187833333Y-125142857D01*
X187833333Y-125190476D01*
X187785714Y-125285714D01*
X187738095Y-125333333D01*
X187642857Y-125380952D01*
X187452380Y-125380952D01*
X187357142Y-125428571D01*
X187309523Y-125476190D01*
X187261904Y-125571428D01*
X187261904Y-125761904D01*
X187309523Y-125857142D01*
X187357142Y-125904761D01*
X187452380Y-125952380D01*
X187642857Y-125952380D01*
X187738095Y-125904761D01*
X187785714Y-125857142D01*
X187833333Y-125761904D01*
X187833333Y-125571428D01*
X187785714Y-125476190D01*
X187738095Y-125428571D01*
X187642857Y-125380952D01*
G04 #@! TO.C,SW9*
X197016666Y-125854761D02*
X197159523Y-125902380D01*
X197397619Y-125902380D01*
X197492857Y-125854761D01*
X197540476Y-125807142D01*
X197588095Y-125711904D01*
X197588095Y-125616666D01*
X197540476Y-125521428D01*
X197492857Y-125473809D01*
X197397619Y-125426190D01*
X197207142Y-125378571D01*
X197111904Y-125330952D01*
X197064285Y-125283333D01*
X197016666Y-125188095D01*
X197016666Y-125092857D01*
X197064285Y-124997619D01*
X197111904Y-124950000D01*
X197207142Y-124902380D01*
X197445238Y-124902380D01*
X197588095Y-124950000D01*
X197921428Y-124902380D02*
X198159523Y-125902380D01*
X198350000Y-125188095D01*
X198540476Y-125902380D01*
X198778571Y-124902380D01*
X199207142Y-125902380D02*
X199397619Y-125902380D01*
X199492857Y-125854761D01*
X199540476Y-125807142D01*
X199635714Y-125664285D01*
X199683333Y-125473809D01*
X199683333Y-125092857D01*
X199635714Y-124997619D01*
X199588095Y-124950000D01*
X199492857Y-124902380D01*
X199302380Y-124902380D01*
X199207142Y-124950000D01*
X199159523Y-124997619D01*
X199111904Y-125092857D01*
X199111904Y-125330952D01*
X199159523Y-125426190D01*
X199207142Y-125473809D01*
X199302380Y-125521428D01*
X199492857Y-125521428D01*
X199588095Y-125473809D01*
X199635714Y-125426190D01*
X199683333Y-125330952D01*
G04 #@! TO.C,J10*
X139590476Y-117202380D02*
X139590476Y-117916666D01*
X139542857Y-118059523D01*
X139447619Y-118154761D01*
X139304761Y-118202380D01*
X139209523Y-118202380D01*
X140590476Y-118202380D02*
X140019047Y-118202380D01*
X140304761Y-118202380D02*
X140304761Y-117202380D01*
X140209523Y-117345238D01*
X140114285Y-117440476D01*
X140019047Y-117488095D01*
X141209523Y-117202380D02*
X141304761Y-117202380D01*
X141400000Y-117250000D01*
X141447619Y-117297619D01*
X141495238Y-117392857D01*
X141542857Y-117583333D01*
X141542857Y-117821428D01*
X141495238Y-118011904D01*
X141447619Y-118107142D01*
X141400000Y-118154761D01*
X141304761Y-118202380D01*
X141209523Y-118202380D01*
X141114285Y-118154761D01*
X141066666Y-118107142D01*
X141019047Y-118011904D01*
X140971428Y-117821428D01*
X140971428Y-117583333D01*
X141019047Y-117392857D01*
X141066666Y-117297619D01*
X141114285Y-117250000D01*
X141209523Y-117202380D01*
G04 #@! TO.C,J11*
X139690476Y-119902380D02*
X139690476Y-120616666D01*
X139642857Y-120759523D01*
X139547619Y-120854761D01*
X139404761Y-120902380D01*
X139309523Y-120902380D01*
X140690476Y-120902380D02*
X140119047Y-120902380D01*
X140404761Y-120902380D02*
X140404761Y-119902380D01*
X140309523Y-120045238D01*
X140214285Y-120140476D01*
X140119047Y-120188095D01*
X141642857Y-120902380D02*
X141071428Y-120902380D01*
X141357142Y-120902380D02*
X141357142Y-119902380D01*
X141261904Y-120045238D01*
X141166666Y-120140476D01*
X141071428Y-120188095D01*
G04 #@! TO.C,HOLE3*
X101557142Y-114202380D02*
X101557142Y-113202380D01*
X101557142Y-113678571D02*
X102128571Y-113678571D01*
X102128571Y-114202380D02*
X102128571Y-113202380D01*
X102795238Y-113202380D02*
X102985714Y-113202380D01*
X103080952Y-113250000D01*
X103176190Y-113345238D01*
X103223809Y-113535714D01*
X103223809Y-113869047D01*
X103176190Y-114059523D01*
X103080952Y-114154761D01*
X102985714Y-114202380D01*
X102795238Y-114202380D01*
X102700000Y-114154761D01*
X102604761Y-114059523D01*
X102557142Y-113869047D01*
X102557142Y-113535714D01*
X102604761Y-113345238D01*
X102700000Y-113250000D01*
X102795238Y-113202380D01*
X104128571Y-114202380D02*
X103652380Y-114202380D01*
X103652380Y-113202380D01*
X104461904Y-113678571D02*
X104795238Y-113678571D01*
X104938095Y-114202380D02*
X104461904Y-114202380D01*
X104461904Y-113202380D01*
X104938095Y-113202380D01*
X105271428Y-113202380D02*
X105890476Y-113202380D01*
X105557142Y-113583333D01*
X105700000Y-113583333D01*
X105795238Y-113630952D01*
X105842857Y-113678571D01*
X105890476Y-113773809D01*
X105890476Y-114011904D01*
X105842857Y-114107142D01*
X105795238Y-114154761D01*
X105700000Y-114202380D01*
X105414285Y-114202380D01*
X105319047Y-114154761D01*
X105271428Y-114107142D01*
G04 #@! TO.C,J3*
D19*
X198126666Y-67704523D02*
X198126666Y-68611666D01*
X198066190Y-68793095D01*
X197945238Y-68914047D01*
X197763809Y-68974523D01*
X197642857Y-68974523D01*
X198610476Y-67704523D02*
X199396666Y-67704523D01*
X198973333Y-68188333D01*
X199154761Y-68188333D01*
X199275714Y-68248809D01*
X199336190Y-68309285D01*
X199396666Y-68430238D01*
X199396666Y-68732619D01*
X199336190Y-68853571D01*
X199275714Y-68914047D01*
X199154761Y-68974523D01*
X198791904Y-68974523D01*
X198670952Y-68914047D01*
X198610476Y-68853571D01*
G04 #@! TO.C,J4*
X198176666Y-80154523D02*
X198176666Y-81061666D01*
X198116190Y-81243095D01*
X197995238Y-81364047D01*
X197813809Y-81424523D01*
X197692857Y-81424523D01*
X199325714Y-80577857D02*
X199325714Y-81424523D01*
X199023333Y-80094047D02*
X198720952Y-81001190D01*
X199507142Y-81001190D01*
G04 #@! TO.C,J5*
D15*
X175766666Y-60502380D02*
X175766666Y-61216666D01*
X175719047Y-61359523D01*
X175623809Y-61454761D01*
X175480952Y-61502380D01*
X175385714Y-61502380D01*
X176719047Y-60502380D02*
X176242857Y-60502380D01*
X176195238Y-60978571D01*
X176242857Y-60930952D01*
X176338095Y-60883333D01*
X176576190Y-60883333D01*
X176671428Y-60930952D01*
X176719047Y-60978571D01*
X176766666Y-61073809D01*
X176766666Y-61311904D01*
X176719047Y-61407142D01*
X176671428Y-61454761D01*
X176576190Y-61502380D01*
X176338095Y-61502380D01*
X176242857Y-61454761D01*
X176195238Y-61407142D01*
G04 #@! TD*
M02*
