%FSLAX45Y45*%
G04 Gerber Fmt 4.5, Leading zero omitted, Abs format (unit mm)*
G04 Created by KiCad (PCBNEW 5.0.2+dfsg1-1) date gio 18 apr 2019 10:12:51 CEST*
%MOMM*%
%LPD*%
G01*
G04 APERTURE LIST*
%ADD10C,0.100000*%
%ADD11C,0.200000*%
%ADD12C,0.300000*%
G04 APERTURE END LIST*
D10*
X21000000Y-5835000D02*
X21000000Y-5595000D01*
X10000000Y-5835000D02*
X10000000Y-5595000D01*
X10000000Y-5593600D02*
X21000000Y-5593600D01*
X10000000Y-13338600D02*
X10000000Y-5838600D01*
X21000000Y-13340000D02*
X10000000Y-13340000D01*
X21000000Y-5838600D02*
X21000000Y-13338600D01*
D11*
X11989770Y-8450750D02*
X12019770Y-8480750D01*
X12019770Y-8450750D02*
X11989770Y-8480750D01*
X12039780Y-7464000D02*
X12069780Y-7494000D01*
X12069780Y-7464000D02*
X12039780Y-7494000D01*
X12950740Y-8308100D02*
X12980740Y-8338100D01*
X12980740Y-8308100D02*
X12950740Y-8338100D01*
X13025250Y-7858650D02*
X13055250Y-7888650D01*
X13055250Y-7858650D02*
X13025250Y-7888650D01*
X13232920Y-7276290D02*
X13262920Y-7306290D01*
X13262920Y-7276290D02*
X13232920Y-7306290D01*
X13665150Y-8187150D02*
X13695150Y-8217150D01*
X13695150Y-8187150D02*
X13665150Y-8217150D01*
X14020530Y-7866630D02*
X14050530Y-7896630D01*
X14050530Y-7866630D02*
X14020530Y-7896630D01*
X14306750Y-7281250D02*
X14336750Y-7311250D01*
X14336750Y-7281250D02*
X14306750Y-7311250D01*
X15937210Y-8084250D02*
X15967210Y-8114250D01*
X15967210Y-8084250D02*
X15937210Y-8114250D01*
X17757190Y-10456450D02*
X17787190Y-10486450D01*
X17787190Y-10456450D02*
X17757190Y-10486450D01*
X18151030Y-9842410D02*
X18181030Y-9872410D01*
X18181030Y-9842410D02*
X18151030Y-9872410D01*
X18164330Y-8707400D02*
X18194330Y-8737400D01*
X18194330Y-8707400D02*
X18164330Y-8737400D01*
X18407370Y-8493590D02*
X18437370Y-8523590D01*
X18437370Y-8493590D02*
X18407370Y-8523590D01*
X18931490Y-10507030D02*
X18961490Y-10537030D01*
X18961490Y-10507030D02*
X18931490Y-10537030D01*
X18989380Y-8611070D02*
X19019380Y-8641070D01*
X19019380Y-8611070D02*
X18989380Y-8641070D01*
X19390420Y-9161890D02*
X19420420Y-9191890D01*
X19420420Y-9161890D02*
X19390420Y-9191890D01*
X10620400Y-6718000D02*
G75*
G03X10620400Y-6718000I-30000J0D01*
G01*
X10570400Y-6688000D02*
X10570400Y-6748000D01*
X10610400Y-6688000D02*
X10610400Y-6748000D01*
X10570400Y-6748000D02*
G75*
G03X10610400Y-6748000I20000J0D01*
G01*
X10610400Y-6688000D02*
G75*
G03X10570400Y-6688000I-20000J0D01*
G01*
X11080400Y-5908000D02*
G75*
G03X11080400Y-5908000I-30000J0D01*
G01*
X11030400Y-5878000D02*
X11030400Y-5938000D01*
X11070400Y-5878000D02*
X11070400Y-5938000D01*
X11030400Y-5938000D02*
G75*
G03X11070400Y-5938000I20000J0D01*
G01*
X11070400Y-5878000D02*
G75*
G03X11030400Y-5878000I-20000J0D01*
G01*
X11080400Y-6208000D02*
G75*
G03X11080400Y-6208000I-30000J0D01*
G01*
X11030400Y-6178000D02*
X11030400Y-6238000D01*
X11070400Y-6178000D02*
X11070400Y-6238000D01*
X11030400Y-6238000D02*
G75*
G03X11070400Y-6238000I20000J0D01*
G01*
X11070400Y-6178000D02*
G75*
G03X11030400Y-6178000I-20000J0D01*
G01*
X11080400Y-6608000D02*
G75*
G03X11080400Y-6608000I-30000J0D01*
G01*
X11030400Y-6578000D02*
X11030400Y-6638000D01*
X11070400Y-6578000D02*
X11070400Y-6638000D01*
X11030400Y-6638000D02*
G75*
G03X11070400Y-6638000I20000J0D01*
G01*
X11070400Y-6578000D02*
G75*
G03X11030400Y-6578000I-20000J0D01*
G01*
X18000000Y-6715000D02*
G75*
G03X18000000Y-6715000I-30000J0D01*
G01*
X17950000Y-6685000D02*
X17950000Y-6745000D01*
X17990000Y-6685000D02*
X17990000Y-6745000D01*
X17950000Y-6745000D02*
G75*
G03X17990000Y-6745000I20000J0D01*
G01*
X17990000Y-6685000D02*
G75*
G03X17950000Y-6685000I-20000J0D01*
G01*
X18460000Y-5905000D02*
G75*
G03X18460000Y-5905000I-30000J0D01*
G01*
X18410000Y-5875000D02*
X18410000Y-5935000D01*
X18450000Y-5875000D02*
X18450000Y-5935000D01*
X18410000Y-5935000D02*
G75*
G03X18450000Y-5935000I20000J0D01*
G01*
X18450000Y-5875000D02*
G75*
G03X18410000Y-5875000I-20000J0D01*
G01*
X18460000Y-6205000D02*
G75*
G03X18460000Y-6205000I-30000J0D01*
G01*
X18410000Y-6175000D02*
X18410000Y-6235000D01*
X18450000Y-6175000D02*
X18450000Y-6235000D01*
X18410000Y-6235000D02*
G75*
G03X18450000Y-6235000I20000J0D01*
G01*
X18450000Y-6175000D02*
G75*
G03X18410000Y-6175000I-20000J0D01*
G01*
X18460000Y-6605000D02*
G75*
G03X18460000Y-6605000I-30000J0D01*
G01*
X18410000Y-6575000D02*
X18410000Y-6635000D01*
X18450000Y-6575000D02*
X18450000Y-6635000D01*
X18410000Y-6635000D02*
G75*
G03X18450000Y-6635000I20000J0D01*
G01*
X18450000Y-6575000D02*
G75*
G03X18410000Y-6575000I-20000J0D01*
G01*
X11820000Y-8570000D02*
X11820000Y-8650000D01*
X11780000Y-8610000D02*
X11860000Y-8610000D01*
X11820000Y-8820000D02*
X11820000Y-8900000D01*
X11780000Y-8860000D02*
X11860000Y-8860000D01*
X17640000Y-11185000D02*
X17640000Y-11265000D01*
X17600000Y-11225000D02*
X17680000Y-11225000D01*
X18402000Y-11185000D02*
X18402000Y-11265000D01*
X18362000Y-11225000D02*
X18442000Y-11225000D01*
X11160000Y-8600000D02*
X11160000Y-8680000D01*
X11120000Y-8640000D02*
X11200000Y-8640000D01*
X11160000Y-8850000D02*
X11160000Y-8930000D01*
X11120000Y-8890000D02*
X11200000Y-8890000D01*
X15120000Y-10520000D02*
X15120000Y-10600000D01*
X15080000Y-10560000D02*
X15160000Y-10560000D01*
X15120000Y-10770000D02*
X15120000Y-10850000D01*
X15080000Y-10810000D02*
X15160000Y-10810000D01*
X12640000Y-7510000D02*
X12640000Y-7590000D01*
X12600000Y-7550000D02*
X12680000Y-7550000D01*
X13402000Y-7510000D02*
X13402000Y-7590000D01*
X13362000Y-7550000D02*
X13442000Y-7550000D01*
X12545000Y-10725000D02*
X12545000Y-10805000D01*
X12505000Y-10765000D02*
X12585000Y-10765000D01*
X13307000Y-10725000D02*
X13307000Y-10805000D01*
X13267000Y-10765000D02*
X13347000Y-10765000D01*
X13990000Y-8110000D02*
X13990000Y-8190000D01*
X13950000Y-8150000D02*
X14030000Y-8150000D01*
X15006000Y-8110000D02*
X15006000Y-8190000D01*
X14966000Y-8150000D02*
X15046000Y-8150000D01*
X19925000Y-10660000D02*
X19925000Y-10740000D01*
X19885000Y-10700000D02*
X19965000Y-10700000D01*
X20175000Y-10660000D02*
X20175000Y-10740000D01*
X20135000Y-10700000D02*
X20215000Y-10700000D01*
X13970000Y-7565000D02*
X13970000Y-7645000D01*
X13930000Y-7605000D02*
X14010000Y-7605000D01*
X14986000Y-7565000D02*
X14986000Y-7645000D01*
X14946000Y-7605000D02*
X15026000Y-7605000D01*
X18785000Y-9415000D02*
X18785000Y-9495000D01*
X18745000Y-9455000D02*
X18825000Y-9455000D01*
X18785000Y-9669000D02*
X18785000Y-9749000D01*
X18745000Y-9709000D02*
X18825000Y-9709000D01*
X18785000Y-9923000D02*
X18785000Y-10003000D01*
X18745000Y-9963000D02*
X18825000Y-9963000D01*
X18785000Y-10177000D02*
X18785000Y-10257000D01*
X18745000Y-10217000D02*
X18825000Y-10217000D01*
X19547000Y-9415000D02*
X19547000Y-9495000D01*
X19507000Y-9455000D02*
X19587000Y-9455000D01*
X19547000Y-9669000D02*
X19547000Y-9749000D01*
X19507000Y-9709000D02*
X19587000Y-9709000D01*
X19547000Y-9923000D02*
X19547000Y-10003000D01*
X19507000Y-9963000D02*
X19587000Y-9963000D01*
X19547000Y-10177000D02*
X19547000Y-10257000D01*
X19507000Y-10217000D02*
X19587000Y-10217000D01*
X13765000Y-10730000D02*
X13765000Y-10810000D01*
X13725000Y-10770000D02*
X13805000Y-10770000D01*
X14527000Y-10730000D02*
X14527000Y-10810000D01*
X14487000Y-10770000D02*
X14567000Y-10770000D01*
X19280000Y-8098000D02*
X19280000Y-8178000D01*
X19240000Y-8138000D02*
X19320000Y-8138000D01*
X19280000Y-8860000D02*
X19280000Y-8940000D01*
X19240000Y-8900000D02*
X19320000Y-8900000D01*
X16055000Y-6460000D02*
X16055000Y-6540000D01*
X16015000Y-6500000D02*
X16095000Y-6500000D01*
X16085000Y-6510000D02*
X16085000Y-6490000D01*
X16025000Y-6510000D02*
X16025000Y-6490000D01*
X16085000Y-6490000D02*
G75*
G03X16025000Y-6490000I-30000J0D01*
G01*
X16025000Y-6510000D02*
G75*
G03X16085000Y-6510000I30000J0D01*
G01*
X16055000Y-6690000D02*
X16055000Y-6770000D01*
X16015000Y-6730000D02*
X16095000Y-6730000D01*
X16085000Y-6740000D02*
X16085000Y-6720000D01*
X16025000Y-6740000D02*
X16025000Y-6720000D01*
X16085000Y-6720000D02*
G75*
G03X16025000Y-6720000I-30000J0D01*
G01*
X16025000Y-6740000D02*
G75*
G03X16085000Y-6740000I30000J0D01*
G01*
X16265000Y-6460000D02*
X16265000Y-6540000D01*
X16225000Y-6500000D02*
X16305000Y-6500000D01*
X16295000Y-6510000D02*
X16295000Y-6490000D01*
X16235000Y-6510000D02*
X16235000Y-6490000D01*
X16295000Y-6490000D02*
G75*
G03X16235000Y-6490000I-30000J0D01*
G01*
X16235000Y-6510000D02*
G75*
G03X16295000Y-6510000I30000J0D01*
G01*
X16525000Y-6460000D02*
X16525000Y-6540000D01*
X16485000Y-6500000D02*
X16565000Y-6500000D01*
X16555000Y-6510000D02*
X16555000Y-6490000D01*
X16495000Y-6510000D02*
X16495000Y-6490000D01*
X16555000Y-6490000D02*
G75*
G03X16495000Y-6490000I-30000J0D01*
G01*
X16495000Y-6510000D02*
G75*
G03X16555000Y-6510000I30000J0D01*
G01*
X16735000Y-6460000D02*
X16735000Y-6540000D01*
X16695000Y-6500000D02*
X16775000Y-6500000D01*
X16765000Y-6510000D02*
X16765000Y-6490000D01*
X16705000Y-6510000D02*
X16705000Y-6490000D01*
X16765000Y-6490000D02*
G75*
G03X16705000Y-6490000I-30000J0D01*
G01*
X16705000Y-6510000D02*
G75*
G03X16765000Y-6510000I30000J0D01*
G01*
X16735000Y-6690000D02*
X16735000Y-6770000D01*
X16695000Y-6730000D02*
X16775000Y-6730000D01*
X16765000Y-6740000D02*
X16765000Y-6720000D01*
X16705000Y-6740000D02*
X16705000Y-6720000D01*
X16765000Y-6720000D02*
G75*
G03X16705000Y-6720000I-30000J0D01*
G01*
X16705000Y-6740000D02*
G75*
G03X16765000Y-6740000I30000J0D01*
G01*
X14435000Y-12915000D02*
X14435000Y-12995000D01*
X14395000Y-12955000D02*
X14475000Y-12955000D01*
X14435000Y-13165000D02*
X14435000Y-13245000D01*
X14395000Y-13205000D02*
X14475000Y-13205000D01*
X19930000Y-10195000D02*
X19930000Y-10275000D01*
X19890000Y-10235000D02*
X19970000Y-10235000D01*
X20180000Y-10195000D02*
X20180000Y-10275000D01*
X20140000Y-10235000D02*
X20220000Y-10235000D01*
X12550000Y-11225000D02*
X12550000Y-11305000D01*
X12510000Y-11265000D02*
X12590000Y-11265000D01*
X13312000Y-11225000D02*
X13312000Y-11305000D01*
X13272000Y-11265000D02*
X13352000Y-11265000D01*
X13770000Y-11210000D02*
X13770000Y-11290000D01*
X13730000Y-11250000D02*
X13810000Y-11250000D01*
X14532000Y-11210000D02*
X14532000Y-11290000D01*
X14492000Y-11250000D02*
X14572000Y-11250000D01*
X15475000Y-11235000D02*
X15475000Y-11315000D01*
X15435000Y-11275000D02*
X15515000Y-11275000D01*
X16237000Y-11235000D02*
X16237000Y-11315000D01*
X16197000Y-11275000D02*
X16277000Y-11275000D01*
X11220000Y-11210000D02*
X11220000Y-11290000D01*
X11180000Y-11250000D02*
X11260000Y-11250000D01*
X11982000Y-11210000D02*
X11982000Y-11290000D01*
X11942000Y-11250000D02*
X12022000Y-11250000D01*
X11865000Y-12905000D02*
X11865000Y-12985000D01*
X11825000Y-12945000D02*
X11905000Y-12945000D01*
X11865000Y-13155000D02*
X11865000Y-13235000D01*
X11825000Y-13195000D02*
X11905000Y-13195000D01*
X13650000Y-6030000D02*
X13650000Y-6110000D01*
X13610000Y-6070000D02*
X13690000Y-6070000D01*
X13650000Y-6410000D02*
X13650000Y-6490000D01*
X13610000Y-6450000D02*
X13690000Y-6450000D01*
X12650000Y-6030000D02*
X12650000Y-6110000D01*
X12610000Y-6070000D02*
X12690000Y-6070000D01*
X12650000Y-6410000D02*
X12650000Y-6490000D01*
X12610000Y-6450000D02*
X12690000Y-6450000D01*
X12630000Y-7970000D02*
X12630000Y-8050000D01*
X12590000Y-8010000D02*
X12670000Y-8010000D01*
X13392000Y-7970000D02*
X13392000Y-8050000D01*
X13352000Y-8010000D02*
X13432000Y-8010000D01*
X16865000Y-12910000D02*
X16865000Y-12990000D01*
X16825000Y-12950000D02*
X16905000Y-12950000D01*
X16865000Y-13160000D02*
X16865000Y-13240000D01*
X16825000Y-13200000D02*
X16905000Y-13200000D01*
X18803000Y-11175000D02*
X18803000Y-11255000D01*
X18763000Y-11215000D02*
X18843000Y-11215000D01*
X19565000Y-11175000D02*
X19565000Y-11255000D01*
X19525000Y-11215000D02*
X19605000Y-11215000D01*
X18050000Y-12905000D02*
X18050000Y-12985000D01*
X18010000Y-12945000D02*
X18090000Y-12945000D01*
X18050000Y-13155000D02*
X18050000Y-13235000D01*
X18010000Y-13195000D02*
X18090000Y-13195000D01*
X17630000Y-10700000D02*
X17630000Y-10780000D01*
X17590000Y-10740000D02*
X17670000Y-10740000D01*
X18392000Y-10700000D02*
X18392000Y-10780000D01*
X18352000Y-10740000D02*
X18432000Y-10740000D01*
X11800000Y-7910000D02*
X11800000Y-7990000D01*
X11760000Y-7950000D02*
X11840000Y-7950000D01*
X11800000Y-8160000D02*
X11800000Y-8240000D01*
X11760000Y-8200000D02*
X11840000Y-8200000D01*
X18780000Y-8100000D02*
X18780000Y-8180000D01*
X18740000Y-8140000D02*
X18820000Y-8140000D01*
X18780000Y-8862000D02*
X18780000Y-8942000D01*
X18740000Y-8902000D02*
X18820000Y-8902000D01*
X19930000Y-9770000D02*
X19930000Y-9850000D01*
X19890000Y-9810000D02*
X19970000Y-9810000D01*
X20180000Y-9770000D02*
X20180000Y-9850000D01*
X20140000Y-9810000D02*
X20220000Y-9810000D01*
X19250000Y-12905000D02*
X19250000Y-12985000D01*
X19210000Y-12945000D02*
X19290000Y-12945000D01*
X19250000Y-13155000D02*
X19250000Y-13235000D01*
X19210000Y-13195000D02*
X19290000Y-13195000D01*
X19925000Y-11195000D02*
X19925000Y-11275000D01*
X19885000Y-11235000D02*
X19965000Y-11235000D01*
X20175000Y-11195000D02*
X20175000Y-11275000D01*
X20135000Y-11235000D02*
X20215000Y-11235000D01*
X15675000Y-12905000D02*
X15675000Y-12985000D01*
X15635000Y-12945000D02*
X15715000Y-12945000D01*
X15675000Y-13155000D02*
X15675000Y-13235000D01*
X15635000Y-13195000D02*
X15715000Y-13195000D01*
X15832000Y-10600000D02*
X15832000Y-10680000D01*
X15792000Y-10640000D02*
X15872000Y-10640000D01*
X16320000Y-10600000D02*
X16320000Y-10680000D01*
X16280000Y-10640000D02*
X16360000Y-10640000D01*
X17000000Y-10540000D02*
X17000000Y-10620000D01*
X16960000Y-10580000D02*
X17040000Y-10580000D01*
X17000000Y-10790000D02*
X17000000Y-10870000D01*
X16960000Y-10830000D02*
X17040000Y-10830000D01*
X19280000Y-6913000D02*
X19280000Y-6993000D01*
X19240000Y-6953000D02*
X19320000Y-6953000D01*
X19280000Y-7675000D02*
X19280000Y-7755000D01*
X19240000Y-7715000D02*
X19320000Y-7715000D01*
X11160000Y-7760000D02*
X11160000Y-7840000D01*
X11120000Y-7800000D02*
X11200000Y-7800000D01*
X11160000Y-8010000D02*
X11160000Y-8090000D01*
X11120000Y-8050000D02*
X11200000Y-8050000D01*
X11235000Y-10690000D02*
X11235000Y-10770000D01*
X11195000Y-10730000D02*
X11275000Y-10730000D01*
X11997000Y-10690000D02*
X11997000Y-10770000D01*
X11957000Y-10730000D02*
X12037000Y-10730000D01*
X18823000Y-10700000D02*
X18823000Y-10780000D01*
X18783000Y-10740000D02*
X18863000Y-10740000D01*
X19585000Y-10700000D02*
X19585000Y-10780000D01*
X19545000Y-10740000D02*
X19625000Y-10740000D01*
X13465000Y-8536000D02*
X13465000Y-8616000D01*
X13425000Y-8576000D02*
X13505000Y-8576000D01*
X13465000Y-10060000D02*
X13465000Y-10140000D01*
X13425000Y-10100000D02*
X13505000Y-10100000D01*
X13719000Y-8536000D02*
X13719000Y-8616000D01*
X13679000Y-8576000D02*
X13759000Y-8576000D01*
X13719000Y-10060000D02*
X13719000Y-10140000D01*
X13679000Y-10100000D02*
X13759000Y-10100000D01*
X13973000Y-8536000D02*
X13973000Y-8616000D01*
X13933000Y-8576000D02*
X14013000Y-8576000D01*
X13973000Y-10060000D02*
X13973000Y-10140000D01*
X13933000Y-10100000D02*
X14013000Y-10100000D01*
X14227000Y-8536000D02*
X14227000Y-8616000D01*
X14187000Y-8576000D02*
X14267000Y-8576000D01*
X14227000Y-10060000D02*
X14227000Y-10140000D01*
X14187000Y-10100000D02*
X14267000Y-10100000D01*
X14481000Y-8536000D02*
X14481000Y-8616000D01*
X14441000Y-8576000D02*
X14521000Y-8576000D01*
X14481000Y-10060000D02*
X14481000Y-10140000D01*
X14441000Y-10100000D02*
X14521000Y-10100000D01*
X14735000Y-8536000D02*
X14735000Y-8616000D01*
X14695000Y-8576000D02*
X14775000Y-8576000D01*
X14735000Y-10060000D02*
X14735000Y-10140000D01*
X14695000Y-10100000D02*
X14775000Y-10100000D01*
X14989000Y-8536000D02*
X14989000Y-8616000D01*
X14949000Y-8576000D02*
X15029000Y-8576000D01*
X14989000Y-10060000D02*
X14989000Y-10140000D01*
X14949000Y-10100000D02*
X15029000Y-10100000D01*
X15243000Y-8536000D02*
X15243000Y-8616000D01*
X15203000Y-8576000D02*
X15283000Y-8576000D01*
X15243000Y-10060000D02*
X15243000Y-10140000D01*
X15203000Y-10100000D02*
X15283000Y-10100000D01*
X15497000Y-8536000D02*
X15497000Y-8616000D01*
X15457000Y-8576000D02*
X15537000Y-8576000D01*
X15497000Y-10060000D02*
X15497000Y-10140000D01*
X15457000Y-10100000D02*
X15537000Y-10100000D01*
X15751000Y-8536000D02*
X15751000Y-8616000D01*
X15711000Y-8576000D02*
X15791000Y-8576000D01*
X15751000Y-10060000D02*
X15751000Y-10140000D01*
X15711000Y-10100000D02*
X15791000Y-10100000D01*
X16005000Y-8536000D02*
X16005000Y-8616000D01*
X15965000Y-8576000D02*
X16045000Y-8576000D01*
X16005000Y-10060000D02*
X16005000Y-10140000D01*
X15965000Y-10100000D02*
X16045000Y-10100000D01*
X16259000Y-8536000D02*
X16259000Y-8616000D01*
X16219000Y-8576000D02*
X16299000Y-8576000D01*
X16259000Y-10060000D02*
X16259000Y-10140000D01*
X16219000Y-10100000D02*
X16299000Y-10100000D01*
X16513000Y-8536000D02*
X16513000Y-8616000D01*
X16473000Y-8576000D02*
X16553000Y-8576000D01*
X16513000Y-10060000D02*
X16513000Y-10140000D01*
X16473000Y-10100000D02*
X16553000Y-10100000D01*
X16767000Y-8536000D02*
X16767000Y-8616000D01*
X16727000Y-8576000D02*
X16807000Y-8576000D01*
X16767000Y-10060000D02*
X16767000Y-10140000D01*
X16727000Y-10100000D02*
X16807000Y-10100000D01*
X17021000Y-8536000D02*
X17021000Y-8616000D01*
X16981000Y-8576000D02*
X17061000Y-8576000D01*
X17021000Y-10060000D02*
X17021000Y-10140000D01*
X16981000Y-10100000D02*
X17061000Y-10100000D01*
X17275000Y-8536000D02*
X17275000Y-8616000D01*
X17235000Y-8576000D02*
X17315000Y-8576000D01*
X17275000Y-10060000D02*
X17275000Y-10140000D01*
X17235000Y-10100000D02*
X17315000Y-10100000D01*
X17529000Y-8536000D02*
X17529000Y-8616000D01*
X17489000Y-8576000D02*
X17569000Y-8576000D01*
X17529000Y-10060000D02*
X17529000Y-10140000D01*
X17489000Y-10100000D02*
X17569000Y-10100000D01*
X17783000Y-8536000D02*
X17783000Y-8616000D01*
X17743000Y-8576000D02*
X17823000Y-8576000D01*
X17783000Y-10060000D02*
X17783000Y-10140000D01*
X17743000Y-10100000D02*
X17823000Y-10100000D01*
X18037000Y-8536000D02*
X18037000Y-8616000D01*
X17997000Y-8576000D02*
X18077000Y-8576000D01*
X18037000Y-10060000D02*
X18037000Y-10140000D01*
X17997000Y-10100000D02*
X18077000Y-10100000D01*
X18291000Y-8536000D02*
X18291000Y-8616000D01*
X18251000Y-8576000D02*
X18331000Y-8576000D01*
X18291000Y-10060000D02*
X18291000Y-10140000D01*
X18251000Y-10100000D02*
X18331000Y-10100000D01*
X13155000Y-12905000D02*
X13155000Y-12985000D01*
X13115000Y-12945000D02*
X13195000Y-12945000D01*
X13155000Y-13155000D02*
X13155000Y-13235000D01*
X13115000Y-13195000D02*
X13195000Y-13195000D01*
X18116820Y-7091820D02*
X18116820Y-7028180D01*
X18053180Y-7028180D01*
X18053180Y-7091820D01*
X18116820Y-7091820D01*
X18878820Y-7091820D02*
X18878820Y-7028180D01*
X18815180Y-7028180D01*
X18815180Y-7091820D01*
X18878820Y-7091820D01*
X20562820Y-10266820D02*
X20562820Y-10203180D01*
X20499180Y-10203180D01*
X20499180Y-10266820D01*
X20562820Y-10266820D01*
X20816820Y-10266820D02*
X20816820Y-10203180D01*
X20753180Y-10203180D01*
X20753180Y-10266820D01*
X20816820Y-10266820D01*
X20562820Y-9666820D02*
X20562820Y-9603180D01*
X20499180Y-9603180D01*
X20499180Y-9666820D01*
X20562820Y-9666820D01*
X20816820Y-9666820D02*
X20816820Y-9603180D01*
X20753180Y-9603180D01*
X20753180Y-9666820D01*
X20816820Y-9666820D01*
X20547820Y-10866820D02*
X20547820Y-10803180D01*
X20484180Y-10803180D01*
X20484180Y-10866820D01*
X20547820Y-10866820D01*
X20801820Y-10866820D02*
X20801820Y-10803180D01*
X20738180Y-10803180D01*
X20738180Y-10866820D01*
X20801820Y-10866820D01*
X20547820Y-11521820D02*
X20547820Y-11458180D01*
X20484180Y-11458180D01*
X20484180Y-11521820D01*
X20547820Y-11521820D01*
X20801820Y-11521820D02*
X20801820Y-11458180D01*
X20738180Y-11458180D01*
X20738180Y-11521820D01*
X20801820Y-11521820D01*
X15569820Y-8121820D02*
X15569820Y-8058180D01*
X15506180Y-8058180D01*
X15506180Y-8121820D01*
X15569820Y-8121820D01*
X16331820Y-8121820D02*
X16331820Y-8058180D01*
X16268180Y-8058180D01*
X16268180Y-8121820D01*
X16331820Y-8121820D01*
X10140000Y-12085000D02*
X10190000Y-12035000D01*
X10140000Y-11985000D01*
X10090000Y-12035000D01*
X10140000Y-12085000D01*
X10290000Y-12085000D02*
X10340000Y-12035000D01*
X10290000Y-11985000D01*
X10240000Y-12035000D01*
X10290000Y-12085000D01*
X10440000Y-12085000D02*
X10490000Y-12035000D01*
X10440000Y-11985000D01*
X10390000Y-12035000D01*
X10440000Y-12085000D01*
X10590000Y-12085000D02*
X10640000Y-12035000D01*
X10590000Y-11985000D01*
X10540000Y-12035000D01*
X10590000Y-12085000D01*
X10745000Y-12085000D02*
X10795000Y-12035000D01*
X10745000Y-11985000D01*
X10695000Y-12035000D01*
X10745000Y-12085000D01*
X10895000Y-12085000D02*
X10945000Y-12035000D01*
X10895000Y-11985000D01*
X10845000Y-12035000D01*
X10895000Y-12085000D01*
X11045000Y-12085000D02*
X11095000Y-12035000D01*
X11045000Y-11985000D01*
X10995000Y-12035000D01*
X11045000Y-12085000D01*
X11195000Y-12085000D02*
X11245000Y-12035000D01*
X11195000Y-11985000D01*
X11145000Y-12035000D01*
X11195000Y-12085000D01*
X11350000Y-12085000D02*
X11400000Y-12035000D01*
X11350000Y-11985000D01*
X11300000Y-12035000D01*
X11350000Y-12085000D01*
X11500000Y-12085000D02*
X11550000Y-12035000D01*
X11500000Y-11985000D01*
X11450000Y-12035000D01*
X11500000Y-12085000D01*
X11650000Y-12085000D02*
X11700000Y-12035000D01*
X11650000Y-11985000D01*
X11600000Y-12035000D01*
X11650000Y-12085000D01*
X11795000Y-12085000D02*
X11845000Y-12035000D01*
X11795000Y-11985000D01*
X11745000Y-12035000D01*
X11795000Y-12085000D01*
X11950000Y-12085000D02*
X12000000Y-12035000D01*
X11950000Y-11985000D01*
X11900000Y-12035000D01*
X11950000Y-12085000D01*
X12100000Y-12085000D02*
X12150000Y-12035000D01*
X12100000Y-11985000D01*
X12050000Y-12035000D01*
X12100000Y-12085000D01*
X12250000Y-12085000D02*
X12300000Y-12035000D01*
X12250000Y-11985000D01*
X12200000Y-12035000D01*
X12250000Y-12085000D01*
X12400000Y-12085000D02*
X12450000Y-12035000D01*
X12400000Y-11985000D01*
X12350000Y-12035000D01*
X12400000Y-12085000D01*
X12550000Y-12085000D02*
X12600000Y-12035000D01*
X12550000Y-11985000D01*
X12500000Y-12035000D01*
X12550000Y-12085000D01*
X12695000Y-12085000D02*
X12745000Y-12035000D01*
X12695000Y-11985000D01*
X12645000Y-12035000D01*
X12695000Y-12085000D01*
X12850000Y-12085000D02*
X12900000Y-12035000D01*
X12850000Y-11985000D01*
X12800000Y-12035000D01*
X12850000Y-12085000D01*
X13000000Y-12085000D02*
X13050000Y-12035000D01*
X13000000Y-11985000D01*
X12950000Y-12035000D01*
X13000000Y-12085000D01*
X13150000Y-12085000D02*
X13200000Y-12035000D01*
X13150000Y-11985000D01*
X13100000Y-12035000D01*
X13150000Y-12085000D01*
X13300000Y-12085000D02*
X13350000Y-12035000D01*
X13300000Y-11985000D01*
X13250000Y-12035000D01*
X13300000Y-12085000D01*
X13450000Y-12085000D02*
X13500000Y-12035000D01*
X13450000Y-11985000D01*
X13400000Y-12035000D01*
X13450000Y-12085000D01*
X13600000Y-12085000D02*
X13650000Y-12035000D01*
X13600000Y-11985000D01*
X13550000Y-12035000D01*
X13600000Y-12085000D01*
X13755000Y-12085000D02*
X13805000Y-12035000D01*
X13755000Y-11985000D01*
X13705000Y-12035000D01*
X13755000Y-12085000D01*
X13905000Y-12085000D02*
X13955000Y-12035000D01*
X13905000Y-11985000D01*
X13855000Y-12035000D01*
X13905000Y-12085000D01*
X14060000Y-12085000D02*
X14110000Y-12035000D01*
X14060000Y-11985000D01*
X14010000Y-12035000D01*
X14060000Y-12085000D01*
X14220000Y-12085000D02*
X14270000Y-12035000D01*
X14220000Y-11985000D01*
X14170000Y-12035000D01*
X14220000Y-12085000D01*
X16645000Y-12090000D02*
X16695000Y-12040000D01*
X16645000Y-11990000D01*
X16595000Y-12040000D01*
X16645000Y-12090000D01*
X16800000Y-12090000D02*
X16850000Y-12040000D01*
X16800000Y-11990000D01*
X16750000Y-12040000D01*
X16800000Y-12090000D01*
X16950000Y-12090000D02*
X17000000Y-12040000D01*
X16950000Y-11990000D01*
X16900000Y-12040000D01*
X16950000Y-12090000D01*
X17100000Y-12090000D02*
X17150000Y-12040000D01*
X17100000Y-11990000D01*
X17050000Y-12040000D01*
X17100000Y-12090000D01*
X17250000Y-12090000D02*
X17300000Y-12040000D01*
X17250000Y-11990000D01*
X17200000Y-12040000D01*
X17250000Y-12090000D01*
X17400000Y-12090000D02*
X17450000Y-12040000D01*
X17400000Y-11990000D01*
X17350000Y-12040000D01*
X17400000Y-12090000D01*
X17550000Y-12090000D02*
X17600000Y-12040000D01*
X17550000Y-11990000D01*
X17500000Y-12040000D01*
X17550000Y-12090000D01*
X17705000Y-12090000D02*
X17755000Y-12040000D01*
X17705000Y-11990000D01*
X17655000Y-12040000D01*
X17705000Y-12090000D01*
X17855000Y-12090000D02*
X17905000Y-12040000D01*
X17855000Y-11990000D01*
X17805000Y-12040000D01*
X17855000Y-12090000D01*
X18005000Y-12090000D02*
X18055000Y-12040000D01*
X18005000Y-11990000D01*
X17955000Y-12040000D01*
X18005000Y-12090000D01*
X18155000Y-12090000D02*
X18205000Y-12040000D01*
X18155000Y-11990000D01*
X18105000Y-12040000D01*
X18155000Y-12090000D01*
X18305000Y-12090000D02*
X18355000Y-12040000D01*
X18305000Y-11990000D01*
X18255000Y-12040000D01*
X18305000Y-12090000D01*
X18450000Y-12090000D02*
X18500000Y-12040000D01*
X18450000Y-11990000D01*
X18400000Y-12040000D01*
X18450000Y-12090000D01*
X18605000Y-12090000D02*
X18655000Y-12040000D01*
X18605000Y-11990000D01*
X18555000Y-12040000D01*
X18605000Y-12090000D01*
X18755000Y-12090000D02*
X18805000Y-12040000D01*
X18755000Y-11990000D01*
X18705000Y-12040000D01*
X18755000Y-12090000D01*
X18905000Y-12090000D02*
X18955000Y-12040000D01*
X18905000Y-11990000D01*
X18855000Y-12040000D01*
X18905000Y-12090000D01*
X19055000Y-12090000D02*
X19105000Y-12040000D01*
X19055000Y-11990000D01*
X19005000Y-12040000D01*
X19055000Y-12090000D01*
X19205000Y-12090000D02*
X19255000Y-12040000D01*
X19205000Y-11990000D01*
X19155000Y-12040000D01*
X19205000Y-12090000D01*
X19350000Y-12090000D02*
X19400000Y-12040000D01*
X19350000Y-11990000D01*
X19300000Y-12040000D01*
X19350000Y-12090000D01*
X19505000Y-12090000D02*
X19555000Y-12040000D01*
X19505000Y-11990000D01*
X19455000Y-12040000D01*
X19505000Y-12090000D01*
X19655000Y-12090000D02*
X19705000Y-12040000D01*
X19655000Y-11990000D01*
X19605000Y-12040000D01*
X19655000Y-12090000D01*
X19805000Y-12090000D02*
X19855000Y-12040000D01*
X19805000Y-11990000D01*
X19755000Y-12040000D01*
X19805000Y-12090000D01*
X19955000Y-12090000D02*
X20005000Y-12040000D01*
X19955000Y-11990000D01*
X19905000Y-12040000D01*
X19955000Y-12090000D01*
X20105000Y-12090000D02*
X20155000Y-12040000D01*
X20105000Y-11990000D01*
X20055000Y-12040000D01*
X20105000Y-12090000D01*
X20255000Y-12090000D02*
X20305000Y-12040000D01*
X20255000Y-11990000D01*
X20205000Y-12040000D01*
X20255000Y-12090000D01*
X20410000Y-12090000D02*
X20460000Y-12040000D01*
X20410000Y-11990000D01*
X20360000Y-12040000D01*
X20410000Y-12090000D01*
X20560000Y-12090000D02*
X20610000Y-12040000D01*
X20560000Y-11990000D01*
X20510000Y-12040000D01*
X20560000Y-12090000D01*
X20710000Y-12090000D02*
X20760000Y-12040000D01*
X20710000Y-11990000D01*
X20660000Y-12040000D01*
X20710000Y-12090000D01*
X20860000Y-12090000D02*
X20910000Y-12040000D01*
X20860000Y-11990000D01*
X20810000Y-12040000D01*
X20860000Y-12090000D01*
X13480000Y-12835000D02*
X13530000Y-12785000D01*
X13480000Y-12735000D01*
X13430000Y-12785000D01*
X13480000Y-12835000D01*
X13480000Y-13235000D02*
X13530000Y-13185000D01*
X13480000Y-13135000D01*
X13430000Y-13185000D01*
X13480000Y-13235000D01*
X14080000Y-12835000D02*
X14130000Y-12785000D01*
X14080000Y-12735000D01*
X14030000Y-12785000D01*
X14080000Y-12835000D01*
X14080000Y-13235000D02*
X14130000Y-13185000D01*
X14080000Y-13135000D01*
X14030000Y-13185000D01*
X14080000Y-13235000D01*
X14760000Y-12835000D02*
X14810000Y-12785000D01*
X14760000Y-12735000D01*
X14710000Y-12785000D01*
X14760000Y-12835000D01*
X14760000Y-13235000D02*
X14810000Y-13185000D01*
X14760000Y-13135000D01*
X14710000Y-13185000D01*
X14760000Y-13235000D01*
X15360000Y-12835000D02*
X15410000Y-12785000D01*
X15360000Y-12735000D01*
X15310000Y-12785000D01*
X15360000Y-12835000D01*
X15360000Y-13235000D02*
X15410000Y-13185000D01*
X15360000Y-13135000D01*
X15310000Y-13185000D01*
X15360000Y-13235000D01*
X15710000Y-6215000D02*
X15760000Y-6165000D01*
X15710000Y-6115000D01*
X15660000Y-6165000D01*
X15710000Y-6215000D01*
X15750000Y-6240000D02*
X15750000Y-6090000D01*
X15670000Y-6240000D02*
X15670000Y-6090000D01*
X15750000Y-6090000D02*
G75*
G03X15670000Y-6090000I-40000J0D01*
G01*
X15670000Y-6240000D02*
G75*
G03X15750000Y-6240000I40000J0D01*
G01*
X16395000Y-6185000D02*
X16445000Y-6135000D01*
X16395000Y-6085000D01*
X16345000Y-6135000D01*
X16395000Y-6185000D01*
X16495000Y-6095000D02*
X16295000Y-6095000D01*
X16495000Y-6175000D02*
X16295000Y-6175000D01*
X16295000Y-6095000D02*
G75*
G03X16295000Y-6175000I0J-40000D01*
G01*
X16495000Y-6175000D02*
G75*
G03X16495000Y-6095000I0J40000D01*
G01*
X17080000Y-6215000D02*
X17130000Y-6165000D01*
X17080000Y-6115000D01*
X17030000Y-6165000D01*
X17080000Y-6215000D01*
X17120000Y-6240000D02*
X17120000Y-6090000D01*
X17040000Y-6240000D02*
X17040000Y-6090000D01*
X17120000Y-6090000D02*
G75*
G03X17040000Y-6090000I-40000J0D01*
G01*
X17040000Y-6240000D02*
G75*
G03X17120000Y-6240000I40000J0D01*
G01*
X14410000Y-12090000D02*
X14460000Y-12040000D01*
X14410000Y-11990000D01*
X14360000Y-12040000D01*
X14410000Y-12090000D01*
X14664000Y-12090000D02*
X14714000Y-12040000D01*
X14664000Y-11990000D01*
X14614000Y-12040000D01*
X14664000Y-12090000D01*
X14918000Y-12090000D02*
X14968000Y-12040000D01*
X14918000Y-11990000D01*
X14868000Y-12040000D01*
X14918000Y-12090000D01*
X15172000Y-12090000D02*
X15222000Y-12040000D01*
X15172000Y-11990000D01*
X15122000Y-12040000D01*
X15172000Y-12090000D01*
X15426000Y-12090000D02*
X15476000Y-12040000D01*
X15426000Y-11990000D01*
X15376000Y-12040000D01*
X15426000Y-12090000D01*
X15680000Y-12090000D02*
X15730000Y-12040000D01*
X15680000Y-11990000D01*
X15630000Y-12040000D01*
X15680000Y-12090000D01*
X15934000Y-12090000D02*
X15984000Y-12040000D01*
X15934000Y-11990000D01*
X15884000Y-12040000D01*
X15934000Y-12090000D01*
X16188000Y-12090000D02*
X16238000Y-12040000D01*
X16188000Y-11990000D01*
X16138000Y-12040000D01*
X16188000Y-12090000D01*
X16442000Y-12090000D02*
X16492000Y-12040000D01*
X16442000Y-11990000D01*
X16392000Y-12040000D01*
X16442000Y-12090000D01*
X18335000Y-12835000D02*
X18385000Y-12785000D01*
X18335000Y-12735000D01*
X18285000Y-12785000D01*
X18335000Y-12835000D01*
X18335000Y-13235000D02*
X18385000Y-13185000D01*
X18335000Y-13135000D01*
X18285000Y-13185000D01*
X18335000Y-13235000D01*
X18935000Y-12835000D02*
X18985000Y-12785000D01*
X18935000Y-12735000D01*
X18885000Y-12785000D01*
X18935000Y-12835000D01*
X18935000Y-13235000D02*
X18985000Y-13185000D01*
X18935000Y-13135000D01*
X18885000Y-13185000D01*
X18935000Y-13235000D01*
X17150000Y-12835000D02*
X17200000Y-12785000D01*
X17150000Y-12735000D01*
X17100000Y-12785000D01*
X17150000Y-12835000D01*
X17150000Y-13235000D02*
X17200000Y-13185000D01*
X17150000Y-13135000D01*
X17100000Y-13185000D01*
X17150000Y-13235000D01*
X17750000Y-12835000D02*
X17800000Y-12785000D01*
X17750000Y-12735000D01*
X17700000Y-12785000D01*
X17750000Y-12835000D01*
X17750000Y-13235000D02*
X17800000Y-13185000D01*
X17750000Y-13135000D01*
X17700000Y-13185000D01*
X17750000Y-13235000D01*
X14410000Y-12350000D02*
X14460000Y-12300000D01*
X14410000Y-12250000D01*
X14360000Y-12300000D01*
X14410000Y-12350000D01*
X14664000Y-12350000D02*
X14714000Y-12300000D01*
X14664000Y-12250000D01*
X14614000Y-12300000D01*
X14664000Y-12350000D01*
X14918000Y-12350000D02*
X14968000Y-12300000D01*
X14918000Y-12250000D01*
X14868000Y-12300000D01*
X14918000Y-12350000D01*
X15172000Y-12350000D02*
X15222000Y-12300000D01*
X15172000Y-12250000D01*
X15122000Y-12300000D01*
X15172000Y-12350000D01*
X15426000Y-12350000D02*
X15476000Y-12300000D01*
X15426000Y-12250000D01*
X15376000Y-12300000D01*
X15426000Y-12350000D01*
X15680000Y-12350000D02*
X15730000Y-12300000D01*
X15680000Y-12250000D01*
X15630000Y-12300000D01*
X15680000Y-12350000D01*
X15934000Y-12350000D02*
X15984000Y-12300000D01*
X15934000Y-12250000D01*
X15884000Y-12300000D01*
X15934000Y-12350000D01*
X16188000Y-12350000D02*
X16238000Y-12300000D01*
X16188000Y-12250000D01*
X16138000Y-12300000D01*
X16188000Y-12350000D01*
X16442000Y-12350000D02*
X16492000Y-12300000D01*
X16442000Y-12250000D01*
X16392000Y-12300000D01*
X16442000Y-12350000D01*
X19555000Y-12835000D02*
X19605000Y-12785000D01*
X19555000Y-12735000D01*
X19505000Y-12785000D01*
X19555000Y-12835000D01*
X19555000Y-13235000D02*
X19605000Y-13185000D01*
X19555000Y-13135000D01*
X19505000Y-13185000D01*
X19555000Y-13235000D01*
X20155000Y-12835000D02*
X20205000Y-12785000D01*
X20155000Y-12735000D01*
X20105000Y-12785000D01*
X20155000Y-12835000D01*
X20155000Y-13235000D02*
X20205000Y-13185000D01*
X20155000Y-13135000D01*
X20105000Y-13185000D01*
X20155000Y-13235000D01*
X12471000Y-8547000D02*
X12521000Y-8497000D01*
X12471000Y-8447000D01*
X12421000Y-8497000D01*
X12471000Y-8547000D01*
X12471000Y-8801000D02*
X12521000Y-8751000D01*
X12471000Y-8701000D01*
X12421000Y-8751000D01*
X12471000Y-8801000D01*
X12471000Y-9055000D02*
X12521000Y-9005000D01*
X12471000Y-8955000D01*
X12421000Y-9005000D01*
X12471000Y-9055000D01*
X12471000Y-9309000D02*
X12521000Y-9259000D01*
X12471000Y-9209000D01*
X12421000Y-9259000D01*
X12471000Y-9309000D01*
X12471000Y-9563000D02*
X12521000Y-9513000D01*
X12471000Y-9463000D01*
X12421000Y-9513000D01*
X12471000Y-9563000D01*
X12471000Y-9817000D02*
X12521000Y-9767000D01*
X12471000Y-9717000D01*
X12421000Y-9767000D01*
X12471000Y-9817000D01*
X12471000Y-10071000D02*
X12521000Y-10021000D01*
X12471000Y-9971000D01*
X12421000Y-10021000D01*
X12471000Y-10071000D01*
X12471000Y-10325000D02*
X12521000Y-10275000D01*
X12471000Y-10225000D01*
X12421000Y-10275000D01*
X12471000Y-10325000D01*
X12725000Y-8547000D02*
X12775000Y-8497000D01*
X12725000Y-8447000D01*
X12675000Y-8497000D01*
X12725000Y-8547000D01*
X12725000Y-8801000D02*
X12775000Y-8751000D01*
X12725000Y-8701000D01*
X12675000Y-8751000D01*
X12725000Y-8801000D01*
X12725000Y-9055000D02*
X12775000Y-9005000D01*
X12725000Y-8955000D01*
X12675000Y-9005000D01*
X12725000Y-9055000D01*
X12725000Y-9309000D02*
X12775000Y-9259000D01*
X12725000Y-9209000D01*
X12675000Y-9259000D01*
X12725000Y-9309000D01*
X12725000Y-9563000D02*
X12775000Y-9513000D01*
X12725000Y-9463000D01*
X12675000Y-9513000D01*
X12725000Y-9563000D01*
X12725000Y-9817000D02*
X12775000Y-9767000D01*
X12725000Y-9717000D01*
X12675000Y-9767000D01*
X12725000Y-9817000D01*
X12725000Y-10071000D02*
X12775000Y-10021000D01*
X12725000Y-9971000D01*
X12675000Y-10021000D01*
X12725000Y-10071000D01*
X12725000Y-10325000D02*
X12775000Y-10275000D01*
X12725000Y-10225000D01*
X12675000Y-10275000D01*
X12725000Y-10325000D01*
X17530000Y-7650000D02*
X17580000Y-7600000D01*
X17530000Y-7550000D01*
X17480000Y-7600000D01*
X17530000Y-7650000D01*
X17784000Y-7650000D02*
X17834000Y-7600000D01*
X17784000Y-7550000D01*
X17734000Y-7600000D01*
X17784000Y-7650000D01*
X18038000Y-7650000D02*
X18088000Y-7600000D01*
X18038000Y-7550000D01*
X17988000Y-7600000D01*
X18038000Y-7650000D01*
X18292000Y-7650000D02*
X18342000Y-7600000D01*
X18292000Y-7550000D01*
X18242000Y-7600000D01*
X18292000Y-7650000D01*
X18546000Y-7650000D02*
X18596000Y-7600000D01*
X18546000Y-7550000D01*
X18496000Y-7600000D01*
X18546000Y-7650000D01*
X18800000Y-7650000D02*
X18850000Y-7600000D01*
X18800000Y-7550000D01*
X18750000Y-7600000D01*
X18800000Y-7650000D01*
X15975000Y-12840000D02*
X16025000Y-12790000D01*
X15975000Y-12740000D01*
X15925000Y-12790000D01*
X15975000Y-12840000D01*
X15975000Y-13240000D02*
X16025000Y-13190000D01*
X15975000Y-13140000D01*
X15925000Y-13190000D01*
X15975000Y-13240000D01*
X16575000Y-12840000D02*
X16625000Y-12790000D01*
X16575000Y-12740000D01*
X16525000Y-12790000D01*
X16575000Y-12840000D01*
X16575000Y-13240000D02*
X16625000Y-13190000D01*
X16575000Y-13140000D01*
X16525000Y-13190000D01*
X16575000Y-13240000D01*
X20045000Y-6360000D02*
X20095000Y-6310000D01*
X20045000Y-6260000D01*
X19995000Y-6310000D01*
X20045000Y-6360000D01*
X20005000Y-6210000D02*
X20005000Y-6410000D01*
X20085000Y-6210000D02*
X20085000Y-6410000D01*
X20005000Y-6410000D02*
G75*
G03X20085000Y-6410000I40000J0D01*
G01*
X20085000Y-6210000D02*
G75*
G03X20005000Y-6210000I-40000J0D01*
G01*
X20515000Y-6060000D02*
X20565000Y-6010000D01*
X20515000Y-5960000D01*
X20465000Y-6010000D01*
X20515000Y-6060000D01*
X20615000Y-5970000D02*
X20415000Y-5970000D01*
X20615000Y-6050000D02*
X20415000Y-6050000D01*
X20415000Y-5970000D02*
G75*
G03X20415000Y-6050000I0J-40000D01*
G01*
X20615000Y-6050000D02*
G75*
G03X20615000Y-5970000I0J40000D01*
G01*
X20515000Y-6660000D02*
X20565000Y-6610000D01*
X20515000Y-6560000D01*
X20465000Y-6610000D01*
X20515000Y-6660000D01*
X20615000Y-6570000D02*
X20415000Y-6570000D01*
X20615000Y-6650000D02*
X20415000Y-6650000D01*
X20415000Y-6570000D02*
G75*
G03X20415000Y-6650000I0J-40000D01*
G01*
X20615000Y-6650000D02*
G75*
G03X20615000Y-6570000I0J40000D01*
G01*
X12210000Y-12835000D02*
X12260000Y-12785000D01*
X12210000Y-12735000D01*
X12160000Y-12785000D01*
X12210000Y-12835000D01*
X12210000Y-13235000D02*
X12260000Y-13185000D01*
X12210000Y-13135000D01*
X12160000Y-13185000D01*
X12210000Y-13235000D01*
X12810000Y-12835000D02*
X12860000Y-12785000D01*
X12810000Y-12735000D01*
X12760000Y-12785000D01*
X12810000Y-12835000D01*
X12810000Y-13235000D02*
X12860000Y-13185000D01*
X12810000Y-13135000D01*
X12760000Y-13185000D01*
X12810000Y-13235000D01*
X14410000Y-11810000D02*
X14460000Y-11760000D01*
X14410000Y-11710000D01*
X14360000Y-11760000D01*
X14410000Y-11810000D01*
X14664000Y-11810000D02*
X14714000Y-11760000D01*
X14664000Y-11710000D01*
X14614000Y-11760000D01*
X14664000Y-11810000D01*
X14918000Y-11810000D02*
X14968000Y-11760000D01*
X14918000Y-11710000D01*
X14868000Y-11760000D01*
X14918000Y-11810000D01*
X15172000Y-11810000D02*
X15222000Y-11760000D01*
X15172000Y-11710000D01*
X15122000Y-11760000D01*
X15172000Y-11810000D01*
X15426000Y-11810000D02*
X15476000Y-11760000D01*
X15426000Y-11710000D01*
X15376000Y-11760000D01*
X15426000Y-11810000D01*
X15680000Y-11810000D02*
X15730000Y-11760000D01*
X15680000Y-11710000D01*
X15630000Y-11760000D01*
X15680000Y-11810000D01*
X15934000Y-11810000D02*
X15984000Y-11760000D01*
X15934000Y-11710000D01*
X15884000Y-11760000D01*
X15934000Y-11810000D01*
X16188000Y-11810000D02*
X16238000Y-11760000D01*
X16188000Y-11710000D01*
X16138000Y-11760000D01*
X16188000Y-11810000D01*
X16442000Y-11810000D02*
X16492000Y-11760000D01*
X16442000Y-11710000D01*
X16392000Y-11760000D01*
X16442000Y-11810000D01*
X11550000Y-7070000D02*
X11600000Y-7020000D01*
X11550000Y-6970000D01*
X11500000Y-7020000D01*
X11550000Y-7070000D01*
X11804000Y-7070000D02*
X11854000Y-7020000D01*
X11804000Y-6970000D01*
X11754000Y-7020000D01*
X11804000Y-7070000D01*
X12058000Y-7070000D02*
X12108000Y-7020000D01*
X12058000Y-6970000D01*
X12008000Y-7020000D01*
X12058000Y-7070000D01*
X12312000Y-7070000D02*
X12362000Y-7020000D01*
X12312000Y-6970000D01*
X12262000Y-7020000D01*
X12312000Y-7070000D01*
X12566000Y-7070000D02*
X12616000Y-7020000D01*
X12566000Y-6970000D01*
X12516000Y-7020000D01*
X12566000Y-7070000D01*
X12820000Y-7070000D02*
X12870000Y-7020000D01*
X12820000Y-6970000D01*
X12770000Y-7020000D01*
X12820000Y-7070000D01*
X13074000Y-7070000D02*
X13124000Y-7020000D01*
X13074000Y-6970000D01*
X13024000Y-7020000D01*
X13074000Y-7070000D01*
X13328000Y-7070000D02*
X13378000Y-7020000D01*
X13328000Y-6970000D01*
X13278000Y-7020000D01*
X13328000Y-7070000D01*
X13582000Y-7070000D02*
X13632000Y-7020000D01*
X13582000Y-6970000D01*
X13532000Y-7020000D01*
X13582000Y-7070000D01*
X13836000Y-7070000D02*
X13886000Y-7020000D01*
X13836000Y-6970000D01*
X13786000Y-7020000D01*
X13836000Y-7070000D01*
X14090000Y-7070000D02*
X14140000Y-7020000D01*
X14090000Y-6970000D01*
X14040000Y-7020000D01*
X14090000Y-7070000D01*
X14344000Y-7070000D02*
X14394000Y-7020000D01*
X14344000Y-6970000D01*
X14294000Y-7020000D01*
X14344000Y-7070000D01*
X14598000Y-7070000D02*
X14648000Y-7020000D01*
X14598000Y-6970000D01*
X14548000Y-7020000D01*
X14598000Y-7070000D01*
X14852000Y-7070000D02*
X14902000Y-7020000D01*
X14852000Y-6970000D01*
X14802000Y-7020000D01*
X14852000Y-7070000D01*
X15106000Y-7070000D02*
X15156000Y-7020000D01*
X15106000Y-6970000D01*
X15056000Y-7020000D01*
X15106000Y-7070000D01*
X15360000Y-7070000D02*
X15410000Y-7020000D01*
X15360000Y-6970000D01*
X15310000Y-7020000D01*
X15360000Y-7070000D01*
X16188900Y-7544000D02*
X16238900Y-7494000D01*
X16188900Y-7444000D01*
X16138900Y-7494000D01*
X16188900Y-7544000D01*
X16442900Y-7544000D02*
X16492900Y-7494000D01*
X16442900Y-7444000D01*
X16392900Y-7494000D01*
X16442900Y-7544000D01*
X16696900Y-7544000D02*
X16746900Y-7494000D01*
X16696900Y-7444000D01*
X16646900Y-7494000D01*
X16696900Y-7544000D01*
X16775000Y-8140000D02*
X16825000Y-8090000D01*
X16775000Y-8040000D01*
X16725000Y-8090000D01*
X16775000Y-8140000D01*
X17029000Y-8140000D02*
X17079000Y-8090000D01*
X17029000Y-8040000D01*
X16979000Y-8090000D01*
X17029000Y-8140000D01*
X17283000Y-8140000D02*
X17333000Y-8090000D01*
X17283000Y-8040000D01*
X17233000Y-8090000D01*
X17283000Y-8140000D01*
X17537000Y-8140000D02*
X17587000Y-8090000D01*
X17537000Y-8040000D01*
X17487000Y-8090000D01*
X17537000Y-8140000D01*
X17791000Y-8140000D02*
X17841000Y-8090000D01*
X17791000Y-8040000D01*
X17741000Y-8090000D01*
X17791000Y-8140000D01*
X18045000Y-8140000D02*
X18095000Y-8090000D01*
X18045000Y-8040000D01*
X17995000Y-8090000D01*
X18045000Y-8140000D01*
X16766000Y-11310000D02*
X16816000Y-11260000D01*
X16766000Y-11210000D01*
X16716000Y-11260000D01*
X16766000Y-11310000D01*
X17020000Y-11310000D02*
X17070000Y-11260000D01*
X17020000Y-11210000D01*
X16970000Y-11260000D01*
X17020000Y-11310000D01*
X10900000Y-12835000D02*
X10950000Y-12785000D01*
X10900000Y-12735000D01*
X10850000Y-12785000D01*
X10900000Y-12835000D01*
X10900000Y-13235000D02*
X10950000Y-13185000D01*
X10900000Y-13135000D01*
X10850000Y-13185000D01*
X10900000Y-13235000D01*
X11500000Y-12835000D02*
X11550000Y-12785000D01*
X11500000Y-12735000D01*
X11450000Y-12785000D01*
X11500000Y-12835000D01*
X11500000Y-13235000D02*
X11550000Y-13185000D01*
X11500000Y-13135000D01*
X11450000Y-13185000D01*
X11500000Y-13235000D01*
X14374978Y-6174962D02*
X14475054Y-6275038D01*
X14475054Y-6174962D02*
X14374978Y-6275038D01*
X14475054Y-6225000D02*
G75*
G03X14475054Y-6225000I-50038J0D01*
G01*
X15134946Y-6174962D02*
X15235022Y-6275038D01*
X15235022Y-6174962D02*
X15134946Y-6275038D01*
X15235022Y-6225000D02*
G75*
G03X15235022Y-6225000I-50038J0D01*
G01*
X10342850Y-8638850D02*
X10457150Y-8753150D01*
X10457150Y-8638850D02*
X10342850Y-8753150D01*
X10400000Y-8638850D02*
X10400000Y-8753150D01*
X10342850Y-8696000D02*
X10457150Y-8696000D01*
X10342850Y-8892850D02*
X10457150Y-9007150D01*
X10457150Y-8892850D02*
X10342850Y-9007150D01*
X10400000Y-8892850D02*
X10400000Y-9007150D01*
X10342850Y-8950000D02*
X10457150Y-8950000D01*
X10342850Y-9146850D02*
X10457150Y-9261150D01*
X10457150Y-9146850D02*
X10342850Y-9261150D01*
X10400000Y-9146850D02*
X10400000Y-9261150D01*
X10342850Y-9204000D02*
X10457150Y-9204000D01*
X10342850Y-7363850D02*
X10457150Y-7478150D01*
X10457150Y-7363850D02*
X10342850Y-7478150D01*
X10400000Y-7363850D02*
X10400000Y-7478150D01*
X10342850Y-7421000D02*
X10457150Y-7421000D01*
X10342850Y-7617850D02*
X10457150Y-7732150D01*
X10457150Y-7617850D02*
X10342850Y-7732150D01*
X10400000Y-7617850D02*
X10400000Y-7732150D01*
X10342850Y-7675000D02*
X10457150Y-7675000D01*
X10342850Y-7871850D02*
X10457150Y-7986150D01*
X10457150Y-7871850D02*
X10342850Y-7986150D01*
X10400000Y-7871850D02*
X10400000Y-7986150D01*
X10342850Y-7929000D02*
X10457150Y-7929000D01*
X11295000Y-9575000D02*
X11425000Y-9705000D01*
X11425000Y-9575000D02*
X11295000Y-9705000D01*
X11405962Y-9685962D02*
X11405962Y-9594038D01*
X11314038Y-9594038D01*
X11314038Y-9685962D01*
X11405962Y-9685962D01*
X11295000Y-10075000D02*
X11425000Y-10205000D01*
X11425000Y-10075000D02*
X11295000Y-10205000D01*
X11405962Y-10185962D02*
X11405962Y-10094038D01*
X11314038Y-10094038D01*
X11314038Y-10185962D01*
X11405962Y-10185962D01*
X11795000Y-9825000D02*
X11925000Y-9955000D01*
X11925000Y-9825000D02*
X11795000Y-9955000D01*
X11905962Y-9935962D02*
X11905962Y-9844038D01*
X11814038Y-9844038D01*
X11814038Y-9935962D01*
X11905962Y-9935962D01*
X10100000Y-9895000D02*
X10230000Y-10025000D01*
X10230000Y-9895000D02*
X10100000Y-10025000D01*
X10210962Y-10005962D02*
X10210962Y-9914038D01*
X10119038Y-9914038D01*
X10119038Y-10005962D01*
X10210962Y-10005962D01*
X10100000Y-10395000D02*
X10230000Y-10525000D01*
X10230000Y-10395000D02*
X10100000Y-10525000D01*
X10210962Y-10505962D02*
X10210962Y-10414038D01*
X10119038Y-10414038D01*
X10119038Y-10505962D01*
X10210962Y-10505962D01*
X10100000Y-10895000D02*
X10230000Y-11025000D01*
X10230000Y-10895000D02*
X10100000Y-11025000D01*
X10210962Y-11005962D02*
X10210962Y-10914038D01*
X10119038Y-10914038D01*
X10119038Y-11005962D01*
X10210962Y-11005962D01*
X19397200Y-6189200D02*
X19617200Y-6409200D01*
X19617200Y-6189200D02*
X19397200Y-6409200D01*
X19507200Y-6409200D02*
X19617200Y-6299200D01*
X19507200Y-6189200D01*
X19397200Y-6299200D01*
X19507200Y-6409200D01*
X10260000Y-11585000D02*
X10480000Y-11805000D01*
X10480000Y-11585000D02*
X10260000Y-11805000D01*
X10370000Y-11805000D02*
X10480000Y-11695000D01*
X10370000Y-11585000D01*
X10260000Y-11695000D01*
X10370000Y-11805000D01*
X10280000Y-12645000D02*
X10500000Y-12865000D01*
X10500000Y-12645000D02*
X10280000Y-12865000D01*
X10390000Y-12865000D02*
X10500000Y-12755000D01*
X10390000Y-12645000D01*
X10280000Y-12755000D01*
X10390000Y-12865000D01*
X19395000Y-11580000D02*
X19615000Y-11800000D01*
X19615000Y-11580000D02*
X19395000Y-11800000D01*
X19505000Y-11800000D02*
X19615000Y-11690000D01*
X19505000Y-11580000D01*
X19395000Y-11690000D01*
X19505000Y-11800000D01*
X20495000Y-12640000D02*
X20715000Y-12860000D01*
X20715000Y-12640000D02*
X20495000Y-12860000D01*
X20605000Y-12860000D02*
X20715000Y-12750000D01*
X20605000Y-12640000D01*
X20495000Y-12750000D01*
X20605000Y-12860000D01*
X11740000Y-6275000D02*
X11960000Y-6495000D01*
X11960000Y-6275000D02*
X11740000Y-6495000D01*
X11850000Y-6495000D02*
X11960000Y-6385000D01*
X11850000Y-6275000D01*
X11740000Y-6385000D01*
X11850000Y-6495000D01*
X20230000Y-6935370D02*
X20230000Y-7204630D01*
X20095370Y-7070000D02*
X20364630Y-7070000D01*
X20364630Y-7070000D02*
G75*
G03X20364630Y-7070000I-134630J0D01*
G01*
X20230000Y-7685370D02*
X20230000Y-7954630D01*
X20095370Y-7820000D02*
X20364630Y-7820000D01*
X20364630Y-7820000D02*
G75*
G03X20364630Y-7820000I-134630J0D01*
G01*
X20230000Y-8165370D02*
X20230000Y-8434630D01*
X20095370Y-8300000D02*
X20364630Y-8300000D01*
X20364630Y-8300000D02*
G75*
G03X20364630Y-8300000I-134630J0D01*
G01*
X20230000Y-8915370D02*
X20230000Y-9184630D01*
X20095370Y-9050000D02*
X20364630Y-9050000D01*
X20364630Y-9050000D02*
G75*
G03X20364630Y-9050000I-134630J0D01*
G01*
X20699625Y-7544625D02*
X20699625Y-7345375D01*
X20500375Y-7345375D01*
X20500375Y-7544625D01*
X20699625Y-7544625D01*
X20740890Y-7445000D02*
G75*
G03X20740890Y-7445000I-140890J0D01*
G01*
X20699625Y-8774625D02*
X20699625Y-8575375D01*
X20500375Y-8575375D01*
X20500375Y-8774625D01*
X20699625Y-8774625D01*
X20740890Y-8675000D02*
G75*
G03X20740890Y-8675000I-140890J0D01*
G01*
D12*
X10281428Y-13810714D02*
X10281428Y-13510714D01*
X10352857Y-13510714D01*
X10395714Y-13525000D01*
X10424286Y-13553571D01*
X10438571Y-13582143D01*
X10452857Y-13639286D01*
X10452857Y-13682143D01*
X10438571Y-13739286D01*
X10424286Y-13767857D01*
X10395714Y-13796429D01*
X10352857Y-13810714D01*
X10281428Y-13810714D01*
X10581428Y-13810714D02*
X10581428Y-13610714D01*
X10581428Y-13667857D02*
X10595714Y-13639286D01*
X10610000Y-13625000D01*
X10638571Y-13610714D01*
X10667143Y-13610714D01*
X10767143Y-13810714D02*
X10767143Y-13610714D01*
X10767143Y-13510714D02*
X10752857Y-13525000D01*
X10767143Y-13539286D01*
X10781428Y-13525000D01*
X10767143Y-13510714D01*
X10767143Y-13539286D01*
X10952857Y-13810714D02*
X10924286Y-13796429D01*
X10910000Y-13767857D01*
X10910000Y-13510714D01*
X11110000Y-13810714D02*
X11081428Y-13796429D01*
X11067143Y-13767857D01*
X11067143Y-13510714D01*
X11452857Y-13810714D02*
X11452857Y-13510714D01*
X11552857Y-13725000D01*
X11652857Y-13510714D01*
X11652857Y-13810714D01*
X11924286Y-13810714D02*
X11924286Y-13653571D01*
X11910000Y-13625000D01*
X11881428Y-13610714D01*
X11824286Y-13610714D01*
X11795714Y-13625000D01*
X11924286Y-13796429D02*
X11895714Y-13810714D01*
X11824286Y-13810714D01*
X11795714Y-13796429D01*
X11781428Y-13767857D01*
X11781428Y-13739286D01*
X11795714Y-13710714D01*
X11824286Y-13696429D01*
X11895714Y-13696429D01*
X11924286Y-13682143D01*
X12067143Y-13610714D02*
X12067143Y-13910714D01*
X12067143Y-13625000D02*
X12095714Y-13610714D01*
X12152857Y-13610714D01*
X12181428Y-13625000D01*
X12195714Y-13639286D01*
X12210000Y-13667857D01*
X12210000Y-13753571D01*
X12195714Y-13782143D01*
X12181428Y-13796429D01*
X12152857Y-13810714D01*
X12095714Y-13810714D01*
X12067143Y-13796429D01*
X12338571Y-13782143D02*
X12352857Y-13796429D01*
X12338571Y-13810714D01*
X12324286Y-13796429D01*
X12338571Y-13782143D01*
X12338571Y-13810714D01*
X12338571Y-13625000D02*
X12352857Y-13639286D01*
X12338571Y-13653571D01*
X12324286Y-13639286D01*
X12338571Y-13625000D01*
X12338571Y-13653571D01*
X9965000Y-14290000D02*
X9995000Y-14320000D01*
X9995000Y-14290000D02*
X9965000Y-14320000D01*
X10338571Y-14140714D02*
X10367143Y-14140714D01*
X10395714Y-14155000D01*
X10410000Y-14169286D01*
X10424286Y-14197857D01*
X10438571Y-14255000D01*
X10438571Y-14326429D01*
X10424286Y-14383571D01*
X10410000Y-14412143D01*
X10395714Y-14426429D01*
X10367143Y-14440714D01*
X10338571Y-14440714D01*
X10310000Y-14426429D01*
X10295714Y-14412143D01*
X10281428Y-14383571D01*
X10267143Y-14326429D01*
X10267143Y-14255000D01*
X10281428Y-14197857D01*
X10295714Y-14169286D01*
X10310000Y-14155000D01*
X10338571Y-14140714D01*
X10567143Y-14412143D02*
X10581428Y-14426429D01*
X10567143Y-14440714D01*
X10552857Y-14426429D01*
X10567143Y-14412143D01*
X10567143Y-14440714D01*
X10681428Y-14140714D02*
X10867143Y-14140714D01*
X10767143Y-14255000D01*
X10810000Y-14255000D01*
X10838571Y-14269286D01*
X10852857Y-14283571D01*
X10867143Y-14312143D01*
X10867143Y-14383571D01*
X10852857Y-14412143D01*
X10838571Y-14426429D01*
X10810000Y-14440714D01*
X10724286Y-14440714D01*
X10695714Y-14426429D01*
X10681428Y-14412143D01*
X11052857Y-14140714D02*
X11081428Y-14140714D01*
X11110000Y-14155000D01*
X11124286Y-14169286D01*
X11138571Y-14197857D01*
X11152857Y-14255000D01*
X11152857Y-14326429D01*
X11138571Y-14383571D01*
X11124286Y-14412143D01*
X11110000Y-14426429D01*
X11081428Y-14440714D01*
X11052857Y-14440714D01*
X11024286Y-14426429D01*
X11010000Y-14412143D01*
X10995714Y-14383571D01*
X10981428Y-14326429D01*
X10981428Y-14255000D01*
X10995714Y-14197857D01*
X11010000Y-14169286D01*
X11024286Y-14155000D01*
X11052857Y-14140714D01*
X11281428Y-14440714D02*
X11281428Y-14240714D01*
X11281428Y-14269286D02*
X11295714Y-14255000D01*
X11324286Y-14240714D01*
X11367143Y-14240714D01*
X11395714Y-14255000D01*
X11410000Y-14283571D01*
X11410000Y-14440714D01*
X11410000Y-14283571D02*
X11424286Y-14255000D01*
X11452857Y-14240714D01*
X11495714Y-14240714D01*
X11524286Y-14255000D01*
X11538571Y-14283571D01*
X11538571Y-14440714D01*
X11681428Y-14440714D02*
X11681428Y-14240714D01*
X11681428Y-14269286D02*
X11695714Y-14255000D01*
X11724286Y-14240714D01*
X11767143Y-14240714D01*
X11795714Y-14255000D01*
X11810000Y-14283571D01*
X11810000Y-14440714D01*
X11810000Y-14283571D02*
X11824286Y-14255000D01*
X11852857Y-14240714D01*
X11895714Y-14240714D01*
X11924286Y-14255000D01*
X11938571Y-14283571D01*
X11938571Y-14440714D01*
X12524286Y-14126429D02*
X12267143Y-14512143D01*
X12910000Y-14140714D02*
X12938571Y-14140714D01*
X12967143Y-14155000D01*
X12981428Y-14169286D01*
X12995714Y-14197857D01*
X13010000Y-14255000D01*
X13010000Y-14326429D01*
X12995714Y-14383571D01*
X12981428Y-14412143D01*
X12967143Y-14426429D01*
X12938571Y-14440714D01*
X12910000Y-14440714D01*
X12881428Y-14426429D01*
X12867143Y-14412143D01*
X12852857Y-14383571D01*
X12838571Y-14326429D01*
X12838571Y-14255000D01*
X12852857Y-14197857D01*
X12867143Y-14169286D01*
X12881428Y-14155000D01*
X12910000Y-14140714D01*
X13138571Y-14412143D02*
X13152857Y-14426429D01*
X13138571Y-14440714D01*
X13124286Y-14426429D01*
X13138571Y-14412143D01*
X13138571Y-14440714D01*
X13338571Y-14140714D02*
X13367143Y-14140714D01*
X13395714Y-14155000D01*
X13410000Y-14169286D01*
X13424286Y-14197857D01*
X13438571Y-14255000D01*
X13438571Y-14326429D01*
X13424286Y-14383571D01*
X13410000Y-14412143D01*
X13395714Y-14426429D01*
X13367143Y-14440714D01*
X13338571Y-14440714D01*
X13310000Y-14426429D01*
X13295714Y-14412143D01*
X13281428Y-14383571D01*
X13267143Y-14326429D01*
X13267143Y-14255000D01*
X13281428Y-14197857D01*
X13295714Y-14169286D01*
X13310000Y-14155000D01*
X13338571Y-14140714D01*
X13724286Y-14440714D02*
X13552857Y-14440714D01*
X13638571Y-14440714D02*
X13638571Y-14140714D01*
X13610000Y-14183571D01*
X13581428Y-14212143D01*
X13552857Y-14226429D01*
X13838571Y-14169286D02*
X13852857Y-14155000D01*
X13881428Y-14140714D01*
X13952857Y-14140714D01*
X13981428Y-14155000D01*
X13995714Y-14169286D01*
X14010000Y-14197857D01*
X14010000Y-14226429D01*
X13995714Y-14269286D01*
X13824286Y-14440714D01*
X14010000Y-14440714D01*
X14124286Y-14140714D02*
X14124286Y-14197857D01*
X14238571Y-14140714D02*
X14238571Y-14197857D01*
X14681428Y-14555000D02*
X14667143Y-14540714D01*
X14638571Y-14497857D01*
X14624286Y-14469286D01*
X14610000Y-14426429D01*
X14595714Y-14355000D01*
X14595714Y-14297857D01*
X14610000Y-14226429D01*
X14624286Y-14183571D01*
X14638571Y-14155000D01*
X14667143Y-14112143D01*
X14681428Y-14097857D01*
X14952857Y-14440714D02*
X14781428Y-14440714D01*
X14867143Y-14440714D02*
X14867143Y-14140714D01*
X14838571Y-14183571D01*
X14810000Y-14212143D01*
X14781428Y-14226429D01*
X15210000Y-14140714D02*
X15152857Y-14140714D01*
X15124286Y-14155000D01*
X15110000Y-14169286D01*
X15081428Y-14212143D01*
X15067143Y-14269286D01*
X15067143Y-14383571D01*
X15081428Y-14412143D01*
X15095714Y-14426429D01*
X15124286Y-14440714D01*
X15181428Y-14440714D01*
X15210000Y-14426429D01*
X15224286Y-14412143D01*
X15238571Y-14383571D01*
X15238571Y-14312143D01*
X15224286Y-14283571D01*
X15210000Y-14269286D01*
X15181428Y-14255000D01*
X15124286Y-14255000D01*
X15095714Y-14269286D01*
X15081428Y-14283571D01*
X15067143Y-14312143D01*
X15595714Y-14440714D02*
X15595714Y-14140714D01*
X15724286Y-14440714D02*
X15724286Y-14283571D01*
X15710000Y-14255000D01*
X15681428Y-14240714D01*
X15638571Y-14240714D01*
X15610000Y-14255000D01*
X15595714Y-14269286D01*
X15910000Y-14440714D02*
X15881428Y-14426429D01*
X15867143Y-14412143D01*
X15852857Y-14383571D01*
X15852857Y-14297857D01*
X15867143Y-14269286D01*
X15881428Y-14255000D01*
X15910000Y-14240714D01*
X15952857Y-14240714D01*
X15981428Y-14255000D01*
X15995714Y-14269286D01*
X16010000Y-14297857D01*
X16010000Y-14383571D01*
X15995714Y-14412143D01*
X15981428Y-14426429D01*
X15952857Y-14440714D01*
X15910000Y-14440714D01*
X16181428Y-14440714D02*
X16152857Y-14426429D01*
X16138571Y-14397857D01*
X16138571Y-14140714D01*
X16410000Y-14426429D02*
X16381428Y-14440714D01*
X16324286Y-14440714D01*
X16295714Y-14426429D01*
X16281428Y-14397857D01*
X16281428Y-14283571D01*
X16295714Y-14255000D01*
X16324286Y-14240714D01*
X16381428Y-14240714D01*
X16410000Y-14255000D01*
X16424286Y-14283571D01*
X16424286Y-14312143D01*
X16281428Y-14340714D01*
X16538571Y-14426429D02*
X16567143Y-14440714D01*
X16624286Y-14440714D01*
X16652857Y-14426429D01*
X16667143Y-14397857D01*
X16667143Y-14383571D01*
X16652857Y-14355000D01*
X16624286Y-14340714D01*
X16581428Y-14340714D01*
X16552857Y-14326429D01*
X16538571Y-14297857D01*
X16538571Y-14283571D01*
X16552857Y-14255000D01*
X16581428Y-14240714D01*
X16624286Y-14240714D01*
X16652857Y-14255000D01*
X16767143Y-14555000D02*
X16781428Y-14540714D01*
X16810000Y-14497857D01*
X16824286Y-14469286D01*
X16838571Y-14426429D01*
X16852857Y-14355000D01*
X16852857Y-14297857D01*
X16838571Y-14226429D01*
X16824286Y-14183571D01*
X16810000Y-14155000D01*
X16781428Y-14112143D01*
X16767143Y-14097857D01*
X9995000Y-14701000D02*
G75*
G03X9995000Y-14701000I-30000J0D01*
G01*
X10338571Y-14536714D02*
X10367143Y-14536714D01*
X10395714Y-14551000D01*
X10410000Y-14565286D01*
X10424286Y-14593857D01*
X10438571Y-14651000D01*
X10438571Y-14722429D01*
X10424286Y-14779571D01*
X10410000Y-14808143D01*
X10395714Y-14822429D01*
X10367143Y-14836714D01*
X10338571Y-14836714D01*
X10310000Y-14822429D01*
X10295714Y-14808143D01*
X10281428Y-14779571D01*
X10267143Y-14722429D01*
X10267143Y-14651000D01*
X10281428Y-14593857D01*
X10295714Y-14565286D01*
X10310000Y-14551000D01*
X10338571Y-14536714D01*
X10567143Y-14808143D02*
X10581428Y-14822429D01*
X10567143Y-14836714D01*
X10552857Y-14822429D01*
X10567143Y-14808143D01*
X10567143Y-14836714D01*
X10838571Y-14536714D02*
X10781428Y-14536714D01*
X10752857Y-14551000D01*
X10738571Y-14565286D01*
X10710000Y-14608143D01*
X10695714Y-14665286D01*
X10695714Y-14779571D01*
X10710000Y-14808143D01*
X10724286Y-14822429D01*
X10752857Y-14836714D01*
X10810000Y-14836714D01*
X10838571Y-14822429D01*
X10852857Y-14808143D01*
X10867143Y-14779571D01*
X10867143Y-14708143D01*
X10852857Y-14679571D01*
X10838571Y-14665286D01*
X10810000Y-14651000D01*
X10752857Y-14651000D01*
X10724286Y-14665286D01*
X10710000Y-14679571D01*
X10695714Y-14708143D01*
X11052857Y-14536714D02*
X11081428Y-14536714D01*
X11110000Y-14551000D01*
X11124286Y-14565286D01*
X11138571Y-14593857D01*
X11152857Y-14651000D01*
X11152857Y-14722429D01*
X11138571Y-14779571D01*
X11124286Y-14808143D01*
X11110000Y-14822429D01*
X11081428Y-14836714D01*
X11052857Y-14836714D01*
X11024286Y-14822429D01*
X11010000Y-14808143D01*
X10995714Y-14779571D01*
X10981428Y-14722429D01*
X10981428Y-14651000D01*
X10995714Y-14593857D01*
X11010000Y-14565286D01*
X11024286Y-14551000D01*
X11052857Y-14536714D01*
X11281428Y-14836714D02*
X11281428Y-14636714D01*
X11281428Y-14665286D02*
X11295714Y-14651000D01*
X11324286Y-14636714D01*
X11367143Y-14636714D01*
X11395714Y-14651000D01*
X11410000Y-14679571D01*
X11410000Y-14836714D01*
X11410000Y-14679571D02*
X11424286Y-14651000D01*
X11452857Y-14636714D01*
X11495714Y-14636714D01*
X11524286Y-14651000D01*
X11538571Y-14679571D01*
X11538571Y-14836714D01*
X11681428Y-14836714D02*
X11681428Y-14636714D01*
X11681428Y-14665286D02*
X11695714Y-14651000D01*
X11724286Y-14636714D01*
X11767143Y-14636714D01*
X11795714Y-14651000D01*
X11810000Y-14679571D01*
X11810000Y-14836714D01*
X11810000Y-14679571D02*
X11824286Y-14651000D01*
X11852857Y-14636714D01*
X11895714Y-14636714D01*
X11924286Y-14651000D01*
X11938571Y-14679571D01*
X11938571Y-14836714D01*
X12524286Y-14522429D02*
X12267143Y-14908143D01*
X12910000Y-14536714D02*
X12938571Y-14536714D01*
X12967143Y-14551000D01*
X12981428Y-14565286D01*
X12995714Y-14593857D01*
X13010000Y-14651000D01*
X13010000Y-14722429D01*
X12995714Y-14779571D01*
X12981428Y-14808143D01*
X12967143Y-14822429D01*
X12938571Y-14836714D01*
X12910000Y-14836714D01*
X12881428Y-14822429D01*
X12867143Y-14808143D01*
X12852857Y-14779571D01*
X12838571Y-14722429D01*
X12838571Y-14651000D01*
X12852857Y-14593857D01*
X12867143Y-14565286D01*
X12881428Y-14551000D01*
X12910000Y-14536714D01*
X13138571Y-14808143D02*
X13152857Y-14822429D01*
X13138571Y-14836714D01*
X13124286Y-14822429D01*
X13138571Y-14808143D01*
X13138571Y-14836714D01*
X13338571Y-14536714D02*
X13367143Y-14536714D01*
X13395714Y-14551000D01*
X13410000Y-14565286D01*
X13424286Y-14593857D01*
X13438571Y-14651000D01*
X13438571Y-14722429D01*
X13424286Y-14779571D01*
X13410000Y-14808143D01*
X13395714Y-14822429D01*
X13367143Y-14836714D01*
X13338571Y-14836714D01*
X13310000Y-14822429D01*
X13295714Y-14808143D01*
X13281428Y-14779571D01*
X13267143Y-14722429D01*
X13267143Y-14651000D01*
X13281428Y-14593857D01*
X13295714Y-14565286D01*
X13310000Y-14551000D01*
X13338571Y-14536714D01*
X13552857Y-14565286D02*
X13567143Y-14551000D01*
X13595714Y-14536714D01*
X13667143Y-14536714D01*
X13695714Y-14551000D01*
X13710000Y-14565286D01*
X13724286Y-14593857D01*
X13724286Y-14622429D01*
X13710000Y-14665286D01*
X13538571Y-14836714D01*
X13724286Y-14836714D01*
X13981428Y-14636714D02*
X13981428Y-14836714D01*
X13910000Y-14522429D02*
X13838571Y-14736714D01*
X14024286Y-14736714D01*
X14124286Y-14536714D02*
X14124286Y-14593857D01*
X14238571Y-14536714D02*
X14238571Y-14593857D01*
X14681428Y-14951000D02*
X14667143Y-14936714D01*
X14638571Y-14893857D01*
X14624286Y-14865286D01*
X14610000Y-14822429D01*
X14595714Y-14751000D01*
X14595714Y-14693857D01*
X14610000Y-14622429D01*
X14624286Y-14579571D01*
X14638571Y-14551000D01*
X14667143Y-14508143D01*
X14681428Y-14493857D01*
X14852857Y-14536714D02*
X14881428Y-14536714D01*
X14910000Y-14551000D01*
X14924286Y-14565286D01*
X14938571Y-14593857D01*
X14952857Y-14651000D01*
X14952857Y-14722429D01*
X14938571Y-14779571D01*
X14924286Y-14808143D01*
X14910000Y-14822429D01*
X14881428Y-14836714D01*
X14852857Y-14836714D01*
X14824286Y-14822429D01*
X14810000Y-14808143D01*
X14795714Y-14779571D01*
X14781428Y-14722429D01*
X14781428Y-14651000D01*
X14795714Y-14593857D01*
X14810000Y-14565286D01*
X14824286Y-14551000D01*
X14852857Y-14536714D01*
X15310000Y-14836714D02*
X15310000Y-14536714D01*
X15438571Y-14836714D02*
X15438571Y-14679571D01*
X15424286Y-14651000D01*
X15395714Y-14636714D01*
X15352857Y-14636714D01*
X15324286Y-14651000D01*
X15310000Y-14665286D01*
X15624286Y-14836714D02*
X15595714Y-14822429D01*
X15581428Y-14808143D01*
X15567143Y-14779571D01*
X15567143Y-14693857D01*
X15581428Y-14665286D01*
X15595714Y-14651000D01*
X15624286Y-14636714D01*
X15667143Y-14636714D01*
X15695714Y-14651000D01*
X15710000Y-14665286D01*
X15724286Y-14693857D01*
X15724286Y-14779571D01*
X15710000Y-14808143D01*
X15695714Y-14822429D01*
X15667143Y-14836714D01*
X15624286Y-14836714D01*
X15895714Y-14836714D02*
X15867143Y-14822429D01*
X15852857Y-14793857D01*
X15852857Y-14536714D01*
X16124286Y-14822429D02*
X16095714Y-14836714D01*
X16038571Y-14836714D01*
X16010000Y-14822429D01*
X15995714Y-14793857D01*
X15995714Y-14679571D01*
X16010000Y-14651000D01*
X16038571Y-14636714D01*
X16095714Y-14636714D01*
X16124286Y-14651000D01*
X16138571Y-14679571D01*
X16138571Y-14708143D01*
X15995714Y-14736714D01*
X16252857Y-14822429D02*
X16281428Y-14836714D01*
X16338571Y-14836714D01*
X16367143Y-14822429D01*
X16381428Y-14793857D01*
X16381428Y-14779571D01*
X16367143Y-14751000D01*
X16338571Y-14736714D01*
X16295714Y-14736714D01*
X16267143Y-14722429D01*
X16252857Y-14693857D01*
X16252857Y-14679571D01*
X16267143Y-14651000D01*
X16295714Y-14636714D01*
X16338571Y-14636714D01*
X16367143Y-14651000D01*
X16738571Y-14722429D02*
X16967143Y-14722429D01*
X16852857Y-14836714D02*
X16852857Y-14608143D01*
X17381428Y-14665286D02*
X17352857Y-14651000D01*
X17338571Y-14636714D01*
X17324286Y-14608143D01*
X17324286Y-14593857D01*
X17338571Y-14565286D01*
X17352857Y-14551000D01*
X17381428Y-14536714D01*
X17438571Y-14536714D01*
X17467143Y-14551000D01*
X17481428Y-14565286D01*
X17495714Y-14593857D01*
X17495714Y-14608143D01*
X17481428Y-14636714D01*
X17467143Y-14651000D01*
X17438571Y-14665286D01*
X17381428Y-14665286D01*
X17352857Y-14679571D01*
X17338571Y-14693857D01*
X17324286Y-14722429D01*
X17324286Y-14779571D01*
X17338571Y-14808143D01*
X17352857Y-14822429D01*
X17381428Y-14836714D01*
X17438571Y-14836714D01*
X17467143Y-14822429D01*
X17481428Y-14808143D01*
X17495714Y-14779571D01*
X17495714Y-14722429D01*
X17481428Y-14693857D01*
X17467143Y-14679571D01*
X17438571Y-14665286D01*
X17838571Y-14822429D02*
X17867143Y-14836714D01*
X17924286Y-14836714D01*
X17952857Y-14822429D01*
X17967143Y-14793857D01*
X17967143Y-14779571D01*
X17952857Y-14751000D01*
X17924286Y-14736714D01*
X17881428Y-14736714D01*
X17852857Y-14722429D01*
X17838571Y-14693857D01*
X17838571Y-14679571D01*
X17852857Y-14651000D01*
X17881428Y-14636714D01*
X17924286Y-14636714D01*
X17952857Y-14651000D01*
X18138571Y-14836714D02*
X18110000Y-14822429D01*
X18095714Y-14793857D01*
X18095714Y-14536714D01*
X18295714Y-14836714D02*
X18267143Y-14822429D01*
X18252857Y-14808143D01*
X18238571Y-14779571D01*
X18238571Y-14693857D01*
X18252857Y-14665286D01*
X18267143Y-14651000D01*
X18295714Y-14636714D01*
X18338571Y-14636714D01*
X18367143Y-14651000D01*
X18381428Y-14665286D01*
X18395714Y-14693857D01*
X18395714Y-14779571D01*
X18381428Y-14808143D01*
X18367143Y-14822429D01*
X18338571Y-14836714D01*
X18295714Y-14836714D01*
X18481428Y-14636714D02*
X18595714Y-14636714D01*
X18524286Y-14536714D02*
X18524286Y-14793857D01*
X18538571Y-14822429D01*
X18567143Y-14836714D01*
X18595714Y-14836714D01*
X18681428Y-14822429D02*
X18710000Y-14836714D01*
X18767143Y-14836714D01*
X18795714Y-14822429D01*
X18810000Y-14793857D01*
X18810000Y-14779571D01*
X18795714Y-14751000D01*
X18767143Y-14736714D01*
X18724286Y-14736714D01*
X18695714Y-14722429D01*
X18681428Y-14693857D01*
X18681428Y-14679571D01*
X18695714Y-14651000D01*
X18724286Y-14636714D01*
X18767143Y-14636714D01*
X18795714Y-14651000D01*
X18910000Y-14951000D02*
X18924286Y-14936714D01*
X18952857Y-14893857D01*
X18967143Y-14865286D01*
X18981428Y-14822429D01*
X18995714Y-14751000D01*
X18995714Y-14693857D01*
X18981428Y-14622429D01*
X18967143Y-14579571D01*
X18952857Y-14551000D01*
X18924286Y-14508143D01*
X18910000Y-14493857D01*
X9955000Y-15057000D02*
X9955000Y-15137000D01*
X9915000Y-15097000D02*
X9995000Y-15097000D01*
X10338571Y-14932714D02*
X10367143Y-14932714D01*
X10395714Y-14947000D01*
X10410000Y-14961286D01*
X10424286Y-14989857D01*
X10438571Y-15047000D01*
X10438571Y-15118429D01*
X10424286Y-15175571D01*
X10410000Y-15204143D01*
X10395714Y-15218429D01*
X10367143Y-15232714D01*
X10338571Y-15232714D01*
X10310000Y-15218429D01*
X10295714Y-15204143D01*
X10281428Y-15175571D01*
X10267143Y-15118429D01*
X10267143Y-15047000D01*
X10281428Y-14989857D01*
X10295714Y-14961286D01*
X10310000Y-14947000D01*
X10338571Y-14932714D01*
X10567143Y-15204143D02*
X10581428Y-15218429D01*
X10567143Y-15232714D01*
X10552857Y-15218429D01*
X10567143Y-15204143D01*
X10567143Y-15232714D01*
X10752857Y-15061286D02*
X10724286Y-15047000D01*
X10710000Y-15032714D01*
X10695714Y-15004143D01*
X10695714Y-14989857D01*
X10710000Y-14961286D01*
X10724286Y-14947000D01*
X10752857Y-14932714D01*
X10810000Y-14932714D01*
X10838571Y-14947000D01*
X10852857Y-14961286D01*
X10867143Y-14989857D01*
X10867143Y-15004143D01*
X10852857Y-15032714D01*
X10838571Y-15047000D01*
X10810000Y-15061286D01*
X10752857Y-15061286D01*
X10724286Y-15075571D01*
X10710000Y-15089857D01*
X10695714Y-15118429D01*
X10695714Y-15175571D01*
X10710000Y-15204143D01*
X10724286Y-15218429D01*
X10752857Y-15232714D01*
X10810000Y-15232714D01*
X10838571Y-15218429D01*
X10852857Y-15204143D01*
X10867143Y-15175571D01*
X10867143Y-15118429D01*
X10852857Y-15089857D01*
X10838571Y-15075571D01*
X10810000Y-15061286D01*
X11052857Y-14932714D02*
X11081428Y-14932714D01*
X11110000Y-14947000D01*
X11124286Y-14961286D01*
X11138571Y-14989857D01*
X11152857Y-15047000D01*
X11152857Y-15118429D01*
X11138571Y-15175571D01*
X11124286Y-15204143D01*
X11110000Y-15218429D01*
X11081428Y-15232714D01*
X11052857Y-15232714D01*
X11024286Y-15218429D01*
X11010000Y-15204143D01*
X10995714Y-15175571D01*
X10981428Y-15118429D01*
X10981428Y-15047000D01*
X10995714Y-14989857D01*
X11010000Y-14961286D01*
X11024286Y-14947000D01*
X11052857Y-14932714D01*
X11281428Y-15232714D02*
X11281428Y-15032714D01*
X11281428Y-15061286D02*
X11295714Y-15047000D01*
X11324286Y-15032714D01*
X11367143Y-15032714D01*
X11395714Y-15047000D01*
X11410000Y-15075571D01*
X11410000Y-15232714D01*
X11410000Y-15075571D02*
X11424286Y-15047000D01*
X11452857Y-15032714D01*
X11495714Y-15032714D01*
X11524286Y-15047000D01*
X11538571Y-15075571D01*
X11538571Y-15232714D01*
X11681428Y-15232714D02*
X11681428Y-15032714D01*
X11681428Y-15061286D02*
X11695714Y-15047000D01*
X11724286Y-15032714D01*
X11767143Y-15032714D01*
X11795714Y-15047000D01*
X11810000Y-15075571D01*
X11810000Y-15232714D01*
X11810000Y-15075571D02*
X11824286Y-15047000D01*
X11852857Y-15032714D01*
X11895714Y-15032714D01*
X11924286Y-15047000D01*
X11938571Y-15075571D01*
X11938571Y-15232714D01*
X12524286Y-14918429D02*
X12267143Y-15304143D01*
X12910000Y-14932714D02*
X12938571Y-14932714D01*
X12967143Y-14947000D01*
X12981428Y-14961286D01*
X12995714Y-14989857D01*
X13010000Y-15047000D01*
X13010000Y-15118429D01*
X12995714Y-15175571D01*
X12981428Y-15204143D01*
X12967143Y-15218429D01*
X12938571Y-15232714D01*
X12910000Y-15232714D01*
X12881428Y-15218429D01*
X12867143Y-15204143D01*
X12852857Y-15175571D01*
X12838571Y-15118429D01*
X12838571Y-15047000D01*
X12852857Y-14989857D01*
X12867143Y-14961286D01*
X12881428Y-14947000D01*
X12910000Y-14932714D01*
X13138571Y-15204143D02*
X13152857Y-15218429D01*
X13138571Y-15232714D01*
X13124286Y-15218429D01*
X13138571Y-15204143D01*
X13138571Y-15232714D01*
X13338571Y-14932714D02*
X13367143Y-14932714D01*
X13395714Y-14947000D01*
X13410000Y-14961286D01*
X13424286Y-14989857D01*
X13438571Y-15047000D01*
X13438571Y-15118429D01*
X13424286Y-15175571D01*
X13410000Y-15204143D01*
X13395714Y-15218429D01*
X13367143Y-15232714D01*
X13338571Y-15232714D01*
X13310000Y-15218429D01*
X13295714Y-15204143D01*
X13281428Y-15175571D01*
X13267143Y-15118429D01*
X13267143Y-15047000D01*
X13281428Y-14989857D01*
X13295714Y-14961286D01*
X13310000Y-14947000D01*
X13338571Y-14932714D01*
X13538571Y-14932714D02*
X13724286Y-14932714D01*
X13624286Y-15047000D01*
X13667143Y-15047000D01*
X13695714Y-15061286D01*
X13710000Y-15075571D01*
X13724286Y-15104143D01*
X13724286Y-15175571D01*
X13710000Y-15204143D01*
X13695714Y-15218429D01*
X13667143Y-15232714D01*
X13581428Y-15232714D01*
X13552857Y-15218429D01*
X13538571Y-15204143D01*
X14010000Y-15232714D02*
X13838571Y-15232714D01*
X13924286Y-15232714D02*
X13924286Y-14932714D01*
X13895714Y-14975571D01*
X13867143Y-15004143D01*
X13838571Y-15018429D01*
X14124286Y-14932714D02*
X14124286Y-14989857D01*
X14238571Y-14932714D02*
X14238571Y-14989857D01*
X14681428Y-15347000D02*
X14667143Y-15332714D01*
X14638571Y-15289857D01*
X14624286Y-15261286D01*
X14610000Y-15218429D01*
X14595714Y-15147000D01*
X14595714Y-15089857D01*
X14610000Y-15018429D01*
X14624286Y-14975571D01*
X14638571Y-14947000D01*
X14667143Y-14904143D01*
X14681428Y-14889857D01*
X14952857Y-15232714D02*
X14781428Y-15232714D01*
X14867143Y-15232714D02*
X14867143Y-14932714D01*
X14838571Y-14975571D01*
X14810000Y-15004143D01*
X14781428Y-15018429D01*
X15067143Y-14961286D02*
X15081428Y-14947000D01*
X15110000Y-14932714D01*
X15181428Y-14932714D01*
X15210000Y-14947000D01*
X15224286Y-14961286D01*
X15238571Y-14989857D01*
X15238571Y-15018429D01*
X15224286Y-15061286D01*
X15052857Y-15232714D01*
X15238571Y-15232714D01*
X15495714Y-15032714D02*
X15495714Y-15232714D01*
X15424286Y-14918429D02*
X15352857Y-15132714D01*
X15538571Y-15132714D01*
X15881428Y-15232714D02*
X15881428Y-14932714D01*
X16010000Y-15232714D02*
X16010000Y-15075571D01*
X15995714Y-15047000D01*
X15967143Y-15032714D01*
X15924286Y-15032714D01*
X15895714Y-15047000D01*
X15881428Y-15061286D01*
X16195714Y-15232714D02*
X16167143Y-15218429D01*
X16152857Y-15204143D01*
X16138571Y-15175571D01*
X16138571Y-15089857D01*
X16152857Y-15061286D01*
X16167143Y-15047000D01*
X16195714Y-15032714D01*
X16238571Y-15032714D01*
X16267143Y-15047000D01*
X16281428Y-15061286D01*
X16295714Y-15089857D01*
X16295714Y-15175571D01*
X16281428Y-15204143D01*
X16267143Y-15218429D01*
X16238571Y-15232714D01*
X16195714Y-15232714D01*
X16467143Y-15232714D02*
X16438571Y-15218429D01*
X16424286Y-15189857D01*
X16424286Y-14932714D01*
X16695714Y-15218429D02*
X16667143Y-15232714D01*
X16610000Y-15232714D01*
X16581428Y-15218429D01*
X16567143Y-15189857D01*
X16567143Y-15075571D01*
X16581428Y-15047000D01*
X16610000Y-15032714D01*
X16667143Y-15032714D01*
X16695714Y-15047000D01*
X16710000Y-15075571D01*
X16710000Y-15104143D01*
X16567143Y-15132714D01*
X16824286Y-15218429D02*
X16852857Y-15232714D01*
X16910000Y-15232714D01*
X16938571Y-15218429D01*
X16952857Y-15189857D01*
X16952857Y-15175571D01*
X16938571Y-15147000D01*
X16910000Y-15132714D01*
X16867143Y-15132714D01*
X16838571Y-15118429D01*
X16824286Y-15089857D01*
X16824286Y-15075571D01*
X16838571Y-15047000D01*
X16867143Y-15032714D01*
X16910000Y-15032714D01*
X16938571Y-15047000D01*
X17310000Y-15118429D02*
X17538571Y-15118429D01*
X17424286Y-15232714D02*
X17424286Y-15004143D01*
X18038571Y-14932714D02*
X17981428Y-14932714D01*
X17952857Y-14947000D01*
X17938571Y-14961286D01*
X17910000Y-15004143D01*
X17895714Y-15061286D01*
X17895714Y-15175571D01*
X17910000Y-15204143D01*
X17924286Y-15218429D01*
X17952857Y-15232714D01*
X18010000Y-15232714D01*
X18038571Y-15218429D01*
X18052857Y-15204143D01*
X18067143Y-15175571D01*
X18067143Y-15104143D01*
X18052857Y-15075571D01*
X18038571Y-15061286D01*
X18010000Y-15047000D01*
X17952857Y-15047000D01*
X17924286Y-15061286D01*
X17910000Y-15075571D01*
X17895714Y-15104143D01*
X18410000Y-15218429D02*
X18438571Y-15232714D01*
X18495714Y-15232714D01*
X18524286Y-15218429D01*
X18538571Y-15189857D01*
X18538571Y-15175571D01*
X18524286Y-15147000D01*
X18495714Y-15132714D01*
X18452857Y-15132714D01*
X18424286Y-15118429D01*
X18410000Y-15089857D01*
X18410000Y-15075571D01*
X18424286Y-15047000D01*
X18452857Y-15032714D01*
X18495714Y-15032714D01*
X18524286Y-15047000D01*
X18710000Y-15232714D02*
X18681428Y-15218429D01*
X18667143Y-15189857D01*
X18667143Y-14932714D01*
X18867143Y-15232714D02*
X18838571Y-15218429D01*
X18824286Y-15204143D01*
X18810000Y-15175571D01*
X18810000Y-15089857D01*
X18824286Y-15061286D01*
X18838571Y-15047000D01*
X18867143Y-15032714D01*
X18910000Y-15032714D01*
X18938571Y-15047000D01*
X18952857Y-15061286D01*
X18967143Y-15089857D01*
X18967143Y-15175571D01*
X18952857Y-15204143D01*
X18938571Y-15218429D01*
X18910000Y-15232714D01*
X18867143Y-15232714D01*
X19052857Y-15032714D02*
X19167143Y-15032714D01*
X19095714Y-14932714D02*
X19095714Y-15189857D01*
X19110000Y-15218429D01*
X19138571Y-15232714D01*
X19167143Y-15232714D01*
X19252857Y-15218429D02*
X19281428Y-15232714D01*
X19338571Y-15232714D01*
X19367143Y-15218429D01*
X19381428Y-15189857D01*
X19381428Y-15175571D01*
X19367143Y-15147000D01*
X19338571Y-15132714D01*
X19295714Y-15132714D01*
X19267143Y-15118429D01*
X19252857Y-15089857D01*
X19252857Y-15075571D01*
X19267143Y-15047000D01*
X19295714Y-15032714D01*
X19338571Y-15032714D01*
X19367143Y-15047000D01*
X19481428Y-15347000D02*
X19495714Y-15332714D01*
X19524286Y-15289857D01*
X19538571Y-15261286D01*
X19552857Y-15218429D01*
X19567143Y-15147000D01*
X19567143Y-15089857D01*
X19552857Y-15018429D01*
X19538571Y-14975571D01*
X19524286Y-14947000D01*
X19495714Y-14904143D01*
X19481428Y-14889857D01*
X9981820Y-15524820D02*
X9981820Y-15461180D01*
X9918180Y-15461180D01*
X9918180Y-15524820D01*
X9981820Y-15524820D01*
X10338571Y-15328714D02*
X10367143Y-15328714D01*
X10395714Y-15343000D01*
X10410000Y-15357286D01*
X10424286Y-15385857D01*
X10438571Y-15443000D01*
X10438571Y-15514429D01*
X10424286Y-15571571D01*
X10410000Y-15600143D01*
X10395714Y-15614429D01*
X10367143Y-15628714D01*
X10338571Y-15628714D01*
X10310000Y-15614429D01*
X10295714Y-15600143D01*
X10281428Y-15571571D01*
X10267143Y-15514429D01*
X10267143Y-15443000D01*
X10281428Y-15385857D01*
X10295714Y-15357286D01*
X10310000Y-15343000D01*
X10338571Y-15328714D01*
X10567143Y-15600143D02*
X10581428Y-15614429D01*
X10567143Y-15628714D01*
X10552857Y-15614429D01*
X10567143Y-15600143D01*
X10567143Y-15628714D01*
X10724286Y-15628714D02*
X10781428Y-15628714D01*
X10810000Y-15614429D01*
X10824286Y-15600143D01*
X10852857Y-15557286D01*
X10867143Y-15500143D01*
X10867143Y-15385857D01*
X10852857Y-15357286D01*
X10838571Y-15343000D01*
X10810000Y-15328714D01*
X10752857Y-15328714D01*
X10724286Y-15343000D01*
X10710000Y-15357286D01*
X10695714Y-15385857D01*
X10695714Y-15457286D01*
X10710000Y-15485857D01*
X10724286Y-15500143D01*
X10752857Y-15514429D01*
X10810000Y-15514429D01*
X10838571Y-15500143D01*
X10852857Y-15485857D01*
X10867143Y-15457286D01*
X11052857Y-15328714D02*
X11081428Y-15328714D01*
X11110000Y-15343000D01*
X11124286Y-15357286D01*
X11138571Y-15385857D01*
X11152857Y-15443000D01*
X11152857Y-15514429D01*
X11138571Y-15571571D01*
X11124286Y-15600143D01*
X11110000Y-15614429D01*
X11081428Y-15628714D01*
X11052857Y-15628714D01*
X11024286Y-15614429D01*
X11010000Y-15600143D01*
X10995714Y-15571571D01*
X10981428Y-15514429D01*
X10981428Y-15443000D01*
X10995714Y-15385857D01*
X11010000Y-15357286D01*
X11024286Y-15343000D01*
X11052857Y-15328714D01*
X11281428Y-15628714D02*
X11281428Y-15428714D01*
X11281428Y-15457286D02*
X11295714Y-15443000D01*
X11324286Y-15428714D01*
X11367143Y-15428714D01*
X11395714Y-15443000D01*
X11410000Y-15471571D01*
X11410000Y-15628714D01*
X11410000Y-15471571D02*
X11424286Y-15443000D01*
X11452857Y-15428714D01*
X11495714Y-15428714D01*
X11524286Y-15443000D01*
X11538571Y-15471571D01*
X11538571Y-15628714D01*
X11681428Y-15628714D02*
X11681428Y-15428714D01*
X11681428Y-15457286D02*
X11695714Y-15443000D01*
X11724286Y-15428714D01*
X11767143Y-15428714D01*
X11795714Y-15443000D01*
X11810000Y-15471571D01*
X11810000Y-15628714D01*
X11810000Y-15471571D02*
X11824286Y-15443000D01*
X11852857Y-15428714D01*
X11895714Y-15428714D01*
X11924286Y-15443000D01*
X11938571Y-15471571D01*
X11938571Y-15628714D01*
X12524286Y-15314429D02*
X12267143Y-15700143D01*
X12910000Y-15328714D02*
X12938571Y-15328714D01*
X12967143Y-15343000D01*
X12981428Y-15357286D01*
X12995714Y-15385857D01*
X13010000Y-15443000D01*
X13010000Y-15514429D01*
X12995714Y-15571571D01*
X12981428Y-15600143D01*
X12967143Y-15614429D01*
X12938571Y-15628714D01*
X12910000Y-15628714D01*
X12881428Y-15614429D01*
X12867143Y-15600143D01*
X12852857Y-15571571D01*
X12838571Y-15514429D01*
X12838571Y-15443000D01*
X12852857Y-15385857D01*
X12867143Y-15357286D01*
X12881428Y-15343000D01*
X12910000Y-15328714D01*
X13138571Y-15600143D02*
X13152857Y-15614429D01*
X13138571Y-15628714D01*
X13124286Y-15614429D01*
X13138571Y-15600143D01*
X13138571Y-15628714D01*
X13338571Y-15328714D02*
X13367143Y-15328714D01*
X13395714Y-15343000D01*
X13410000Y-15357286D01*
X13424286Y-15385857D01*
X13438571Y-15443000D01*
X13438571Y-15514429D01*
X13424286Y-15571571D01*
X13410000Y-15600143D01*
X13395714Y-15614429D01*
X13367143Y-15628714D01*
X13338571Y-15628714D01*
X13310000Y-15614429D01*
X13295714Y-15600143D01*
X13281428Y-15571571D01*
X13267143Y-15514429D01*
X13267143Y-15443000D01*
X13281428Y-15385857D01*
X13295714Y-15357286D01*
X13310000Y-15343000D01*
X13338571Y-15328714D01*
X13538571Y-15328714D02*
X13724286Y-15328714D01*
X13624286Y-15443000D01*
X13667143Y-15443000D01*
X13695714Y-15457286D01*
X13710000Y-15471571D01*
X13724286Y-15500143D01*
X13724286Y-15571571D01*
X13710000Y-15600143D01*
X13695714Y-15614429D01*
X13667143Y-15628714D01*
X13581428Y-15628714D01*
X13552857Y-15614429D01*
X13538571Y-15600143D01*
X13995714Y-15328714D02*
X13852857Y-15328714D01*
X13838571Y-15471571D01*
X13852857Y-15457286D01*
X13881428Y-15443000D01*
X13952857Y-15443000D01*
X13981428Y-15457286D01*
X13995714Y-15471571D01*
X14010000Y-15500143D01*
X14010000Y-15571571D01*
X13995714Y-15600143D01*
X13981428Y-15614429D01*
X13952857Y-15628714D01*
X13881428Y-15628714D01*
X13852857Y-15614429D01*
X13838571Y-15600143D01*
X14124286Y-15328714D02*
X14124286Y-15385857D01*
X14238571Y-15328714D02*
X14238571Y-15385857D01*
X14681428Y-15743000D02*
X14667143Y-15728714D01*
X14638571Y-15685857D01*
X14624286Y-15657286D01*
X14610000Y-15614429D01*
X14595714Y-15543000D01*
X14595714Y-15485857D01*
X14610000Y-15414429D01*
X14624286Y-15371571D01*
X14638571Y-15343000D01*
X14667143Y-15300143D01*
X14681428Y-15285857D01*
X14952857Y-15628714D02*
X14781428Y-15628714D01*
X14867143Y-15628714D02*
X14867143Y-15328714D01*
X14838571Y-15371571D01*
X14810000Y-15400143D01*
X14781428Y-15414429D01*
X15067143Y-15357286D02*
X15081428Y-15343000D01*
X15110000Y-15328714D01*
X15181428Y-15328714D01*
X15210000Y-15343000D01*
X15224286Y-15357286D01*
X15238571Y-15385857D01*
X15238571Y-15414429D01*
X15224286Y-15457286D01*
X15052857Y-15628714D01*
X15238571Y-15628714D01*
X15595714Y-15628714D02*
X15595714Y-15328714D01*
X15724286Y-15628714D02*
X15724286Y-15471571D01*
X15710000Y-15443000D01*
X15681428Y-15428714D01*
X15638571Y-15428714D01*
X15610000Y-15443000D01*
X15595714Y-15457286D01*
X15910000Y-15628714D02*
X15881428Y-15614429D01*
X15867143Y-15600143D01*
X15852857Y-15571571D01*
X15852857Y-15485857D01*
X15867143Y-15457286D01*
X15881428Y-15443000D01*
X15910000Y-15428714D01*
X15952857Y-15428714D01*
X15981428Y-15443000D01*
X15995714Y-15457286D01*
X16010000Y-15485857D01*
X16010000Y-15571571D01*
X15995714Y-15600143D01*
X15981428Y-15614429D01*
X15952857Y-15628714D01*
X15910000Y-15628714D01*
X16181428Y-15628714D02*
X16152857Y-15614429D01*
X16138571Y-15585857D01*
X16138571Y-15328714D01*
X16410000Y-15614429D02*
X16381428Y-15628714D01*
X16324286Y-15628714D01*
X16295714Y-15614429D01*
X16281428Y-15585857D01*
X16281428Y-15471571D01*
X16295714Y-15443000D01*
X16324286Y-15428714D01*
X16381428Y-15428714D01*
X16410000Y-15443000D01*
X16424286Y-15471571D01*
X16424286Y-15500143D01*
X16281428Y-15528714D01*
X16538571Y-15614429D02*
X16567143Y-15628714D01*
X16624286Y-15628714D01*
X16652857Y-15614429D01*
X16667143Y-15585857D01*
X16667143Y-15571571D01*
X16652857Y-15543000D01*
X16624286Y-15528714D01*
X16581428Y-15528714D01*
X16552857Y-15514429D01*
X16538571Y-15485857D01*
X16538571Y-15471571D01*
X16552857Y-15443000D01*
X16581428Y-15428714D01*
X16624286Y-15428714D01*
X16652857Y-15443000D01*
X16767143Y-15743000D02*
X16781428Y-15728714D01*
X16810000Y-15685857D01*
X16824286Y-15657286D01*
X16838571Y-15614429D01*
X16852857Y-15543000D01*
X16852857Y-15485857D01*
X16838571Y-15414429D01*
X16824286Y-15371571D01*
X16810000Y-15343000D01*
X16781428Y-15300143D01*
X16767143Y-15285857D01*
X9945000Y-15939000D02*
X9995000Y-15889000D01*
X9945000Y-15839000D01*
X9895000Y-15889000D01*
X9945000Y-15939000D01*
X10438571Y-16024714D02*
X10267143Y-16024714D01*
X10352857Y-16024714D02*
X10352857Y-15724714D01*
X10324286Y-15767571D01*
X10295714Y-15796143D01*
X10267143Y-15810429D01*
X10567143Y-15996143D02*
X10581428Y-16010429D01*
X10567143Y-16024714D01*
X10552857Y-16010429D01*
X10567143Y-15996143D01*
X10567143Y-16024714D01*
X10767143Y-15724714D02*
X10795714Y-15724714D01*
X10824286Y-15739000D01*
X10838571Y-15753286D01*
X10852857Y-15781857D01*
X10867143Y-15839000D01*
X10867143Y-15910429D01*
X10852857Y-15967571D01*
X10838571Y-15996143D01*
X10824286Y-16010429D01*
X10795714Y-16024714D01*
X10767143Y-16024714D01*
X10738571Y-16010429D01*
X10724286Y-15996143D01*
X10710000Y-15967571D01*
X10695714Y-15910429D01*
X10695714Y-15839000D01*
X10710000Y-15781857D01*
X10724286Y-15753286D01*
X10738571Y-15739000D01*
X10767143Y-15724714D01*
X11052857Y-15724714D02*
X11081428Y-15724714D01*
X11110000Y-15739000D01*
X11124286Y-15753286D01*
X11138571Y-15781857D01*
X11152857Y-15839000D01*
X11152857Y-15910429D01*
X11138571Y-15967571D01*
X11124286Y-15996143D01*
X11110000Y-16010429D01*
X11081428Y-16024714D01*
X11052857Y-16024714D01*
X11024286Y-16010429D01*
X11010000Y-15996143D01*
X10995714Y-15967571D01*
X10981428Y-15910429D01*
X10981428Y-15839000D01*
X10995714Y-15781857D01*
X11010000Y-15753286D01*
X11024286Y-15739000D01*
X11052857Y-15724714D01*
X11281428Y-16024714D02*
X11281428Y-15824714D01*
X11281428Y-15853286D02*
X11295714Y-15839000D01*
X11324286Y-15824714D01*
X11367143Y-15824714D01*
X11395714Y-15839000D01*
X11410000Y-15867571D01*
X11410000Y-16024714D01*
X11410000Y-15867571D02*
X11424286Y-15839000D01*
X11452857Y-15824714D01*
X11495714Y-15824714D01*
X11524286Y-15839000D01*
X11538571Y-15867571D01*
X11538571Y-16024714D01*
X11681428Y-16024714D02*
X11681428Y-15824714D01*
X11681428Y-15853286D02*
X11695714Y-15839000D01*
X11724286Y-15824714D01*
X11767143Y-15824714D01*
X11795714Y-15839000D01*
X11810000Y-15867571D01*
X11810000Y-16024714D01*
X11810000Y-15867571D02*
X11824286Y-15839000D01*
X11852857Y-15824714D01*
X11895714Y-15824714D01*
X11924286Y-15839000D01*
X11938571Y-15867571D01*
X11938571Y-16024714D01*
X12524286Y-15710429D02*
X12267143Y-16096143D01*
X12910000Y-15724714D02*
X12938571Y-15724714D01*
X12967143Y-15739000D01*
X12981428Y-15753286D01*
X12995714Y-15781857D01*
X13010000Y-15839000D01*
X13010000Y-15910429D01*
X12995714Y-15967571D01*
X12981428Y-15996143D01*
X12967143Y-16010429D01*
X12938571Y-16024714D01*
X12910000Y-16024714D01*
X12881428Y-16010429D01*
X12867143Y-15996143D01*
X12852857Y-15967571D01*
X12838571Y-15910429D01*
X12838571Y-15839000D01*
X12852857Y-15781857D01*
X12867143Y-15753286D01*
X12881428Y-15739000D01*
X12910000Y-15724714D01*
X13138571Y-15996143D02*
X13152857Y-16010429D01*
X13138571Y-16024714D01*
X13124286Y-16010429D01*
X13138571Y-15996143D01*
X13138571Y-16024714D01*
X13338571Y-15724714D02*
X13367143Y-15724714D01*
X13395714Y-15739000D01*
X13410000Y-15753286D01*
X13424286Y-15781857D01*
X13438571Y-15839000D01*
X13438571Y-15910429D01*
X13424286Y-15967571D01*
X13410000Y-15996143D01*
X13395714Y-16010429D01*
X13367143Y-16024714D01*
X13338571Y-16024714D01*
X13310000Y-16010429D01*
X13295714Y-15996143D01*
X13281428Y-15967571D01*
X13267143Y-15910429D01*
X13267143Y-15839000D01*
X13281428Y-15781857D01*
X13295714Y-15753286D01*
X13310000Y-15739000D01*
X13338571Y-15724714D01*
X13538571Y-15724714D02*
X13724286Y-15724714D01*
X13624286Y-15839000D01*
X13667143Y-15839000D01*
X13695714Y-15853286D01*
X13710000Y-15867571D01*
X13724286Y-15896143D01*
X13724286Y-15967571D01*
X13710000Y-15996143D01*
X13695714Y-16010429D01*
X13667143Y-16024714D01*
X13581428Y-16024714D01*
X13552857Y-16010429D01*
X13538571Y-15996143D01*
X13867143Y-16024714D02*
X13924286Y-16024714D01*
X13952857Y-16010429D01*
X13967143Y-15996143D01*
X13995714Y-15953286D01*
X14010000Y-15896143D01*
X14010000Y-15781857D01*
X13995714Y-15753286D01*
X13981428Y-15739000D01*
X13952857Y-15724714D01*
X13895714Y-15724714D01*
X13867143Y-15739000D01*
X13852857Y-15753286D01*
X13838571Y-15781857D01*
X13838571Y-15853286D01*
X13852857Y-15881857D01*
X13867143Y-15896143D01*
X13895714Y-15910429D01*
X13952857Y-15910429D01*
X13981428Y-15896143D01*
X13995714Y-15881857D01*
X14010000Y-15853286D01*
X14124286Y-15724714D02*
X14124286Y-15781857D01*
X14238571Y-15724714D02*
X14238571Y-15781857D01*
X14681428Y-16139000D02*
X14667143Y-16124714D01*
X14638571Y-16081857D01*
X14624286Y-16053286D01*
X14610000Y-16010429D01*
X14595714Y-15939000D01*
X14595714Y-15881857D01*
X14610000Y-15810429D01*
X14624286Y-15767571D01*
X14638571Y-15739000D01*
X14667143Y-15696143D01*
X14681428Y-15681857D01*
X14952857Y-16024714D02*
X14781428Y-16024714D01*
X14867143Y-16024714D02*
X14867143Y-15724714D01*
X14838571Y-15767571D01*
X14810000Y-15796143D01*
X14781428Y-15810429D01*
X15210000Y-15724714D02*
X15152857Y-15724714D01*
X15124286Y-15739000D01*
X15110000Y-15753286D01*
X15081428Y-15796143D01*
X15067143Y-15853286D01*
X15067143Y-15967571D01*
X15081428Y-15996143D01*
X15095714Y-16010429D01*
X15124286Y-16024714D01*
X15181428Y-16024714D01*
X15210000Y-16010429D01*
X15224286Y-15996143D01*
X15238571Y-15967571D01*
X15238571Y-15896143D01*
X15224286Y-15867571D01*
X15210000Y-15853286D01*
X15181428Y-15839000D01*
X15124286Y-15839000D01*
X15095714Y-15853286D01*
X15081428Y-15867571D01*
X15067143Y-15896143D01*
X15510000Y-15724714D02*
X15367143Y-15724714D01*
X15352857Y-15867571D01*
X15367143Y-15853286D01*
X15395714Y-15839000D01*
X15467143Y-15839000D01*
X15495714Y-15853286D01*
X15510000Y-15867571D01*
X15524286Y-15896143D01*
X15524286Y-15967571D01*
X15510000Y-15996143D01*
X15495714Y-16010429D01*
X15467143Y-16024714D01*
X15395714Y-16024714D01*
X15367143Y-16010429D01*
X15352857Y-15996143D01*
X15881428Y-16024714D02*
X15881428Y-15724714D01*
X16010000Y-16024714D02*
X16010000Y-15867571D01*
X15995714Y-15839000D01*
X15967143Y-15824714D01*
X15924286Y-15824714D01*
X15895714Y-15839000D01*
X15881428Y-15853286D01*
X16195714Y-16024714D02*
X16167143Y-16010429D01*
X16152857Y-15996143D01*
X16138571Y-15967571D01*
X16138571Y-15881857D01*
X16152857Y-15853286D01*
X16167143Y-15839000D01*
X16195714Y-15824714D01*
X16238571Y-15824714D01*
X16267143Y-15839000D01*
X16281428Y-15853286D01*
X16295714Y-15881857D01*
X16295714Y-15967571D01*
X16281428Y-15996143D01*
X16267143Y-16010429D01*
X16238571Y-16024714D01*
X16195714Y-16024714D01*
X16467143Y-16024714D02*
X16438571Y-16010429D01*
X16424286Y-15981857D01*
X16424286Y-15724714D01*
X16695714Y-16010429D02*
X16667143Y-16024714D01*
X16610000Y-16024714D01*
X16581428Y-16010429D01*
X16567143Y-15981857D01*
X16567143Y-15867571D01*
X16581428Y-15839000D01*
X16610000Y-15824714D01*
X16667143Y-15824714D01*
X16695714Y-15839000D01*
X16710000Y-15867571D01*
X16710000Y-15896143D01*
X16567143Y-15924714D01*
X16824286Y-16010429D02*
X16852857Y-16024714D01*
X16910000Y-16024714D01*
X16938571Y-16010429D01*
X16952857Y-15981857D01*
X16952857Y-15967571D01*
X16938571Y-15939000D01*
X16910000Y-15924714D01*
X16867143Y-15924714D01*
X16838571Y-15910429D01*
X16824286Y-15881857D01*
X16824286Y-15867571D01*
X16838571Y-15839000D01*
X16867143Y-15824714D01*
X16910000Y-15824714D01*
X16938571Y-15839000D01*
X17310000Y-15910429D02*
X17538571Y-15910429D01*
X17424286Y-16024714D02*
X17424286Y-15796143D01*
X18038571Y-15724714D02*
X17981428Y-15724714D01*
X17952857Y-15739000D01*
X17938571Y-15753286D01*
X17910000Y-15796143D01*
X17895714Y-15853286D01*
X17895714Y-15967571D01*
X17910000Y-15996143D01*
X17924286Y-16010429D01*
X17952857Y-16024714D01*
X18010000Y-16024714D01*
X18038571Y-16010429D01*
X18052857Y-15996143D01*
X18067143Y-15967571D01*
X18067143Y-15896143D01*
X18052857Y-15867571D01*
X18038571Y-15853286D01*
X18010000Y-15839000D01*
X17952857Y-15839000D01*
X17924286Y-15853286D01*
X17910000Y-15867571D01*
X17895714Y-15896143D01*
X18410000Y-16010429D02*
X18438571Y-16024714D01*
X18495714Y-16024714D01*
X18524286Y-16010429D01*
X18538571Y-15981857D01*
X18538571Y-15967571D01*
X18524286Y-15939000D01*
X18495714Y-15924714D01*
X18452857Y-15924714D01*
X18424286Y-15910429D01*
X18410000Y-15881857D01*
X18410000Y-15867571D01*
X18424286Y-15839000D01*
X18452857Y-15824714D01*
X18495714Y-15824714D01*
X18524286Y-15839000D01*
X18710000Y-16024714D02*
X18681428Y-16010429D01*
X18667143Y-15981857D01*
X18667143Y-15724714D01*
X18867143Y-16024714D02*
X18838571Y-16010429D01*
X18824286Y-15996143D01*
X18810000Y-15967571D01*
X18810000Y-15881857D01*
X18824286Y-15853286D01*
X18838571Y-15839000D01*
X18867143Y-15824714D01*
X18910000Y-15824714D01*
X18938571Y-15839000D01*
X18952857Y-15853286D01*
X18967143Y-15881857D01*
X18967143Y-15967571D01*
X18952857Y-15996143D01*
X18938571Y-16010429D01*
X18910000Y-16024714D01*
X18867143Y-16024714D01*
X19052857Y-15824714D02*
X19167143Y-15824714D01*
X19095714Y-15724714D02*
X19095714Y-15981857D01*
X19110000Y-16010429D01*
X19138571Y-16024714D01*
X19167143Y-16024714D01*
X19252857Y-16010429D02*
X19281428Y-16024714D01*
X19338571Y-16024714D01*
X19367143Y-16010429D01*
X19381428Y-15981857D01*
X19381428Y-15967571D01*
X19367143Y-15939000D01*
X19338571Y-15924714D01*
X19295714Y-15924714D01*
X19267143Y-15910429D01*
X19252857Y-15881857D01*
X19252857Y-15867571D01*
X19267143Y-15839000D01*
X19295714Y-15824714D01*
X19338571Y-15824714D01*
X19367143Y-15839000D01*
X19481428Y-16139000D02*
X19495714Y-16124714D01*
X19524286Y-16081857D01*
X19538571Y-16053286D01*
X19552857Y-16010429D01*
X19567143Y-15939000D01*
X19567143Y-15881857D01*
X19552857Y-15810429D01*
X19538571Y-15767571D01*
X19524286Y-15739000D01*
X19495714Y-15696143D01*
X19481428Y-15681857D01*
X9894924Y-16234962D02*
X9995000Y-16335038D01*
X9995000Y-16234962D02*
X9894924Y-16335038D01*
X9995000Y-16285000D02*
G75*
G03X9995000Y-16285000I-50038J0D01*
G01*
X10438571Y-16420714D02*
X10267143Y-16420714D01*
X10352857Y-16420714D02*
X10352857Y-16120714D01*
X10324286Y-16163571D01*
X10295714Y-16192143D01*
X10267143Y-16206429D01*
X10567143Y-16392143D02*
X10581428Y-16406429D01*
X10567143Y-16420714D01*
X10552857Y-16406429D01*
X10567143Y-16392143D01*
X10567143Y-16420714D01*
X10767143Y-16120714D02*
X10795714Y-16120714D01*
X10824286Y-16135000D01*
X10838571Y-16149286D01*
X10852857Y-16177857D01*
X10867143Y-16235000D01*
X10867143Y-16306429D01*
X10852857Y-16363571D01*
X10838571Y-16392143D01*
X10824286Y-16406429D01*
X10795714Y-16420714D01*
X10767143Y-16420714D01*
X10738571Y-16406429D01*
X10724286Y-16392143D01*
X10710000Y-16363571D01*
X10695714Y-16306429D01*
X10695714Y-16235000D01*
X10710000Y-16177857D01*
X10724286Y-16149286D01*
X10738571Y-16135000D01*
X10767143Y-16120714D01*
X11052857Y-16120714D02*
X11081428Y-16120714D01*
X11110000Y-16135000D01*
X11124286Y-16149286D01*
X11138571Y-16177857D01*
X11152857Y-16235000D01*
X11152857Y-16306429D01*
X11138571Y-16363571D01*
X11124286Y-16392143D01*
X11110000Y-16406429D01*
X11081428Y-16420714D01*
X11052857Y-16420714D01*
X11024286Y-16406429D01*
X11010000Y-16392143D01*
X10995714Y-16363571D01*
X10981428Y-16306429D01*
X10981428Y-16235000D01*
X10995714Y-16177857D01*
X11010000Y-16149286D01*
X11024286Y-16135000D01*
X11052857Y-16120714D01*
X11281428Y-16420714D02*
X11281428Y-16220714D01*
X11281428Y-16249286D02*
X11295714Y-16235000D01*
X11324286Y-16220714D01*
X11367143Y-16220714D01*
X11395714Y-16235000D01*
X11410000Y-16263571D01*
X11410000Y-16420714D01*
X11410000Y-16263571D02*
X11424286Y-16235000D01*
X11452857Y-16220714D01*
X11495714Y-16220714D01*
X11524286Y-16235000D01*
X11538571Y-16263571D01*
X11538571Y-16420714D01*
X11681428Y-16420714D02*
X11681428Y-16220714D01*
X11681428Y-16249286D02*
X11695714Y-16235000D01*
X11724286Y-16220714D01*
X11767143Y-16220714D01*
X11795714Y-16235000D01*
X11810000Y-16263571D01*
X11810000Y-16420714D01*
X11810000Y-16263571D02*
X11824286Y-16235000D01*
X11852857Y-16220714D01*
X11895714Y-16220714D01*
X11924286Y-16235000D01*
X11938571Y-16263571D01*
X11938571Y-16420714D01*
X12524286Y-16106429D02*
X12267143Y-16492143D01*
X12910000Y-16120714D02*
X12938571Y-16120714D01*
X12967143Y-16135000D01*
X12981428Y-16149286D01*
X12995714Y-16177857D01*
X13010000Y-16235000D01*
X13010000Y-16306429D01*
X12995714Y-16363571D01*
X12981428Y-16392143D01*
X12967143Y-16406429D01*
X12938571Y-16420714D01*
X12910000Y-16420714D01*
X12881428Y-16406429D01*
X12867143Y-16392143D01*
X12852857Y-16363571D01*
X12838571Y-16306429D01*
X12838571Y-16235000D01*
X12852857Y-16177857D01*
X12867143Y-16149286D01*
X12881428Y-16135000D01*
X12910000Y-16120714D01*
X13138571Y-16392143D02*
X13152857Y-16406429D01*
X13138571Y-16420714D01*
X13124286Y-16406429D01*
X13138571Y-16392143D01*
X13138571Y-16420714D01*
X13338571Y-16120714D02*
X13367143Y-16120714D01*
X13395714Y-16135000D01*
X13410000Y-16149286D01*
X13424286Y-16177857D01*
X13438571Y-16235000D01*
X13438571Y-16306429D01*
X13424286Y-16363571D01*
X13410000Y-16392143D01*
X13395714Y-16406429D01*
X13367143Y-16420714D01*
X13338571Y-16420714D01*
X13310000Y-16406429D01*
X13295714Y-16392143D01*
X13281428Y-16363571D01*
X13267143Y-16306429D01*
X13267143Y-16235000D01*
X13281428Y-16177857D01*
X13295714Y-16149286D01*
X13310000Y-16135000D01*
X13338571Y-16120714D01*
X13538571Y-16120714D02*
X13724286Y-16120714D01*
X13624286Y-16235000D01*
X13667143Y-16235000D01*
X13695714Y-16249286D01*
X13710000Y-16263571D01*
X13724286Y-16292143D01*
X13724286Y-16363571D01*
X13710000Y-16392143D01*
X13695714Y-16406429D01*
X13667143Y-16420714D01*
X13581428Y-16420714D01*
X13552857Y-16406429D01*
X13538571Y-16392143D01*
X13867143Y-16420714D02*
X13924286Y-16420714D01*
X13952857Y-16406429D01*
X13967143Y-16392143D01*
X13995714Y-16349286D01*
X14010000Y-16292143D01*
X14010000Y-16177857D01*
X13995714Y-16149286D01*
X13981428Y-16135000D01*
X13952857Y-16120714D01*
X13895714Y-16120714D01*
X13867143Y-16135000D01*
X13852857Y-16149286D01*
X13838571Y-16177857D01*
X13838571Y-16249286D01*
X13852857Y-16277857D01*
X13867143Y-16292143D01*
X13895714Y-16306429D01*
X13952857Y-16306429D01*
X13981428Y-16292143D01*
X13995714Y-16277857D01*
X14010000Y-16249286D01*
X14124286Y-16120714D02*
X14124286Y-16177857D01*
X14238571Y-16120714D02*
X14238571Y-16177857D01*
X14681428Y-16535000D02*
X14667143Y-16520714D01*
X14638571Y-16477857D01*
X14624286Y-16449286D01*
X14610000Y-16406429D01*
X14595714Y-16335000D01*
X14595714Y-16277857D01*
X14610000Y-16206429D01*
X14624286Y-16163571D01*
X14638571Y-16135000D01*
X14667143Y-16092143D01*
X14681428Y-16077857D01*
X14781428Y-16149286D02*
X14795714Y-16135000D01*
X14824286Y-16120714D01*
X14895714Y-16120714D01*
X14924286Y-16135000D01*
X14938571Y-16149286D01*
X14952857Y-16177857D01*
X14952857Y-16206429D01*
X14938571Y-16249286D01*
X14767143Y-16420714D01*
X14952857Y-16420714D01*
X15310000Y-16420714D02*
X15310000Y-16120714D01*
X15438571Y-16420714D02*
X15438571Y-16263571D01*
X15424286Y-16235000D01*
X15395714Y-16220714D01*
X15352857Y-16220714D01*
X15324286Y-16235000D01*
X15310000Y-16249286D01*
X15624286Y-16420714D02*
X15595714Y-16406429D01*
X15581428Y-16392143D01*
X15567143Y-16363571D01*
X15567143Y-16277857D01*
X15581428Y-16249286D01*
X15595714Y-16235000D01*
X15624286Y-16220714D01*
X15667143Y-16220714D01*
X15695714Y-16235000D01*
X15710000Y-16249286D01*
X15724286Y-16277857D01*
X15724286Y-16363571D01*
X15710000Y-16392143D01*
X15695714Y-16406429D01*
X15667143Y-16420714D01*
X15624286Y-16420714D01*
X15895714Y-16420714D02*
X15867143Y-16406429D01*
X15852857Y-16377857D01*
X15852857Y-16120714D01*
X16124286Y-16406429D02*
X16095714Y-16420714D01*
X16038571Y-16420714D01*
X16010000Y-16406429D01*
X15995714Y-16377857D01*
X15995714Y-16263571D01*
X16010000Y-16235000D01*
X16038571Y-16220714D01*
X16095714Y-16220714D01*
X16124286Y-16235000D01*
X16138571Y-16263571D01*
X16138571Y-16292143D01*
X15995714Y-16320714D01*
X16252857Y-16406429D02*
X16281428Y-16420714D01*
X16338571Y-16420714D01*
X16367143Y-16406429D01*
X16381428Y-16377857D01*
X16381428Y-16363571D01*
X16367143Y-16335000D01*
X16338571Y-16320714D01*
X16295714Y-16320714D01*
X16267143Y-16306429D01*
X16252857Y-16277857D01*
X16252857Y-16263571D01*
X16267143Y-16235000D01*
X16295714Y-16220714D01*
X16338571Y-16220714D01*
X16367143Y-16235000D01*
X16481428Y-16535000D02*
X16495714Y-16520714D01*
X16524286Y-16477857D01*
X16538571Y-16449286D01*
X16552857Y-16406429D01*
X16567143Y-16335000D01*
X16567143Y-16277857D01*
X16552857Y-16206429D01*
X16538571Y-16163571D01*
X16524286Y-16135000D01*
X16495714Y-16092143D01*
X16481428Y-16077857D01*
X9880700Y-16623850D02*
X9995000Y-16738150D01*
X9995000Y-16623850D02*
X9880700Y-16738150D01*
X9937850Y-16623850D02*
X9937850Y-16738150D01*
X9880700Y-16681000D02*
X9995000Y-16681000D01*
X10438571Y-16816714D02*
X10267143Y-16816714D01*
X10352857Y-16816714D02*
X10352857Y-16516714D01*
X10324286Y-16559571D01*
X10295714Y-16588143D01*
X10267143Y-16602429D01*
X10567143Y-16788143D02*
X10581428Y-16802429D01*
X10567143Y-16816714D01*
X10552857Y-16802429D01*
X10567143Y-16788143D01*
X10567143Y-16816714D01*
X10867143Y-16816714D02*
X10695714Y-16816714D01*
X10781428Y-16816714D02*
X10781428Y-16516714D01*
X10752857Y-16559571D01*
X10724286Y-16588143D01*
X10695714Y-16602429D01*
X11124286Y-16616714D02*
X11124286Y-16816714D01*
X11052857Y-16502429D02*
X10981428Y-16716714D01*
X11167143Y-16716714D01*
X11281428Y-16816714D02*
X11281428Y-16616714D01*
X11281428Y-16645286D02*
X11295714Y-16631000D01*
X11324286Y-16616714D01*
X11367143Y-16616714D01*
X11395714Y-16631000D01*
X11410000Y-16659571D01*
X11410000Y-16816714D01*
X11410000Y-16659571D02*
X11424286Y-16631000D01*
X11452857Y-16616714D01*
X11495714Y-16616714D01*
X11524286Y-16631000D01*
X11538571Y-16659571D01*
X11538571Y-16816714D01*
X11681428Y-16816714D02*
X11681428Y-16616714D01*
X11681428Y-16645286D02*
X11695714Y-16631000D01*
X11724286Y-16616714D01*
X11767143Y-16616714D01*
X11795714Y-16631000D01*
X11810000Y-16659571D01*
X11810000Y-16816714D01*
X11810000Y-16659571D02*
X11824286Y-16631000D01*
X11852857Y-16616714D01*
X11895714Y-16616714D01*
X11924286Y-16631000D01*
X11938571Y-16659571D01*
X11938571Y-16816714D01*
X12524286Y-16502429D02*
X12267143Y-16888143D01*
X12910000Y-16516714D02*
X12938571Y-16516714D01*
X12967143Y-16531000D01*
X12981428Y-16545286D01*
X12995714Y-16573857D01*
X13010000Y-16631000D01*
X13010000Y-16702429D01*
X12995714Y-16759571D01*
X12981428Y-16788143D01*
X12967143Y-16802429D01*
X12938571Y-16816714D01*
X12910000Y-16816714D01*
X12881428Y-16802429D01*
X12867143Y-16788143D01*
X12852857Y-16759571D01*
X12838571Y-16702429D01*
X12838571Y-16631000D01*
X12852857Y-16573857D01*
X12867143Y-16545286D01*
X12881428Y-16531000D01*
X12910000Y-16516714D01*
X13138571Y-16788143D02*
X13152857Y-16802429D01*
X13138571Y-16816714D01*
X13124286Y-16802429D01*
X13138571Y-16788143D01*
X13138571Y-16816714D01*
X13338571Y-16516714D02*
X13367143Y-16516714D01*
X13395714Y-16531000D01*
X13410000Y-16545286D01*
X13424286Y-16573857D01*
X13438571Y-16631000D01*
X13438571Y-16702429D01*
X13424286Y-16759571D01*
X13410000Y-16788143D01*
X13395714Y-16802429D01*
X13367143Y-16816714D01*
X13338571Y-16816714D01*
X13310000Y-16802429D01*
X13295714Y-16788143D01*
X13281428Y-16759571D01*
X13267143Y-16702429D01*
X13267143Y-16631000D01*
X13281428Y-16573857D01*
X13295714Y-16545286D01*
X13310000Y-16531000D01*
X13338571Y-16516714D01*
X13695714Y-16616714D02*
X13695714Y-16816714D01*
X13624286Y-16502429D02*
X13552857Y-16716714D01*
X13738571Y-16716714D01*
X13995714Y-16516714D02*
X13852857Y-16516714D01*
X13838571Y-16659571D01*
X13852857Y-16645286D01*
X13881428Y-16631000D01*
X13952857Y-16631000D01*
X13981428Y-16645286D01*
X13995714Y-16659571D01*
X14010000Y-16688143D01*
X14010000Y-16759571D01*
X13995714Y-16788143D01*
X13981428Y-16802429D01*
X13952857Y-16816714D01*
X13881428Y-16816714D01*
X13852857Y-16802429D01*
X13838571Y-16788143D01*
X14124286Y-16516714D02*
X14124286Y-16573857D01*
X14238571Y-16516714D02*
X14238571Y-16573857D01*
X14681428Y-16931000D02*
X14667143Y-16916714D01*
X14638571Y-16873857D01*
X14624286Y-16845286D01*
X14610000Y-16802429D01*
X14595714Y-16731000D01*
X14595714Y-16673857D01*
X14610000Y-16602429D01*
X14624286Y-16559571D01*
X14638571Y-16531000D01*
X14667143Y-16488143D01*
X14681428Y-16473857D01*
X14924286Y-16516714D02*
X14867143Y-16516714D01*
X14838571Y-16531000D01*
X14824286Y-16545286D01*
X14795714Y-16588143D01*
X14781428Y-16645286D01*
X14781428Y-16759571D01*
X14795714Y-16788143D01*
X14810000Y-16802429D01*
X14838571Y-16816714D01*
X14895714Y-16816714D01*
X14924286Y-16802429D01*
X14938571Y-16788143D01*
X14952857Y-16759571D01*
X14952857Y-16688143D01*
X14938571Y-16659571D01*
X14924286Y-16645286D01*
X14895714Y-16631000D01*
X14838571Y-16631000D01*
X14810000Y-16645286D01*
X14795714Y-16659571D01*
X14781428Y-16688143D01*
X15310000Y-16816714D02*
X15310000Y-16516714D01*
X15438571Y-16816714D02*
X15438571Y-16659571D01*
X15424286Y-16631000D01*
X15395714Y-16616714D01*
X15352857Y-16616714D01*
X15324286Y-16631000D01*
X15310000Y-16645286D01*
X15624286Y-16816714D02*
X15595714Y-16802429D01*
X15581428Y-16788143D01*
X15567143Y-16759571D01*
X15567143Y-16673857D01*
X15581428Y-16645286D01*
X15595714Y-16631000D01*
X15624286Y-16616714D01*
X15667143Y-16616714D01*
X15695714Y-16631000D01*
X15710000Y-16645286D01*
X15724286Y-16673857D01*
X15724286Y-16759571D01*
X15710000Y-16788143D01*
X15695714Y-16802429D01*
X15667143Y-16816714D01*
X15624286Y-16816714D01*
X15895714Y-16816714D02*
X15867143Y-16802429D01*
X15852857Y-16773857D01*
X15852857Y-16516714D01*
X16124286Y-16802429D02*
X16095714Y-16816714D01*
X16038571Y-16816714D01*
X16010000Y-16802429D01*
X15995714Y-16773857D01*
X15995714Y-16659571D01*
X16010000Y-16631000D01*
X16038571Y-16616714D01*
X16095714Y-16616714D01*
X16124286Y-16631000D01*
X16138571Y-16659571D01*
X16138571Y-16688143D01*
X15995714Y-16716714D01*
X16252857Y-16802429D02*
X16281428Y-16816714D01*
X16338571Y-16816714D01*
X16367143Y-16802429D01*
X16381428Y-16773857D01*
X16381428Y-16759571D01*
X16367143Y-16731000D01*
X16338571Y-16716714D01*
X16295714Y-16716714D01*
X16267143Y-16702429D01*
X16252857Y-16673857D01*
X16252857Y-16659571D01*
X16267143Y-16631000D01*
X16295714Y-16616714D01*
X16338571Y-16616714D01*
X16367143Y-16631000D01*
X16481428Y-16931000D02*
X16495714Y-16916714D01*
X16524286Y-16873857D01*
X16538571Y-16845286D01*
X16552857Y-16802429D01*
X16567143Y-16731000D01*
X16567143Y-16673857D01*
X16552857Y-16602429D01*
X16538571Y-16559571D01*
X16524286Y-16531000D01*
X16495714Y-16488143D01*
X16481428Y-16473857D01*
X9865000Y-17012000D02*
X9995000Y-17142000D01*
X9995000Y-17012000D02*
X9865000Y-17142000D01*
X9975962Y-17122963D02*
X9975962Y-17031038D01*
X9884038Y-17031038D01*
X9884038Y-17122963D01*
X9975962Y-17122963D01*
X10438571Y-17212714D02*
X10267143Y-17212714D01*
X10352857Y-17212714D02*
X10352857Y-16912714D01*
X10324286Y-16955572D01*
X10295714Y-16984143D01*
X10267143Y-16998429D01*
X10567143Y-17184143D02*
X10581428Y-17198429D01*
X10567143Y-17212714D01*
X10552857Y-17198429D01*
X10567143Y-17184143D01*
X10567143Y-17212714D01*
X10681428Y-16912714D02*
X10867143Y-16912714D01*
X10767143Y-17027000D01*
X10810000Y-17027000D01*
X10838571Y-17041286D01*
X10852857Y-17055572D01*
X10867143Y-17084143D01*
X10867143Y-17155572D01*
X10852857Y-17184143D01*
X10838571Y-17198429D01*
X10810000Y-17212714D01*
X10724286Y-17212714D01*
X10695714Y-17198429D01*
X10681428Y-17184143D01*
X11052857Y-16912714D02*
X11081428Y-16912714D01*
X11110000Y-16927000D01*
X11124286Y-16941286D01*
X11138571Y-16969857D01*
X11152857Y-17027000D01*
X11152857Y-17098429D01*
X11138571Y-17155572D01*
X11124286Y-17184143D01*
X11110000Y-17198429D01*
X11081428Y-17212714D01*
X11052857Y-17212714D01*
X11024286Y-17198429D01*
X11010000Y-17184143D01*
X10995714Y-17155572D01*
X10981428Y-17098429D01*
X10981428Y-17027000D01*
X10995714Y-16969857D01*
X11010000Y-16941286D01*
X11024286Y-16927000D01*
X11052857Y-16912714D01*
X11281428Y-17212714D02*
X11281428Y-17012714D01*
X11281428Y-17041286D02*
X11295714Y-17027000D01*
X11324286Y-17012714D01*
X11367143Y-17012714D01*
X11395714Y-17027000D01*
X11410000Y-17055572D01*
X11410000Y-17212714D01*
X11410000Y-17055572D02*
X11424286Y-17027000D01*
X11452857Y-17012714D01*
X11495714Y-17012714D01*
X11524286Y-17027000D01*
X11538571Y-17055572D01*
X11538571Y-17212714D01*
X11681428Y-17212714D02*
X11681428Y-17012714D01*
X11681428Y-17041286D02*
X11695714Y-17027000D01*
X11724286Y-17012714D01*
X11767143Y-17012714D01*
X11795714Y-17027000D01*
X11810000Y-17055572D01*
X11810000Y-17212714D01*
X11810000Y-17055572D02*
X11824286Y-17027000D01*
X11852857Y-17012714D01*
X11895714Y-17012714D01*
X11924286Y-17027000D01*
X11938571Y-17055572D01*
X11938571Y-17212714D01*
X12524286Y-16898429D02*
X12267143Y-17284143D01*
X12910000Y-16912714D02*
X12938571Y-16912714D01*
X12967143Y-16927000D01*
X12981428Y-16941286D01*
X12995714Y-16969857D01*
X13010000Y-17027000D01*
X13010000Y-17098429D01*
X12995714Y-17155572D01*
X12981428Y-17184143D01*
X12967143Y-17198429D01*
X12938571Y-17212714D01*
X12910000Y-17212714D01*
X12881428Y-17198429D01*
X12867143Y-17184143D01*
X12852857Y-17155572D01*
X12838571Y-17098429D01*
X12838571Y-17027000D01*
X12852857Y-16969857D01*
X12867143Y-16941286D01*
X12881428Y-16927000D01*
X12910000Y-16912714D01*
X13138571Y-17184143D02*
X13152857Y-17198429D01*
X13138571Y-17212714D01*
X13124286Y-17198429D01*
X13138571Y-17184143D01*
X13138571Y-17212714D01*
X13338571Y-16912714D02*
X13367143Y-16912714D01*
X13395714Y-16927000D01*
X13410000Y-16941286D01*
X13424286Y-16969857D01*
X13438571Y-17027000D01*
X13438571Y-17098429D01*
X13424286Y-17155572D01*
X13410000Y-17184143D01*
X13395714Y-17198429D01*
X13367143Y-17212714D01*
X13338571Y-17212714D01*
X13310000Y-17198429D01*
X13295714Y-17184143D01*
X13281428Y-17155572D01*
X13267143Y-17098429D01*
X13267143Y-17027000D01*
X13281428Y-16969857D01*
X13295714Y-16941286D01*
X13310000Y-16927000D01*
X13338571Y-16912714D01*
X13710000Y-16912714D02*
X13567143Y-16912714D01*
X13552857Y-17055572D01*
X13567143Y-17041286D01*
X13595714Y-17027000D01*
X13667143Y-17027000D01*
X13695714Y-17041286D01*
X13710000Y-17055572D01*
X13724286Y-17084143D01*
X13724286Y-17155572D01*
X13710000Y-17184143D01*
X13695714Y-17198429D01*
X13667143Y-17212714D01*
X13595714Y-17212714D01*
X13567143Y-17198429D01*
X13552857Y-17184143D01*
X14010000Y-17212714D02*
X13838571Y-17212714D01*
X13924286Y-17212714D02*
X13924286Y-16912714D01*
X13895714Y-16955572D01*
X13867143Y-16984143D01*
X13838571Y-16998429D01*
X14124286Y-16912714D02*
X14124286Y-16969857D01*
X14238571Y-16912714D02*
X14238571Y-16969857D01*
X14681428Y-17327000D02*
X14667143Y-17312714D01*
X14638571Y-17269857D01*
X14624286Y-17241286D01*
X14610000Y-17198429D01*
X14595714Y-17127000D01*
X14595714Y-17069857D01*
X14610000Y-16998429D01*
X14624286Y-16955572D01*
X14638571Y-16927000D01*
X14667143Y-16884143D01*
X14681428Y-16869857D01*
X14924286Y-16912714D02*
X14867143Y-16912714D01*
X14838571Y-16927000D01*
X14824286Y-16941286D01*
X14795714Y-16984143D01*
X14781428Y-17041286D01*
X14781428Y-17155572D01*
X14795714Y-17184143D01*
X14810000Y-17198429D01*
X14838571Y-17212714D01*
X14895714Y-17212714D01*
X14924286Y-17198429D01*
X14938571Y-17184143D01*
X14952857Y-17155572D01*
X14952857Y-17084143D01*
X14938571Y-17055572D01*
X14924286Y-17041286D01*
X14895714Y-17027000D01*
X14838571Y-17027000D01*
X14810000Y-17041286D01*
X14795714Y-17055572D01*
X14781428Y-17084143D01*
X15310000Y-17212714D02*
X15310000Y-16912714D01*
X15438571Y-17212714D02*
X15438571Y-17055572D01*
X15424286Y-17027000D01*
X15395714Y-17012714D01*
X15352857Y-17012714D01*
X15324286Y-17027000D01*
X15310000Y-17041286D01*
X15624286Y-17212714D02*
X15595714Y-17198429D01*
X15581428Y-17184143D01*
X15567143Y-17155572D01*
X15567143Y-17069857D01*
X15581428Y-17041286D01*
X15595714Y-17027000D01*
X15624286Y-17012714D01*
X15667143Y-17012714D01*
X15695714Y-17027000D01*
X15710000Y-17041286D01*
X15724286Y-17069857D01*
X15724286Y-17155572D01*
X15710000Y-17184143D01*
X15695714Y-17198429D01*
X15667143Y-17212714D01*
X15624286Y-17212714D01*
X15895714Y-17212714D02*
X15867143Y-17198429D01*
X15852857Y-17169857D01*
X15852857Y-16912714D01*
X16124286Y-17198429D02*
X16095714Y-17212714D01*
X16038571Y-17212714D01*
X16010000Y-17198429D01*
X15995714Y-17169857D01*
X15995714Y-17055572D01*
X16010000Y-17027000D01*
X16038571Y-17012714D01*
X16095714Y-17012714D01*
X16124286Y-17027000D01*
X16138571Y-17055572D01*
X16138571Y-17084143D01*
X15995714Y-17112714D01*
X16252857Y-17198429D02*
X16281428Y-17212714D01*
X16338571Y-17212714D01*
X16367143Y-17198429D01*
X16381428Y-17169857D01*
X16381428Y-17155572D01*
X16367143Y-17127000D01*
X16338571Y-17112714D01*
X16295714Y-17112714D01*
X16267143Y-17098429D01*
X16252857Y-17069857D01*
X16252857Y-17055572D01*
X16267143Y-17027000D01*
X16295714Y-17012714D01*
X16338571Y-17012714D01*
X16367143Y-17027000D01*
X16481428Y-17327000D02*
X16495714Y-17312714D01*
X16524286Y-17269857D01*
X16538571Y-17241286D01*
X16552857Y-17198429D01*
X16567143Y-17127000D01*
X16567143Y-17069857D01*
X16552857Y-16998429D01*
X16538571Y-16955572D01*
X16524286Y-16927000D01*
X16495714Y-16884143D01*
X16481428Y-16869857D01*
X9775000Y-17363000D02*
X9995000Y-17583000D01*
X9995000Y-17363000D02*
X9775000Y-17583000D01*
X9885000Y-17583000D02*
X9995000Y-17473000D01*
X9885000Y-17363000D01*
X9775000Y-17473000D01*
X9885000Y-17583000D01*
X10267143Y-17337286D02*
X10281428Y-17323000D01*
X10310000Y-17308714D01*
X10381428Y-17308714D01*
X10410000Y-17323000D01*
X10424286Y-17337286D01*
X10438571Y-17365857D01*
X10438571Y-17394429D01*
X10424286Y-17437286D01*
X10252857Y-17608714D01*
X10438571Y-17608714D01*
X10567143Y-17580143D02*
X10581428Y-17594429D01*
X10567143Y-17608714D01*
X10552857Y-17594429D01*
X10567143Y-17580143D01*
X10567143Y-17608714D01*
X10695714Y-17337286D02*
X10710000Y-17323000D01*
X10738571Y-17308714D01*
X10810000Y-17308714D01*
X10838571Y-17323000D01*
X10852857Y-17337286D01*
X10867143Y-17365857D01*
X10867143Y-17394429D01*
X10852857Y-17437286D01*
X10681428Y-17608714D01*
X10867143Y-17608714D01*
X11052857Y-17308714D02*
X11081428Y-17308714D01*
X11110000Y-17323000D01*
X11124286Y-17337286D01*
X11138571Y-17365857D01*
X11152857Y-17423000D01*
X11152857Y-17494429D01*
X11138571Y-17551572D01*
X11124286Y-17580143D01*
X11110000Y-17594429D01*
X11081428Y-17608714D01*
X11052857Y-17608714D01*
X11024286Y-17594429D01*
X11010000Y-17580143D01*
X10995714Y-17551572D01*
X10981428Y-17494429D01*
X10981428Y-17423000D01*
X10995714Y-17365857D01*
X11010000Y-17337286D01*
X11024286Y-17323000D01*
X11052857Y-17308714D01*
X11281428Y-17608714D02*
X11281428Y-17408714D01*
X11281428Y-17437286D02*
X11295714Y-17423000D01*
X11324286Y-17408714D01*
X11367143Y-17408714D01*
X11395714Y-17423000D01*
X11410000Y-17451572D01*
X11410000Y-17608714D01*
X11410000Y-17451572D02*
X11424286Y-17423000D01*
X11452857Y-17408714D01*
X11495714Y-17408714D01*
X11524286Y-17423000D01*
X11538571Y-17451572D01*
X11538571Y-17608714D01*
X11681428Y-17608714D02*
X11681428Y-17408714D01*
X11681428Y-17437286D02*
X11695714Y-17423000D01*
X11724286Y-17408714D01*
X11767143Y-17408714D01*
X11795714Y-17423000D01*
X11810000Y-17451572D01*
X11810000Y-17608714D01*
X11810000Y-17451572D02*
X11824286Y-17423000D01*
X11852857Y-17408714D01*
X11895714Y-17408714D01*
X11924286Y-17423000D01*
X11938571Y-17451572D01*
X11938571Y-17608714D01*
X12524286Y-17294429D02*
X12267143Y-17680143D01*
X12910000Y-17308714D02*
X12938571Y-17308714D01*
X12967143Y-17323000D01*
X12981428Y-17337286D01*
X12995714Y-17365857D01*
X13010000Y-17423000D01*
X13010000Y-17494429D01*
X12995714Y-17551572D01*
X12981428Y-17580143D01*
X12967143Y-17594429D01*
X12938571Y-17608714D01*
X12910000Y-17608714D01*
X12881428Y-17594429D01*
X12867143Y-17580143D01*
X12852857Y-17551572D01*
X12838571Y-17494429D01*
X12838571Y-17423000D01*
X12852857Y-17365857D01*
X12867143Y-17337286D01*
X12881428Y-17323000D01*
X12910000Y-17308714D01*
X13138571Y-17580143D02*
X13152857Y-17594429D01*
X13138571Y-17608714D01*
X13124286Y-17594429D01*
X13138571Y-17580143D01*
X13138571Y-17608714D01*
X13338571Y-17308714D02*
X13367143Y-17308714D01*
X13395714Y-17323000D01*
X13410000Y-17337286D01*
X13424286Y-17365857D01*
X13438571Y-17423000D01*
X13438571Y-17494429D01*
X13424286Y-17551572D01*
X13410000Y-17580143D01*
X13395714Y-17594429D01*
X13367143Y-17608714D01*
X13338571Y-17608714D01*
X13310000Y-17594429D01*
X13295714Y-17580143D01*
X13281428Y-17551572D01*
X13267143Y-17494429D01*
X13267143Y-17423000D01*
X13281428Y-17365857D01*
X13295714Y-17337286D01*
X13310000Y-17323000D01*
X13338571Y-17308714D01*
X13610000Y-17437286D02*
X13581428Y-17423000D01*
X13567143Y-17408714D01*
X13552857Y-17380143D01*
X13552857Y-17365857D01*
X13567143Y-17337286D01*
X13581428Y-17323000D01*
X13610000Y-17308714D01*
X13667143Y-17308714D01*
X13695714Y-17323000D01*
X13710000Y-17337286D01*
X13724286Y-17365857D01*
X13724286Y-17380143D01*
X13710000Y-17408714D01*
X13695714Y-17423000D01*
X13667143Y-17437286D01*
X13610000Y-17437286D01*
X13581428Y-17451572D01*
X13567143Y-17465857D01*
X13552857Y-17494429D01*
X13552857Y-17551572D01*
X13567143Y-17580143D01*
X13581428Y-17594429D01*
X13610000Y-17608714D01*
X13667143Y-17608714D01*
X13695714Y-17594429D01*
X13710000Y-17580143D01*
X13724286Y-17551572D01*
X13724286Y-17494429D01*
X13710000Y-17465857D01*
X13695714Y-17451572D01*
X13667143Y-17437286D01*
X13824286Y-17308714D02*
X14024286Y-17308714D01*
X13895714Y-17608714D01*
X14124286Y-17308714D02*
X14124286Y-17365857D01*
X14238571Y-17308714D02*
X14238571Y-17365857D01*
X14681428Y-17723000D02*
X14667143Y-17708714D01*
X14638571Y-17665857D01*
X14624286Y-17637286D01*
X14610000Y-17594429D01*
X14595714Y-17523000D01*
X14595714Y-17465857D01*
X14610000Y-17394429D01*
X14624286Y-17351572D01*
X14638571Y-17323000D01*
X14667143Y-17280143D01*
X14681428Y-17265857D01*
X14924286Y-17308714D02*
X14867143Y-17308714D01*
X14838571Y-17323000D01*
X14824286Y-17337286D01*
X14795714Y-17380143D01*
X14781428Y-17437286D01*
X14781428Y-17551572D01*
X14795714Y-17580143D01*
X14810000Y-17594429D01*
X14838571Y-17608714D01*
X14895714Y-17608714D01*
X14924286Y-17594429D01*
X14938571Y-17580143D01*
X14952857Y-17551572D01*
X14952857Y-17480143D01*
X14938571Y-17451572D01*
X14924286Y-17437286D01*
X14895714Y-17423000D01*
X14838571Y-17423000D01*
X14810000Y-17437286D01*
X14795714Y-17451572D01*
X14781428Y-17480143D01*
X15310000Y-17608714D02*
X15310000Y-17308714D01*
X15438571Y-17608714D02*
X15438571Y-17451572D01*
X15424286Y-17423000D01*
X15395714Y-17408714D01*
X15352857Y-17408714D01*
X15324286Y-17423000D01*
X15310000Y-17437286D01*
X15624286Y-17608714D02*
X15595714Y-17594429D01*
X15581428Y-17580143D01*
X15567143Y-17551572D01*
X15567143Y-17465857D01*
X15581428Y-17437286D01*
X15595714Y-17423000D01*
X15624286Y-17408714D01*
X15667143Y-17408714D01*
X15695714Y-17423000D01*
X15710000Y-17437286D01*
X15724286Y-17465857D01*
X15724286Y-17551572D01*
X15710000Y-17580143D01*
X15695714Y-17594429D01*
X15667143Y-17608714D01*
X15624286Y-17608714D01*
X15895714Y-17608714D02*
X15867143Y-17594429D01*
X15852857Y-17565857D01*
X15852857Y-17308714D01*
X16124286Y-17594429D02*
X16095714Y-17608714D01*
X16038571Y-17608714D01*
X16010000Y-17594429D01*
X15995714Y-17565857D01*
X15995714Y-17451572D01*
X16010000Y-17423000D01*
X16038571Y-17408714D01*
X16095714Y-17408714D01*
X16124286Y-17423000D01*
X16138571Y-17451572D01*
X16138571Y-17480143D01*
X15995714Y-17508714D01*
X16252857Y-17594429D02*
X16281428Y-17608714D01*
X16338571Y-17608714D01*
X16367143Y-17594429D01*
X16381428Y-17565857D01*
X16381428Y-17551572D01*
X16367143Y-17523000D01*
X16338571Y-17508714D01*
X16295714Y-17508714D01*
X16267143Y-17494429D01*
X16252857Y-17465857D01*
X16252857Y-17451572D01*
X16267143Y-17423000D01*
X16295714Y-17408714D01*
X16338571Y-17408714D01*
X16367143Y-17423000D01*
X16481428Y-17723000D02*
X16495714Y-17708714D01*
X16524286Y-17665857D01*
X16538571Y-17637286D01*
X16552857Y-17594429D01*
X16567143Y-17523000D01*
X16567143Y-17465857D01*
X16552857Y-17394429D01*
X16538571Y-17351572D01*
X16524286Y-17323000D01*
X16495714Y-17280143D01*
X16481428Y-17265857D01*
X9860370Y-17734370D02*
X9860370Y-18003630D01*
X9725740Y-17869000D02*
X9995000Y-17869000D01*
X9995000Y-17869000D02*
G75*
G03X9995000Y-17869000I-134630J0D01*
G01*
X10267143Y-17733286D02*
X10281428Y-17719000D01*
X10310000Y-17704714D01*
X10381428Y-17704714D01*
X10410000Y-17719000D01*
X10424286Y-17733286D01*
X10438571Y-17761857D01*
X10438571Y-17790429D01*
X10424286Y-17833286D01*
X10252857Y-18004714D01*
X10438571Y-18004714D01*
X10567143Y-17976143D02*
X10581428Y-17990429D01*
X10567143Y-18004714D01*
X10552857Y-17990429D01*
X10567143Y-17976143D01*
X10567143Y-18004714D01*
X10838571Y-17704714D02*
X10781428Y-17704714D01*
X10752857Y-17719000D01*
X10738571Y-17733286D01*
X10710000Y-17776143D01*
X10695714Y-17833286D01*
X10695714Y-17947572D01*
X10710000Y-17976143D01*
X10724286Y-17990429D01*
X10752857Y-18004714D01*
X10810000Y-18004714D01*
X10838571Y-17990429D01*
X10852857Y-17976143D01*
X10867143Y-17947572D01*
X10867143Y-17876143D01*
X10852857Y-17847572D01*
X10838571Y-17833286D01*
X10810000Y-17819000D01*
X10752857Y-17819000D01*
X10724286Y-17833286D01*
X10710000Y-17847572D01*
X10695714Y-17876143D01*
X11010000Y-18004714D02*
X11067143Y-18004714D01*
X11095714Y-17990429D01*
X11110000Y-17976143D01*
X11138571Y-17933286D01*
X11152857Y-17876143D01*
X11152857Y-17761857D01*
X11138571Y-17733286D01*
X11124286Y-17719000D01*
X11095714Y-17704714D01*
X11038571Y-17704714D01*
X11010000Y-17719000D01*
X10995714Y-17733286D01*
X10981428Y-17761857D01*
X10981428Y-17833286D01*
X10995714Y-17861857D01*
X11010000Y-17876143D01*
X11038571Y-17890429D01*
X11095714Y-17890429D01*
X11124286Y-17876143D01*
X11138571Y-17861857D01*
X11152857Y-17833286D01*
X11281428Y-18004714D02*
X11281428Y-17804714D01*
X11281428Y-17833286D02*
X11295714Y-17819000D01*
X11324286Y-17804714D01*
X11367143Y-17804714D01*
X11395714Y-17819000D01*
X11410000Y-17847572D01*
X11410000Y-18004714D01*
X11410000Y-17847572D02*
X11424286Y-17819000D01*
X11452857Y-17804714D01*
X11495714Y-17804714D01*
X11524286Y-17819000D01*
X11538571Y-17847572D01*
X11538571Y-18004714D01*
X11681428Y-18004714D02*
X11681428Y-17804714D01*
X11681428Y-17833286D02*
X11695714Y-17819000D01*
X11724286Y-17804714D01*
X11767143Y-17804714D01*
X11795714Y-17819000D01*
X11810000Y-17847572D01*
X11810000Y-18004714D01*
X11810000Y-17847572D02*
X11824286Y-17819000D01*
X11852857Y-17804714D01*
X11895714Y-17804714D01*
X11924286Y-17819000D01*
X11938571Y-17847572D01*
X11938571Y-18004714D01*
X12524286Y-17690429D02*
X12267143Y-18076143D01*
X12910000Y-17704714D02*
X12938571Y-17704714D01*
X12967143Y-17719000D01*
X12981428Y-17733286D01*
X12995714Y-17761857D01*
X13010000Y-17819000D01*
X13010000Y-17890429D01*
X12995714Y-17947572D01*
X12981428Y-17976143D01*
X12967143Y-17990429D01*
X12938571Y-18004714D01*
X12910000Y-18004714D01*
X12881428Y-17990429D01*
X12867143Y-17976143D01*
X12852857Y-17947572D01*
X12838571Y-17890429D01*
X12838571Y-17819000D01*
X12852857Y-17761857D01*
X12867143Y-17733286D01*
X12881428Y-17719000D01*
X12910000Y-17704714D01*
X13138571Y-17976143D02*
X13152857Y-17990429D01*
X13138571Y-18004714D01*
X13124286Y-17990429D01*
X13138571Y-17976143D01*
X13138571Y-18004714D01*
X13438571Y-18004714D02*
X13267143Y-18004714D01*
X13352857Y-18004714D02*
X13352857Y-17704714D01*
X13324286Y-17747572D01*
X13295714Y-17776143D01*
X13267143Y-17790429D01*
X13624286Y-17704714D02*
X13652857Y-17704714D01*
X13681428Y-17719000D01*
X13695714Y-17733286D01*
X13710000Y-17761857D01*
X13724286Y-17819000D01*
X13724286Y-17890429D01*
X13710000Y-17947572D01*
X13695714Y-17976143D01*
X13681428Y-17990429D01*
X13652857Y-18004714D01*
X13624286Y-18004714D01*
X13595714Y-17990429D01*
X13581428Y-17976143D01*
X13567143Y-17947572D01*
X13552857Y-17890429D01*
X13552857Y-17819000D01*
X13567143Y-17761857D01*
X13581428Y-17733286D01*
X13595714Y-17719000D01*
X13624286Y-17704714D01*
X13981428Y-17704714D02*
X13924286Y-17704714D01*
X13895714Y-17719000D01*
X13881428Y-17733286D01*
X13852857Y-17776143D01*
X13838571Y-17833286D01*
X13838571Y-17947572D01*
X13852857Y-17976143D01*
X13867143Y-17990429D01*
X13895714Y-18004714D01*
X13952857Y-18004714D01*
X13981428Y-17990429D01*
X13995714Y-17976143D01*
X14010000Y-17947572D01*
X14010000Y-17876143D01*
X13995714Y-17847572D01*
X13981428Y-17833286D01*
X13952857Y-17819000D01*
X13895714Y-17819000D01*
X13867143Y-17833286D01*
X13852857Y-17847572D01*
X13838571Y-17876143D01*
X14124286Y-17704714D02*
X14124286Y-17761857D01*
X14238571Y-17704714D02*
X14238571Y-17761857D01*
X14681428Y-18119000D02*
X14667143Y-18104714D01*
X14638571Y-18061857D01*
X14624286Y-18033286D01*
X14610000Y-17990429D01*
X14595714Y-17919000D01*
X14595714Y-17861857D01*
X14610000Y-17790429D01*
X14624286Y-17747572D01*
X14638571Y-17719000D01*
X14667143Y-17676143D01*
X14681428Y-17661857D01*
X14924286Y-17804714D02*
X14924286Y-18004714D01*
X14852857Y-17690429D02*
X14781428Y-17904714D01*
X14967143Y-17904714D01*
X15310000Y-18004714D02*
X15310000Y-17704714D01*
X15438571Y-18004714D02*
X15438571Y-17847572D01*
X15424286Y-17819000D01*
X15395714Y-17804714D01*
X15352857Y-17804714D01*
X15324286Y-17819000D01*
X15310000Y-17833286D01*
X15624286Y-18004714D02*
X15595714Y-17990429D01*
X15581428Y-17976143D01*
X15567143Y-17947572D01*
X15567143Y-17861857D01*
X15581428Y-17833286D01*
X15595714Y-17819000D01*
X15624286Y-17804714D01*
X15667143Y-17804714D01*
X15695714Y-17819000D01*
X15710000Y-17833286D01*
X15724286Y-17861857D01*
X15724286Y-17947572D01*
X15710000Y-17976143D01*
X15695714Y-17990429D01*
X15667143Y-18004714D01*
X15624286Y-18004714D01*
X15895714Y-18004714D02*
X15867143Y-17990429D01*
X15852857Y-17961857D01*
X15852857Y-17704714D01*
X16124286Y-17990429D02*
X16095714Y-18004714D01*
X16038571Y-18004714D01*
X16010000Y-17990429D01*
X15995714Y-17961857D01*
X15995714Y-17847572D01*
X16010000Y-17819000D01*
X16038571Y-17804714D01*
X16095714Y-17804714D01*
X16124286Y-17819000D01*
X16138571Y-17847572D01*
X16138571Y-17876143D01*
X15995714Y-17904714D01*
X16252857Y-17990429D02*
X16281428Y-18004714D01*
X16338571Y-18004714D01*
X16367143Y-17990429D01*
X16381428Y-17961857D01*
X16381428Y-17947572D01*
X16367143Y-17919000D01*
X16338571Y-17904714D01*
X16295714Y-17904714D01*
X16267143Y-17890429D01*
X16252857Y-17861857D01*
X16252857Y-17847572D01*
X16267143Y-17819000D01*
X16295714Y-17804714D01*
X16338571Y-17804714D01*
X16367143Y-17819000D01*
X16481428Y-18119000D02*
X16495714Y-18104714D01*
X16524286Y-18061857D01*
X16538571Y-18033286D01*
X16552857Y-17990429D01*
X16567143Y-17919000D01*
X16567143Y-17861857D01*
X16552857Y-17790429D01*
X16538571Y-17747572D01*
X16524286Y-17719000D01*
X16495714Y-17676143D01*
X16481428Y-17661857D01*
X9953735Y-18367885D02*
X9953735Y-18168635D01*
X9754485Y-18168635D01*
X9754485Y-18367885D01*
X9953735Y-18367885D01*
X9995000Y-18268260D02*
G75*
G03X9995000Y-18268260I-140890J0D01*
G01*
X10267143Y-18132546D02*
X10281428Y-18118260D01*
X10310000Y-18103974D01*
X10381428Y-18103974D01*
X10410000Y-18118260D01*
X10424286Y-18132546D01*
X10438571Y-18161117D01*
X10438571Y-18189689D01*
X10424286Y-18232546D01*
X10252857Y-18403974D01*
X10438571Y-18403974D01*
X10567143Y-18375403D02*
X10581428Y-18389689D01*
X10567143Y-18403974D01*
X10552857Y-18389689D01*
X10567143Y-18375403D01*
X10567143Y-18403974D01*
X10752857Y-18232546D02*
X10724286Y-18218260D01*
X10710000Y-18203974D01*
X10695714Y-18175403D01*
X10695714Y-18161117D01*
X10710000Y-18132546D01*
X10724286Y-18118260D01*
X10752857Y-18103974D01*
X10810000Y-18103974D01*
X10838571Y-18118260D01*
X10852857Y-18132546D01*
X10867143Y-18161117D01*
X10867143Y-18175403D01*
X10852857Y-18203974D01*
X10838571Y-18218260D01*
X10810000Y-18232546D01*
X10752857Y-18232546D01*
X10724286Y-18246832D01*
X10710000Y-18261117D01*
X10695714Y-18289689D01*
X10695714Y-18346832D01*
X10710000Y-18375403D01*
X10724286Y-18389689D01*
X10752857Y-18403974D01*
X10810000Y-18403974D01*
X10838571Y-18389689D01*
X10852857Y-18375403D01*
X10867143Y-18346832D01*
X10867143Y-18289689D01*
X10852857Y-18261117D01*
X10838571Y-18246832D01*
X10810000Y-18232546D01*
X10981428Y-18132546D02*
X10995714Y-18118260D01*
X11024286Y-18103974D01*
X11095714Y-18103974D01*
X11124286Y-18118260D01*
X11138571Y-18132546D01*
X11152857Y-18161117D01*
X11152857Y-18189689D01*
X11138571Y-18232546D01*
X10967143Y-18403974D01*
X11152857Y-18403974D01*
X11281428Y-18403974D02*
X11281428Y-18203974D01*
X11281428Y-18232546D02*
X11295714Y-18218260D01*
X11324286Y-18203974D01*
X11367143Y-18203974D01*
X11395714Y-18218260D01*
X11410000Y-18246832D01*
X11410000Y-18403974D01*
X11410000Y-18246832D02*
X11424286Y-18218260D01*
X11452857Y-18203974D01*
X11495714Y-18203974D01*
X11524286Y-18218260D01*
X11538571Y-18246832D01*
X11538571Y-18403974D01*
X11681428Y-18403974D02*
X11681428Y-18203974D01*
X11681428Y-18232546D02*
X11695714Y-18218260D01*
X11724286Y-18203974D01*
X11767143Y-18203974D01*
X11795714Y-18218260D01*
X11810000Y-18246832D01*
X11810000Y-18403974D01*
X11810000Y-18246832D02*
X11824286Y-18218260D01*
X11852857Y-18203974D01*
X11895714Y-18203974D01*
X11924286Y-18218260D01*
X11938571Y-18246832D01*
X11938571Y-18403974D01*
X12524286Y-18089689D02*
X12267143Y-18475403D01*
X12910000Y-18103974D02*
X12938571Y-18103974D01*
X12967143Y-18118260D01*
X12981428Y-18132546D01*
X12995714Y-18161117D01*
X13010000Y-18218260D01*
X13010000Y-18289689D01*
X12995714Y-18346832D01*
X12981428Y-18375403D01*
X12967143Y-18389689D01*
X12938571Y-18403974D01*
X12910000Y-18403974D01*
X12881428Y-18389689D01*
X12867143Y-18375403D01*
X12852857Y-18346832D01*
X12838571Y-18289689D01*
X12838571Y-18218260D01*
X12852857Y-18161117D01*
X12867143Y-18132546D01*
X12881428Y-18118260D01*
X12910000Y-18103974D01*
X13138571Y-18375403D02*
X13152857Y-18389689D01*
X13138571Y-18403974D01*
X13124286Y-18389689D01*
X13138571Y-18375403D01*
X13138571Y-18403974D01*
X13438571Y-18403974D02*
X13267143Y-18403974D01*
X13352857Y-18403974D02*
X13352857Y-18103974D01*
X13324286Y-18146832D01*
X13295714Y-18175403D01*
X13267143Y-18189689D01*
X13724286Y-18403974D02*
X13552857Y-18403974D01*
X13638571Y-18403974D02*
X13638571Y-18103974D01*
X13610000Y-18146832D01*
X13581428Y-18175403D01*
X13552857Y-18189689D01*
X14010000Y-18403974D02*
X13838571Y-18403974D01*
X13924286Y-18403974D02*
X13924286Y-18103974D01*
X13895714Y-18146832D01*
X13867143Y-18175403D01*
X13838571Y-18189689D01*
X14124286Y-18103974D02*
X14124286Y-18161117D01*
X14238571Y-18103974D02*
X14238571Y-18161117D01*
X14681428Y-18518260D02*
X14667143Y-18503974D01*
X14638571Y-18461117D01*
X14624286Y-18432546D01*
X14610000Y-18389689D01*
X14595714Y-18318260D01*
X14595714Y-18261117D01*
X14610000Y-18189689D01*
X14624286Y-18146832D01*
X14638571Y-18118260D01*
X14667143Y-18075403D01*
X14681428Y-18061117D01*
X14781428Y-18132546D02*
X14795714Y-18118260D01*
X14824286Y-18103974D01*
X14895714Y-18103974D01*
X14924286Y-18118260D01*
X14938571Y-18132546D01*
X14952857Y-18161117D01*
X14952857Y-18189689D01*
X14938571Y-18232546D01*
X14767143Y-18403974D01*
X14952857Y-18403974D01*
X15310000Y-18403974D02*
X15310000Y-18103974D01*
X15438571Y-18403974D02*
X15438571Y-18246832D01*
X15424286Y-18218260D01*
X15395714Y-18203974D01*
X15352857Y-18203974D01*
X15324286Y-18218260D01*
X15310000Y-18232546D01*
X15624286Y-18403974D02*
X15595714Y-18389689D01*
X15581428Y-18375403D01*
X15567143Y-18346832D01*
X15567143Y-18261117D01*
X15581428Y-18232546D01*
X15595714Y-18218260D01*
X15624286Y-18203974D01*
X15667143Y-18203974D01*
X15695714Y-18218260D01*
X15710000Y-18232546D01*
X15724286Y-18261117D01*
X15724286Y-18346832D01*
X15710000Y-18375403D01*
X15695714Y-18389689D01*
X15667143Y-18403974D01*
X15624286Y-18403974D01*
X15895714Y-18403974D02*
X15867143Y-18389689D01*
X15852857Y-18361117D01*
X15852857Y-18103974D01*
X16124286Y-18389689D02*
X16095714Y-18403974D01*
X16038571Y-18403974D01*
X16010000Y-18389689D01*
X15995714Y-18361117D01*
X15995714Y-18246832D01*
X16010000Y-18218260D01*
X16038571Y-18203974D01*
X16095714Y-18203974D01*
X16124286Y-18218260D01*
X16138571Y-18246832D01*
X16138571Y-18275403D01*
X15995714Y-18303974D01*
X16252857Y-18389689D02*
X16281428Y-18403974D01*
X16338571Y-18403974D01*
X16367143Y-18389689D01*
X16381428Y-18361117D01*
X16381428Y-18346832D01*
X16367143Y-18318260D01*
X16338571Y-18303974D01*
X16295714Y-18303974D01*
X16267143Y-18289689D01*
X16252857Y-18261117D01*
X16252857Y-18246832D01*
X16267143Y-18218260D01*
X16295714Y-18203974D01*
X16338571Y-18203974D01*
X16367143Y-18218260D01*
X16481428Y-18518260D02*
X16495714Y-18503974D01*
X16524286Y-18461117D01*
X16538571Y-18432546D01*
X16552857Y-18389689D01*
X16567143Y-18318260D01*
X16567143Y-18261117D01*
X16552857Y-18189689D01*
X16538571Y-18146832D01*
X16524286Y-18118260D01*
X16495714Y-18075403D01*
X16481428Y-18061117D01*
M02*
