M48
;DRILL file {KiCad 5.0.2+dfsg1-1} date gio 18 apr 2019 10:12:50 CEST
;FORMAT={-:-/ absolute / metric / decimal}
FMAT,2
METRIC,TZ
T1C0.300
T2C0.600
T3C0.800
T4C0.900
T5C1.000
T6C1.001
T7C1.143
T8C1.300
T9C2.200
T10C2.693
T11C2.818
%
G90
G05
T1
X120.048Y-84.657
X120.548Y-74.79
X129.657Y-83.231
X130.403Y-78.736
X132.479Y-72.913
X136.802Y-82.022
X140.355Y-78.816
X143.218Y-72.962
X159.522Y-80.992
X177.722Y-104.715
X181.66Y-98.574
X181.793Y-87.224
X184.224Y-85.086
X189.465Y-105.22
X190.044Y-86.261
X194.054Y-91.769
T3
X118.2Y-86.1
X118.2Y-88.6
X176.4Y-112.25
X184.02Y-112.25
X111.6Y-86.4
X111.6Y-88.9
X151.2Y-105.6
X151.2Y-108.1
X126.4Y-75.5
X134.02Y-75.5
X125.45Y-107.65
X133.07Y-107.65
X139.9Y-81.5
X150.06Y-81.5
X199.25Y-107.
X201.75Y-107.
X139.7Y-76.05
X149.86Y-76.05
X187.85Y-94.55
X187.85Y-97.09
X187.85Y-99.63
X187.85Y-102.17
X195.47Y-94.55
X195.47Y-97.09
X195.47Y-99.63
X195.47Y-102.17
X137.65Y-107.7
X145.27Y-107.7
X192.8Y-81.38
X192.8Y-89.
X144.35Y-129.55
X144.35Y-132.05
X199.3Y-102.35
X201.8Y-102.35
X125.5Y-112.65
X133.12Y-112.65
X137.7Y-112.5
X145.32Y-112.5
X154.75Y-112.75
X162.37Y-112.75
X112.2Y-112.5
X119.82Y-112.5
X118.65Y-129.45
X118.65Y-131.95
X136.5Y-60.7
X136.5Y-64.5
X126.5Y-60.7
X126.5Y-64.5
X126.3Y-80.1
X133.92Y-80.1
X168.65Y-129.5
X168.65Y-132.
X188.03Y-112.15
X195.65Y-112.15
X180.5Y-129.45
X180.5Y-131.95
X176.3Y-107.4
X183.92Y-107.4
X118.Y-79.5
X118.Y-82.
X187.8Y-81.4
X187.8Y-89.02
X199.3Y-98.1
X201.8Y-98.1
X192.5Y-129.45
X192.5Y-131.95
X199.25Y-112.35
X201.75Y-112.35
X156.75Y-129.45
X156.75Y-131.95
X158.32Y-106.4
X163.2Y-106.4
X170.Y-105.8
X170.Y-108.3
X192.8Y-69.53
X192.8Y-77.15
X111.6Y-78.
X111.6Y-80.5
X112.35Y-107.3
X119.97Y-107.3
X188.23Y-107.4
X195.85Y-107.4
X134.65Y-85.76
X134.65Y-101.
X137.19Y-85.76
X137.19Y-101.
X139.73Y-85.76
X139.73Y-101.
X142.27Y-85.76
X142.27Y-101.
X144.81Y-85.76
X144.81Y-101.
X147.35Y-85.76
X147.35Y-101.
X149.89Y-85.76
X149.89Y-101.
X152.43Y-85.76
X152.43Y-101.
X154.97Y-85.76
X154.97Y-101.
X157.51Y-85.76
X157.51Y-101.
X160.05Y-85.76
X160.05Y-101.
X162.59Y-85.76
X162.59Y-101.
X165.13Y-85.76
X165.13Y-101.
X167.67Y-85.76
X167.67Y-101.
X170.21Y-85.76
X170.21Y-101.
X172.75Y-85.76
X172.75Y-101.
X175.29Y-85.76
X175.29Y-101.
X177.83Y-85.76
X177.83Y-101.
X180.37Y-85.76
X180.37Y-101.
X182.91Y-85.76
X182.91Y-101.
X131.55Y-129.45
X131.55Y-131.95
T4
X180.85Y-70.6
X188.47Y-70.6
X205.31Y-102.35
X207.85Y-102.35
X205.31Y-96.35
X207.85Y-96.35
X205.16Y-108.35
X207.7Y-108.35
X205.16Y-114.9
X207.7Y-114.9
X155.38Y-80.9
X163.Y-80.9
T5
X101.4Y-120.35
X102.9Y-120.35
X104.4Y-120.35
X105.9Y-120.35
X107.45Y-120.35
X108.95Y-120.35
X110.45Y-120.35
X111.95Y-120.35
X113.5Y-120.35
X115.Y-120.35
X116.5Y-120.35
X117.95Y-120.35
X119.5Y-120.35
X121.Y-120.35
X122.5Y-120.35
X124.Y-120.35
X125.5Y-120.35
X126.95Y-120.35
X128.5Y-120.35
X130.Y-120.35
X131.5Y-120.35
X133.Y-120.35
X134.5Y-120.35
X136.Y-120.35
X137.55Y-120.35
X139.05Y-120.35
X140.6Y-120.35
X142.2Y-120.35
X166.45Y-120.4
X168.Y-120.4
X169.5Y-120.4
X171.Y-120.4
X172.5Y-120.4
X174.Y-120.4
X175.5Y-120.4
X177.05Y-120.4
X178.55Y-120.4
X180.05Y-120.4
X181.55Y-120.4
X183.05Y-120.4
X184.5Y-120.4
X186.05Y-120.4
X187.55Y-120.4
X189.05Y-120.4
X190.55Y-120.4
X192.05Y-120.4
X193.5Y-120.4
X195.05Y-120.4
X196.55Y-120.4
X198.05Y-120.4
X199.55Y-120.4
X201.05Y-120.4
X202.55Y-120.4
X204.1Y-120.4
X205.6Y-120.4
X207.1Y-120.4
X208.6Y-120.4
X134.8Y-127.85
X134.8Y-131.85
X140.8Y-127.85
X140.8Y-131.85
X147.6Y-127.85
X147.6Y-131.85
X153.6Y-127.85
X153.6Y-131.85
X144.1Y-120.4
X146.64Y-120.4
X149.18Y-120.4
X151.72Y-120.4
X154.26Y-120.4
X156.8Y-120.4
X159.34Y-120.4
X161.88Y-120.4
X164.42Y-120.4
X183.35Y-127.85
X183.35Y-131.85
X189.35Y-127.85
X189.35Y-131.85
X171.5Y-127.85
X171.5Y-131.85
X177.5Y-127.85
X177.5Y-131.85
X144.1Y-123.
X146.64Y-123.
X149.18Y-123.
X151.72Y-123.
X154.26Y-123.
X156.8Y-123.
X159.34Y-123.
X161.88Y-123.
X164.42Y-123.
X195.55Y-127.85
X195.55Y-131.85
X201.55Y-127.85
X201.55Y-131.85
X124.71Y-84.97
X124.71Y-87.51
X124.71Y-90.05
X124.71Y-92.59
X124.71Y-95.13
X124.71Y-97.67
X124.71Y-100.21
X124.71Y-102.75
X127.25Y-84.97
X127.25Y-87.51
X127.25Y-90.05
X127.25Y-92.59
X127.25Y-95.13
X127.25Y-97.67
X127.25Y-100.21
X127.25Y-102.75
X175.3Y-76.
X177.84Y-76.
X180.38Y-76.
X182.92Y-76.
X185.46Y-76.
X188.Y-76.
X159.75Y-127.9
X159.75Y-131.9
X165.75Y-127.9
X165.75Y-131.9
X122.1Y-127.85
X122.1Y-131.85
X128.1Y-127.85
X128.1Y-131.85
X144.1Y-117.6
X146.64Y-117.6
X149.18Y-117.6
X151.72Y-117.6
X154.26Y-117.6
X156.8Y-117.6
X159.34Y-117.6
X161.88Y-117.6
X164.42Y-117.6
X115.5Y-70.2
X118.04Y-70.2
X120.58Y-70.2
X123.12Y-70.2
X125.66Y-70.2
X128.2Y-70.2
X130.74Y-70.2
X133.28Y-70.2
X135.82Y-70.2
X138.36Y-70.2
X140.9Y-70.2
X143.44Y-70.2
X145.98Y-70.2
X148.52Y-70.2
X151.06Y-70.2
X153.6Y-70.2
X161.889Y-74.94
X164.429Y-74.94
X166.969Y-74.94
X167.75Y-80.9
X170.29Y-80.9
X172.83Y-80.9
X175.37Y-80.9
X177.91Y-80.9
X180.45Y-80.9
X167.66Y-112.6
X170.2Y-112.6
X109.Y-127.85
X109.Y-131.85
X115.Y-127.85
X115.Y-131.85
T6
X144.25Y-62.25
X151.85Y-62.25
T7
X104.Y-86.96
X104.Y-89.5
X104.Y-92.04
X104.Y-74.21
X104.Y-76.75
X104.Y-79.29
T8
X113.6Y-96.4
X113.6Y-101.4
X118.6Y-98.9
X101.65Y-99.6
X101.65Y-104.6
X101.65Y-109.6
T9
X195.072Y-62.992
X103.7Y-116.95
X103.9Y-127.55
X195.05Y-116.9
X206.05Y-127.5
X118.5Y-63.85
T10
X202.3Y-70.7
X202.3Y-78.2
X202.3Y-83.
X202.3Y-90.5
T11
X206.Y-74.45
X206.Y-86.75
T2
X105.904Y-66.88G85X105.904Y-67.48
G05
X110.504Y-58.78G85X110.504Y-59.38
G05
X110.504Y-61.78G85X110.504Y-62.38
G05
X110.504Y-65.78G85X110.504Y-66.38
G05
X179.7Y-66.85G85X179.7Y-67.45
G05
X184.3Y-58.75G85X184.3Y-59.35
G05
X184.3Y-61.75G85X184.3Y-62.35
G05
X184.3Y-65.75G85X184.3Y-66.35
G05
T3
X160.55Y-65.1G85X160.55Y-64.9
G05
X160.55Y-67.4G85X160.55Y-67.2
G05
X162.65Y-65.1G85X162.65Y-64.9
G05
X165.25Y-65.1G85X165.25Y-64.9
G05
X167.35Y-65.1G85X167.35Y-64.9
G05
X167.35Y-67.4G85X167.35Y-67.2
G05
T5
X157.1Y-62.4G85X157.1Y-60.9
G05
X164.95Y-61.35G85X162.95Y-61.35
G05
X170.8Y-62.4G85X170.8Y-60.9
G05
X200.45Y-62.1G85X200.45Y-64.1
G05
X206.15Y-60.1G85X204.15Y-60.1
G05
X206.15Y-66.1G85X204.15Y-66.1
G05
T0
M30
