G04 #@! TF.GenerationSoftware,KiCad,Pcbnew,5.0.2+dfsg1-1*
G04 #@! TF.CreationDate,2019-04-18T10:12:34+02:00*
G04 #@! TF.ProjectId,yaacwk,79616163-776b-42e6-9b69-6361645f7063,1.3*
G04 #@! TF.SameCoordinates,Original*
G04 #@! TF.FileFunction,Other,User*
%FSLAX46Y46*%
G04 Gerber Fmt 4.6, Leading zero omitted, Abs format (unit mm)*
G04 Created by KiCad (PCBNEW 5.0.2+dfsg1-1) date gio 18 apr 2019 10:12:34 CEST*
%MOMM*%
%LPD*%
G01*
G04 APERTURE LIST*
%ADD10C,0.050000*%
G04 APERTURE END LIST*
D10*
G04 #@! TO.C,C6*
X120050000Y-133000000D02*
X117250000Y-133000000D01*
X117250000Y-133000000D02*
X117250000Y-128400000D01*
X117250000Y-128400000D02*
X120050000Y-128400000D01*
X120050000Y-128400000D02*
X120050000Y-133000000D01*
G04 #@! TO.C,C7*
X132950000Y-128400000D02*
X132950000Y-133000000D01*
X130150000Y-128400000D02*
X132950000Y-128400000D01*
X130150000Y-133000000D02*
X130150000Y-128400000D01*
X132950000Y-133000000D02*
X130150000Y-133000000D01*
G04 #@! TO.C,C8*
X145750000Y-133100000D02*
X142950000Y-133100000D01*
X142950000Y-133100000D02*
X142950000Y-128500000D01*
X142950000Y-128500000D02*
X145750000Y-128500000D01*
X145750000Y-128500000D02*
X145750000Y-133100000D01*
G04 #@! TO.C,C9*
X158150000Y-133000000D02*
X155350000Y-133000000D01*
X155350000Y-133000000D02*
X155350000Y-128400000D01*
X155350000Y-128400000D02*
X158150000Y-128400000D01*
X158150000Y-128400000D02*
X158150000Y-133000000D01*
G04 #@! TO.C,C17*
X170050000Y-133050000D02*
X167250000Y-133050000D01*
X167250000Y-133050000D02*
X167250000Y-128450000D01*
X167250000Y-128450000D02*
X170050000Y-128450000D01*
X170050000Y-128450000D02*
X170050000Y-133050000D01*
G04 #@! TO.C,C18*
X181900000Y-128400000D02*
X181900000Y-133000000D01*
X179100000Y-128400000D02*
X181900000Y-128400000D01*
X179100000Y-133000000D02*
X179100000Y-128400000D01*
X181900000Y-133000000D02*
X179100000Y-133000000D01*
G04 #@! TO.C,C19*
X193900000Y-133000000D02*
X191100000Y-133000000D01*
X191100000Y-133000000D02*
X191100000Y-128400000D01*
X191100000Y-128400000D02*
X193900000Y-128400000D01*
X193900000Y-128400000D02*
X193900000Y-133000000D01*
G04 #@! TD*
M02*
