M48
;DRILL file {KiCad 4.0.5+dfsg1-4} date Sat Jul  7 08:12:17 2018
;FORMAT={-:-/ absolute / metric / decimal}
FMAT,2
METRIC,TZ
T1C0.400
T2C0.600
T3C0.800
T4C0.900
T5C1.000
T6C1.001
T7C1.143
T8C1.300
T9C3.048
%
G90
G05
M71
T1
X109.758Y-70.995
X111.181Y-73.965
X113.147Y-129.971
X141.445Y-69.701
X148.729Y-57.534
X153.032Y-94.022
X155.56Y-68.94
X155.977Y-94.958
X156.287Y-91.148
X160.569Y-73.912
X160.696Y-124.549
X163.198Y-108.851
X163.306Y-74.668
X164.787Y-124.541
X166.32Y-120.639
X169.259Y-94.229
X169.271Y-66.418
X169.454Y-95.763
X172.24Y-97.317
X179.924Y-85.341
X182.14Y-103.446
X185.632Y-66.418
X194.59Y-82.003
X205.633Y-132.533
X209.066Y-101.258
T3
X107.315Y-113.104
X107.315Y-116.904
X107.823Y-122.238
X115.443Y-122.238
X115.951Y-110.363
X115.951Y-117.983
X121.476Y-112.84
X128.46Y-85.217
X128.46Y-100.457
X128.651Y-80.01
X129.096Y-112.84
X129.159Y-60.97
X129.159Y-64.77
X131.Y-85.217
X131.Y-100.457
X133.54Y-85.217
X133.54Y-100.457
X134.302Y-112.84
X136.08Y-85.217
X136.08Y-100.457
X136.271Y-80.01
X138.62Y-85.217
X138.62Y-100.457
X140.906Y-79.947
X141.16Y-85.217
X141.16Y-100.457
X141.922Y-112.84
X143.7Y-85.217
X143.7Y-100.457
X146.24Y-85.217
X146.24Y-100.457
X147.51Y-112.84
X148.526Y-79.947
X148.78Y-85.217
X148.78Y-100.457
X150.632Y-106.299
X151.32Y-85.217
X151.32Y-100.457
X153.543Y-79.502
X153.86Y-85.217
X153.86Y-100.457
X155.13Y-112.84
X155.512Y-106.299
X156.4Y-85.217
X156.4Y-100.457
X158.94Y-85.217
X158.94Y-100.457
X160.401Y-112.84
X161.48Y-85.217
X161.48Y-100.457
X163.703Y-79.502
X164.02Y-85.217
X164.02Y-100.457
X166.56Y-85.217
X166.56Y-100.457
X168.021Y-112.84
X168.402Y-79.629
X169.1Y-85.217
X169.1Y-100.457
X171.64Y-85.217
X171.64Y-100.457
X172.847Y-105.092
X172.847Y-112.712
X174.18Y-85.217
X174.18Y-100.457
X176.72Y-85.217
X176.72Y-100.457
X178.562Y-79.629
X178.752Y-105.156
X178.752Y-112.776
X183.007Y-122.428
X183.324Y-79.947
X183.515Y-111.316
X187.071Y-84.519
X187.198Y-90.424
X187.198Y-92.964
X187.198Y-95.504
X187.198Y-98.044
X190.627Y-122.428
X190.944Y-79.947
X191.135Y-111.316
X194.691Y-84.519
X194.691Y-111.316
X194.818Y-90.424
X194.818Y-92.964
X194.818Y-95.504
X194.818Y-98.044
X196.85Y-122.682
X202.311Y-111.316
X204.47Y-122.682
T4
X111.506Y-77.66
X111.506Y-82.66
X111.57Y-87.456
X111.57Y-92.456
X117.729Y-77.66
X117.729Y-82.66
X117.792Y-87.456
X117.792Y-92.456
X121.412Y-117.729
X121.412Y-122.729
X130.048Y-117.729
X130.048Y-122.729
X130.492Y-106.426
X135.492Y-106.426
X139.446Y-117.729
X139.446Y-122.729
X148.272Y-117.729
X148.272Y-122.729
X157.416Y-117.729
X157.416Y-122.729
X162.767Y-106.426
X166.306Y-117.729
X166.306Y-122.729
X167.767Y-106.426
X175.006Y-117.666
X175.006Y-122.666
X176.276Y-64.516
X183.198Y-117.094
X183.896Y-64.516
X185.69Y-105.346
X185.738Y-117.094
X190.373Y-117.094
X190.69Y-105.346
X192.913Y-117.094
X196.295Y-105.346
X197.485Y-117.094
X197.802Y-80.137
X200.025Y-117.094
X200.279Y-84.836
X200.279Y-89.836
X200.279Y-94.615
X200.279Y-99.615
X201.295Y-105.346
X204.343Y-117.094
X205.422Y-80.137
X206.883Y-117.094
T5
X107.95Y-98.933
X107.95Y-101.433
X107.95Y-103.933
X113.284Y-72.962
X113.665Y-127.952
X115.824Y-72.962
X116.205Y-127.952
X118.364Y-72.962
X120.904Y-72.962
X123.444Y-72.962
X123.571Y-80.2
X123.571Y-82.74
X123.571Y-85.28
X123.571Y-87.82
X123.571Y-90.36
X123.571Y-92.9
X123.571Y-95.44
X123.571Y-97.98
X123.571Y-100.52
X123.571Y-103.06
X123.571Y-105.6
X124.778Y-127.952
X125.984Y-72.962
X127.318Y-127.952
X128.524Y-72.962
X131.064Y-72.962
X133.604Y-72.962
X135.318Y-127.952
X136.144Y-72.962
X137.858Y-127.952
X138.684Y-72.962
X140.97Y-106.744
X141.224Y-72.962
X143.51Y-106.744
X143.764Y-72.962
X146.304Y-72.962
X146.368Y-127.952
X148.844Y-72.962
X148.908Y-127.952
X151.384Y-72.962
X157.099Y-127.952
X159.639Y-127.952
X167.64Y-127.952
X170.18Y-127.952
X173.736Y-73.152
X176.276Y-73.152
X178.816Y-73.152
X179.006Y-128.016
X181.356Y-73.152
X181.546Y-128.016
X181.674Y-86.741
X181.674Y-89.281
X181.674Y-91.821
X181.674Y-94.361
X181.674Y-96.901
X181.674Y-99.441
X183.896Y-73.152
X186.436Y-73.152
X189.674Y-127.826
X192.214Y-127.826
X194.31Y-70.739
X194.31Y-73.279
X194.31Y-75.819
X206.248Y-85.788
X206.248Y-88.328
X206.312Y-94.996
X206.312Y-97.536
X206.375Y-103.886
X206.375Y-106.426
X206.375Y-108.966
T6
X140.028Y-63.309
X147.628Y-63.309
T7
X104.394Y-73.025
X104.394Y-75.565
X104.394Y-78.105
X104.394Y-85.979
X104.394Y-88.519
X104.394Y-91.059
T8
X114.046Y-99.441
X114.046Y-104.441
X119.046Y-101.941
T9
X105.41Y-128.016
X118.936Y-63.119
X195.072Y-62.992
X204.47Y-128.016
T2
X105.904Y-66.88G85X105.904Y-67.48
G05
X110.504Y-58.78G85X110.504Y-59.38
G05
X110.504Y-61.78G85X110.504Y-62.38
G05
X110.504Y-65.78G85X110.504Y-66.38
G05
T3
X159.19Y-65.116G85X159.19Y-64.916
G05
X159.19Y-67.416G85X159.19Y-67.216
G05
X161.29Y-65.116G85X161.29Y-64.916
G05
X163.89Y-65.116G85X163.89Y-64.916
G05
X165.99Y-65.116G85X165.99Y-64.916
G05
X165.99Y-67.416G85X165.99Y-67.216
G05
T5
X155.74Y-62.416G85X155.74Y-60.916
G05
X163.59Y-61.366G85X161.59Y-61.366
G05
X169.44Y-62.416G85X169.44Y-60.916
G05
X199.771Y-73.644G85X199.771Y-71.644
G05
X203.771Y-67.944G85X201.771Y-67.944
G05
X205.771Y-73.644G85X205.771Y-71.644
G05
T0
M30
