G04 #@! TF.FileFunction,Other,User*
%FSLAX46Y46*%
G04 Gerber Fmt 4.6, Leading zero omitted, Abs format (unit mm)*
G04 Created by KiCad (PCBNEW 4.0.5+dfsg1-4) date Sat Jul  7 08:12:10 2018*
%MOMM*%
%LPD*%
G01*
G04 APERTURE LIST*
%ADD10C,0.100000*%
%ADD11C,0.050000*%
G04 APERTURE END LIST*
D10*
D11*
X171100000Y-69566000D02*
X154100000Y-69566000D01*
X171100000Y-69566000D02*
X171100000Y-55516000D01*
X154100000Y-55516000D02*
X154100000Y-69566000D01*
X154100000Y-55516000D02*
X171100000Y-55516000D01*
X115292000Y-93956000D02*
X115292000Y-85956000D01*
X115292000Y-85956000D02*
X120292000Y-85956000D01*
X120292000Y-85956000D02*
X120292000Y-93956000D01*
X120292000Y-93956000D02*
X115292000Y-93956000D01*
X202795000Y-107846000D02*
X194795000Y-107846000D01*
X194795000Y-107846000D02*
X194795000Y-102846000D01*
X194795000Y-102846000D02*
X202795000Y-102846000D01*
X202795000Y-102846000D02*
X202795000Y-107846000D01*
X192190000Y-107846000D02*
X184190000Y-107846000D01*
X184190000Y-107846000D02*
X184190000Y-102846000D01*
X184190000Y-102846000D02*
X192190000Y-102846000D01*
X192190000Y-102846000D02*
X192190000Y-107846000D01*
X202779000Y-83336000D02*
X202779000Y-91336000D01*
X202779000Y-91336000D02*
X197779000Y-91336000D01*
X197779000Y-91336000D02*
X197779000Y-83336000D01*
X197779000Y-83336000D02*
X202779000Y-83336000D01*
X202779000Y-93115000D02*
X202779000Y-101115000D01*
X202779000Y-101115000D02*
X197779000Y-101115000D01*
X197779000Y-101115000D02*
X197779000Y-93115000D01*
X197779000Y-93115000D02*
X202779000Y-93115000D01*
X123912000Y-116229000D02*
X123912000Y-124229000D01*
X123912000Y-124229000D02*
X118912000Y-124229000D01*
X118912000Y-124229000D02*
X118912000Y-116229000D01*
X118912000Y-116229000D02*
X123912000Y-116229000D01*
X132548000Y-116229000D02*
X132548000Y-124229000D01*
X132548000Y-124229000D02*
X127548000Y-124229000D01*
X127548000Y-124229000D02*
X127548000Y-116229000D01*
X127548000Y-116229000D02*
X132548000Y-116229000D01*
X141946000Y-116229000D02*
X141946000Y-124229000D01*
X141946000Y-124229000D02*
X136946000Y-124229000D01*
X136946000Y-124229000D02*
X136946000Y-116229000D01*
X136946000Y-116229000D02*
X141946000Y-116229000D01*
X150772000Y-116229000D02*
X150772000Y-124229000D01*
X150772000Y-124229000D02*
X145772000Y-124229000D01*
X145772000Y-124229000D02*
X145772000Y-116229000D01*
X145772000Y-116229000D02*
X150772000Y-116229000D01*
X169267000Y-108926000D02*
X161267000Y-108926000D01*
X161267000Y-108926000D02*
X161267000Y-103926000D01*
X161267000Y-103926000D02*
X169267000Y-103926000D01*
X169267000Y-103926000D02*
X169267000Y-108926000D01*
X128992000Y-103926000D02*
X136992000Y-103926000D01*
X136992000Y-103926000D02*
X136992000Y-108926000D01*
X136992000Y-108926000D02*
X128992000Y-108926000D01*
X128992000Y-108926000D02*
X128992000Y-103926000D01*
X120229000Y-76160500D02*
X120229000Y-84160500D01*
X120229000Y-84160500D02*
X115229000Y-84160500D01*
X115229000Y-84160500D02*
X115229000Y-76160500D01*
X115229000Y-76160500D02*
X120229000Y-76160500D01*
X189223000Y-114844000D02*
X189223000Y-119344000D01*
X189223000Y-119344000D02*
X194073000Y-119344000D01*
X194073000Y-119344000D02*
X194073000Y-114844000D01*
X194073000Y-114844000D02*
X189223000Y-114844000D01*
X196335000Y-114844000D02*
X196335000Y-119344000D01*
X196335000Y-119344000D02*
X201185000Y-119344000D01*
X201185000Y-119344000D02*
X201185000Y-114844000D01*
X201185000Y-114844000D02*
X196335000Y-114844000D01*
X203193000Y-114844000D02*
X203193000Y-119344000D01*
X203193000Y-119344000D02*
X208043000Y-119344000D01*
X208043000Y-119344000D02*
X208043000Y-114844000D01*
X208043000Y-114844000D02*
X203193000Y-114844000D01*
X126860000Y-101557000D02*
X178260000Y-101557000D01*
X178260000Y-101557000D02*
X178260000Y-84157000D01*
X178260000Y-84157000D02*
X126860000Y-84157000D01*
X126860000Y-84157000D02*
X126860000Y-101557000D01*
X186098000Y-88824000D02*
X186098000Y-99624000D01*
X186098000Y-99624000D02*
X195898000Y-99624000D01*
X195898000Y-99624000D02*
X195898000Y-88824000D01*
X195898000Y-88824000D02*
X186098000Y-88824000D01*
X167352000Y-77629000D02*
X167352000Y-81629000D01*
X167352000Y-81629000D02*
X179652000Y-81629000D01*
X179652000Y-81629000D02*
X179652000Y-77629000D01*
X179652000Y-77629000D02*
X167352000Y-77629000D01*
X152493000Y-77502000D02*
X152493000Y-81502000D01*
X152493000Y-81502000D02*
X164793000Y-81502000D01*
X164793000Y-81502000D02*
X164793000Y-77502000D01*
X164793000Y-77502000D02*
X152493000Y-77502000D01*
X106773000Y-120638000D02*
X106773000Y-123838000D01*
X106773000Y-123838000D02*
X116523000Y-123838000D01*
X116523000Y-123838000D02*
X116523000Y-120638000D01*
X116523000Y-120638000D02*
X106773000Y-120638000D01*
X114351000Y-119033000D02*
X117551000Y-119033000D01*
X117551000Y-119033000D02*
X117551000Y-109283000D01*
X117551000Y-109283000D02*
X114351000Y-109283000D01*
X114351000Y-109283000D02*
X114351000Y-119033000D01*
X120426000Y-111240000D02*
X120426000Y-114440000D01*
X120426000Y-114440000D02*
X130176000Y-114440000D01*
X130176000Y-114440000D02*
X130176000Y-111240000D01*
X130176000Y-111240000D02*
X120426000Y-111240000D01*
X133252000Y-111240000D02*
X133252000Y-114440000D01*
X133252000Y-114440000D02*
X143002000Y-114440000D01*
X143002000Y-114440000D02*
X143002000Y-111240000D01*
X143002000Y-111240000D02*
X133252000Y-111240000D01*
X146460000Y-111240000D02*
X146460000Y-114440000D01*
X146460000Y-114440000D02*
X156210000Y-114440000D01*
X156210000Y-114440000D02*
X156210000Y-111240000D01*
X156210000Y-111240000D02*
X146460000Y-111240000D01*
X193641000Y-109716000D02*
X193641000Y-112916000D01*
X193641000Y-112916000D02*
X203391000Y-112916000D01*
X203391000Y-112916000D02*
X203391000Y-109716000D01*
X203391000Y-109716000D02*
X193641000Y-109716000D01*
X191677000Y-124028000D02*
X191677000Y-120828000D01*
X191677000Y-120828000D02*
X181927000Y-120828000D01*
X181927000Y-120828000D02*
X181927000Y-124028000D01*
X181927000Y-124028000D02*
X191677000Y-124028000D01*
X195800000Y-121082000D02*
X195800000Y-124282000D01*
X195800000Y-124282000D02*
X205550000Y-124282000D01*
X205550000Y-124282000D02*
X205550000Y-121082000D01*
X205550000Y-121082000D02*
X195800000Y-121082000D01*
X182465000Y-109716000D02*
X182465000Y-112916000D01*
X182465000Y-112916000D02*
X192215000Y-112916000D01*
X192215000Y-112916000D02*
X192215000Y-109716000D01*
X192215000Y-109716000D02*
X182465000Y-109716000D01*
X191994000Y-81546500D02*
X191994000Y-78346500D01*
X191994000Y-78346500D02*
X182244000Y-78346500D01*
X182244000Y-78346500D02*
X182244000Y-81546500D01*
X182244000Y-81546500D02*
X191994000Y-81546500D01*
X186021000Y-82918500D02*
X186021000Y-86118500D01*
X186021000Y-86118500D02*
X195771000Y-86118500D01*
X195771000Y-86118500D02*
X195771000Y-82918500D01*
X195771000Y-82918500D02*
X186021000Y-82918500D01*
X127601000Y-78410000D02*
X127601000Y-81610000D01*
X127601000Y-81610000D02*
X137351000Y-81610000D01*
X137351000Y-81610000D02*
X137351000Y-78410000D01*
X137351000Y-78410000D02*
X127601000Y-78410000D01*
X139856000Y-78346500D02*
X139856000Y-81546500D01*
X139856000Y-81546500D02*
X149606000Y-81546500D01*
X149606000Y-81546500D02*
X149606000Y-78346500D01*
X149606000Y-78346500D02*
X139856000Y-78346500D01*
X159012000Y-109099000D02*
X159012000Y-103499000D01*
X159012000Y-103499000D02*
X147112000Y-103499000D01*
X147112000Y-103499000D02*
X147112000Y-109099000D01*
X147112000Y-109099000D02*
X159012000Y-109099000D01*
X117805000Y-126352000D02*
X112105000Y-126352000D01*
X112105000Y-126352000D02*
X112105000Y-129552000D01*
X112105000Y-129552000D02*
X117805000Y-129552000D01*
X117805000Y-129552000D02*
X117805000Y-126352000D01*
X128918000Y-126352000D02*
X123218000Y-126352000D01*
X123218000Y-126352000D02*
X123218000Y-129552000D01*
X123218000Y-129552000D02*
X128918000Y-129552000D01*
X128918000Y-129552000D02*
X128918000Y-126352000D01*
X139458000Y-126352000D02*
X133758000Y-126352000D01*
X133758000Y-126352000D02*
X133758000Y-129552000D01*
X133758000Y-129552000D02*
X139458000Y-129552000D01*
X139458000Y-129552000D02*
X139458000Y-126352000D01*
X150508000Y-126352000D02*
X144808000Y-126352000D01*
X144808000Y-126352000D02*
X144808000Y-129552000D01*
X144808000Y-129552000D02*
X150508000Y-129552000D01*
X150508000Y-129552000D02*
X150508000Y-126352000D01*
X161239000Y-126352000D02*
X155539000Y-126352000D01*
X155539000Y-126352000D02*
X155539000Y-129552000D01*
X155539000Y-129552000D02*
X161239000Y-129552000D01*
X161239000Y-129552000D02*
X161239000Y-126352000D01*
X204648000Y-84188500D02*
X204648000Y-89888500D01*
X204648000Y-89888500D02*
X207848000Y-89888500D01*
X207848000Y-89888500D02*
X207848000Y-84188500D01*
X207848000Y-84188500D02*
X204648000Y-84188500D01*
X204712000Y-93396000D02*
X204712000Y-99096000D01*
X204712000Y-99096000D02*
X207912000Y-99096000D01*
X207912000Y-99096000D02*
X207912000Y-93396000D01*
X207912000Y-93396000D02*
X204712000Y-93396000D01*
X204775000Y-102286000D02*
X204775000Y-110486000D01*
X204775000Y-110486000D02*
X207975000Y-110486000D01*
X207975000Y-110486000D02*
X207975000Y-102286000D01*
X207975000Y-102286000D02*
X204775000Y-102286000D01*
X185046000Y-66216000D02*
X185046000Y-62816000D01*
X185046000Y-62816000D02*
X175096000Y-62816000D01*
X175096000Y-62816000D02*
X175096000Y-66216000D01*
X175096000Y-66216000D02*
X185046000Y-66216000D01*
X196652000Y-78437000D02*
X196652000Y-81837000D01*
X196652000Y-81837000D02*
X206602000Y-81837000D01*
X206602000Y-81837000D02*
X206602000Y-78437000D01*
X206602000Y-78437000D02*
X196652000Y-78437000D01*
X172136000Y-74752000D02*
X188036000Y-74752000D01*
X188036000Y-74752000D02*
X188036000Y-71552000D01*
X188036000Y-71552000D02*
X172136000Y-71552000D01*
X172136000Y-71552000D02*
X172136000Y-74752000D01*
X139370000Y-108344000D02*
X145070000Y-108344000D01*
X145070000Y-108344000D02*
X145070000Y-105144000D01*
X145070000Y-105144000D02*
X139370000Y-105144000D01*
X139370000Y-105144000D02*
X139370000Y-108344000D01*
X103204000Y-68370000D02*
X113204000Y-68370000D01*
X103204000Y-53570000D02*
X113204000Y-53570000D01*
X103204000Y-53570000D02*
X103204000Y-68370000D01*
X113204000Y-53570000D02*
X113204000Y-68370000D01*
X110250000Y-106433000D02*
X110250000Y-96433000D01*
X110250000Y-96433000D02*
X87700000Y-96433000D01*
X87700000Y-96433000D02*
X87700000Y-106433000D01*
X87700000Y-106433000D02*
X110250000Y-106433000D01*
X112596000Y-96741000D02*
X112596000Y-107091000D01*
X112596000Y-107091000D02*
X120496000Y-107091000D01*
X120496000Y-107091000D02*
X120496000Y-96741000D01*
X120496000Y-96741000D02*
X112596000Y-96741000D01*
X114006000Y-76160500D02*
X114006000Y-84160500D01*
X114006000Y-84160500D02*
X109006000Y-84160500D01*
X109006000Y-84160500D02*
X109006000Y-76160500D01*
X109006000Y-76160500D02*
X114006000Y-76160500D01*
X111684000Y-74561500D02*
X152984000Y-74561500D01*
X152984000Y-74561500D02*
X152984000Y-71361500D01*
X152984000Y-71361500D02*
X111684000Y-71361500D01*
X111684000Y-71361500D02*
X111684000Y-74561500D01*
X180074000Y-85141000D02*
X180074000Y-101041000D01*
X180074000Y-101041000D02*
X183274000Y-101041000D01*
X183274000Y-101041000D02*
X183274000Y-85141000D01*
X183274000Y-85141000D02*
X180074000Y-85141000D01*
X109070000Y-93956000D02*
X109070000Y-85956000D01*
X109070000Y-85956000D02*
X114070000Y-85956000D01*
X114070000Y-85956000D02*
X114070000Y-93956000D01*
X114070000Y-93956000D02*
X109070000Y-93956000D01*
X125171000Y-107200000D02*
X125171000Y-78600000D01*
X125171000Y-78600000D02*
X121971000Y-78600000D01*
X121971000Y-78600000D02*
X121971000Y-107200000D01*
X121971000Y-107200000D02*
X125171000Y-107200000D01*
X195910000Y-77419000D02*
X195910000Y-69219000D01*
X195910000Y-69219000D02*
X192710000Y-69219000D01*
X192710000Y-69219000D02*
X192710000Y-77419000D01*
X192710000Y-77419000D02*
X195910000Y-77419000D01*
X198771000Y-77144000D02*
X198771000Y-77394000D01*
X198771000Y-77394000D02*
X213771000Y-77394000D01*
X198771000Y-77144000D02*
X198771000Y-74644000D01*
X198771000Y-74644000D02*
X197771000Y-74644000D01*
X197771000Y-74644000D02*
X197771000Y-70644000D01*
X197771000Y-70644000D02*
X198771000Y-70644000D01*
X198771000Y-70644000D02*
X198771000Y-67894000D01*
X198771000Y-67894000D02*
X200771000Y-67894000D01*
X200771000Y-67894000D02*
X200771000Y-65894000D01*
X200771000Y-65894000D02*
X204771000Y-65894000D01*
X204771000Y-65894000D02*
X204771000Y-67894000D01*
X204771000Y-67894000D02*
X213771000Y-67894000D01*
X213771000Y-67894000D02*
X213771000Y-77394000D01*
X124809000Y-67220000D02*
X133509000Y-67220000D01*
X133509000Y-67220000D02*
X133509000Y-58520000D01*
X133509000Y-58520000D02*
X124809000Y-58520000D01*
X124809000Y-58520000D02*
X124809000Y-67220000D01*
X102965000Y-119354000D02*
X111665000Y-119354000D01*
X111665000Y-119354000D02*
X111665000Y-110654000D01*
X111665000Y-110654000D02*
X102965000Y-110654000D01*
X102965000Y-110654000D02*
X102965000Y-119354000D01*
X159916000Y-116229000D02*
X159916000Y-124229000D01*
X159916000Y-124229000D02*
X154916000Y-124229000D01*
X154916000Y-124229000D02*
X154916000Y-116229000D01*
X154916000Y-116229000D02*
X159916000Y-116229000D01*
X168806000Y-116229000D02*
X168806000Y-124229000D01*
X168806000Y-124229000D02*
X163806000Y-124229000D01*
X163806000Y-124229000D02*
X163806000Y-116229000D01*
X163806000Y-116229000D02*
X168806000Y-116229000D01*
X177506000Y-116166000D02*
X177506000Y-124166000D01*
X177506000Y-124166000D02*
X172506000Y-124166000D01*
X172506000Y-124166000D02*
X172506000Y-116166000D01*
X172506000Y-116166000D02*
X177506000Y-116166000D01*
X182048000Y-114844000D02*
X182048000Y-119344000D01*
X182048000Y-119344000D02*
X186898000Y-119344000D01*
X186898000Y-119344000D02*
X186898000Y-114844000D01*
X186898000Y-114844000D02*
X182048000Y-114844000D01*
X174447000Y-104042000D02*
X171247000Y-104042000D01*
X171247000Y-104042000D02*
X171247000Y-113792000D01*
X171247000Y-113792000D02*
X174447000Y-113792000D01*
X174447000Y-113792000D02*
X174447000Y-104042000D01*
X159351000Y-111240000D02*
X159351000Y-114440000D01*
X159351000Y-114440000D02*
X169101000Y-114440000D01*
X169101000Y-114440000D02*
X169101000Y-111240000D01*
X169101000Y-111240000D02*
X159351000Y-111240000D01*
X180352000Y-104106000D02*
X177152000Y-104106000D01*
X177152000Y-104106000D02*
X177152000Y-113856000D01*
X177152000Y-113856000D02*
X180352000Y-113856000D01*
X180352000Y-113856000D02*
X180352000Y-104106000D01*
X171780000Y-126352000D02*
X166080000Y-126352000D01*
X166080000Y-126352000D02*
X166080000Y-129552000D01*
X166080000Y-129552000D02*
X171780000Y-129552000D01*
X171780000Y-129552000D02*
X171780000Y-126352000D01*
X183146000Y-126416000D02*
X177446000Y-126416000D01*
X177446000Y-126416000D02*
X177446000Y-129616000D01*
X177446000Y-129616000D02*
X183146000Y-129616000D01*
X183146000Y-129616000D02*
X183146000Y-126416000D01*
X193814000Y-126226000D02*
X188114000Y-126226000D01*
X188114000Y-126226000D02*
X188114000Y-129426000D01*
X188114000Y-129426000D02*
X193814000Y-129426000D01*
X193814000Y-129426000D02*
X193814000Y-126226000D01*
M02*
