G04 #@! TF.FileFunction,Soldermask,Bot*
%FSLAX46Y46*%
G04 Gerber Fmt 4.6, Leading zero omitted, Abs format (unit mm)*
G04 Created by KiCad (PCBNEW 4.0.5+dfsg1-4) date Sat Jul  7 08:12:10 2018*
%MOMM*%
%LPD*%
G01*
G04 APERTURE LIST*
%ADD10C,0.100000*%
%ADD11O,2.000000X3.500000*%
%ADD12C,1.600000*%
%ADD13O,4.000000X2.000000*%
%ADD14C,4.064000*%
%ADD15C,2.000000*%
%ADD16R,1.400000X1.400000*%
%ADD17C,1.400000*%
%ADD18R,1.800000X1.800000*%
%ADD19C,1.800000*%
%ADD20R,1.600000X1.600000*%
%ADD21O,1.600000X1.600000*%
%ADD22C,1.500000*%
%ADD23R,1.700000X1.700000*%
%ADD24O,1.700000X1.700000*%
%ADD25O,1.800000X1.800000*%
%ADD26O,2.540000X2.032000*%
%ADD27O,1.400000X2.000000*%
%ADD28C,2.340000*%
%ADD29R,3.500000X3.500000*%
G04 APERTURE END LIST*
D10*
D11*
X169440000Y-61666000D03*
X155740000Y-61666000D03*
D12*
X161290000Y-65016000D03*
X163890000Y-65016000D03*
X159190000Y-65016000D03*
X165990000Y-65016000D03*
X159190000Y-67316000D03*
X165990000Y-67316000D03*
D13*
X162590000Y-61366000D03*
D14*
X195072000Y-62992000D03*
X118936000Y-63119000D03*
X105410000Y-128016000D03*
D15*
X147627840Y-63309500D03*
X140028160Y-63309500D03*
D16*
X117792000Y-92456000D03*
D17*
X117792000Y-87456000D03*
D16*
X201295000Y-105346000D03*
D17*
X196295000Y-105346000D03*
D16*
X190690000Y-105346000D03*
D17*
X185690000Y-105346000D03*
D16*
X200279000Y-84836000D03*
D17*
X200279000Y-89836000D03*
D16*
X200279000Y-94615000D03*
D17*
X200279000Y-99615000D03*
D16*
X121412000Y-117729000D03*
D17*
X121412000Y-122729000D03*
D16*
X130048000Y-117729000D03*
D17*
X130048000Y-122729000D03*
D16*
X139446000Y-117729000D03*
D17*
X139446000Y-122729000D03*
D16*
X148272000Y-117729000D03*
D17*
X148272000Y-122729000D03*
D16*
X167767000Y-106426000D03*
D17*
X162767000Y-106426000D03*
D16*
X130492000Y-106426000D03*
D17*
X135492000Y-106426000D03*
D16*
X117729000Y-77660500D03*
D17*
X117729000Y-82660500D03*
D18*
X190373000Y-117094000D03*
D19*
X192913000Y-117094000D03*
D18*
X197485000Y-117094000D03*
D19*
X200025000Y-117094000D03*
D18*
X204343000Y-117094000D03*
D19*
X206883000Y-117094000D03*
D20*
X128460000Y-100457000D03*
D21*
X176720000Y-85217000D03*
X131000000Y-100457000D03*
X174180000Y-85217000D03*
X133540000Y-100457000D03*
X171640000Y-85217000D03*
X136080000Y-100457000D03*
X169100000Y-85217000D03*
X138620000Y-100457000D03*
X166560000Y-85217000D03*
X141160000Y-100457000D03*
X164020000Y-85217000D03*
X143700000Y-100457000D03*
X161480000Y-85217000D03*
X146240000Y-100457000D03*
X158940000Y-85217000D03*
X148780000Y-100457000D03*
X156400000Y-85217000D03*
X151320000Y-100457000D03*
X153860000Y-85217000D03*
X153860000Y-100457000D03*
X151320000Y-85217000D03*
X156400000Y-100457000D03*
X148780000Y-85217000D03*
X158940000Y-100457000D03*
X146240000Y-85217000D03*
X161480000Y-100457000D03*
X143700000Y-85217000D03*
X164020000Y-100457000D03*
X141160000Y-85217000D03*
X166560000Y-100457000D03*
X138620000Y-85217000D03*
X169100000Y-100457000D03*
X136080000Y-85217000D03*
X171640000Y-100457000D03*
X133540000Y-85217000D03*
X174180000Y-100457000D03*
X131000000Y-85217000D03*
X176720000Y-100457000D03*
X128460000Y-85217000D03*
D20*
X187198000Y-90424000D03*
D21*
X194818000Y-98044000D03*
X187198000Y-92964000D03*
X194818000Y-95504000D03*
X187198000Y-95504000D03*
X194818000Y-92964000D03*
X187198000Y-98044000D03*
X194818000Y-90424000D03*
D12*
X168402000Y-79629000D03*
D21*
X178562000Y-79629000D03*
D12*
X153543000Y-79502000D03*
D21*
X163703000Y-79502000D03*
D12*
X107823000Y-122238000D03*
D21*
X115443000Y-122238000D03*
D12*
X115951000Y-117983000D03*
D21*
X115951000Y-110363000D03*
D12*
X121476000Y-112840000D03*
D21*
X129096000Y-112840000D03*
D12*
X134302000Y-112840000D03*
D21*
X141922000Y-112840000D03*
D12*
X147510000Y-112840000D03*
D21*
X155130000Y-112840000D03*
D12*
X194691000Y-111316000D03*
D21*
X202311000Y-111316000D03*
D12*
X190627000Y-122428000D03*
D21*
X183007000Y-122428000D03*
D12*
X196850000Y-122682000D03*
D21*
X204470000Y-122682000D03*
D12*
X183515000Y-111316000D03*
D21*
X191135000Y-111316000D03*
D12*
X190944000Y-79946500D03*
D21*
X183324000Y-79946500D03*
D12*
X187071000Y-84518500D03*
D21*
X194691000Y-84518500D03*
D12*
X128651000Y-80010000D03*
D21*
X136271000Y-80010000D03*
D12*
X140906000Y-79946500D03*
D21*
X148526000Y-79946500D03*
D22*
X155512000Y-106299000D03*
X150632000Y-106299000D03*
D23*
X116205000Y-127952000D03*
D24*
X113665000Y-127952000D03*
D23*
X127318000Y-127952000D03*
D24*
X124778000Y-127952000D03*
D23*
X137858000Y-127952000D03*
D24*
X135318000Y-127952000D03*
D23*
X148908000Y-127952000D03*
D24*
X146368000Y-127952000D03*
D23*
X159639000Y-127952000D03*
D24*
X157099000Y-127952000D03*
D23*
X206248000Y-85788500D03*
D24*
X206248000Y-88328500D03*
D23*
X206312000Y-94996000D03*
D24*
X206312000Y-97536000D03*
D23*
X206375000Y-103886000D03*
D24*
X206375000Y-106426000D03*
X206375000Y-108966000D03*
D18*
X183896000Y-64516000D03*
D25*
X176276000Y-64516000D03*
D18*
X197802000Y-80137000D03*
D25*
X205422000Y-80137000D03*
D23*
X173736000Y-73152000D03*
D24*
X176276000Y-73152000D03*
X178816000Y-73152000D03*
X181356000Y-73152000D03*
X183896000Y-73152000D03*
X186436000Y-73152000D03*
D23*
X140970000Y-106744000D03*
D24*
X143510000Y-106744000D03*
D14*
X204470000Y-128016000D03*
D26*
X104394000Y-75565000D03*
X104394000Y-78105000D03*
X104394000Y-73025000D03*
D27*
X105904000Y-67180000D03*
X110504000Y-66080000D03*
X110504000Y-62080000D03*
X110504000Y-59080000D03*
D22*
X108204000Y-57480000D03*
X108204000Y-64480000D03*
D19*
X107950000Y-103933000D03*
X107950000Y-101433000D03*
X107950000Y-98933000D03*
D28*
X114046000Y-104441000D03*
X119046000Y-101941000D03*
X114046000Y-99441000D03*
D16*
X111506000Y-77660500D03*
D17*
X111506000Y-82660500D03*
D23*
X113284000Y-72961500D03*
D24*
X115824000Y-72961500D03*
X118364000Y-72961500D03*
X120904000Y-72961500D03*
X123444000Y-72961500D03*
X125984000Y-72961500D03*
X128524000Y-72961500D03*
X131064000Y-72961500D03*
X133604000Y-72961500D03*
X136144000Y-72961500D03*
X138684000Y-72961500D03*
X141224000Y-72961500D03*
X143764000Y-72961500D03*
X146304000Y-72961500D03*
X148844000Y-72961500D03*
X151384000Y-72961500D03*
D23*
X181674000Y-86741000D03*
D24*
X181674000Y-89281000D03*
X181674000Y-91821000D03*
X181674000Y-94361000D03*
X181674000Y-96901000D03*
X181674000Y-99441000D03*
D16*
X111570000Y-92456000D03*
D17*
X111570000Y-87456000D03*
D23*
X123571000Y-105600000D03*
D24*
X123571000Y-103060000D03*
X123571000Y-100520000D03*
X123571000Y-97980000D03*
X123571000Y-95440000D03*
X123571000Y-92900000D03*
X123571000Y-90360000D03*
X123571000Y-87820000D03*
X123571000Y-85280000D03*
X123571000Y-82740000D03*
X123571000Y-80200000D03*
D23*
X194310000Y-75819000D03*
D24*
X194310000Y-73279000D03*
X194310000Y-70739000D03*
D26*
X104394000Y-88519000D03*
X104394000Y-91059000D03*
X104394000Y-85979000D03*
D29*
X199771000Y-72644000D03*
X205771000Y-72644000D03*
X202771000Y-67944000D03*
D20*
X129159000Y-64770000D03*
D12*
X129159000Y-60970000D03*
D20*
X107315000Y-116904000D03*
D12*
X107315000Y-113104000D03*
D16*
X157416000Y-117729000D03*
D17*
X157416000Y-122729000D03*
D16*
X166306000Y-117729000D03*
D17*
X166306000Y-122729000D03*
D16*
X175006000Y-117666000D03*
D17*
X175006000Y-122666000D03*
D18*
X183198000Y-117094000D03*
D19*
X185738000Y-117094000D03*
D12*
X172847000Y-105092000D03*
D21*
X172847000Y-112712000D03*
D12*
X160401000Y-112840000D03*
D21*
X168021000Y-112840000D03*
D12*
X178752000Y-105156000D03*
D21*
X178752000Y-112776000D03*
D23*
X170180000Y-127952000D03*
D24*
X167640000Y-127952000D03*
D23*
X181546000Y-128016000D03*
D24*
X179006000Y-128016000D03*
D23*
X192214000Y-127826000D03*
D24*
X189674000Y-127826000D03*
M02*
