%FSLAX45Y45*%
G04 Gerber Fmt 4.5, Leading zero omitted, Abs format (unit mm)*
G04 Created by KiCad (PCBNEW 4.0.5+dfsg1-4) date Sat Jul  7 08:12:18 2018*
%MOMM*%
%LPD*%
G01*
G04 APERTURE LIST*
%ADD10C,0.127000*%
%ADD11C,0.100000*%
%ADD12C,0.200000*%
%ADD13C,0.300000*%
G04 APERTURE END LIST*
D10*
D11*
X10000000Y-5593600D02*
X21000000Y-5593600D01*
X10000000Y-13393600D02*
X10000000Y-13093600D01*
X21000000Y-13393600D02*
X21000000Y-13093600D01*
X10000000Y-13093600D02*
X10000000Y-5593600D01*
X21000000Y-13393600D02*
X10000000Y-13393600D01*
X21000000Y-5593600D02*
X21000000Y-13093600D01*
D12*
X10745400Y-5673000D02*
X10895400Y-5823000D01*
X10895400Y-5673000D02*
X10745400Y-5823000D01*
X10745400Y-6373000D02*
X10895400Y-6523000D01*
X10895400Y-6373000D02*
X10745400Y-6523000D01*
D13*
X10266429Y-13864314D02*
X10266429Y-13564314D01*
X10337857Y-13564314D01*
X10380714Y-13578600D01*
X10409286Y-13607171D01*
X10423571Y-13635743D01*
X10437857Y-13692886D01*
X10437857Y-13735743D01*
X10423571Y-13792886D01*
X10409286Y-13821457D01*
X10380714Y-13850029D01*
X10337857Y-13864314D01*
X10266429Y-13864314D01*
X10566429Y-13864314D02*
X10566429Y-13664314D01*
X10566429Y-13721457D02*
X10580714Y-13692886D01*
X10595000Y-13678600D01*
X10623571Y-13664314D01*
X10652143Y-13664314D01*
X10752143Y-13864314D02*
X10752143Y-13664314D01*
X10752143Y-13564314D02*
X10737857Y-13578600D01*
X10752143Y-13592886D01*
X10766429Y-13578600D01*
X10752143Y-13564314D01*
X10752143Y-13592886D01*
X10937857Y-13864314D02*
X10909286Y-13850029D01*
X10895000Y-13821457D01*
X10895000Y-13564314D01*
X11095000Y-13864314D02*
X11066429Y-13850029D01*
X11052143Y-13821457D01*
X11052143Y-13564314D01*
X11437857Y-13864314D02*
X11437857Y-13564314D01*
X11537857Y-13778600D01*
X11637857Y-13564314D01*
X11637857Y-13864314D01*
X11909286Y-13864314D02*
X11909286Y-13707171D01*
X11895000Y-13678600D01*
X11866428Y-13664314D01*
X11809286Y-13664314D01*
X11780714Y-13678600D01*
X11909286Y-13850029D02*
X11880714Y-13864314D01*
X11809286Y-13864314D01*
X11780714Y-13850029D01*
X11766428Y-13821457D01*
X11766428Y-13792886D01*
X11780714Y-13764314D01*
X11809286Y-13750029D01*
X11880714Y-13750029D01*
X11909286Y-13735743D01*
X12052143Y-13664314D02*
X12052143Y-13964314D01*
X12052143Y-13678600D02*
X12080714Y-13664314D01*
X12137857Y-13664314D01*
X12166428Y-13678600D01*
X12180714Y-13692886D01*
X12195000Y-13721457D01*
X12195000Y-13807171D01*
X12180714Y-13835743D01*
X12166428Y-13850029D01*
X12137857Y-13864314D01*
X12080714Y-13864314D01*
X12052143Y-13850029D01*
X12323571Y-13835743D02*
X12337857Y-13850029D01*
X12323571Y-13864314D01*
X12309286Y-13850029D01*
X12323571Y-13835743D01*
X12323571Y-13864314D01*
X12323571Y-13678600D02*
X12337857Y-13692886D01*
X12323571Y-13707171D01*
X12309286Y-13692886D01*
X12323571Y-13678600D01*
X12323571Y-13707171D01*
X9845000Y-14283600D02*
X9995000Y-14433600D01*
X9995000Y-14283600D02*
X9845000Y-14433600D01*
X10423571Y-14494314D02*
X10252143Y-14494314D01*
X10337857Y-14494314D02*
X10337857Y-14194314D01*
X10309286Y-14237171D01*
X10280714Y-14265743D01*
X10252143Y-14280029D01*
X10552143Y-14465743D02*
X10566429Y-14480029D01*
X10552143Y-14494314D01*
X10537857Y-14480029D01*
X10552143Y-14465743D01*
X10552143Y-14494314D01*
X10837857Y-14194314D02*
X10695000Y-14194314D01*
X10680714Y-14337171D01*
X10695000Y-14322886D01*
X10723571Y-14308600D01*
X10795000Y-14308600D01*
X10823571Y-14322886D01*
X10837857Y-14337171D01*
X10852143Y-14365743D01*
X10852143Y-14437171D01*
X10837857Y-14465743D01*
X10823571Y-14480029D01*
X10795000Y-14494314D01*
X10723571Y-14494314D01*
X10695000Y-14480029D01*
X10680714Y-14465743D01*
X11037857Y-14194314D02*
X11066429Y-14194314D01*
X11095000Y-14208600D01*
X11109286Y-14222886D01*
X11123571Y-14251457D01*
X11137857Y-14308600D01*
X11137857Y-14380029D01*
X11123571Y-14437171D01*
X11109286Y-14465743D01*
X11095000Y-14480029D01*
X11066429Y-14494314D01*
X11037857Y-14494314D01*
X11009286Y-14480029D01*
X10995000Y-14465743D01*
X10980714Y-14437171D01*
X10966429Y-14380029D01*
X10966429Y-14308600D01*
X10980714Y-14251457D01*
X10995000Y-14222886D01*
X11009286Y-14208600D01*
X11037857Y-14194314D01*
X11266428Y-14494314D02*
X11266428Y-14294314D01*
X11266428Y-14322886D02*
X11280714Y-14308600D01*
X11309286Y-14294314D01*
X11352143Y-14294314D01*
X11380714Y-14308600D01*
X11395000Y-14337171D01*
X11395000Y-14494314D01*
X11395000Y-14337171D02*
X11409286Y-14308600D01*
X11437857Y-14294314D01*
X11480714Y-14294314D01*
X11509286Y-14308600D01*
X11523571Y-14337171D01*
X11523571Y-14494314D01*
X11666428Y-14494314D02*
X11666428Y-14294314D01*
X11666428Y-14322886D02*
X11680714Y-14308600D01*
X11709286Y-14294314D01*
X11752143Y-14294314D01*
X11780714Y-14308600D01*
X11795000Y-14337171D01*
X11795000Y-14494314D01*
X11795000Y-14337171D02*
X11809286Y-14308600D01*
X11837857Y-14294314D01*
X11880714Y-14294314D01*
X11909286Y-14308600D01*
X11923571Y-14337171D01*
X11923571Y-14494314D01*
X12509286Y-14180029D02*
X12252143Y-14565743D01*
X12895000Y-14194314D02*
X12923571Y-14194314D01*
X12952143Y-14208600D01*
X12966428Y-14222886D01*
X12980714Y-14251457D01*
X12995000Y-14308600D01*
X12995000Y-14380029D01*
X12980714Y-14437171D01*
X12966428Y-14465743D01*
X12952143Y-14480029D01*
X12923571Y-14494314D01*
X12895000Y-14494314D01*
X12866428Y-14480029D01*
X12852143Y-14465743D01*
X12837857Y-14437171D01*
X12823571Y-14380029D01*
X12823571Y-14308600D01*
X12837857Y-14251457D01*
X12852143Y-14222886D01*
X12866428Y-14208600D01*
X12895000Y-14194314D01*
X13123571Y-14465743D02*
X13137857Y-14480029D01*
X13123571Y-14494314D01*
X13109286Y-14480029D01*
X13123571Y-14465743D01*
X13123571Y-14494314D01*
X13323571Y-14194314D02*
X13352143Y-14194314D01*
X13380714Y-14208600D01*
X13395000Y-14222886D01*
X13409285Y-14251457D01*
X13423571Y-14308600D01*
X13423571Y-14380029D01*
X13409285Y-14437171D01*
X13395000Y-14465743D01*
X13380714Y-14480029D01*
X13352143Y-14494314D01*
X13323571Y-14494314D01*
X13295000Y-14480029D01*
X13280714Y-14465743D01*
X13266428Y-14437171D01*
X13252143Y-14380029D01*
X13252143Y-14308600D01*
X13266428Y-14251457D01*
X13280714Y-14222886D01*
X13295000Y-14208600D01*
X13323571Y-14194314D01*
X13695000Y-14194314D02*
X13552143Y-14194314D01*
X13537857Y-14337171D01*
X13552143Y-14322886D01*
X13580714Y-14308600D01*
X13652143Y-14308600D01*
X13680714Y-14322886D01*
X13695000Y-14337171D01*
X13709285Y-14365743D01*
X13709285Y-14437171D01*
X13695000Y-14465743D01*
X13680714Y-14480029D01*
X13652143Y-14494314D01*
X13580714Y-14494314D01*
X13552143Y-14480029D01*
X13537857Y-14465743D01*
X13852143Y-14494314D02*
X13909285Y-14494314D01*
X13937857Y-14480029D01*
X13952143Y-14465743D01*
X13980714Y-14422886D01*
X13995000Y-14365743D01*
X13995000Y-14251457D01*
X13980714Y-14222886D01*
X13966428Y-14208600D01*
X13937857Y-14194314D01*
X13880714Y-14194314D01*
X13852143Y-14208600D01*
X13837857Y-14222886D01*
X13823571Y-14251457D01*
X13823571Y-14322886D01*
X13837857Y-14351457D01*
X13852143Y-14365743D01*
X13880714Y-14380029D01*
X13937857Y-14380029D01*
X13966428Y-14365743D01*
X13980714Y-14351457D01*
X13995000Y-14322886D01*
X14109286Y-14194314D02*
X14109286Y-14251457D01*
X14223571Y-14194314D02*
X14223571Y-14251457D01*
X14666428Y-14608600D02*
X14652143Y-14594314D01*
X14623571Y-14551457D01*
X14609285Y-14522886D01*
X14595000Y-14480029D01*
X14580714Y-14408600D01*
X14580714Y-14351457D01*
X14595000Y-14280029D01*
X14609285Y-14237171D01*
X14623571Y-14208600D01*
X14652143Y-14165743D01*
X14666428Y-14151457D01*
X14766428Y-14222886D02*
X14780714Y-14208600D01*
X14809285Y-14194314D01*
X14880714Y-14194314D01*
X14909285Y-14208600D01*
X14923571Y-14222886D01*
X14937857Y-14251457D01*
X14937857Y-14280029D01*
X14923571Y-14322886D01*
X14752143Y-14494314D01*
X14937857Y-14494314D01*
X15295000Y-14494314D02*
X15295000Y-14194314D01*
X15423571Y-14494314D02*
X15423571Y-14337171D01*
X15409285Y-14308600D01*
X15380714Y-14294314D01*
X15337857Y-14294314D01*
X15309285Y-14308600D01*
X15295000Y-14322886D01*
X15609285Y-14494314D02*
X15580714Y-14480029D01*
X15566428Y-14465743D01*
X15552143Y-14437171D01*
X15552143Y-14351457D01*
X15566428Y-14322886D01*
X15580714Y-14308600D01*
X15609285Y-14294314D01*
X15652143Y-14294314D01*
X15680714Y-14308600D01*
X15695000Y-14322886D01*
X15709285Y-14351457D01*
X15709285Y-14437171D01*
X15695000Y-14465743D01*
X15680714Y-14480029D01*
X15652143Y-14494314D01*
X15609285Y-14494314D01*
X15880714Y-14494314D02*
X15852143Y-14480029D01*
X15837857Y-14451457D01*
X15837857Y-14194314D01*
X16109286Y-14480029D02*
X16080714Y-14494314D01*
X16023571Y-14494314D01*
X15995000Y-14480029D01*
X15980714Y-14451457D01*
X15980714Y-14337171D01*
X15995000Y-14308600D01*
X16023571Y-14294314D01*
X16080714Y-14294314D01*
X16109286Y-14308600D01*
X16123571Y-14337171D01*
X16123571Y-14365743D01*
X15980714Y-14394314D01*
X16237857Y-14480029D02*
X16266428Y-14494314D01*
X16323571Y-14494314D01*
X16352143Y-14480029D01*
X16366428Y-14451457D01*
X16366428Y-14437171D01*
X16352143Y-14408600D01*
X16323571Y-14394314D01*
X16280714Y-14394314D01*
X16252143Y-14380029D01*
X16237857Y-14351457D01*
X16237857Y-14337171D01*
X16252143Y-14308600D01*
X16280714Y-14294314D01*
X16323571Y-14294314D01*
X16352143Y-14308600D01*
X16466428Y-14608600D02*
X16480714Y-14594314D01*
X16509286Y-14551457D01*
X16523571Y-14522886D01*
X16537857Y-14480029D01*
X16552143Y-14408600D01*
X16552143Y-14351457D01*
X16537857Y-14280029D01*
X16523571Y-14237171D01*
X16509286Y-14208600D01*
X16480714Y-14165743D01*
X16466428Y-14151457D01*
X17009286Y-14608600D02*
X16995000Y-14594314D01*
X16966428Y-14551457D01*
X16952143Y-14522886D01*
X16937857Y-14480029D01*
X16923571Y-14408600D01*
X16923571Y-14351457D01*
X16937857Y-14280029D01*
X16952143Y-14237171D01*
X16966428Y-14208600D01*
X16995000Y-14165743D01*
X17009286Y-14151457D01*
X17123571Y-14294314D02*
X17123571Y-14494314D01*
X17123571Y-14322886D02*
X17137857Y-14308600D01*
X17166428Y-14294314D01*
X17209286Y-14294314D01*
X17237857Y-14308600D01*
X17252143Y-14337171D01*
X17252143Y-14494314D01*
X17437857Y-14494314D02*
X17409286Y-14480029D01*
X17395000Y-14465743D01*
X17380714Y-14437171D01*
X17380714Y-14351457D01*
X17395000Y-14322886D01*
X17409286Y-14308600D01*
X17437857Y-14294314D01*
X17480714Y-14294314D01*
X17509286Y-14308600D01*
X17523571Y-14322886D01*
X17537857Y-14351457D01*
X17537857Y-14437171D01*
X17523571Y-14465743D01*
X17509286Y-14480029D01*
X17480714Y-14494314D01*
X17437857Y-14494314D01*
X17623571Y-14294314D02*
X17737857Y-14294314D01*
X17666429Y-14194314D02*
X17666429Y-14451457D01*
X17680714Y-14480029D01*
X17709286Y-14494314D01*
X17737857Y-14494314D01*
X18066429Y-14294314D02*
X18066429Y-14594314D01*
X18066429Y-14308600D02*
X18095000Y-14294314D01*
X18152143Y-14294314D01*
X18180714Y-14308600D01*
X18195000Y-14322886D01*
X18209286Y-14351457D01*
X18209286Y-14437171D01*
X18195000Y-14465743D01*
X18180714Y-14480029D01*
X18152143Y-14494314D01*
X18095000Y-14494314D01*
X18066429Y-14480029D01*
X18380714Y-14494314D02*
X18352143Y-14480029D01*
X18337857Y-14451457D01*
X18337857Y-14194314D01*
X18623571Y-14494314D02*
X18623571Y-14337171D01*
X18609286Y-14308600D01*
X18580714Y-14294314D01*
X18523571Y-14294314D01*
X18495000Y-14308600D01*
X18623571Y-14480029D02*
X18595000Y-14494314D01*
X18523571Y-14494314D01*
X18495000Y-14480029D01*
X18480714Y-14451457D01*
X18480714Y-14422886D01*
X18495000Y-14394314D01*
X18523571Y-14380029D01*
X18595000Y-14380029D01*
X18623571Y-14365743D01*
X18723571Y-14294314D02*
X18837857Y-14294314D01*
X18766429Y-14194314D02*
X18766429Y-14451457D01*
X18780714Y-14480029D01*
X18809286Y-14494314D01*
X18837857Y-14494314D01*
X19052143Y-14480029D02*
X19023572Y-14494314D01*
X18966429Y-14494314D01*
X18937857Y-14480029D01*
X18923572Y-14451457D01*
X18923572Y-14337171D01*
X18937857Y-14308600D01*
X18966429Y-14294314D01*
X19023572Y-14294314D01*
X19052143Y-14308600D01*
X19066429Y-14337171D01*
X19066429Y-14365743D01*
X18923572Y-14394314D01*
X19323572Y-14494314D02*
X19323572Y-14194314D01*
X19323572Y-14480029D02*
X19295000Y-14494314D01*
X19237857Y-14494314D01*
X19209286Y-14480029D01*
X19195000Y-14465743D01*
X19180714Y-14437171D01*
X19180714Y-14351457D01*
X19195000Y-14322886D01*
X19209286Y-14308600D01*
X19237857Y-14294314D01*
X19295000Y-14294314D01*
X19323572Y-14308600D01*
X19437857Y-14608600D02*
X19452143Y-14594314D01*
X19480714Y-14551457D01*
X19495000Y-14522886D01*
X19509286Y-14480029D01*
X19523572Y-14408600D01*
X19523572Y-14351457D01*
X19509286Y-14280029D01*
X19495000Y-14237171D01*
X19480714Y-14208600D01*
X19452143Y-14165743D01*
X19437857Y-14151457D01*
M02*
